<svg width="406" height="228" viewBox="0 0 406 228" fill="none" xmlns="http://www.w3.org/2000/svg">
<rect width="406" height="228" fill="black"/>
<path d="M61.0464 66.237L56.1294 82H54.2154L50.2224 69.977C50.1858 69.8597 50.1491 69.735 50.1124 69.603C50.0831 69.471 50.0501 69.3317 50.0134 69.185C49.9768 69.3317 49.9401 69.471 49.9034 69.603C49.8668 69.735 49.8301 69.8597 49.7934 69.977L45.7784 82H43.8644L38.9474 66.237H40.7184C40.9091 66.237 41.0668 66.2847 41.1914 66.38C41.3234 66.4753 41.4078 66.5963 41.4444 66.743L44.7004 77.699C44.7518 77.897 44.7994 78.1097 44.8434 78.337C44.8948 78.5643 44.9424 78.8063 44.9864 79.063C45.0378 78.8063 45.0891 78.5643 45.1404 78.337C45.1991 78.1023 45.2614 77.8897 45.3274 77.699L49.0344 66.743C49.0784 66.6183 49.1628 66.5047 49.2874 66.402C49.4194 66.292 49.5771 66.237 49.7604 66.237H50.3764C50.5671 66.237 50.7211 66.2847 50.8384 66.38C50.9558 66.4753 51.0438 66.5963 51.1024 66.743L54.7984 77.699C54.8644 77.8897 54.9231 78.095 54.9744 78.315C55.0331 78.535 55.0881 78.766 55.1394 79.008C55.1761 78.766 55.2164 78.535 55.2604 78.315C55.3044 78.095 55.3521 77.8897 55.4034 77.699L58.6704 66.743C58.7071 66.611 58.7878 66.4937 58.9124 66.391C59.0444 66.2883 59.2021 66.237 59.3854 66.237H61.0464ZM73.2709 66.237V67.117C73.2709 67.3663 73.2416 67.5717 73.1829 67.733C73.1316 67.8943 73.0802 68.03 73.0289 68.14L66.4949 81.307C66.3995 81.4977 66.2675 81.6627 66.0989 81.802C65.9302 81.934 65.7065 82 65.4279 82H64.0199L70.6419 68.998C70.7372 68.8147 70.8362 68.646 70.9389 68.492C71.0415 68.338 71.1515 68.1913 71.2689 68.052H63.0409C62.9162 68.052 62.8062 68.0043 62.7109 67.909C62.6155 67.8063 62.5679 67.6927 62.5679 67.568V66.237H73.2709ZM81.1455 74.575H86.5795V76.236H81.1455V74.575ZM104.519 80.207V82H95.5765V66.237H97.6995V80.207H104.519ZM116.062 80.504V82H107.614V80.504H110.991V69.757C110.991 69.4343 111.002 69.108 111.024 68.778L108.219 71.187C108.124 71.2677 108.029 71.319 107.933 71.341C107.838 71.3557 107.75 71.3557 107.669 71.341C107.589 71.3263 107.512 71.297 107.438 71.253C107.372 71.209 107.321 71.1613 107.284 71.11L106.668 70.263L111.365 66.204H112.96V80.504H116.062ZM128.483 80.141C128.696 80.141 128.864 80.2033 128.989 80.328C129.114 80.4527 129.176 80.614 129.176 80.812V82H118.66V81.329C118.66 81.1897 118.689 81.0467 118.748 80.9C118.807 80.7533 118.898 80.6177 119.023 80.493L124.072 75.422C124.49 74.9967 124.871 74.5897 125.216 74.201C125.561 73.805 125.854 73.409 126.096 73.013C126.338 72.617 126.525 72.2173 126.657 71.814C126.789 71.4033 126.855 70.967 126.855 70.505C126.855 70.043 126.782 69.6397 126.635 69.295C126.488 68.943 126.287 68.6533 126.03 68.426C125.781 68.1987 125.484 68.03 125.139 67.92C124.794 67.8027 124.424 67.744 124.028 67.744C123.625 67.744 123.254 67.8027 122.917 67.92C122.58 68.0373 122.279 68.2023 122.015 68.415C121.758 68.6203 121.542 68.866 121.366 69.152C121.19 69.438 121.065 69.7533 120.992 70.098C120.904 70.3547 120.783 70.527 120.629 70.615C120.482 70.6957 120.273 70.7177 120.002 70.681L118.979 70.505C119.082 69.7863 119.28 69.152 119.573 68.602C119.874 68.0447 120.248 67.579 120.695 67.205C121.15 66.831 121.667 66.5487 122.246 66.358C122.825 66.16 123.452 66.061 124.127 66.061C124.794 66.061 125.418 66.16 125.997 66.358C126.576 66.556 127.079 66.8457 127.504 67.227C127.929 67.601 128.263 68.0593 128.505 68.602C128.747 69.1447 128.868 69.7607 128.868 70.45C128.868 71.0367 128.78 71.583 128.604 72.089C128.428 72.5877 128.19 73.0643 127.889 73.519C127.588 73.9737 127.24 74.4173 126.844 74.85C126.455 75.2827 126.041 75.719 125.601 76.159L121.443 80.405C121.736 80.3243 122.033 80.262 122.334 80.218C122.635 80.1667 122.924 80.141 123.203 80.141H128.483ZM131.609 80.79C131.609 80.5993 131.642 80.4197 131.708 80.251C131.781 80.0823 131.876 79.9357 131.994 79.811C132.118 79.6863 132.265 79.5873 132.434 79.514C132.602 79.4407 132.782 79.404 132.973 79.404C133.163 79.404 133.343 79.4407 133.512 79.514C133.68 79.5873 133.827 79.6863 133.952 79.811C134.076 79.9357 134.175 80.0823 134.249 80.251C134.322 80.4197 134.359 80.5993 134.359 80.79C134.359 80.988 134.322 81.1713 134.249 81.34C134.175 81.5013 134.076 81.6443 133.952 81.769C133.827 81.8937 133.68 81.989 133.512 82.055C133.343 82.1283 133.163 82.165 132.973 82.165C132.782 82.165 132.602 82.1283 132.434 82.055C132.265 81.989 132.118 81.8937 131.994 81.769C131.876 81.6443 131.781 81.5013 131.708 81.34C131.642 81.1713 131.609 80.988 131.609 80.79ZM146.444 80.141C146.657 80.141 146.825 80.2033 146.95 80.328C147.075 80.4527 147.137 80.614 147.137 80.812V82H136.621V81.329C136.621 81.1897 136.65 81.0467 136.709 80.9C136.768 80.7533 136.859 80.6177 136.984 80.493L142.033 75.422C142.451 74.9967 142.832 74.5897 143.177 74.201C143.522 73.805 143.815 73.409 144.057 73.013C144.299 72.617 144.486 72.2173 144.618 71.814C144.75 71.4033 144.816 70.967 144.816 70.505C144.816 70.043 144.743 69.6397 144.596 69.295C144.449 68.943 144.248 68.6533 143.991 68.426C143.742 68.1987 143.445 68.03 143.1 67.92C142.755 67.8027 142.385 67.744 141.989 67.744C141.586 67.744 141.215 67.8027 140.878 67.92C140.541 68.0373 140.24 68.2023 139.976 68.415C139.719 68.6203 139.503 68.866 139.327 69.152C139.151 69.438 139.026 69.7533 138.953 70.098C138.865 70.3547 138.744 70.527 138.59 70.615C138.443 70.6957 138.234 70.7177 137.963 70.681L136.94 70.505C137.043 69.7863 137.241 69.152 137.534 68.602C137.835 68.0447 138.209 67.579 138.656 67.205C139.111 66.831 139.628 66.5487 140.207 66.358C140.786 66.16 141.413 66.061 142.088 66.061C142.755 66.061 143.379 66.16 143.958 66.358C144.537 66.556 145.04 66.8457 145.465 67.227C145.89 67.601 146.224 68.0593 146.466 68.602C146.708 69.1447 146.829 69.7607 146.829 70.45C146.829 71.0367 146.741 71.583 146.565 72.089C146.389 72.5877 146.151 73.0643 145.85 73.519C145.549 73.9737 145.201 74.4173 144.805 74.85C144.416 75.2827 144.002 75.719 143.562 76.159L139.404 80.405C139.697 80.3243 139.994 80.262 140.295 80.218C140.596 80.1667 140.885 80.141 141.164 80.141H146.444ZM160.358 73.871C160.974 73.871 161.516 73.7977 161.986 73.651C162.462 73.497 162.858 73.2843 163.174 73.013C163.496 72.7343 163.738 72.4043 163.9 72.023C164.061 71.6417 164.142 71.22 164.142 70.758C164.142 69.8193 163.834 69.1117 163.218 68.635C162.602 68.1583 161.678 67.92 160.446 67.92H158.114V73.871H160.358ZM167.64 82H165.748C165.359 82 165.073 81.8497 164.89 81.549L160.798 75.917C160.673 75.741 160.537 75.6163 160.391 75.543C160.251 75.4623 160.031 75.422 159.731 75.422H158.114V82H155.991V66.237H160.446C161.443 66.237 162.305 66.3397 163.031 66.545C163.757 66.743 164.354 67.0327 164.824 67.414C165.3 67.7953 165.652 68.2573 165.88 68.8C166.107 69.3353 166.221 69.9367 166.221 70.604C166.221 71.1613 166.133 71.682 165.957 72.166C165.781 72.65 165.524 73.0863 165.187 73.475C164.857 73.8563 164.45 74.1827 163.966 74.454C163.489 74.7253 162.946 74.9307 162.338 75.07C162.609 75.224 162.844 75.4477 163.042 75.741L167.64 82ZM176.071 75.213C176.071 74.7583 176.005 74.344 175.873 73.97C175.748 73.5887 175.561 73.2623 175.312 72.991C175.07 72.7123 174.773 72.4997 174.421 72.353C174.069 72.199 173.669 72.122 173.222 72.122C172.283 72.122 171.539 72.397 170.989 72.947C170.446 73.4897 170.109 74.245 169.977 75.213H176.071ZM177.655 80.438C177.413 80.7313 177.123 80.988 176.786 81.208C176.448 81.4207 176.085 81.5967 175.697 81.736C175.315 81.8753 174.919 81.978 174.509 82.044C174.098 82.1173 173.691 82.154 173.288 82.154C172.518 82.154 171.806 82.0257 171.154 81.769C170.508 81.505 169.947 81.1237 169.471 80.625C169.001 80.119 168.635 79.4957 168.371 78.755C168.107 78.0143 167.975 77.1637 167.975 76.203C167.975 75.4257 168.092 74.6997 168.327 74.025C168.569 73.3503 168.913 72.7673 169.361 72.276C169.808 71.7773 170.354 71.3887 171 71.11C171.645 70.824 172.371 70.681 173.178 70.681C173.845 70.681 174.461 70.7947 175.026 71.022C175.598 71.242 176.089 71.5647 176.5 71.99C176.918 72.408 177.244 72.9287 177.479 73.552C177.713 74.168 177.831 74.872 177.831 75.664C177.831 75.972 177.798 76.1773 177.732 76.28C177.666 76.3827 177.541 76.434 177.358 76.434H169.911C169.933 77.138 170.028 77.7503 170.197 78.271C170.373 78.7917 170.615 79.228 170.923 79.58C171.231 79.9247 171.597 80.185 172.023 80.361C172.448 80.5297 172.925 80.614 173.453 80.614C173.944 80.614 174.366 80.559 174.718 80.449C175.077 80.3317 175.385 80.207 175.642 80.075C175.898 79.943 176.111 79.822 176.28 79.712C176.456 79.5947 176.606 79.536 176.731 79.536C176.892 79.536 177.017 79.5983 177.105 79.723L177.655 80.438ZM186.275 76.984C185.373 77.0133 184.603 77.0867 183.965 77.204C183.334 77.314 182.817 77.4607 182.414 77.644C182.018 77.8273 181.728 78.0437 181.545 78.293C181.369 78.5423 181.281 78.821 181.281 79.129C181.281 79.4223 181.328 79.6753 181.424 79.888C181.519 80.1007 181.647 80.2767 181.809 80.416C181.977 80.548 182.172 80.647 182.392 80.713C182.619 80.7717 182.861 80.801 183.118 80.801C183.462 80.801 183.778 80.768 184.064 80.702C184.35 80.6287 184.617 80.526 184.867 80.394C185.123 80.262 185.365 80.1043 185.593 79.921C185.827 79.7377 186.055 79.5287 186.275 79.294V76.984ZM179.95 72.43C180.566 71.836 181.229 71.3923 181.941 71.099C182.652 70.8057 183.44 70.659 184.306 70.659C184.929 70.659 185.483 70.7617 185.967 70.967C186.451 71.1723 186.858 71.4583 187.188 71.825C187.518 72.1917 187.767 72.6353 187.936 73.156C188.104 73.6767 188.189 74.2487 188.189 74.872V82H187.32C187.129 82 186.982 81.9707 186.88 81.912C186.777 81.846 186.696 81.7213 186.638 81.538L186.418 80.482C186.124 80.7533 185.838 80.9953 185.56 81.208C185.281 81.4133 184.988 81.5893 184.68 81.736C184.372 81.8753 184.042 81.9817 183.69 82.055C183.345 82.1357 182.96 82.176 182.535 82.176C182.102 82.176 181.695 82.1173 181.314 82C180.932 81.8753 180.599 81.692 180.313 81.45C180.034 81.208 179.81 80.9037 179.642 80.537C179.48 80.163 179.4 79.723 179.4 79.217C179.4 78.777 179.521 78.3553 179.763 77.952C180.005 77.5413 180.397 77.1783 180.94 76.863C181.482 76.5477 182.19 76.291 183.063 76.093C183.935 75.8877 185.006 75.7703 186.275 75.741V74.872C186.275 74.0067 186.088 73.354 185.714 72.914C185.34 72.4667 184.793 72.243 184.075 72.243C183.591 72.243 183.184 72.3053 182.854 72.43C182.531 72.5473 182.249 72.683 182.007 72.837C181.772 72.9837 181.567 73.1193 181.391 73.244C181.222 73.3613 181.053 73.42 180.885 73.42C180.753 73.42 180.639 73.387 180.544 73.321C180.448 73.2477 180.368 73.1597 180.302 73.057L179.95 72.43ZM198.926 72.837C198.867 72.9177 198.809 72.98 198.75 73.024C198.691 73.068 198.611 73.09 198.508 73.09C198.398 73.09 198.277 73.046 198.145 72.958C198.013 72.8627 197.848 72.76 197.65 72.65C197.459 72.54 197.221 72.441 196.935 72.353C196.656 72.2577 196.312 72.21 195.901 72.21C195.351 72.21 194.867 72.309 194.449 72.507C194.031 72.6977 193.679 72.9763 193.393 73.343C193.114 73.7097 192.902 74.1533 192.755 74.674C192.616 75.1947 192.546 75.7777 192.546 76.423C192.546 77.0977 192.623 77.699 192.777 78.227C192.931 78.7477 193.147 79.1877 193.426 79.547C193.712 79.899 194.053 80.1703 194.449 80.361C194.852 80.5443 195.303 80.636 195.802 80.636C196.279 80.636 196.671 80.581 196.979 80.471C197.287 80.3537 197.54 80.2253 197.738 80.086C197.943 79.9467 198.112 79.822 198.244 79.712C198.383 79.5947 198.519 79.536 198.651 79.536C198.812 79.536 198.937 79.5983 199.025 79.723L199.575 80.438C199.333 80.7387 199.058 80.9953 198.75 81.208C198.442 81.4207 198.108 81.6003 197.749 81.747C197.397 81.8863 197.027 81.989 196.638 82.055C196.249 82.121 195.853 82.154 195.45 82.154C194.753 82.154 194.104 82.0257 193.503 81.769C192.909 81.5123 192.392 81.142 191.952 80.658C191.512 80.1667 191.167 79.5653 190.918 78.854C190.669 78.1427 190.544 77.3323 190.544 76.423C190.544 75.5943 190.658 74.828 190.885 74.124C191.12 73.42 191.457 72.815 191.897 72.309C192.344 71.7957 192.891 71.396 193.536 71.11C194.189 70.824 194.937 70.681 195.78 70.681C196.565 70.681 197.254 70.8093 197.848 71.066C198.449 71.3153 198.981 71.671 199.443 72.133L198.926 72.837ZM203.646 72.342C204.123 71.836 204.651 71.4327 205.23 71.132C205.809 70.8313 206.477 70.681 207.232 70.681C207.841 70.681 208.376 70.7837 208.838 70.989C209.307 71.187 209.696 71.473 210.004 71.847C210.319 72.2137 210.558 72.6573 210.719 73.178C210.88 73.6987 210.961 74.2743 210.961 74.905V82H208.992V74.905C208.992 74.0617 208.798 73.409 208.409 72.947C208.028 72.4777 207.445 72.243 206.66 72.243C206.081 72.243 205.538 72.3823 205.032 72.661C204.533 72.9397 204.071 73.3173 203.646 73.794V82H201.677V65.797H203.646V72.342ZM218.554 63.718V76.038H220.248V63.718H218.554ZM226.518 63.718V76.038H228.234V63.718H226.518ZM213.45 75.004V76.61H233.426V75.004H213.45ZM214.33 68.184V69.768H232.634V68.184H214.33ZM225.308 78.7C227.398 80.262 230.06 82.44 231.38 83.76L232.942 82.748C231.534 81.428 228.784 79.316 226.738 77.864L225.308 78.7ZM219.61 77.886C218.378 79.536 215.914 81.45 213.736 82.616C214.132 82.924 214.704 83.43 215.034 83.782C217.256 82.506 219.764 80.482 221.326 78.546L219.61 77.886ZM245.68 66.666H252.346V73.266H245.68V66.666ZM244.052 65.082V74.85H254.04V65.082H244.052ZM250.608 77.49C251.796 79.426 253.028 82 253.512 83.562L255.14 82.902C254.656 81.34 253.336 78.854 252.126 76.94L250.608 77.49ZM245.614 76.984C244.954 79.25 243.81 81.406 242.314 82.792C242.732 83.034 243.458 83.496 243.766 83.738C245.24 82.22 246.538 79.866 247.308 77.358L245.614 76.984ZM236.616 65.104C237.826 66.116 239.322 67.546 240.026 68.492L241.17 67.326C240.444 66.424 238.926 65.06 237.716 64.114L236.616 65.104ZM238.376 83.144C238.706 82.704 239.3 82.242 243.128 79.25C242.93 78.92 242.644 78.282 242.49 77.842L238.464 80.878L238.046 81.582L238.376 83.144ZM235.472 70.428V72.034H239.542V70.428H235.472ZM238.376 83.144C238.376 82.484 240.18 80.79 240.18 80.79V70.428H238.574V79.646C238.574 80.812 237.782 81.67 237.342 82.022C237.65 82.286 238.178 82.836 238.376 83.144ZM257.384 66.094V67.634H265.546V66.094H257.384ZM261.74 69.526V83.694H263.324V69.526H261.74ZM257.252 78.348L257.604 79.954C260.002 79.514 263.214 78.854 266.294 78.26L266.206 76.808C262.928 77.402 259.496 77.996 257.252 78.348ZM258.154 74.718C258.154 74.388 259.144 73.838 259.144 73.838V73.816C260.442 71.198 261.762 67.414 262.554 63.872L260.926 63.542C260.42 66.864 259.144 70.56 258.748 71.484C258.352 72.452 258.022 73.156 257.648 73.266C257.846 73.662 258.088 74.388 258.154 74.718ZM258.154 74.718C258.352 74.542 259.012 74.41 259.782 74.41H265.59V72.892H259.056L258.154 73.332V74.718ZM268.758 74.344V75.906H275.336V74.344H268.758ZM274.94 74.344V74.542C274.016 75.928 272.19 78.48 270.672 80.372L272.102 81.032C273.642 79.074 275.424 76.654 276.634 74.828L275.468 74.256L275.226 74.344H274.94ZM268.076 79.14C270.298 80.46 272.916 82.506 274.214 83.804L275.292 82.506C273.994 81.23 271.398 79.382 269.132 78.084L268.076 79.14ZM271.244 63.542C270.32 67.392 268.78 72.782 267.658 75.906H269.44C270.43 72.914 271.882 67.634 272.872 63.762L271.244 63.542ZM266.602 66.116V67.656H276.678V66.116H266.602ZM265.766 70.252V71.792H277.47V70.252H265.766ZM292.518 63.542C291.55 65.236 289.636 67.194 286.886 68.58C287.238 68.822 287.722 69.35 287.942 69.702C290.912 68.074 292.892 65.962 294.168 63.828L292.518 63.542ZM291.99 65.456L291.022 66.82H297.336V65.456H291.99ZM296.764 65.456V65.72C295.312 69.57 291.352 72.056 287.282 73.046C287.568 73.376 287.986 73.992 288.14 74.388C292.562 73.112 296.676 70.494 298.414 65.874L297.358 65.368L297.072 65.456H296.764ZM289.702 68.382C290.89 69.13 292.342 70.296 293.002 71.088L294.102 70.164C293.398 69.35 291.968 68.25 290.758 67.546L289.702 68.382ZM293.684 71.814C292.606 73.75 290.406 75.95 287.172 77.468C287.524 77.71 288.008 78.238 288.228 78.612C291.66 76.852 293.948 74.498 295.356 72.1L293.684 71.814ZM293.068 73.904L292.078 75.312H298.326V73.904H293.068ZM297.842 73.904V74.168C296.28 78.876 291.792 81.428 286.82 82.374C287.106 82.726 287.48 83.364 287.656 83.782C292.98 82.572 297.666 79.866 299.536 74.3L298.48 73.838L298.172 73.904H297.842ZM290.186 77.204C291.594 78.04 293.222 79.294 293.992 80.218L295.158 79.184C294.366 78.282 292.716 77.05 291.308 76.28L290.186 77.204ZM283.058 65.346V83.716H284.664V65.346H283.058ZM279.45 69.724V71.286H287.436V69.724H279.45ZM283.146 70.318C282.354 73.046 280.594 76.478 279.01 78.238C279.296 78.612 279.692 79.294 279.846 79.756C281.54 77.71 283.3 73.86 284.18 70.758L283.146 70.318ZM286.314 63.85C284.708 64.598 281.804 65.214 279.318 65.632C279.516 66.006 279.736 66.534 279.824 66.908C282.376 66.556 285.456 65.94 287.48 65.126L286.314 63.85ZM284.598 72.562L283.828 73.222C284.51 73.992 286.16 76.082 286.688 76.984L287.656 75.686C287.216 75.136 285.148 73.046 284.598 72.562ZM306.114 71.528V73.068H316.63V71.528H306.114ZM307.192 66.666V68.25H318.94V66.666H307.192ZM301.56 76.28V77.864H321.25V76.28H301.56ZM316.036 71.528V71.836C315.442 78.392 314.848 81.164 313.968 81.912C313.66 82.154 313.374 82.198 312.824 82.198C312.186 82.198 310.558 82.176 308.864 82.022C309.194 82.484 309.414 83.188 309.436 83.672C311.042 83.76 312.604 83.804 313.396 83.738C314.298 83.672 314.826 83.54 315.376 82.968C316.41 81.956 317.026 79.206 317.664 72.32C317.708 72.078 317.73 71.528 317.73 71.528H316.036ZM307.038 63.498C306.488 66.798 305.498 71.374 304.728 74.036L306.444 74.212C307.126 71.572 308.116 67.062 308.754 63.652L307.038 63.498ZM324.352 64.972V66.534H342.568V64.972H324.352ZM323.538 72.826V74.41H343.272V72.826H323.538ZM336.65 65.786V83.782H338.344V65.786H336.65ZM328.818 65.786V71.88C328.818 75.686 328.312 79.712 323.582 82.638C324 82.902 324.594 83.474 324.88 83.848C329.94 80.658 330.49 76.148 330.49 71.88V65.786H328.818ZM353.326 73.09L351.918 73.53C354.162 78.942 358.32 82.462 364.568 83.826C364.788 83.386 365.25 82.704 365.602 82.374C359.486 81.186 355.306 77.908 353.326 73.09ZM361.18 72.474V72.76C359.53 78.062 354.8 81.142 349.652 82.396C349.982 82.748 350.378 83.386 350.554 83.804C356.054 82.308 360.96 79.096 362.962 72.914L361.84 72.408L361.51 72.474H361.18ZM352.842 72.474L352.38 74.058H361.444V72.474H352.842ZM354.36 63.454C353.392 71.286 350.884 77.226 345.054 80.746C345.45 81.054 346.044 81.67 346.286 82.022C352.49 78.216 355.064 72.078 356.186 63.74L354.36 63.454ZM359.178 64.62C360.146 65.654 361.378 67.062 361.994 67.898L363.314 66.996C362.698 66.182 361.422 64.818 360.476 63.85L359.178 64.62ZM347.562 70.494C347.562 70.098 348.882 69.548 348.882 69.548V69.526C349.63 68.294 350.51 66.336 351.06 64.466L349.278 64.158C348.926 65.852 348.068 67.612 347.826 68.074C347.562 68.558 347.298 68.866 347.012 68.954C347.188 69.35 347.452 70.142 347.562 70.494ZM347.562 70.494C347.782 70.252 348.508 70.12 349.894 70.12H364.854V68.536H348.662L347.562 69.196V70.494ZM187.386 94.184V95.526H201.62V94.184H187.386ZM188.684 100.124V101.378H200.168V100.124H188.684ZM187.694 103.138V104.502H201.136V103.138H187.694ZM193.48 89.696V106.834H195.086V89.696H193.48ZM188.97 91.302V92.622H198.342V97.154H188.816V98.474H199.97V91.302H188.97ZM181.402 90.928V92.402H186.154V90.928H181.402ZM185.56 90.928V91.126C184.746 92.974 183.052 96.538 181.688 99.112L183.184 99.53C184.526 96.912 186.176 93.502 187.188 91.192L186.066 90.84L185.802 90.928H185.56ZM183.404 97.198L183.206 98.672H187.012V97.198H183.404ZM186.33 97.198V97.528C185.78 103.204 184.02 106.79 181.226 108.66C181.6 108.88 182.216 109.474 182.48 109.804C185.34 107.736 187.254 103.798 187.914 97.396L186.968 97.154L186.66 97.198H186.33ZM183.47 100.432L182.15 100.938C184.284 107.846 188.53 109.188 194.888 109.188H201.092C201.202 108.704 201.51 107.956 201.774 107.582C200.608 107.604 195.856 107.604 194.932 107.604C189.344 107.604 185.252 106.504 183.47 100.432ZM212.202 91.148L210.64 91.412C212.312 100.564 215.458 106.966 222.784 109.848C223.026 109.408 223.554 108.748 223.95 108.396C216.866 105.888 213.676 99.64 212.202 91.148ZM214.402 90.554C215.304 92.028 216.228 94.008 216.58 95.218L218.076 94.514C217.702 93.326 216.712 91.412 215.81 89.96L214.402 90.554ZM220.804 90.884C219.55 98.738 217.064 105.25 209.342 108.572C209.65 108.902 210.09 109.518 210.31 109.914C218.384 106.306 221.024 99.508 222.476 91.148L220.804 90.884ZM204.964 91.038C205.976 92.094 207.164 93.524 207.714 94.47L208.968 93.414C208.418 92.534 207.164 91.148 206.152 90.158L204.964 91.038ZM206.614 109.188C206.944 108.77 207.516 108.33 211.388 105.558C211.234 105.25 210.97 104.612 210.86 104.172L206.79 106.966L206.328 107.648L206.614 109.188ZM203.512 96.428V98.012H207.978V96.428H203.512ZM206.614 109.188C206.614 108.528 208.198 106.988 208.198 106.988V96.428H206.614V105.8C206.614 106.922 206.02 107.692 205.646 108.022C205.932 108.264 206.416 108.858 206.614 109.188Z" fill="white"/>
</svg>
