<svg width="406" height="228" viewBox="0 0 406 228" fill="none" xmlns="http://www.w3.org/2000/svg">
<rect width="406" height="228" fill="black"/>
<path d="M83.0464 66.237L78.1294 82H76.2154L72.2224 69.977C72.1858 69.8597 72.1491 69.735 72.1124 69.603C72.0831 69.471 72.0501 69.3317 72.0134 69.185C71.9768 69.3317 71.9401 69.471 71.9034 69.603C71.8668 69.735 71.8301 69.8597 71.7934 69.977L67.7784 82H65.8644L60.9474 66.237H62.7184C62.9091 66.237 63.0668 66.2847 63.1914 66.38C63.3234 66.4753 63.4078 66.5963 63.4444 66.743L66.7004 77.699C66.7518 77.897 66.7994 78.1097 66.8434 78.337C66.8948 78.5643 66.9424 78.8063 66.9864 79.063C67.0378 78.8063 67.0891 78.5643 67.1404 78.337C67.1991 78.1023 67.2614 77.8897 67.3274 77.699L71.0344 66.743C71.0784 66.6183 71.1628 66.5047 71.2874 66.402C71.4194 66.292 71.5771 66.237 71.7604 66.237H72.3764C72.5671 66.237 72.7211 66.2847 72.8384 66.38C72.9558 66.4753 73.0438 66.5963 73.1024 66.743L76.7984 77.699C76.8644 77.8897 76.9231 78.095 76.9744 78.315C77.0331 78.535 77.0881 78.766 77.1394 79.008C77.1761 78.766 77.2164 78.535 77.2604 78.315C77.3044 78.095 77.3521 77.8897 77.4034 77.699L80.6704 66.743C80.7071 66.611 80.7878 66.4937 80.9124 66.391C81.0444 66.2883 81.2021 66.237 81.3854 66.237H83.0464ZM95.2709 66.237V67.117C95.2709 67.3663 95.2416 67.5717 95.1829 67.733C95.1316 67.8943 95.0802 68.03 95.0289 68.14L88.4949 81.307C88.3995 81.4977 88.2675 81.6627 88.0989 81.802C87.9302 81.934 87.7065 82 87.4279 82H86.0199L92.6419 68.998C92.7372 68.8147 92.8362 68.646 92.9389 68.492C93.0415 68.338 93.1515 68.1913 93.2689 68.052H85.0409C84.9162 68.052 84.8062 68.0043 84.7109 67.909C84.6155 67.8063 84.5679 67.6927 84.5679 67.568V66.237H95.2709ZM103.146 74.575H108.58V76.236H103.146V74.575ZM126.519 80.207V82H117.576V66.237H119.699V80.207H126.519ZM138.062 80.504V82H129.614V80.504H132.991V69.757C132.991 69.4343 133.002 69.108 133.024 68.778L130.219 71.187C130.124 71.2677 130.029 71.319 129.933 71.341C129.838 71.3557 129.75 71.3557 129.669 71.341C129.589 71.3263 129.512 71.297 129.438 71.253C129.372 71.209 129.321 71.1613 129.284 71.11L128.668 70.263L133.365 66.204H134.96V80.504H138.062ZM150.824 80.504V82H142.376V80.504H145.753V69.757C145.753 69.4343 145.764 69.108 145.786 68.778L142.981 71.187C142.886 71.2677 142.79 71.319 142.695 71.341C142.6 71.3557 142.512 71.3557 142.431 71.341C142.35 71.3263 142.273 71.297 142.2 71.253C142.134 71.209 142.083 71.1613 142.046 71.11L141.43 70.263L146.127 66.204H147.722V80.504H150.824ZM153.609 80.79C153.609 80.5993 153.642 80.4197 153.708 80.251C153.781 80.0823 153.876 79.9357 153.994 79.811C154.118 79.6863 154.265 79.5873 154.434 79.514C154.602 79.4407 154.782 79.404 154.973 79.404C155.163 79.404 155.343 79.4407 155.512 79.514C155.68 79.5873 155.827 79.6863 155.952 79.811C156.076 79.9357 156.175 80.0823 156.249 80.251C156.322 80.4197 156.359 80.5993 156.359 80.79C156.359 80.988 156.322 81.1713 156.249 81.34C156.175 81.5013 156.076 81.6443 155.952 81.769C155.827 81.8937 155.68 81.989 155.512 82.055C155.343 82.1283 155.163 82.165 154.973 82.165C154.782 82.165 154.602 82.1283 154.434 82.055C154.265 81.989 154.118 81.8937 153.994 81.769C153.876 81.6443 153.781 81.5013 153.708 81.34C153.642 81.1713 153.609 80.988 153.609 80.79ZM168.785 80.504V82H160.337V80.504H163.714V69.757C163.714 69.4343 163.725 69.108 163.747 68.778L160.942 71.187C160.847 71.2677 160.751 71.319 160.656 71.341C160.561 71.3557 160.473 71.3557 160.392 71.341C160.311 71.3263 160.234 71.297 160.161 71.253C160.095 71.209 160.044 71.1613 160.007 71.11L159.391 70.263L164.088 66.204H165.683V80.504H168.785ZM182.358 73.871C182.974 73.871 183.516 73.7977 183.986 73.651C184.462 73.497 184.858 73.2843 185.174 73.013C185.496 72.7343 185.738 72.4043 185.9 72.023C186.061 71.6417 186.142 71.22 186.142 70.758C186.142 69.8193 185.834 69.1117 185.218 68.635C184.602 68.1583 183.678 67.92 182.446 67.92H180.114V73.871H182.358ZM189.64 82H187.748C187.359 82 187.073 81.8497 186.89 81.549L182.798 75.917C182.673 75.741 182.537 75.6163 182.391 75.543C182.251 75.4623 182.031 75.422 181.731 75.422H180.114V82H177.991V66.237H182.446C183.443 66.237 184.305 66.3397 185.031 66.545C185.757 66.743 186.354 67.0327 186.824 67.414C187.3 67.7953 187.652 68.2573 187.88 68.8C188.107 69.3353 188.221 69.9367 188.221 70.604C188.221 71.1613 188.133 71.682 187.957 72.166C187.781 72.65 187.524 73.0863 187.187 73.475C186.857 73.8563 186.45 74.1827 185.966 74.454C185.489 74.7253 184.946 74.9307 184.338 75.07C184.609 75.224 184.844 75.4477 185.042 75.741L189.64 82ZM198.071 75.213C198.071 74.7583 198.005 74.344 197.873 73.97C197.748 73.5887 197.561 73.2623 197.312 72.991C197.07 72.7123 196.773 72.4997 196.421 72.353C196.069 72.199 195.669 72.122 195.222 72.122C194.283 72.122 193.539 72.397 192.989 72.947C192.446 73.4897 192.109 74.245 191.977 75.213H198.071ZM199.655 80.438C199.413 80.7313 199.123 80.988 198.786 81.208C198.448 81.4207 198.085 81.5967 197.697 81.736C197.315 81.8753 196.919 81.978 196.509 82.044C196.098 82.1173 195.691 82.154 195.288 82.154C194.518 82.154 193.806 82.0257 193.154 81.769C192.508 81.505 191.947 81.1237 191.471 80.625C191.001 80.119 190.635 79.4957 190.371 78.755C190.107 78.0143 189.975 77.1637 189.975 76.203C189.975 75.4257 190.092 74.6997 190.327 74.025C190.569 73.3503 190.913 72.7673 191.361 72.276C191.808 71.7773 192.354 71.3887 193 71.11C193.645 70.824 194.371 70.681 195.178 70.681C195.845 70.681 196.461 70.7947 197.026 71.022C197.598 71.242 198.089 71.5647 198.5 71.99C198.918 72.408 199.244 72.9287 199.479 73.552C199.713 74.168 199.831 74.872 199.831 75.664C199.831 75.972 199.798 76.1773 199.732 76.28C199.666 76.3827 199.541 76.434 199.358 76.434H191.911C191.933 77.138 192.028 77.7503 192.197 78.271C192.373 78.7917 192.615 79.228 192.923 79.58C193.231 79.9247 193.597 80.185 194.023 80.361C194.448 80.5297 194.925 80.614 195.453 80.614C195.944 80.614 196.366 80.559 196.718 80.449C197.077 80.3317 197.385 80.207 197.642 80.075C197.898 79.943 198.111 79.822 198.28 79.712C198.456 79.5947 198.606 79.536 198.731 79.536C198.892 79.536 199.017 79.5983 199.105 79.723L199.655 80.438ZM208.275 76.984C207.373 77.0133 206.603 77.0867 205.965 77.204C205.334 77.314 204.817 77.4607 204.414 77.644C204.018 77.8273 203.728 78.0437 203.545 78.293C203.369 78.5423 203.281 78.821 203.281 79.129C203.281 79.4223 203.328 79.6753 203.424 79.888C203.519 80.1007 203.647 80.2767 203.809 80.416C203.977 80.548 204.172 80.647 204.392 80.713C204.619 80.7717 204.861 80.801 205.118 80.801C205.462 80.801 205.778 80.768 206.064 80.702C206.35 80.6287 206.617 80.526 206.867 80.394C207.123 80.262 207.365 80.1043 207.593 79.921C207.827 79.7377 208.055 79.5287 208.275 79.294V76.984ZM201.95 72.43C202.566 71.836 203.229 71.3923 203.941 71.099C204.652 70.8057 205.44 70.659 206.306 70.659C206.929 70.659 207.483 70.7617 207.967 70.967C208.451 71.1723 208.858 71.4583 209.188 71.825C209.518 72.1917 209.767 72.6353 209.936 73.156C210.104 73.6767 210.189 74.2487 210.189 74.872V82H209.32C209.129 82 208.982 81.9707 208.88 81.912C208.777 81.846 208.696 81.7213 208.638 81.538L208.418 80.482C208.124 80.7533 207.838 80.9953 207.56 81.208C207.281 81.4133 206.988 81.5893 206.68 81.736C206.372 81.8753 206.042 81.9817 205.69 82.055C205.345 82.1357 204.96 82.176 204.535 82.176C204.102 82.176 203.695 82.1173 203.314 82C202.932 81.8753 202.599 81.692 202.313 81.45C202.034 81.208 201.81 80.9037 201.642 80.537C201.48 80.163 201.4 79.723 201.4 79.217C201.4 78.777 201.521 78.3553 201.763 77.952C202.005 77.5413 202.397 77.1783 202.94 76.863C203.482 76.5477 204.19 76.291 205.063 76.093C205.935 75.8877 207.006 75.7703 208.275 75.741V74.872C208.275 74.0067 208.088 73.354 207.714 72.914C207.34 72.4667 206.793 72.243 206.075 72.243C205.591 72.243 205.184 72.3053 204.854 72.43C204.531 72.5473 204.249 72.683 204.007 72.837C203.772 72.9837 203.567 73.1193 203.391 73.244C203.222 73.3613 203.053 73.42 202.885 73.42C202.753 73.42 202.639 73.387 202.544 73.321C202.448 73.2477 202.368 73.1597 202.302 73.057L201.95 72.43ZM220.926 72.837C220.867 72.9177 220.809 72.98 220.75 73.024C220.691 73.068 220.611 73.09 220.508 73.09C220.398 73.09 220.277 73.046 220.145 72.958C220.013 72.8627 219.848 72.76 219.65 72.65C219.459 72.54 219.221 72.441 218.935 72.353C218.656 72.2577 218.312 72.21 217.901 72.21C217.351 72.21 216.867 72.309 216.449 72.507C216.031 72.6977 215.679 72.9763 215.393 73.343C215.114 73.7097 214.902 74.1533 214.755 74.674C214.616 75.1947 214.546 75.7777 214.546 76.423C214.546 77.0977 214.623 77.699 214.777 78.227C214.931 78.7477 215.147 79.1877 215.426 79.547C215.712 79.899 216.053 80.1703 216.449 80.361C216.852 80.5443 217.303 80.636 217.802 80.636C218.279 80.636 218.671 80.581 218.979 80.471C219.287 80.3537 219.54 80.2253 219.738 80.086C219.943 79.9467 220.112 79.822 220.244 79.712C220.383 79.5947 220.519 79.536 220.651 79.536C220.812 79.536 220.937 79.5983 221.025 79.723L221.575 80.438C221.333 80.7387 221.058 80.9953 220.75 81.208C220.442 81.4207 220.108 81.6003 219.749 81.747C219.397 81.8863 219.027 81.989 218.638 82.055C218.249 82.121 217.853 82.154 217.45 82.154C216.753 82.154 216.104 82.0257 215.503 81.769C214.909 81.5123 214.392 81.142 213.952 80.658C213.512 80.1667 213.167 79.5653 212.918 78.854C212.669 78.1427 212.544 77.3323 212.544 76.423C212.544 75.5943 212.658 74.828 212.885 74.124C213.12 73.42 213.457 72.815 213.897 72.309C214.344 71.7957 214.891 71.396 215.536 71.11C216.189 70.824 216.937 70.681 217.78 70.681C218.565 70.681 219.254 70.8093 219.848 71.066C220.449 71.3153 220.981 71.671 221.443 72.133L220.926 72.837ZM225.646 72.342C226.123 71.836 226.651 71.4327 227.23 71.132C227.809 70.8313 228.477 70.681 229.232 70.681C229.841 70.681 230.376 70.7837 230.838 70.989C231.307 71.187 231.696 71.473 232.004 71.847C232.319 72.2137 232.558 72.6573 232.719 73.178C232.88 73.6987 232.961 74.2743 232.961 74.905V82H230.992V74.905C230.992 74.0617 230.798 73.409 230.409 72.947C230.028 72.4777 229.445 72.243 228.66 72.243C228.081 72.243 227.538 72.3823 227.032 72.661C226.533 72.9397 226.071 73.3173 225.646 73.794V82H223.677V65.797H225.646V72.342ZM245.306 65.214C247.264 68.316 251.048 71.572 254.568 73.442C254.854 72.958 255.25 72.364 255.668 71.968C252.148 70.362 248.32 67.128 246.076 63.52H244.338C242.688 66.644 239.08 70.208 235.186 72.232C235.56 72.584 236.022 73.178 236.22 73.596C240.004 71.484 243.546 68.162 245.306 65.214ZM248.408 71.286V83.738H250.102V71.286H248.408ZM240.554 71.374V74.41C240.554 77.138 240.158 80.262 236.022 82.616C236.44 82.88 237.078 83.43 237.342 83.782C241.764 81.186 242.248 77.578 242.248 74.454V71.374H240.554ZM257.868 77.996C257.868 77.666 258.968 77.204 258.968 77.204V77.16C261.212 75.048 263.478 72.1 265.37 69.086L264.05 68.25C262.378 71.242 259.914 74.3 259.122 75.092C258.396 75.906 257.846 76.434 257.362 76.522C257.538 76.94 257.802 77.688 257.868 77.996ZM257.868 77.996C258.352 77.71 259.166 77.512 265.348 76.258C265.326 75.928 265.304 75.312 265.348 74.894L258.616 76.126L257.802 76.698L257.868 77.996ZM257.692 72.716C257.692 72.386 258.682 71.858 258.682 71.858V71.836C260.31 69.834 261.938 67.018 263.148 64.312L261.652 63.586C260.684 66.226 258.99 69.086 258.462 69.812C257.956 70.56 257.582 71.066 257.164 71.176C257.362 71.594 257.604 72.364 257.692 72.716ZM257.692 72.716C258.088 72.518 258.726 72.386 262.884 71.858C262.906 71.528 262.928 70.956 263.016 70.538L258.462 71L257.67 71.506L257.692 72.716ZM257.296 80.834L257.604 82.418C259.738 81.89 262.576 81.186 265.348 80.504L265.172 79.096C262.268 79.778 259.254 80.438 257.296 80.834ZM267.02 81.186V82.682H275.732V81.186H267.02ZM265.634 64.62V66.116H275.886V64.62H265.634ZM266.448 74.718V83.738H268.01V76.214H274.808V83.672H276.436V74.718H266.448ZM275.16 64.62V64.884C274.94 69.46 274.72 71.176 274.324 71.616C274.126 71.814 273.972 71.836 273.598 71.836C273.246 71.836 272.322 71.836 271.354 71.748C271.618 72.166 271.794 72.826 271.838 73.266C272.806 73.332 273.796 73.332 274.324 73.266C274.918 73.222 275.314 73.068 275.688 72.65C276.238 71.99 276.48 70.164 276.722 65.302C276.744 65.082 276.766 64.62 276.766 64.62H275.16ZM269.44 65.126C269.132 68.25 268.318 71.154 264.864 72.628C265.216 72.892 265.678 73.486 265.876 73.86C269.682 72.1 270.672 68.844 271.09 65.126H269.44ZM284.114 71.528V73.068H294.63V71.528H284.114ZM285.192 66.666V68.25H296.94V66.666H285.192ZM279.56 76.28V77.864H299.25V76.28H279.56ZM294.036 71.528V71.836C293.442 78.392 292.848 81.164 291.968 81.912C291.66 82.154 291.374 82.198 290.824 82.198C290.186 82.198 288.558 82.176 286.864 82.022C287.194 82.484 287.414 83.188 287.436 83.672C289.042 83.76 290.604 83.804 291.396 83.738C292.298 83.672 292.826 83.54 293.376 82.968C294.41 81.956 295.026 79.206 295.664 72.32C295.708 72.078 295.73 71.528 295.73 71.528H294.036ZM285.038 63.498C284.488 66.798 283.498 71.374 282.728 74.036L284.444 74.212C285.126 71.572 286.116 67.062 286.754 63.652L285.038 63.498ZM305.388 64.862V66.534H311.614V64.862H305.388ZM310.778 64.862C310.778 68.998 311.504 78.37 320.304 83.694C320.612 83.298 321.272 82.594 321.646 82.308C312.956 77.16 312.472 68.8 312.472 64.862H310.778ZM310.162 69.174C308.82 75.4 306.07 79.844 301.186 82.396C301.626 82.704 302.374 83.386 302.682 83.738C307.544 80.878 310.448 76.236 312.032 69.526L310.162 69.174ZM340.522 66.578V81.604C340.522 82 340.39 82.088 340.016 82.11C339.62 82.132 338.234 82.154 336.892 82.088C337.134 82.55 337.398 83.32 337.486 83.76C339.29 83.76 340.5 83.738 341.226 83.474C341.93 83.188 342.172 82.682 342.172 81.648V66.578H340.522ZM324.594 66.578V83.76H326.222V68.14H341.27V66.578H324.594ZM332.492 63.52V72.65H334.12V63.52H332.492Z" fill="white"/>
</svg>
