<svg width="406" height="228" viewBox="0 0 406 228" fill="none" xmlns="http://www.w3.org/2000/svg">
<rect width="406" height="228" fill="black"/>
<path d="M73.6255 66.237L68.7085 82H66.7945L62.8015 69.977C62.7649 69.8597 62.7282 69.735 62.6915 69.603C62.6622 69.471 62.6292 69.3317 62.5925 69.185C62.5559 69.3317 62.5192 69.471 62.4825 69.603C62.4459 69.735 62.4092 69.8597 62.3725 69.977L58.3575 82H56.4435L51.5265 66.237H53.2975C53.4882 66.237 53.6459 66.2847 53.7705 66.38C53.9025 66.4753 53.9869 66.5963 54.0235 66.743L57.2795 77.699C57.3309 77.897 57.3785 78.1097 57.4225 78.337C57.4739 78.5643 57.5215 78.8063 57.5655 79.063C57.6169 78.8063 57.6682 78.5643 57.7195 78.337C57.7782 78.1023 57.8405 77.8897 57.9065 77.699L61.6135 66.743C61.6575 66.6183 61.7419 66.5047 61.8665 66.402C61.9985 66.292 62.1562 66.237 62.3395 66.237H62.9555C63.1462 66.237 63.3002 66.2847 63.4175 66.38C63.5349 66.4753 63.6229 66.5963 63.6815 66.743L67.3775 77.699C67.4435 77.8897 67.5022 78.095 67.5535 78.315C67.6122 78.535 67.6672 78.766 67.7185 79.008C67.7552 78.766 67.7955 78.535 67.8395 78.315C67.8835 78.095 67.9312 77.8897 67.9825 77.699L71.2495 66.743C71.2862 66.611 71.3669 66.4937 71.4915 66.391C71.6235 66.2883 71.7812 66.237 71.9645 66.237H73.6255ZM80.317 80.548C80.845 80.548 81.3217 80.4637 81.747 80.295C82.1797 80.1263 82.5463 79.8917 82.847 79.591C83.155 79.2903 83.3897 78.9347 83.551 78.524C83.7197 78.1133 83.804 77.666 83.804 77.182C83.804 76.6687 83.7233 76.2067 83.562 75.796C83.4007 75.378 83.1697 75.026 82.869 74.74C82.5757 74.4467 82.2237 74.223 81.813 74.069C81.4023 73.915 80.9513 73.838 80.46 73.838C79.932 73.838 79.4553 73.9297 79.03 74.113C78.6047 74.289 78.2417 74.531 77.941 74.839C77.6477 75.1397 77.4203 75.4917 77.259 75.895C77.105 76.291 77.028 76.7053 77.028 77.138C77.028 77.644 77.1013 78.106 77.248 78.524C77.3947 78.942 77.6073 79.3013 77.886 79.602C78.172 79.9027 78.5167 80.1373 78.92 80.306C79.3307 80.4673 79.7963 80.548 80.317 80.548ZM79.173 72.144C79.0337 72.32 78.898 72.4923 78.766 72.661C78.6413 72.8223 78.5203 72.9837 78.403 73.145C78.777 72.8883 79.1877 72.6903 79.635 72.551C80.0823 72.4117 80.57 72.342 81.098 72.342C81.736 72.342 82.3373 72.4483 82.902 72.661C83.4667 72.8663 83.958 73.1707 84.376 73.574C84.8013 73.97 85.1387 74.4613 85.388 75.048C85.6373 75.6273 85.762 76.291 85.762 77.039C85.762 77.765 85.63 78.4397 85.366 79.063C85.102 79.6863 84.7317 80.229 84.255 80.691C83.7857 81.153 83.2173 81.516 82.55 81.78C81.89 82.044 81.1603 82.176 80.361 82.176C79.569 82.176 78.8503 82.0513 78.205 81.802C77.5597 81.5453 77.0097 81.186 76.555 80.724C76.1077 80.2547 75.7593 79.69 75.51 79.03C75.268 78.3627 75.147 77.6183 75.147 76.797C75.147 76.1077 75.2973 75.3743 75.598 74.597C75.906 73.8123 76.3937 72.9763 77.061 72.089L81.065 66.71C81.1677 66.578 81.307 66.468 81.483 66.38C81.6663 66.2847 81.8753 66.237 82.11 66.237H83.848L79.173 72.144ZM93.7246 74.575H99.1586V76.236H93.7246V74.575ZM117.099 80.207V82H108.156V66.237H110.279V80.207H117.099ZM128.641 80.504V82H120.193V80.504H123.57V69.757C123.57 69.4343 123.581 69.108 123.603 68.778L120.798 71.187C120.703 71.2677 120.608 71.319 120.512 71.341C120.417 71.3557 120.329 71.3557 120.248 71.341C120.168 71.3263 120.091 71.297 120.017 71.253C119.951 71.209 119.9 71.1613 119.863 71.11L119.247 70.263L123.944 66.204H125.539V80.504H128.641ZM142.305 74.124C142.305 75.5027 142.155 76.698 141.854 77.71C141.561 78.7147 141.157 79.547 140.644 80.207C140.131 80.867 139.522 81.3583 138.818 81.681C138.121 82.0037 137.373 82.165 136.574 82.165C135.767 82.165 135.016 82.0037 134.319 81.681C133.63 81.3583 133.028 80.867 132.515 80.207C132.002 79.547 131.598 78.7147 131.305 77.71C131.012 76.698 130.865 75.5027 130.865 74.124C130.865 72.7453 131.012 71.55 131.305 70.538C131.598 69.526 132.002 68.69 132.515 68.03C133.028 67.3627 133.63 66.8677 134.319 66.545C135.016 66.2223 135.767 66.061 136.574 66.061C137.373 66.061 138.121 66.2223 138.818 66.545C139.522 66.8677 140.131 67.3627 140.644 68.03C141.157 68.69 141.561 69.526 141.854 70.538C142.155 71.55 142.305 72.7453 142.305 74.124ZM140.27 74.124C140.27 72.9213 140.167 71.913 139.962 71.099C139.764 70.2777 139.493 69.6177 139.148 69.119C138.811 68.6203 138.418 68.2647 137.971 68.052C137.524 67.832 137.058 67.722 136.574 67.722C136.09 67.722 135.624 67.832 135.177 68.052C134.73 68.2647 134.337 68.6203 134 69.119C133.663 69.6177 133.391 70.2777 133.186 71.099C132.988 71.913 132.889 72.9213 132.889 74.124C132.889 75.3267 132.988 76.335 133.186 77.149C133.391 77.963 133.663 78.6193 134 79.118C134.337 79.6167 134.73 79.976 135.177 80.196C135.624 80.4087 136.09 80.515 136.574 80.515C137.058 80.515 137.524 80.4087 137.971 80.196C138.418 79.976 138.811 79.6167 139.148 79.118C139.493 78.6193 139.764 77.963 139.962 77.149C140.167 76.335 140.27 75.3267 140.27 74.124ZM144.188 80.79C144.188 80.5993 144.221 80.4197 144.287 80.251C144.36 80.0823 144.455 79.9357 144.573 79.811C144.697 79.6863 144.844 79.5873 145.013 79.514C145.181 79.4407 145.361 79.404 145.552 79.404C145.742 79.404 145.922 79.4407 146.091 79.514C146.259 79.5873 146.406 79.6863 146.531 79.811C146.655 79.9357 146.754 80.0823 146.828 80.251C146.901 80.4197 146.938 80.5993 146.938 80.79C146.938 80.988 146.901 81.1713 146.828 81.34C146.754 81.5013 146.655 81.6443 146.531 81.769C146.406 81.8937 146.259 81.989 146.091 82.055C145.922 82.1283 145.742 82.165 145.552 82.165C145.361 82.165 145.181 82.1283 145.013 82.055C144.844 81.989 144.697 81.8937 144.573 81.769C144.455 81.6443 144.36 81.5013 144.287 81.34C144.221 81.1713 144.188 80.988 144.188 80.79ZM149.596 70.505C149.699 69.7863 149.897 69.152 150.19 68.602C150.483 68.0447 150.854 67.579 151.301 67.205C151.756 66.831 152.273 66.5487 152.852 66.358C153.439 66.16 154.069 66.061 154.744 66.061C155.411 66.061 156.027 66.1563 156.592 66.347C157.157 66.5377 157.641 66.809 158.044 67.161C158.455 67.513 158.774 67.9383 159.001 68.437C159.228 68.9357 159.342 69.4893 159.342 70.098C159.342 70.5967 159.276 71.044 159.144 71.44C159.019 71.8287 158.836 72.1697 158.594 72.463C158.359 72.7563 158.073 73.0057 157.736 73.211C157.399 73.4163 157.021 73.585 156.603 73.717C157.63 73.981 158.4 74.4357 158.913 75.081C159.434 75.719 159.694 76.5183 159.694 77.479C159.694 78.205 159.555 78.8577 159.276 79.437C159.005 80.0163 158.631 80.5113 158.154 80.922C157.677 81.3253 157.12 81.637 156.482 81.857C155.851 82.0697 155.173 82.176 154.447 82.176C153.611 82.176 152.896 82.0733 152.302 81.868C151.708 81.6553 151.206 81.3657 150.795 80.999C150.384 80.6323 150.047 80.1997 149.783 79.701C149.519 79.195 149.295 78.6487 149.112 78.062L149.959 77.71C150.179 77.6147 150.392 77.589 150.597 77.633C150.81 77.677 150.964 77.798 151.059 77.996C151.154 78.2013 151.272 78.447 151.411 78.733C151.558 79.019 151.756 79.294 152.005 79.558C152.254 79.822 152.57 80.0457 152.951 80.229C153.34 80.4123 153.831 80.504 154.425 80.504C154.975 80.504 155.455 80.416 155.866 80.24C156.284 80.0567 156.629 79.822 156.9 79.536C157.179 79.25 157.388 78.931 157.527 78.579C157.666 78.227 157.736 77.8787 157.736 77.534C157.736 77.1087 157.681 76.72 157.571 76.368C157.461 76.016 157.256 75.7117 156.955 75.455C156.654 75.1983 156.24 74.9967 155.712 74.85C155.191 74.7033 154.52 74.63 153.699 74.63V73.211C154.374 73.2037 154.946 73.1303 155.415 72.991C155.892 72.8517 156.277 72.661 156.57 72.419C156.871 72.177 157.087 71.8873 157.219 71.55C157.358 71.2127 157.428 70.8387 157.428 70.428C157.428 69.9733 157.355 69.5773 157.208 69.24C157.069 68.9027 156.874 68.624 156.625 68.404C156.376 68.184 156.079 68.019 155.734 67.909C155.397 67.799 155.03 67.744 154.634 67.744C154.238 67.744 153.868 67.8027 153.523 67.92C153.186 68.0373 152.885 68.2023 152.621 68.415C152.364 68.6203 152.148 68.866 151.972 69.152C151.796 69.438 151.671 69.7533 151.598 70.098C151.503 70.3547 151.382 70.527 151.235 70.615C151.096 70.6957 150.89 70.7177 150.619 70.681L149.596 70.505ZM181.341 66.237V82H180.274C180.105 82 179.962 81.9707 179.845 81.912C179.735 81.8533 179.625 81.7543 179.515 81.615L170.396 69.735C170.41 69.9183 170.421 70.098 170.429 70.274C170.436 70.45 170.44 70.615 170.44 70.769V82H168.57V66.237H169.67C169.765 66.237 169.846 66.2443 169.912 66.259C169.978 66.2663 170.036 66.2847 170.088 66.314C170.139 66.336 170.19 66.3727 170.242 66.424C170.293 66.468 170.348 66.5267 170.407 66.6L179.526 78.469C179.511 78.2783 179.496 78.095 179.482 77.919C179.474 77.7357 179.471 77.5633 179.471 77.402V66.237H181.341ZM187.504 67.975V73.486H193.983V75.224H187.504V82H185.37V66.237H195.083V67.975H187.504ZM208.469 68.03H203.365V82H201.242V68.03H196.127V66.237H208.469V68.03ZM229.433 74.124C229.433 75.3047 229.246 76.379 228.872 77.347C228.498 78.315 227.97 79.1437 227.288 79.833C226.606 80.5223 225.784 81.0577 224.824 81.439C223.87 81.813 222.814 82 221.656 82H215.771V66.237H221.656C222.814 66.237 223.87 66.4277 224.824 66.809C225.784 67.183 226.606 67.7183 227.288 68.415C227.97 69.1043 228.498 69.933 228.872 70.901C229.246 71.869 229.433 72.9433 229.433 74.124ZM227.244 74.124C227.244 73.156 227.112 72.2907 226.848 71.528C226.584 70.7653 226.21 70.12 225.726 69.592C225.242 69.064 224.655 68.6607 223.966 68.382C223.276 68.1033 222.506 67.964 221.656 67.964H217.905V80.273H221.656C222.506 80.273 223.276 80.1337 223.966 79.855C224.655 79.5763 225.242 79.1767 225.726 78.656C226.21 78.128 226.584 77.4827 226.848 76.72C227.112 75.9573 227.244 75.092 227.244 74.124ZM237.805 76.984C236.903 77.0133 236.133 77.0867 235.495 77.204C234.864 77.314 234.347 77.4607 233.944 77.644C233.548 77.8273 233.258 78.0437 233.075 78.293C232.899 78.5423 232.811 78.821 232.811 79.129C232.811 79.4223 232.859 79.6753 232.954 79.888C233.049 80.1007 233.178 80.2767 233.339 80.416C233.508 80.548 233.702 80.647 233.922 80.713C234.149 80.7717 234.391 80.801 234.648 80.801C234.993 80.801 235.308 80.768 235.594 80.702C235.88 80.6287 236.148 80.526 236.397 80.394C236.654 80.262 236.896 80.1043 237.123 79.921C237.358 79.7377 237.585 79.5287 237.805 79.294V76.984ZM231.48 72.43C232.096 71.836 232.76 71.3923 233.471 71.099C234.182 70.8057 234.971 70.659 235.836 70.659C236.459 70.659 237.013 70.7617 237.497 70.967C237.981 71.1723 238.388 71.4583 238.718 71.825C239.048 72.1917 239.297 72.6353 239.466 73.156C239.635 73.6767 239.719 74.2487 239.719 74.872V82H238.85C238.659 82 238.513 81.9707 238.41 81.912C238.307 81.846 238.227 81.7213 238.168 81.538L237.948 80.482C237.655 80.7533 237.369 80.9953 237.09 81.208C236.811 81.4133 236.518 81.5893 236.21 81.736C235.902 81.8753 235.572 81.9817 235.22 82.055C234.875 82.1357 234.49 82.176 234.065 82.176C233.632 82.176 233.225 82.1173 232.844 82C232.463 81.8753 232.129 81.692 231.843 81.45C231.564 81.208 231.341 80.9037 231.172 80.537C231.011 80.163 230.93 79.723 230.93 79.217C230.93 78.777 231.051 78.3553 231.293 77.952C231.535 77.5413 231.927 77.1783 232.47 76.863C233.013 76.5477 233.72 76.291 234.593 76.093C235.466 75.8877 236.536 75.7703 237.805 75.741V74.872C237.805 74.0067 237.618 73.354 237.244 72.914C236.87 72.4667 236.324 72.243 235.605 72.243C235.121 72.243 234.714 72.3053 234.384 72.43C234.061 72.5473 233.779 72.683 233.537 72.837C233.302 72.9837 233.097 73.1193 232.921 73.244C232.752 73.3613 232.584 73.42 232.415 73.42C232.283 73.42 232.169 73.387 232.074 73.321C231.979 73.2477 231.898 73.1597 231.832 73.057L231.48 72.43ZM244.67 79.316C245.03 79.8 245.422 80.141 245.847 80.339C246.273 80.537 246.749 80.636 247.277 80.636C248.319 80.636 249.118 80.2657 249.675 79.525C250.233 78.7843 250.511 77.7283 250.511 76.357C250.511 75.631 250.445 75.0077 250.313 74.487C250.189 73.9663 250.005 73.541 249.763 73.211C249.521 72.8737 249.224 72.628 248.872 72.474C248.52 72.32 248.121 72.243 247.673 72.243C247.035 72.243 246.474 72.3897 245.99 72.683C245.514 72.9763 245.074 73.3907 244.67 73.926V79.316ZM244.571 72.584C245.041 72.0047 245.583 71.539 246.199 71.187C246.815 70.835 247.519 70.659 248.311 70.659C248.957 70.659 249.54 70.7837 250.06 71.033C250.581 71.275 251.025 71.638 251.391 72.122C251.758 72.5987 252.04 73.1927 252.238 73.904C252.436 74.6153 252.535 75.433 252.535 76.357C252.535 77.1783 252.425 77.9447 252.205 78.656C251.985 79.36 251.666 79.9723 251.248 80.493C250.838 81.0063 250.332 81.4133 249.73 81.714C249.136 82.0073 248.465 82.154 247.717 82.154C247.035 82.154 246.449 82.0403 245.957 81.813C245.473 81.5783 245.044 81.2557 244.67 80.845V85.773H242.701V70.857H243.878C244.157 70.857 244.329 70.9927 244.395 71.264L244.571 72.584ZM257.002 79.316C257.362 79.8 257.754 80.141 258.179 80.339C258.605 80.537 259.081 80.636 259.609 80.636C260.651 80.636 261.45 80.2657 262.007 79.525C262.565 78.7843 262.843 77.7283 262.843 76.357C262.843 75.631 262.777 75.0077 262.645 74.487C262.521 73.9663 262.337 73.541 262.095 73.211C261.853 72.8737 261.556 72.628 261.204 72.474C260.852 72.32 260.453 72.243 260.005 72.243C259.367 72.243 258.806 72.3897 258.322 72.683C257.846 72.9763 257.406 73.3907 257.002 73.926V79.316ZM256.903 72.584C257.373 72.0047 257.915 71.539 258.531 71.187C259.147 70.835 259.851 70.659 260.643 70.659C261.289 70.659 261.872 70.7837 262.392 71.033C262.913 71.275 263.357 71.638 263.723 72.122C264.09 72.5987 264.372 73.1927 264.57 73.904C264.768 74.6153 264.867 75.433 264.867 76.357C264.867 77.1783 264.757 77.9447 264.537 78.656C264.317 79.36 263.998 79.9723 263.58 80.493C263.17 81.0063 262.664 81.4133 262.062 81.714C261.468 82.0073 260.797 82.154 260.049 82.154C259.367 82.154 258.781 82.0403 258.289 81.813C257.805 81.5783 257.376 81.2557 257.002 80.845V85.773H255.033V70.857H256.21C256.489 70.857 256.661 70.9927 256.727 71.264L256.903 72.584ZM267.42 64.73V66.27H286.384V64.73H267.42ZM275.89 65.522C275.604 66.644 274.988 68.272 274.504 69.306L275.956 69.614C276.528 68.624 277.21 67.15 277.782 65.808L275.89 65.522ZM276 71.836V75.818C276 78.172 275.076 80.79 266.914 82.44C267.266 82.77 267.728 83.43 267.904 83.76C276.462 81.934 277.716 78.876 277.716 75.862V71.836H276ZM277.804 79.602C280.356 80.768 283.656 82.594 285.262 83.826L286.296 82.528C284.602 81.318 281.258 79.558 278.75 78.48L277.804 79.602ZM269.576 68.932V79.184H271.248V70.45H282.512V79.162H284.272V68.932H269.576ZM295.624 73.31V74.674H301.652V73.31H295.624ZM295.624 77.138V78.502H301.718V77.138H295.624ZM291.092 81.076V82.616H306.624V81.076H291.092ZM290.08 69.328V83.782H291.686V70.868H305.854V83.782H307.526V69.328H290.08ZM294.854 70.296V81.78H296.35V70.296H294.854ZM301.014 70.296V81.714H302.532V70.296H301.014ZM297.714 65.72C297.56 66.996 297.12 68.822 296.768 70.01L298.264 70.428C298.704 69.328 299.166 67.634 299.628 66.16L297.714 65.72ZM289.09 64.994V66.578H308.582V64.994H289.09ZM311.772 64.972V66.534H329.988V64.972H311.772ZM310.958 72.826V74.41H330.692V72.826H310.958ZM324.07 65.786V83.782H325.764V65.786H324.07ZM316.238 65.786V71.88C316.238 75.686 315.732 79.712 311.002 82.638C311.42 82.902 312.014 83.474 312.3 83.848C317.36 80.658 317.91 76.148 317.91 71.88V65.786H316.238ZM340.746 73.09L339.338 73.53C341.582 78.942 345.74 82.462 351.988 83.826C352.208 83.386 352.67 82.704 353.022 82.374C346.906 81.186 342.726 77.908 340.746 73.09ZM348.6 72.474V72.76C346.95 78.062 342.22 81.142 337.072 82.396C337.402 82.748 337.798 83.386 337.974 83.804C343.474 82.308 348.38 79.096 350.382 72.914L349.26 72.408L348.93 72.474H348.6ZM340.262 72.474L339.8 74.058H348.864V72.474H340.262ZM341.78 63.454C340.812 71.286 338.304 77.226 332.474 80.746C332.87 81.054 333.464 81.67 333.706 82.022C339.91 78.216 342.484 72.078 343.606 63.74L341.78 63.454ZM346.598 64.62C347.566 65.654 348.798 67.062 349.414 67.898L350.734 66.996C350.118 66.182 348.842 64.818 347.896 63.85L346.598 64.62ZM334.982 70.494C334.982 70.098 336.302 69.548 336.302 69.548V69.526C337.05 68.294 337.93 66.336 338.48 64.466L336.698 64.158C336.346 65.852 335.488 67.612 335.246 68.074C334.982 68.558 334.718 68.866 334.432 68.954C334.608 69.35 334.872 70.142 334.982 70.494ZM334.982 70.494C335.202 70.252 335.928 70.12 337.314 70.12H352.274V68.536H336.082L334.982 69.196V70.494Z" fill="white"/>
</svg>
