<svg width="406" height="228" viewBox="0 0 406 228" fill="none" xmlns="http://www.w3.org/2000/svg">
<rect width="406" height="228" fill="black"/>
<path d="M121.654 66.237L116.737 82H114.823L110.83 69.977C110.793 69.8597 110.757 69.735 110.72 69.603C110.691 69.471 110.658 69.3317 110.621 69.185C110.584 69.3317 110.548 69.471 110.511 69.603C110.474 69.735 110.438 69.8597 110.401 69.977L106.386 82H104.472L99.5549 66.237H101.326C101.517 66.237 101.674 66.2847 101.799 66.38C101.931 66.4753 102.015 66.5963 102.052 66.743L105.308 77.699C105.359 77.897 105.407 78.1097 105.451 78.337C105.502 78.5643 105.55 78.8063 105.594 79.063C105.645 78.8063 105.697 78.5643 105.748 78.337C105.807 78.1023 105.869 77.8897 105.935 77.699L109.642 66.743C109.686 66.6183 109.77 66.5047 109.895 66.402C110.027 66.292 110.185 66.237 110.368 66.237H110.984C111.175 66.237 111.329 66.2847 111.446 66.38C111.563 66.4753 111.651 66.5963 111.71 66.743L115.406 77.699C115.472 77.8897 115.531 78.095 115.582 78.315C115.641 78.535 115.696 78.766 115.747 79.008C115.784 78.766 115.824 78.535 115.868 78.315C115.912 78.095 115.96 77.8897 116.011 77.699L119.278 66.743C119.315 66.611 119.395 66.4937 119.52 66.391C119.652 66.2883 119.81 66.237 119.993 66.237H121.654ZM128.345 80.548C128.873 80.548 129.35 80.4637 129.775 80.295C130.208 80.1263 130.575 79.8917 130.875 79.591C131.183 79.2903 131.418 78.9347 131.579 78.524C131.748 78.1133 131.832 77.666 131.832 77.182C131.832 76.6687 131.752 76.2067 131.59 75.796C131.429 75.378 131.198 75.026 130.897 74.74C130.604 74.4467 130.252 74.223 129.841 74.069C129.431 73.915 128.98 73.838 128.488 73.838C127.96 73.838 127.484 73.9297 127.058 74.113C126.633 74.289 126.27 74.531 125.969 74.839C125.676 75.1397 125.449 75.4917 125.287 75.895C125.133 76.291 125.056 76.7053 125.056 77.138C125.056 77.644 125.13 78.106 125.276 78.524C125.423 78.942 125.636 79.3013 125.914 79.602C126.2 79.9027 126.545 80.1373 126.948 80.306C127.359 80.4673 127.825 80.548 128.345 80.548ZM127.201 72.144C127.062 72.32 126.926 72.4923 126.794 72.661C126.67 72.8223 126.549 72.9837 126.431 73.145C126.805 72.8883 127.216 72.6903 127.663 72.551C128.111 72.4117 128.598 72.342 129.126 72.342C129.764 72.342 130.366 72.4483 130.93 72.661C131.495 72.8663 131.986 73.1707 132.404 73.574C132.83 73.97 133.167 74.4613 133.416 75.048C133.666 75.6273 133.79 76.291 133.79 77.039C133.79 77.765 133.658 78.4397 133.394 79.063C133.13 79.6863 132.76 80.229 132.283 80.691C131.814 81.153 131.246 81.516 130.578 81.78C129.918 82.044 129.189 82.176 128.389 82.176C127.597 82.176 126.879 82.0513 126.233 81.802C125.588 81.5453 125.038 81.186 124.583 80.724C124.136 80.2547 123.788 79.69 123.538 79.03C123.296 78.3627 123.175 77.6183 123.175 76.797C123.175 76.1077 123.326 75.3743 123.626 74.597C123.934 73.8123 124.422 72.9763 125.089 72.089L129.093 66.71C129.196 66.578 129.335 66.468 129.511 66.38C129.695 66.2847 129.904 66.237 130.138 66.237H131.876L127.201 72.144ZM141.753 74.575H147.187V76.236H141.753V74.575ZM165.127 80.207V82H156.184V66.237H158.307V80.207H165.127ZM176.67 80.504V82H168.222V80.504H171.599V69.757C171.599 69.4343 171.61 69.108 171.632 68.778L168.827 71.187C168.731 71.2677 168.636 71.319 168.541 71.341C168.445 71.3557 168.357 71.3557 168.277 71.341C168.196 71.3263 168.119 71.297 168.046 71.253C167.98 71.209 167.928 71.1613 167.892 71.11L167.276 70.263L171.973 66.204H173.568V80.504H176.67ZM190.333 74.124C190.333 75.5027 190.183 76.698 189.882 77.71C189.589 78.7147 189.186 79.547 188.672 80.207C188.159 80.867 187.55 81.3583 186.846 81.681C186.15 82.0037 185.402 82.165 184.602 82.165C183.796 82.165 183.044 82.0037 182.347 81.681C181.658 81.3583 181.057 80.867 180.543 80.207C180.03 79.547 179.627 78.7147 179.333 77.71C179.04 76.698 178.893 75.5027 178.893 74.124C178.893 72.7453 179.04 71.55 179.333 70.538C179.627 69.526 180.03 68.69 180.543 68.03C181.057 67.3627 181.658 66.8677 182.347 66.545C183.044 66.2223 183.796 66.061 184.602 66.061C185.402 66.061 186.15 66.2223 186.846 66.545C187.55 66.8677 188.159 67.3627 188.672 68.03C189.186 68.69 189.589 69.526 189.882 70.538C190.183 71.55 190.333 72.7453 190.333 74.124ZM188.298 74.124C188.298 72.9213 188.196 71.913 187.99 71.099C187.792 70.2777 187.521 69.6177 187.176 69.119C186.839 68.6203 186.447 68.2647 185.999 68.052C185.552 67.832 185.086 67.722 184.602 67.722C184.118 67.722 183.653 67.832 183.205 68.052C182.758 68.2647 182.366 68.6203 182.028 69.119C181.691 69.6177 181.42 70.2777 181.214 71.099C181.016 71.913 180.917 72.9213 180.917 74.124C180.917 75.3267 181.016 76.335 181.214 77.149C181.42 77.963 181.691 78.6193 182.028 79.118C182.366 79.6167 182.758 79.976 183.205 80.196C183.653 80.4087 184.118 80.515 184.602 80.515C185.086 80.515 185.552 80.4087 185.999 80.196C186.447 79.976 186.839 79.6167 187.176 79.118C187.521 78.6193 187.792 77.963 187.99 77.149C188.196 76.335 188.298 75.3267 188.298 74.124ZM192.216 80.79C192.216 80.5993 192.249 80.4197 192.315 80.251C192.388 80.0823 192.484 79.9357 192.601 79.811C192.726 79.6863 192.872 79.5873 193.041 79.514C193.21 79.4407 193.389 79.404 193.58 79.404C193.771 79.404 193.95 79.4407 194.119 79.514C194.288 79.5873 194.434 79.6863 194.559 79.811C194.684 79.9357 194.783 80.0823 194.856 80.251C194.929 80.4197 194.966 80.5993 194.966 80.79C194.966 80.988 194.929 81.1713 194.856 81.34C194.783 81.5013 194.684 81.6443 194.559 81.769C194.434 81.8937 194.288 81.989 194.119 82.055C193.95 82.1283 193.771 82.165 193.58 82.165C193.389 82.165 193.21 82.1283 193.041 82.055C192.872 81.989 192.726 81.8937 192.601 81.769C192.484 81.6443 192.388 81.5013 192.315 81.34C192.249 81.1713 192.216 80.988 192.216 80.79ZM204.224 76.313V69.812C204.224 69.6213 204.232 69.4123 204.246 69.185C204.261 68.9577 204.283 68.7267 204.312 68.492L198.57 76.313H204.224ZM208.327 76.313V77.435C208.327 77.5523 208.291 77.6513 208.217 77.732C208.151 77.8127 208.045 77.853 207.898 77.853H205.94V82H204.224V77.853H197.228C197.082 77.853 196.953 77.8127 196.843 77.732C196.741 77.644 196.675 77.5377 196.645 77.413L196.447 76.412L204.114 66.237H205.94V76.313H208.327ZM229.369 66.237V82H228.302C228.133 82 227.99 81.9707 227.873 81.912C227.763 81.8533 227.653 81.7543 227.543 81.615L218.424 69.735C218.439 69.9183 218.45 70.098 218.457 70.274C218.464 70.45 218.468 70.615 218.468 70.769V82H216.598V66.237H217.698C217.793 66.237 217.874 66.2443 217.94 66.259C218.006 66.2663 218.065 66.2847 218.116 66.314C218.167 66.336 218.219 66.3727 218.27 66.424C218.321 66.468 218.376 66.5267 218.435 66.6L227.554 78.469C227.539 78.2783 227.525 78.095 227.51 77.919C227.503 77.7357 227.499 77.5633 227.499 77.402V66.237H229.369ZM235.533 67.975V73.486H242.012V75.224H235.533V82H233.399V66.237H243.112V67.975H235.533ZM256.497 68.03H251.393V82H249.27V68.03H244.155V66.237H256.497V68.03ZM272.126 70.648V72.298H281.168V70.648H272.126ZM262.908 81.076V82.726H282.664V81.076H262.908ZM271.18 63.85V81.956H272.918V63.85H271.18ZM285.502 77.996C285.502 77.666 286.624 77.16 286.624 77.16V77.116C288.714 74.982 290.848 71.99 292.586 68.998L291.222 68.14C289.682 71.154 287.372 74.234 286.624 75.026C285.964 75.862 285.458 76.412 284.974 76.478C285.172 76.918 285.414 77.666 285.502 77.996ZM285.502 77.996C285.942 77.732 286.69 77.534 292.212 76.412C292.168 76.082 292.168 75.444 292.212 75.026L286.228 76.104L285.414 76.676L285.502 77.996ZM285.348 72.716C285.348 72.364 286.36 71.858 286.36 71.858V71.814C287.9 69.834 289.44 67.018 290.584 64.334L289.044 63.608C288.142 66.226 286.558 69.064 286.074 69.79C285.59 70.516 285.216 71.044 284.82 71.132C284.996 71.572 285.282 72.364 285.348 72.716ZM285.348 72.716C285.722 72.518 286.338 72.386 290.1 71.902C290.1 71.594 290.122 70.978 290.21 70.56L286.118 70.956L285.326 71.484L285.348 72.716ZM284.952 80.812L285.304 82.396C287.328 81.78 289.99 81.01 292.52 80.24L292.3 78.854C289.572 79.602 286.778 80.372 284.952 80.812ZM293.29 68.822L293.576 70.318L303.916 68.734L303.63 67.282L293.29 68.822ZM292.85 73.552L293.136 75.048L304.532 72.892L304.246 71.418L292.85 73.552ZM296.634 63.498C296.7 74.234 298.196 83.716 302.618 83.716C304.136 83.716 304.664 82.99 304.95 80.526C304.576 80.35 304.07 79.998 303.718 79.646C303.63 81.582 303.41 82.11 302.794 82.11C299.912 82.11 298.196 73.794 298.262 63.498H296.634ZM299.274 64.84C300.374 65.368 301.738 66.226 302.464 66.842L303.41 65.808C302.706 65.214 301.298 64.422 300.22 63.938L299.274 64.84ZM303.3 74.344C301.056 77.842 296.854 80.592 292.168 82.022C292.542 82.396 292.982 82.968 293.202 83.386C297.998 81.714 302.244 78.766 304.664 74.982L303.3 74.344Z" fill="white"/>
</svg>
