<svg width="406" height="228" viewBox="0 0 406 228" fill="none" xmlns="http://www.w3.org/2000/svg">
<rect width="406" height="228" fill="black"/>
<path d="M67.9644 66.237L63.0474 82H61.1334L57.1404 69.977C57.1037 69.8597 57.0671 69.735 57.0304 69.603C57.0011 69.471 56.9681 69.3317 56.9314 69.185C56.8947 69.3317 56.8581 69.471 56.8214 69.603C56.7847 69.735 56.7481 69.8597 56.7114 69.977L52.6964 82H50.7824L45.8654 66.237H47.6364C47.8271 66.237 47.9847 66.2847 48.1094 66.38C48.2414 66.4753 48.3257 66.5963 48.3624 66.743L51.6184 77.699C51.6697 77.897 51.7174 78.1097 51.7614 78.337C51.8127 78.5643 51.8604 78.8063 51.9044 79.063C51.9557 78.8063 52.0071 78.5643 52.0584 78.337C52.1171 78.1023 52.1794 77.8897 52.2454 77.699L55.9524 66.743C55.9964 66.6183 56.0807 66.5047 56.2054 66.402C56.3374 66.292 56.4951 66.237 56.6784 66.237H57.2944C57.4851 66.237 57.6391 66.2847 57.7564 66.38C57.8737 66.4753 57.9617 66.5963 58.0204 66.743L61.7164 77.699C61.7824 77.8897 61.8411 78.095 61.8924 78.315C61.9511 78.535 62.0061 78.766 62.0574 79.008C62.0941 78.766 62.1344 78.535 62.1784 78.315C62.2224 78.095 62.2701 77.8897 62.3214 77.699L65.5884 66.743C65.6251 66.611 65.7057 66.4937 65.8304 66.391C65.9624 66.2883 66.1201 66.237 66.3034 66.237H67.9644ZM80.1889 66.237V67.117C80.1889 67.3663 80.1595 67.5717 80.1009 67.733C80.0495 67.8943 79.9982 68.03 79.9469 68.14L73.4129 81.307C73.3175 81.4977 73.1855 81.6627 73.0169 81.802C72.8482 81.934 72.6245 82 72.3459 82H70.9379L77.5599 68.998C77.6552 68.8147 77.7542 68.646 77.8569 68.492C77.9595 68.338 78.0695 68.1913 78.1869 68.052H69.9589C69.8342 68.052 69.7242 68.0043 69.6289 67.909C69.5335 67.8063 69.4859 67.6927 69.4859 67.568V66.237H80.1889ZM88.0635 74.575H93.4975V76.236H88.0635V74.575ZM111.437 80.207V82H102.494V66.237H104.617V80.207H111.437ZM122.98 80.504V82H114.532V80.504H117.909V69.757C117.909 69.4343 117.92 69.108 117.942 68.778L115.137 71.187C115.042 71.2677 114.947 71.319 114.851 71.341C114.756 71.3557 114.668 71.3557 114.587 71.341C114.507 71.3263 114.43 71.297 114.356 71.253C114.29 71.209 114.239 71.1613 114.202 71.11L113.586 70.263L118.283 66.204H119.878V80.504H122.98ZM135.742 80.504V82H127.294V80.504H130.671V69.757C130.671 69.4343 130.682 69.108 130.704 68.778L127.899 71.187C127.804 71.2677 127.708 71.319 127.613 71.341C127.518 71.3557 127.43 71.3557 127.349 71.341C127.268 71.3263 127.191 71.297 127.118 71.253C127.052 71.209 127.001 71.1613 126.964 71.11L126.348 70.263L131.045 66.204H132.64V80.504H135.742ZM138.527 80.79C138.527 80.5993 138.56 80.4197 138.626 80.251C138.699 80.0823 138.794 79.9357 138.912 79.811C139.036 79.6863 139.183 79.5873 139.352 79.514C139.52 79.4407 139.7 79.404 139.891 79.404C140.081 79.404 140.261 79.4407 140.43 79.514C140.598 79.5873 140.745 79.6863 140.87 79.811C140.994 79.9357 141.093 80.0823 141.167 80.251C141.24 80.4197 141.277 80.5993 141.277 80.79C141.277 80.988 141.24 81.1713 141.167 81.34C141.093 81.5013 140.994 81.6443 140.87 81.769C140.745 81.8937 140.598 81.989 140.43 82.055C140.261 82.1283 140.081 82.165 139.891 82.165C139.7 82.165 139.52 82.1283 139.352 82.055C139.183 81.989 139.036 81.8937 138.912 81.769C138.794 81.6443 138.699 81.5013 138.626 81.34C138.56 81.1713 138.527 80.988 138.527 80.79ZM153.362 80.141C153.575 80.141 153.743 80.2033 153.868 80.328C153.993 80.4527 154.055 80.614 154.055 80.812V82H143.539V81.329C143.539 81.1897 143.568 81.0467 143.627 80.9C143.686 80.7533 143.777 80.6177 143.902 80.493L148.951 75.422C149.369 74.9967 149.75 74.5897 150.095 74.201C150.44 73.805 150.733 73.409 150.975 73.013C151.217 72.617 151.404 72.2173 151.536 71.814C151.668 71.4033 151.734 70.967 151.734 70.505C151.734 70.043 151.661 69.6397 151.514 69.295C151.367 68.943 151.166 68.6533 150.909 68.426C150.66 68.1987 150.363 68.03 150.018 67.92C149.673 67.8027 149.303 67.744 148.907 67.744C148.504 67.744 148.133 67.8027 147.796 67.92C147.459 68.0373 147.158 68.2023 146.894 68.415C146.637 68.6203 146.421 68.866 146.245 69.152C146.069 69.438 145.944 69.7533 145.871 70.098C145.783 70.3547 145.662 70.527 145.508 70.615C145.361 70.6957 145.152 70.7177 144.881 70.681L143.858 70.505C143.961 69.7863 144.159 69.152 144.452 68.602C144.753 68.0447 145.127 67.579 145.574 67.205C146.029 66.831 146.546 66.5487 147.125 66.358C147.704 66.16 148.331 66.061 149.006 66.061C149.673 66.061 150.297 66.16 150.876 66.358C151.455 66.556 151.958 66.8457 152.383 67.227C152.808 67.601 153.142 68.0593 153.384 68.602C153.626 69.1447 153.747 69.7607 153.747 70.45C153.747 71.0367 153.659 71.583 153.483 72.089C153.307 72.5877 153.069 73.0643 152.768 73.519C152.467 73.9737 152.119 74.4173 151.723 74.85C151.334 75.2827 150.92 75.719 150.48 76.159L146.322 80.405C146.615 80.3243 146.912 80.262 147.213 80.218C147.514 80.1667 147.803 80.141 148.082 80.141H153.362ZM167.276 73.871C167.892 73.871 168.434 73.7977 168.904 73.651C169.38 73.497 169.776 73.2843 170.092 73.013C170.414 72.7343 170.656 72.4043 170.818 72.023C170.979 71.6417 171.06 71.22 171.06 70.758C171.06 69.8193 170.752 69.1117 170.136 68.635C169.52 68.1583 168.596 67.92 167.364 67.92H165.032V73.871H167.276ZM174.558 82H172.666C172.277 82 171.991 81.8497 171.808 81.549L167.716 75.917C167.591 75.741 167.455 75.6163 167.309 75.543C167.169 75.4623 166.949 75.422 166.649 75.422H165.032V82H162.909V66.237H167.364C168.361 66.237 169.223 66.3397 169.949 66.545C170.675 66.743 171.272 67.0327 171.742 67.414C172.218 67.7953 172.57 68.2573 172.798 68.8C173.025 69.3353 173.139 69.9367 173.139 70.604C173.139 71.1613 173.051 71.682 172.875 72.166C172.699 72.65 172.442 73.0863 172.105 73.475C171.775 73.8563 171.368 74.1827 170.884 74.454C170.407 74.7253 169.864 74.9307 169.256 75.07C169.527 75.224 169.762 75.4477 169.96 75.741L174.558 82ZM182.988 75.213C182.988 74.7583 182.922 74.344 182.79 73.97C182.666 73.5887 182.479 73.2623 182.229 72.991C181.987 72.7123 181.69 72.4997 181.338 72.353C180.986 72.199 180.587 72.122 180.139 72.122C179.201 72.122 178.456 72.397 177.906 72.947C177.364 73.4897 177.026 74.245 176.894 75.213H182.988ZM184.572 80.438C184.33 80.7313 184.041 80.988 183.703 81.208C183.366 81.4207 183.003 81.5967 182.614 81.736C182.233 81.8753 181.837 81.978 181.426 82.044C181.016 82.1173 180.609 82.154 180.205 82.154C179.435 82.154 178.724 82.0257 178.071 81.769C177.426 81.505 176.865 81.1237 176.388 80.625C175.919 80.119 175.552 79.4957 175.288 78.755C175.024 78.0143 174.892 77.1637 174.892 76.203C174.892 75.4257 175.01 74.6997 175.244 74.025C175.486 73.3503 175.831 72.7673 176.278 72.276C176.726 71.7773 177.272 71.3887 177.917 71.11C178.563 70.824 179.289 70.681 180.095 70.681C180.763 70.681 181.379 70.7947 181.943 71.022C182.515 71.242 183.007 71.5647 183.417 71.99C183.835 72.408 184.162 72.9287 184.396 73.552C184.631 74.168 184.748 74.872 184.748 75.664C184.748 75.972 184.715 76.1773 184.649 76.28C184.583 76.3827 184.459 76.434 184.275 76.434H176.828C176.85 77.138 176.946 77.7503 177.114 78.271C177.29 78.7917 177.532 79.228 177.84 79.58C178.148 79.9247 178.515 80.185 178.94 80.361C179.366 80.5297 179.842 80.614 180.37 80.614C180.862 80.614 181.283 80.559 181.635 80.449C181.995 80.3317 182.303 80.207 182.559 80.075C182.816 79.943 183.029 79.822 183.197 79.712C183.373 79.5947 183.524 79.536 183.648 79.536C183.81 79.536 183.934 79.5983 184.022 79.723L184.572 80.438ZM193.193 76.984C192.291 77.0133 191.521 77.0867 190.883 77.204C190.252 77.314 189.735 77.4607 189.332 77.644C188.936 77.8273 188.646 78.0437 188.463 78.293C188.287 78.5423 188.199 78.821 188.199 79.129C188.199 79.4223 188.246 79.6753 188.342 79.888C188.437 80.1007 188.565 80.2767 188.727 80.416C188.895 80.548 189.09 80.647 189.31 80.713C189.537 80.7717 189.779 80.801 190.036 80.801C190.38 80.801 190.696 80.768 190.982 80.702C191.268 80.6287 191.535 80.526 191.785 80.394C192.041 80.262 192.283 80.1043 192.511 79.921C192.745 79.7377 192.973 79.5287 193.193 79.294V76.984ZM186.868 72.43C187.484 71.836 188.147 71.3923 188.859 71.099C189.57 70.8057 190.358 70.659 191.224 70.659C191.847 70.659 192.401 70.7617 192.885 70.967C193.369 71.1723 193.776 71.4583 194.106 71.825C194.436 72.1917 194.685 72.6353 194.854 73.156C195.022 73.6767 195.107 74.2487 195.107 74.872V82H194.238C194.047 82 193.9 81.9707 193.798 81.912C193.695 81.846 193.614 81.7213 193.556 81.538L193.336 80.482C193.042 80.7533 192.756 80.9953 192.478 81.208C192.199 81.4133 191.906 81.5893 191.598 81.736C191.29 81.8753 190.96 81.9817 190.608 82.055C190.263 82.1357 189.878 82.176 189.453 82.176C189.02 82.176 188.613 82.1173 188.232 82C187.85 81.8753 187.517 81.692 187.231 81.45C186.952 81.208 186.728 80.9037 186.56 80.537C186.398 80.163 186.318 79.723 186.318 79.217C186.318 78.777 186.439 78.3553 186.681 77.952C186.923 77.5413 187.315 77.1783 187.858 76.863C188.4 76.5477 189.108 76.291 189.981 76.093C190.853 75.8877 191.924 75.7703 193.193 75.741V74.872C193.193 74.0067 193.006 73.354 192.632 72.914C192.258 72.4667 191.711 72.243 190.993 72.243C190.509 72.243 190.102 72.3053 189.772 72.43C189.449 72.5473 189.167 72.683 188.925 72.837C188.69 72.9837 188.485 73.1193 188.309 73.244C188.14 73.3613 187.971 73.42 187.803 73.42C187.671 73.42 187.557 73.387 187.462 73.321C187.366 73.2477 187.286 73.1597 187.22 73.057L186.868 72.43ZM205.844 72.837C205.785 72.9177 205.727 72.98 205.668 73.024C205.609 73.068 205.529 73.09 205.426 73.09C205.316 73.09 205.195 73.046 205.063 72.958C204.931 72.8627 204.766 72.76 204.568 72.65C204.377 72.54 204.139 72.441 203.853 72.353C203.574 72.2577 203.23 72.21 202.819 72.21C202.269 72.21 201.785 72.309 201.367 72.507C200.949 72.6977 200.597 72.9763 200.311 73.343C200.032 73.7097 199.82 74.1533 199.673 74.674C199.534 75.1947 199.464 75.7777 199.464 76.423C199.464 77.0977 199.541 77.699 199.695 78.227C199.849 78.7477 200.065 79.1877 200.344 79.547C200.63 79.899 200.971 80.1703 201.367 80.361C201.77 80.5443 202.221 80.636 202.72 80.636C203.197 80.636 203.589 80.581 203.897 80.471C204.205 80.3537 204.458 80.2253 204.656 80.086C204.861 79.9467 205.03 79.822 205.162 79.712C205.301 79.5947 205.437 79.536 205.569 79.536C205.73 79.536 205.855 79.5983 205.943 79.723L206.493 80.438C206.251 80.7387 205.976 80.9953 205.668 81.208C205.36 81.4207 205.026 81.6003 204.667 81.747C204.315 81.8863 203.945 81.989 203.556 82.055C203.167 82.121 202.771 82.154 202.368 82.154C201.671 82.154 201.022 82.0257 200.421 81.769C199.827 81.5123 199.31 81.142 198.87 80.658C198.43 80.1667 198.085 79.5653 197.836 78.854C197.587 78.1427 197.462 77.3323 197.462 76.423C197.462 75.5943 197.576 74.828 197.803 74.124C198.038 73.42 198.375 72.815 198.815 72.309C199.262 71.7957 199.809 71.396 200.454 71.11C201.107 70.824 201.855 70.681 202.698 70.681C203.483 70.681 204.172 70.8093 204.766 71.066C205.367 71.3153 205.899 71.671 206.361 72.133L205.844 72.837ZM210.564 72.342C211.041 71.836 211.569 71.4327 212.148 71.132C212.727 70.8313 213.395 70.681 214.15 70.681C214.759 70.681 215.294 70.7837 215.756 70.989C216.225 71.187 216.614 71.473 216.922 71.847C217.237 72.2137 217.476 72.6573 217.637 73.178C217.798 73.6987 217.879 74.2743 217.879 74.905V82H215.91V74.905C215.91 74.0617 215.716 73.409 215.327 72.947C214.946 72.4777 214.363 72.243 213.578 72.243C212.999 72.243 212.456 72.3823 211.95 72.661C211.451 72.9397 210.989 73.3173 210.564 73.794V82H208.595V65.797H210.564V72.342ZM221.336 65.654V67.062H239.354V65.654H221.336ZM222.04 81.78V83.166H238.694V81.78H222.04ZM225.67 68.514V69.768H234.932V68.514H225.67ZM225.67 71.286V72.54H234.932V71.286H225.67ZM220.302 74.124V75.51H240.3V74.124H220.302ZM224.922 78.062V79.426H235.724V78.062H224.922ZM224.68 63.542V74.894H226.33V63.542H224.68ZM234.36 63.542V74.894H236.01V63.542H234.36ZM229.41 76.214V82.55H231.104V76.214H229.41ZM225.846 74.498C224.658 76.434 222.304 78.326 220.082 79.206C220.456 79.514 220.918 80.086 221.16 80.46C223.47 79.382 225.89 77.292 227.232 75.026L225.846 74.498ZM234.844 74.498L233.546 75.004C234.822 77.16 237.154 79.206 239.486 80.196C239.728 79.8 240.212 79.228 240.586 78.92C238.298 78.106 236.01 76.368 234.844 74.498ZM242.412 64.708V66.226H249.936V64.708H242.412ZM244.568 71.484V72.958H248V79.514H244.568V80.988H249.408V71.484H244.568ZM245.25 65.434C244.656 69.108 243.622 72.54 241.928 74.784C242.214 75.224 242.588 76.17 242.698 76.566C244.722 73.926 245.998 69.922 246.79 65.764L245.25 65.434ZM243.842 71.484V82.77H245.25V71.484H243.842ZM251.124 65.61V72.76H261.178V65.61H259.616V71.264H252.62V65.61H251.124ZM255.392 63.674V81.846H256.998V63.674H255.392ZM260.166 74.322V83.54H261.772V74.322H260.166ZM250.596 74.322V82.374H261.09V80.79H252.268V74.322H250.596ZM274.224 65.214C276.182 68.316 279.966 71.572 283.486 73.442C283.772 72.958 284.168 72.364 284.586 71.968C281.066 70.362 277.238 67.128 274.994 63.52H273.256C271.606 66.644 267.998 70.208 264.104 72.232C264.478 72.584 264.94 73.178 265.138 73.596C268.922 71.484 272.464 68.162 274.224 65.214ZM277.326 71.286V83.738H279.02V71.286H277.326ZM269.472 71.374V74.41C269.472 77.138 269.076 80.262 264.94 82.616C265.358 82.88 265.996 83.43 266.26 83.782C270.682 81.186 271.166 77.578 271.166 74.454V71.374H269.472ZM286.786 77.996C286.786 77.666 287.886 77.204 287.886 77.204V77.16C290.13 75.048 292.396 72.1 294.288 69.086L292.968 68.25C291.296 71.242 288.832 74.3 288.04 75.092C287.314 75.906 286.764 76.434 286.28 76.522C286.456 76.94 286.72 77.688 286.786 77.996ZM286.786 77.996C287.27 77.71 288.084 77.512 294.266 76.258C294.244 75.928 294.222 75.312 294.266 74.894L287.534 76.126L286.72 76.698L286.786 77.996ZM286.61 72.716C286.61 72.386 287.6 71.858 287.6 71.858V71.836C289.228 69.834 290.856 67.018 292.066 64.312L290.57 63.586C289.602 66.226 287.908 69.086 287.38 69.812C286.874 70.56 286.5 71.066 286.082 71.176C286.28 71.594 286.522 72.364 286.61 72.716ZM286.61 72.716C287.006 72.518 287.644 72.386 291.802 71.858C291.824 71.528 291.846 70.956 291.934 70.538L287.38 71L286.588 71.506L286.61 72.716ZM286.214 80.834L286.522 82.418C288.656 81.89 291.494 81.186 294.266 80.504L294.09 79.096C291.186 79.778 288.172 80.438 286.214 80.834ZM295.938 81.186V82.682H304.65V81.186H295.938ZM294.552 64.62V66.116H304.804V64.62H294.552ZM295.366 74.718V83.738H296.928V76.214H303.726V83.672H305.354V74.718H295.366ZM304.078 64.62V64.884C303.858 69.46 303.638 71.176 303.242 71.616C303.044 71.814 302.89 71.836 302.516 71.836C302.164 71.836 301.24 71.836 300.272 71.748C300.536 72.166 300.712 72.826 300.756 73.266C301.724 73.332 302.714 73.332 303.242 73.266C303.836 73.222 304.232 73.068 304.606 72.65C305.156 71.99 305.398 70.164 305.64 65.302C305.662 65.082 305.684 64.62 305.684 64.62H304.078ZM298.358 65.126C298.05 68.25 297.236 71.154 293.782 72.628C294.134 72.892 294.596 73.486 294.794 73.86C298.6 72.1 299.59 68.844 300.008 65.126H298.358ZM308.687 74.575H314.121V76.236H308.687V74.575ZM316.884 65.786V67.106H336.09V65.786H316.884ZM317.302 76.984V78.348H333.648V76.984H317.302ZM328.016 68.382V74.036H329.446V68.382H328.016ZM324.32 68.25V74.762C324.32 74.96 324.254 75.026 324.056 75.048C323.836 75.07 323.22 75.07 322.472 75.048C322.648 75.334 322.824 75.774 322.89 76.104C323.902 76.104 324.65 76.104 325.112 75.906C325.574 75.708 325.706 75.422 325.706 74.762V68.25H324.32ZM332.812 67.854V74.674C332.812 74.894 332.746 74.96 332.482 74.982C332.218 75.004 331.426 75.004 330.524 74.96C330.7 75.29 330.898 75.774 330.964 76.148C332.196 76.148 333.054 76.148 333.582 75.95C334.11 75.752 334.286 75.422 334.286 74.696V67.854H332.812ZM320.668 63.894C321.196 64.554 321.768 65.478 322.032 66.072L323.572 65.632C323.308 65.016 322.692 64.136 322.164 63.498L320.668 63.894ZM320.36 70.824C321.416 71.066 322.714 71.55 323.462 71.902L323.836 71C323.11 70.626 321.79 70.208 320.756 69.988L320.36 70.824ZM320.25 73.024C321.306 73.31 322.626 73.794 323.352 74.19L323.748 73.288C323.044 72.892 321.724 72.452 320.69 72.232L320.25 73.024ZM330.546 63.476C330.194 64.114 329.512 65.082 328.984 65.72L330.392 66.094C330.942 65.5 331.602 64.708 332.196 63.85L330.546 63.476ZM318.446 68.25V76.104H319.854V69.35H324.914V68.25H318.446ZM333.142 76.984L333.12 77.204C332.834 80.46 332.504 81.802 332.042 82.198C331.844 82.374 331.624 82.396 331.162 82.396C330.678 82.396 329.336 82.374 327.994 82.242C328.258 82.66 328.456 83.254 328.5 83.672C329.842 83.76 331.118 83.76 331.778 83.738C332.482 83.694 332.944 83.562 333.362 83.188C334 82.594 334.352 81.142 334.704 77.688C334.748 77.446 334.77 76.984 334.77 76.984H333.142ZM324.716 77.468C324.078 80.284 322.45 81.846 316.554 82.528C316.84 82.814 317.192 83.43 317.302 83.804C323.66 82.924 325.618 81.054 326.388 77.468H324.716ZM339.368 65.896V67.568H356.396V65.896H339.368ZM355.692 65.896V66.292C355.384 76.654 355.01 80.636 354.174 81.494C353.91 81.78 353.646 81.868 353.162 81.846C352.568 81.846 351.094 81.846 349.466 81.714C349.796 82.198 350.016 82.99 350.06 83.496C351.468 83.584 352.964 83.628 353.8 83.54C354.658 83.452 355.23 83.232 355.758 82.528C356.748 81.34 357.056 77.6 357.408 66.842C357.408 66.6 357.43 65.896 357.43 65.896H355.692ZM346.078 66.336C345.88 71.77 345.682 79.118 338.4 82.462C338.862 82.814 339.39 83.408 339.654 83.848C347.222 80.152 347.684 72.342 347.926 66.336H346.078ZM170.93 91.192V92.82H190.092V91.192H170.93ZM175.594 106.636V108.242H188.09V106.636H175.594ZM174.868 98.584V109.782H176.518V100.19H187.012V109.738H188.75V98.584H174.868ZM177.53 91.984C176.276 96.164 173.724 100.74 170.028 103.468C170.38 103.776 170.93 104.37 171.194 104.744C175.088 101.774 177.706 97 179.29 92.424L177.53 91.984ZM203.116 89.74C203.072 99.42 203.446 105.712 192.732 108.308C193.084 108.66 193.502 109.298 193.7 109.694C204.832 106.856 204.788 99.816 204.81 89.74H203.116ZM192.732 99.618V101.158H212.312V99.618H192.732ZM203.292 104.37C206.306 105.844 209.364 107.802 211.124 109.452L212.224 108.198C210.398 106.592 207.23 104.634 204.172 103.204L203.292 104.37ZM195.702 91.698C197.484 92.358 199.662 93.524 200.74 94.426L201.686 93.062C200.586 92.182 198.386 91.126 196.626 90.532L195.702 91.698ZM193.744 95.724C195.504 96.428 197.682 97.616 198.716 98.54L199.794 97.242C198.672 96.318 196.494 95.196 194.734 94.558L193.744 95.724ZM214.82 92.908V94.492H234.202V92.908H214.82ZM224.698 95.57V109.782H226.37V95.57H224.698ZM218.384 98.518V107.714H220.012V100.102H232.046V98.518H218.384ZM231.32 98.518V105.624C231.32 105.91 231.21 105.998 230.836 106.02C230.484 106.042 229.208 106.042 227.8 105.998C228.042 106.438 228.284 107.054 228.372 107.494C230.242 107.516 231.408 107.494 232.09 107.252C232.794 106.988 232.992 106.504 232.992 105.646V98.518H231.32ZM222.278 89.52C220.98 94.162 218.318 99.112 214.16 101.95C214.49 102.302 214.93 102.962 215.15 103.358C219.638 100.212 222.388 95.042 223.972 89.916L222.278 89.52Z" fill="white"/>
</svg>
