<svg width="406" height="228" viewBox="0 0 406 228" fill="none" xmlns="http://www.w3.org/2000/svg">
<rect width="406" height="228" fill="black"/>
<path d="M102.135 66.237L97.2183 82H95.3043L91.3113 69.977C91.2746 69.8597 91.238 69.735 91.2013 69.603C91.172 69.471 91.139 69.3317 91.1023 69.185C91.0656 69.3317 91.029 69.471 90.9923 69.603C90.9556 69.735 90.919 69.8597 90.8823 69.977L86.8673 82H84.9533L80.0363 66.237H81.8073C81.998 66.237 82.1556 66.2847 82.2803 66.38C82.4123 66.4753 82.4966 66.5963 82.5333 66.743L85.7893 77.699C85.8406 77.897 85.8883 78.1097 85.9323 78.337C85.9836 78.5643 86.0313 78.8063 86.0753 79.063C86.1266 78.8063 86.178 78.5643 86.2293 78.337C86.288 78.1023 86.3503 77.8897 86.4163 77.699L90.1233 66.743C90.1673 66.6183 90.2516 66.5047 90.3763 66.402C90.5083 66.292 90.666 66.237 90.8493 66.237H91.4653C91.656 66.237 91.81 66.2847 91.9273 66.38C92.0446 66.4753 92.1326 66.5963 92.1913 66.743L95.8873 77.699C95.9533 77.8897 96.012 78.095 96.0633 78.315C96.122 78.535 96.177 78.766 96.2283 79.008C96.265 78.766 96.3053 78.535 96.3493 78.315C96.3933 78.095 96.441 77.8897 96.4923 77.699L99.7593 66.743C99.796 66.611 99.8766 66.4937 100.001 66.391C100.133 66.2883 100.291 66.237 100.474 66.237H102.135ZM108.827 80.548C109.355 80.548 109.831 80.4637 110.257 80.295C110.689 80.1263 111.056 79.8917 111.357 79.591C111.665 79.2903 111.899 78.9347 112.061 78.524C112.229 78.1133 112.314 77.666 112.314 77.182C112.314 76.6687 112.233 76.2067 112.072 75.796C111.91 75.378 111.679 75.026 111.379 74.74C111.085 74.4467 110.733 74.223 110.323 74.069C109.912 73.915 109.461 73.838 108.97 73.838C108.442 73.838 107.965 73.9297 107.54 74.113C107.114 74.289 106.751 74.531 106.451 74.839C106.157 75.1397 105.93 75.4917 105.769 75.895C105.615 76.291 105.538 76.7053 105.538 77.138C105.538 77.644 105.611 78.106 105.758 78.524C105.904 78.942 106.117 79.3013 106.396 79.602C106.682 79.9027 107.026 80.1373 107.43 80.306C107.84 80.4673 108.306 80.548 108.827 80.548ZM107.683 72.144C107.543 72.32 107.408 72.4923 107.276 72.661C107.151 72.8223 107.03 72.9837 106.913 73.145C107.287 72.8883 107.697 72.6903 108.145 72.551C108.592 72.4117 109.08 72.342 109.608 72.342C110.246 72.342 110.847 72.4483 111.412 72.661C111.976 72.8663 112.468 73.1707 112.886 73.574C113.311 73.97 113.648 74.4613 113.898 75.048C114.147 75.6273 114.272 76.291 114.272 77.039C114.272 77.765 114.14 78.4397 113.876 79.063C113.612 79.6863 113.241 80.229 112.765 80.691C112.295 81.153 111.727 81.516 111.06 81.78C110.4 82.044 109.67 82.176 108.871 82.176C108.079 82.176 107.36 82.0513 106.715 81.802C106.069 81.5453 105.519 81.186 105.065 80.724C104.617 80.2547 104.269 79.69 104.02 79.03C103.778 78.3627 103.657 77.6183 103.657 76.797C103.657 76.1077 103.807 75.3743 104.108 74.597C104.416 73.8123 104.903 72.9763 105.571 72.089L109.575 66.71C109.677 66.578 109.817 66.468 109.993 66.38C110.176 66.2847 110.385 66.237 110.62 66.237H112.358L107.683 72.144ZM122.234 74.575H127.668V76.236H122.234V74.575ZM145.608 80.207V82H136.665V66.237H138.788V80.207H145.608ZM157.151 80.504V82H148.703V80.504H152.08V69.757C152.08 69.4343 152.091 69.108 152.113 68.778L149.308 71.187C149.213 71.2677 149.117 71.319 149.022 71.341C148.927 71.3557 148.839 71.3557 148.758 71.341C148.677 71.3263 148.6 71.297 148.527 71.253C148.461 71.209 148.41 71.1613 148.373 71.11L147.757 70.263L152.454 66.204H154.049V80.504H157.151ZM170.815 74.124C170.815 75.5027 170.665 76.698 170.364 77.71C170.071 78.7147 169.667 79.547 169.154 80.207C168.641 80.867 168.032 81.3583 167.328 81.681C166.631 82.0037 165.883 82.165 165.084 82.165C164.277 82.165 163.526 82.0037 162.829 81.681C162.14 81.3583 161.538 80.867 161.025 80.207C160.512 79.547 160.108 78.7147 159.815 77.71C159.522 76.698 159.375 75.5027 159.375 74.124C159.375 72.7453 159.522 71.55 159.815 70.538C160.108 69.526 160.512 68.69 161.025 68.03C161.538 67.3627 162.14 66.8677 162.829 66.545C163.526 66.2223 164.277 66.061 165.084 66.061C165.883 66.061 166.631 66.2223 167.328 66.545C168.032 66.8677 168.641 67.3627 169.154 68.03C169.667 68.69 170.071 69.526 170.364 70.538C170.665 71.55 170.815 72.7453 170.815 74.124ZM168.78 74.124C168.78 72.9213 168.677 71.913 168.472 71.099C168.274 70.2777 168.003 69.6177 167.658 69.119C167.321 68.6203 166.928 68.2647 166.481 68.052C166.034 67.832 165.568 67.722 165.084 67.722C164.6 67.722 164.134 67.832 163.687 68.052C163.24 68.2647 162.847 68.6203 162.51 69.119C162.173 69.6177 161.901 70.2777 161.696 71.099C161.498 71.913 161.399 72.9213 161.399 74.124C161.399 75.3267 161.498 76.335 161.696 77.149C161.901 77.963 162.173 78.6193 162.51 79.118C162.847 79.6167 163.24 79.976 163.687 80.196C164.134 80.4087 164.6 80.515 165.084 80.515C165.568 80.515 166.034 80.4087 166.481 80.196C166.928 79.976 167.321 79.6167 167.658 79.118C168.003 78.6193 168.274 77.963 168.472 77.149C168.677 76.335 168.78 75.3267 168.78 74.124ZM172.698 80.79C172.698 80.5993 172.731 80.4197 172.797 80.251C172.87 80.0823 172.965 79.9357 173.083 79.811C173.207 79.6863 173.354 79.5873 173.523 79.514C173.691 79.4407 173.871 79.404 174.062 79.404C174.252 79.404 174.432 79.4407 174.601 79.514C174.769 79.5873 174.916 79.6863 175.041 79.811C175.165 79.9357 175.264 80.0823 175.338 80.251C175.411 80.4197 175.448 80.5993 175.448 80.79C175.448 80.988 175.411 81.1713 175.338 81.34C175.264 81.5013 175.165 81.6443 175.041 81.769C174.916 81.8937 174.769 81.989 174.601 82.055C174.432 82.1283 174.252 82.165 174.062 82.165C173.871 82.165 173.691 82.1283 173.523 82.055C173.354 81.989 173.207 81.8937 173.083 81.769C172.965 81.6443 172.87 81.5013 172.797 81.34C172.731 81.1713 172.698 80.988 172.698 80.79ZM187.533 80.141C187.745 80.141 187.914 80.2033 188.039 80.328C188.163 80.4527 188.226 80.614 188.226 80.812V82H177.71V81.329C177.71 81.1897 177.739 81.0467 177.798 80.9C177.856 80.7533 177.948 80.6177 178.073 80.493L183.122 75.422C183.54 74.9967 183.921 74.5897 184.266 74.201C184.61 73.805 184.904 73.409 185.146 73.013C185.388 72.617 185.575 72.2173 185.707 71.814C185.839 71.4033 185.905 70.967 185.905 70.505C185.905 70.043 185.831 69.6397 185.685 69.295C185.538 68.943 185.336 68.6533 185.08 68.426C184.83 68.1987 184.533 68.03 184.189 67.92C183.844 67.8027 183.474 67.744 183.078 67.744C182.674 67.744 182.304 67.8027 181.967 67.92C181.629 68.0373 181.329 68.2023 181.065 68.415C180.808 68.6203 180.592 68.866 180.416 69.152C180.24 69.438 180.115 69.7533 180.042 70.098C179.954 70.3547 179.833 70.527 179.679 70.615C179.532 70.6957 179.323 70.7177 179.052 70.681L178.029 70.505C178.131 69.7863 178.329 69.152 178.623 68.602C178.923 68.0447 179.297 67.579 179.745 67.205C180.199 66.831 180.716 66.5487 181.296 66.358C181.875 66.16 182.502 66.061 183.177 66.061C183.844 66.061 184.467 66.16 185.047 66.358C185.626 66.556 186.128 66.8457 186.554 67.227C186.979 67.601 187.313 68.0593 187.555 68.602C187.797 69.1447 187.918 69.7607 187.918 70.45C187.918 71.0367 187.83 71.583 187.654 72.089C187.478 72.5877 187.239 73.0643 186.939 73.519C186.638 73.9737 186.29 74.4173 185.894 74.85C185.505 75.2827 185.091 75.719 184.651 76.159L180.493 80.405C180.786 80.3243 181.083 80.262 181.384 80.218C181.684 80.1667 181.974 80.141 182.253 80.141H187.533ZM209.85 66.237V82H208.783C208.615 82 208.472 81.9707 208.354 81.912C208.244 81.8533 208.134 81.7543 208.024 81.615L198.905 69.735C198.92 69.9183 198.931 70.098 198.938 70.274C198.946 70.45 198.949 70.615 198.949 70.769V82H197.079V66.237H198.179C198.275 66.237 198.355 66.2443 198.421 66.259C198.487 66.2663 198.546 66.2847 198.597 66.314C198.649 66.336 198.7 66.3727 198.751 66.424C198.803 66.468 198.858 66.5267 198.916 66.6L208.035 78.469C208.021 78.2783 208.006 78.095 207.991 77.919C207.984 77.7357 207.98 77.5633 207.98 77.402V66.237H209.85ZM216.014 67.975V73.486H222.493V75.224H216.014V82H213.88V66.237H223.593V67.975H216.014ZM236.979 68.03H231.875V82H229.752V68.03H224.637V66.237H236.979V68.03ZM240.979 71.814V73.442H257.721V71.814H240.979ZM239.725 66.182V67.744H257.149V66.182H239.725ZM240.033 71.814V74.806C240.033 77.138 239.813 80.394 238.075 82.792C238.427 82.99 239.153 83.606 239.439 83.936C241.353 81.34 241.749 77.49 241.749 74.85V71.814H240.033ZM243.069 68.558C243.817 69.526 244.609 70.89 244.961 71.748L246.457 71.066C246.083 70.208 245.247 68.888 244.521 67.964L243.069 68.558ZM252.441 68.074C252.023 69.218 251.231 70.868 250.593 71.902L251.869 72.452C252.595 71.484 253.475 69.966 254.245 68.668L252.441 68.074ZM246.655 63.96C247.293 64.796 247.953 65.94 248.217 66.71L249.955 66.16C249.647 65.412 248.965 64.29 248.283 63.498L246.655 63.96ZM265.927 66.05H274.727V70.23H265.927V66.05ZM264.321 64.466V71.814H276.399V64.466H264.321ZM261.131 74.146V83.76H262.693V75.73H267.313V83.584H268.963V74.146H261.131ZM271.361 74.146V83.76H272.945V75.73H277.983V83.628H279.633V74.146H271.361ZM261.835 80.988V82.572H267.973V80.988H261.835ZM272.175 80.988V82.572H278.709V80.988H272.175ZM283.967 64.95C285.155 65.984 286.629 67.458 287.311 68.404L288.433 67.216C287.729 66.314 286.233 64.906 285.045 63.938L283.967 64.95ZM285.133 83.32C285.485 82.902 286.079 82.44 289.995 79.536C289.797 79.228 289.533 78.612 289.379 78.172L285.265 81.164L284.825 81.846L285.133 83.32ZM282.251 70.428V72.034H286.145V70.428H282.251ZM292.547 64.334V65.874H298.311V64.334H292.547ZM289.731 73.244V74.806H300.005V73.244H289.731ZM299.499 73.244V73.508C297.937 78.37 293.559 81.274 288.807 82.33C289.093 82.704 289.445 83.364 289.599 83.782C294.725 82.418 299.301 79.382 301.105 73.64L300.093 73.178L299.807 73.244H299.499ZM291.953 74.41L290.567 74.894C292.569 79.448 296.265 82.572 301.457 83.826C301.677 83.386 302.117 82.726 302.491 82.374C297.431 81.318 293.691 78.436 291.953 74.41ZM292.107 64.334V66.776C292.107 68.382 291.601 70.208 288.697 71.55C289.005 71.792 289.577 72.43 289.775 72.76C292.943 71.242 293.647 68.866 293.647 66.798V64.334H292.107ZM297.541 64.334V69.416C297.541 71.066 297.871 71.704 299.389 71.704C299.653 71.704 300.731 71.704 301.061 71.704C301.501 71.704 301.941 71.682 302.227 71.572C302.161 71.198 302.095 70.582 302.073 70.164C301.787 70.23 301.325 70.274 301.039 70.274C300.753 70.274 299.763 70.274 299.499 70.274C299.169 70.274 299.103 70.054 299.103 69.438V64.334H297.541ZM285.133 83.32C285.133 82.682 286.937 81.34 286.937 81.34V70.428H285.353V79.932C285.353 80.922 284.649 81.648 284.253 81.934C284.539 82.242 285.001 82.946 285.133 83.32ZM306.319 64.972C307.529 66.006 309.069 67.502 309.795 68.426L310.895 67.216C310.169 66.292 308.607 64.884 307.375 63.916L306.319 64.972ZM307.595 83.342C307.947 82.88 308.563 82.418 312.721 79.47C312.545 79.14 312.281 78.458 312.171 77.996L307.771 81.01L307.287 81.714L307.595 83.342ZM304.317 70.428V72.078H308.827V70.428H304.317ZM311.467 70.824V72.518H324.403V70.824H311.467ZM317.055 63.586V83.76H318.793V63.586H317.055ZM307.595 83.342C307.595 82.704 309.465 81.45 309.465 81.45V70.428H307.793V79.976C307.793 80.922 307.133 81.56 306.715 81.824C307.023 82.176 307.441 82.902 307.595 83.342Z" fill="white"/>
</svg>
