<svg width="406" height="228" viewBox="0 0 406 228" fill="none" xmlns="http://www.w3.org/2000/svg">
<rect width="406" height="228" fill="black"/>
<path d="M102.135 66.237L97.2183 82H95.3043L91.3113 69.977C91.2746 69.8597 91.238 69.735 91.2013 69.603C91.172 69.471 91.139 69.3317 91.1023 69.185C91.0656 69.3317 91.029 69.471 90.9923 69.603C90.9556 69.735 90.919 69.8597 90.8823 69.977L86.8673 82H84.9533L80.0363 66.237H81.8073C81.998 66.237 82.1556 66.2847 82.2803 66.38C82.4123 66.4753 82.4966 66.5963 82.5333 66.743L85.7893 77.699C85.8406 77.897 85.8883 78.1097 85.9323 78.337C85.9836 78.5643 86.0313 78.8063 86.0753 79.063C86.1266 78.8063 86.178 78.5643 86.2293 78.337C86.288 78.1023 86.3503 77.8897 86.4163 77.699L90.1233 66.743C90.1673 66.6183 90.2516 66.5047 90.3763 66.402C90.5083 66.292 90.666 66.237 90.8493 66.237H91.4653C91.656 66.237 91.81 66.2847 91.9273 66.38C92.0446 66.4753 92.1326 66.5963 92.1913 66.743L95.8873 77.699C95.9533 77.8897 96.012 78.095 96.0633 78.315C96.122 78.535 96.177 78.766 96.2283 79.008C96.265 78.766 96.3053 78.535 96.3493 78.315C96.3933 78.095 96.441 77.8897 96.4923 77.699L99.7593 66.743C99.796 66.611 99.8766 66.4937 100.001 66.391C100.133 66.2883 100.291 66.237 100.474 66.237H102.135ZM108.827 80.548C109.355 80.548 109.831 80.4637 110.257 80.295C110.689 80.1263 111.056 79.8917 111.357 79.591C111.665 79.2903 111.899 78.9347 112.061 78.524C112.229 78.1133 112.314 77.666 112.314 77.182C112.314 76.6687 112.233 76.2067 112.072 75.796C111.91 75.378 111.679 75.026 111.379 74.74C111.085 74.4467 110.733 74.223 110.323 74.069C109.912 73.915 109.461 73.838 108.97 73.838C108.442 73.838 107.965 73.9297 107.54 74.113C107.114 74.289 106.751 74.531 106.451 74.839C106.157 75.1397 105.93 75.4917 105.769 75.895C105.615 76.291 105.538 76.7053 105.538 77.138C105.538 77.644 105.611 78.106 105.758 78.524C105.904 78.942 106.117 79.3013 106.396 79.602C106.682 79.9027 107.026 80.1373 107.43 80.306C107.84 80.4673 108.306 80.548 108.827 80.548ZM107.683 72.144C107.543 72.32 107.408 72.4923 107.276 72.661C107.151 72.8223 107.03 72.9837 106.913 73.145C107.287 72.8883 107.697 72.6903 108.145 72.551C108.592 72.4117 109.08 72.342 109.608 72.342C110.246 72.342 110.847 72.4483 111.412 72.661C111.976 72.8663 112.468 73.1707 112.886 73.574C113.311 73.97 113.648 74.4613 113.898 75.048C114.147 75.6273 114.272 76.291 114.272 77.039C114.272 77.765 114.14 78.4397 113.876 79.063C113.612 79.6863 113.241 80.229 112.765 80.691C112.295 81.153 111.727 81.516 111.06 81.78C110.4 82.044 109.67 82.176 108.871 82.176C108.079 82.176 107.36 82.0513 106.715 81.802C106.069 81.5453 105.519 81.186 105.065 80.724C104.617 80.2547 104.269 79.69 104.02 79.03C103.778 78.3627 103.657 77.6183 103.657 76.797C103.657 76.1077 103.807 75.3743 104.108 74.597C104.416 73.8123 104.903 72.9763 105.571 72.089L109.575 66.71C109.677 66.578 109.817 66.468 109.993 66.38C110.176 66.2847 110.385 66.237 110.62 66.237H112.358L107.683 72.144ZM122.234 74.575H127.668V76.236H122.234V74.575ZM145.608 80.207V82H136.665V66.237H138.788V80.207H145.608ZM157.151 80.504V82H148.703V80.504H152.08V69.757C152.08 69.4343 152.091 69.108 152.113 68.778L149.308 71.187C149.213 71.2677 149.117 71.319 149.022 71.341C148.927 71.3557 148.839 71.3557 148.758 71.341C148.677 71.3263 148.6 71.297 148.527 71.253C148.461 71.209 148.41 71.1613 148.373 71.11L147.757 70.263L152.454 66.204H154.049V80.504H157.151ZM170.815 74.124C170.815 75.5027 170.665 76.698 170.364 77.71C170.071 78.7147 169.667 79.547 169.154 80.207C168.641 80.867 168.032 81.3583 167.328 81.681C166.631 82.0037 165.883 82.165 165.084 82.165C164.277 82.165 163.526 82.0037 162.829 81.681C162.14 81.3583 161.538 80.867 161.025 80.207C160.512 79.547 160.108 78.7147 159.815 77.71C159.522 76.698 159.375 75.5027 159.375 74.124C159.375 72.7453 159.522 71.55 159.815 70.538C160.108 69.526 160.512 68.69 161.025 68.03C161.538 67.3627 162.14 66.8677 162.829 66.545C163.526 66.2223 164.277 66.061 165.084 66.061C165.883 66.061 166.631 66.2223 167.328 66.545C168.032 66.8677 168.641 67.3627 169.154 68.03C169.667 68.69 170.071 69.526 170.364 70.538C170.665 71.55 170.815 72.7453 170.815 74.124ZM168.78 74.124C168.78 72.9213 168.677 71.913 168.472 71.099C168.274 70.2777 168.003 69.6177 167.658 69.119C167.321 68.6203 166.928 68.2647 166.481 68.052C166.034 67.832 165.568 67.722 165.084 67.722C164.6 67.722 164.134 67.832 163.687 68.052C163.24 68.2647 162.847 68.6203 162.51 69.119C162.173 69.6177 161.901 70.2777 161.696 71.099C161.498 71.913 161.399 72.9213 161.399 74.124C161.399 75.3267 161.498 76.335 161.696 77.149C161.901 77.963 162.173 78.6193 162.51 79.118C162.847 79.6167 163.24 79.976 163.687 80.196C164.134 80.4087 164.6 80.515 165.084 80.515C165.568 80.515 166.034 80.4087 166.481 80.196C166.928 79.976 167.321 79.6167 167.658 79.118C168.003 78.6193 168.274 77.963 168.472 77.149C168.677 76.335 168.78 75.3267 168.78 74.124ZM172.698 80.79C172.698 80.5993 172.731 80.4197 172.797 80.251C172.87 80.0823 172.965 79.9357 173.083 79.811C173.207 79.6863 173.354 79.5873 173.523 79.514C173.691 79.4407 173.871 79.404 174.062 79.404C174.252 79.404 174.432 79.4407 174.601 79.514C174.769 79.5873 174.916 79.6863 175.041 79.811C175.165 79.9357 175.264 80.0823 175.338 80.251C175.411 80.4197 175.448 80.5993 175.448 80.79C175.448 80.988 175.411 81.1713 175.338 81.34C175.264 81.5013 175.165 81.6443 175.041 81.769C174.916 81.8937 174.769 81.989 174.601 82.055C174.432 82.1283 174.252 82.165 174.062 82.165C173.871 82.165 173.691 82.1283 173.523 82.055C173.354 81.989 173.207 81.8937 173.083 81.769C172.965 81.6443 172.87 81.5013 172.797 81.34C172.731 81.1713 172.698 80.988 172.698 80.79ZM187.874 80.504V82H179.426V80.504H182.803V69.757C182.803 69.4343 182.814 69.108 182.836 68.778L180.031 71.187C179.935 71.2677 179.84 71.319 179.745 71.341C179.649 71.3557 179.561 71.3557 179.481 71.341C179.4 71.3263 179.323 71.297 179.25 71.253C179.184 71.209 179.132 71.1613 179.096 71.11L178.48 70.263L183.177 66.204H184.772V80.504H187.874ZM209.85 66.237V82H208.783C208.615 82 208.472 81.9707 208.354 81.912C208.244 81.8533 208.134 81.7543 208.024 81.615L198.905 69.735C198.92 69.9183 198.931 70.098 198.938 70.274C198.946 70.45 198.949 70.615 198.949 70.769V82H197.079V66.237H198.179C198.275 66.237 198.355 66.2443 198.421 66.259C198.487 66.2663 198.546 66.2847 198.597 66.314C198.649 66.336 198.7 66.3727 198.751 66.424C198.803 66.468 198.858 66.5267 198.916 66.6L208.035 78.469C208.021 78.2783 208.006 78.095 207.991 77.919C207.984 77.7357 207.98 77.5633 207.98 77.402V66.237H209.85ZM216.014 67.975V73.486H222.493V75.224H216.014V82H213.88V66.237H223.593V67.975H216.014ZM236.979 68.03H231.875V82H229.752V68.03H224.637V66.237H236.979V68.03ZM242.761 70.714V72.188H253.871V70.714H242.761ZM242.365 81.406V82.88H254.157V81.406H242.365ZM241.617 74.96V83.782H243.223V76.456H253.409V83.782H255.081V74.96H241.617ZM248.239 65.214C250.307 68.03 254.179 71.132 257.633 72.936C257.919 72.452 258.315 71.88 258.733 71.484C255.213 69.922 251.363 66.864 248.987 63.586H247.315C245.577 66.424 241.903 69.79 238.031 71.748C238.405 72.1 238.845 72.694 239.065 73.068C242.827 71.022 246.435 67.898 248.239 65.214ZM260.779 77.974C260.779 77.622 261.857 77.138 261.857 77.138V77.116C264.101 74.982 266.389 72.034 268.259 69.042L266.895 68.206C265.245 71.176 262.781 74.256 262.011 75.026C261.307 75.818 260.757 76.368 260.273 76.478C260.449 76.874 260.691 77.644 260.779 77.974ZM260.779 77.974C261.285 77.688 262.099 77.512 268.369 76.478C268.325 76.126 268.303 75.51 268.325 75.07L261.571 76.06L260.713 76.61L260.779 77.974ZM260.625 72.672C260.625 72.342 261.703 71.814 261.703 71.814V71.77C263.309 69.812 264.981 66.996 266.257 64.268L264.695 63.608C263.683 66.248 261.945 69.042 261.417 69.79C260.911 70.516 260.493 71.022 260.075 71.11C260.273 71.55 260.537 72.342 260.625 72.672ZM260.625 72.672C261.021 72.474 261.681 72.364 266.081 71.88C266.059 71.572 266.125 70.956 266.191 70.56L261.395 71L260.603 71.484L260.625 72.672ZM260.163 80.856L260.427 82.44C262.693 82 265.751 81.384 268.699 80.768L268.589 79.316C265.487 79.91 262.275 80.526 260.163 80.856ZM270.811 67.568V69.108H278.665V67.568H270.811ZM278.005 67.568V67.942C277.763 77.468 277.433 81.032 276.751 81.802C276.509 82.088 276.267 82.154 275.849 82.132C275.343 82.132 274.089 82.132 272.703 82.022C272.989 82.462 273.209 83.144 273.231 83.606C274.441 83.672 275.717 83.694 276.443 83.628C277.213 83.562 277.697 83.364 278.181 82.726C279.017 81.692 279.281 78.348 279.589 68.426C279.589 68.206 279.589 67.568 279.589 67.568H278.005ZM271.735 63.542C271.031 66.534 269.821 69.526 268.303 71.44C268.677 71.638 269.381 72.122 269.667 72.364C271.185 70.274 272.483 67.106 273.341 63.85L271.735 63.542ZM270.239 72.892C271.867 74.322 273.693 76.346 274.507 77.688L275.717 76.654C274.903 75.29 273.011 73.332 271.383 71.968L270.239 72.892ZM294.505 64.84V83.782H296.111V66.402H301.105V64.84H294.505ZM282.779 65.962V67.436H293.295V65.962H282.779ZM282.207 72.056V73.574H293.581V72.056H282.207ZM287.201 63.608V66.864H288.807V63.608H287.201ZM284.143 68.206C284.605 69.328 284.979 70.824 285.089 71.792L286.563 71.44C286.431 70.472 286.013 68.998 285.529 67.898L284.143 68.206ZM290.457 67.744C290.193 68.866 289.665 70.494 289.225 71.506L290.545 71.858C291.029 70.89 291.557 69.416 292.041 68.118L290.457 67.744ZM284.275 81.032V82.506H291.513V81.032H284.275ZM283.681 75.488V83.782H285.221V76.962H290.765V83.672H292.349V75.488H283.681ZM300.665 64.84V65.368C300.005 67.106 298.817 70.142 297.695 72.408C299.917 74.344 300.555 75.994 300.577 77.38C300.577 78.194 300.423 78.832 299.939 79.118C299.675 79.272 299.367 79.36 298.993 79.382C298.553 79.404 297.915 79.382 297.277 79.338C297.563 79.8 297.717 80.504 297.739 80.966C298.377 80.988 299.103 81.01 299.653 80.944C300.225 80.856 300.709 80.702 301.105 80.46C301.875 79.932 302.183 78.898 302.183 77.556C302.161 75.972 301.633 74.234 299.411 72.188C300.423 70.164 301.567 67.612 302.469 65.544L301.259 64.774L300.995 64.84H300.665ZM317.605 65.61H321.323V67.744H317.605V65.61ZM312.413 65.61H316.065V67.744H312.413V65.61ZM307.375 65.61H310.895V67.744H307.375V65.61ZM305.791 64.4V68.954H322.951V64.4H305.791ZM304.537 73.486V74.85H324.117V73.486H304.537ZM306.737 70.494V71.814H319.409V70.494H306.737ZM309.993 79.03V80.174H321.147V79.03H309.993ZM309.949 81.78V83.034H321.125V81.78H309.949ZM321.653 69.702C317.715 73.64 310.763 76.39 304.053 77.842C304.317 78.172 304.735 78.898 304.889 79.25C311.599 77.6 318.661 74.784 322.973 70.538L321.653 69.702ZM312.831 68.954V74.124H314.437V68.954H312.831ZM310.697 76.346H310.103L309.157 77.292V83.738H310.697V77.578H321.279V76.346H310.697ZM320.487 76.346V83.694H322.071V76.346H320.487Z" fill="white"/>
</svg>
