<svg width="406" height="228" viewBox="0 0 406 228" fill="none" xmlns="http://www.w3.org/2000/svg">
<rect width="406" height="228" fill="black"/>
<path d="M94.6158 66.237L89.6988 82H87.7848L83.7918 69.977C83.7551 69.8597 83.7184 69.735 83.6818 69.603C83.6524 69.471 83.6194 69.3317 83.5828 69.185C83.5461 69.3317 83.5094 69.471 83.4728 69.603C83.4361 69.735 83.3994 69.8597 83.3628 69.977L79.3478 82H77.4338L72.5168 66.237H74.2878C74.4784 66.237 74.6361 66.2847 74.7608 66.38C74.8928 66.4753 74.9771 66.5963 75.0138 66.743L78.2698 77.699C78.3211 77.897 78.3688 78.1097 78.4128 78.337C78.4641 78.5643 78.5118 78.8063 78.5558 79.063C78.6071 78.8063 78.6584 78.5643 78.7098 78.337C78.7684 78.1023 78.8308 77.8897 78.8968 77.699L82.6038 66.743C82.6478 66.6183 82.7321 66.5047 82.8568 66.402C82.9888 66.292 83.1464 66.237 83.3298 66.237H83.9458C84.1364 66.237 84.2904 66.2847 84.4078 66.38C84.5251 66.4753 84.6131 66.5963 84.6718 66.743L88.3678 77.699C88.4338 77.8897 88.4924 78.095 88.5438 78.315C88.6024 78.535 88.6574 78.766 88.7088 79.008C88.7454 78.766 88.7858 78.535 88.8298 78.315C88.8738 78.095 88.9214 77.8897 88.9728 77.699L92.2398 66.743C92.2764 66.611 92.3571 66.4937 92.4818 66.391C92.6138 66.2883 92.7714 66.237 92.9548 66.237H94.6158ZM106.147 80.504V82H97.6992V80.504H101.076V69.757C101.076 69.4343 101.087 69.108 101.109 68.778L98.3042 71.187C98.2089 71.2677 98.1136 71.319 98.0182 71.341C97.9229 71.3557 97.8349 71.3557 97.7542 71.341C97.6736 71.3263 97.5966 71.297 97.5232 71.253C97.4572 71.209 97.4059 71.1613 97.3692 71.11L96.7532 70.263L101.45 66.204H103.045V80.504H106.147ZM114.715 74.575H120.149V76.236H114.715V74.575ZM138.089 80.207V82H129.146V66.237H131.269V80.207H138.089ZM149.632 80.504V82H141.184V80.504H144.561V69.757C144.561 69.4343 144.572 69.108 144.594 68.778L141.789 71.187C141.693 71.2677 141.598 71.319 141.503 71.341C141.407 71.3557 141.319 71.3557 141.239 71.341C141.158 71.3263 141.081 71.297 141.008 71.253C140.942 71.209 140.89 71.1613 140.854 71.11L140.238 70.263L144.935 66.204H146.53V80.504H149.632ZM172.4 67.238C170.002 71.902 166.152 76.126 161.862 78.7C162.258 79.008 162.896 79.646 163.182 79.976C167.406 77.138 171.366 72.804 174.028 67.788L172.4 67.238ZM162.764 69.922C166.856 72.496 171.564 76.39 173.72 79.14L175.04 77.908C172.774 75.136 167.978 71.374 163.93 68.866L162.764 69.922ZM158.892 64.884V83.804H160.52V66.468H177.24V64.884H158.892ZM159.948 80.944V82.55H177.746V80.944H159.948ZM187.646 67.26V68.822H196.622V74.52H198.162V67.26H187.646ZM186.986 73.662V75.246H199.724V73.662H186.986ZM193.872 74.256L192.442 74.564C193.52 78.898 195.544 82.176 198.954 83.804C199.218 83.364 199.724 82.704 200.098 82.352C196.864 81.01 194.818 78.04 193.872 74.256ZM191.65 63.762V71.264C191.65 75.51 191.012 79.734 185.182 82.55C185.556 82.836 186.084 83.43 186.282 83.804C192.508 80.724 193.234 76.016 193.234 71.264V63.762H191.65ZM179.968 68.822V70.384H186.612V68.822H179.968ZM182.608 63.784V78.062H184.17V63.784H182.608ZM179.594 78.436L180.254 80.086C182.168 79.228 184.632 78.128 186.964 77.028L186.59 75.554C184.016 76.654 181.354 77.798 179.594 78.436ZM203.838 63.564C203.354 65.654 202.496 67.678 201.418 69.064C201.682 69.394 202.122 70.186 202.254 70.516C203.53 68.866 204.608 66.358 205.268 63.938L203.838 63.564ZM203.86 66.05L203.552 67.502H208.216V66.05H203.86ZM204.146 83.518C204.454 83.122 204.96 82.704 208.282 80.394C208.128 80.108 207.908 79.536 207.798 79.14L204.322 81.45L203.882 82.088L204.146 83.518ZM202.628 70.164V71.594H207.82V70.164H202.628ZM201.858 74.696V76.148H208.304V74.696H201.858ZM204.146 83.518C204.146 82.88 205.862 81.45 205.862 81.45V70.956H204.344V80.24C204.344 81.318 203.662 82.066 203.266 82.352C203.53 82.616 203.97 83.188 204.146 83.518ZM212.044 66.16V67.59H221.812V66.16H212.044ZM216.51 68.624V80.856H217.984V68.624H216.51ZM212.792 72.98C212.792 72.672 213.76 72.144 213.76 72.144V72.122C214.97 69.966 216.224 66.798 217.038 63.806L215.454 63.476C214.904 66.248 213.694 69.328 213.342 70.098C212.968 70.912 212.638 71.462 212.308 71.572C212.484 71.946 212.704 72.672 212.792 72.98ZM212.792 72.98C212.99 72.804 213.65 72.672 214.508 72.672H221.24V71.286H213.672L212.792 71.704V72.98ZM212.242 75.598V77.072H221.702V75.598H212.242ZM211.538 71.352H207.908V72.87H210.02V80.768H211.538V71.352ZM208.546 64.84C209.206 66.05 209.932 67.7 210.262 68.778L211.67 68.228C211.34 67.172 210.57 65.61 209.866 64.378L208.546 64.84ZM210.944 79.734C209.932 79.734 208.656 80.746 207.446 82.044L208.524 83.562C209.36 82.374 210.306 81.208 210.922 81.208C211.362 81.208 211.956 81.758 212.704 82.286C213.892 83.012 215.234 83.32 217.06 83.32C218.402 83.32 220.646 83.254 221.79 83.188C221.812 82.726 222.032 81.912 222.208 81.472C220.734 81.648 218.49 81.736 217.104 81.736C215.388 81.736 214.09 81.538 212.99 80.856C212.066 80.284 211.582 79.734 210.944 79.734ZM226.96 65.456V66.842H233.67V65.456H226.96ZM235.276 65.478V66.886H243.284V65.478H235.276ZM227.356 63.476C226.63 65.566 225.376 67.568 223.88 68.866C224.276 69.064 224.936 69.504 225.244 69.768C226.696 68.36 228.104 66.16 228.918 63.872L227.356 63.476ZM235.936 63.498C235.386 65.412 234.374 67.216 233.12 68.404C233.516 68.624 234.176 69.064 234.484 69.35C235.716 68.03 236.86 65.984 237.498 63.872L235.936 63.498ZM228.61 66.512C229.204 67.458 229.842 68.734 230.084 69.548L231.536 68.954C231.272 68.184 230.59 66.908 229.996 66.006L228.61 66.512ZM237.63 66.468C238.378 67.458 239.17 68.822 239.5 69.68L240.93 69.042C240.578 68.162 239.72 66.864 238.994 65.918L237.63 66.468ZM230.524 76.632V77.842H237.19V76.632H230.524ZM225.156 72.034V83.738H226.762V72.034H225.156ZM230.524 70.186V71.66H241.722V70.186H230.524ZM226.146 70.142C227.07 70.956 228.148 72.144 228.61 72.914L229.886 72.012C229.38 71.242 228.302 70.12 227.356 69.328L226.146 70.142ZM240.864 70.186V81.78C240.864 82.088 240.754 82.176 240.402 82.198C240.094 82.22 238.906 82.22 237.674 82.176C237.916 82.594 238.136 83.21 238.202 83.628C239.874 83.65 240.952 83.628 241.612 83.386C242.272 83.144 242.47 82.704 242.47 81.78V70.186H240.864ZM231.272 74.784H236.464V79.822H231.272V74.784ZM229.842 73.486V81.098H237.938V73.486H229.842ZM247.486 64.884V66.402H252.26V76.478H247.486V78.018H253.8V64.884H247.486ZM247.508 70.582V72.078H252.92V70.582H247.508ZM256.792 64.466V66.006H264.206V64.466H256.792ZM256.792 69.812V71.33H264.206V69.812H256.792ZM256.66 75.224V76.72H264.162V75.224H256.66ZM246.584 64.884V80.064H248.124V64.884H246.584ZM263.59 64.466V81.582C263.59 81.978 263.458 82.11 263.062 82.132C262.666 82.132 261.28 82.154 259.872 82.11C260.114 82.55 260.378 83.276 260.466 83.716C262.358 83.716 263.568 83.694 264.272 83.43C264.976 83.144 265.24 82.638 265.24 81.604V64.466H263.59ZM255.824 64.466V72.32C255.824 75.752 255.45 79.932 251.732 82.792C252.084 83.012 252.7 83.584 252.942 83.914C256.902 80.878 257.452 76.016 257.452 72.32V64.466H255.824ZM275.756 73.09L274.348 73.53C276.592 78.942 280.75 82.462 286.998 83.826C287.218 83.386 287.68 82.704 288.032 82.374C281.916 81.186 277.736 77.908 275.756 73.09ZM283.61 72.474V72.76C281.96 78.062 277.23 81.142 272.082 82.396C272.412 82.748 272.808 83.386 272.984 83.804C278.484 82.308 283.39 79.096 285.392 72.914L284.27 72.408L283.94 72.474H283.61ZM275.272 72.474L274.81 74.058H283.874V72.474H275.272ZM276.79 63.454C275.822 71.286 273.314 77.226 267.484 80.746C267.88 81.054 268.474 81.67 268.716 82.022C274.92 78.216 277.494 72.078 278.616 63.74L276.79 63.454ZM281.608 64.62C282.576 65.654 283.808 67.062 284.424 67.898L285.744 66.996C285.128 66.182 283.852 64.818 282.906 63.85L281.608 64.62ZM269.992 70.494C269.992 70.098 271.312 69.548 271.312 69.548V69.526C272.06 68.294 272.94 66.336 273.49 64.466L271.708 64.158C271.356 65.852 270.498 67.612 270.256 68.074C269.992 68.558 269.728 68.866 269.442 68.954C269.618 69.35 269.882 70.142 269.992 70.494ZM269.992 70.494C270.212 70.252 270.938 70.12 272.324 70.12H287.284V68.536H271.092L269.992 69.196V70.494ZM294.302 72.012V73.442H308.844V72.012H294.302ZM293.62 75.686V77.116H309.724V75.686H293.62ZM297.602 69.856V76.434H299.142V69.856H297.602ZM296.414 76.192V82.132H297.954V76.192H296.414ZM303.564 69.856V76.368H305.126V69.856H303.564ZM291.904 64.598V71.044C291.904 74.564 291.706 79.47 289.506 82.946C289.902 83.1 290.65 83.54 290.958 83.782C293.246 80.196 293.576 74.784 293.576 71.044V64.598H291.904ZM292.894 64.598V66.028H306.776V68.558H292.894V69.988H308.426V64.598H292.894ZM293.884 81.934L294.148 83.474C296.458 83.078 299.67 82.572 302.706 82.022L302.64 80.592C299.384 81.12 296.062 81.648 293.884 81.934ZM301.826 76.258L300.462 76.588C301.914 80.306 304.796 82.77 308.954 83.804C309.152 83.386 309.592 82.792 309.944 82.44C305.962 81.648 303.102 79.448 301.826 76.258ZM307.304 77.248C306.336 78.04 304.642 79.14 303.432 79.8L304.488 80.614C305.742 79.976 307.348 79.052 308.536 78.106L307.304 77.248ZM320.988 63.608V72.848C320.988 76.83 320.438 80.46 311.748 82.308C312.1 82.682 312.54 83.386 312.738 83.76C321.714 81.626 322.682 77.424 322.682 72.848V63.608H320.988ZM315.136 68.602H328.578V72.716H315.136V68.602ZM313.508 66.996V74.3H330.272V66.996H313.508ZM316.016 75.026L314.542 75.576C317.38 81.714 322.616 83.21 331.262 83.716C331.372 83.144 331.702 82.44 332.032 82.044C323.562 81.67 318.722 80.526 316.016 75.026Z" fill="white"/>
</svg>
