<svg width="406" height="228" viewBox="0 0 406 228" fill="none" xmlns="http://www.w3.org/2000/svg">
<rect width="406" height="228" fill="black"/>
<path d="M74.8287 66.237L69.9117 82H67.9977L64.0047 69.977C63.968 69.8597 63.9313 69.735 63.8947 69.603C63.8653 69.471 63.8323 69.3317 63.7957 69.185C63.759 69.3317 63.7223 69.471 63.6857 69.603C63.649 69.735 63.6123 69.8597 63.5757 69.977L59.5607 82H57.6467L52.7297 66.237H54.5007C54.6913 66.237 54.849 66.2847 54.9737 66.38C55.1057 66.4753 55.19 66.5963 55.2267 66.743L58.4827 77.699C58.534 77.897 58.5817 78.1097 58.6257 78.337C58.677 78.5643 58.7247 78.8063 58.7687 79.063C58.82 78.8063 58.8713 78.5643 58.9227 78.337C58.9813 78.1023 59.0437 77.8897 59.1097 77.699L62.8167 66.743C62.8607 66.6183 62.945 66.5047 63.0697 66.402C63.2017 66.292 63.3593 66.237 63.5427 66.237H64.1587C64.3493 66.237 64.5033 66.2847 64.6207 66.38C64.738 66.4753 64.826 66.5963 64.8847 66.743L68.5807 77.699C68.6467 77.8897 68.7053 78.095 68.7567 78.315C68.8153 78.535 68.8703 78.766 68.9217 79.008C68.9583 78.766 68.9987 78.535 69.0427 78.315C69.0867 78.095 69.1343 77.8897 69.1857 77.699L72.4527 66.743C72.4893 66.611 72.57 66.4937 72.6947 66.391C72.8267 66.2883 72.9843 66.237 73.1677 66.237H74.8287ZM81.5421 80.614C82.0554 80.614 82.5138 80.5443 82.9171 80.405C83.3278 80.2583 83.6724 80.0567 83.9511 79.8C84.2371 79.536 84.4534 79.2243 84.6001 78.865C84.7541 78.4983 84.8311 78.095 84.8311 77.655C84.8311 77.1123 84.7394 76.6503 84.5561 76.269C84.3801 75.8803 84.1381 75.565 83.8301 75.323C83.5294 75.081 83.1811 74.905 82.7851 74.795C82.3891 74.6777 81.9748 74.619 81.5421 74.619C81.1094 74.619 80.6951 74.6777 80.2991 74.795C79.9031 74.905 79.5511 75.081 79.2431 75.323C78.9424 75.565 78.7004 75.8803 78.5171 76.269C78.3411 76.6503 78.2531 77.1123 78.2531 77.655C78.2531 78.095 78.3264 78.4983 78.4731 78.865C78.6271 79.2243 78.8434 79.536 79.1221 79.8C79.4081 80.0567 79.7528 80.2583 80.1561 80.405C80.5668 80.5443 81.0288 80.614 81.5421 80.614ZM81.5421 67.579C81.0728 67.579 80.6584 67.6487 80.2991 67.788C79.9471 67.9273 79.6501 68.118 79.4081 68.36C79.1734 68.602 78.9938 68.8843 78.8691 69.207C78.7518 69.5297 78.6931 69.8743 78.6931 70.241C78.6931 70.6003 78.7444 70.9487 78.8471 71.286C78.9498 71.6233 79.1148 71.924 79.3421 72.188C79.5694 72.4447 79.8628 72.6537 80.2221 72.815C80.5888 72.969 81.0288 73.046 81.5421 73.046C82.0554 73.046 82.4918 72.969 82.8511 72.815C83.2178 72.6537 83.5148 72.4447 83.7421 72.188C83.9694 71.924 84.1344 71.6233 84.2371 71.286C84.3398 70.9487 84.3911 70.6003 84.3911 70.241C84.3911 69.8743 84.3288 69.5297 84.2041 69.207C84.0868 68.8843 83.9071 68.602 83.6651 68.36C83.4304 68.118 83.1334 67.9273 82.7741 67.788C82.4221 67.6487 82.0114 67.579 81.5421 67.579ZM83.7971 73.783C84.7798 74.0617 85.5351 74.5273 86.0631 75.18C86.5911 75.8327 86.8551 76.6687 86.8551 77.688C86.8551 78.3773 86.7231 79.0007 86.4591 79.558C86.2024 80.108 85.8394 80.5773 85.3701 80.966C84.9081 81.3547 84.3508 81.6553 83.6981 81.868C83.0454 82.0733 82.3268 82.176 81.5421 82.176C80.7574 82.176 80.0388 82.0733 79.3861 81.868C78.7334 81.6553 78.1724 81.3547 77.7031 80.966C77.2338 80.5773 76.8708 80.108 76.6141 79.558C76.3574 79.0007 76.2291 78.3773 76.2291 77.688C76.2291 76.6687 76.4931 75.8327 77.0211 75.18C77.5491 74.5273 78.3044 74.0617 79.2871 73.783C78.4584 73.475 77.8314 73.0167 77.4061 72.408C76.9881 71.792 76.7791 71.0587 76.7791 70.208C76.7791 69.6287 76.8928 69.086 77.1201 68.58C77.3474 68.074 77.6701 67.634 78.0881 67.26C78.5061 66.886 79.0048 66.5927 79.5841 66.38C80.1708 66.1673 80.8234 66.061 81.5421 66.061C82.2534 66.061 82.9024 66.1673 83.4891 66.38C84.0758 66.5927 84.5781 66.886 84.9961 67.26C85.4141 67.634 85.7368 68.074 85.9641 68.58C86.1914 69.086 86.3051 69.6287 86.3051 70.208C86.3051 71.0587 86.0924 71.792 85.6671 72.408C85.2491 73.0167 84.6258 73.475 83.7971 73.783ZM94.9277 74.575H100.362V76.236H94.9277V74.575ZM118.302 80.207V82H109.359V66.237H111.482V80.207H118.302ZM129.844 80.504V82H121.396V80.504H124.773V69.757C124.773 69.4343 124.784 69.108 124.806 68.778L122.001 71.187C121.906 71.2677 121.811 71.319 121.715 71.341C121.62 71.3557 121.532 71.3557 121.451 71.341C121.371 71.3263 121.294 71.297 121.22 71.253C121.154 71.209 121.103 71.1613 121.066 71.11L120.45 70.263L125.147 66.204H126.742V80.504H129.844ZM142.265 80.141C142.478 80.141 142.647 80.2033 142.771 80.328C142.896 80.4527 142.958 80.614 142.958 80.812V82H132.442V81.329C132.442 81.1897 132.472 81.0467 132.53 80.9C132.589 80.7533 132.681 80.6177 132.805 80.493L137.854 75.422C138.272 74.9967 138.654 74.5897 138.998 74.201C139.343 73.805 139.636 73.409 139.878 73.013C140.12 72.617 140.307 72.2173 140.439 71.814C140.571 71.4033 140.637 70.967 140.637 70.505C140.637 70.043 140.564 69.6397 140.417 69.295C140.271 68.943 140.069 68.6533 139.812 68.426C139.563 68.1987 139.266 68.03 138.921 67.92C138.577 67.8027 138.206 67.744 137.81 67.744C137.407 67.744 137.037 67.8027 136.699 67.92C136.362 68.0373 136.061 68.2023 135.797 68.415C135.541 68.6203 135.324 68.866 135.148 69.152C134.972 69.438 134.848 69.7533 134.774 70.098C134.686 70.3547 134.565 70.527 134.411 70.615C134.265 70.6957 134.056 70.7177 133.784 70.681L132.761 70.505C132.864 69.7863 133.062 69.152 133.355 68.602C133.656 68.0447 134.03 67.579 134.477 67.205C134.932 66.831 135.449 66.5487 136.028 66.358C136.608 66.16 137.235 66.061 137.909 66.061C138.577 66.061 139.2 66.16 139.779 66.358C140.359 66.556 140.861 66.8457 141.286 67.227C141.712 67.601 142.045 68.0593 142.287 68.602C142.529 69.1447 142.65 69.7607 142.65 70.45C142.65 71.0367 142.562 71.583 142.386 72.089C142.21 72.5877 141.972 73.0643 141.671 73.519C141.371 73.9737 141.022 74.4173 140.626 74.85C140.238 75.2827 139.823 75.719 139.383 76.159L135.225 80.405C135.519 80.3243 135.816 80.262 136.116 80.218C136.417 80.1667 136.707 80.141 136.985 80.141H142.265ZM145.391 80.79C145.391 80.5993 145.424 80.4197 145.49 80.251C145.563 80.0823 145.659 79.9357 145.776 79.811C145.901 79.6863 146.047 79.5873 146.216 79.514C146.385 79.4407 146.564 79.404 146.755 79.404C146.946 79.404 147.125 79.4407 147.294 79.514C147.463 79.5873 147.609 79.6863 147.734 79.811C147.859 79.9357 147.958 80.0823 148.031 80.251C148.104 80.4197 148.141 80.5993 148.141 80.79C148.141 80.988 148.104 81.1713 148.031 81.34C147.958 81.5013 147.859 81.6443 147.734 81.769C147.609 81.8937 147.463 81.989 147.294 82.055C147.125 82.1283 146.946 82.165 146.755 82.165C146.564 82.165 146.385 82.1283 146.216 82.055C146.047 81.989 145.901 81.8937 145.776 81.769C145.659 81.6443 145.563 81.5013 145.49 81.34C145.424 81.1713 145.391 80.988 145.391 80.79ZM160.567 80.504V82H152.119V80.504H155.496V69.757C155.496 69.4343 155.507 69.108 155.529 68.778L152.724 71.187C152.629 71.2677 152.533 71.319 152.438 71.341C152.343 71.3557 152.255 71.3557 152.174 71.341C152.093 71.3263 152.016 71.297 151.943 71.253C151.877 71.209 151.826 71.1613 151.789 71.11L151.173 70.263L155.87 66.204H157.465V80.504H160.567ZM174.14 73.871C174.756 73.871 175.298 73.7977 175.768 73.651C176.244 73.497 176.64 73.2843 176.956 73.013C177.278 72.7343 177.52 72.4043 177.682 72.023C177.843 71.6417 177.924 71.22 177.924 70.758C177.924 69.8193 177.616 69.1117 177 68.635C176.384 68.1583 175.46 67.92 174.228 67.92H171.896V73.871H174.14ZM181.422 82H179.53C179.141 82 178.855 81.8497 178.672 81.549L174.58 75.917C174.455 75.741 174.319 75.6163 174.173 75.543C174.033 75.4623 173.813 75.422 173.513 75.422H171.896V82H169.773V66.237H174.228C175.225 66.237 176.087 66.3397 176.813 66.545C177.539 66.743 178.136 67.0327 178.606 67.414C179.082 67.7953 179.434 68.2573 179.662 68.8C179.889 69.3353 180.003 69.9367 180.003 70.604C180.003 71.1613 179.915 71.682 179.739 72.166C179.563 72.65 179.306 73.0863 178.969 73.475C178.639 73.8563 178.232 74.1827 177.748 74.454C177.271 74.7253 176.728 74.9307 176.12 75.07C176.391 75.224 176.626 75.4477 176.824 75.741L181.422 82ZM189.853 75.213C189.853 74.7583 189.787 74.344 189.655 73.97C189.53 73.5887 189.343 73.2623 189.094 72.991C188.852 72.7123 188.555 72.4997 188.203 72.353C187.851 72.199 187.451 72.122 187.004 72.122C186.065 72.122 185.321 72.397 184.771 72.947C184.228 73.4897 183.891 74.245 183.759 75.213H189.853ZM191.437 80.438C191.195 80.7313 190.905 80.988 190.568 81.208C190.23 81.4207 189.867 81.5967 189.479 81.736C189.097 81.8753 188.701 81.978 188.291 82.044C187.88 82.1173 187.473 82.154 187.07 82.154C186.3 82.154 185.588 82.0257 184.936 81.769C184.29 81.505 183.729 81.1237 183.253 80.625C182.783 80.119 182.417 79.4957 182.153 78.755C181.889 78.0143 181.757 77.1637 181.757 76.203C181.757 75.4257 181.874 74.6997 182.109 74.025C182.351 73.3503 182.695 72.7673 183.143 72.276C183.59 71.7773 184.136 71.3887 184.782 71.11C185.427 70.824 186.153 70.681 186.96 70.681C187.627 70.681 188.243 70.7947 188.808 71.022C189.38 71.242 189.871 71.5647 190.282 71.99C190.7 72.408 191.026 72.9287 191.261 73.552C191.495 74.168 191.613 74.872 191.613 75.664C191.613 75.972 191.58 76.1773 191.514 76.28C191.448 76.3827 191.323 76.434 191.14 76.434H183.693C183.715 77.138 183.81 77.7503 183.979 78.271C184.155 78.7917 184.397 79.228 184.705 79.58C185.013 79.9247 185.379 80.185 185.805 80.361C186.23 80.5297 186.707 80.614 187.235 80.614C187.726 80.614 188.148 80.559 188.5 80.449C188.859 80.3317 189.167 80.207 189.424 80.075C189.68 79.943 189.893 79.822 190.062 79.712C190.238 79.5947 190.388 79.536 190.513 79.536C190.674 79.536 190.799 79.5983 190.887 79.723L191.437 80.438ZM200.057 76.984C199.155 77.0133 198.385 77.0867 197.747 77.204C197.116 77.314 196.599 77.4607 196.196 77.644C195.8 77.8273 195.51 78.0437 195.327 78.293C195.151 78.5423 195.063 78.821 195.063 79.129C195.063 79.4223 195.11 79.6753 195.206 79.888C195.301 80.1007 195.429 80.2767 195.591 80.416C195.759 80.548 195.954 80.647 196.174 80.713C196.401 80.7717 196.643 80.801 196.9 80.801C197.244 80.801 197.56 80.768 197.846 80.702C198.132 80.6287 198.399 80.526 198.649 80.394C198.905 80.262 199.147 80.1043 199.375 79.921C199.609 79.7377 199.837 79.5287 200.057 79.294V76.984ZM193.732 72.43C194.348 71.836 195.011 71.3923 195.723 71.099C196.434 70.8057 197.222 70.659 198.088 70.659C198.711 70.659 199.265 70.7617 199.749 70.967C200.233 71.1723 200.64 71.4583 200.97 71.825C201.3 72.1917 201.549 72.6353 201.718 73.156C201.886 73.6767 201.971 74.2487 201.971 74.872V82H201.102C200.911 82 200.764 81.9707 200.662 81.912C200.559 81.846 200.478 81.7213 200.42 81.538L200.2 80.482C199.906 80.7533 199.62 80.9953 199.342 81.208C199.063 81.4133 198.77 81.5893 198.462 81.736C198.154 81.8753 197.824 81.9817 197.472 82.055C197.127 82.1357 196.742 82.176 196.317 82.176C195.884 82.176 195.477 82.1173 195.096 82C194.714 81.8753 194.381 81.692 194.095 81.45C193.816 81.208 193.592 80.9037 193.424 80.537C193.262 80.163 193.182 79.723 193.182 79.217C193.182 78.777 193.303 78.3553 193.545 77.952C193.787 77.5413 194.179 77.1783 194.722 76.863C195.264 76.5477 195.972 76.291 196.845 76.093C197.717 75.8877 198.788 75.7703 200.057 75.741V74.872C200.057 74.0067 199.87 73.354 199.496 72.914C199.122 72.4667 198.575 72.243 197.857 72.243C197.373 72.243 196.966 72.3053 196.636 72.43C196.313 72.5473 196.031 72.683 195.789 72.837C195.554 72.9837 195.349 73.1193 195.173 73.244C195.004 73.3613 194.835 73.42 194.667 73.42C194.535 73.42 194.421 73.387 194.326 73.321C194.23 73.2477 194.15 73.1597 194.084 73.057L193.732 72.43ZM212.708 72.837C212.65 72.9177 212.591 72.98 212.532 73.024C212.474 73.068 212.393 73.09 212.29 73.09C212.18 73.09 212.059 73.046 211.927 72.958C211.795 72.8627 211.63 72.76 211.432 72.65C211.242 72.54 211.003 72.441 210.717 72.353C210.439 72.2577 210.094 72.21 209.683 72.21C209.133 72.21 208.649 72.309 208.231 72.507C207.813 72.6977 207.461 72.9763 207.175 73.343C206.897 73.7097 206.684 74.1533 206.537 74.674C206.398 75.1947 206.328 75.7777 206.328 76.423C206.328 77.0977 206.405 77.699 206.559 78.227C206.713 78.7477 206.93 79.1877 207.208 79.547C207.494 79.899 207.835 80.1703 208.231 80.361C208.635 80.5443 209.086 80.636 209.584 80.636C210.061 80.636 210.453 80.581 210.761 80.471C211.069 80.3537 211.322 80.2253 211.52 80.086C211.726 79.9467 211.894 79.822 212.026 79.712C212.166 79.5947 212.301 79.536 212.433 79.536C212.595 79.536 212.719 79.5983 212.807 79.723L213.357 80.438C213.115 80.7387 212.84 80.9953 212.532 81.208C212.224 81.4207 211.891 81.6003 211.531 81.747C211.179 81.8863 210.809 81.989 210.42 82.055C210.032 82.121 209.636 82.154 209.232 82.154C208.536 82.154 207.887 82.0257 207.285 81.769C206.691 81.5123 206.174 81.142 205.734 80.658C205.294 80.1667 204.95 79.5653 204.7 78.854C204.451 78.1427 204.326 77.3323 204.326 76.423C204.326 75.5943 204.44 74.828 204.667 74.124C204.902 73.42 205.239 72.815 205.679 72.309C206.127 71.7957 206.673 71.396 207.318 71.11C207.971 70.824 208.719 70.681 209.562 70.681C210.347 70.681 211.036 70.8093 211.63 71.066C212.232 71.3153 212.763 71.671 213.225 72.133L212.708 72.837ZM217.428 72.342C217.905 71.836 218.433 71.4327 219.012 71.132C219.592 70.8313 220.259 70.681 221.014 70.681C221.623 70.681 222.158 70.7837 222.62 70.989C223.09 71.187 223.478 71.473 223.786 71.847C224.102 72.2137 224.34 72.6573 224.501 73.178C224.663 73.6987 224.743 74.2743 224.743 74.905V82H222.774V74.905C222.774 74.0617 222.58 73.409 222.191 72.947C221.81 72.4777 221.227 72.243 220.442 72.243C219.863 72.243 219.32 72.3823 218.814 72.661C218.316 72.9397 217.854 73.3173 217.428 73.794V82H215.459V65.797H217.428V72.342ZM243.811 68.03H238.707V82H236.584V68.03H231.469V66.237H243.811V68.03ZM247.699 70.681C248.513 70.681 249.247 70.8167 249.899 71.088C250.552 71.3593 251.109 71.7443 251.571 72.243C252.033 72.7417 252.385 73.3467 252.627 74.058C252.877 74.762 253.001 75.5503 253.001 76.423C253.001 77.303 252.877 78.095 252.627 78.799C252.385 79.503 252.033 80.1043 251.571 80.603C251.109 81.1017 250.552 81.4867 249.899 81.758C249.247 82.022 248.513 82.154 247.699 82.154C246.878 82.154 246.137 82.022 245.477 81.758C244.825 81.4867 244.267 81.1017 243.805 80.603C243.343 80.1043 242.988 79.503 242.738 78.799C242.496 78.095 242.375 77.303 242.375 76.423C242.375 75.5503 242.496 74.762 242.738 74.058C242.988 73.3467 243.343 72.7417 243.805 72.243C244.267 71.7443 244.825 71.3593 245.477 71.088C246.137 70.8167 246.878 70.681 247.699 70.681ZM247.699 80.625C248.799 80.625 249.621 80.2583 250.163 79.525C250.706 78.7843 250.977 77.754 250.977 76.434C250.977 75.1067 250.706 74.0727 250.163 73.332C249.621 72.5913 248.799 72.221 247.699 72.221C247.142 72.221 246.654 72.3163 246.236 72.507C245.826 72.6977 245.481 72.9727 245.202 73.332C244.931 73.6913 244.726 74.135 244.586 74.663C244.454 75.1837 244.388 75.774 244.388 76.434C244.388 77.754 244.66 78.7843 245.202 79.525C245.752 80.2583 246.585 80.625 247.699 80.625ZM257.454 65.797V75.334H257.96C258.106 75.334 258.227 75.3157 258.323 75.279C258.425 75.235 258.532 75.1507 258.642 75.026L262.162 71.253C262.264 71.1283 262.371 71.033 262.481 70.967C262.598 70.8937 262.752 70.857 262.943 70.857H264.714L260.611 75.224C260.413 75.4733 260.2 75.6677 259.973 75.807C260.105 75.895 260.222 75.9977 260.325 76.115C260.435 76.225 260.537 76.3533 260.633 76.5L264.989 82H263.24C263.071 82 262.924 81.9743 262.8 81.923C262.682 81.8643 262.58 81.7617 262.492 81.615L258.829 77.05C258.719 76.896 258.609 76.797 258.499 76.753C258.396 76.7017 258.235 76.676 258.015 76.676H257.454V82H255.485V65.797H257.454ZM273.491 75.213C273.491 74.7583 273.425 74.344 273.293 73.97C273.169 73.5887 272.982 73.2623 272.732 72.991C272.49 72.7123 272.193 72.4997 271.841 72.353C271.489 72.199 271.09 72.122 270.642 72.122C269.704 72.122 268.959 72.397 268.409 72.947C267.867 73.4897 267.529 74.245 267.397 75.213H273.491ZM275.075 80.438C274.833 80.7313 274.544 80.988 274.206 81.208C273.869 81.4207 273.506 81.5967 273.117 81.736C272.736 81.8753 272.34 81.978 271.929 82.044C271.519 82.1173 271.112 82.154 270.708 82.154C269.938 82.154 269.227 82.0257 268.574 81.769C267.929 81.505 267.368 81.1237 266.891 80.625C266.422 80.119 266.055 79.4957 265.791 78.755C265.527 78.0143 265.395 77.1637 265.395 76.203C265.395 75.4257 265.513 74.6997 265.747 74.025C265.989 73.3503 266.334 72.7673 266.781 72.276C267.229 71.7773 267.775 71.3887 268.42 71.11C269.066 70.824 269.792 70.681 270.598 70.681C271.266 70.681 271.882 70.7947 272.446 71.022C273.018 71.242 273.51 71.5647 273.92 71.99C274.338 72.408 274.665 72.9287 274.899 73.552C275.134 74.168 275.251 74.872 275.251 75.664C275.251 75.972 275.218 76.1773 275.152 76.28C275.086 76.3827 274.962 76.434 274.778 76.434H267.331C267.353 77.138 267.449 77.7503 267.617 78.271C267.793 78.7917 268.035 79.228 268.343 79.58C268.651 79.9247 269.018 80.185 269.443 80.361C269.869 80.5297 270.345 80.614 270.873 80.614C271.365 80.614 271.786 80.559 272.138 80.449C272.498 80.3317 272.806 80.207 273.062 80.075C273.319 79.943 273.532 79.822 273.7 79.712C273.876 79.5947 274.027 79.536 274.151 79.536C274.313 79.536 274.437 79.5983 274.525 79.723L275.075 80.438ZM279.504 72.474C279.746 72.2027 280.003 71.957 280.274 71.737C280.546 71.517 280.832 71.33 281.132 71.176C281.44 71.0147 281.763 70.8937 282.1 70.813C282.445 70.725 282.815 70.681 283.211 70.681C283.82 70.681 284.355 70.7837 284.817 70.989C285.287 71.187 285.675 71.473 285.983 71.847C286.299 72.2137 286.537 72.6573 286.698 73.178C286.86 73.6987 286.94 74.2743 286.94 74.905V82H284.971V74.905C284.971 74.0617 284.777 73.409 284.388 72.947C284.007 72.4777 283.424 72.243 282.639 72.243C282.06 72.243 281.517 72.3823 281.011 72.661C280.513 72.9397 280.051 73.3173 279.625 73.794V82H277.656V70.857H278.833C279.112 70.857 279.284 70.9927 279.35 71.264L279.504 72.474ZM294.093 71.528V73.068H304.609V71.528H294.093ZM295.171 66.666V68.25H306.919V66.666H295.171ZM289.539 76.28V77.864H309.229V76.28H289.539ZM304.015 71.528V71.836C303.421 78.392 302.827 81.164 301.947 81.912C301.639 82.154 301.353 82.198 300.803 82.198C300.165 82.198 298.537 82.176 296.843 82.022C297.173 82.484 297.393 83.188 297.415 83.672C299.021 83.76 300.583 83.804 301.375 83.738C302.277 83.672 302.805 83.54 303.355 82.968C304.389 81.956 305.005 79.206 305.643 72.32C305.687 72.078 305.709 71.528 305.709 71.528H304.015ZM295.017 63.498C294.467 66.798 293.477 71.374 292.707 74.036L294.423 74.212C295.105 71.572 296.095 67.062 296.733 63.652L295.017 63.498ZM325.157 66.237V82H324.09C323.921 82 323.778 81.9707 323.661 81.912C323.551 81.8533 323.441 81.7543 323.331 81.615L314.212 69.735C314.227 69.9183 314.238 70.098 314.245 70.274C314.252 70.45 314.256 70.615 314.256 70.769V82H312.386V66.237H313.486C313.581 66.237 313.662 66.2443 313.728 66.259C313.794 66.2663 313.853 66.2847 313.904 66.314C313.955 66.336 314.007 66.3727 314.058 66.424C314.109 66.468 314.164 66.5267 314.223 66.6L323.342 78.469C323.327 78.2783 323.313 78.095 323.298 77.919C323.291 77.7357 323.287 77.5633 323.287 77.402V66.237H325.157ZM331.321 67.975V73.486H337.8V75.224H331.321V82H329.187V66.237H338.9V67.975H331.321ZM352.285 68.03H347.181V82H345.058V68.03H339.943V66.237H352.285V68.03Z" fill="white"/>
</svg>
