<svg width="406" height="228" viewBox="0 0 406 228" fill="none" xmlns="http://www.w3.org/2000/svg">
<rect width="406" height="228" fill="black"/>
<path d="M103.8 66.237L98.8834 82H96.9694L92.9764 69.977C92.9397 69.8597 92.903 69.735 92.8664 69.603C92.837 69.471 92.804 69.3317 92.7674 69.185C92.7307 69.3317 92.694 69.471 92.6574 69.603C92.6207 69.735 92.584 69.8597 92.5474 69.977L88.5324 82H86.6184L81.7014 66.237H83.4724C83.663 66.237 83.8207 66.2847 83.9454 66.38C84.0774 66.4753 84.1617 66.5963 84.1984 66.743L87.4544 77.699C87.5057 77.897 87.5534 78.1097 87.5974 78.337C87.6487 78.5643 87.6964 78.8063 87.7404 79.063C87.7917 78.8063 87.843 78.5643 87.8944 78.337C87.953 78.1023 88.0154 77.8897 88.0814 77.699L91.7884 66.743C91.8324 66.6183 91.9167 66.5047 92.0414 66.402C92.1734 66.292 92.331 66.237 92.5144 66.237H93.1304C93.321 66.237 93.475 66.2847 93.5924 66.38C93.7097 66.4753 93.7977 66.5963 93.8564 66.743L97.5524 77.699C97.6184 77.8897 97.677 78.095 97.7284 78.315C97.787 78.535 97.842 78.766 97.8934 79.008C97.93 78.766 97.9704 78.535 98.0144 78.315C98.0584 78.095 98.106 77.8897 98.1574 77.699L101.424 66.743C101.461 66.611 101.542 66.4937 101.666 66.391C101.798 66.2883 101.956 66.237 102.139 66.237H103.8ZM115.332 80.504V82H106.884V80.504H110.261V69.757C110.261 69.4343 110.272 69.108 110.294 68.778L107.489 71.187C107.393 71.2677 107.298 71.319 107.203 71.341C107.107 71.3557 107.019 71.3557 106.939 71.341C106.858 71.3263 106.781 71.297 106.708 71.253C106.642 71.209 106.59 71.1613 106.554 71.11L105.938 70.263L110.635 66.204H112.23V80.504H115.332ZM118.271 74.575H123.705V76.236H118.271V74.575ZM141.644 80.207V82H132.701V66.237H134.824V80.207H141.644ZM152.846 80.141C153.059 80.141 153.228 80.2033 153.352 80.328C153.477 80.4527 153.539 80.614 153.539 80.812V82H143.023V81.329C143.023 81.1897 143.053 81.0467 143.111 80.9C143.17 80.7533 143.262 80.6177 143.386 80.493L148.435 75.422C148.853 74.9967 149.235 74.5897 149.579 74.201C149.924 73.805 150.217 73.409 150.459 73.013C150.701 72.617 150.888 72.2173 151.02 71.814C151.152 71.4033 151.218 70.967 151.218 70.505C151.218 70.043 151.145 69.6397 150.998 69.295C150.852 68.943 150.65 68.6533 150.393 68.426C150.144 68.1987 149.847 68.03 149.502 67.92C149.158 67.8027 148.787 67.744 148.391 67.744C147.988 67.744 147.618 67.8027 147.28 67.92C146.943 68.0373 146.642 68.2023 146.378 68.415C146.122 68.6203 145.905 68.866 145.729 69.152C145.553 69.438 145.429 69.7533 145.355 70.098C145.267 70.3547 145.146 70.527 144.992 70.615C144.846 70.6957 144.637 70.7177 144.365 70.681L143.342 70.505C143.445 69.7863 143.643 69.152 143.936 68.602C144.237 68.0447 144.611 67.579 145.058 67.205C145.513 66.831 146.03 66.5487 146.609 66.358C147.189 66.16 147.816 66.061 148.49 66.061C149.158 66.061 149.781 66.16 150.36 66.358C150.94 66.556 151.442 66.8457 151.867 67.227C152.293 67.601 152.626 68.0593 152.868 68.602C153.11 69.1447 153.231 69.7607 153.231 70.45C153.231 71.0367 153.143 71.583 152.967 72.089C152.791 72.5877 152.553 73.0643 152.252 73.519C151.952 73.9737 151.603 74.4173 151.207 74.85C150.819 75.2827 150.404 75.719 149.964 76.159L145.806 80.405C146.1 80.3243 146.397 80.262 146.697 80.218C146.998 80.1667 147.288 80.141 147.566 80.141H152.846ZM173.459 78.744C173.576 78.744 173.679 78.7917 173.767 78.887L174.614 79.8C173.969 80.548 173.184 81.131 172.26 81.549C171.343 81.967 170.232 82.176 168.927 82.176C167.798 82.176 166.771 81.9817 165.847 81.593C164.923 81.197 164.135 80.647 163.482 79.943C162.829 79.2317 162.323 78.381 161.964 77.391C161.605 76.401 161.425 75.312 161.425 74.124C161.425 72.936 161.612 71.847 161.986 70.857C162.36 69.867 162.884 69.0163 163.559 68.305C164.241 67.5937 165.055 67.0437 166.001 66.655C166.947 66.259 167.992 66.061 169.136 66.061C170.258 66.061 171.248 66.2407 172.106 66.6C172.964 66.9593 173.719 67.447 174.372 68.063L173.668 69.042C173.624 69.1153 173.565 69.1777 173.492 69.229C173.426 69.273 173.334 69.295 173.217 69.295C173.085 69.295 172.924 69.2253 172.733 69.086C172.542 68.9393 172.293 68.778 171.985 68.602C171.677 68.426 171.292 68.2683 170.83 68.129C170.368 67.9823 169.8 67.909 169.125 67.909C168.311 67.909 167.567 68.052 166.892 68.338C166.217 68.6167 165.634 69.0237 165.143 69.559C164.659 70.0943 164.281 70.747 164.01 71.517C163.739 72.287 163.603 73.156 163.603 74.124C163.603 75.1067 163.742 75.983 164.021 76.753C164.307 77.523 164.692 78.1757 165.176 78.711C165.667 79.239 166.243 79.6423 166.903 79.921C167.57 80.1997 168.289 80.339 169.059 80.339C169.528 80.339 169.95 80.3133 170.324 80.262C170.705 80.2033 171.054 80.1153 171.369 79.998C171.692 79.8807 171.989 79.734 172.26 79.558C172.539 79.3747 172.814 79.1583 173.085 78.909C173.21 78.799 173.334 78.744 173.459 78.744ZM181.108 70.681C181.922 70.681 182.656 70.8167 183.308 71.088C183.961 71.3593 184.518 71.7443 184.98 72.243C185.442 72.7417 185.794 73.3467 186.036 74.058C186.286 74.762 186.41 75.5503 186.41 76.423C186.41 77.303 186.286 78.095 186.036 78.799C185.794 79.503 185.442 80.1043 184.98 80.603C184.518 81.1017 183.961 81.4867 183.308 81.758C182.656 82.022 181.922 82.154 181.108 82.154C180.287 82.154 179.546 82.022 178.886 81.758C178.234 81.4867 177.676 81.1017 177.214 80.603C176.752 80.1043 176.397 79.503 176.147 78.799C175.905 78.095 175.784 77.303 175.784 76.423C175.784 75.5503 175.905 74.762 176.147 74.058C176.397 73.3467 176.752 72.7417 177.214 72.243C177.676 71.7443 178.234 71.3593 178.886 71.088C179.546 70.8167 180.287 70.681 181.108 70.681ZM181.108 80.625C182.208 80.625 183.03 80.2583 183.572 79.525C184.115 78.7843 184.386 77.754 184.386 76.434C184.386 75.1067 184.115 74.0727 183.572 73.332C183.03 72.5913 182.208 72.221 181.108 72.221C180.551 72.221 180.063 72.3163 179.645 72.507C179.235 72.6977 178.89 72.9727 178.611 73.332C178.34 73.6913 178.135 74.135 177.995 74.663C177.863 75.1837 177.797 75.774 177.797 76.434C177.797 77.754 178.069 78.7843 178.611 79.525C179.161 80.2583 179.994 80.625 181.108 80.625ZM190.742 72.474C190.984 72.2027 191.24 71.957 191.512 71.737C191.783 71.517 192.069 71.33 192.37 71.176C192.678 71.0147 193 70.8937 193.338 70.813C193.682 70.725 194.053 70.681 194.449 70.681C195.057 70.681 195.593 70.7837 196.055 70.989C196.524 71.187 196.913 71.473 197.221 71.847C197.536 72.2137 197.774 72.6573 197.936 73.178C198.097 73.6987 198.178 74.2743 198.178 74.905V82H196.209V74.905C196.209 74.0617 196.014 73.409 195.626 72.947C195.244 72.4777 194.661 72.243 193.877 72.243C193.297 72.243 192.755 72.3823 192.249 72.661C191.75 72.9397 191.288 73.3173 190.863 73.794V82H188.894V70.857H190.071C190.349 70.857 190.522 70.9927 190.588 71.264L190.742 72.474ZM201.737 82V72.529L200.505 72.386C200.344 72.3493 200.216 72.2943 200.12 72.221C200.025 72.1403 199.977 72.0267 199.977 71.88V71.077H201.737V70.483C201.737 69.867 201.829 69.284 202.012 68.734C202.203 68.1767 202.489 67.6927 202.87 67.282C203.252 66.8713 203.728 66.545 204.3 66.303C204.872 66.061 205.54 65.94 206.302 65.94C206.867 65.94 207.41 65.962 207.93 66.006C208.458 66.05 208.968 66.0757 209.459 66.083H210.79V82H208.843V67.458C208.447 67.4433 208.048 67.425 207.644 67.403C207.248 67.381 206.9 67.37 206.599 67.37C205.646 67.37 204.913 67.645 204.399 68.195C203.893 68.7377 203.64 69.5003 203.64 70.483V71.077H206.533V72.496H203.695V82H201.737ZM223.129 70.857V82H221.963C221.684 82 221.508 81.8643 221.435 81.593L221.281 80.394C220.797 80.9293 220.254 81.362 219.653 81.692C219.052 82.0147 218.362 82.176 217.585 82.176C216.976 82.176 216.437 82.077 215.968 81.879C215.506 81.6737 215.117 81.3877 214.802 81.021C214.487 80.6543 214.248 80.2107 214.087 79.69C213.933 79.1693 213.856 78.5937 213.856 77.963V70.857H215.814V77.963C215.814 78.8063 216.005 79.459 216.386 79.921C216.775 80.383 217.365 80.614 218.157 80.614C218.736 80.614 219.275 80.4783 219.774 80.207C220.28 79.9283 220.746 79.547 221.171 79.063V70.857H223.129ZM235.386 82H233.505C233.343 82 233.215 81.9597 233.12 81.879C233.032 81.791 232.958 81.6957 232.9 81.593L230.095 77.226C230.065 77.3287 230.032 77.4313 229.996 77.534C229.966 77.6293 229.922 77.7173 229.864 77.798L227.268 81.593C227.194 81.6957 227.114 81.791 227.026 81.879C226.945 81.9597 226.831 82 226.685 82H224.936L228.841 76.28L225.09 70.857H226.971C227.132 70.857 227.249 70.8827 227.323 70.934C227.396 70.9853 227.462 71.0587 227.521 71.154L230.26 75.334C230.318 75.1213 230.41 74.916 230.535 74.718L232.933 71.198C232.999 71.0953 233.068 71.0147 233.142 70.956C233.222 70.89 233.318 70.857 233.428 70.857H235.232L231.481 76.181L235.386 82ZM244.22 66.864V68.382H256.694V66.864H244.22ZM249.72 63.586V67.634H251.348V63.586H249.72ZM251.062 79.25C252.668 80.636 254.626 82.638 255.572 83.826L256.914 82.814C255.924 81.604 253.878 79.712 252.316 78.37L251.062 79.25ZM244.55 71.946C246.112 73.09 248.092 74.762 249.038 75.818L250.05 74.542C249.082 73.508 247.058 71.924 245.518 70.868L244.55 71.946ZM249.368 67.634C248.62 69.042 247.234 71.044 246.2 72.232L247.366 72.892C248.466 71.77 249.874 69.966 250.974 68.448L249.368 67.634ZM255.044 74.036C252.778 77.864 248.532 80.856 243.494 82.418C243.868 82.792 244.286 83.342 244.484 83.738C249.72 81.978 254.032 78.832 256.518 74.674L255.044 74.036ZM253.218 70.01C251.304 73.266 247.828 76.214 244.088 77.842C244.462 78.15 244.902 78.678 245.144 79.052C249.016 77.182 252.558 74.124 254.648 70.604L253.218 70.01ZM236.762 68.25V69.812H244.154V68.25H236.762ZM240.018 63.52V83.738H241.558V63.52H240.018ZM239.952 69.218C239.314 72.386 237.84 76.192 236.344 78.172C236.63 78.546 237.026 79.184 237.202 79.624C238.786 77.402 240.304 73.09 240.986 69.57L239.952 69.218ZM241.448 71.352L240.656 72.056C241.294 72.98 242.944 75.664 243.494 76.808L244.44 75.532C244 74.85 241.998 71.968 241.448 71.352ZM264.328 69.68V80.724C264.328 82.88 265.01 83.474 267.342 83.474C267.848 83.474 271.126 83.474 271.654 83.474C274.052 83.474 274.558 82.242 274.8 78.084C274.316 77.974 273.634 77.666 273.238 77.336C273.062 81.142 272.864 81.956 271.566 81.956C270.818 81.956 268.046 81.956 267.496 81.956C266.286 81.956 266.022 81.758 266.022 80.724V69.68H264.328ZM264.504 64.884C267.166 65.83 270.378 67.48 272.072 68.756L273.128 67.304C271.39 66.116 268.2 64.532 265.538 63.63L264.504 64.884ZM260.654 71.44C260.346 74.3 259.62 77.512 258.146 79.448L259.642 80.35C261.226 78.238 261.908 74.718 262.238 71.77L260.654 71.44ZM273.48 71.462C275.35 73.948 277 77.38 277.484 79.69L279.134 78.898C278.584 76.566 276.934 73.244 274.954 70.736L273.48 71.462ZM293.434 64.752V66.182H300.496V64.752H293.434ZM293.258 72.782V74.234H300.738V72.782H293.258ZM294.314 65.192V73.53H295.656V65.192H294.314ZM288.132 68.69V70.01H292.224V68.69H288.132ZM290.53 75.818C291.366 77.446 292.18 79.624 292.488 80.966L293.852 80.394C293.566 79.074 292.686 76.984 291.806 75.356L290.53 75.818ZM288.132 64.774V66.138H291.52V72.694H288.132V74.058H292.906V64.774H288.132ZM286.042 80.152L286.702 81.648C288.44 81.01 290.574 80.196 292.642 79.404L292.4 78.084C290.068 78.876 287.67 79.668 286.042 80.152ZM287.538 64.774V80.35L288.924 80.02V64.774H287.538ZM280.718 68.206V69.724H287.01V68.206H280.718ZM283.49 63.52V83.738H285.008V63.52H283.49ZM283.402 69.152C282.896 72.298 281.598 76.17 280.234 78.238C280.52 78.59 280.916 79.206 281.092 79.646C282.588 77.38 283.886 72.936 284.48 69.46L283.402 69.152ZM284.942 71.506L284.172 72.298C284.722 72.98 286.152 74.806 286.614 75.664L287.516 74.256C287.142 73.794 285.404 71.924 284.942 71.506ZM297.482 65.544V68.316C297.482 72.43 296.998 78.392 290.838 82.748C291.168 82.99 291.696 83.474 291.916 83.76C298.296 79.14 298.868 72.782 298.868 68.338V65.544H297.482ZM296.8 74.674V81.67C296.8 82.66 296.866 82.99 297.174 83.276C297.46 83.54 297.878 83.628 298.318 83.628C298.516 83.628 299.022 83.628 299.286 83.628C299.638 83.628 300.012 83.54 300.254 83.386C300.54 83.21 300.716 82.946 300.826 82.484C300.914 82.066 301.002 80.856 301.024 79.778C300.65 79.646 300.144 79.382 299.88 79.14C299.902 80.24 299.858 81.186 299.814 81.582C299.77 81.824 299.682 82.022 299.616 82.11C299.506 82.198 299.352 82.22 299.154 82.22C298.978 82.22 298.78 82.22 298.648 82.22C298.472 82.22 298.34 82.176 298.274 82.11C298.186 82.044 298.164 81.89 298.164 81.758V74.674H296.8ZM308.35 77.028V81.296C308.35 83.012 308.9 83.474 311.1 83.474C311.54 83.474 314.51 83.474 314.95 83.474C316.82 83.474 317.282 82.792 317.502 79.932C317.04 79.822 316.358 79.58 315.984 79.294C315.896 81.67 315.764 81.978 314.818 81.978C314.158 81.978 311.716 81.978 311.232 81.978C310.176 81.978 309.978 81.868 309.978 81.296V77.028H308.35ZM309.45 75.664C311.056 76.412 312.882 77.688 313.74 78.7L314.84 77.512C313.96 76.5 312.09 75.29 310.462 74.564L309.45 75.664ZM317.106 77.556C318.778 79.096 320.494 81.274 321.176 82.77L322.672 81.868C321.946 80.328 320.142 78.238 318.47 76.742L317.106 77.556ZM305.6 76.94C305.116 78.876 304.148 80.878 302.542 82.022L303.884 82.968C305.644 81.692 306.546 79.492 307.074 77.424L305.6 76.94ZM305.468 71.264V72.694H317.964V71.264H305.468ZM308.592 68.316V69.658H316.6V68.316H308.592ZM312.508 65.016C314.62 67.348 318.514 69.702 321.77 70.956C322.012 70.494 322.408 69.878 322.782 69.46C319.394 68.382 315.654 66.16 313.256 63.564H311.562C309.78 65.83 306.172 68.316 302.476 69.702C302.806 70.076 303.202 70.714 303.4 71.11C307.03 69.636 310.638 67.216 312.508 65.016ZM317.48 71.264V71.572C316.864 72.936 315.566 74.938 314.422 76.17C314.818 76.346 315.368 76.698 315.698 76.94C316.886 75.62 318.36 73.574 319.196 71.858L318.096 71.176L317.81 71.264H317.48Z" fill="white"/>
</svg>
