<svg width="406" height="228" viewBox="0 0 406 228" fill="none" xmlns="http://www.w3.org/2000/svg">
<rect width="406" height="228" fill="black"/>
<path d="M60.4664 66.237L55.5494 82H53.6354L49.6424 69.977C49.6057 69.8597 49.569 69.735 49.5324 69.603C49.503 69.471 49.47 69.3317 49.4334 69.185C49.3967 69.3317 49.36 69.471 49.3234 69.603C49.2867 69.735 49.25 69.8597 49.2134 69.977L45.1984 82H43.2844L38.3674 66.237H40.1384C40.329 66.237 40.4867 66.2847 40.6114 66.38C40.7434 66.4753 40.8277 66.5963 40.8644 66.743L44.1204 77.699C44.1717 77.897 44.2194 78.1097 44.2634 78.337C44.3147 78.5643 44.3624 78.8063 44.4064 79.063C44.4577 78.8063 44.509 78.5643 44.5604 78.337C44.619 78.1023 44.6814 77.8897 44.7474 77.699L48.4544 66.743C48.4984 66.6183 48.5827 66.5047 48.7074 66.402C48.8394 66.292 48.997 66.237 49.1804 66.237H49.7964C49.987 66.237 50.141 66.2847 50.2584 66.38C50.3757 66.4753 50.4637 66.5963 50.5224 66.743L54.2184 77.699C54.2844 77.8897 54.343 78.095 54.3944 78.315C54.453 78.535 54.508 78.766 54.5594 79.008C54.596 78.766 54.6364 78.535 54.6804 78.315C54.7244 78.095 54.772 77.8897 54.8234 77.699L58.0904 66.743C58.127 66.611 58.2077 66.4937 58.3324 66.391C58.4644 66.2883 58.622 66.237 58.8054 66.237H60.4664ZM71.6568 80.141C71.8695 80.141 72.0381 80.2033 72.1628 80.328C72.2875 80.4527 72.3498 80.614 72.3498 80.812V82H61.8338V81.329C61.8338 81.1897 61.8631 81.0467 61.9218 80.9C61.9805 80.7533 62.0721 80.6177 62.1968 80.493L67.2458 75.422C67.6638 74.9967 68.0451 74.5897 68.3898 74.201C68.7345 73.805 69.0278 73.409 69.2698 73.013C69.5118 72.617 69.6988 72.2173 69.8308 71.814C69.9628 71.4033 70.0288 70.967 70.0288 70.505C70.0288 70.043 69.9555 69.6397 69.8088 69.295C69.6621 68.943 69.4605 68.6533 69.2038 68.426C68.9545 68.1987 68.6575 68.03 68.3128 67.92C67.9681 67.8027 67.5978 67.744 67.2018 67.744C66.7985 67.744 66.4281 67.8027 66.0908 67.92C65.7535 68.0373 65.4528 68.2023 65.1888 68.415C64.9321 68.6203 64.7158 68.866 64.5398 69.152C64.3638 69.438 64.2391 69.7533 64.1658 70.098C64.0778 70.3547 63.9568 70.527 63.8028 70.615C63.6561 70.6957 63.4471 70.7177 63.1758 70.681L62.1528 70.505C62.2555 69.7863 62.4535 69.152 62.7468 68.602C63.0475 68.0447 63.4215 67.579 63.8688 67.205C64.3235 66.831 64.8405 66.5487 65.4198 66.358C65.9991 66.16 66.6261 66.061 67.3008 66.061C67.9681 66.061 68.5915 66.16 69.1708 66.358C69.7501 66.556 70.2525 66.8457 70.6778 67.227C71.1031 67.601 71.4368 68.0593 71.6788 68.602C71.9208 69.1447 72.0418 69.7607 72.0418 70.45C72.0418 71.0367 71.9538 71.583 71.7778 72.089C71.6018 72.5877 71.3635 73.0643 71.0628 73.519C70.7621 73.9737 70.4138 74.4173 70.0178 74.85C69.6291 75.2827 69.2148 75.719 68.7748 76.159L64.6168 80.405C64.9101 80.3243 65.2071 80.262 65.5078 80.218C65.8085 80.1667 66.0981 80.141 66.3768 80.141H71.6568ZM74.9365 74.575H80.3705V76.236H74.9365V74.575ZM98.3105 80.207V82H89.3675V66.237H91.4905V80.207H98.3105ZM100.085 70.505C100.188 69.7863 100.386 69.152 100.679 68.602C100.973 68.0447 101.343 67.579 101.79 67.205C102.245 66.831 102.762 66.5487 103.341 66.358C103.928 66.16 104.559 66.061 105.233 66.061C105.901 66.061 106.517 66.1563 107.081 66.347C107.646 66.5377 108.13 66.809 108.533 67.161C108.944 67.513 109.263 67.9383 109.49 68.437C109.718 68.9357 109.831 69.4893 109.831 70.098C109.831 70.5967 109.765 71.044 109.633 71.44C109.509 71.8287 109.325 72.1697 109.083 72.463C108.849 72.7563 108.563 73.0057 108.225 73.211C107.888 73.4163 107.51 73.585 107.092 73.717C108.119 73.981 108.889 74.4357 109.402 75.081C109.923 75.719 110.183 76.5183 110.183 77.479C110.183 78.205 110.044 78.8577 109.765 79.437C109.494 80.0163 109.12 80.5113 108.643 80.922C108.167 81.3253 107.609 81.637 106.971 81.857C106.341 82.0697 105.662 82.176 104.936 82.176C104.1 82.176 103.385 82.0733 102.791 81.868C102.197 81.6553 101.695 81.3657 101.284 80.999C100.874 80.6323 100.536 80.1997 100.272 79.701C100.008 79.195 99.7846 78.6487 99.6013 78.062L100.448 77.71C100.668 77.6147 100.881 77.589 101.086 77.633C101.299 77.677 101.453 77.798 101.548 77.996C101.644 78.2013 101.761 78.447 101.9 78.733C102.047 79.019 102.245 79.294 102.494 79.558C102.744 79.822 103.059 80.0457 103.44 80.229C103.829 80.4123 104.32 80.504 104.914 80.504C105.464 80.504 105.945 80.416 106.355 80.24C106.773 80.0567 107.118 79.822 107.389 79.536C107.668 79.25 107.877 78.931 108.016 78.579C108.156 78.227 108.225 77.8787 108.225 77.534C108.225 77.1087 108.17 76.72 108.06 76.368C107.95 76.016 107.745 75.7117 107.444 75.455C107.144 75.1983 106.729 74.9967 106.201 74.85C105.681 74.7033 105.01 74.63 104.188 74.63V73.211C104.863 73.2037 105.435 73.1303 105.904 72.991C106.381 72.8517 106.766 72.661 107.059 72.419C107.36 72.177 107.576 71.8873 107.708 71.55C107.848 71.2127 107.917 70.8387 107.917 70.428C107.917 69.9733 107.844 69.5773 107.697 69.24C107.558 68.9027 107.364 68.624 107.114 68.404C106.865 68.184 106.568 68.019 106.223 67.909C105.886 67.799 105.519 67.744 105.123 67.744C104.727 67.744 104.357 67.8027 104.012 67.92C103.675 68.0373 103.374 68.2023 103.11 68.415C102.854 68.6203 102.637 68.866 102.461 69.152C102.285 69.438 102.161 69.7533 102.087 70.098C101.992 70.3547 101.871 70.527 101.724 70.615C101.585 70.6957 101.38 70.7177 101.108 70.681L100.085 70.505ZM112.638 80.79C112.638 80.5993 112.671 80.4197 112.737 80.251C112.81 80.0823 112.906 79.9357 113.023 79.811C113.148 79.6863 113.294 79.5873 113.463 79.514C113.632 79.4407 113.811 79.404 114.002 79.404C114.193 79.404 114.372 79.4407 114.541 79.514C114.71 79.5873 114.856 79.6863 114.981 79.811C115.106 79.9357 115.205 80.0823 115.278 80.251C115.351 80.4197 115.388 80.5993 115.388 80.79C115.388 80.988 115.351 81.1713 115.278 81.34C115.205 81.5013 115.106 81.6443 114.981 81.769C114.856 81.8937 114.71 81.989 114.541 82.055C114.372 82.1283 114.193 82.165 114.002 82.165C113.811 82.165 113.632 82.1283 113.463 82.055C113.294 81.989 113.148 81.8937 113.023 81.769C112.906 81.6443 112.81 81.5013 112.737 81.34C112.671 81.1713 112.638 80.988 112.638 80.79ZM127.814 80.504V82H119.366V80.504H122.743V69.757C122.743 69.4343 122.754 69.108 122.776 68.778L119.971 71.187C119.876 71.2677 119.781 71.319 119.685 71.341C119.59 71.3557 119.502 71.3557 119.421 71.341C119.341 71.3263 119.264 71.297 119.19 71.253C119.124 71.209 119.073 71.1613 119.036 71.11L118.42 70.263L123.117 66.204H124.712V80.504H127.814ZM147.591 79.976V81.538H154.477V79.976H147.591ZM146.689 65.896V83.21H148.273V67.48H153.685V82.88H155.313V65.896H146.689ZM135.953 68.03V69.614H144.137V68.03H135.953ZM139.693 63.52C138.835 67.722 137.383 73.662 136.327 77.05L137.735 77.732C138.835 74.08 140.331 68.118 141.299 63.718L139.693 63.52ZM137.097 76.214C139.935 77.754 143.301 80.174 144.841 82L145.809 80.592C144.247 78.788 140.859 76.478 137.999 75.004L137.097 76.214ZM143.675 68.03V68.382C143.059 76.192 140.441 80.592 136.261 82.418C136.613 82.77 137.053 83.386 137.273 83.782C141.849 81.494 144.577 77.05 145.259 68.184L144.247 67.986L143.939 68.03H143.675ZM164.465 65.676V67.26H178.171V65.676H164.465ZM174.915 66.248V81.494C174.915 81.934 174.783 82.044 174.321 82.066C173.815 82.088 172.209 82.11 170.449 82.044C170.691 82.528 170.955 83.276 171.043 83.738C173.199 83.76 174.651 83.716 175.465 83.452C176.257 83.166 176.565 82.682 176.565 81.494V66.248H174.915ZM165.125 70.362V79.514H166.665V70.362H165.125ZM165.829 70.362V71.836H170.471V76.5H165.829V77.974H172.033V70.362H165.829ZM162.859 63.542C161.715 66.842 159.845 70.12 157.821 72.232C158.107 72.606 158.591 73.486 158.745 73.86C160.989 71.418 163.101 67.7 164.421 64.026L162.859 63.542ZM160.791 69.284V83.738H162.441V67.7L162.419 67.678L160.791 69.284ZM186.047 65.962V67.502H200.171V65.962H186.047ZM188.225 71.044H197.839V74.344H188.225V71.044ZM186.707 69.636V75.752H199.445V69.636H186.707ZM188.071 76.192L186.707 76.654C189.039 80.68 193.549 82.968 199.379 83.804C199.599 83.342 200.017 82.682 200.369 82.33C194.649 81.692 190.139 79.646 188.071 76.192ZM192.163 63.608V73.332C192.163 77.05 191.789 80.812 185.255 82.462C185.585 82.814 186.047 83.474 186.245 83.848C193.065 81.824 193.791 77.6 193.791 73.354V63.608H192.163ZM185.101 63.476C183.825 66.82 181.669 70.098 179.447 72.188C179.755 72.584 180.217 73.442 180.371 73.816C182.813 71.374 185.167 67.678 186.663 63.96L185.101 63.476ZM182.791 69.24V83.87H184.375V67.7L184.353 67.678L182.791 69.24ZM205.297 65.082V66.666H219.531V65.082H205.297ZM205.297 70.208V71.77H219.509V70.208H205.297ZM205.187 75.466V77.028H219.553V75.466H205.187ZM204.373 65.082V73.046C204.373 76.148 204.131 80.064 201.711 82.792C202.063 83.012 202.723 83.562 202.987 83.892C205.605 80.966 206.001 76.412 206.001 73.068V65.082H204.373ZM218.871 65.082V81.516C218.871 81.934 218.717 82.066 218.299 82.088C217.881 82.088 216.385 82.11 214.823 82.044C215.065 82.484 215.329 83.21 215.395 83.65C217.485 83.672 218.761 83.65 219.509 83.386C220.235 83.1 220.499 82.594 220.499 81.516V65.082H218.871ZM211.281 65.676V83.562H212.953V65.676H211.281ZM226.626 70.857V82.825C226.626 83.2723 226.567 83.6867 226.45 84.068C226.333 84.4567 226.146 84.794 225.889 85.08C225.632 85.366 225.302 85.5897 224.899 85.751C224.503 85.9197 224.026 86.004 223.469 86.004C223.234 86.004 223.018 85.9857 222.82 85.949C222.622 85.9123 222.424 85.8573 222.226 85.784L222.303 84.728C222.318 84.662 222.343 84.6107 222.38 84.574C222.409 84.5447 222.453 84.5263 222.512 84.519C222.571 84.5117 222.648 84.508 222.743 84.508C222.831 84.5153 222.945 84.519 223.084 84.519C223.656 84.519 224.063 84.3833 224.305 84.112C224.547 83.848 224.668 83.419 224.668 82.825V70.857H226.626ZM227.033 67.359C227.033 67.5497 226.993 67.7293 226.912 67.898C226.839 68.0593 226.736 68.206 226.604 68.338C226.479 68.4627 226.333 68.5617 226.164 68.635C225.995 68.7083 225.816 68.745 225.625 68.745C225.434 68.745 225.255 68.7083 225.086 68.635C224.925 68.5617 224.782 68.4627 224.657 68.338C224.532 68.206 224.433 68.0593 224.36 67.898C224.287 67.7293 224.25 67.5497 224.25 67.359C224.25 67.1683 224.287 66.9887 224.36 66.82C224.433 66.644 224.532 66.4937 224.657 66.369C224.782 66.237 224.925 66.1343 225.086 66.061C225.255 65.9877 225.434 65.951 225.625 65.951C225.816 65.951 225.995 65.9877 226.164 66.061C226.333 66.1343 226.479 66.237 226.604 66.369C226.736 66.4937 226.839 66.644 226.912 66.82C226.993 66.9887 227.033 67.1683 227.033 67.359ZM236.333 72.694C236.245 72.8553 236.109 72.936 235.926 72.936C235.816 72.936 235.691 72.8957 235.552 72.815C235.413 72.7343 235.24 72.6463 235.035 72.551C234.837 72.4483 234.599 72.3567 234.32 72.276C234.041 72.188 233.711 72.144 233.33 72.144C233 72.144 232.703 72.188 232.439 72.276C232.175 72.3567 231.948 72.4703 231.757 72.617C231.574 72.7637 231.431 72.936 231.328 73.134C231.233 73.3247 231.185 73.5337 231.185 73.761C231.185 74.047 231.266 74.2853 231.427 74.476C231.596 74.6667 231.816 74.8317 232.087 74.971C232.358 75.1103 232.666 75.235 233.011 75.345C233.356 75.4477 233.708 75.5613 234.067 75.686C234.434 75.8033 234.789 75.9353 235.134 76.082C235.479 76.2287 235.787 76.412 236.058 76.632C236.329 76.852 236.546 77.1233 236.707 77.446C236.876 77.7613 236.96 78.1427 236.96 78.59C236.96 79.1033 236.868 79.58 236.685 80.02C236.502 80.4527 236.23 80.8303 235.871 81.153C235.512 81.4683 235.072 81.7177 234.551 81.901C234.03 82.0843 233.429 82.176 232.747 82.176C231.97 82.176 231.266 82.0513 230.635 81.802C230.004 81.5453 229.469 81.219 229.029 80.823L229.491 80.075C229.55 79.9797 229.619 79.9063 229.7 79.855C229.781 79.8037 229.883 79.778 230.008 79.778C230.14 79.778 230.279 79.8293 230.426 79.932C230.573 80.0347 230.749 80.1483 230.954 80.273C231.167 80.3977 231.423 80.5113 231.724 80.614C232.025 80.7167 232.399 80.768 232.846 80.768C233.227 80.768 233.561 80.7203 233.847 80.625C234.133 80.5223 234.371 80.3867 234.562 80.218C234.753 80.0493 234.892 79.855 234.98 79.635C235.075 79.415 235.123 79.1803 235.123 78.931C235.123 78.623 235.039 78.37 234.87 78.172C234.709 77.9667 234.492 77.7943 234.221 77.655C233.95 77.5083 233.638 77.3837 233.286 77.281C232.941 77.171 232.586 77.0573 232.219 76.94C231.86 76.8227 231.504 76.6907 231.152 76.544C230.807 76.39 230.499 76.1993 230.228 75.972C229.957 75.7447 229.737 75.466 229.568 75.136C229.407 74.7987 229.326 74.3917 229.326 73.915C229.326 73.4897 229.414 73.0827 229.59 72.694C229.766 72.298 230.023 71.9533 230.36 71.66C230.697 71.3593 231.112 71.121 231.603 70.945C232.094 70.769 232.655 70.681 233.286 70.681C234.019 70.681 234.676 70.7983 235.255 71.033C235.842 71.2603 236.348 71.5757 236.773 71.979L236.333 72.694ZM239.185 74.575H244.619V76.236H239.185V74.575ZM254.015 72.694C253.927 72.8553 253.791 72.936 253.608 72.936C253.498 72.936 253.373 72.8957 253.234 72.815C253.094 72.7343 252.922 72.6463 252.717 72.551C252.519 72.4483 252.28 72.3567 252.002 72.276C251.723 72.188 251.393 72.144 251.012 72.144C250.682 72.144 250.385 72.188 250.121 72.276C249.857 72.3567 249.629 72.4703 249.439 72.617C249.255 72.7637 249.112 72.936 249.01 73.134C248.914 73.3247 248.867 73.5337 248.867 73.761C248.867 74.047 248.947 74.2853 249.109 74.476C249.277 74.6667 249.497 74.8317 249.769 74.971C250.04 75.1103 250.348 75.235 250.693 75.345C251.037 75.4477 251.389 75.5613 251.749 75.686C252.115 75.8033 252.471 75.9353 252.816 76.082C253.16 76.2287 253.468 76.412 253.74 76.632C254.011 76.852 254.227 77.1233 254.389 77.446C254.557 77.7613 254.642 78.1427 254.642 78.59C254.642 79.1033 254.55 79.58 254.367 80.02C254.183 80.4527 253.912 80.8303 253.553 81.153C253.193 81.4683 252.753 81.7177 252.233 81.901C251.712 82.0843 251.111 82.176 250.429 82.176C249.651 82.176 248.947 82.0513 248.317 81.802C247.686 81.5453 247.151 81.219 246.711 80.823L247.173 80.075C247.231 79.9797 247.301 79.9063 247.382 79.855C247.462 79.8037 247.565 79.778 247.69 79.778C247.822 79.778 247.961 79.8293 248.108 79.932C248.254 80.0347 248.43 80.1483 248.636 80.273C248.848 80.3977 249.105 80.5113 249.406 80.614C249.706 80.7167 250.08 80.768 250.528 80.768C250.909 80.768 251.243 80.7203 251.529 80.625C251.815 80.5223 252.053 80.3867 252.244 80.218C252.434 80.0493 252.574 79.855 252.662 79.635C252.757 79.415 252.805 79.1803 252.805 78.931C252.805 78.623 252.72 78.37 252.552 78.172C252.39 77.9667 252.174 77.7943 251.903 77.655C251.631 77.5083 251.32 77.3837 250.968 77.281C250.623 77.171 250.267 77.0573 249.901 76.94C249.541 76.8227 249.186 76.6907 248.834 76.544C248.489 76.39 248.181 76.1993 247.91 75.972C247.638 75.7447 247.418 75.466 247.25 75.136C247.088 74.7987 247.008 74.3917 247.008 73.915C247.008 73.4897 247.096 73.0827 247.272 72.694C247.448 72.298 247.704 71.9533 248.042 71.66C248.379 71.3593 248.793 71.121 249.285 70.945C249.776 70.769 250.337 70.681 250.968 70.681C251.701 70.681 252.357 70.7983 252.937 71.033C253.523 71.2603 254.029 71.5757 254.455 71.979L254.015 72.694ZM264.302 73.508C263.936 73.0167 263.54 72.6757 263.114 72.485C262.689 72.287 262.212 72.188 261.684 72.188C260.65 72.188 259.855 72.5583 259.297 73.299C258.74 74.0397 258.461 75.0957 258.461 76.467C258.461 77.193 258.524 77.8163 258.648 78.337C258.773 78.8503 258.956 79.2757 259.198 79.613C259.44 79.943 259.737 80.185 260.089 80.339C260.441 80.493 260.841 80.57 261.288 80.57C261.934 80.57 262.495 80.4233 262.971 80.13C263.455 79.8367 263.899 79.4223 264.302 78.887V73.508ZM266.26 65.797V82H265.094C264.816 82 264.64 81.8643 264.566 81.593L264.39 80.24C263.914 80.812 263.371 81.274 262.762 81.626C262.154 81.978 261.45 82.154 260.65 82.154C260.012 82.154 259.433 82.033 258.912 81.791C258.392 81.5417 257.948 81.1787 257.581 80.702C257.215 80.2253 256.932 79.6313 256.734 78.92C256.536 78.2087 256.437 77.391 256.437 76.467C256.437 75.6457 256.547 74.883 256.767 74.179C256.987 73.4677 257.303 72.8517 257.713 72.331C258.124 71.8103 258.626 71.4033 259.22 71.11C259.822 70.8093 260.496 70.659 261.244 70.659C261.926 70.659 262.509 70.7763 262.993 71.011C263.485 71.2383 263.921 71.5573 264.302 71.968V65.797H266.26ZM271.322 65.797V75.334H271.828C271.974 75.334 272.095 75.3157 272.191 75.279C272.293 75.235 272.4 75.1507 272.51 75.026L276.03 71.253C276.132 71.1283 276.239 71.033 276.349 70.967C276.466 70.8937 276.62 70.857 276.811 70.857H278.582L274.479 75.224C274.281 75.4733 274.068 75.6677 273.841 75.807C273.973 75.895 274.09 75.9977 274.193 76.115C274.303 76.225 274.405 76.3533 274.501 76.5L278.857 82H277.108C276.939 82 276.792 81.9743 276.668 81.923C276.55 81.8643 276.448 81.7617 276.36 81.615L272.697 77.05C272.587 76.896 272.477 76.797 272.367 76.753C272.264 76.7017 272.103 76.676 271.883 76.676H271.322V82H269.353V65.797H271.322ZM287.906 73.09L286.498 73.53C288.742 78.942 292.9 82.462 299.148 83.826C299.368 83.386 299.83 82.704 300.182 82.374C294.066 81.186 289.886 77.908 287.906 73.09ZM295.76 72.474V72.76C294.11 78.062 289.38 81.142 284.232 82.396C284.562 82.748 284.958 83.386 285.134 83.804C290.634 82.308 295.54 79.096 297.542 72.914L296.42 72.408L296.09 72.474H295.76ZM287.422 72.474L286.96 74.058H296.024V72.474H287.422ZM288.94 63.454C287.972 71.286 285.464 77.226 279.634 80.746C280.03 81.054 280.624 81.67 280.866 82.022C287.07 78.216 289.644 72.078 290.766 63.74L288.94 63.454ZM293.758 64.62C294.726 65.654 295.958 67.062 296.574 67.898L297.894 66.996C297.278 66.182 296.002 64.818 295.056 63.85L293.758 64.62ZM282.142 70.494C282.142 70.098 283.462 69.548 283.462 69.548V69.526C284.21 68.294 285.09 66.336 285.64 64.466L283.858 64.158C283.506 65.852 282.648 67.612 282.406 68.074C282.142 68.558 281.878 68.866 281.592 68.954C281.768 69.35 282.032 70.142 282.142 70.494ZM282.142 70.494C282.362 70.252 283.088 70.12 284.474 70.12H299.434V68.536H283.242L282.142 69.196V70.494ZM307.97 72.254V73.772H321.852V72.254H307.97ZM308.674 67.722V69.196H321.192V67.722H308.674ZM313.866 68.404V71.682C313.866 73.948 313.47 77.182 308.124 79.338C308.498 79.624 309.004 80.196 309.224 80.548C314.768 78.062 315.516 74.454 315.516 71.704V68.404H313.866ZM315.978 73.222L314.548 73.53C315.516 77.116 317.518 79.492 320.84 80.658C321.06 80.218 321.522 79.58 321.896 79.25C318.75 78.348 316.814 76.302 315.978 73.222ZM306.716 72.21H302.03V73.75H305.11V79.998H306.716V72.21ZM306.716 79.272H305.22C304.098 80.218 302.8 81.186 301.744 81.89L302.624 83.584C303.812 82.616 304.934 81.67 305.99 80.724C307.398 82.462 309.378 83.232 312.238 83.342C314.68 83.43 319.234 83.386 321.654 83.298C321.72 82.792 322.006 82 322.182 81.604C319.586 81.78 314.636 81.846 312.238 81.758C309.708 81.648 307.75 80.9 306.716 79.272ZM302.272 65.06C303.702 66.028 305.352 67.524 306.056 68.58L307.354 67.502C306.606 66.424 304.934 64.994 303.482 64.07L302.272 65.06ZM318.31 63.52C317.848 64.642 316.946 66.226 316.264 67.216L317.606 67.722C318.332 66.798 319.234 65.346 319.982 64.092L318.31 63.52ZM309.532 64.18C310.39 65.28 311.204 66.798 311.49 67.788L312.986 67.128C312.678 66.116 311.82 64.664 310.94 63.608L309.532 64.18ZM337.142 72.474C335.118 78.04 330.498 80.9 323.832 82.286C324.184 82.682 324.712 83.43 324.888 83.848C331.642 82.154 336.482 79.096 338.902 72.958L337.142 72.474ZM329.97 68.69C328.628 70.56 326.296 72.386 324.14 73.53C324.558 73.838 325.196 74.498 325.482 74.85C327.616 73.508 330.08 71.44 331.642 69.328L329.97 68.69ZM330.85 72.584L329.288 73.068C331.642 78.92 336.064 82.44 343.082 83.782C343.324 83.32 343.808 82.572 344.182 82.198C337.362 81.076 332.896 77.798 330.85 72.584ZM324.316 66.402V68.008H343.632V66.402H324.316ZM333.072 63.498V67.436H334.766V63.498H333.072ZM336.548 69.614C338.66 71.044 341.212 73.178 342.4 74.63L343.83 73.486C342.576 72.034 339.98 69.988 337.912 68.602L336.548 69.614ZM350.672 69.416H361.54V71.594H350.672V69.416ZM350.672 65.918H361.54V68.096H350.672V65.918ZM349.044 64.554V72.98H363.212V64.554H349.044ZM350.276 74.872V76.346H363.476V74.872H350.276ZM363.058 74.872V75.136C362.684 79.822 362.266 81.692 361.738 82.176C361.54 82.396 361.32 82.418 360.946 82.418C360.55 82.418 359.516 82.418 358.438 82.308C358.702 82.704 358.856 83.32 358.9 83.738C360 83.804 361.056 83.826 361.628 83.76C362.266 83.738 362.706 83.584 363.124 83.166C363.806 82.462 364.224 80.548 364.642 75.598C364.686 75.378 364.73 74.872 364.73 74.872H363.058ZM351.948 72.298C350.562 74.586 348.23 76.72 345.81 78.062C346.206 78.326 346.844 78.942 347.108 79.25C349.462 77.732 351.948 75.378 353.532 72.804L351.948 72.298ZM354.346 75.312C352.894 78.106 350.408 80.614 347.68 82.132C348.054 82.418 348.692 83.012 348.956 83.32C351.618 81.582 354.28 78.898 355.908 75.796L354.346 75.312ZM358.9 75.422C357.888 78.458 356.062 81.164 353.796 82.858C354.17 83.1 354.83 83.606 355.116 83.892C357.36 82.022 359.318 79.14 360.462 75.796L358.9 75.422Z" fill="white"/>
</svg>
