<svg width="406" height="228" viewBox="0 0 406 228" fill="none" xmlns="http://www.w3.org/2000/svg">
<rect width="406" height="228" fill="black"/>
<path d="M79.6519 66.237L74.7349 82H72.8209L68.8279 69.977C68.7912 69.8597 68.7546 69.735 68.7179 69.603C68.6886 69.471 68.6556 69.3317 68.6189 69.185C68.5822 69.3317 68.5456 69.471 68.5089 69.603C68.4722 69.735 68.4356 69.8597 68.3989 69.977L64.3839 82H62.4699L57.5529 66.237H59.3239C59.5146 66.237 59.6722 66.2847 59.7969 66.38C59.9289 66.4753 60.0132 66.5963 60.0499 66.743L63.3059 77.699C63.3572 77.897 63.4049 78.1097 63.4489 78.337C63.5002 78.5643 63.5479 78.8063 63.5919 79.063C63.6432 78.8063 63.6946 78.5643 63.7459 78.337C63.8046 78.1023 63.8669 77.8897 63.9329 77.699L67.6399 66.743C67.6839 66.6183 67.7682 66.5047 67.8929 66.402C68.0249 66.292 68.1826 66.237 68.3659 66.237H68.9819C69.1726 66.237 69.3266 66.2847 69.4439 66.38C69.5612 66.4753 69.6492 66.5963 69.7079 66.743L73.4039 77.699C73.4699 77.8897 73.5286 78.095 73.5799 78.315C73.6386 78.535 73.6936 78.766 73.7449 79.008C73.7816 78.766 73.8219 78.535 73.8659 78.315C73.9099 78.095 73.9576 77.8897 74.0089 77.699L77.2759 66.743C77.3126 66.611 77.3932 66.4937 77.5179 66.391C77.6499 66.2883 77.8076 66.237 77.9909 66.237H79.6519ZM90.8424 80.141C91.055 80.141 91.2237 80.2033 91.3484 80.328C91.473 80.4527 91.5354 80.614 91.5354 80.812V82H81.0194V81.329C81.0194 81.1897 81.0487 81.0467 81.1074 80.9C81.166 80.7533 81.2577 80.6177 81.3824 80.493L86.4314 75.422C86.8494 74.9967 87.2307 74.5897 87.5754 74.201C87.92 73.805 88.2134 73.409 88.4554 73.013C88.6974 72.617 88.8844 72.2173 89.0164 71.814C89.1484 71.4033 89.2144 70.967 89.2144 70.505C89.2144 70.043 89.141 69.6397 88.9944 69.295C88.8477 68.943 88.646 68.6533 88.3894 68.426C88.14 68.1987 87.843 68.03 87.4984 67.92C87.1537 67.8027 86.7834 67.744 86.3874 67.744C85.984 67.744 85.6137 67.8027 85.2764 67.92C84.939 68.0373 84.6384 68.2023 84.3744 68.415C84.1177 68.6203 83.9014 68.866 83.7254 69.152C83.5494 69.438 83.4247 69.7533 83.3514 70.098C83.2634 70.3547 83.1424 70.527 82.9884 70.615C82.8417 70.6957 82.6327 70.7177 82.3614 70.681L81.3384 70.505C81.441 69.7863 81.639 69.152 81.9324 68.602C82.233 68.0447 82.607 67.579 83.0544 67.205C83.509 66.831 84.026 66.5487 84.6054 66.358C85.1847 66.16 85.8117 66.061 86.4864 66.061C87.1537 66.061 87.777 66.16 88.3564 66.358C88.9357 66.556 89.438 66.8457 89.8634 67.227C90.2887 67.601 90.6224 68.0593 90.8644 68.602C91.1064 69.1447 91.2274 69.7607 91.2274 70.45C91.2274 71.0367 91.1394 71.583 90.9634 72.089C90.7874 72.5877 90.549 73.0643 90.2484 73.519C89.9477 73.9737 89.5994 74.4173 89.2034 74.85C88.8147 75.2827 88.4004 75.719 87.9604 76.159L83.8024 80.405C84.0957 80.3243 84.3927 80.262 84.6934 80.218C84.994 80.1667 85.2837 80.141 85.5624 80.141H90.8424ZM99.751 74.575H105.185V76.236H99.751V74.575ZM123.125 80.207V82H114.182V66.237H116.305V80.207H123.125ZM124.9 70.505C125.002 69.7863 125.2 69.152 125.494 68.602C125.787 68.0447 126.157 67.579 126.605 67.205C127.059 66.831 127.576 66.5487 128.156 66.358C128.742 66.16 129.373 66.061 130.048 66.061C130.715 66.061 131.331 66.1563 131.896 66.347C132.46 66.5377 132.944 66.809 133.348 67.161C133.758 67.513 134.077 67.9383 134.305 68.437C134.532 68.9357 134.646 69.4893 134.646 70.098C134.646 70.5967 134.58 71.044 134.448 71.44C134.323 71.8287 134.14 72.1697 133.898 72.463C133.663 72.7563 133.377 73.0057 133.04 73.211C132.702 73.4163 132.325 73.585 131.907 73.717C132.933 73.981 133.703 74.4357 134.217 75.081C134.737 75.719 134.998 76.5183 134.998 77.479C134.998 78.205 134.858 78.8577 134.58 79.437C134.308 80.0163 133.934 80.5113 133.458 80.922C132.981 81.3253 132.424 81.637 131.786 81.857C131.155 82.0697 130.477 82.176 129.751 82.176C128.915 82.176 128.2 82.0733 127.606 81.868C127.012 81.6553 126.509 81.3657 126.099 80.999C125.688 80.6323 125.351 80.1997 125.087 79.701C124.823 79.195 124.599 78.6487 124.416 78.062L125.263 77.71C125.483 77.6147 125.695 77.589 125.901 77.633C126.113 77.677 126.267 77.798 126.363 77.996C126.458 78.2013 126.575 78.447 126.715 78.733C126.861 79.019 127.059 79.294 127.309 79.558C127.558 79.822 127.873 80.0457 128.255 80.229C128.643 80.4123 129.135 80.504 129.729 80.504C130.279 80.504 130.759 80.416 131.17 80.24C131.588 80.0567 131.932 79.822 132.204 79.536C132.482 79.25 132.691 78.931 132.831 78.579C132.97 78.227 133.04 77.8787 133.04 77.534C133.04 77.1087 132.985 76.72 132.875 76.368C132.765 76.016 132.559 75.7117 132.259 75.455C131.958 75.1983 131.544 74.9967 131.016 74.85C130.495 74.7033 129.824 74.63 129.003 74.63V73.211C129.677 73.2037 130.249 73.1303 130.719 72.991C131.195 72.8517 131.58 72.661 131.874 72.419C132.174 72.177 132.391 71.8873 132.523 71.55C132.662 71.2127 132.732 70.8387 132.732 70.428C132.732 69.9733 132.658 69.5773 132.512 69.24C132.372 68.9027 132.178 68.624 131.929 68.404C131.679 68.184 131.382 68.019 131.038 67.909C130.7 67.799 130.334 67.744 129.938 67.744C129.542 67.744 129.171 67.8027 128.827 67.92C128.489 68.0373 128.189 68.2023 127.925 68.415C127.668 68.6203 127.452 68.866 127.276 69.152C127.1 69.438 126.975 69.7533 126.902 70.098C126.806 70.3547 126.685 70.527 126.539 70.615C126.399 70.6957 126.194 70.7177 125.923 70.681L124.9 70.505ZM137.452 80.79C137.452 80.5993 137.485 80.4197 137.551 80.251C137.625 80.0823 137.72 79.9357 137.837 79.811C137.962 79.6863 138.109 79.5873 138.277 79.514C138.446 79.4407 138.626 79.404 138.816 79.404C139.007 79.404 139.187 79.4407 139.355 79.514C139.524 79.5873 139.671 79.6863 139.795 79.811C139.92 79.9357 140.019 80.0823 140.092 80.251C140.166 80.4197 140.202 80.5993 140.202 80.79C140.202 80.988 140.166 81.1713 140.092 81.34C140.019 81.5013 139.92 81.6443 139.795 81.769C139.671 81.8937 139.524 81.989 139.355 82.055C139.187 82.1283 139.007 82.165 138.816 82.165C138.626 82.165 138.446 82.1283 138.277 82.055C138.109 81.989 137.962 81.8937 137.837 81.769C137.72 81.6443 137.625 81.5013 137.551 81.34C137.485 81.1713 137.452 80.988 137.452 80.79ZM152.288 80.141C152.5 80.141 152.669 80.2033 152.794 80.328C152.918 80.4527 152.981 80.614 152.981 80.812V82H142.465V81.329C142.465 81.1897 142.494 81.0467 142.553 80.9C142.611 80.7533 142.703 80.6177 142.828 80.493L147.877 75.422C148.295 74.9967 148.676 74.5897 149.021 74.201C149.365 73.805 149.659 73.409 149.901 73.013C150.143 72.617 150.33 72.2173 150.462 71.814C150.594 71.4033 150.66 70.967 150.66 70.505C150.66 70.043 150.586 69.6397 150.44 69.295C150.293 68.943 150.091 68.6533 149.835 68.426C149.585 68.1987 149.288 68.03 148.944 67.92C148.599 67.8027 148.229 67.744 147.833 67.744C147.429 67.744 147.059 67.8027 146.722 67.92C146.384 68.0373 146.084 68.2023 145.82 68.415C145.563 68.6203 145.347 68.866 145.171 69.152C144.995 69.438 144.87 69.7533 144.797 70.098C144.709 70.3547 144.588 70.527 144.434 70.615C144.287 70.6957 144.078 70.7177 143.807 70.681L142.784 70.505C142.886 69.7863 143.084 69.152 143.378 68.602C143.678 68.0447 144.052 67.579 144.5 67.205C144.954 66.831 145.471 66.5487 146.051 66.358C146.63 66.16 147.257 66.061 147.932 66.061C148.599 66.061 149.222 66.16 149.802 66.358C150.381 66.556 150.883 66.8457 151.309 67.227C151.734 67.601 152.068 68.0593 152.31 68.602C152.552 69.1447 152.673 69.7607 152.673 70.45C152.673 71.0367 152.585 71.583 152.409 72.089C152.233 72.5877 151.994 73.0643 151.694 73.519C151.393 73.9737 151.045 74.4173 150.649 74.85C150.26 75.2827 149.846 75.719 149.406 76.159L145.248 80.405C145.541 80.3243 145.838 80.262 146.139 80.218C146.439 80.1667 146.729 80.141 147.008 80.141H152.288ZM163.44 70.857V82.825C163.44 83.2723 163.382 83.6867 163.264 84.068C163.147 84.4567 162.96 84.794 162.703 85.08C162.447 85.366 162.117 85.5897 161.713 85.751C161.317 85.9197 160.841 86.004 160.283 86.004C160.049 86.004 159.832 85.9857 159.634 85.949C159.436 85.9123 159.238 85.8573 159.04 85.784L159.117 84.728C159.132 84.662 159.158 84.6107 159.194 84.574C159.224 84.5447 159.268 84.5263 159.326 84.519C159.385 84.5117 159.462 84.508 159.557 84.508C159.645 84.5153 159.759 84.519 159.898 84.519C160.47 84.519 160.877 84.3833 161.119 84.112C161.361 83.848 161.482 83.419 161.482 82.825V70.857H163.44ZM163.847 67.359C163.847 67.5497 163.807 67.7293 163.726 67.898C163.653 68.0593 163.55 68.206 163.418 68.338C163.294 68.4627 163.147 68.5617 162.978 68.635C162.81 68.7083 162.63 68.745 162.439 68.745C162.249 68.745 162.069 68.7083 161.9 68.635C161.739 68.5617 161.596 68.4627 161.471 68.338C161.347 68.206 161.248 68.0593 161.174 67.898C161.101 67.7293 161.064 67.5497 161.064 67.359C161.064 67.1683 161.101 66.9887 161.174 66.82C161.248 66.644 161.347 66.4937 161.471 66.369C161.596 66.237 161.739 66.1343 161.9 66.061C162.069 65.9877 162.249 65.951 162.439 65.951C162.63 65.951 162.81 65.9877 162.978 66.061C163.147 66.1343 163.294 66.237 163.418 66.369C163.55 66.4937 163.653 66.644 163.726 66.82C163.807 66.9887 163.847 67.1683 163.847 67.359ZM173.147 72.694C173.059 72.8553 172.924 72.936 172.74 72.936C172.63 72.936 172.506 72.8957 172.366 72.815C172.227 72.7343 172.055 72.6463 171.849 72.551C171.651 72.4483 171.413 72.3567 171.134 72.276C170.856 72.188 170.526 72.144 170.144 72.144C169.814 72.144 169.517 72.188 169.253 72.276C168.989 72.3567 168.762 72.4703 168.571 72.617C168.388 72.7637 168.245 72.936 168.142 73.134C168.047 73.3247 167.999 73.5337 167.999 73.761C167.999 74.047 168.08 74.2853 168.241 74.476C168.41 74.6667 168.63 74.8317 168.901 74.971C169.173 75.1103 169.481 75.235 169.825 75.345C170.17 75.4477 170.522 75.5613 170.881 75.686C171.248 75.8033 171.604 75.9353 171.948 76.082C172.293 76.2287 172.601 76.412 172.872 76.632C173.144 76.852 173.36 77.1233 173.521 77.446C173.69 77.7613 173.774 78.1427 173.774 78.59C173.774 79.1033 173.683 79.58 173.499 80.02C173.316 80.4527 173.045 80.8303 172.685 81.153C172.326 81.4683 171.886 81.7177 171.365 81.901C170.845 82.0843 170.243 82.176 169.561 82.176C168.784 82.176 168.08 82.0513 167.449 81.802C166.819 81.5453 166.283 81.219 165.843 80.823L166.305 80.075C166.364 79.9797 166.434 79.9063 166.514 79.855C166.595 79.8037 166.698 79.778 166.822 79.778C166.954 79.778 167.094 79.8293 167.24 79.932C167.387 80.0347 167.563 80.1483 167.768 80.273C167.981 80.3977 168.238 80.5113 168.538 80.614C168.839 80.7167 169.213 80.768 169.66 80.768C170.042 80.768 170.375 80.7203 170.661 80.625C170.947 80.5223 171.186 80.3867 171.376 80.218C171.567 80.0493 171.706 79.855 171.794 79.635C171.89 79.415 171.937 79.1803 171.937 78.931C171.937 78.623 171.853 78.37 171.684 78.172C171.523 77.9667 171.307 77.7943 171.035 77.655C170.764 77.5083 170.452 77.3837 170.1 77.281C169.756 77.171 169.4 77.0573 169.033 76.94C168.674 76.8227 168.318 76.6907 167.966 76.544C167.622 76.39 167.314 76.1993 167.042 75.972C166.771 75.7447 166.551 75.466 166.382 75.136C166.221 74.7987 166.14 74.3917 166.14 73.915C166.14 73.4897 166.228 73.0827 166.404 72.694C166.58 72.298 166.837 71.9533 167.174 71.66C167.512 71.3593 167.926 71.121 168.417 70.945C168.909 70.769 169.47 70.681 170.1 70.681C170.834 70.681 171.49 70.7983 172.069 71.033C172.656 71.2603 173.162 71.5757 173.587 71.979L173.147 72.694ZM175.999 74.575H181.433V76.236H175.999V74.575ZM190.829 72.694C190.741 72.8553 190.605 72.936 190.422 72.936C190.312 72.936 190.187 72.8957 190.048 72.815C189.909 72.7343 189.736 72.6463 189.531 72.551C189.333 72.4483 189.095 72.3567 188.816 72.276C188.537 72.188 188.207 72.144 187.826 72.144C187.496 72.144 187.199 72.188 186.935 72.276C186.671 72.3567 186.444 72.4703 186.253 72.617C186.07 72.7637 185.927 72.936 185.824 73.134C185.729 73.3247 185.681 73.5337 185.681 73.761C185.681 74.047 185.762 74.2853 185.923 74.476C186.092 74.6667 186.312 74.8317 186.583 74.971C186.854 75.1103 187.162 75.235 187.507 75.345C187.852 75.4477 188.204 75.5613 188.563 75.686C188.93 75.8033 189.285 75.9353 189.63 76.082C189.975 76.2287 190.283 76.412 190.554 76.632C190.825 76.852 191.042 77.1233 191.203 77.446C191.372 77.7613 191.456 78.1427 191.456 78.59C191.456 79.1033 191.364 79.58 191.181 80.02C190.998 80.4527 190.726 80.8303 190.367 81.153C190.008 81.4683 189.568 81.7177 189.047 81.901C188.526 82.0843 187.925 82.176 187.243 82.176C186.466 82.176 185.762 82.0513 185.131 81.802C184.5 81.5453 183.965 81.219 183.525 80.823L183.987 80.075C184.046 79.9797 184.115 79.9063 184.196 79.855C184.277 79.8037 184.379 79.778 184.504 79.778C184.636 79.778 184.775 79.8293 184.922 79.932C185.069 80.0347 185.245 80.1483 185.45 80.273C185.663 80.3977 185.919 80.5113 186.22 80.614C186.521 80.7167 186.895 80.768 187.342 80.768C187.723 80.768 188.057 80.7203 188.343 80.625C188.629 80.5223 188.867 80.3867 189.058 80.218C189.249 80.0493 189.388 79.855 189.476 79.635C189.571 79.415 189.619 79.1803 189.619 78.931C189.619 78.623 189.535 78.37 189.366 78.172C189.205 77.9667 188.988 77.7943 188.717 77.655C188.446 77.5083 188.134 77.3837 187.782 77.281C187.437 77.171 187.082 77.0573 186.715 76.94C186.356 76.8227 186 76.6907 185.648 76.544C185.303 76.39 184.995 76.1993 184.724 75.972C184.453 75.7447 184.233 75.466 184.064 75.136C183.903 74.7987 183.822 74.3917 183.822 73.915C183.822 73.4897 183.91 73.0827 184.086 72.694C184.262 72.298 184.519 71.9533 184.856 71.66C185.193 71.3593 185.608 71.121 186.099 70.945C186.59 70.769 187.151 70.681 187.782 70.681C188.515 70.681 189.172 70.7983 189.751 71.033C190.338 71.2603 190.844 71.5757 191.269 71.979L190.829 72.694ZM201.117 73.508C200.75 73.0167 200.354 72.6757 199.929 72.485C199.503 72.287 199.027 72.188 198.499 72.188C197.465 72.188 196.669 72.5583 196.112 73.299C195.554 74.0397 195.276 75.0957 195.276 76.467C195.276 77.193 195.338 77.8163 195.463 78.337C195.587 78.8503 195.771 79.2757 196.013 79.613C196.255 79.943 196.552 80.185 196.904 80.339C197.256 80.493 197.655 80.57 198.103 80.57C198.748 80.57 199.309 80.4233 199.786 80.13C200.27 79.8367 200.713 79.4223 201.117 78.887V73.508ZM203.075 65.797V82H201.909C201.63 82 201.454 81.8643 201.381 81.593L201.205 80.24C200.728 80.812 200.185 81.274 199.577 81.626C198.968 81.978 198.264 82.154 197.465 82.154C196.827 82.154 196.247 82.033 195.727 81.791C195.206 81.5417 194.762 81.1787 194.396 80.702C194.029 80.2253 193.747 79.6313 193.549 78.92C193.351 78.2087 193.252 77.391 193.252 76.467C193.252 75.6457 193.362 74.883 193.582 74.179C193.802 73.4677 194.117 72.8517 194.528 72.331C194.938 71.8103 195.441 71.4033 196.035 71.11C196.636 70.8093 197.311 70.659 198.059 70.659C198.741 70.659 199.324 70.7763 199.808 71.011C200.299 71.2383 200.735 71.5573 201.117 71.968V65.797H203.075ZM208.136 65.797V75.334H208.642C208.789 75.334 208.91 75.3157 209.005 75.279C209.108 75.235 209.214 75.1507 209.324 75.026L212.844 71.253C212.947 71.1283 213.053 71.033 213.163 70.967C213.281 70.8937 213.435 70.857 213.625 70.857H215.396L211.293 75.224C211.095 75.4733 210.883 75.6677 210.655 75.807C210.787 75.895 210.905 75.9977 211.007 76.115C211.117 76.225 211.22 76.3533 211.315 76.5L215.671 82H213.922C213.754 82 213.607 81.9743 213.482 81.923C213.365 81.8643 213.262 81.7617 213.174 81.615L209.511 77.05C209.401 76.896 209.291 76.797 209.181 76.753C209.079 76.7017 208.917 76.676 208.697 76.676H208.136V82H206.167V65.797H208.136ZM224.72 73.09L223.312 73.53C225.556 78.942 229.714 82.462 235.962 83.826C236.182 83.386 236.644 82.704 236.996 82.374C230.88 81.186 226.7 77.908 224.72 73.09ZM232.574 72.474V72.76C230.924 78.062 226.194 81.142 221.046 82.396C221.376 82.748 221.772 83.386 221.948 83.804C227.448 82.308 232.354 79.096 234.356 72.914L233.234 72.408L232.904 72.474H232.574ZM224.236 72.474L223.774 74.058H232.838V72.474H224.236ZM225.754 63.454C224.786 71.286 222.278 77.226 216.448 80.746C216.844 81.054 217.438 81.67 217.68 82.022C223.884 78.216 226.458 72.078 227.58 63.74L225.754 63.454ZM230.572 64.62C231.54 65.654 232.772 67.062 233.388 67.898L234.708 66.996C234.092 66.182 232.816 64.818 231.87 63.85L230.572 64.62ZM218.956 70.494C218.956 70.098 220.276 69.548 220.276 69.548V69.526C221.024 68.294 221.904 66.336 222.454 64.466L220.672 64.158C220.32 65.852 219.462 67.612 219.22 68.074C218.956 68.558 218.692 68.866 218.406 68.954C218.582 69.35 218.846 70.142 218.956 70.494ZM218.956 70.494C219.176 70.252 219.902 70.12 221.288 70.12H236.248V68.536H220.056L218.956 69.196V70.494ZM244.784 72.254V73.772H258.666V72.254H244.784ZM245.488 67.722V69.196H258.006V67.722H245.488ZM250.68 68.404V71.682C250.68 73.948 250.284 77.182 244.938 79.338C245.312 79.624 245.818 80.196 246.038 80.548C251.582 78.062 252.33 74.454 252.33 71.704V68.404H250.68ZM252.792 73.222L251.362 73.53C252.33 77.116 254.332 79.492 257.654 80.658C257.874 80.218 258.336 79.58 258.71 79.25C255.564 78.348 253.628 76.302 252.792 73.222ZM243.53 72.21H238.844V73.75H241.924V79.998H243.53V72.21ZM243.53 79.272H242.034C240.912 80.218 239.614 81.186 238.558 81.89L239.438 83.584C240.626 82.616 241.748 81.67 242.804 80.724C244.212 82.462 246.192 83.232 249.052 83.342C251.494 83.43 256.048 83.386 258.468 83.298C258.534 82.792 258.82 82 258.996 81.604C256.4 81.78 251.45 81.846 249.052 81.758C246.522 81.648 244.564 80.9 243.53 79.272ZM239.086 65.06C240.516 66.028 242.166 67.524 242.87 68.58L244.168 67.502C243.42 66.424 241.748 64.994 240.296 64.07L239.086 65.06ZM255.124 63.52C254.662 64.642 253.76 66.226 253.078 67.216L254.42 67.722C255.146 66.798 256.048 65.346 256.796 64.092L255.124 63.52ZM246.346 64.18C247.204 65.28 248.018 66.798 248.304 67.788L249.8 67.128C249.492 66.116 248.634 64.664 247.754 63.608L246.346 64.18ZM273.956 72.474C271.932 78.04 267.312 80.9 260.646 82.286C260.998 82.682 261.526 83.43 261.702 83.848C268.456 82.154 273.296 79.096 275.716 72.958L273.956 72.474ZM266.784 68.69C265.442 70.56 263.11 72.386 260.954 73.53C261.372 73.838 262.01 74.498 262.296 74.85C264.43 73.508 266.894 71.44 268.456 69.328L266.784 68.69ZM267.664 72.584L266.102 73.068C268.456 78.92 272.878 82.44 279.896 83.782C280.138 83.32 280.622 82.572 280.996 82.198C274.176 81.076 269.71 77.798 267.664 72.584ZM261.13 66.402V68.008H280.446V66.402H261.13ZM269.886 63.498V67.436H271.58V63.498H269.886ZM273.362 69.614C275.474 71.044 278.026 73.178 279.214 74.63L280.644 73.486C279.39 72.034 276.794 69.988 274.726 68.602L273.362 69.614ZM287.486 69.416H298.354V71.594H287.486V69.416ZM287.486 65.918H298.354V68.096H287.486V65.918ZM285.858 64.554V72.98H300.026V64.554H285.858ZM287.09 74.872V76.346H300.29V74.872H287.09ZM299.872 74.872V75.136C299.498 79.822 299.08 81.692 298.552 82.176C298.354 82.396 298.134 82.418 297.76 82.418C297.364 82.418 296.33 82.418 295.252 82.308C295.516 82.704 295.67 83.32 295.714 83.738C296.814 83.804 297.87 83.826 298.442 83.76C299.08 83.738 299.52 83.584 299.938 83.166C300.62 82.462 301.038 80.548 301.456 75.598C301.5 75.378 301.544 74.872 301.544 74.872H299.872ZM288.762 72.298C287.376 74.586 285.044 76.72 282.624 78.062C283.02 78.326 283.658 78.942 283.922 79.25C286.276 77.732 288.762 75.378 290.346 72.804L288.762 72.298ZM291.16 75.312C289.708 78.106 287.222 80.614 284.494 82.132C284.868 82.418 285.506 83.012 285.77 83.32C288.432 81.582 291.094 78.898 292.722 75.796L291.16 75.312ZM295.714 75.422C294.702 78.458 292.876 81.164 290.61 82.858C290.984 83.1 291.644 83.606 291.93 83.892C294.174 82.022 296.132 79.14 297.276 75.796L295.714 75.422ZM310.894 65.632V69.196H312.412V67.018H322.994V69.196H324.578V65.632H310.894ZM316.79 63.542V66.688H318.462V63.542H316.79ZM316.834 69.79V78.766H318.418V69.79H316.834ZM318.946 80.658C320.53 81.56 322.554 82.946 323.544 83.804L324.842 82.814C323.786 81.956 321.74 80.658 320.178 79.778L318.946 80.658ZM314.81 79.932C313.6 80.966 311.598 82 309.816 82.638C310.168 82.902 310.784 83.518 311.048 83.848C312.83 83.056 314.986 81.758 316.372 80.504L314.81 79.932ZM313.402 76.39H322.004V78.282H313.402V76.39ZM313.402 73.31H322.004V75.158H313.402V73.31ZM311.906 72.012V79.558H323.544V72.012H311.906ZM312.566 68.998V70.384H322.906V68.998H312.566ZM305.702 64.906C307.088 65.544 308.76 66.578 309.574 67.392L310.542 66.006C309.706 65.258 308.012 64.29 306.626 63.696L305.702 64.906ZM304.602 70.868C306.01 71.462 307.682 72.43 308.518 73.156L309.464 71.792C308.606 71.088 306.89 70.142 305.526 69.636L304.602 70.868ZM305.218 82.462L306.67 83.474C307.836 81.428 309.244 78.634 310.278 76.28L308.98 75.312C307.836 77.842 306.296 80.746 305.218 82.462ZM335.908 71.374V81.582C335.908 81.934 335.798 82.044 335.38 82.044C334.962 82.066 333.51 82.066 332.014 82.022C332.278 82.528 332.542 83.254 332.63 83.738C334.566 83.738 335.864 83.716 336.656 83.474C337.426 83.188 337.69 82.682 337.69 81.626V71.374H335.908ZM330.914 74.3C329.968 76.786 328.34 79.206 326.536 80.768C326.976 81.01 327.724 81.472 328.054 81.78C329.814 80.086 331.552 77.446 332.63 74.74L330.914 74.3ZM340.814 74.96C342.42 77.072 344.07 79.954 344.664 81.78L346.314 81.054C345.676 79.184 343.96 76.39 342.332 74.322L340.814 74.96ZM329.066 65.17V66.798H344.532V65.17H329.066ZM327.086 70.494V72.144H346.49V70.494H327.086Z" fill="white"/>
</svg>
