<svg width="406" height="228" viewBox="0 0 406 228" fill="none" xmlns="http://www.w3.org/2000/svg">
<rect width="406" height="228" fill="black"/>
<path d="M93.7994 66.237L88.8824 82H86.9684L82.9754 69.977C82.9387 69.8597 82.902 69.735 82.8654 69.603C82.836 69.471 82.803 69.3317 82.7664 69.185C82.7297 69.3317 82.693 69.471 82.6564 69.603C82.6197 69.735 82.583 69.8597 82.5464 69.977L78.5314 82H76.6174L71.7004 66.237H73.4714C73.662 66.237 73.8197 66.2847 73.9444 66.38C74.0764 66.4753 74.1607 66.5963 74.1974 66.743L77.4534 77.699C77.5047 77.897 77.5524 78.1097 77.5964 78.337C77.6477 78.5643 77.6954 78.8063 77.7394 79.063C77.7907 78.8063 77.842 78.5643 77.8934 78.337C77.952 78.1023 78.0144 77.8897 78.0804 77.699L81.7874 66.743C81.8314 66.6183 81.9157 66.5047 82.0404 66.402C82.1724 66.292 82.33 66.237 82.5134 66.237H83.1294C83.32 66.237 83.474 66.2847 83.5914 66.38C83.7087 66.4753 83.7967 66.5963 83.8554 66.743L87.5514 77.699C87.6174 77.8897 87.676 78.095 87.7274 78.315C87.786 78.535 87.841 78.766 87.8924 79.008C87.929 78.766 87.9694 78.535 88.0134 78.315C88.0574 78.095 88.105 77.8897 88.1564 77.699L91.4234 66.743C91.46 66.611 91.5407 66.4937 91.6654 66.391C91.7974 66.2883 91.955 66.237 92.1384 66.237H93.7994ZM104.99 80.141C105.202 80.141 105.371 80.2033 105.496 80.328C105.62 80.4527 105.683 80.614 105.683 80.812V82H95.1668V81.329C95.1668 81.1897 95.1961 81.0467 95.2548 80.9C95.3135 80.7533 95.4051 80.6177 95.5298 80.493L100.579 75.422C100.997 74.9967 101.378 74.5897 101.723 74.201C102.067 73.805 102.361 73.409 102.603 73.013C102.845 72.617 103.032 72.2173 103.164 71.814C103.296 71.4033 103.362 70.967 103.362 70.505C103.362 70.043 103.288 69.6397 103.142 69.295C102.995 68.943 102.793 68.6533 102.537 68.426C102.287 68.1987 101.99 68.03 101.646 67.92C101.301 67.8027 100.931 67.744 100.535 67.744C100.131 67.744 99.7611 67.8027 99.4238 67.92C99.0865 68.0373 98.7858 68.2023 98.5218 68.415C98.2651 68.6203 98.0488 68.866 97.8728 69.152C97.6968 69.438 97.5721 69.7533 97.4988 70.098C97.4108 70.3547 97.2898 70.527 97.1358 70.615C96.9891 70.6957 96.7801 70.7177 96.5088 70.681L95.4858 70.505C95.5885 69.7863 95.7865 69.152 96.0798 68.602C96.3805 68.0447 96.7545 67.579 97.2018 67.205C97.6565 66.831 98.1735 66.5487 98.7528 66.358C99.3321 66.16 99.9591 66.061 100.634 66.061C101.301 66.061 101.924 66.16 102.504 66.358C103.083 66.556 103.585 66.8457 104.011 67.227C104.436 67.601 104.77 68.0593 105.012 68.602C105.254 69.1447 105.375 69.7607 105.375 70.45C105.375 71.0367 105.287 71.583 105.111 72.089C104.935 72.5877 104.696 73.0643 104.396 73.519C104.095 73.9737 103.747 74.4173 103.351 74.85C102.962 75.2827 102.548 75.719 102.108 76.159L97.9498 80.405C98.2431 80.3243 98.5401 80.262 98.8408 80.218C99.1415 80.1667 99.4311 80.141 99.7098 80.141H104.99ZM108.27 74.575H113.704V76.236H108.27V74.575ZM131.644 80.207V82H122.701V66.237H124.824V80.207H131.644ZM140.018 76.313V69.812C140.018 69.6213 140.026 69.4123 140.04 69.185C140.055 68.9577 140.077 68.7267 140.106 68.492L134.364 76.313H140.018ZM144.121 76.313V77.435C144.121 77.5523 144.085 77.6513 144.011 77.732C143.945 77.8127 143.839 77.853 143.692 77.853H141.734V82H140.018V77.853H133.022C132.876 77.853 132.747 77.8127 132.637 77.732C132.535 77.644 132.469 77.5377 132.439 77.413L132.241 76.412L139.908 66.237H141.734V76.313H144.121ZM145.971 80.79C145.971 80.5993 146.004 80.4197 146.07 80.251C146.143 80.0823 146.239 79.9357 146.356 79.811C146.481 79.6863 146.627 79.5873 146.796 79.514C146.965 79.4407 147.144 79.404 147.335 79.404C147.526 79.404 147.705 79.4407 147.874 79.514C148.043 79.5873 148.189 79.6863 148.314 79.811C148.439 79.9357 148.538 80.0823 148.611 80.251C148.684 80.4197 148.721 80.5993 148.721 80.79C148.721 80.988 148.684 81.1713 148.611 81.34C148.538 81.5013 148.439 81.6443 148.314 81.769C148.189 81.8937 148.043 81.989 147.874 82.055C147.705 82.1283 147.526 82.165 147.335 82.165C147.144 82.165 146.965 82.1283 146.796 82.055C146.627 81.989 146.481 81.8937 146.356 81.769C146.239 81.6443 146.143 81.5013 146.07 81.34C146.004 81.1713 145.971 80.988 145.971 80.79ZM161.147 80.504V82H152.699V80.504H156.076V69.757C156.076 69.4343 156.087 69.108 156.109 68.778L153.304 71.187C153.209 71.2677 153.114 71.319 153.018 71.341C152.923 71.3557 152.835 71.3557 152.754 71.341C152.674 71.3263 152.597 71.297 152.523 71.253C152.457 71.209 152.406 71.1613 152.369 71.11L151.753 70.263L156.45 66.204H158.045V80.504H161.147ZM178.416 68.701C178.35 68.811 178.277 68.8953 178.196 68.954C178.123 69.0053 178.031 69.031 177.921 69.031C177.796 69.031 177.65 68.9687 177.481 68.844C177.312 68.7193 177.1 68.5837 176.843 68.437C176.594 68.283 176.289 68.1437 175.93 68.019C175.578 67.8943 175.149 67.832 174.643 67.832C174.166 67.832 173.745 67.898 173.378 68.03C173.019 68.1547 172.714 68.327 172.465 68.547C172.223 68.767 172.04 69.0273 171.915 69.328C171.79 69.6213 171.728 69.9403 171.728 70.285C171.728 70.725 171.834 71.0917 172.047 71.385C172.267 71.671 172.553 71.9167 172.905 72.122C173.264 72.3273 173.668 72.507 174.115 72.661C174.57 72.8077 175.032 72.9617 175.501 73.123C175.978 73.2843 176.44 73.4677 176.887 73.673C177.342 73.871 177.745 74.124 178.097 74.432C178.456 74.74 178.742 75.1177 178.955 75.565C179.175 76.0123 179.285 76.5623 179.285 77.215C179.285 77.9043 179.168 78.5533 178.933 79.162C178.698 79.7633 178.354 80.2877 177.899 80.735C177.452 81.1823 176.898 81.5343 176.238 81.791C175.585 82.0477 174.841 82.176 174.005 82.176C172.978 82.176 172.047 81.9927 171.211 81.626C170.375 81.252 169.66 80.7497 169.066 80.119L169.682 79.107C169.741 79.0263 169.81 78.9603 169.891 78.909C169.979 78.8503 170.074 78.821 170.177 78.821C170.272 78.821 170.379 78.8613 170.496 78.942C170.621 79.0153 170.76 79.1107 170.914 79.228C171.068 79.3453 171.244 79.4737 171.442 79.613C171.64 79.7523 171.864 79.8807 172.113 79.998C172.37 80.1153 172.659 80.2143 172.982 80.295C173.305 80.3683 173.668 80.405 174.071 80.405C174.577 80.405 175.028 80.3353 175.424 80.196C175.82 80.0567 176.154 79.8623 176.425 79.613C176.704 79.3563 176.916 79.052 177.063 78.7C177.21 78.348 177.283 77.9557 177.283 77.523C177.283 77.0463 177.173 76.6577 176.953 76.357C176.74 76.049 176.458 75.7923 176.106 75.587C175.754 75.3817 175.351 75.2093 174.896 75.07C174.441 74.9233 173.979 74.7767 173.51 74.63C173.041 74.476 172.579 74.3 172.124 74.102C171.669 73.904 171.266 73.6473 170.914 73.332C170.562 73.0167 170.276 72.6243 170.056 72.155C169.843 71.6783 169.737 71.0917 169.737 70.395C169.737 69.8377 169.843 69.2987 170.056 68.778C170.276 68.2573 170.591 67.7953 171.002 67.392C171.42 66.9887 171.93 66.666 172.531 66.424C173.14 66.182 173.836 66.061 174.621 66.061C175.501 66.061 176.3 66.2003 177.019 66.479C177.745 66.7577 178.383 67.161 178.933 67.689L178.416 68.701ZM186.469 70.681C187.283 70.681 188.016 70.8167 188.669 71.088C189.321 71.3593 189.879 71.7443 190.341 72.243C190.803 72.7417 191.155 73.3467 191.397 74.058C191.646 74.762 191.771 75.5503 191.771 76.423C191.771 77.303 191.646 78.095 191.397 78.799C191.155 79.503 190.803 80.1043 190.341 80.603C189.879 81.1017 189.321 81.4867 188.669 81.758C188.016 82.022 187.283 82.154 186.469 82.154C185.647 82.154 184.907 82.022 184.247 81.758C183.594 81.4867 183.037 81.1017 182.575 80.603C182.113 80.1043 181.757 79.503 181.508 78.799C181.266 78.095 181.145 77.303 181.145 76.423C181.145 75.5503 181.266 74.762 181.508 74.058C181.757 73.3467 182.113 72.7417 182.575 72.243C183.037 71.7443 183.594 71.3593 184.247 71.088C184.907 70.8167 185.647 70.681 186.469 70.681ZM186.469 80.625C187.569 80.625 188.39 80.2583 188.933 79.525C189.475 78.7843 189.747 77.754 189.747 76.434C189.747 75.1067 189.475 74.0727 188.933 73.332C188.39 72.5913 187.569 72.221 186.469 72.221C185.911 72.221 185.424 72.3163 185.006 72.507C184.595 72.6977 184.25 72.9727 183.972 73.332C183.7 73.6913 183.495 74.135 183.356 74.663C183.224 75.1837 183.158 75.774 183.158 76.434C183.158 77.754 183.429 78.7843 183.972 79.525C184.522 80.2583 185.354 80.625 186.469 80.625ZM196.278 65.797V82H194.32V65.797H196.278ZM201.521 70.857V82H199.563V70.857H201.521ZM201.939 67.359C201.939 67.5497 201.899 67.7293 201.818 67.898C201.745 68.0593 201.642 68.206 201.51 68.338C201.386 68.4627 201.235 68.5617 201.059 68.635C200.891 68.7083 200.711 68.745 200.52 68.745C200.33 68.745 200.15 68.7083 199.981 68.635C199.82 68.5617 199.677 68.4627 199.552 68.338C199.428 68.206 199.329 68.0593 199.255 67.898C199.182 67.7293 199.145 67.5497 199.145 67.359C199.145 67.1683 199.182 66.9887 199.255 66.82C199.329 66.644 199.428 66.4937 199.552 66.369C199.677 66.237 199.82 66.1343 199.981 66.061C200.15 65.9877 200.33 65.951 200.52 65.951C200.711 65.951 200.891 65.9877 201.059 66.061C201.235 66.1343 201.386 66.237 201.51 66.369C201.642 66.4937 201.745 66.644 201.818 66.82C201.899 66.9887 201.939 67.1683 201.939 67.359ZM211.999 73.508C211.632 73.0167 211.236 72.6757 210.811 72.485C210.385 72.287 209.909 72.188 209.381 72.188C208.347 72.188 207.551 72.5583 206.994 73.299C206.436 74.0397 206.158 75.0957 206.158 76.467C206.158 77.193 206.22 77.8163 206.345 78.337C206.469 78.8503 206.653 79.2757 206.895 79.613C207.137 79.943 207.434 80.185 207.786 80.339C208.138 80.493 208.537 80.57 208.985 80.57C209.63 80.57 210.191 80.4233 210.668 80.13C211.152 79.8367 211.595 79.4223 211.999 78.887V73.508ZM213.957 65.797V82H212.791C212.512 82 212.336 81.8643 212.263 81.593L212.087 80.24C211.61 80.812 211.067 81.274 210.459 81.626C209.85 81.978 209.146 82.154 208.347 82.154C207.709 82.154 207.129 82.033 206.609 81.791C206.088 81.5417 205.644 81.1787 205.278 80.702C204.911 80.2253 204.629 79.6313 204.431 78.92C204.233 78.2087 204.134 77.391 204.134 76.467C204.134 75.6457 204.244 74.883 204.464 74.179C204.684 73.4677 204.999 72.8517 205.41 72.331C205.82 71.8103 206.323 71.4033 206.917 71.11C207.518 70.8093 208.193 70.659 208.941 70.659C209.623 70.659 210.206 70.7763 210.69 71.011C211.181 71.2383 211.617 71.5573 211.999 71.968V65.797H213.957ZM219.117 70.857V82H217.159V70.857H219.117ZM219.535 67.359C219.535 67.5497 219.495 67.7293 219.414 67.898C219.341 68.0593 219.238 68.206 219.106 68.338C218.981 68.4627 218.831 68.5617 218.655 68.635C218.486 68.7083 218.307 68.745 218.116 68.745C217.925 68.745 217.746 68.7083 217.577 68.635C217.416 68.5617 217.273 68.4627 217.148 68.338C217.023 68.206 216.924 68.0593 216.851 67.898C216.778 67.7293 216.741 67.5497 216.741 67.359C216.741 67.1683 216.778 66.9887 216.851 66.82C216.924 66.644 217.023 66.4937 217.148 66.369C217.273 66.237 217.416 66.1343 217.577 66.061C217.746 65.9877 217.925 65.951 218.116 65.951C218.307 65.951 218.486 65.9877 218.655 66.061C218.831 66.1343 218.981 66.237 219.106 66.369C219.238 66.4937 219.341 66.644 219.414 66.82C219.495 66.9887 219.535 67.1683 219.535 67.359ZM225.755 82.176C224.875 82.176 224.197 81.9303 223.72 81.439C223.251 80.9477 223.016 80.24 223.016 79.316V72.496H221.674C221.557 72.496 221.458 72.463 221.377 72.397C221.297 72.3237 221.256 72.2137 221.256 72.067V71.286L223.082 71.055L223.533 67.612C223.555 67.502 223.603 67.414 223.676 67.348C223.757 67.2747 223.86 67.238 223.984 67.238H224.974V71.077H228.197V72.496H224.974V79.184C224.974 79.6533 225.088 80.0017 225.315 80.229C225.543 80.4563 225.836 80.57 226.195 80.57C226.401 80.57 226.577 80.5443 226.723 80.493C226.877 80.4343 227.009 80.372 227.119 80.306C227.229 80.24 227.321 80.1813 227.394 80.13C227.475 80.0713 227.545 80.042 227.603 80.042C227.706 80.042 227.798 80.1043 227.878 80.229L228.45 81.164C228.113 81.4793 227.706 81.7287 227.229 81.912C226.753 82.088 226.261 82.176 225.755 82.176ZM239.833 70.857L233.618 85.289C233.552 85.4357 233.468 85.553 233.365 85.641C233.27 85.729 233.119 85.773 232.914 85.773H231.462L233.497 81.351L228.899 70.857H230.593C230.762 70.857 230.894 70.901 230.989 70.989C231.092 71.0697 231.161 71.1613 231.198 71.264L234.179 78.282C234.296 78.59 234.395 78.9127 234.476 79.25C234.579 78.9053 234.689 78.579 234.806 78.271L237.699 71.264C237.743 71.1467 237.816 71.0513 237.919 70.978C238.029 70.8973 238.15 70.857 238.282 70.857H239.833ZM247.822 64.334V65.808H260.34V64.334H247.822ZM247.052 72.716V74.234H261.066V72.716H247.052ZM248.878 76.038V83.76H250.44V77.512H257.964V83.694H259.592V76.038H248.878ZM249.648 81.45V82.902H258.624V81.45H249.648ZM252.42 64.906C251.958 67.612 251.122 71.352 250.462 73.574H252.178C252.728 71.462 253.564 67.832 254.092 65.082L252.42 64.906ZM248.592 68.272V69.724H257.722V68.272H248.592ZM257.348 68.272V68.47C257.26 69.636 257.04 71.814 256.82 73.398L258.382 73.508C258.58 71.968 258.8 69.966 258.91 68.294L257.766 68.184L257.502 68.272H257.348ZM242.146 65.148C243.334 66.182 244.786 67.634 245.49 68.58L246.59 67.414C245.908 66.512 244.39 65.104 243.224 64.136L242.146 65.148ZM240.98 70.428V72.012H244.918V70.428H240.98ZM244.104 83.1C244.412 82.704 245.006 82.264 248.68 79.712C248.526 79.382 248.306 78.744 248.218 78.304L244.324 80.9L243.84 81.582L244.104 83.1ZM244.104 83.1C244.104 82.506 245.6 81.472 245.6 81.472V70.428H244.038V80.02C244.038 80.922 243.576 81.406 243.246 81.626C243.532 81.978 243.95 82.704 244.104 83.1ZM267.248 81.406V82.814H278.886V81.406H267.248ZM266.588 73.794V75.158H279.414V73.794H266.588ZM266.588 70.802V72.166H279.414V70.802H266.588ZM263.2 67.722V69.174H282.934V67.722H263.2ZM266.94 64.752V66.094H279.106V64.752H266.94ZM266.346 76.83V83.76H267.952V78.26H278.028V83.694H279.722V76.83H266.346ZM292.02 66.996C293.428 68.624 294.858 70.89 295.43 72.408L297.014 71.55C296.376 70.054 294.968 67.876 293.494 66.27L292.02 66.996ZM284.782 79.668L285.376 81.384C287.818 80.328 291.162 78.854 294.22 77.446L293.846 75.84C290.546 77.292 287.026 78.788 284.782 79.668ZM297.982 76.764C300.094 78.92 302.734 81.89 303.966 83.716L305.374 82.418C304.076 80.614 301.348 77.754 299.258 75.686L297.982 76.764ZM301.04 64.664C300.05 74.234 297.718 79.624 290.106 82.396C290.524 82.748 291.184 83.474 291.426 83.826C299.126 80.614 301.7 75.004 302.822 64.84L301.04 64.664ZM287.466 64.73L287.84 79.272L289.534 79.206L289.16 64.664L287.466 64.73ZM313.426 66.578L311.974 66.908C314.02 75.642 317.87 81.516 326.23 83.738C326.494 83.276 327 82.55 327.374 82.198C319.212 80.262 315.274 74.608 313.426 66.578ZM307.97 64.708V66.314H320.29V64.708H307.97ZM324.36 70.032V70.34C322.732 77.16 317.694 80.922 311.886 82.33C312.238 82.682 312.634 83.364 312.832 83.782C319.014 82.044 324.228 78.172 326.098 70.406L324.976 69.966L324.668 70.032H324.36ZM319.916 64.708V64.906C319.542 66.666 318.75 70.054 318.024 72.496L319.74 72.738C320.422 70.318 321.192 67.128 321.676 64.862L320.422 64.62L320.114 64.708H319.916ZM319.608 70.032L319.256 71.594H324.734V70.032H319.608ZM311.864 65.214V68.184C311.864 72.1 311.512 77.6 306.782 81.978C307.156 82.286 307.728 82.946 307.97 83.364C313.096 78.568 313.536 72.562 313.536 68.162V65.214H311.864ZM111.949 104.744C112.066 104.744 112.169 104.792 112.257 104.887L113.104 105.8C112.459 106.548 111.674 107.131 110.75 107.549C109.833 107.967 108.722 108.176 107.417 108.176C106.288 108.176 105.261 107.982 104.337 107.593C103.413 107.197 102.625 106.647 101.972 105.943C101.319 105.232 100.813 104.381 100.454 103.391C100.095 102.401 99.9151 101.312 99.9151 100.124C99.9151 98.936 100.102 97.847 100.476 96.857C100.85 95.867 101.374 95.0163 102.049 94.305C102.731 93.5937 103.545 93.0437 104.491 92.655C105.437 92.259 106.482 92.061 107.626 92.061C108.748 92.061 109.738 92.2407 110.596 92.6C111.454 92.9593 112.209 93.447 112.862 94.063L112.158 95.042C112.114 95.1153 112.055 95.1777 111.982 95.229C111.916 95.273 111.824 95.295 111.707 95.295C111.575 95.295 111.414 95.2253 111.223 95.086C111.032 94.9393 110.783 94.778 110.475 94.602C110.167 94.426 109.782 94.2683 109.32 94.129C108.858 93.9823 108.29 93.909 107.615 93.909C106.801 93.909 106.057 94.052 105.382 94.338C104.707 94.6167 104.124 95.0237 103.633 95.559C103.149 96.0943 102.771 96.747 102.5 97.517C102.229 98.287 102.093 99.156 102.093 100.124C102.093 101.107 102.232 101.983 102.511 102.753C102.797 103.523 103.182 104.176 103.666 104.711C104.157 105.239 104.733 105.642 105.393 105.921C106.06 106.2 106.779 106.339 107.549 106.339C108.018 106.339 108.44 106.313 108.814 106.262C109.195 106.203 109.544 106.115 109.859 105.998C110.182 105.881 110.479 105.734 110.75 105.558C111.029 105.375 111.304 105.158 111.575 104.909C111.7 104.799 111.824 104.744 111.949 104.744ZM119.599 96.681C120.413 96.681 121.146 96.8167 121.799 97.088C122.451 97.3593 123.009 97.7443 123.471 98.243C123.933 98.7417 124.285 99.3467 124.527 100.058C124.776 100.762 124.901 101.55 124.901 102.423C124.901 103.303 124.776 104.095 124.527 104.799C124.285 105.503 123.933 106.104 123.471 106.603C123.009 107.102 122.451 107.487 121.799 107.758C121.146 108.022 120.413 108.154 119.599 108.154C118.777 108.154 118.037 108.022 117.377 107.758C116.724 107.487 116.167 107.102 115.705 106.603C115.243 106.104 114.887 105.503 114.638 104.799C114.396 104.095 114.275 103.303 114.275 102.423C114.275 101.55 114.396 100.762 114.638 100.058C114.887 99.3467 115.243 98.7417 115.705 98.243C116.167 97.7443 116.724 97.3593 117.377 97.088C118.037 96.8167 118.777 96.681 119.599 96.681ZM119.599 106.625C120.699 106.625 121.52 106.258 122.063 105.525C122.605 104.784 122.877 103.754 122.877 102.434C122.877 101.107 122.605 100.073 122.063 99.332C121.52 98.5913 120.699 98.221 119.599 98.221C119.041 98.221 118.554 98.3163 118.136 98.507C117.725 98.6977 117.38 98.9727 117.102 99.332C116.83 99.6913 116.625 100.135 116.486 100.663C116.354 101.184 116.288 101.774 116.288 102.434C116.288 103.754 116.559 104.784 117.102 105.525C117.652 106.258 118.484 106.625 119.599 106.625ZM129.232 98.474C129.474 98.2027 129.731 97.957 130.002 97.737C130.273 97.517 130.559 97.33 130.86 97.176C131.168 97.0147 131.491 96.8937 131.828 96.813C132.173 96.725 132.543 96.681 132.939 96.681C133.548 96.681 134.083 96.7837 134.545 96.989C135.014 97.187 135.403 97.473 135.711 97.847C136.026 98.2137 136.265 98.6573 136.426 99.178C136.587 99.6987 136.668 100.274 136.668 100.905V108H134.699V100.905C134.699 100.062 134.505 99.409 134.116 98.947C133.735 98.4777 133.152 98.243 132.367 98.243C131.788 98.243 131.245 98.3823 130.739 98.661C130.24 98.9397 129.778 99.3173 129.353 99.794V108H127.384V96.857H128.561C128.84 96.857 129.012 96.9927 129.078 97.264L129.232 98.474ZM140.228 108V98.529L138.996 98.386C138.834 98.3493 138.706 98.2943 138.611 98.221C138.515 98.1403 138.468 98.0267 138.468 97.88V97.077H140.228V96.483C140.228 95.867 140.319 95.284 140.503 94.734C140.693 94.1767 140.979 93.6927 141.361 93.282C141.742 92.8713 142.219 92.545 142.791 92.303C143.363 92.061 144.03 91.94 144.793 91.94C145.357 91.94 145.9 91.962 146.421 92.006C146.949 92.05 147.458 92.0757 147.95 92.083H149.281V108H147.334V93.458C146.938 93.4433 146.538 93.425 146.135 93.403C145.739 93.381 145.39 93.37 145.09 93.37C144.136 93.37 143.403 93.645 142.89 94.195C142.384 94.7377 142.131 95.5003 142.131 96.483V97.077H145.024V98.496H142.186V108H140.228ZM161.619 96.857V108H160.453C160.175 108 159.999 107.864 159.925 107.593L159.771 106.394C159.287 106.929 158.745 107.362 158.143 107.692C157.542 108.015 156.853 108.176 156.075 108.176C155.467 108.176 154.928 108.077 154.458 107.879C153.996 107.674 153.608 107.388 153.292 107.021C152.977 106.654 152.739 106.211 152.577 105.69C152.423 105.169 152.346 104.594 152.346 103.963V96.857H154.304V103.963C154.304 104.806 154.495 105.459 154.876 105.921C155.265 106.383 155.855 106.614 156.647 106.614C157.227 106.614 157.766 106.478 158.264 106.207C158.77 105.928 159.236 105.547 159.661 105.063V96.857H161.619ZM173.876 108H171.995C171.834 108 171.705 107.96 171.61 107.879C171.522 107.791 171.449 107.696 171.39 107.593L168.585 103.226C168.556 103.329 168.523 103.431 168.486 103.534C168.457 103.629 168.413 103.717 168.354 103.798L165.758 107.593C165.685 107.696 165.604 107.791 165.516 107.879C165.435 107.96 165.322 108 165.175 108H163.426L167.331 102.28L163.58 96.857H165.461C165.622 96.857 165.74 96.8827 165.813 96.934C165.886 96.9853 165.952 97.0587 166.011 97.154L168.75 101.334C168.809 101.121 168.9 100.916 169.025 100.718L171.423 97.198C171.489 97.0953 171.559 97.0147 171.632 96.956C171.713 96.89 171.808 96.857 171.918 96.857H173.722L169.971 102.181L173.876 108ZM178.42 100.696V109.76H180.026V102.06H190.278V109.716H191.972V100.696H178.42ZM179.344 104.128V105.404H190.894V104.128H179.344ZM177.584 91.346V92.688H184.602V91.346H177.584ZM175.208 94.8V96.142H185.174V94.8H175.208ZM179.344 107.582V108.946H190.894V107.582H179.344ZM179.784 91.83V93.986C179.784 95.724 179.454 98.298 175.01 100.058C175.384 100.322 175.846 100.85 176.066 101.18C180.73 99.09 181.368 96.142 181.368 94.008V91.83H179.784ZM177.694 89.454C177.21 91.126 176.33 92.776 175.208 93.898C175.582 94.052 176.242 94.47 176.528 94.69C177.606 93.48 178.618 91.654 179.19 89.762L177.694 89.454ZM180.884 96.472L179.806 97.198C180.752 97.792 183.04 99.42 183.854 100.102L184.998 98.958C184.36 98.518 181.676 96.89 180.884 96.472ZM187.638 92.798H192.214V97.484H187.638V92.798ZM186.098 91.324V99.002H193.842V91.324H186.098ZM200.684 89.52C200.156 91.126 199.122 93.436 198.286 94.844L199.694 95.262C200.574 93.876 201.608 91.742 202.4 89.916L200.684 89.52ZM196.988 94.184L197.142 95.79C199.54 95.658 202.95 95.482 206.228 95.284L206.25 93.81C202.796 93.964 199.298 94.118 196.988 94.184ZM198.33 97.374V109.738H199.87V98.782H205.304V97.374H198.33ZM204.556 97.374V107.846C204.556 108.132 204.468 108.198 204.182 108.198C203.874 108.22 202.928 108.242 201.894 108.198C202.114 108.616 202.356 109.276 202.444 109.716C203.83 109.716 204.798 109.694 205.414 109.43C206.008 109.166 206.184 108.704 206.184 107.868V97.374H204.556ZM199.056 100.652V101.95H205.414V100.652H199.056ZM199.056 103.952V105.272H205.414V103.952H199.056ZM208.252 89.564V96.868C208.252 98.694 208.802 99.2 210.914 99.2C211.354 99.2 214.236 99.2 214.698 99.2C216.48 99.2 216.964 98.474 217.162 95.79C216.678 95.68 216.018 95.438 215.666 95.152C215.578 97.33 215.424 97.704 214.566 97.704C213.928 97.704 211.53 97.704 211.068 97.704C210.056 97.704 209.88 97.55 209.88 96.846V89.564H208.252ZM214.984 91.192C213.488 91.962 210.98 92.93 208.802 93.612C209 93.942 209.22 94.426 209.308 94.778C211.574 94.14 214.214 93.282 216.084 92.402L214.984 91.192ZM208.252 99.794V107.252C208.252 109.078 208.824 109.584 210.958 109.584C211.42 109.584 214.39 109.584 214.874 109.584C216.722 109.584 217.206 108.792 217.426 105.822C216.964 105.734 216.304 105.47 215.93 105.206C215.82 107.692 215.688 108.11 214.742 108.11C214.082 108.11 211.596 108.11 211.134 108.11C210.078 108.11 209.88 107.978 209.88 107.23V99.794H208.252ZM215.248 101.004C213.752 101.972 211.09 102.984 208.802 103.644C208.978 103.974 209.22 104.502 209.308 104.832C211.684 104.194 214.5 103.292 216.348 102.236L215.248 101.004ZM203.434 91.61C204.6 93.172 205.788 95.284 206.25 96.626L207.702 95.988C207.196 94.624 205.964 92.6 204.798 91.06L203.434 91.61ZM223.586 96.714V98.188H234.696V96.714H223.586ZM223.19 107.406V108.88H234.982V107.406H223.19ZM222.442 100.96V109.782H224.048V102.456H234.234V109.782H235.906V100.96H222.442ZM229.064 91.214C231.132 94.03 235.004 97.132 238.458 98.936C238.744 98.452 239.14 97.88 239.558 97.484C236.038 95.922 232.188 92.864 229.812 89.586H228.14C226.402 92.424 222.728 95.79 218.856 97.748C219.23 98.1 219.67 98.694 219.89 99.068C223.652 97.022 227.26 93.898 229.064 91.214ZM241.604 103.974C241.604 103.622 242.682 103.138 242.682 103.138V103.116C244.926 100.982 247.214 98.034 249.084 95.042L247.72 94.206C246.07 97.176 243.606 100.256 242.836 101.026C242.132 101.818 241.582 102.368 241.098 102.478C241.274 102.874 241.516 103.644 241.604 103.974ZM241.604 103.974C242.11 103.688 242.924 103.512 249.194 102.478C249.15 102.126 249.128 101.51 249.15 101.07L242.396 102.06L241.538 102.61L241.604 103.974ZM241.45 98.672C241.45 98.342 242.528 97.814 242.528 97.814V97.77C244.134 95.812 245.806 92.996 247.082 90.268L245.52 89.608C244.508 92.248 242.77 95.042 242.242 95.79C241.736 96.516 241.318 97.022 240.9 97.11C241.098 97.55 241.362 98.342 241.45 98.672ZM241.45 98.672C241.846 98.474 242.506 98.364 246.906 97.88C246.884 97.572 246.95 96.956 247.016 96.56L242.22 97L241.428 97.484L241.45 98.672ZM240.988 106.856L241.252 108.44C243.518 108 246.576 107.384 249.524 106.768L249.414 105.316C246.312 105.91 243.1 106.526 240.988 106.856ZM251.636 93.568V95.108H259.49V93.568H251.636ZM258.83 93.568V93.942C258.588 103.468 258.258 107.032 257.576 107.802C257.334 108.088 257.092 108.154 256.674 108.132C256.168 108.132 254.914 108.132 253.528 108.022C253.814 108.462 254.034 109.144 254.056 109.606C255.266 109.672 256.542 109.694 257.268 109.628C258.038 109.562 258.522 109.364 259.006 108.726C259.842 107.692 260.106 104.348 260.414 94.426C260.414 94.206 260.414 93.568 260.414 93.568H258.83ZM252.56 89.542C251.856 92.534 250.646 95.526 249.128 97.44C249.502 97.638 250.206 98.122 250.492 98.364C252.01 96.274 253.308 93.106 254.166 89.85L252.56 89.542ZM251.064 98.892C252.692 100.322 254.518 102.346 255.332 103.688L256.542 102.654C255.728 101.29 253.836 99.332 252.208 97.968L251.064 98.892ZM267.124 90.862V92.534H273.35V90.862H267.124ZM272.514 90.862C272.514 94.998 273.24 104.37 282.04 109.694C282.348 109.298 283.008 108.594 283.382 108.308C274.692 103.16 274.208 94.8 274.208 90.862H272.514ZM271.898 95.174C270.556 101.4 267.806 105.844 262.922 108.396C263.362 108.704 264.11 109.386 264.418 109.738C269.28 106.878 272.184 102.236 273.768 95.526L271.898 95.174ZM302.258 92.578V107.604C302.258 108 302.126 108.088 301.752 108.11C301.356 108.132 299.97 108.154 298.628 108.088C298.87 108.55 299.134 109.32 299.222 109.76C301.026 109.76 302.236 109.738 302.962 109.474C303.666 109.188 303.908 108.682 303.908 107.648V92.578H302.258ZM286.33 92.578V109.76H287.958V94.14H303.006V92.578H286.33ZM294.228 89.52V98.65H295.856V89.52H294.228Z" fill="white"/>
</svg>
