<svg width="406" height="228" viewBox="0 0 406 228" fill="none" xmlns="http://www.w3.org/2000/svg">
<rect width="406" height="228" fill="black"/>
<path d="M96.2056 66.237L91.2886 82H89.3746L85.3816 69.977C85.345 69.8597 85.3083 69.735 85.2716 69.603C85.2423 69.471 85.2093 69.3317 85.1726 69.185C85.136 69.3317 85.0993 69.471 85.0626 69.603C85.026 69.735 84.9893 69.8597 84.9526 69.977L80.9376 82H79.0236L74.1066 66.237H75.8776C76.0683 66.237 76.226 66.2847 76.3506 66.38C76.4826 66.4753 76.567 66.5963 76.6036 66.743L79.8596 77.699C79.911 77.897 79.9586 78.1097 80.0026 78.337C80.054 78.5643 80.1016 78.8063 80.1456 79.063C80.197 78.8063 80.2483 78.5643 80.2996 78.337C80.3583 78.1023 80.4206 77.8897 80.4866 77.699L84.1936 66.743C84.2376 66.6183 84.322 66.5047 84.4466 66.402C84.5786 66.292 84.7363 66.237 84.9196 66.237H85.5356C85.7263 66.237 85.8803 66.2847 85.9976 66.38C86.115 66.4753 86.203 66.5963 86.2616 66.743L89.9576 77.699C90.0236 77.8897 90.0823 78.095 90.1336 78.315C90.1923 78.535 90.2473 78.766 90.2986 79.008C90.3353 78.766 90.3756 78.535 90.4196 78.315C90.4636 78.095 90.5113 77.8897 90.5626 77.699L93.8296 66.743C93.8663 66.611 93.947 66.4937 94.0716 66.391C94.2036 66.2883 94.3613 66.237 94.5446 66.237H96.2056ZM107.396 80.141C107.609 80.141 107.777 80.2033 107.902 80.328C108.027 80.4527 108.089 80.614 108.089 80.812V82H97.5731V81.329C97.5731 81.1897 97.6024 81.0467 97.6611 80.9C97.7197 80.7533 97.8114 80.6177 97.9361 80.493L102.985 75.422C103.403 74.9967 103.784 74.5897 104.129 74.201C104.474 73.805 104.767 73.409 105.009 73.013C105.251 72.617 105.438 72.2173 105.57 71.814C105.702 71.4033 105.768 70.967 105.768 70.505C105.768 70.043 105.695 69.6397 105.548 69.295C105.401 68.943 105.2 68.6533 104.943 68.426C104.694 68.1987 104.397 68.03 104.052 67.92C103.707 67.8027 103.337 67.744 102.941 67.744C102.538 67.744 102.167 67.8027 101.83 67.92C101.493 68.0373 101.192 68.2023 100.928 68.415C100.671 68.6203 100.455 68.866 100.279 69.152C100.103 69.438 99.9784 69.7533 99.9051 70.098C99.8171 70.3547 99.6961 70.527 99.5421 70.615C99.3954 70.6957 99.1864 70.7177 98.9151 70.681L97.8921 70.505C97.9947 69.7863 98.1927 69.152 98.4861 68.602C98.7867 68.0447 99.1607 67.579 99.6081 67.205C100.063 66.831 100.58 66.5487 101.159 66.358C101.738 66.16 102.365 66.061 103.04 66.061C103.707 66.061 104.331 66.16 104.91 66.358C105.489 66.556 105.992 66.8457 106.417 67.227C106.842 67.601 107.176 68.0593 107.418 68.602C107.66 69.1447 107.781 69.7607 107.781 70.45C107.781 71.0367 107.693 71.583 107.517 72.089C107.341 72.5877 107.103 73.0643 106.802 73.519C106.501 73.9737 106.153 74.4173 105.757 74.85C105.368 75.2827 104.954 75.719 104.514 76.159L100.356 80.405C100.649 80.3243 100.946 80.262 101.247 80.218C101.548 80.1667 101.837 80.141 102.116 80.141H107.396ZM110.676 74.575H116.11V76.236H110.676V74.575ZM134.05 80.207V82H125.107V66.237H127.23V80.207H134.05ZM142.425 76.313V69.812C142.425 69.6213 142.432 69.4123 142.447 69.185C142.461 68.9577 142.483 68.7267 142.513 68.492L136.771 76.313H142.425ZM146.528 76.313V77.435C146.528 77.5523 146.491 77.6513 146.418 77.732C146.352 77.8127 146.245 77.853 146.099 77.853H144.141V82H142.425V77.853H135.429C135.282 77.853 135.154 77.8127 135.044 77.732C134.941 77.644 134.875 77.5377 134.846 77.413L134.648 76.412L142.315 66.237H144.141V76.313H146.528ZM148.377 80.79C148.377 80.5993 148.41 80.4197 148.476 80.251C148.55 80.0823 148.645 79.9357 148.762 79.811C148.887 79.6863 149.034 79.5873 149.202 79.514C149.371 79.4407 149.551 79.404 149.741 79.404C149.932 79.404 150.112 79.4407 150.28 79.514C150.449 79.5873 150.596 79.6863 150.72 79.811C150.845 79.9357 150.944 80.0823 151.017 80.251C151.091 80.4197 151.127 80.5993 151.127 80.79C151.127 80.988 151.091 81.1713 151.017 81.34C150.944 81.5013 150.845 81.6443 150.72 81.769C150.596 81.8937 150.449 81.989 150.28 82.055C150.112 82.1283 149.932 82.165 149.741 82.165C149.551 82.165 149.371 82.1283 149.202 82.055C149.034 81.989 148.887 81.8937 148.762 81.769C148.645 81.6443 148.55 81.5013 148.476 81.34C148.41 81.1713 148.377 80.988 148.377 80.79ZM163.212 80.141C163.425 80.141 163.594 80.2033 163.718 80.328C163.843 80.4527 163.905 80.614 163.905 80.812V82H153.389V81.329C153.389 81.1897 153.419 81.0467 153.477 80.9C153.536 80.7533 153.628 80.6177 153.752 80.493L158.801 75.422C159.219 74.9967 159.601 74.5897 159.945 74.201C160.29 73.805 160.583 73.409 160.825 73.013C161.067 72.617 161.254 72.2173 161.386 71.814C161.518 71.4033 161.584 70.967 161.584 70.505C161.584 70.043 161.511 69.6397 161.364 69.295C161.218 68.943 161.016 68.6533 160.759 68.426C160.51 68.1987 160.213 68.03 159.868 67.92C159.524 67.8027 159.153 67.744 158.757 67.744C158.354 67.744 157.984 67.8027 157.646 67.92C157.309 68.0373 157.008 68.2023 156.744 68.415C156.488 68.6203 156.271 68.866 156.095 69.152C155.919 69.438 155.795 69.7533 155.721 70.098C155.633 70.3547 155.512 70.527 155.358 70.615C155.212 70.6957 155.003 70.7177 154.731 70.681L153.708 70.505C153.811 69.7863 154.009 69.152 154.302 68.602C154.603 68.0447 154.977 67.579 155.424 67.205C155.879 66.831 156.396 66.5487 156.975 66.358C157.555 66.16 158.182 66.061 158.856 66.061C159.524 66.061 160.147 66.16 160.726 66.358C161.306 66.556 161.808 66.8457 162.233 67.227C162.659 67.601 162.992 68.0593 163.234 68.602C163.476 69.1447 163.597 69.7607 163.597 70.45C163.597 71.0367 163.509 71.583 163.333 72.089C163.157 72.5877 162.919 73.0643 162.618 73.519C162.318 73.9737 161.969 74.4173 161.573 74.85C161.185 75.2827 160.77 75.719 160.33 76.159L156.172 80.405C156.466 80.3243 156.763 80.262 157.063 80.218C157.364 80.1667 157.654 80.141 157.932 80.141H163.212ZM183.825 78.744C183.942 78.744 184.045 78.7917 184.133 78.887L184.98 79.8C184.335 80.548 183.55 81.131 182.626 81.549C181.709 81.967 180.598 82.176 179.293 82.176C178.164 82.176 177.137 81.9817 176.213 81.593C175.289 81.197 174.501 80.647 173.848 79.943C173.195 79.2317 172.689 78.381 172.33 77.391C171.971 76.401 171.791 75.312 171.791 74.124C171.791 72.936 171.978 71.847 172.352 70.857C172.726 69.867 173.25 69.0163 173.925 68.305C174.607 67.5937 175.421 67.0437 176.367 66.655C177.313 66.259 178.358 66.061 179.502 66.061C180.624 66.061 181.614 66.2407 182.472 66.6C183.33 66.9593 184.085 67.447 184.738 68.063L184.034 69.042C183.99 69.1153 183.931 69.1777 183.858 69.229C183.792 69.273 183.7 69.295 183.583 69.295C183.451 69.295 183.29 69.2253 183.099 69.086C182.908 68.9393 182.659 68.778 182.351 68.602C182.043 68.426 181.658 68.2683 181.196 68.129C180.734 67.9823 180.166 67.909 179.491 67.909C178.677 67.909 177.933 68.052 177.258 68.338C176.583 68.6167 176 69.0237 175.509 69.559C175.025 70.0943 174.647 70.747 174.376 71.517C174.105 72.287 173.969 73.156 173.969 74.124C173.969 75.1067 174.108 75.983 174.387 76.753C174.673 77.523 175.058 78.1757 175.542 78.711C176.033 79.239 176.609 79.6423 177.269 79.921C177.936 80.1997 178.655 80.339 179.425 80.339C179.894 80.339 180.316 80.3133 180.69 80.262C181.071 80.2033 181.42 80.1153 181.735 79.998C182.058 79.8807 182.355 79.734 182.626 79.558C182.905 79.3747 183.18 79.1583 183.451 78.909C183.576 78.799 183.7 78.744 183.825 78.744ZM191.475 70.681C192.289 70.681 193.022 70.8167 193.675 71.088C194.327 71.3593 194.885 71.7443 195.347 72.243C195.809 72.7417 196.161 73.3467 196.403 74.058C196.652 74.762 196.777 75.5503 196.777 76.423C196.777 77.303 196.652 78.095 196.403 78.799C196.161 79.503 195.809 80.1043 195.347 80.603C194.885 81.1017 194.327 81.4867 193.675 81.758C193.022 82.022 192.289 82.154 191.475 82.154C190.653 82.154 189.913 82.022 189.253 81.758C188.6 81.4867 188.043 81.1017 187.581 80.603C187.119 80.1043 186.763 79.503 186.514 78.799C186.272 78.095 186.151 77.303 186.151 76.423C186.151 75.5503 186.272 74.762 186.514 74.058C186.763 73.3467 187.119 72.7417 187.581 72.243C188.043 71.7443 188.6 71.3593 189.253 71.088C189.913 70.8167 190.653 70.681 191.475 70.681ZM191.475 80.625C192.575 80.625 193.396 80.2583 193.939 79.525C194.481 78.7843 194.753 77.754 194.753 76.434C194.753 75.1067 194.481 74.0727 193.939 73.332C193.396 72.5913 192.575 72.221 191.475 72.221C190.917 72.221 190.43 72.3163 190.012 72.507C189.601 72.6977 189.256 72.9727 188.978 73.332C188.706 73.6913 188.501 74.135 188.362 74.663C188.23 75.1837 188.164 75.774 188.164 76.434C188.164 77.754 188.435 78.7843 188.978 79.525C189.528 80.2583 190.36 80.625 191.475 80.625ZM201.108 72.474C201.35 72.2027 201.607 71.957 201.878 71.737C202.149 71.517 202.435 71.33 202.736 71.176C203.044 71.0147 203.367 70.8937 203.704 70.813C204.049 70.725 204.419 70.681 204.815 70.681C205.424 70.681 205.959 70.7837 206.421 70.989C206.89 71.187 207.279 71.473 207.587 71.847C207.902 72.2137 208.141 72.6573 208.302 73.178C208.463 73.6987 208.544 74.2743 208.544 74.905V82H206.575V74.905C206.575 74.0617 206.381 73.409 205.992 72.947C205.611 72.4777 205.028 72.243 204.243 72.243C203.664 72.243 203.121 72.3823 202.615 72.661C202.116 72.9397 201.654 73.3173 201.229 73.794V82H199.26V70.857H200.437C200.716 70.857 200.888 70.9927 200.954 71.264L201.108 72.474ZM212.104 82V72.529L210.872 72.386C210.71 72.3493 210.582 72.2943 210.487 72.221C210.391 72.1403 210.344 72.0267 210.344 71.88V71.077H212.104V70.483C212.104 69.867 212.195 69.284 212.379 68.734C212.569 68.1767 212.855 67.6927 213.237 67.282C213.618 66.8713 214.095 66.545 214.667 66.303C215.239 66.061 215.906 65.94 216.669 65.94C217.233 65.94 217.776 65.962 218.297 66.006C218.825 66.05 219.334 66.0757 219.826 66.083H221.157V82H219.21V67.458C218.814 67.4433 218.414 67.425 218.011 67.403C217.615 67.381 217.266 67.37 216.966 67.37C216.012 67.37 215.279 67.645 214.766 68.195C214.26 68.7377 214.007 69.5003 214.007 70.483V71.077H216.9V72.496H214.062V82H212.104ZM233.495 70.857V82H232.329C232.051 82 231.875 81.8643 231.801 81.593L231.647 80.394C231.163 80.9293 230.621 81.362 230.019 81.692C229.418 82.0147 228.729 82.176 227.951 82.176C227.343 82.176 226.804 82.077 226.334 81.879C225.872 81.6737 225.484 81.3877 225.168 81.021C224.853 80.6543 224.615 80.2107 224.453 79.69C224.299 79.1693 224.222 78.5937 224.222 77.963V70.857H226.18V77.963C226.18 78.8063 226.371 79.459 226.752 79.921C227.141 80.383 227.731 80.614 228.523 80.614C229.103 80.614 229.642 80.4783 230.14 80.207C230.646 79.9283 231.112 79.547 231.537 79.063V70.857H233.495ZM245.752 82H243.871C243.709 82 243.581 81.9597 243.486 81.879C243.398 81.791 243.324 81.6957 243.266 81.593L240.461 77.226C240.431 77.3287 240.398 77.4313 240.362 77.534C240.332 77.6293 240.288 77.7173 240.23 77.798L237.634 81.593C237.56 81.6957 237.48 81.791 237.392 81.879C237.311 81.9597 237.197 82 237.051 82H235.302L239.207 76.28L235.456 70.857H237.337C237.498 70.857 237.615 70.8827 237.689 70.934C237.762 70.9853 237.828 71.0587 237.887 71.154L240.626 75.334C240.684 75.1213 240.776 74.916 240.901 74.718L243.299 71.198C243.365 71.0953 243.434 71.0147 243.508 70.956C243.588 70.89 243.684 70.857 243.794 70.857H245.598L241.847 76.181L245.752 82ZM255.782 82H253.648V66.237H255.782V82ZM273.476 74.124C273.476 75.3047 273.289 76.379 272.915 77.347C272.541 78.315 272.013 79.1437 271.331 79.833C270.649 80.5223 269.827 81.0577 268.867 81.439C267.913 81.813 266.857 82 265.699 82H259.814V66.237H265.699C266.857 66.237 267.913 66.4277 268.867 66.809C269.827 67.183 270.649 67.7183 271.331 68.415C272.013 69.1043 272.541 69.933 272.915 70.901C273.289 71.869 273.476 72.9433 273.476 74.124ZM271.287 74.124C271.287 73.156 271.155 72.2907 270.891 71.528C270.627 70.7653 270.253 70.12 269.769 69.592C269.285 69.064 268.698 68.6607 268.009 68.382C267.319 68.1033 266.549 67.964 265.699 67.964H261.948V80.273H265.699C266.549 80.273 267.319 80.1337 268.009 79.855C268.698 79.5763 269.285 79.1767 269.769 78.656C270.253 78.128 270.627 77.4827 270.891 76.72C271.155 75.9573 271.287 75.092 271.287 74.124ZM286.274 80.262L286.263 82H276.55V66.237H286.263V67.975H278.684V73.211H284.822V74.883H278.684V80.262H286.274ZM298.146 65.214C300.104 68.316 303.888 71.572 307.408 73.442C307.694 72.958 308.09 72.364 308.508 71.968C304.988 70.362 301.16 67.128 298.916 63.52H297.178C295.528 66.644 291.92 70.208 288.026 72.232C288.4 72.584 288.862 73.178 289.06 73.596C292.844 71.484 296.386 68.162 298.146 65.214ZM301.248 71.286V83.738H302.942V71.286H301.248ZM293.394 71.374V74.41C293.394 77.138 292.998 80.262 288.862 82.616C289.28 82.88 289.918 83.43 290.182 83.782C294.604 81.186 295.088 77.578 295.088 74.454V71.374H293.394ZM310.708 77.996C310.708 77.666 311.808 77.204 311.808 77.204V77.16C314.052 75.048 316.318 72.1 318.21 69.086L316.89 68.25C315.218 71.242 312.754 74.3 311.962 75.092C311.236 75.906 310.686 76.434 310.202 76.522C310.378 76.94 310.642 77.688 310.708 77.996ZM310.708 77.996C311.192 77.71 312.006 77.512 318.188 76.258C318.166 75.928 318.144 75.312 318.188 74.894L311.456 76.126L310.642 76.698L310.708 77.996ZM310.532 72.716C310.532 72.386 311.522 71.858 311.522 71.858V71.836C313.15 69.834 314.778 67.018 315.988 64.312L314.492 63.586C313.524 66.226 311.83 69.086 311.302 69.812C310.796 70.56 310.422 71.066 310.004 71.176C310.202 71.594 310.444 72.364 310.532 72.716ZM310.532 72.716C310.928 72.518 311.566 72.386 315.724 71.858C315.746 71.528 315.768 70.956 315.856 70.538L311.302 71L310.51 71.506L310.532 72.716ZM310.136 80.834L310.444 82.418C312.578 81.89 315.416 81.186 318.188 80.504L318.012 79.096C315.108 79.778 312.094 80.438 310.136 80.834ZM319.86 81.186V82.682H328.572V81.186H319.86ZM318.474 64.62V66.116H328.726V64.62H318.474ZM319.288 74.718V83.738H320.85V76.214H327.648V83.672H329.276V74.718H319.288ZM328 64.62V64.884C327.78 69.46 327.56 71.176 327.164 71.616C326.966 71.814 326.812 71.836 326.438 71.836C326.086 71.836 325.162 71.836 324.194 71.748C324.458 72.166 324.634 72.826 324.678 73.266C325.646 73.332 326.636 73.332 327.164 73.266C327.758 73.222 328.154 73.068 328.528 72.65C329.078 71.99 329.32 70.164 329.562 65.302C329.584 65.082 329.606 64.62 329.606 64.62H328ZM322.28 65.126C321.972 68.25 321.158 71.154 317.704 72.628C318.056 72.892 318.518 73.486 318.716 73.86C322.522 72.1 323.512 68.844 323.93 65.126H322.28Z" fill="white"/>
</svg>
