<svg width="406" height="228" viewBox="0 0 406 228" fill="none" xmlns="http://www.w3.org/2000/svg">
<rect width="406" height="228" fill="black"/>
<path d="M67.9859 66.237L63.0689 82H61.1549L57.1619 69.977C57.1252 69.8597 57.0886 69.735 57.0519 69.603C57.0226 69.471 56.9896 69.3317 56.9529 69.185C56.9162 69.3317 56.8796 69.471 56.8429 69.603C56.8062 69.735 56.7696 69.8597 56.7329 69.977L52.7179 82H50.8039L45.8869 66.237H47.6579C47.8486 66.237 48.0062 66.2847 48.1309 66.38C48.2629 66.4753 48.3472 66.5963 48.3839 66.743L51.6399 77.699C51.6912 77.897 51.7389 78.1097 51.7829 78.337C51.8342 78.5643 51.8819 78.8063 51.9259 79.063C51.9772 78.8063 52.0286 78.5643 52.0799 78.337C52.1386 78.1023 52.2009 77.8897 52.2669 77.699L55.9739 66.743C56.0179 66.6183 56.1022 66.5047 56.2269 66.402C56.3589 66.292 56.5166 66.237 56.6999 66.237H57.3159C57.5066 66.237 57.6606 66.2847 57.7779 66.38C57.8952 66.4753 57.9832 66.5963 58.0419 66.743L61.7379 77.699C61.8039 77.8897 61.8626 78.095 61.9139 78.315C61.9726 78.535 62.0276 78.766 62.0789 79.008C62.1156 78.766 62.1559 78.535 62.1999 78.315C62.2439 78.095 62.2916 77.8897 62.3429 77.699L65.6099 66.743C65.6466 66.611 65.7272 66.4937 65.8519 66.391C65.9839 66.2883 66.1416 66.237 66.3249 66.237H67.9859ZM69.7493 70.505C69.852 69.7863 70.05 69.152 70.3433 68.602C70.6367 68.0447 71.007 67.579 71.4543 67.205C71.909 66.831 72.426 66.5487 73.0053 66.358C73.592 66.16 74.2227 66.061 74.8973 66.061C75.5647 66.061 76.1807 66.1563 76.7453 66.347C77.31 66.5377 77.794 66.809 78.1973 67.161C78.608 67.513 78.927 67.9383 79.1543 68.437C79.3817 68.9357 79.4953 69.4893 79.4953 70.098C79.4953 70.5967 79.4293 71.044 79.2973 71.44C79.1727 71.8287 78.9893 72.1697 78.7473 72.463C78.5127 72.7563 78.2267 73.0057 77.8893 73.211C77.552 73.4163 77.1743 73.585 76.7563 73.717C77.783 73.981 78.553 74.4357 79.0663 75.081C79.587 75.719 79.8473 76.5183 79.8473 77.479C79.8473 78.205 79.708 78.8577 79.4293 79.437C79.158 80.0163 78.784 80.5113 78.3073 80.922C77.8307 81.3253 77.2733 81.637 76.6353 81.857C76.0047 82.0697 75.3263 82.176 74.6003 82.176C73.7643 82.176 73.0493 82.0733 72.4553 81.868C71.8613 81.6553 71.359 81.3657 70.9483 80.999C70.5377 80.6323 70.2003 80.1997 69.9363 79.701C69.6723 79.195 69.4487 78.6487 69.2653 78.062L70.1123 77.71C70.3323 77.6147 70.545 77.589 70.7503 77.633C70.963 77.677 71.117 77.798 71.2123 77.996C71.3077 78.2013 71.425 78.447 71.5643 78.733C71.711 79.019 71.909 79.294 72.1583 79.558C72.4077 79.822 72.723 80.0457 73.1043 80.229C73.493 80.4123 73.9843 80.504 74.5783 80.504C75.1283 80.504 75.6087 80.416 76.0193 80.24C76.4373 80.0567 76.782 79.822 77.0533 79.536C77.332 79.25 77.541 78.931 77.6803 78.579C77.8197 78.227 77.8893 77.8787 77.8893 77.534C77.8893 77.1087 77.8343 76.72 77.7243 76.368C77.6143 76.016 77.409 75.7117 77.1083 75.455C76.8077 75.1983 76.3933 74.9967 75.8653 74.85C75.3447 74.7033 74.6737 74.63 73.8523 74.63V73.211C74.527 73.2037 75.099 73.1303 75.5683 72.991C76.045 72.8517 76.43 72.661 76.7233 72.419C77.024 72.177 77.2403 71.8873 77.3723 71.55C77.5117 71.2127 77.5813 70.8387 77.5813 70.428C77.5813 69.9733 77.508 69.5773 77.3613 69.24C77.222 68.9027 77.0277 68.624 76.7783 68.404C76.529 68.184 76.232 68.019 75.8873 67.909C75.55 67.799 75.1833 67.744 74.7873 67.744C74.3913 67.744 74.021 67.8027 73.6763 67.92C73.339 68.0373 73.0383 68.2023 72.7743 68.415C72.5177 68.6203 72.3013 68.866 72.1253 69.152C71.9493 69.438 71.8247 69.7533 71.7513 70.098C71.656 70.3547 71.535 70.527 71.3883 70.615C71.249 70.6957 71.0437 70.7177 70.7723 70.681L69.7493 70.505ZM88.085 74.575H93.519V76.236H88.085V74.575ZM111.459 80.207V82H102.516V66.237H104.639V80.207H111.459ZM115.786 72.188C116.607 72.012 117.362 71.924 118.052 71.924C118.873 71.924 119.599 72.045 120.23 72.287C120.86 72.529 121.385 72.8627 121.803 73.288C122.228 73.7133 122.547 74.2157 122.76 74.795C122.98 75.3743 123.09 76.005 123.09 76.687C123.09 77.523 122.943 78.2783 122.65 78.953C122.364 79.6277 121.964 80.207 121.451 80.691C120.945 81.1677 120.347 81.5343 119.658 81.791C118.968 82.0477 118.224 82.176 117.425 82.176C116.963 82.176 116.519 82.1283 116.094 82.033C115.668 81.945 115.269 81.824 114.895 81.67C114.528 81.516 114.187 81.34 113.872 81.142C113.556 80.944 113.278 80.735 113.036 80.515L113.641 79.679C113.773 79.4883 113.945 79.393 114.158 79.393C114.304 79.393 114.469 79.4517 114.653 79.569C114.836 79.679 115.06 79.8037 115.324 79.943C115.588 80.0823 115.896 80.2107 116.248 80.328C116.607 80.438 117.032 80.493 117.524 80.493C118.074 80.493 118.569 80.405 119.009 80.229C119.449 80.053 119.826 79.8037 120.142 79.481C120.457 79.151 120.699 78.7587 120.868 78.304C121.036 77.8493 121.121 77.3397 121.121 76.775C121.121 76.2837 121.047 75.84 120.901 75.444C120.761 75.048 120.545 74.7107 120.252 74.432C119.966 74.1533 119.606 73.937 119.174 73.783C118.741 73.629 118.235 73.552 117.656 73.552C117.26 73.552 116.845 73.585 116.413 73.651C115.987 73.717 115.551 73.8233 115.104 73.97L113.872 73.607L115.137 66.237H122.606V67.095C122.606 67.3737 122.518 67.6047 122.342 67.788C122.173 67.964 121.88 68.052 121.462 68.052H116.512L115.786 72.188ZM143.273 78.744C143.391 78.744 143.493 78.7917 143.581 78.887L144.428 79.8C143.783 80.548 142.998 81.131 142.074 81.549C141.158 81.967 140.047 82.176 138.741 82.176C137.612 82.176 136.585 81.9817 135.661 81.593C134.737 81.197 133.949 80.647 133.296 79.943C132.644 79.2317 132.138 78.381 131.778 77.391C131.419 76.401 131.239 75.312 131.239 74.124C131.239 72.936 131.426 71.847 131.8 70.857C132.174 69.867 132.699 69.0163 133.373 68.305C134.055 67.5937 134.869 67.0437 135.815 66.655C136.761 66.259 137.806 66.061 138.95 66.061C140.072 66.061 141.062 66.2407 141.92 66.6C142.778 66.9593 143.534 67.447 144.186 68.063L143.482 69.042C143.438 69.1153 143.38 69.1777 143.306 69.229C143.24 69.273 143.149 69.295 143.031 69.295C142.899 69.295 142.738 69.2253 142.547 69.086C142.357 68.9393 142.107 68.778 141.799 68.602C141.491 68.426 141.106 68.2683 140.644 68.129C140.182 67.9823 139.614 67.909 138.939 67.909C138.125 67.909 137.381 68.052 136.706 68.338C136.032 68.6167 135.449 69.0237 134.957 69.559C134.473 70.0943 134.096 70.747 133.824 71.517C133.553 72.287 133.417 73.156 133.417 74.124C133.417 75.1067 133.557 75.983 133.835 76.753C134.121 77.523 134.506 78.1757 134.99 78.711C135.482 79.239 136.057 79.6423 136.717 79.921C137.385 80.1997 138.103 80.339 138.873 80.339C139.343 80.339 139.764 80.3133 140.138 80.262C140.52 80.2033 140.868 80.1153 141.183 79.998C141.506 79.8807 141.803 79.734 142.074 79.558C142.353 79.3747 142.628 79.1583 142.899 78.909C143.024 78.799 143.149 78.744 143.273 78.744ZM150.923 70.681C151.737 70.681 152.47 70.8167 153.123 71.088C153.775 71.3593 154.333 71.7443 154.795 72.243C155.257 72.7417 155.609 73.3467 155.851 74.058C156.1 74.762 156.225 75.5503 156.225 76.423C156.225 77.303 156.1 78.095 155.851 78.799C155.609 79.503 155.257 80.1043 154.795 80.603C154.333 81.1017 153.775 81.4867 153.123 81.758C152.47 82.022 151.737 82.154 150.923 82.154C150.101 82.154 149.361 82.022 148.701 81.758C148.048 81.4867 147.491 81.1017 147.029 80.603C146.567 80.1043 146.211 79.503 145.962 78.799C145.72 78.095 145.599 77.303 145.599 76.423C145.599 75.5503 145.72 74.762 145.962 74.058C146.211 73.3467 146.567 72.7417 147.029 72.243C147.491 71.7443 148.048 71.3593 148.701 71.088C149.361 70.8167 150.101 70.681 150.923 70.681ZM150.923 80.625C152.023 80.625 152.844 80.2583 153.387 79.525C153.929 78.7843 154.201 77.754 154.201 76.434C154.201 75.1067 153.929 74.0727 153.387 73.332C152.844 72.5913 152.023 72.221 150.923 72.221C150.365 72.221 149.878 72.3163 149.46 72.507C149.049 72.6977 148.704 72.9727 148.426 73.332C148.154 73.6913 147.949 74.135 147.81 74.663C147.678 75.1837 147.612 75.774 147.612 76.434C147.612 77.754 147.883 78.7843 148.426 79.525C148.976 80.2583 149.808 80.625 150.923 80.625ZM160.556 72.474C160.798 72.2027 161.055 71.957 161.326 71.737C161.598 71.517 161.884 71.33 162.184 71.176C162.492 71.0147 162.815 70.8937 163.152 70.813C163.497 70.725 163.867 70.681 164.263 70.681C164.872 70.681 165.407 70.7837 165.869 70.989C166.339 71.187 166.727 71.473 167.035 71.847C167.351 72.2137 167.589 72.6573 167.75 73.178C167.912 73.6987 167.992 74.2743 167.992 74.905V82H166.023V74.905C166.023 74.0617 165.829 73.409 165.44 72.947C165.059 72.4777 164.476 72.243 163.691 72.243C163.112 72.243 162.569 72.3823 162.063 72.661C161.565 72.9397 161.103 73.3173 160.677 73.794V82H158.708V70.857H159.885C160.164 70.857 160.336 70.9927 160.402 71.264L160.556 72.474ZM171.552 82V72.529L170.32 72.386C170.159 72.3493 170.03 72.2943 169.935 72.221C169.84 72.1403 169.792 72.0267 169.792 71.88V71.077H171.552V70.483C171.552 69.867 171.644 69.284 171.827 68.734C172.018 68.1767 172.304 67.6927 172.685 67.282C173.066 66.8713 173.543 66.545 174.115 66.303C174.687 66.061 175.354 65.94 176.117 65.94C176.682 65.94 177.224 65.962 177.745 66.006C178.273 66.05 178.783 66.0757 179.274 66.083H180.605V82H178.658V67.458C178.262 67.4433 177.862 67.425 177.459 67.403C177.063 67.381 176.715 67.37 176.414 67.37C175.461 67.37 174.727 67.645 174.214 68.195C173.708 68.7377 173.455 69.5003 173.455 70.483V71.077H176.348V72.496H173.51V82H171.552ZM192.943 70.857V82H191.777C191.499 82 191.323 81.8643 191.249 81.593L191.095 80.394C190.611 80.9293 190.069 81.362 189.467 81.692C188.866 82.0147 188.177 82.176 187.399 82.176C186.791 82.176 186.252 82.077 185.782 81.879C185.32 81.6737 184.932 81.3877 184.616 81.021C184.301 80.6543 184.063 80.2107 183.901 79.69C183.747 79.1693 183.67 78.5937 183.67 77.963V70.857H185.628V77.963C185.628 78.8063 185.819 79.459 186.2 79.921C186.589 80.383 187.179 80.614 187.971 80.614C188.551 80.614 189.09 80.4783 189.588 80.207C190.094 79.9283 190.56 79.547 190.985 79.063V70.857H192.943ZM205.2 82H203.319C203.158 82 203.029 81.9597 202.934 81.879C202.846 81.791 202.773 81.6957 202.714 81.593L199.909 77.226C199.88 77.3287 199.847 77.4313 199.81 77.534C199.781 77.6293 199.737 77.7173 199.678 77.798L197.082 81.593C197.009 81.6957 196.928 81.791 196.84 81.879C196.759 81.9597 196.646 82 196.499 82H194.75L198.655 76.28L194.904 70.857H196.785C196.946 70.857 197.064 70.8827 197.137 70.934C197.21 70.9853 197.276 71.0587 197.335 71.154L200.074 75.334C200.133 75.1213 200.224 74.916 200.349 74.718L202.747 71.198C202.813 71.0953 202.883 71.0147 202.956 70.956C203.037 70.89 203.132 70.857 203.242 70.857H205.046L201.295 76.181L205.2 82ZM209.744 74.696V83.76H211.35V76.06H221.602V83.716H223.296V74.696H209.744ZM210.668 78.128V79.404H222.218V78.128H210.668ZM208.908 65.346V66.688H215.926V65.346H208.908ZM206.532 68.8V70.142H216.498V68.8H206.532ZM210.668 81.582V82.946H222.218V81.582H210.668ZM211.108 65.83V67.986C211.108 69.724 210.778 72.298 206.334 74.058C206.708 74.322 207.17 74.85 207.39 75.18C212.054 73.09 212.692 70.142 212.692 68.008V65.83H211.108ZM209.018 63.454C208.534 65.126 207.654 66.776 206.532 67.898C206.906 68.052 207.566 68.47 207.852 68.69C208.93 67.48 209.942 65.654 210.514 63.762L209.018 63.454ZM212.208 70.472L211.13 71.198C212.076 71.792 214.364 73.42 215.178 74.102L216.322 72.958C215.684 72.518 213 70.89 212.208 70.472ZM218.962 66.798H223.538V71.484H218.962V66.798ZM217.422 65.324V73.002H225.166V65.324H217.422ZM232.008 63.52C231.48 65.126 230.446 67.436 229.61 68.844L231.018 69.262C231.898 67.876 232.932 65.742 233.724 63.916L232.008 63.52ZM228.312 68.184L228.466 69.79C230.864 69.658 234.274 69.482 237.552 69.284L237.574 67.81C234.12 67.964 230.622 68.118 228.312 68.184ZM229.654 71.374V83.738H231.194V72.782H236.628V71.374H229.654ZM235.88 71.374V81.846C235.88 82.132 235.792 82.198 235.506 82.198C235.198 82.22 234.252 82.242 233.218 82.198C233.438 82.616 233.68 83.276 233.768 83.716C235.154 83.716 236.122 83.694 236.738 83.43C237.332 83.166 237.508 82.704 237.508 81.868V71.374H235.88ZM230.38 74.652V75.95H236.738V74.652H230.38ZM230.38 77.952V79.272H236.738V77.952H230.38ZM239.576 63.564V70.868C239.576 72.694 240.126 73.2 242.238 73.2C242.678 73.2 245.56 73.2 246.022 73.2C247.804 73.2 248.288 72.474 248.486 69.79C248.002 69.68 247.342 69.438 246.99 69.152C246.902 71.33 246.748 71.704 245.89 71.704C245.252 71.704 242.854 71.704 242.392 71.704C241.38 71.704 241.204 71.55 241.204 70.846V63.564H239.576ZM246.308 65.192C244.812 65.962 242.304 66.93 240.126 67.612C240.324 67.942 240.544 68.426 240.632 68.778C242.898 68.14 245.538 67.282 247.408 66.402L246.308 65.192ZM239.576 73.794V81.252C239.576 83.078 240.148 83.584 242.282 83.584C242.744 83.584 245.714 83.584 246.198 83.584C248.046 83.584 248.53 82.792 248.75 79.822C248.288 79.734 247.628 79.47 247.254 79.206C247.144 81.692 247.012 82.11 246.066 82.11C245.406 82.11 242.92 82.11 242.458 82.11C241.402 82.11 241.204 81.978 241.204 81.23V73.794H239.576ZM246.572 75.004C245.076 75.972 242.414 76.984 240.126 77.644C240.302 77.974 240.544 78.502 240.632 78.832C243.008 78.194 245.824 77.292 247.672 76.236L246.572 75.004ZM234.758 65.61C235.924 67.172 237.112 69.284 237.574 70.626L239.026 69.988C238.52 68.624 237.288 66.6 236.122 65.06L234.758 65.61ZM254.91 70.714V72.188H266.02V70.714H254.91ZM254.514 81.406V82.88H266.306V81.406H254.514ZM253.766 74.96V83.782H255.372V76.456H265.558V83.782H267.23V74.96H253.766ZM260.388 65.214C262.456 68.03 266.328 71.132 269.782 72.936C270.068 72.452 270.464 71.88 270.882 71.484C267.362 69.922 263.512 66.864 261.136 63.586H259.464C257.726 66.424 254.052 69.79 250.18 71.748C250.554 72.1 250.994 72.694 251.214 73.068C254.976 71.022 258.584 67.898 260.388 65.214ZM272.928 77.974C272.928 77.622 274.006 77.138 274.006 77.138V77.116C276.25 74.982 278.538 72.034 280.408 69.042L279.044 68.206C277.394 71.176 274.93 74.256 274.16 75.026C273.456 75.818 272.906 76.368 272.422 76.478C272.598 76.874 272.84 77.644 272.928 77.974ZM272.928 77.974C273.434 77.688 274.248 77.512 280.518 76.478C280.474 76.126 280.452 75.51 280.474 75.07L273.72 76.06L272.862 76.61L272.928 77.974ZM272.774 72.672C272.774 72.342 273.852 71.814 273.852 71.814V71.77C275.458 69.812 277.13 66.996 278.406 64.268L276.844 63.608C275.832 66.248 274.094 69.042 273.566 69.79C273.06 70.516 272.642 71.022 272.224 71.11C272.422 71.55 272.686 72.342 272.774 72.672ZM272.774 72.672C273.17 72.474 273.83 72.364 278.23 71.88C278.208 71.572 278.274 70.956 278.34 70.56L273.544 71L272.752 71.484L272.774 72.672ZM272.312 80.856L272.576 82.44C274.842 82 277.9 81.384 280.848 80.768L280.738 79.316C277.636 79.91 274.424 80.526 272.312 80.856ZM282.96 67.568V69.108H290.814V67.568H282.96ZM290.154 67.568V67.942C289.912 77.468 289.582 81.032 288.9 81.802C288.658 82.088 288.416 82.154 287.998 82.132C287.492 82.132 286.238 82.132 284.852 82.022C285.138 82.462 285.358 83.144 285.38 83.606C286.59 83.672 287.866 83.694 288.592 83.628C289.362 83.562 289.846 83.364 290.33 82.726C291.166 81.692 291.43 78.348 291.738 68.426C291.738 68.206 291.738 67.568 291.738 67.568H290.154ZM283.884 63.542C283.18 66.534 281.97 69.526 280.452 71.44C280.826 71.638 281.53 72.122 281.816 72.364C283.334 70.274 284.632 67.106 285.49 63.85L283.884 63.542ZM282.388 72.892C284.016 74.322 285.842 76.346 286.656 77.688L287.866 76.654C287.052 75.29 285.16 73.332 283.532 71.968L282.388 72.892ZM294.18 75.246L294.62 76.852C296.556 76.236 299.086 75.422 301.462 74.652L301.198 73.134C298.602 73.948 295.94 74.784 294.18 75.246ZM294.51 68.162V69.702H301.132V68.162H294.51ZM297.282 63.542V81.78C297.282 82.088 297.172 82.176 296.908 82.176C296.644 82.176 295.786 82.176 294.84 82.154C295.06 82.616 295.258 83.32 295.302 83.738C296.732 83.76 297.568 83.694 298.118 83.43C298.668 83.144 298.866 82.682 298.866 81.78V63.542H297.282ZM301.66 68.25V69.768H310.746V68.25H301.66ZM301.66 73.882C304.058 75.224 307.182 77.182 308.7 78.436L309.69 77.138C308.128 75.906 304.938 74.014 302.584 72.76L301.66 73.882ZM309.954 68.25C309.866 77.93 309.514 83.76 312.506 83.76C313.892 83.76 314.442 82.924 314.618 79.976C314.222 79.844 313.606 79.536 313.254 79.228C313.188 81.45 313.012 82.176 312.616 82.176C311.34 82.176 311.406 77.38 311.626 68.25H309.954ZM305.004 63.52C305.202 73.2 304.96 79.25 299.504 82.484C299.856 82.792 300.472 83.518 300.67 83.826C306.346 80.02 306.742 73.904 306.632 63.498L305.004 63.52ZM325.024 64.862V66.446H335.826V64.862H325.024ZM331.448 71.418V81.626C331.448 82 331.316 82.088 330.876 82.11C330.48 82.132 329.006 82.132 327.444 82.088C327.686 82.572 327.906 83.254 327.972 83.716C330.128 83.716 331.382 83.694 332.13 83.452C332.878 83.188 333.12 82.682 333.12 81.648V71.418H331.448ZM324.056 70.934V72.496H336.464V70.934H324.056ZM319.656 72.628V83.826H321.306V71.286L321.108 71.198L319.656 72.628ZM322.208 68.228C320.69 70.758 318.27 73.31 315.982 74.938C316.334 75.246 316.906 75.972 317.148 76.302C319.458 74.454 322.054 71.616 323.77 68.822L322.208 68.228ZM321.306 63.52C320.184 65.104 318.05 67.084 316.224 68.316C316.51 68.646 316.95 69.284 317.192 69.636C319.15 68.228 321.416 66.094 322.89 64.158L321.306 63.52ZM341.282 64.752V66.27H358.2V64.752H341.282ZM340.336 64.752V71.11C340.336 74.564 340.138 79.426 338.202 82.88C338.62 83.034 339.324 83.452 339.632 83.716C341.656 80.108 341.964 74.762 341.964 71.132V64.752H340.336ZM345.572 72.98H354.724V75.048H345.572V72.98ZM345.572 69.746H354.724V71.748H345.572V69.746ZM343.944 68.426V76.346H356.396V68.426H343.944ZM349.312 75.532V81.956C349.312 82.22 349.224 82.33 348.872 82.33C348.542 82.352 347.42 82.352 346.122 82.308C346.32 82.748 346.562 83.342 346.628 83.782C348.322 83.782 349.4 83.782 350.082 83.518C350.72 83.298 350.918 82.858 350.918 81.978V75.532H349.312ZM349.136 65.94C349.004 66.842 348.652 68.184 348.366 69.064L349.994 69.284C350.324 68.492 350.72 67.282 351.05 66.138L349.136 65.94ZM352.81 78.216C354.482 79.536 356.374 81.45 357.232 82.748L358.574 81.824C357.694 80.526 355.736 78.678 354.064 77.402L352.81 78.216ZM345.594 77.49C344.582 79.118 342.954 80.79 341.326 81.868C341.722 82.088 342.382 82.55 342.69 82.836C344.296 81.648 346.034 79.8 347.2 77.93L345.594 77.49ZM201.95 96.142H210.134V98.98H201.95V96.142ZM201.95 91.984H210.134V94.778H201.95V91.984ZM200.454 90.554V100.41H211.718V90.554H200.454ZM200.168 102.984V104.502H212.026V102.984H200.168ZM198.474 107.538V109.034H212.752V107.538H198.474ZM192.49 91.016V92.578H199.354V91.016H192.49ZM192.732 97.374V98.936H199.046V97.374H192.732ZM192.27 105.8L192.666 107.494C194.624 106.834 197.132 105.998 199.53 105.184L199.244 103.6C196.692 104.458 194.052 105.316 192.27 105.8ZM195.24 91.632V105.58L196.824 105.272V91.632H195.24ZM205.316 91.236V99.706H205.206V108.22H206.878V99.706H206.768V91.236H205.316Z" fill="white"/>
</svg>
