<svg width="406" height="228" viewBox="0 0 406 228" fill="none" xmlns="http://www.w3.org/2000/svg">
<rect width="406" height="228" fill="black"/>
<path d="M78.9859 66.237L74.0689 82H72.1549L68.1619 69.977C68.1252 69.8597 68.0886 69.735 68.0519 69.603C68.0226 69.471 67.9896 69.3317 67.9529 69.185C67.9162 69.3317 67.8796 69.471 67.8429 69.603C67.8062 69.735 67.7696 69.8597 67.7329 69.977L63.7179 82H61.8039L56.8869 66.237H58.6579C58.8486 66.237 59.0062 66.2847 59.1309 66.38C59.2629 66.4753 59.3472 66.5963 59.3839 66.743L62.6399 77.699C62.6912 77.897 62.7389 78.1097 62.7829 78.337C62.8342 78.5643 62.8819 78.8063 62.9259 79.063C62.9772 78.8063 63.0286 78.5643 63.0799 78.337C63.1386 78.1023 63.2009 77.8897 63.2669 77.699L66.9739 66.743C67.0179 66.6183 67.1022 66.5047 67.2269 66.402C67.3589 66.292 67.5166 66.237 67.6999 66.237H68.3159C68.5066 66.237 68.6606 66.2847 68.7779 66.38C68.8952 66.4753 68.9832 66.5963 69.0419 66.743L72.7379 77.699C72.8039 77.8897 72.8626 78.095 72.9139 78.315C72.9726 78.535 73.0276 78.766 73.0789 79.008C73.1156 78.766 73.1559 78.535 73.1999 78.315C73.2439 78.095 73.2916 77.8897 73.3429 77.699L76.6099 66.743C76.6466 66.611 76.7272 66.4937 76.8519 66.391C76.9839 66.2883 77.1416 66.237 77.3249 66.237H78.9859ZM80.7493 70.505C80.852 69.7863 81.05 69.152 81.3433 68.602C81.6367 68.0447 82.007 67.579 82.4543 67.205C82.909 66.831 83.426 66.5487 84.0053 66.358C84.592 66.16 85.2227 66.061 85.8973 66.061C86.5647 66.061 87.1807 66.1563 87.7453 66.347C88.31 66.5377 88.794 66.809 89.1973 67.161C89.608 67.513 89.927 67.9383 90.1543 68.437C90.3817 68.9357 90.4953 69.4893 90.4953 70.098C90.4953 70.5967 90.4293 71.044 90.2973 71.44C90.1727 71.8287 89.9893 72.1697 89.7473 72.463C89.5127 72.7563 89.2267 73.0057 88.8893 73.211C88.552 73.4163 88.1743 73.585 87.7563 73.717C88.783 73.981 89.553 74.4357 90.0663 75.081C90.587 75.719 90.8473 76.5183 90.8473 77.479C90.8473 78.205 90.708 78.8577 90.4293 79.437C90.158 80.0163 89.784 80.5113 89.3073 80.922C88.8307 81.3253 88.2733 81.637 87.6353 81.857C87.0047 82.0697 86.3263 82.176 85.6003 82.176C84.7643 82.176 84.0493 82.0733 83.4553 81.868C82.8613 81.6553 82.359 81.3657 81.9483 80.999C81.5377 80.6323 81.2003 80.1997 80.9363 79.701C80.6723 79.195 80.4487 78.6487 80.2653 78.062L81.1123 77.71C81.3323 77.6147 81.545 77.589 81.7503 77.633C81.963 77.677 82.117 77.798 82.2123 77.996C82.3077 78.2013 82.425 78.447 82.5643 78.733C82.711 79.019 82.909 79.294 83.1583 79.558C83.4077 79.822 83.723 80.0457 84.1043 80.229C84.493 80.4123 84.9843 80.504 85.5783 80.504C86.1283 80.504 86.6087 80.416 87.0193 80.24C87.4373 80.0567 87.782 79.822 88.0533 79.536C88.332 79.25 88.541 78.931 88.6803 78.579C88.8197 78.227 88.8893 77.8787 88.8893 77.534C88.8893 77.1087 88.8343 76.72 88.7243 76.368C88.6143 76.016 88.409 75.7117 88.1083 75.455C87.8077 75.1983 87.3933 74.9967 86.8653 74.85C86.3447 74.7033 85.6737 74.63 84.8523 74.63V73.211C85.527 73.2037 86.099 73.1303 86.5683 72.991C87.045 72.8517 87.43 72.661 87.7233 72.419C88.024 72.177 88.2403 71.8873 88.3723 71.55C88.5117 71.2127 88.5813 70.8387 88.5813 70.428C88.5813 69.9733 88.508 69.5773 88.3613 69.24C88.222 68.9027 88.0277 68.624 87.7783 68.404C87.529 68.184 87.232 68.019 86.8873 67.909C86.55 67.799 86.1833 67.744 85.7873 67.744C85.3913 67.744 85.021 67.8027 84.6763 67.92C84.339 68.0373 84.0383 68.2023 83.7743 68.415C83.5177 68.6203 83.3013 68.866 83.1253 69.152C82.9493 69.438 82.8247 69.7533 82.7513 70.098C82.656 70.3547 82.535 70.527 82.3883 70.615C82.249 70.6957 82.0437 70.7177 81.7723 70.681L80.7493 70.505ZM99.085 74.575H104.519V76.236H99.085V74.575ZM122.459 80.207V82H113.516V66.237H115.639V80.207H122.459ZM129.162 80.548C129.69 80.548 130.166 80.4637 130.592 80.295C131.024 80.1263 131.391 79.8917 131.692 79.591C132 79.2903 132.234 78.9347 132.396 78.524C132.564 78.1133 132.649 77.666 132.649 77.182C132.649 76.6687 132.568 76.2067 132.407 75.796C132.245 75.378 132.014 75.026 131.714 74.74C131.42 74.4467 131.068 74.223 130.658 74.069C130.247 73.915 129.796 73.838 129.305 73.838C128.777 73.838 128.3 73.9297 127.875 74.113C127.449 74.289 127.086 74.531 126.786 74.839C126.492 75.1397 126.265 75.4917 126.104 75.895C125.95 76.291 125.873 76.7053 125.873 77.138C125.873 77.644 125.946 78.106 126.093 78.524C126.239 78.942 126.452 79.3013 126.731 79.602C127.017 79.9027 127.361 80.1373 127.765 80.306C128.175 80.4673 128.641 80.548 129.162 80.548ZM128.018 72.144C127.878 72.32 127.743 72.4923 127.611 72.661C127.486 72.8223 127.365 72.9837 127.248 73.145C127.622 72.8883 128.032 72.6903 128.48 72.551C128.927 72.4117 129.415 72.342 129.943 72.342C130.581 72.342 131.182 72.4483 131.747 72.661C132.311 72.8663 132.803 73.1707 133.221 73.574C133.646 73.97 133.983 74.4613 134.233 75.048C134.482 75.6273 134.607 76.291 134.607 77.039C134.607 77.765 134.475 78.4397 134.211 79.063C133.947 79.6863 133.576 80.229 133.1 80.691C132.63 81.153 132.062 81.516 131.395 81.78C130.735 82.044 130.005 82.176 129.206 82.176C128.414 82.176 127.695 82.0513 127.05 81.802C126.404 81.5453 125.854 81.186 125.4 80.724C124.952 80.2547 124.604 79.69 124.355 79.03C124.113 78.3627 123.992 77.6183 123.992 76.797C123.992 76.1077 124.142 75.3743 124.443 74.597C124.751 73.8123 125.238 72.9763 125.906 72.089L129.91 66.71C130.012 66.578 130.152 66.468 130.328 66.38C130.511 66.2847 130.72 66.237 130.955 66.237H132.693L128.018 72.144ZM154.273 78.744C154.391 78.744 154.493 78.7917 154.581 78.887L155.428 79.8C154.783 80.548 153.998 81.131 153.074 81.549C152.158 81.967 151.047 82.176 149.741 82.176C148.612 82.176 147.585 81.9817 146.661 81.593C145.737 81.197 144.949 80.647 144.296 79.943C143.644 79.2317 143.138 78.381 142.778 77.391C142.419 76.401 142.239 75.312 142.239 74.124C142.239 72.936 142.426 71.847 142.8 70.857C143.174 69.867 143.699 69.0163 144.373 68.305C145.055 67.5937 145.869 67.0437 146.815 66.655C147.761 66.259 148.806 66.061 149.95 66.061C151.072 66.061 152.062 66.2407 152.92 66.6C153.778 66.9593 154.534 67.447 155.186 68.063L154.482 69.042C154.438 69.1153 154.38 69.1777 154.306 69.229C154.24 69.273 154.149 69.295 154.031 69.295C153.899 69.295 153.738 69.2253 153.547 69.086C153.357 68.9393 153.107 68.778 152.799 68.602C152.491 68.426 152.106 68.2683 151.644 68.129C151.182 67.9823 150.614 67.909 149.939 67.909C149.125 67.909 148.381 68.052 147.706 68.338C147.032 68.6167 146.449 69.0237 145.957 69.559C145.473 70.0943 145.096 70.747 144.824 71.517C144.553 72.287 144.417 73.156 144.417 74.124C144.417 75.1067 144.557 75.983 144.835 76.753C145.121 77.523 145.506 78.1757 145.99 78.711C146.482 79.239 147.057 79.6423 147.717 79.921C148.385 80.1997 149.103 80.339 149.873 80.339C150.343 80.339 150.764 80.3133 151.138 80.262C151.52 80.2033 151.868 80.1153 152.183 79.998C152.506 79.8807 152.803 79.734 153.074 79.558C153.353 79.3747 153.628 79.1583 153.899 78.909C154.024 78.799 154.149 78.744 154.273 78.744ZM161.923 70.681C162.737 70.681 163.47 70.8167 164.123 71.088C164.775 71.3593 165.333 71.7443 165.795 72.243C166.257 72.7417 166.609 73.3467 166.851 74.058C167.1 74.762 167.225 75.5503 167.225 76.423C167.225 77.303 167.1 78.095 166.851 78.799C166.609 79.503 166.257 80.1043 165.795 80.603C165.333 81.1017 164.775 81.4867 164.123 81.758C163.47 82.022 162.737 82.154 161.923 82.154C161.101 82.154 160.361 82.022 159.701 81.758C159.048 81.4867 158.491 81.1017 158.029 80.603C157.567 80.1043 157.211 79.503 156.962 78.799C156.72 78.095 156.599 77.303 156.599 76.423C156.599 75.5503 156.72 74.762 156.962 74.058C157.211 73.3467 157.567 72.7417 158.029 72.243C158.491 71.7443 159.048 71.3593 159.701 71.088C160.361 70.8167 161.101 70.681 161.923 70.681ZM161.923 80.625C163.023 80.625 163.844 80.2583 164.387 79.525C164.929 78.7843 165.201 77.754 165.201 76.434C165.201 75.1067 164.929 74.0727 164.387 73.332C163.844 72.5913 163.023 72.221 161.923 72.221C161.365 72.221 160.878 72.3163 160.46 72.507C160.049 72.6977 159.704 72.9727 159.426 73.332C159.154 73.6913 158.949 74.135 158.81 74.663C158.678 75.1837 158.612 75.774 158.612 76.434C158.612 77.754 158.883 78.7843 159.426 79.525C159.976 80.2583 160.808 80.625 161.923 80.625ZM171.556 72.474C171.798 72.2027 172.055 71.957 172.326 71.737C172.598 71.517 172.884 71.33 173.184 71.176C173.492 71.0147 173.815 70.8937 174.152 70.813C174.497 70.725 174.867 70.681 175.263 70.681C175.872 70.681 176.407 70.7837 176.869 70.989C177.339 71.187 177.727 71.473 178.035 71.847C178.351 72.2137 178.589 72.6573 178.75 73.178C178.912 73.6987 178.992 74.2743 178.992 74.905V82H177.023V74.905C177.023 74.0617 176.829 73.409 176.44 72.947C176.059 72.4777 175.476 72.243 174.691 72.243C174.112 72.243 173.569 72.3823 173.063 72.661C172.565 72.9397 172.103 73.3173 171.677 73.794V82H169.708V70.857H170.885C171.164 70.857 171.336 70.9927 171.402 71.264L171.556 72.474ZM182.552 82V72.529L181.32 72.386C181.159 72.3493 181.03 72.2943 180.935 72.221C180.84 72.1403 180.792 72.0267 180.792 71.88V71.077H182.552V70.483C182.552 69.867 182.644 69.284 182.827 68.734C183.018 68.1767 183.304 67.6927 183.685 67.282C184.066 66.8713 184.543 66.545 185.115 66.303C185.687 66.061 186.354 65.94 187.117 65.94C187.682 65.94 188.224 65.962 188.745 66.006C189.273 66.05 189.783 66.0757 190.274 66.083H191.605V82H189.658V67.458C189.262 67.4433 188.862 67.425 188.459 67.403C188.063 67.381 187.715 67.37 187.414 67.37C186.461 67.37 185.727 67.645 185.214 68.195C184.708 68.7377 184.455 69.5003 184.455 70.483V71.077H187.348V72.496H184.51V82H182.552ZM203.943 70.857V82H202.777C202.499 82 202.323 81.8643 202.249 81.593L202.095 80.394C201.611 80.9293 201.069 81.362 200.467 81.692C199.866 82.0147 199.177 82.176 198.399 82.176C197.791 82.176 197.252 82.077 196.782 81.879C196.32 81.6737 195.932 81.3877 195.616 81.021C195.301 80.6543 195.063 80.2107 194.901 79.69C194.747 79.1693 194.67 78.5937 194.67 77.963V70.857H196.628V77.963C196.628 78.8063 196.819 79.459 197.2 79.921C197.589 80.383 198.179 80.614 198.971 80.614C199.551 80.614 200.09 80.4783 200.588 80.207C201.094 79.9283 201.56 79.547 201.985 79.063V70.857H203.943ZM216.2 82H214.319C214.158 82 214.029 81.9597 213.934 81.879C213.846 81.791 213.773 81.6957 213.714 81.593L210.909 77.226C210.88 77.3287 210.847 77.4313 210.81 77.534C210.781 77.6293 210.737 77.7173 210.678 77.798L208.082 81.593C208.009 81.6957 207.928 81.791 207.84 81.879C207.759 81.9597 207.646 82 207.499 82H205.75L209.655 76.28L205.904 70.857H207.785C207.946 70.857 208.064 70.8827 208.137 70.934C208.21 70.9853 208.276 71.0587 208.335 71.154L211.074 75.334C211.133 75.1213 211.224 74.916 211.349 74.718L213.747 71.198C213.813 71.0953 213.883 71.0147 213.956 70.956C214.037 70.89 214.132 70.857 214.242 70.857H216.046L212.295 76.181L216.2 82ZM226.376 72.452C228.62 74.476 231.436 77.292 232.756 79.03L234.12 77.974C232.712 76.258 229.852 73.508 227.608 71.572L226.376 72.452ZM226.618 63.52V67.832C226.618 70.868 226.332 75.114 220.832 78.084C221.206 78.37 221.778 78.964 221.998 79.316C227.674 75.994 228.312 71.352 228.312 67.832V63.52H226.618ZM218.61 67.282V83.804H220.26V68.91H235.44V67.282H218.61ZM234.692 67.282V81.582C234.692 81.956 234.56 82.088 234.142 82.11C233.702 82.132 232.206 82.132 230.644 82.066C230.864 82.528 231.128 83.298 231.194 83.76C233.174 83.76 234.538 83.738 235.308 83.474C236.056 83.188 236.32 82.66 236.32 81.582V67.282H234.692ZM252.732 65.654H256.428V67.634H252.732V65.654ZM247.584 65.654H251.214V67.634H247.584V65.654ZM242.546 65.654H246.066V67.634H242.546V65.654ZM240.962 64.466V68.844H258.078V64.466H240.962ZM239.95 70.054V71.33H258.98V70.054H239.95ZM241.864 81.516V82.858H259.53V81.516H241.864ZM241.16 72.958V83.782H242.832V72.958H241.16ZM246.594 75.84H255.548V77.05H246.594V75.84ZM246.594 78.04H255.548V79.294H246.594V78.04ZM246.594 73.662H255.548V74.85H246.594V73.662ZM245.054 72.628V80.306H257.154V72.628H245.054ZM248.948 68.492C248.794 70.01 248.508 71.924 248.244 73.156H249.85C250.092 71.99 250.4 70.142 250.598 68.624L248.948 68.492ZM265.91 70.714V72.188H277.02V70.714H265.91ZM265.514 81.406V82.88H277.306V81.406H265.514ZM264.766 74.96V83.782H266.372V76.456H276.558V83.782H278.23V74.96H264.766ZM271.388 65.214C273.456 68.03 277.328 71.132 280.782 72.936C281.068 72.452 281.464 71.88 281.882 71.484C278.362 69.922 274.512 66.864 272.136 63.586H270.464C268.726 66.424 265.052 69.79 261.18 71.748C261.554 72.1 261.994 72.694 262.214 73.068C265.976 71.022 269.584 67.898 271.388 65.214ZM283.928 77.974C283.928 77.622 285.006 77.138 285.006 77.138V77.116C287.25 74.982 289.538 72.034 291.408 69.042L290.044 68.206C288.394 71.176 285.93 74.256 285.16 75.026C284.456 75.818 283.906 76.368 283.422 76.478C283.598 76.874 283.84 77.644 283.928 77.974ZM283.928 77.974C284.434 77.688 285.248 77.512 291.518 76.478C291.474 76.126 291.452 75.51 291.474 75.07L284.72 76.06L283.862 76.61L283.928 77.974ZM283.774 72.672C283.774 72.342 284.852 71.814 284.852 71.814V71.77C286.458 69.812 288.13 66.996 289.406 64.268L287.844 63.608C286.832 66.248 285.094 69.042 284.566 69.79C284.06 70.516 283.642 71.022 283.224 71.11C283.422 71.55 283.686 72.342 283.774 72.672ZM283.774 72.672C284.17 72.474 284.83 72.364 289.23 71.88C289.208 71.572 289.274 70.956 289.34 70.56L284.544 71L283.752 71.484L283.774 72.672ZM283.312 80.856L283.576 82.44C285.842 82 288.9 81.384 291.848 80.768L291.738 79.316C288.636 79.91 285.424 80.526 283.312 80.856ZM293.96 67.568V69.108H301.814V67.568H293.96ZM301.154 67.568V67.942C300.912 77.468 300.582 81.032 299.9 81.802C299.658 82.088 299.416 82.154 298.998 82.132C298.492 82.132 297.238 82.132 295.852 82.022C296.138 82.462 296.358 83.144 296.38 83.606C297.59 83.672 298.866 83.694 299.592 83.628C300.362 83.562 300.846 83.364 301.33 82.726C302.166 81.692 302.43 78.348 302.738 68.426C302.738 68.206 302.738 67.568 302.738 67.568H301.154ZM294.884 63.542C294.18 66.534 292.97 69.526 291.452 71.44C291.826 71.638 292.53 72.122 292.816 72.364C294.334 70.274 295.632 67.106 296.49 63.85L294.884 63.542ZM293.388 72.892C295.016 74.322 296.842 76.346 297.656 77.688L298.866 76.654C298.052 75.29 296.16 73.332 294.532 71.968L293.388 72.892ZM315.366 65.214C317.324 68.316 321.108 71.572 324.628 73.442C324.914 72.958 325.31 72.364 325.728 71.968C322.208 70.362 318.38 67.128 316.136 63.52H314.398C312.748 66.644 309.14 70.208 305.246 72.232C305.62 72.584 306.082 73.178 306.28 73.596C310.064 71.484 313.606 68.162 315.366 65.214ZM318.468 71.286V83.738H320.162V71.286H318.468ZM310.614 71.374V74.41C310.614 77.138 310.218 80.262 306.082 82.616C306.5 82.88 307.138 83.43 307.402 83.782C311.824 81.186 312.308 77.578 312.308 74.454V71.374H310.614ZM327.928 77.996C327.928 77.666 329.028 77.204 329.028 77.204V77.16C331.272 75.048 333.538 72.1 335.43 69.086L334.11 68.25C332.438 71.242 329.974 74.3 329.182 75.092C328.456 75.906 327.906 76.434 327.422 76.522C327.598 76.94 327.862 77.688 327.928 77.996ZM327.928 77.996C328.412 77.71 329.226 77.512 335.408 76.258C335.386 75.928 335.364 75.312 335.408 74.894L328.676 76.126L327.862 76.698L327.928 77.996ZM327.752 72.716C327.752 72.386 328.742 71.858 328.742 71.858V71.836C330.37 69.834 331.998 67.018 333.208 64.312L331.712 63.586C330.744 66.226 329.05 69.086 328.522 69.812C328.016 70.56 327.642 71.066 327.224 71.176C327.422 71.594 327.664 72.364 327.752 72.716ZM327.752 72.716C328.148 72.518 328.786 72.386 332.944 71.858C332.966 71.528 332.988 70.956 333.076 70.538L328.522 71L327.73 71.506L327.752 72.716ZM327.356 80.834L327.664 82.418C329.798 81.89 332.636 81.186 335.408 80.504L335.232 79.096C332.328 79.778 329.314 80.438 327.356 80.834ZM337.08 81.186V82.682H345.792V81.186H337.08ZM335.694 64.62V66.116H345.946V64.62H335.694ZM336.508 74.718V83.738H338.07V76.214H344.868V83.672H346.496V74.718H336.508ZM345.22 64.62V64.884C345 69.46 344.78 71.176 344.384 71.616C344.186 71.814 344.032 71.836 343.658 71.836C343.306 71.836 342.382 71.836 341.414 71.748C341.678 72.166 341.854 72.826 341.898 73.266C342.866 73.332 343.856 73.332 344.384 73.266C344.978 73.222 345.374 73.068 345.748 72.65C346.298 71.99 346.54 70.164 346.782 65.302C346.804 65.082 346.826 64.62 346.826 64.62H345.22ZM339.5 65.126C339.192 68.25 338.378 71.154 334.924 72.628C335.276 72.892 335.738 73.486 335.936 73.86C339.742 72.1 340.732 68.844 341.15 65.126H339.5Z" fill="white"/>
</svg>
