<svg width="406" height="228" viewBox="0 0 406 228" fill="none" xmlns="http://www.w3.org/2000/svg">
<rect width="406" height="228" fill="black"/>
<path d="M87.1177 66.237L82.2007 82H80.2867L76.2937 69.977C76.2571 69.8597 76.2204 69.735 76.1837 69.603C76.1544 69.471 76.1214 69.3317 76.0847 69.185C76.0481 69.3317 76.0114 69.471 75.9747 69.603C75.9381 69.735 75.9014 69.8597 75.8647 69.977L71.8497 82H69.9357L65.0187 66.237H66.7897C66.9804 66.237 67.1381 66.2847 67.2627 66.38C67.3947 66.4753 67.4791 66.5963 67.5157 66.743L70.7717 77.699C70.8231 77.897 70.8707 78.1097 70.9147 78.337C70.9661 78.5643 71.0137 78.8063 71.0577 79.063C71.1091 78.8063 71.1604 78.5643 71.2117 78.337C71.2704 78.1023 71.3327 77.8897 71.3987 77.699L75.1057 66.743C75.1497 66.6183 75.2341 66.5047 75.3587 66.402C75.4907 66.292 75.6484 66.237 75.8317 66.237H76.4477C76.6384 66.237 76.7924 66.2847 76.9097 66.38C77.0271 66.4753 77.1151 66.5963 77.1737 66.743L80.8697 77.699C80.9357 77.8897 80.9944 78.095 81.0457 78.315C81.1044 78.535 81.1594 78.766 81.2107 79.008C81.2474 78.766 81.2877 78.535 81.3317 78.315C81.3757 78.095 81.4234 77.8897 81.4747 77.699L84.7417 66.743C84.7784 66.611 84.8591 66.4937 84.9837 66.391C85.1157 66.2883 85.2734 66.237 85.4567 66.237H87.1177ZM88.8812 70.505C88.9838 69.7863 89.1818 69.152 89.4752 68.602C89.7685 68.0447 90.1388 67.579 90.5862 67.205C91.0408 66.831 91.5578 66.5487 92.1372 66.358C92.7238 66.16 93.3545 66.061 94.0292 66.061C94.6965 66.061 95.3125 66.1563 95.8772 66.347C96.4418 66.5377 96.9258 66.809 97.3292 67.161C97.7398 67.513 98.0588 67.9383 98.2862 68.437C98.5135 68.9357 98.6272 69.4893 98.6272 70.098C98.6272 70.5967 98.5612 71.044 98.4292 71.44C98.3045 71.8287 98.1212 72.1697 97.8792 72.463C97.6445 72.7563 97.3585 73.0057 97.0212 73.211C96.6838 73.4163 96.3062 73.585 95.8882 73.717C96.9148 73.981 97.6848 74.4357 98.1982 75.081C98.7188 75.719 98.9792 76.5183 98.9792 77.479C98.9792 78.205 98.8398 78.8577 98.5612 79.437C98.2898 80.0163 97.9158 80.5113 97.4392 80.922C96.9625 81.3253 96.4052 81.637 95.7672 81.857C95.1365 82.0697 94.4582 82.176 93.7322 82.176C92.8962 82.176 92.1812 82.0733 91.5872 81.868C90.9932 81.6553 90.4908 81.3657 90.0802 80.999C89.6695 80.6323 89.3322 80.1997 89.0682 79.701C88.8042 79.195 88.5805 78.6487 88.3972 78.062L89.2442 77.71C89.4642 77.6147 89.6768 77.589 89.8822 77.633C90.0948 77.677 90.2488 77.798 90.3442 77.996C90.4395 78.2013 90.5568 78.447 90.6962 78.733C90.8428 79.019 91.0408 79.294 91.2902 79.558C91.5395 79.822 91.8548 80.0457 92.2362 80.229C92.6248 80.4123 93.1162 80.504 93.7102 80.504C94.2602 80.504 94.7405 80.416 95.1512 80.24C95.5692 80.0567 95.9138 79.822 96.1852 79.536C96.4638 79.25 96.6728 78.931 96.8122 78.579C96.9515 78.227 97.0212 77.8787 97.0212 77.534C97.0212 77.1087 96.9662 76.72 96.8562 76.368C96.7462 76.016 96.5408 75.7117 96.2402 75.455C95.9395 75.1983 95.5252 74.9967 94.9972 74.85C94.4765 74.7033 93.8055 74.63 92.9842 74.63V73.211C93.6588 73.2037 94.2308 73.1303 94.7002 72.991C95.1768 72.8517 95.5618 72.661 95.8552 72.419C96.1558 72.177 96.3722 71.8873 96.5042 71.55C96.6435 71.2127 96.7132 70.8387 96.7132 70.428C96.7132 69.9733 96.6398 69.5773 96.4932 69.24C96.3538 68.9027 96.1595 68.624 95.9102 68.404C95.6608 68.184 95.3638 68.019 95.0192 67.909C94.6818 67.799 94.3152 67.744 93.9192 67.744C93.5232 67.744 93.1528 67.8027 92.8082 67.92C92.4708 68.0373 92.1702 68.2023 91.9062 68.415C91.6495 68.6203 91.4332 68.866 91.2572 69.152C91.0812 69.438 90.9565 69.7533 90.8832 70.098C90.7878 70.3547 90.6668 70.527 90.5202 70.615C90.3808 70.6957 90.1755 70.7177 89.9042 70.681L88.8812 70.505ZM107.217 74.575H112.651V76.236H107.217V74.575ZM130.591 80.207V82H121.648V66.237H123.771V80.207H130.591ZM142.827 66.237V67.117C142.827 67.3663 142.797 67.5717 142.739 67.733C142.687 67.8943 142.636 68.03 142.585 68.14L136.051 81.307C135.955 81.4977 135.823 81.6627 135.655 81.802C135.486 81.934 135.262 82 134.984 82H133.576L140.198 68.998C140.293 68.8147 140.392 68.646 140.495 68.492C140.597 68.338 140.707 68.1913 140.825 68.052H132.597C132.472 68.052 132.362 68.0043 132.267 67.909C132.171 67.8063 132.124 67.6927 132.124 67.568V66.237H142.827ZM144.918 80.79C144.918 80.5993 144.951 80.4197 145.017 80.251C145.091 80.0823 145.186 79.9357 145.303 79.811C145.428 79.6863 145.575 79.5873 145.743 79.514C145.912 79.4407 146.092 79.404 146.282 79.404C146.473 79.404 146.653 79.4407 146.821 79.514C146.99 79.5873 147.137 79.6863 147.261 79.811C147.386 79.9357 147.485 80.0823 147.558 80.251C147.632 80.4197 147.668 80.5993 147.668 80.79C147.668 80.988 147.632 81.1713 147.558 81.34C147.485 81.5013 147.386 81.6443 147.261 81.769C147.137 81.8937 146.99 81.989 146.821 82.055C146.653 82.1283 146.473 82.165 146.282 82.165C146.092 82.165 145.912 82.1283 145.743 82.055C145.575 81.989 145.428 81.8937 145.303 81.769C145.186 81.6443 145.091 81.5013 145.017 81.34C144.951 81.1713 144.918 80.988 144.918 80.79ZM159.753 80.141C159.966 80.141 160.135 80.2033 160.259 80.328C160.384 80.4527 160.446 80.614 160.446 80.812V82H149.93V81.329C149.93 81.1897 149.96 81.0467 150.018 80.9C150.077 80.7533 150.169 80.6177 150.293 80.493L155.342 75.422C155.76 74.9967 156.142 74.5897 156.486 74.201C156.831 73.805 157.124 73.409 157.366 73.013C157.608 72.617 157.795 72.2173 157.927 71.814C158.059 71.4033 158.125 70.967 158.125 70.505C158.125 70.043 158.052 69.6397 157.905 69.295C157.759 68.943 157.557 68.6533 157.3 68.426C157.051 68.1987 156.754 68.03 156.409 67.92C156.065 67.8027 155.694 67.744 155.298 67.744C154.895 67.744 154.525 67.8027 154.187 67.92C153.85 68.0373 153.549 68.2023 153.285 68.415C153.029 68.6203 152.812 68.866 152.636 69.152C152.46 69.438 152.336 69.7533 152.262 70.098C152.174 70.3547 152.053 70.527 151.899 70.615C151.753 70.6957 151.544 70.7177 151.272 70.681L150.249 70.505C150.352 69.7863 150.55 69.152 150.843 68.602C151.144 68.0447 151.518 67.579 151.965 67.205C152.42 66.831 152.937 66.5487 153.516 66.358C154.096 66.16 154.723 66.061 155.397 66.061C156.065 66.061 156.688 66.16 157.267 66.358C157.847 66.556 158.349 66.8457 158.774 67.227C159.2 67.601 159.533 68.0593 159.775 68.602C160.017 69.1447 160.138 69.7607 160.138 70.45C160.138 71.0367 160.05 71.583 159.874 72.089C159.698 72.5877 159.46 73.0643 159.159 73.519C158.859 73.9737 158.51 74.4173 158.114 74.85C157.726 75.2827 157.311 75.719 156.871 76.159L152.713 80.405C153.007 80.3243 153.304 80.262 153.604 80.218C153.905 80.1667 154.195 80.141 154.473 80.141H159.753ZM179.024 80.262L179.013 82H169.3V66.237H179.013V67.975H171.434V73.211H177.572V74.883H171.434V80.262H179.024ZM186.364 73.871C186.98 73.871 187.523 73.7977 187.992 73.651C188.469 73.497 188.865 73.2843 189.18 73.013C189.503 72.7343 189.745 72.4043 189.906 72.023C190.068 71.6417 190.148 71.22 190.148 70.758C190.148 69.8193 189.84 69.1117 189.224 68.635C188.608 68.1583 187.684 67.92 186.452 67.92H184.12V73.871H186.364ZM193.646 82H191.754C191.366 82 191.08 81.8497 190.896 81.549L186.804 75.917C186.68 75.741 186.544 75.6163 186.397 75.543C186.258 75.4623 186.038 75.422 185.737 75.422H184.12V82H181.997V66.237H186.452C187.45 66.237 188.311 66.3397 189.037 66.545C189.763 66.743 190.361 67.0327 190.83 67.414C191.307 67.7953 191.659 68.2573 191.886 68.8C192.114 69.3353 192.227 69.9367 192.227 70.604C192.227 71.1613 192.139 71.682 191.963 72.166C191.787 72.65 191.531 73.0863 191.193 73.475C190.863 73.8563 190.456 74.1827 189.972 74.454C189.496 74.7253 188.953 74.9307 188.344 75.07C188.616 75.224 188.85 75.4477 189.048 75.741L193.646 82ZM206.706 78.744C206.823 78.744 206.926 78.7917 207.014 78.887L207.861 79.8C207.216 80.548 206.431 81.131 205.507 81.549C204.59 81.967 203.479 82.176 202.174 82.176C201.045 82.176 200.018 81.9817 199.094 81.593C198.17 81.197 197.382 80.647 196.729 79.943C196.076 79.2317 195.57 78.381 195.211 77.391C194.852 76.401 194.672 75.312 194.672 74.124C194.672 72.936 194.859 71.847 195.233 70.857C195.607 69.867 196.131 69.0163 196.806 68.305C197.488 67.5937 198.302 67.0437 199.248 66.655C200.194 66.259 201.239 66.061 202.383 66.061C203.505 66.061 204.495 66.2407 205.353 66.6C206.211 66.9593 206.966 67.447 207.619 68.063L206.915 69.042C206.871 69.1153 206.812 69.1777 206.739 69.229C206.673 69.273 206.581 69.295 206.464 69.295C206.332 69.295 206.171 69.2253 205.98 69.086C205.789 68.9393 205.54 68.778 205.232 68.602C204.924 68.426 204.539 68.2683 204.077 68.129C203.615 67.9823 203.047 67.909 202.372 67.909C201.558 67.909 200.814 68.052 200.139 68.338C199.464 68.6167 198.881 69.0237 198.39 69.559C197.906 70.0943 197.528 70.747 197.257 71.517C196.986 72.287 196.85 73.156 196.85 74.124C196.85 75.1067 196.989 75.983 197.268 76.753C197.554 77.523 197.939 78.1757 198.423 78.711C198.914 79.239 199.49 79.6423 200.15 79.921C200.817 80.1997 201.536 80.339 202.306 80.339C202.775 80.339 203.197 80.3133 203.571 80.262C203.952 80.2033 204.301 80.1153 204.616 79.998C204.939 79.8807 205.236 79.734 205.507 79.558C205.786 79.3747 206.061 79.1583 206.332 78.909C206.457 78.799 206.581 78.744 206.706 78.744ZM215.428 71.088L215.67 72.65L229.31 70.934L229.068 69.372L215.428 71.088ZM224.03 64.774C225.328 65.874 226.89 67.436 227.594 68.426L228.87 67.546C228.122 66.534 226.56 65.038 225.24 63.982L224.03 64.774ZM215.186 63.762C213.734 67.238 211.314 70.626 208.762 72.76C209.07 73.134 209.554 73.97 209.73 74.366C212.48 71.902 215.098 68.118 216.748 64.268L215.186 63.762ZM212.7 69.614V83.738H214.372V67.986V67.964L212.7 69.614ZM220.356 63.85C220.84 75.092 222.292 83.408 227.242 83.76C228.386 83.804 229.288 82.682 229.75 78.854C229.442 78.722 228.716 78.304 228.386 77.974C228.166 80.548 227.792 81.846 227.176 81.802C223.854 81.494 222.336 73.728 222.028 63.85H220.356ZM240.398 66.116V83.738H242.092V66.116H240.398ZM233.622 70.274V81.208H235.294V71.88H248.274V70.274H233.622ZM247.438 70.274V78.898C247.438 79.206 247.328 79.294 246.954 79.316C246.58 79.338 245.348 79.338 243.94 79.294C244.182 79.778 244.446 80.482 244.512 80.966C246.294 80.966 247.482 80.944 248.208 80.658C248.934 80.394 249.132 79.888 249.132 78.942V70.274H247.438ZM249.88 64.158C245.546 64.906 238.022 65.346 231.906 65.5C232.06 65.874 232.258 66.512 232.28 66.974C238.352 66.886 245.876 66.446 250.54 65.654L249.88 64.158ZM262.552 65.214V66.754H272.166V65.214H262.552ZM261.606 70.472V72.012H273.332V70.472H261.606ZM266.292 71.22V81.626C266.292 81.912 266.204 81.978 265.896 82C265.588 82.022 264.554 82.022 263.432 81.978C263.652 82.484 263.872 83.188 263.938 83.672C265.478 83.672 266.49 83.65 267.15 83.364C267.788 83.078 267.964 82.594 267.964 81.648V71.22H266.292ZM269.46 74.872C270.494 77.05 271.506 79.91 271.858 81.648L273.376 81.098C273.002 79.36 271.924 76.566 270.868 74.432L269.46 74.872ZM263.124 74.476C262.53 76.808 261.54 79.184 260.33 80.746C260.682 80.944 261.364 81.384 261.65 81.626C262.838 79.932 263.96 77.358 264.62 74.828L263.124 74.476ZM253.4 68.184V69.746H261.276V68.184H253.4ZM256.766 63.52V83.738H258.394V63.52H256.766ZM256.546 69.108C255.886 71.968 254.368 75.488 252.828 77.292C253.136 77.688 253.576 78.392 253.752 78.832C255.402 76.764 256.942 72.716 257.668 69.46L256.546 69.108ZM258.284 70.208L257.448 70.956C258.108 71.77 259.846 74.344 260.396 75.4L261.386 74.08C260.924 73.464 258.812 70.78 258.284 70.208ZM283.826 72.232V73.728H294.386V72.232H283.826ZM283.826 76.676V78.15H294.386V76.676H283.826ZM283.892 81.164V82.726H295.42V81.164H283.892ZM288.468 68.382V82.088H290.052V68.382H288.468ZM290.118 63.63C289.766 65.06 289.106 67.15 288.534 68.426L289.876 68.888C290.47 67.656 291.196 65.72 291.79 64.092L290.118 63.63ZM284.772 63.52C283.694 66.842 281.912 70.076 279.822 72.144C280.196 72.43 280.79 73.09 281.054 73.42C283.188 71.132 285.146 67.59 286.378 63.96L284.772 63.52ZM284.574 67.876H284.244L283.012 69.152V83.76H284.574V69.372H294.914V67.876H284.574ZM275.752 66.028C277.182 66.974 278.898 68.382 279.69 69.35L280.79 68.052C279.976 67.106 278.216 65.786 276.808 64.884L275.752 66.028ZM275.114 80.966L276.5 82.066C277.798 80.218 279.316 77.776 280.526 75.664L279.316 74.586C277.996 76.852 276.28 79.426 275.114 80.966ZM307.234 65.214C309.192 68.316 312.976 71.572 316.496 73.442C316.782 72.958 317.178 72.364 317.596 71.968C314.076 70.362 310.248 67.128 308.004 63.52H306.266C304.616 66.644 301.008 70.208 297.114 72.232C297.488 72.584 297.95 73.178 298.148 73.596C301.932 71.484 305.474 68.162 307.234 65.214ZM310.336 71.286V83.738H312.03V71.286H310.336ZM302.482 71.374V74.41C302.482 77.138 302.086 80.262 297.95 82.616C298.368 82.88 299.006 83.43 299.27 83.782C303.692 81.186 304.176 77.578 304.176 74.454V71.374H302.482ZM319.796 77.996C319.796 77.666 320.896 77.204 320.896 77.204V77.16C323.14 75.048 325.406 72.1 327.298 69.086L325.978 68.25C324.306 71.242 321.842 74.3 321.05 75.092C320.324 75.906 319.774 76.434 319.29 76.522C319.466 76.94 319.73 77.688 319.796 77.996ZM319.796 77.996C320.28 77.71 321.094 77.512 327.276 76.258C327.254 75.928 327.232 75.312 327.276 74.894L320.544 76.126L319.73 76.698L319.796 77.996ZM319.62 72.716C319.62 72.386 320.61 71.858 320.61 71.858V71.836C322.238 69.834 323.866 67.018 325.076 64.312L323.58 63.586C322.612 66.226 320.918 69.086 320.39 69.812C319.884 70.56 319.51 71.066 319.092 71.176C319.29 71.594 319.532 72.364 319.62 72.716ZM319.62 72.716C320.016 72.518 320.654 72.386 324.812 71.858C324.834 71.528 324.856 70.956 324.944 70.538L320.39 71L319.598 71.506L319.62 72.716ZM319.224 80.834L319.532 82.418C321.666 81.89 324.504 81.186 327.276 80.504L327.1 79.096C324.196 79.778 321.182 80.438 319.224 80.834ZM328.948 81.186V82.682H337.66V81.186H328.948ZM327.562 64.62V66.116H337.814V64.62H327.562ZM328.376 74.718V83.738H329.938V76.214H336.736V83.672H338.364V74.718H328.376ZM337.088 64.62V64.884C336.868 69.46 336.648 71.176 336.252 71.616C336.054 71.814 335.9 71.836 335.526 71.836C335.174 71.836 334.25 71.836 333.282 71.748C333.546 72.166 333.722 72.826 333.766 73.266C334.734 73.332 335.724 73.332 336.252 73.266C336.846 73.222 337.242 73.068 337.616 72.65C338.166 71.99 338.408 70.164 338.65 65.302C338.672 65.082 338.694 64.62 338.694 64.62H337.088ZM331.368 65.126C331.06 68.25 330.246 71.154 326.792 72.628C327.144 72.892 327.606 73.486 327.804 73.86C331.61 72.1 332.6 68.844 333.018 65.126H331.368Z" fill="white"/>
</svg>
