<svg width="406" height="228" viewBox="0 0 406 228" fill="none" xmlns="http://www.w3.org/2000/svg">
<rect width="406" height="228" fill="black"/>
<path d="M63.2056 66.237L58.2886 82H56.3746L52.3816 69.977C52.345 69.8597 52.3083 69.735 52.2716 69.603C52.2423 69.471 52.2093 69.3317 52.1726 69.185C52.136 69.3317 52.0993 69.471 52.0626 69.603C52.026 69.735 51.9893 69.8597 51.9526 69.977L47.9376 82H46.0236L41.1066 66.237H42.8776C43.0683 66.237 43.226 66.2847 43.3506 66.38C43.4826 66.4753 43.567 66.5963 43.6036 66.743L46.8596 77.699C46.911 77.897 46.9586 78.1097 47.0026 78.337C47.054 78.5643 47.1016 78.8063 47.1456 79.063C47.197 78.8063 47.2483 78.5643 47.2996 78.337C47.3583 78.1023 47.4206 77.8897 47.4866 77.699L51.1936 66.743C51.2376 66.6183 51.322 66.5047 51.4466 66.402C51.5786 66.292 51.7363 66.237 51.9196 66.237H52.5356C52.7263 66.237 52.8803 66.2847 52.9976 66.38C53.115 66.4753 53.203 66.5963 53.2616 66.743L56.9576 77.699C57.0236 77.8897 57.0823 78.095 57.1336 78.315C57.1923 78.535 57.2473 78.766 57.2986 79.008C57.3353 78.766 57.3756 78.535 57.4196 78.315C57.4636 78.095 57.5113 77.8897 57.5626 77.699L60.8296 66.743C60.8663 66.611 60.947 66.4937 61.0716 66.391C61.2036 66.2883 61.3613 66.237 61.5446 66.237H63.2056ZM64.9691 70.505C65.0717 69.7863 65.2697 69.152 65.5631 68.602C65.8564 68.0447 66.2267 67.579 66.6741 67.205C67.1287 66.831 67.6457 66.5487 68.2251 66.358C68.8117 66.16 69.4424 66.061 70.1171 66.061C70.7844 66.061 71.4004 66.1563 71.9651 66.347C72.5297 66.5377 73.0137 66.809 73.4171 67.161C73.8277 67.513 74.1467 67.9383 74.3741 68.437C74.6014 68.9357 74.7151 69.4893 74.7151 70.098C74.7151 70.5967 74.6491 71.044 74.5171 71.44C74.3924 71.8287 74.2091 72.1697 73.9671 72.463C73.7324 72.7563 73.4464 73.0057 73.1091 73.211C72.7717 73.4163 72.3941 73.585 71.9761 73.717C73.0027 73.981 73.7727 74.4357 74.2861 75.081C74.8067 75.719 75.0671 76.5183 75.0671 77.479C75.0671 78.205 74.9277 78.8577 74.6491 79.437C74.3777 80.0163 74.0037 80.5113 73.5271 80.922C73.0504 81.3253 72.4931 81.637 71.8551 81.857C71.2244 82.0697 70.5461 82.176 69.8201 82.176C68.9841 82.176 68.2691 82.0733 67.6751 81.868C67.0811 81.6553 66.5787 81.3657 66.1681 80.999C65.7574 80.6323 65.4201 80.1997 65.1561 79.701C64.8921 79.195 64.6684 78.6487 64.4851 78.062L65.3321 77.71C65.5521 77.6147 65.7647 77.589 65.9701 77.633C66.1827 77.677 66.3367 77.798 66.4321 77.996C66.5274 78.2013 66.6447 78.447 66.7841 78.733C66.9307 79.019 67.1287 79.294 67.3781 79.558C67.6274 79.822 67.9427 80.0457 68.3241 80.229C68.7127 80.4123 69.2041 80.504 69.7981 80.504C70.3481 80.504 70.8284 80.416 71.2391 80.24C71.6571 80.0567 72.0017 79.822 72.2731 79.536C72.5517 79.25 72.7607 78.931 72.9001 78.579C73.0394 78.227 73.1091 77.8787 73.1091 77.534C73.1091 77.1087 73.0541 76.72 72.9441 76.368C72.8341 76.016 72.6287 75.7117 72.3281 75.455C72.0274 75.1983 71.6131 74.9967 71.0851 74.85C70.5644 74.7033 69.8934 74.63 69.0721 74.63V73.211C69.7467 73.2037 70.3187 73.1303 70.7881 72.991C71.2647 72.8517 71.6497 72.661 71.9431 72.419C72.2437 72.177 72.4601 71.8873 72.5921 71.55C72.7314 71.2127 72.8011 70.8387 72.8011 70.428C72.8011 69.9733 72.7277 69.5773 72.5811 69.24C72.4417 68.9027 72.2474 68.624 71.9981 68.404C71.7487 68.184 71.4517 68.019 71.1071 67.909C70.7697 67.799 70.4031 67.744 70.0071 67.744C69.6111 67.744 69.2407 67.8027 68.8961 67.92C68.5587 68.0373 68.2581 68.2023 67.9941 68.415C67.7374 68.6203 67.5211 68.866 67.3451 69.152C67.1691 69.438 67.0444 69.7533 66.9711 70.098C66.8757 70.3547 66.7547 70.527 66.6081 70.615C66.4687 70.6957 66.2634 70.7177 65.9921 70.681L64.9691 70.505ZM83.3047 74.575H88.7387V76.236H83.3047V74.575ZM106.679 80.207V82H97.7357V66.237H99.8587V80.207H106.679ZM118.914 66.237V67.117C118.914 67.3663 118.885 67.5717 118.826 67.733C118.775 67.8943 118.724 68.03 118.672 68.14L112.138 81.307C112.043 81.4977 111.911 81.6627 111.742 81.802C111.574 81.934 111.35 82 111.071 82H109.663L116.285 68.998C116.381 68.8147 116.48 68.646 116.582 68.492C116.685 68.338 116.795 68.1913 116.912 68.052H108.684C108.56 68.052 108.45 68.0043 108.354 67.909C108.259 67.8063 108.211 67.6927 108.211 67.568V66.237H118.914ZM121.006 80.79C121.006 80.5993 121.039 80.4197 121.105 80.251C121.178 80.0823 121.274 79.9357 121.391 79.811C121.516 79.6863 121.662 79.5873 121.831 79.514C122 79.4407 122.179 79.404 122.37 79.404C122.561 79.404 122.74 79.4407 122.909 79.514C123.078 79.5873 123.224 79.6863 123.349 79.811C123.474 79.9357 123.573 80.0823 123.646 80.251C123.719 80.4197 123.756 80.5993 123.756 80.79C123.756 80.988 123.719 81.1713 123.646 81.34C123.573 81.5013 123.474 81.6443 123.349 81.769C123.224 81.8937 123.078 81.989 122.909 82.055C122.74 82.1283 122.561 82.165 122.37 82.165C122.179 82.165 122 82.1283 121.831 82.055C121.662 81.989 121.516 81.8937 121.391 81.769C121.274 81.6443 121.178 81.5013 121.105 81.34C121.039 81.1713 121.006 80.988 121.006 80.79ZM136.182 80.504V82H127.734V80.504H131.111V69.757C131.111 69.4343 131.122 69.108 131.144 68.778L128.339 71.187C128.244 71.2677 128.149 71.319 128.053 71.341C127.958 71.3557 127.87 71.3557 127.789 71.341C127.709 71.3263 127.632 71.297 127.558 71.253C127.492 71.209 127.441 71.1613 127.404 71.11L126.788 70.263L131.485 66.204H133.08V80.504H136.182ZM152.681 72.837C152.622 72.9177 152.564 72.98 152.505 73.024C152.446 73.068 152.366 73.09 152.263 73.09C152.153 73.09 152.032 73.046 151.9 72.958C151.768 72.8627 151.603 72.76 151.405 72.65C151.214 72.54 150.976 72.441 150.69 72.353C150.411 72.2577 150.067 72.21 149.656 72.21C149.106 72.21 148.622 72.309 148.204 72.507C147.786 72.6977 147.434 72.9763 147.148 73.343C146.869 73.7097 146.657 74.1533 146.51 74.674C146.371 75.1947 146.301 75.7777 146.301 76.423C146.301 77.0977 146.378 77.699 146.532 78.227C146.686 78.7477 146.902 79.1877 147.181 79.547C147.467 79.899 147.808 80.1703 148.204 80.361C148.607 80.5443 149.058 80.636 149.557 80.636C150.034 80.636 150.426 80.581 150.734 80.471C151.042 80.3537 151.295 80.2253 151.493 80.086C151.698 79.9467 151.867 79.822 151.999 79.712C152.138 79.5947 152.274 79.536 152.406 79.536C152.567 79.536 152.692 79.5983 152.78 79.723L153.33 80.438C153.088 80.7387 152.813 80.9953 152.505 81.208C152.197 81.4207 151.863 81.6003 151.504 81.747C151.152 81.8863 150.782 81.989 150.393 82.055C150.004 82.121 149.608 82.154 149.205 82.154C148.508 82.154 147.859 82.0257 147.258 81.769C146.664 81.5123 146.147 81.142 145.707 80.658C145.267 80.1667 144.922 79.5653 144.673 78.854C144.424 78.1427 144.299 77.3323 144.299 76.423C144.299 75.5943 144.413 74.828 144.64 74.124C144.875 73.42 145.212 72.815 145.652 72.309C146.099 71.7957 146.646 71.396 147.291 71.11C147.944 70.824 148.692 70.681 149.535 70.681C150.32 70.681 151.009 70.8093 151.603 71.066C152.204 71.3153 152.736 71.671 153.198 72.133L152.681 72.837ZM156.158 82V72.529L154.926 72.386C154.772 72.3493 154.644 72.2943 154.541 72.221C154.446 72.1403 154.398 72.0267 154.398 71.88V71.077H156.158V69.999C156.158 69.361 156.246 68.7963 156.422 68.305C156.605 67.8063 156.862 67.3883 157.192 67.051C157.529 66.7063 157.933 66.446 158.402 66.27C158.871 66.094 159.399 66.006 159.986 66.006C160.485 66.006 160.943 66.0793 161.361 66.226L161.317 67.205C161.302 67.381 161.203 67.4763 161.02 67.491C160.844 67.5057 160.606 67.513 160.305 67.513C159.968 67.513 159.66 67.557 159.381 67.645C159.11 67.733 158.875 67.876 158.677 68.074C158.479 68.272 158.325 68.5323 158.215 68.855C158.112 69.1777 158.061 69.5773 158.061 70.054V71.077H161.273V72.496H158.127V82H156.158ZM172.297 82H170.416C170.254 82 170.126 81.9597 170.031 81.879C169.943 81.791 169.869 81.6957 169.811 81.593L167.006 77.226C166.976 77.3287 166.943 77.4313 166.907 77.534C166.877 77.6293 166.833 77.7173 166.775 77.798L164.179 81.593C164.105 81.6957 164.025 81.791 163.937 81.879C163.856 81.9597 163.742 82 163.596 82H161.847L165.752 76.28L162.001 70.857H163.882C164.043 70.857 164.16 70.8827 164.234 70.934C164.307 70.9853 164.373 71.0587 164.432 71.154L167.171 75.334C167.229 75.1213 167.321 74.916 167.446 74.718L169.844 71.198C169.91 71.0953 169.979 71.0147 170.053 70.956C170.133 70.89 170.229 70.857 170.339 70.857H172.143L168.392 76.181L172.297 82ZM177.523 82.176C176.643 82.176 175.964 81.9303 175.488 81.439C175.018 80.9477 174.784 80.24 174.784 79.316V72.496H173.442C173.324 72.496 173.225 72.463 173.145 72.397C173.064 72.3237 173.024 72.2137 173.024 72.067V71.286L174.85 71.055L175.301 67.612C175.323 67.502 175.37 67.414 175.444 67.348C175.524 67.2747 175.627 67.238 175.752 67.238H176.742V71.077H179.965V72.496H176.742V79.184C176.742 79.6533 176.855 80.0017 177.083 80.229C177.31 80.4563 177.603 80.57 177.963 80.57C178.168 80.57 178.344 80.5443 178.491 80.493C178.645 80.4343 178.777 80.372 178.887 80.306C178.997 80.24 179.088 80.1813 179.162 80.13C179.242 80.0713 179.312 80.042 179.371 80.042C179.473 80.042 179.565 80.1043 179.646 80.229L180.218 81.164C179.88 81.4793 179.473 81.7287 178.997 81.912C178.52 82.088 178.029 82.176 177.523 82.176ZM183.846 73.09C184.198 72.3273 184.63 71.7333 185.144 71.308C185.657 70.8753 186.284 70.659 187.025 70.659C187.259 70.659 187.483 70.6847 187.696 70.736C187.916 70.7873 188.11 70.868 188.279 70.978L188.136 72.441C188.092 72.6243 187.982 72.716 187.806 72.716C187.703 72.716 187.553 72.694 187.355 72.65C187.157 72.606 186.933 72.584 186.684 72.584C186.332 72.584 186.016 72.6353 185.738 72.738C185.466 72.8407 185.221 72.9947 185.001 73.2C184.788 73.398 184.594 73.6473 184.418 73.948C184.249 74.2413 184.095 74.5787 183.956 74.96V82H181.987V70.857H183.109C183.321 70.857 183.468 70.8973 183.549 70.978C183.629 71.0587 183.684 71.198 183.714 71.396L183.846 73.09ZM199.163 70.857V82H197.997C197.719 82 197.543 81.8643 197.469 81.593L197.315 80.394C196.831 80.9293 196.289 81.362 195.687 81.692C195.086 82.0147 194.397 82.176 193.619 82.176C193.011 82.176 192.472 82.077 192.002 81.879C191.54 81.6737 191.152 81.3877 190.836 81.021C190.521 80.6543 190.283 80.2107 190.121 79.69C189.967 79.1693 189.89 78.5937 189.89 77.963V70.857H191.848V77.963C191.848 78.8063 192.039 79.459 192.42 79.921C192.809 80.383 193.399 80.614 194.191 80.614C194.771 80.614 195.31 80.4783 195.808 80.207C196.314 79.9283 196.78 79.547 197.205 79.063V70.857H199.163ZM202.994 82V72.529L201.762 72.386C201.608 72.3493 201.479 72.2943 201.377 72.221C201.281 72.1403 201.234 72.0267 201.234 71.88V71.077H202.994V70.164C202.994 69.526 203.082 68.9613 203.258 68.47C203.441 67.9713 203.698 67.5533 204.028 67.216C204.365 66.8713 204.768 66.611 205.238 66.435C205.707 66.259 206.235 66.171 206.822 66.171C207.32 66.171 207.779 66.2443 208.197 66.391L208.153 67.381C208.138 67.557 208.039 67.6523 207.856 67.667C207.68 67.6817 207.441 67.689 207.141 67.689C206.803 67.689 206.495 67.733 206.217 67.821C205.945 67.9017 205.711 68.041 205.513 68.239C205.315 68.437 205.161 68.701 205.051 69.031C204.948 69.3537 204.897 69.7533 204.897 70.23V71.077H209.924V70.483C209.924 69.867 210.019 69.284 210.21 68.734C210.4 68.1767 210.686 67.6927 211.068 67.282C211.449 66.8713 211.926 66.545 212.498 66.303C213.07 66.061 213.737 65.94 214.5 65.94C215.057 65.94 215.596 65.962 216.117 66.006C216.645 66.05 217.154 66.0757 217.646 66.083H218.988V82H217.03V67.458C216.634 67.4433 216.234 67.425 215.831 67.403C215.435 67.381 215.09 67.37 214.797 67.37C213.843 67.37 213.11 67.645 212.597 68.195C212.083 68.7377 211.827 69.5003 211.827 70.483V71.077H215.039V72.496H211.893V82H209.924V72.496H204.963V82H202.994ZM229.62 75.213C229.62 74.7583 229.554 74.344 229.422 73.97C229.298 73.5887 229.111 73.2623 228.861 72.991C228.619 72.7123 228.322 72.4997 227.97 72.353C227.618 72.199 227.219 72.122 226.771 72.122C225.833 72.122 225.088 72.397 224.538 72.947C223.996 73.4897 223.658 74.245 223.526 75.213H229.62ZM231.204 80.438C230.962 80.7313 230.673 80.988 230.335 81.208C229.998 81.4207 229.635 81.5967 229.246 81.736C228.865 81.8753 228.469 81.978 228.058 82.044C227.648 82.1173 227.241 82.154 226.837 82.154C226.067 82.154 225.356 82.0257 224.703 81.769C224.058 81.505 223.497 81.1237 223.02 80.625C222.551 80.119 222.184 79.4957 221.92 78.755C221.656 78.0143 221.524 77.1637 221.524 76.203C221.524 75.4257 221.642 74.6997 221.876 74.025C222.118 73.3503 222.463 72.7673 222.91 72.276C223.358 71.7773 223.904 71.3887 224.549 71.11C225.195 70.824 225.921 70.681 226.727 70.681C227.395 70.681 228.011 70.7947 228.575 71.022C229.147 71.242 229.639 71.5647 230.049 71.99C230.467 72.408 230.794 72.9287 231.028 73.552C231.263 74.168 231.38 74.872 231.38 75.664C231.38 75.972 231.347 76.1773 231.281 76.28C231.215 76.3827 231.091 76.434 230.907 76.434H223.46C223.482 77.138 223.578 77.7503 223.746 78.271C223.922 78.7917 224.164 79.228 224.472 79.58C224.78 79.9247 225.147 80.185 225.572 80.361C225.998 80.5297 226.474 80.614 227.002 80.614C227.494 80.614 227.915 80.559 228.267 80.449C228.627 80.3317 228.935 80.207 229.191 80.075C229.448 79.943 229.661 79.822 229.829 79.712C230.005 79.5947 230.156 79.536 230.28 79.536C230.442 79.536 230.566 79.5983 230.654 79.723L231.204 80.438ZM239.648 66.578L238.196 66.908C240.242 75.642 244.092 81.516 252.452 83.738C252.716 83.276 253.222 82.55 253.596 82.198C245.434 80.262 241.496 74.608 239.648 66.578ZM234.192 64.708V66.314H246.512V64.708H234.192ZM250.582 70.032V70.34C248.954 77.16 243.916 80.922 238.108 82.33C238.46 82.682 238.856 83.364 239.054 83.782C245.236 82.044 250.45 78.172 252.32 70.406L251.198 69.966L250.89 70.032H250.582ZM246.138 64.708V64.906C245.764 66.666 244.972 70.054 244.246 72.496L245.962 72.738C246.644 70.318 247.414 67.128 247.898 64.862L246.644 64.62L246.336 64.708H246.138ZM245.83 70.032L245.478 71.594H250.956V70.032H245.83ZM238.086 65.214V68.184C238.086 72.1 237.734 77.6 233.004 81.978C233.378 82.286 233.95 82.946 234.192 83.364C239.318 78.568 239.758 72.562 239.758 68.162V65.214H238.086ZM264.464 65.214V66.754H274.078V65.214H264.464ZM263.518 70.472V72.012H275.244V70.472H263.518ZM268.204 71.22V81.626C268.204 81.912 268.116 81.978 267.808 82C267.5 82.022 266.466 82.022 265.344 81.978C265.564 82.484 265.784 83.188 265.85 83.672C267.39 83.672 268.402 83.65 269.062 83.364C269.7 83.078 269.876 82.594 269.876 81.648V71.22H268.204ZM271.372 74.872C272.406 77.05 273.418 79.91 273.77 81.648L275.288 81.098C274.914 79.36 273.836 76.566 272.78 74.432L271.372 74.872ZM265.036 74.476C264.442 76.808 263.452 79.184 262.242 80.746C262.594 80.944 263.276 81.384 263.562 81.626C264.75 79.932 265.872 77.358 266.532 74.828L265.036 74.476ZM255.312 68.184V69.746H263.188V68.184H255.312ZM258.678 63.52V83.738H260.306V63.52H258.678ZM258.458 69.108C257.798 71.968 256.28 75.488 254.74 77.292C255.048 77.688 255.488 78.392 255.664 78.832C257.314 76.764 258.854 72.716 259.58 69.46L258.458 69.108ZM260.196 70.208L259.36 70.956C260.02 71.77 261.758 74.344 262.308 75.4L263.298 74.08C262.836 73.464 260.724 70.78 260.196 70.208ZM285.738 72.232V73.728H296.298V72.232H285.738ZM285.738 76.676V78.15H296.298V76.676H285.738ZM285.804 81.164V82.726H297.332V81.164H285.804ZM290.38 68.382V82.088H291.964V68.382H290.38ZM292.03 63.63C291.678 65.06 291.018 67.15 290.446 68.426L291.788 68.888C292.382 67.656 293.108 65.72 293.702 64.092L292.03 63.63ZM286.684 63.52C285.606 66.842 283.824 70.076 281.734 72.144C282.108 72.43 282.702 73.09 282.966 73.42C285.1 71.132 287.058 67.59 288.29 63.96L286.684 63.52ZM286.486 67.876H286.156L284.924 69.152V83.76H286.486V69.372H296.826V67.876H286.486ZM277.664 66.028C279.094 66.974 280.81 68.382 281.602 69.35L282.702 68.052C281.888 67.106 280.128 65.786 278.72 64.884L277.664 66.028ZM277.026 80.966L278.412 82.066C279.71 80.218 281.228 77.776 282.438 75.664L281.228 74.586C279.908 76.852 278.192 79.426 277.026 80.966ZM303.69 70.714V72.188H314.8V70.714H303.69ZM303.294 81.406V82.88H315.086V81.406H303.294ZM302.546 74.96V83.782H304.152V76.456H314.338V83.782H316.01V74.96H302.546ZM309.168 65.214C311.236 68.03 315.108 71.132 318.562 72.936C318.848 72.452 319.244 71.88 319.662 71.484C316.142 69.922 312.292 66.864 309.916 63.586H308.244C306.506 66.424 302.832 69.79 298.96 71.748C299.334 72.1 299.774 72.694 299.994 73.068C303.756 71.022 307.364 67.898 309.168 65.214ZM321.708 77.974C321.708 77.622 322.786 77.138 322.786 77.138V77.116C325.03 74.982 327.318 72.034 329.188 69.042L327.824 68.206C326.174 71.176 323.71 74.256 322.94 75.026C322.236 75.818 321.686 76.368 321.202 76.478C321.378 76.874 321.62 77.644 321.708 77.974ZM321.708 77.974C322.214 77.688 323.028 77.512 329.298 76.478C329.254 76.126 329.232 75.51 329.254 75.07L322.5 76.06L321.642 76.61L321.708 77.974ZM321.554 72.672C321.554 72.342 322.632 71.814 322.632 71.814V71.77C324.238 69.812 325.91 66.996 327.186 64.268L325.624 63.608C324.612 66.248 322.874 69.042 322.346 69.79C321.84 70.516 321.422 71.022 321.004 71.11C321.202 71.55 321.466 72.342 321.554 72.672ZM321.554 72.672C321.95 72.474 322.61 72.364 327.01 71.88C326.988 71.572 327.054 70.956 327.12 70.56L322.324 71L321.532 71.484L321.554 72.672ZM321.092 80.856L321.356 82.44C323.622 82 326.68 81.384 329.628 80.768L329.518 79.316C326.416 79.91 323.204 80.526 321.092 80.856ZM331.74 67.568V69.108H339.594V67.568H331.74ZM338.934 67.568V67.942C338.692 77.468 338.362 81.032 337.68 81.802C337.438 82.088 337.196 82.154 336.778 82.132C336.272 82.132 335.018 82.132 333.632 82.022C333.918 82.462 334.138 83.144 334.16 83.606C335.37 83.672 336.646 83.694 337.372 83.628C338.142 83.562 338.626 83.364 339.11 82.726C339.946 81.692 340.21 78.348 340.518 68.426C340.518 68.206 340.518 67.568 340.518 67.568H338.934ZM332.664 63.542C331.96 66.534 330.75 69.526 329.232 71.44C329.606 71.638 330.31 72.122 330.596 72.364C332.114 70.274 333.412 67.106 334.27 63.85L332.664 63.542ZM331.168 72.892C332.796 74.322 334.622 76.346 335.436 77.688L336.646 76.654C335.832 75.29 333.94 73.332 332.312 71.968L331.168 72.892ZM353.146 65.214C355.104 68.316 358.888 71.572 362.408 73.442C362.694 72.958 363.09 72.364 363.508 71.968C359.988 70.362 356.16 67.128 353.916 63.52H352.178C350.528 66.644 346.92 70.208 343.026 72.232C343.4 72.584 343.862 73.178 344.06 73.596C347.844 71.484 351.386 68.162 353.146 65.214ZM356.248 71.286V83.738H357.942V71.286H356.248ZM348.394 71.374V74.41C348.394 77.138 347.998 80.262 343.862 82.616C344.28 82.88 344.918 83.43 345.182 83.782C349.604 81.186 350.088 77.578 350.088 74.454V71.374H348.394ZM192.974 103.996C192.974 103.666 194.074 103.204 194.074 103.204V103.16C196.318 101.048 198.584 98.1 200.476 95.086L199.156 94.25C197.484 97.242 195.02 100.3 194.228 101.092C193.502 101.906 192.952 102.434 192.468 102.522C192.644 102.94 192.908 103.688 192.974 103.996ZM192.974 103.996C193.458 103.71 194.272 103.512 200.454 102.258C200.432 101.928 200.41 101.312 200.454 100.894L193.722 102.126L192.908 102.698L192.974 103.996ZM192.798 98.716C192.798 98.386 193.788 97.858 193.788 97.858V97.836C195.416 95.834 197.044 93.018 198.254 90.312L196.758 89.586C195.79 92.226 194.096 95.086 193.568 95.812C193.062 96.56 192.688 97.066 192.27 97.176C192.468 97.594 192.71 98.364 192.798 98.716ZM192.798 98.716C193.194 98.518 193.832 98.386 197.99 97.858C198.012 97.528 198.034 96.956 198.122 96.538L193.568 97L192.776 97.506L192.798 98.716ZM192.402 106.834L192.71 108.418C194.844 107.89 197.682 107.186 200.454 106.504L200.278 105.096C197.374 105.778 194.36 106.438 192.402 106.834ZM202.126 107.186V108.682H210.838V107.186H202.126ZM200.74 90.62V92.116H210.992V90.62H200.74ZM201.554 100.718V109.738H203.116V102.214H209.914V109.672H211.542V100.718H201.554ZM210.266 90.62V90.884C210.046 95.46 209.826 97.176 209.43 97.616C209.232 97.814 209.078 97.836 208.704 97.836C208.352 97.836 207.428 97.836 206.46 97.748C206.724 98.166 206.9 98.826 206.944 99.266C207.912 99.332 208.902 99.332 209.43 99.266C210.024 99.222 210.42 99.068 210.794 98.65C211.344 97.99 211.586 96.164 211.828 91.302C211.85 91.082 211.872 90.62 211.872 90.62H210.266ZM204.546 91.126C204.238 94.25 203.424 97.154 199.97 98.628C200.322 98.892 200.784 99.486 200.982 99.86C204.788 98.1 205.778 94.844 206.196 91.126H204.546Z" fill="white"/>
</svg>
