<svg width="406" height="228" viewBox="0 0 406 228" fill="none" xmlns="http://www.w3.org/2000/svg">
<rect width="406" height="228" fill="black"/>
<path d="M111.406 66.237L106.489 82H104.575L100.582 69.977C100.545 69.8597 100.508 69.735 100.472 69.603C100.442 69.471 100.409 69.3317 100.373 69.185C100.336 69.3317 100.299 69.471 100.263 69.603C100.226 69.735 100.189 69.8597 100.153 69.977L96.1378 82H94.2238L89.3068 66.237H91.0778C91.2685 66.237 91.4262 66.2847 91.5508 66.38C91.6828 66.4753 91.7672 66.5963 91.8038 66.743L95.0598 77.699C95.1112 77.897 95.1588 78.1097 95.2028 78.337C95.2542 78.5643 95.3018 78.8063 95.3458 79.063C95.3972 78.8063 95.4485 78.5643 95.4998 78.337C95.5585 78.1023 95.6208 77.8897 95.6868 77.699L99.3938 66.743C99.4378 66.6183 99.5222 66.5047 99.6468 66.402C99.7788 66.292 99.9365 66.237 100.12 66.237H100.736C100.926 66.237 101.08 66.2847 101.198 66.38C101.315 66.4753 101.403 66.5963 101.462 66.743L105.158 77.699C105.224 77.8897 105.282 78.095 105.334 78.315C105.392 78.535 105.447 78.766 105.499 79.008C105.535 78.766 105.576 78.535 105.62 78.315C105.664 78.095 105.711 77.8897 105.763 77.699L109.03 66.743C109.066 66.611 109.147 66.4937 109.272 66.391C109.404 66.2883 109.561 66.237 109.745 66.237H111.406ZM119.769 76.313V69.812C119.769 69.6213 119.777 69.4123 119.791 69.185C119.806 68.9577 119.828 68.7267 119.857 68.492L114.115 76.313H119.769ZM123.872 76.313V77.435C123.872 77.5523 123.836 77.6513 123.762 77.732C123.696 77.8127 123.59 77.853 123.443 77.853H121.485V82H119.769V77.853H112.773C112.627 77.853 112.498 77.8127 112.388 77.732C112.286 77.644 112.22 77.5377 112.19 77.413L111.992 76.412L119.659 66.237H121.485V76.313H123.872ZM131.505 74.575H136.939V76.236H131.505V74.575ZM154.879 80.207V82H145.936V66.237H148.059V80.207H154.879ZM161.604 80.614C162.117 80.614 162.575 80.5443 162.979 80.405C163.389 80.2583 163.734 80.0567 164.013 79.8C164.299 79.536 164.515 79.2243 164.662 78.865C164.816 78.4983 164.893 78.095 164.893 77.655C164.893 77.1123 164.801 76.6503 164.618 76.269C164.442 75.8803 164.2 75.565 163.892 75.323C163.591 75.081 163.243 74.905 162.847 74.795C162.451 74.6777 162.036 74.619 161.604 74.619C161.171 74.619 160.757 74.6777 160.361 74.795C159.965 74.905 159.613 75.081 159.305 75.323C159.004 75.565 158.762 75.8803 158.579 76.269C158.403 76.6503 158.315 77.1123 158.315 77.655C158.315 78.095 158.388 78.4983 158.535 78.865C158.689 79.2243 158.905 79.536 159.184 79.8C159.47 80.0567 159.814 80.2583 160.218 80.405C160.628 80.5443 161.09 80.614 161.604 80.614ZM161.604 67.579C161.134 67.579 160.72 67.6487 160.361 67.788C160.009 67.9273 159.712 68.118 159.47 68.36C159.235 68.602 159.055 68.8843 158.931 69.207C158.813 69.5297 158.755 69.8743 158.755 70.241C158.755 70.6003 158.806 70.9487 158.909 71.286C159.011 71.6233 159.176 71.924 159.404 72.188C159.631 72.4447 159.924 72.6537 160.284 72.815C160.65 72.969 161.09 73.046 161.604 73.046C162.117 73.046 162.553 72.969 162.913 72.815C163.279 72.6537 163.576 72.4447 163.804 72.188C164.031 71.924 164.196 71.6233 164.299 71.286C164.401 70.9487 164.453 70.6003 164.453 70.241C164.453 69.8743 164.39 69.5297 164.266 69.207C164.148 68.8843 163.969 68.602 163.727 68.36C163.492 68.118 163.195 67.9273 162.836 67.788C162.484 67.6487 162.073 67.579 161.604 67.579ZM163.859 73.783C164.841 74.0617 165.597 74.5273 166.125 75.18C166.653 75.8327 166.917 76.6687 166.917 77.688C166.917 78.3773 166.785 79.0007 166.521 79.558C166.264 80.108 165.901 80.5773 165.432 80.966C164.97 81.3547 164.412 81.6553 163.76 81.868C163.107 82.0733 162.388 82.176 161.604 82.176C160.819 82.176 160.1 82.0733 159.448 81.868C158.795 81.6553 158.234 81.3547 157.765 80.966C157.295 80.5773 156.932 80.108 156.676 79.558C156.419 79.0007 156.291 78.3773 156.291 77.688C156.291 76.6687 156.555 75.8327 157.083 75.18C157.611 74.5273 158.366 74.0617 159.349 73.783C158.52 73.475 157.893 73.0167 157.468 72.408C157.05 71.792 156.841 71.0587 156.841 70.208C156.841 69.6287 156.954 69.086 157.182 68.58C157.409 68.074 157.732 67.634 158.15 67.26C158.568 66.886 159.066 66.5927 159.646 66.38C160.232 66.1673 160.885 66.061 161.604 66.061C162.315 66.061 162.964 66.1673 163.551 66.38C164.137 66.5927 164.64 66.886 165.058 67.26C165.476 67.634 165.798 68.074 166.026 68.58C166.253 69.086 166.367 69.6287 166.367 70.208C166.367 71.0587 166.154 71.792 165.729 72.408C165.311 73.0167 164.687 73.475 163.859 73.783ZM169.206 80.79C169.206 80.5993 169.239 80.4197 169.305 80.251C169.379 80.0823 169.474 79.9357 169.591 79.811C169.716 79.6863 169.863 79.5873 170.031 79.514C170.2 79.4407 170.38 79.404 170.57 79.404C170.761 79.404 170.941 79.4407 171.109 79.514C171.278 79.5873 171.425 79.6863 171.549 79.811C171.674 79.9357 171.773 80.0823 171.846 80.251C171.92 80.4197 171.956 80.5993 171.956 80.79C171.956 80.988 171.92 81.1713 171.846 81.34C171.773 81.5013 171.674 81.6443 171.549 81.769C171.425 81.8937 171.278 81.989 171.109 82.055C170.941 82.1283 170.761 82.165 170.57 82.165C170.38 82.165 170.2 82.1283 170.031 82.055C169.863 81.989 169.716 81.8937 169.591 81.769C169.474 81.6443 169.379 81.5013 169.305 81.34C169.239 81.1713 169.206 80.988 169.206 80.79ZM184.383 80.504V82H175.935V80.504H179.312V69.757C179.312 69.4343 179.323 69.108 179.345 68.778L176.54 71.187C176.444 71.2677 176.349 71.319 176.254 71.341C176.158 71.3557 176.07 71.3557 175.99 71.341C175.909 71.3263 175.832 71.297 175.759 71.253C175.693 71.209 175.641 71.1613 175.605 71.11L174.989 70.263L179.686 66.204H181.281V80.504H184.383ZM204.159 79.976V81.538H211.045V79.976H204.159ZM203.257 65.896V83.21H204.841V67.48H210.253V82.88H211.881V65.896H203.257ZM192.521 68.03V69.614H200.705V68.03H192.521ZM196.261 63.52C195.403 67.722 193.951 73.662 192.895 77.05L194.303 77.732C195.403 74.08 196.899 68.118 197.867 63.718L196.261 63.52ZM193.665 76.214C196.503 77.754 199.869 80.174 201.409 82L202.377 80.592C200.815 78.788 197.427 76.478 194.567 75.004L193.665 76.214ZM200.243 68.03V68.382C199.627 76.192 197.009 80.592 192.829 82.418C193.181 82.77 193.621 83.386 193.841 83.782C198.417 81.494 201.145 77.05 201.827 68.184L200.815 67.986L200.507 68.03H200.243ZM221.033 65.676V67.26H234.739V65.676H221.033ZM231.483 66.248V81.494C231.483 81.934 231.351 82.044 230.889 82.066C230.383 82.088 228.777 82.11 227.017 82.044C227.259 82.528 227.523 83.276 227.611 83.738C229.767 83.76 231.219 83.716 232.033 83.452C232.825 83.166 233.133 82.682 233.133 81.494V66.248H231.483ZM221.693 70.362V79.514H223.233V70.362H221.693ZM222.397 70.362V71.836H227.039V76.5H222.397V77.974H228.601V70.362H222.397ZM219.427 63.542C218.283 66.842 216.413 70.12 214.389 72.232C214.675 72.606 215.159 73.486 215.313 73.86C217.557 71.418 219.669 67.7 220.989 64.026L219.427 63.542ZM217.359 69.284V83.738H219.009V67.7L218.987 67.678L217.359 69.284ZM252.537 71.308V78.634C252.537 78.942 252.427 79.052 251.987 79.052C251.569 79.096 250.073 79.096 248.445 79.03C248.665 79.536 248.907 80.24 248.973 80.768C251.063 80.768 252.427 80.768 253.219 80.482C254.033 80.218 254.253 79.668 254.253 78.656V71.308H252.537ZM243.495 72.298V83.716H245.211V72.298H243.495ZM237.709 71.308V72.892H253.263V71.308H237.709ZM236.785 66.028V67.612H256.365V66.028H236.785ZM241.933 63.52V70.12H243.605V63.52H241.933ZM249.523 63.52V70.12H251.239V63.52H249.523ZM267.717 63.52V68.69C267.717 68.976 267.607 69.042 267.277 69.042C266.925 69.086 265.737 69.086 264.461 69.02C264.725 69.438 265.033 70.032 265.143 70.472C266.705 70.472 267.761 70.472 268.465 70.23C269.147 70.01 269.367 69.592 269.367 68.734V63.52H267.717ZM273.041 67.59C270.313 70.758 264.373 72.386 258.411 73.134C258.741 73.486 259.247 74.212 259.445 74.608C265.319 73.662 271.479 71.902 274.625 68.294L273.041 67.59ZM263.515 64.686C262.393 66.358 260.567 67.942 258.741 68.976C259.115 69.24 259.753 69.834 260.039 70.12C261.865 68.954 263.845 67.106 265.121 65.192L263.515 64.686ZM272.359 65.368C274.119 66.622 276.231 68.448 277.199 69.658L278.607 68.734C277.551 67.502 275.417 65.742 273.657 64.554L272.359 65.368ZM262.877 72.584V83.804H264.483V73.904H274.119V83.694H275.791V72.584H262.877ZM263.669 75.664V76.874H274.867V75.664H263.669ZM263.669 78.7V79.91H274.867V78.7H263.669ZM263.669 81.714V83.012H274.867V81.714H263.669ZM294.392 74.421V80.471C293.6 81.043 292.753 81.472 291.851 81.758C290.957 82.0367 289.974 82.176 288.903 82.176C287.635 82.176 286.491 81.9817 285.471 81.593C284.452 81.197 283.579 80.647 282.853 79.943C282.135 79.2317 281.581 78.381 281.192 77.391C280.804 76.401 280.609 75.312 280.609 74.124C280.609 72.9213 280.796 71.825 281.17 70.835C281.552 69.845 282.091 68.998 282.787 68.294C283.484 67.5827 284.331 67.0327 285.328 66.644C286.326 66.2553 287.44 66.061 288.672 66.061C289.296 66.061 289.875 66.1087 290.41 66.204C290.946 66.292 291.441 66.424 291.895 66.6C292.35 66.7687 292.772 66.9777 293.16 67.227C293.549 67.469 293.912 67.744 294.249 68.052L293.644 69.02C293.549 69.1667 293.424 69.262 293.27 69.306C293.124 69.3427 292.959 69.306 292.775 69.196C292.599 69.0933 292.398 68.9687 292.17 68.822C291.943 68.6753 291.664 68.536 291.334 68.404C291.012 68.2647 290.627 68.1473 290.179 68.052C289.739 67.9567 289.215 67.909 288.606 67.909C287.719 67.909 286.916 68.0557 286.197 68.349C285.479 68.635 284.866 69.0493 284.36 69.592C283.854 70.1273 283.466 70.78 283.194 71.55C282.923 72.3127 282.787 73.1707 282.787 74.124C282.787 75.114 282.927 76.0013 283.205 76.786C283.491 77.5633 283.895 78.227 284.415 78.777C284.943 79.3197 285.581 79.734 286.329 80.02C287.077 80.306 287.917 80.449 288.848 80.449C289.582 80.449 290.231 80.3683 290.795 80.207C291.367 80.0383 291.925 79.8073 292.467 79.514V76.049H290.014C289.875 76.049 289.761 76.0087 289.673 75.928C289.593 75.8473 289.552 75.7483 289.552 75.631V74.421H294.392ZM303.171 76.984C302.269 77.0133 301.499 77.0867 300.861 77.204C300.23 77.314 299.713 77.4607 299.31 77.644C298.914 77.8273 298.624 78.0437 298.441 78.293C298.265 78.5423 298.177 78.821 298.177 79.129C298.177 79.4223 298.225 79.6753 298.32 79.888C298.415 80.1007 298.544 80.2767 298.705 80.416C298.874 80.548 299.068 80.647 299.288 80.713C299.515 80.7717 299.757 80.801 300.014 80.801C300.359 80.801 300.674 80.768 300.96 80.702C301.246 80.6287 301.514 80.526 301.763 80.394C302.02 80.262 302.262 80.1043 302.489 79.921C302.724 79.7377 302.951 79.5287 303.171 79.294V76.984ZM296.846 72.43C297.462 71.836 298.126 71.3923 298.837 71.099C299.548 70.8057 300.337 70.659 301.202 70.659C301.825 70.659 302.379 70.7617 302.863 70.967C303.347 71.1723 303.754 71.4583 304.084 71.825C304.414 72.1917 304.663 72.6353 304.832 73.156C305.001 73.6767 305.085 74.2487 305.085 74.872V82H304.216C304.025 82 303.879 81.9707 303.776 81.912C303.673 81.846 303.593 81.7213 303.534 81.538L303.314 80.482C303.021 80.7533 302.735 80.9953 302.456 81.208C302.177 81.4133 301.884 81.5893 301.576 81.736C301.268 81.8753 300.938 81.9817 300.586 82.055C300.241 82.1357 299.856 82.176 299.431 82.176C298.998 82.176 298.591 82.1173 298.21 82C297.829 81.8753 297.495 81.692 297.209 81.45C296.93 81.208 296.707 80.9037 296.538 80.537C296.377 80.163 296.296 79.723 296.296 79.217C296.296 78.777 296.417 78.3553 296.659 77.952C296.901 77.5413 297.293 77.1783 297.836 76.863C298.379 76.5477 299.086 76.291 299.959 76.093C300.832 75.8877 301.902 75.7703 303.171 75.741V74.872C303.171 74.0067 302.984 73.354 302.61 72.914C302.236 72.4667 301.69 72.243 300.971 72.243C300.487 72.243 300.08 72.3053 299.75 72.43C299.427 72.5473 299.145 72.683 298.903 72.837C298.668 72.9837 298.463 73.1193 298.287 73.244C298.118 73.3613 297.95 73.42 297.781 73.42C297.649 73.42 297.535 73.387 297.44 73.321C297.345 73.2477 297.264 73.1597 297.198 73.057L296.846 72.43ZM314.558 72.694C314.47 72.8553 314.334 72.936 314.151 72.936C314.041 72.936 313.916 72.8957 313.777 72.815C313.637 72.7343 313.465 72.6463 313.26 72.551C313.062 72.4483 312.823 72.3567 312.545 72.276C312.266 72.188 311.936 72.144 311.555 72.144C311.225 72.144 310.928 72.188 310.664 72.276C310.4 72.3567 310.172 72.4703 309.982 72.617C309.798 72.7637 309.655 72.936 309.553 73.134C309.457 73.3247 309.41 73.5337 309.41 73.761C309.41 74.047 309.49 74.2853 309.652 74.476C309.82 74.6667 310.04 74.8317 310.312 74.971C310.583 75.1103 310.891 75.235 311.236 75.345C311.58 75.4477 311.932 75.5613 312.292 75.686C312.658 75.8033 313.014 75.9353 313.359 76.082C313.703 76.2287 314.011 76.412 314.283 76.632C314.554 76.852 314.77 77.1233 314.932 77.446C315.1 77.7613 315.185 78.1427 315.185 78.59C315.185 79.1033 315.093 79.58 314.91 80.02C314.726 80.4527 314.455 80.8303 314.096 81.153C313.736 81.4683 313.296 81.7177 312.776 81.901C312.255 82.0843 311.654 82.176 310.972 82.176C310.194 82.176 309.49 82.0513 308.86 81.802C308.229 81.5453 307.694 81.219 307.254 80.823L307.716 80.075C307.774 79.9797 307.844 79.9063 307.925 79.855C308.005 79.8037 308.108 79.778 308.233 79.778C308.365 79.778 308.504 79.8293 308.651 79.932C308.797 80.0347 308.973 80.1483 309.179 80.273C309.391 80.3977 309.648 80.5113 309.949 80.614C310.249 80.7167 310.623 80.768 311.071 80.768C311.452 80.768 311.786 80.7203 312.072 80.625C312.358 80.5223 312.596 80.3867 312.787 80.218C312.977 80.0493 313.117 79.855 313.205 79.635C313.3 79.415 313.348 79.1803 313.348 78.931C313.348 78.623 313.263 78.37 313.095 78.172C312.933 77.9667 312.717 77.7943 312.446 77.655C312.174 77.5083 311.863 77.3837 311.511 77.281C311.166 77.171 310.81 77.0573 310.444 76.94C310.084 76.8227 309.729 76.6907 309.377 76.544C309.032 76.39 308.724 76.1993 308.453 75.972C308.181 75.7447 307.961 75.466 307.793 75.136C307.631 74.7987 307.551 74.3917 307.551 73.915C307.551 73.4897 307.639 73.0827 307.815 72.694C307.991 72.298 308.247 71.9533 308.585 71.66C308.922 71.3593 309.336 71.121 309.828 70.945C310.319 70.769 310.88 70.681 311.511 70.681C312.244 70.681 312.9 70.7983 313.48 71.033C314.066 71.2603 314.572 71.5757 314.998 71.979L314.558 72.694Z" fill="white"/>
</svg>
