<svg width="406" height="228" viewBox="0 0 406 228" fill="none" xmlns="http://www.w3.org/2000/svg">
<rect width="406" height="228" fill="black"/>
<path d="M96.6353 66.237L91.7183 82H89.8043L85.8113 69.977C85.7746 69.8597 85.738 69.735 85.7013 69.603C85.672 69.471 85.639 69.3317 85.6023 69.185C85.5656 69.3317 85.529 69.471 85.4923 69.603C85.4556 69.735 85.419 69.8597 85.3823 69.977L81.3673 82H79.4533L74.5363 66.237H76.3073C76.498 66.237 76.6556 66.2847 76.7803 66.38C76.9123 66.4753 76.9966 66.5963 77.0333 66.743L80.2893 77.699C80.3406 77.897 80.3883 78.1097 80.4323 78.337C80.4836 78.5643 80.5313 78.8063 80.5753 79.063C80.6266 78.8063 80.678 78.5643 80.7293 78.337C80.788 78.1023 80.8503 77.8897 80.9163 77.699L84.6233 66.743C84.6673 66.6183 84.7516 66.5047 84.8763 66.402C85.0083 66.292 85.166 66.237 85.3493 66.237H85.9653C86.156 66.237 86.31 66.2847 86.4273 66.38C86.5446 66.4753 86.6326 66.5963 86.6913 66.743L90.3873 77.699C90.4533 77.8897 90.512 78.095 90.5633 78.315C90.622 78.535 90.677 78.766 90.7283 79.008C90.765 78.766 90.8053 78.535 90.8493 78.315C90.8933 78.095 90.941 77.8897 90.9923 77.699L94.2593 66.743C94.296 66.611 94.3766 66.4937 94.5013 66.391C94.6333 66.2883 94.791 66.237 94.9743 66.237H96.6353ZM104.999 76.313V69.812C104.999 69.6213 105.006 69.4123 105.021 69.185C105.035 68.9577 105.057 68.7267 105.087 68.492L99.3448 76.313H104.999ZM109.102 76.313V77.435C109.102 77.5523 109.065 77.6513 108.992 77.732C108.926 77.8127 108.819 77.853 108.673 77.853H106.715V82H104.999V77.853H98.0028C97.8561 77.853 97.7278 77.8127 97.6178 77.732C97.5151 77.644 97.4491 77.5377 97.4198 77.413L97.2218 76.412L104.889 66.237H106.715V76.313H109.102ZM116.734 74.575H122.168V76.236H116.734V74.575ZM140.108 80.207V82H131.165V66.237H133.288V80.207H140.108ZM146.833 80.614C147.346 80.614 147.805 80.5443 148.208 80.405C148.619 80.2583 148.963 80.0567 149.242 79.8C149.528 79.536 149.744 79.2243 149.891 78.865C150.045 78.4983 150.122 78.095 150.122 77.655C150.122 77.1123 150.03 76.6503 149.847 76.269C149.671 75.8803 149.429 75.565 149.121 75.323C148.82 75.081 148.472 74.905 148.076 74.795C147.68 74.6777 147.266 74.619 146.833 74.619C146.4 74.619 145.986 74.6777 145.59 74.795C145.194 74.905 144.842 75.081 144.534 75.323C144.233 75.565 143.991 75.8803 143.808 76.269C143.632 76.6503 143.544 77.1123 143.544 77.655C143.544 78.095 143.617 78.4983 143.764 78.865C143.918 79.2243 144.134 79.536 144.413 79.8C144.699 80.0567 145.044 80.2583 145.447 80.405C145.858 80.5443 146.32 80.614 146.833 80.614ZM146.833 67.579C146.364 67.579 145.949 67.6487 145.59 67.788C145.238 67.9273 144.941 68.118 144.699 68.36C144.464 68.602 144.285 68.8843 144.16 69.207C144.043 69.5297 143.984 69.8743 143.984 70.241C143.984 70.6003 144.035 70.9487 144.138 71.286C144.241 71.6233 144.406 71.924 144.633 72.188C144.86 72.4447 145.154 72.6537 145.513 72.815C145.88 72.969 146.32 73.046 146.833 73.046C147.346 73.046 147.783 72.969 148.142 72.815C148.509 72.6537 148.806 72.4447 149.033 72.188C149.26 71.924 149.425 71.6233 149.528 71.286C149.631 70.9487 149.682 70.6003 149.682 70.241C149.682 69.8743 149.62 69.5297 149.495 69.207C149.378 68.8843 149.198 68.602 148.956 68.36C148.721 68.118 148.424 67.9273 148.065 67.788C147.713 67.6487 147.302 67.579 146.833 67.579ZM149.088 73.783C150.071 74.0617 150.826 74.5273 151.354 75.18C151.882 75.8327 152.146 76.6687 152.146 77.688C152.146 78.3773 152.014 79.0007 151.75 79.558C151.493 80.108 151.13 80.5773 150.661 80.966C150.199 81.3547 149.642 81.6553 148.989 81.868C148.336 82.0733 147.618 82.176 146.833 82.176C146.048 82.176 145.33 82.0733 144.677 81.868C144.024 81.6553 143.463 81.3547 142.994 80.966C142.525 80.5773 142.162 80.108 141.905 79.558C141.648 79.0007 141.52 78.3773 141.52 77.688C141.52 76.6687 141.784 75.8327 142.312 75.18C142.84 74.5273 143.595 74.0617 144.578 73.783C143.749 73.475 143.122 73.0167 142.697 72.408C142.279 71.792 142.07 71.0587 142.07 70.208C142.07 69.6287 142.184 69.086 142.411 68.58C142.638 68.074 142.961 67.634 143.379 67.26C143.797 66.886 144.296 66.5927 144.875 66.38C145.462 66.1673 146.114 66.061 146.833 66.061C147.544 66.061 148.193 66.1673 148.78 66.38C149.367 66.5927 149.869 66.886 150.287 67.26C150.705 67.634 151.028 68.074 151.255 68.58C151.482 69.086 151.596 69.6287 151.596 70.208C151.596 71.0587 151.383 71.792 150.958 72.408C150.54 73.0167 149.917 73.475 149.088 73.783ZM154.436 80.79C154.436 80.5993 154.469 80.4197 154.535 80.251C154.608 80.0823 154.704 79.9357 154.821 79.811C154.946 79.6863 155.092 79.5873 155.261 79.514C155.43 79.4407 155.609 79.404 155.8 79.404C155.991 79.404 156.17 79.4407 156.339 79.514C156.508 79.5873 156.654 79.6863 156.779 79.811C156.904 79.9357 157.003 80.0823 157.076 80.251C157.149 80.4197 157.186 80.5993 157.186 80.79C157.186 80.988 157.149 81.1713 157.076 81.34C157.003 81.5013 156.904 81.6443 156.779 81.769C156.654 81.8937 156.508 81.989 156.339 82.055C156.17 82.1283 155.991 82.165 155.8 82.165C155.609 82.165 155.43 82.1283 155.261 82.055C155.092 81.989 154.946 81.8937 154.821 81.769C154.704 81.6443 154.608 81.5013 154.535 81.34C154.469 81.1713 154.436 80.988 154.436 80.79ZM169.271 80.141C169.484 80.141 169.652 80.2033 169.777 80.328C169.902 80.4527 169.964 80.614 169.964 80.812V82H159.448V81.329C159.448 81.1897 159.477 81.0467 159.536 80.9C159.595 80.7533 159.686 80.6177 159.811 80.493L164.86 75.422C165.278 74.9967 165.659 74.5897 166.004 74.201C166.349 73.805 166.642 73.409 166.884 73.013C167.126 72.617 167.313 72.2173 167.445 71.814C167.577 71.4033 167.643 70.967 167.643 70.505C167.643 70.043 167.57 69.6397 167.423 69.295C167.276 68.943 167.075 68.6533 166.818 68.426C166.569 68.1987 166.272 68.03 165.927 67.92C165.582 67.8027 165.212 67.744 164.816 67.744C164.413 67.744 164.042 67.8027 163.705 67.92C163.368 68.0373 163.067 68.2023 162.803 68.415C162.546 68.6203 162.33 68.866 162.154 69.152C161.978 69.438 161.853 69.7533 161.78 70.098C161.692 70.3547 161.571 70.527 161.417 70.615C161.27 70.6957 161.061 70.7177 160.79 70.681L159.767 70.505C159.87 69.7863 160.068 69.152 160.361 68.602C160.662 68.0447 161.036 67.579 161.483 67.205C161.938 66.831 162.455 66.5487 163.034 66.358C163.613 66.16 164.24 66.061 164.915 66.061C165.582 66.061 166.206 66.16 166.785 66.358C167.364 66.556 167.867 66.8457 168.292 67.227C168.717 67.601 169.051 68.0593 169.293 68.602C169.535 69.1447 169.656 69.7607 169.656 70.45C169.656 71.0367 169.568 71.583 169.392 72.089C169.216 72.5877 168.978 73.0643 168.677 73.519C168.376 73.9737 168.028 74.4173 167.632 74.85C167.243 75.2827 166.829 75.719 166.389 76.159L162.231 80.405C162.524 80.3243 162.821 80.262 163.122 80.218C163.423 80.1667 163.712 80.141 163.991 80.141H169.271ZM178.279 77.996C178.279 77.666 179.357 77.182 179.357 77.182V77.16C181.293 74.96 183.251 71.902 184.813 68.888L183.449 68.118C182.129 71.11 179.995 74.256 179.335 75.07C178.697 75.884 178.235 76.456 177.795 76.544C177.971 76.94 178.213 77.688 178.279 77.996ZM178.279 77.996C178.697 77.754 179.379 77.534 184.241 76.39C184.197 76.06 184.131 75.466 184.131 75.026L178.917 76.126L178.191 76.676L178.279 77.996ZM178.147 72.716C178.147 72.386 179.115 71.858 179.115 71.858V71.814C180.545 69.812 182.041 66.886 183.097 64.07L181.535 63.52C180.743 66.204 179.269 69.086 178.807 69.812C178.367 70.582 177.993 71.11 177.619 71.198C177.795 71.616 178.059 72.386 178.147 72.716ZM178.147 72.716C178.499 72.54 179.093 72.386 182.547 71.946C182.569 71.616 182.613 71 182.701 70.582L178.873 70.978L178.103 71.484L178.147 72.716ZM177.685 80.834L178.081 82.33C179.863 81.604 182.173 80.68 184.395 79.756L184.109 78.436C181.711 79.338 179.291 80.284 177.685 80.834ZM190.511 73.706V83.056H191.633V73.706H190.511ZM193.195 73.684V83.034H194.317V73.684H193.195ZM195.945 72.936V82.154C195.945 82.33 195.901 82.374 195.747 82.374C195.593 82.374 195.175 82.374 194.691 82.374C194.867 82.704 195.021 83.254 195.087 83.606C195.857 83.606 196.385 83.584 196.781 83.364C197.177 83.144 197.265 82.77 197.265 82.176V72.936H195.945ZM185.913 65.918V70.67C185.913 74.058 185.715 78.942 183.691 82.462C184.043 82.638 184.703 83.122 184.967 83.408C187.079 79.69 187.431 74.278 187.431 70.67V65.918H185.913ZM186.705 65.918V67.304H195.505V69.68H186.705V71.066H197.045V65.918H186.705ZM187.387 72.936V83.584H188.707V74.3H196.649V72.936H187.387ZM188.047 77.556V78.876H196.539V77.556H188.047ZM190.115 63.85C190.577 64.708 191.083 65.874 191.281 66.644L192.887 66.116C192.667 65.368 192.161 64.224 191.655 63.388L190.115 63.85ZM200.521 64.73V69.548H202.149V66.27H217.417V69.548H219.133V64.73H200.521ZM205.625 69.042V70.494H215.899V69.042H205.625ZM204.877 73.156V74.63H214.403V73.156H204.877ZM199.993 77.226V78.766H219.661V77.226H199.993ZM213.985 73.156L213.963 73.42C213.501 79.052 212.995 81.406 212.247 82.044C211.983 82.264 211.719 82.286 211.213 82.286C210.663 82.286 209.145 82.286 207.627 82.132C207.913 82.572 208.133 83.232 208.177 83.694C209.607 83.782 211.037 83.804 211.763 83.76C212.599 83.716 213.105 83.562 213.633 83.056C214.513 82.176 215.041 79.844 215.569 73.904C215.591 73.662 215.635 73.156 215.635 73.156H213.985ZM205.383 66.424C204.899 69.196 204.063 72.958 203.425 75.202L205.097 75.356C205.691 73.156 206.505 69.438 207.033 66.6L205.383 66.424ZM237.217 65.588V81.362C237.217 81.824 237.063 81.978 236.579 82C236.051 82.022 234.269 82.044 232.487 81.956C232.751 82.44 233.081 83.254 233.191 83.738C235.369 83.738 236.909 83.716 237.789 83.43C238.647 83.166 238.933 82.594 238.933 81.406V65.588H237.217ZM224.281 69.988V79.954H225.887V69.988H224.281ZM224.963 69.988V71.55H231.651V76.61H224.963V78.194H233.301V69.988H224.963ZM222.015 65.082V66.754H241.639V65.082H222.015ZM248.899 66.49V72.628C248.899 76.258 248.371 79.954 243.685 82.572C244.059 82.836 244.631 83.43 244.873 83.804C249.933 80.944 250.549 76.764 250.549 72.65V66.49H248.899ZM257.281 63.96V83.76H258.953V63.96H257.281ZM243.905 72.408V73.992H263.705V72.408H243.905ZM253.695 63.872C251.517 65.192 247.579 66.424 244.103 67.216C244.345 67.59 244.609 68.184 244.697 68.58C248.239 67.766 252.265 66.622 254.949 65.214L253.695 63.872ZM276.091 65.522C275.871 73.046 275.145 79.118 272.021 82.814C272.417 83.034 273.187 83.54 273.473 83.804C276.619 79.712 277.389 73.618 277.741 65.588L276.091 65.522ZM273.583 64.95V66.512H282.273V64.95H273.583ZM280.821 70.956L280.337 72.43H283.967V70.956H280.821ZM283.505 70.956V71.308C282.361 77.028 279.171 80.68 275.123 82.55C275.475 82.814 276.069 83.43 276.289 83.804C280.403 81.736 283.791 77.732 285.155 71.308L284.143 70.89L283.835 70.956H283.505ZM277.301 70.692L275.893 71.11C277.565 76.676 280.579 81.494 284.913 83.738C285.177 83.32 285.683 82.704 286.057 82.396C281.855 80.438 278.797 75.796 277.301 70.692ZM281.569 64.95C281.041 67.304 280.161 70.472 279.479 72.43H281.129C281.723 70.538 282.625 67.414 283.263 64.95H281.569ZM266.147 78.106C266.147 77.776 267.269 77.27 267.269 77.27V77.248C269.425 75.07 271.625 72.034 273.429 68.976L272.043 68.14C270.481 71.176 268.083 74.322 267.335 75.136C266.631 75.95 266.103 76.522 265.619 76.61C265.817 77.028 266.059 77.776 266.147 78.106ZM266.147 78.106C266.631 77.754 267.379 77.468 273.231 75.73C273.165 75.378 273.121 74.74 273.143 74.322L266.807 76.082L266.015 76.72L266.147 78.106ZM266.015 72.716C266.015 72.386 267.005 71.858 267.005 71.858V71.814C268.611 69.812 270.239 66.974 271.427 64.224L269.887 63.498C268.941 66.182 267.291 69.042 266.785 69.79C266.279 70.538 265.883 71.066 265.487 71.154C265.663 71.594 265.927 72.364 266.015 72.716ZM266.015 72.716C266.389 72.54 267.005 72.386 270.767 71.902C270.767 71.572 270.811 70.956 270.899 70.538L266.763 70.978L265.971 71.484L266.015 72.716ZM265.707 80.768L266.125 82.396C268.193 81.604 270.943 80.548 273.539 79.536L273.231 78.084C270.459 79.118 267.599 80.174 265.707 80.768ZM292.261 70.714V72.188H303.371V70.714H292.261ZM291.865 81.406V82.88H303.657V81.406H291.865ZM291.117 74.96V83.782H292.723V76.456H302.909V83.782H304.581V74.96H291.117ZM297.739 65.214C299.807 68.03 303.679 71.132 307.133 72.936C307.419 72.452 307.815 71.88 308.233 71.484C304.713 69.922 300.863 66.864 298.487 63.586H296.815C295.077 66.424 291.403 69.79 287.531 71.748C287.905 72.1 288.345 72.694 288.565 73.068C292.327 71.022 295.935 67.898 297.739 65.214ZM310.279 77.974C310.279 77.622 311.357 77.138 311.357 77.138V77.116C313.601 74.982 315.889 72.034 317.759 69.042L316.395 68.206C314.745 71.176 312.281 74.256 311.511 75.026C310.807 75.818 310.257 76.368 309.773 76.478C309.949 76.874 310.191 77.644 310.279 77.974ZM310.279 77.974C310.785 77.688 311.599 77.512 317.869 76.478C317.825 76.126 317.803 75.51 317.825 75.07L311.071 76.06L310.213 76.61L310.279 77.974ZM310.125 72.672C310.125 72.342 311.203 71.814 311.203 71.814V71.77C312.809 69.812 314.481 66.996 315.757 64.268L314.195 63.608C313.183 66.248 311.445 69.042 310.917 69.79C310.411 70.516 309.993 71.022 309.575 71.11C309.773 71.55 310.037 72.342 310.125 72.672ZM310.125 72.672C310.521 72.474 311.181 72.364 315.581 71.88C315.559 71.572 315.625 70.956 315.691 70.56L310.895 71L310.103 71.484L310.125 72.672ZM309.663 80.856L309.927 82.44C312.193 82 315.251 81.384 318.199 80.768L318.089 79.316C314.987 79.91 311.775 80.526 309.663 80.856ZM320.311 67.568V69.108H328.165V67.568H320.311ZM327.505 67.568V67.942C327.263 77.468 326.933 81.032 326.251 81.802C326.009 82.088 325.767 82.154 325.349 82.132C324.843 82.132 323.589 82.132 322.203 82.022C322.489 82.462 322.709 83.144 322.731 83.606C323.941 83.672 325.217 83.694 325.943 83.628C326.713 83.562 327.197 83.364 327.681 82.726C328.517 81.692 328.781 78.348 329.089 68.426C329.089 68.206 329.089 67.568 329.089 67.568H327.505ZM321.235 63.542C320.531 66.534 319.321 69.526 317.803 71.44C318.177 71.638 318.881 72.122 319.167 72.364C320.685 70.274 321.983 67.106 322.841 63.85L321.235 63.542ZM319.739 72.892C321.367 74.322 323.193 76.346 324.007 77.688L325.217 76.654C324.403 75.29 322.511 73.332 320.883 71.968L319.739 72.892Z" fill="white"/>
</svg>
