<svg width="406" height="228" viewBox="0 0 406 228" fill="none" xmlns="http://www.w3.org/2000/svg">
<rect width="406" height="228" fill="black"/>
<path d="M74.6353 66.237L69.7183 82H67.8043L63.8113 69.977C63.7746 69.8597 63.738 69.735 63.7013 69.603C63.672 69.471 63.639 69.3317 63.6023 69.185C63.5656 69.3317 63.529 69.471 63.4923 69.603C63.4556 69.735 63.419 69.8597 63.3823 69.977L59.3673 82H57.4533L52.5363 66.237H54.3073C54.498 66.237 54.6556 66.2847 54.7803 66.38C54.9123 66.4753 54.9966 66.5963 55.0333 66.743L58.2893 77.699C58.3406 77.897 58.3883 78.1097 58.4323 78.337C58.4836 78.5643 58.5313 78.8063 58.5753 79.063C58.6266 78.8063 58.678 78.5643 58.7293 78.337C58.788 78.1023 58.8503 77.8897 58.9163 77.699L62.6233 66.743C62.6673 66.6183 62.7516 66.5047 62.8763 66.402C63.0083 66.292 63.166 66.237 63.3493 66.237H63.9653C64.156 66.237 64.31 66.2847 64.4273 66.38C64.5446 66.4753 64.6326 66.5963 64.6913 66.743L68.3873 77.699C68.4533 77.8897 68.512 78.095 68.5633 78.315C68.622 78.535 68.677 78.766 68.7283 79.008C68.765 78.766 68.8053 78.535 68.8493 78.315C68.8933 78.095 68.941 77.8897 68.9923 77.699L72.2593 66.743C72.296 66.611 72.3766 66.4937 72.5013 66.391C72.6333 66.2883 72.791 66.237 72.9743 66.237H74.6353ZM82.9988 76.313V69.812C82.9988 69.6213 83.0061 69.4123 83.0208 69.185C83.0354 68.9577 83.0574 68.7267 83.0868 68.492L77.3448 76.313H82.9988ZM87.1018 76.313V77.435C87.1018 77.5523 87.0651 77.6513 86.9918 77.732C86.9258 77.8127 86.8194 77.853 86.6728 77.853H84.7148V82H82.9988V77.853H76.0028C75.8561 77.853 75.7278 77.8127 75.6178 77.732C75.5151 77.644 75.4491 77.5377 75.4198 77.413L75.2218 76.412L82.8888 66.237H84.7148V76.313H87.1018ZM94.7344 74.575H100.168V76.236H94.7344V74.575ZM118.108 80.207V82H109.165V66.237H111.288V80.207H118.108ZM124.833 80.614C125.346 80.614 125.805 80.5443 126.208 80.405C126.619 80.2583 126.963 80.0567 127.242 79.8C127.528 79.536 127.744 79.2243 127.891 78.865C128.045 78.4983 128.122 78.095 128.122 77.655C128.122 77.1123 128.03 76.6503 127.847 76.269C127.671 75.8803 127.429 75.565 127.121 75.323C126.82 75.081 126.472 74.905 126.076 74.795C125.68 74.6777 125.266 74.619 124.833 74.619C124.4 74.619 123.986 74.6777 123.59 74.795C123.194 74.905 122.842 75.081 122.534 75.323C122.233 75.565 121.991 75.8803 121.808 76.269C121.632 76.6503 121.544 77.1123 121.544 77.655C121.544 78.095 121.617 78.4983 121.764 78.865C121.918 79.2243 122.134 79.536 122.413 79.8C122.699 80.0567 123.044 80.2583 123.447 80.405C123.858 80.5443 124.32 80.614 124.833 80.614ZM124.833 67.579C124.364 67.579 123.949 67.6487 123.59 67.788C123.238 67.9273 122.941 68.118 122.699 68.36C122.464 68.602 122.285 68.8843 122.16 69.207C122.043 69.5297 121.984 69.8743 121.984 70.241C121.984 70.6003 122.035 70.9487 122.138 71.286C122.241 71.6233 122.406 71.924 122.633 72.188C122.86 72.4447 123.154 72.6537 123.513 72.815C123.88 72.969 124.32 73.046 124.833 73.046C125.346 73.046 125.783 72.969 126.142 72.815C126.509 72.6537 126.806 72.4447 127.033 72.188C127.26 71.924 127.425 71.6233 127.528 71.286C127.631 70.9487 127.682 70.6003 127.682 70.241C127.682 69.8743 127.62 69.5297 127.495 69.207C127.378 68.8843 127.198 68.602 126.956 68.36C126.721 68.118 126.424 67.9273 126.065 67.788C125.713 67.6487 125.302 67.579 124.833 67.579ZM127.088 73.783C128.071 74.0617 128.826 74.5273 129.354 75.18C129.882 75.8327 130.146 76.6687 130.146 77.688C130.146 78.3773 130.014 79.0007 129.75 79.558C129.493 80.108 129.13 80.5773 128.661 80.966C128.199 81.3547 127.642 81.6553 126.989 81.868C126.336 82.0733 125.618 82.176 124.833 82.176C124.048 82.176 123.33 82.0733 122.677 81.868C122.024 81.6553 121.463 81.3547 120.994 80.966C120.525 80.5773 120.162 80.108 119.905 79.558C119.648 79.0007 119.52 78.3773 119.52 77.688C119.52 76.6687 119.784 75.8327 120.312 75.18C120.84 74.5273 121.595 74.0617 122.578 73.783C121.749 73.475 121.122 73.0167 120.697 72.408C120.279 71.792 120.07 71.0587 120.07 70.208C120.07 69.6287 120.184 69.086 120.411 68.58C120.638 68.074 120.961 67.634 121.379 67.26C121.797 66.886 122.296 66.5927 122.875 66.38C123.462 66.1673 124.114 66.061 124.833 66.061C125.544 66.061 126.193 66.1673 126.78 66.38C127.367 66.5927 127.869 66.886 128.287 67.26C128.705 67.634 129.028 68.074 129.255 68.58C129.482 69.086 129.596 69.6287 129.596 70.208C129.596 71.0587 129.383 71.792 128.958 72.408C128.54 73.0167 127.917 73.475 127.088 73.783ZM132.436 80.79C132.436 80.5993 132.469 80.4197 132.535 80.251C132.608 80.0823 132.704 79.9357 132.821 79.811C132.946 79.6863 133.092 79.5873 133.261 79.514C133.43 79.4407 133.609 79.404 133.8 79.404C133.991 79.404 134.17 79.4407 134.339 79.514C134.508 79.5873 134.654 79.6863 134.779 79.811C134.904 79.9357 135.003 80.0823 135.076 80.251C135.149 80.4197 135.186 80.5993 135.186 80.79C135.186 80.988 135.149 81.1713 135.076 81.34C135.003 81.5013 134.904 81.6443 134.779 81.769C134.654 81.8937 134.508 81.989 134.339 82.055C134.17 82.1283 133.991 82.165 133.8 82.165C133.609 82.165 133.43 82.1283 133.261 82.055C133.092 81.989 132.946 81.8937 132.821 81.769C132.704 81.6443 132.608 81.5013 132.535 81.34C132.469 81.1713 132.436 80.988 132.436 80.79ZM137.844 70.505C137.947 69.7863 138.145 69.152 138.438 68.602C138.731 68.0447 139.102 67.579 139.549 67.205C140.004 66.831 140.521 66.5487 141.1 66.358C141.687 66.16 142.317 66.061 142.992 66.061C143.659 66.061 144.275 66.1563 144.84 66.347C145.405 66.5377 145.889 66.809 146.292 67.161C146.703 67.513 147.022 67.9383 147.249 68.437C147.476 68.9357 147.59 69.4893 147.59 70.098C147.59 70.5967 147.524 71.044 147.392 71.44C147.267 71.8287 147.084 72.1697 146.842 72.463C146.607 72.7563 146.321 73.0057 145.984 73.211C145.647 73.4163 145.269 73.585 144.851 73.717C145.878 73.981 146.648 74.4357 147.161 75.081C147.682 75.719 147.942 76.5183 147.942 77.479C147.942 78.205 147.803 78.8577 147.524 79.437C147.253 80.0163 146.879 80.5113 146.402 80.922C145.925 81.3253 145.368 81.637 144.73 81.857C144.099 82.0697 143.421 82.176 142.695 82.176C141.859 82.176 141.144 82.0733 140.55 81.868C139.956 81.6553 139.454 81.3657 139.043 80.999C138.632 80.6323 138.295 80.1997 138.031 79.701C137.767 79.195 137.543 78.6487 137.36 78.062L138.207 77.71C138.427 77.6147 138.64 77.589 138.845 77.633C139.058 77.677 139.212 77.798 139.307 77.996C139.402 78.2013 139.52 78.447 139.659 78.733C139.806 79.019 140.004 79.294 140.253 79.558C140.502 79.822 140.818 80.0457 141.199 80.229C141.588 80.4123 142.079 80.504 142.673 80.504C143.223 80.504 143.703 80.416 144.114 80.24C144.532 80.0567 144.877 79.822 145.148 79.536C145.427 79.25 145.636 78.931 145.775 78.579C145.914 78.227 145.984 77.8787 145.984 77.534C145.984 77.1087 145.929 76.72 145.819 76.368C145.709 76.016 145.504 75.7117 145.203 75.455C144.902 75.1983 144.488 74.9967 143.96 74.85C143.439 74.7033 142.768 74.63 141.947 74.63V73.211C142.622 73.2037 143.194 73.1303 143.663 72.991C144.14 72.8517 144.525 72.661 144.818 72.419C145.119 72.177 145.335 71.8873 145.467 71.55C145.606 71.2127 145.676 70.8387 145.676 70.428C145.676 69.9733 145.603 69.5773 145.456 69.24C145.317 68.9027 145.122 68.624 144.873 68.404C144.624 68.184 144.327 68.019 143.982 67.909C143.645 67.799 143.278 67.744 142.882 67.744C142.486 67.744 142.116 67.8027 141.771 67.92C141.434 68.0373 141.133 68.2023 140.869 68.415C140.612 68.6203 140.396 68.866 140.22 69.152C140.044 69.438 139.919 69.7533 139.846 70.098C139.751 70.3547 139.63 70.527 139.483 70.615C139.344 70.6957 139.138 70.7177 138.867 70.681L137.844 70.505ZM156.279 77.996C156.279 77.666 157.357 77.182 157.357 77.182V77.16C159.293 74.96 161.251 71.902 162.813 68.888L161.449 68.118C160.129 71.11 157.995 74.256 157.335 75.07C156.697 75.884 156.235 76.456 155.795 76.544C155.971 76.94 156.213 77.688 156.279 77.996ZM156.279 77.996C156.697 77.754 157.379 77.534 162.241 76.39C162.197 76.06 162.131 75.466 162.131 75.026L156.917 76.126L156.191 76.676L156.279 77.996ZM156.147 72.716C156.147 72.386 157.115 71.858 157.115 71.858V71.814C158.545 69.812 160.041 66.886 161.097 64.07L159.535 63.52C158.743 66.204 157.269 69.086 156.807 69.812C156.367 70.582 155.993 71.11 155.619 71.198C155.795 71.616 156.059 72.386 156.147 72.716ZM156.147 72.716C156.499 72.54 157.093 72.386 160.547 71.946C160.569 71.616 160.613 71 160.701 70.582L156.873 70.978L156.103 71.484L156.147 72.716ZM155.685 80.834L156.081 82.33C157.863 81.604 160.173 80.68 162.395 79.756L162.109 78.436C159.711 79.338 157.291 80.284 155.685 80.834ZM168.511 73.706V83.056H169.633V73.706H168.511ZM171.195 73.684V83.034H172.317V73.684H171.195ZM173.945 72.936V82.154C173.945 82.33 173.901 82.374 173.747 82.374C173.593 82.374 173.175 82.374 172.691 82.374C172.867 82.704 173.021 83.254 173.087 83.606C173.857 83.606 174.385 83.584 174.781 83.364C175.177 83.144 175.265 82.77 175.265 82.176V72.936H173.945ZM163.913 65.918V70.67C163.913 74.058 163.715 78.942 161.691 82.462C162.043 82.638 162.703 83.122 162.967 83.408C165.079 79.69 165.431 74.278 165.431 70.67V65.918H163.913ZM164.705 65.918V67.304H173.505V69.68H164.705V71.066H175.045V65.918H164.705ZM165.387 72.936V83.584H166.707V74.3H174.649V72.936H165.387ZM166.047 77.556V78.876H174.539V77.556H166.047ZM168.115 63.85C168.577 64.708 169.083 65.874 169.281 66.644L170.887 66.116C170.667 65.368 170.161 64.224 169.655 63.388L168.115 63.85ZM178.521 64.73V69.548H180.149V66.27H195.417V69.548H197.133V64.73H178.521ZM183.625 69.042V70.494H193.899V69.042H183.625ZM182.877 73.156V74.63H192.403V73.156H182.877ZM177.993 77.226V78.766H197.661V77.226H177.993ZM191.985 73.156L191.963 73.42C191.501 79.052 190.995 81.406 190.247 82.044C189.983 82.264 189.719 82.286 189.213 82.286C188.663 82.286 187.145 82.286 185.627 82.132C185.913 82.572 186.133 83.232 186.177 83.694C187.607 83.782 189.037 83.804 189.763 83.76C190.599 83.716 191.105 83.562 191.633 83.056C192.513 82.176 193.041 79.844 193.569 73.904C193.591 73.662 193.635 73.156 193.635 73.156H191.985ZM183.383 66.424C182.899 69.196 182.063 72.958 181.425 75.202L183.097 75.356C183.691 73.156 184.505 69.438 185.033 66.6L183.383 66.424ZM208.881 63.52V67.062H210.619V63.52H208.881ZM200.675 65.852V70.604H202.347V67.414H217.307V70.604H219.045V65.852H200.675ZM208.001 68.404C206.505 71.638 204.129 76.126 202.523 78.766L204.217 79.228C205.779 76.566 208.089 72.122 209.717 68.778L208.001 68.404ZM213.831 72.958C212.401 79.074 208.023 81.384 200.565 82.308C200.873 82.682 201.379 83.408 201.555 83.804C209.145 82.594 213.853 80.042 215.657 73.222L213.831 72.958ZM200.037 71.968V73.53H219.573V71.968H200.037ZM203.799 77.996C208.529 79.36 214.359 81.846 217.285 83.804L218.517 82.44C215.437 80.482 209.541 78.106 204.921 76.83L203.799 77.996ZM231.717 65.126C233.697 67.898 237.547 71.176 240.957 73.134C241.243 72.65 241.639 72.1 242.057 71.682C238.603 69.966 234.753 66.754 232.465 63.498H230.771C229.077 66.358 225.403 69.856 221.619 71.946C221.971 72.298 222.433 72.87 222.653 73.266C226.371 71.088 229.913 67.81 231.717 65.126ZM224.281 76.566V78.04H239.285V76.566H224.281ZM225.271 71.638V73.134H238.427V71.638H225.271ZM222.477 81.67V83.166H241.221V81.67H222.477ZM230.859 72.254V82.506H232.597V72.254H230.859ZM245.687 67.062V68.536H250.835V79.954H245.687V81.45H252.375V67.062H245.687ZM244.697 67.062V83.21H246.237V67.062H244.697ZM245.577 73.178V74.652H251.649V73.178H245.577ZM248.063 63.476C247.887 64.62 247.469 66.292 247.095 67.348L248.415 67.678C248.855 66.688 249.405 65.17 249.845 63.806L248.063 63.476ZM255.499 66.996V68.536H262.253V66.996H255.499ZM261.681 66.996V67.348C261.373 77.05 261.021 80.702 260.295 81.494C260.053 81.78 259.789 81.846 259.349 81.846C258.843 81.846 257.523 81.824 256.093 81.714C256.401 82.154 256.599 82.836 256.643 83.32C257.875 83.386 259.173 83.43 259.921 83.342C260.691 83.276 261.197 83.078 261.681 82.44C262.561 81.362 262.869 77.952 263.221 67.854C263.221 67.612 263.221 66.996 263.221 66.996H261.681ZM255.961 63.432C255.257 66.49 254.047 69.526 252.551 71.462C252.947 71.682 253.629 72.144 253.915 72.408C255.433 70.318 256.731 67.084 257.545 63.806L255.961 63.432ZM254.949 72.716C256.159 74.322 257.633 76.5 258.293 77.842L259.701 76.962C258.997 75.664 257.479 73.53 256.225 71.968L254.949 72.716ZM269.095 74.696V83.76H270.701V76.06H280.953V83.716H282.647V74.696H269.095ZM270.019 78.128V79.404H281.569V78.128H270.019ZM268.259 65.346V66.688H275.277V65.346H268.259ZM265.883 68.8V70.142H275.849V68.8H265.883ZM270.019 81.582V82.946H281.569V81.582H270.019ZM270.459 65.83V67.986C270.459 69.724 270.129 72.298 265.685 74.058C266.059 74.322 266.521 74.85 266.741 75.18C271.405 73.09 272.043 70.142 272.043 68.008V65.83H270.459ZM268.369 63.454C267.885 65.126 267.005 66.776 265.883 67.898C266.257 68.052 266.917 68.47 267.203 68.69C268.281 67.48 269.293 65.654 269.865 63.762L268.369 63.454ZM271.559 70.472L270.481 71.198C271.427 71.792 273.715 73.42 274.529 74.102L275.673 72.958C275.035 72.518 272.351 70.89 271.559 70.472ZM278.313 66.798H282.889V71.484H278.313V66.798ZM276.773 65.324V73.002H284.517V65.324H276.773ZM291.359 63.52C290.831 65.126 289.797 67.436 288.961 68.844L290.369 69.262C291.249 67.876 292.283 65.742 293.075 63.916L291.359 63.52ZM287.663 68.184L287.817 69.79C290.215 69.658 293.625 69.482 296.903 69.284L296.925 67.81C293.471 67.964 289.973 68.118 287.663 68.184ZM289.005 71.374V83.738H290.545V72.782H295.979V71.374H289.005ZM295.231 71.374V81.846C295.231 82.132 295.143 82.198 294.857 82.198C294.549 82.22 293.603 82.242 292.569 82.198C292.789 82.616 293.031 83.276 293.119 83.716C294.505 83.716 295.473 83.694 296.089 83.43C296.683 83.166 296.859 82.704 296.859 81.868V71.374H295.231ZM289.731 74.652V75.95H296.089V74.652H289.731ZM289.731 77.952V79.272H296.089V77.952H289.731ZM298.927 63.564V70.868C298.927 72.694 299.477 73.2 301.589 73.2C302.029 73.2 304.911 73.2 305.373 73.2C307.155 73.2 307.639 72.474 307.837 69.79C307.353 69.68 306.693 69.438 306.341 69.152C306.253 71.33 306.099 71.704 305.241 71.704C304.603 71.704 302.205 71.704 301.743 71.704C300.731 71.704 300.555 71.55 300.555 70.846V63.564H298.927ZM305.659 65.192C304.163 65.962 301.655 66.93 299.477 67.612C299.675 67.942 299.895 68.426 299.983 68.778C302.249 68.14 304.889 67.282 306.759 66.402L305.659 65.192ZM298.927 73.794V81.252C298.927 83.078 299.499 83.584 301.633 83.584C302.095 83.584 305.065 83.584 305.549 83.584C307.397 83.584 307.881 82.792 308.101 79.822C307.639 79.734 306.979 79.47 306.605 79.206C306.495 81.692 306.363 82.11 305.417 82.11C304.757 82.11 302.271 82.11 301.809 82.11C300.753 82.11 300.555 81.978 300.555 81.23V73.794H298.927ZM305.923 75.004C304.427 75.972 301.765 76.984 299.477 77.644C299.653 77.974 299.895 78.502 299.983 78.832C302.359 78.194 305.175 77.292 307.023 76.236L305.923 75.004ZM294.109 65.61C295.275 67.172 296.463 69.284 296.925 70.626L298.377 69.988C297.871 68.624 296.639 66.6 295.473 65.06L294.109 65.61ZM314.261 70.714V72.188H325.371V70.714H314.261ZM313.865 81.406V82.88H325.657V81.406H313.865ZM313.117 74.96V83.782H314.723V76.456H324.909V83.782H326.581V74.96H313.117ZM319.739 65.214C321.807 68.03 325.679 71.132 329.133 72.936C329.419 72.452 329.815 71.88 330.233 71.484C326.713 69.922 322.863 66.864 320.487 63.586H318.815C317.077 66.424 313.403 69.79 309.531 71.748C309.905 72.1 310.345 72.694 310.565 73.068C314.327 71.022 317.935 67.898 319.739 65.214ZM332.279 77.974C332.279 77.622 333.357 77.138 333.357 77.138V77.116C335.601 74.982 337.889 72.034 339.759 69.042L338.395 68.206C336.745 71.176 334.281 74.256 333.511 75.026C332.807 75.818 332.257 76.368 331.773 76.478C331.949 76.874 332.191 77.644 332.279 77.974ZM332.279 77.974C332.785 77.688 333.599 77.512 339.869 76.478C339.825 76.126 339.803 75.51 339.825 75.07L333.071 76.06L332.213 76.61L332.279 77.974ZM332.125 72.672C332.125 72.342 333.203 71.814 333.203 71.814V71.77C334.809 69.812 336.481 66.996 337.757 64.268L336.195 63.608C335.183 66.248 333.445 69.042 332.917 69.79C332.411 70.516 331.993 71.022 331.575 71.11C331.773 71.55 332.037 72.342 332.125 72.672ZM332.125 72.672C332.521 72.474 333.181 72.364 337.581 71.88C337.559 71.572 337.625 70.956 337.691 70.56L332.895 71L332.103 71.484L332.125 72.672ZM331.663 80.856L331.927 82.44C334.193 82 337.251 81.384 340.199 80.768L340.089 79.316C336.987 79.91 333.775 80.526 331.663 80.856ZM342.311 67.568V69.108H350.165V67.568H342.311ZM349.505 67.568V67.942C349.263 77.468 348.933 81.032 348.251 81.802C348.009 82.088 347.767 82.154 347.349 82.132C346.843 82.132 345.589 82.132 344.203 82.022C344.489 82.462 344.709 83.144 344.731 83.606C345.941 83.672 347.217 83.694 347.943 83.628C348.713 83.562 349.197 83.364 349.681 82.726C350.517 81.692 350.781 78.348 351.089 68.426C351.089 68.206 351.089 67.568 351.089 67.568H349.505ZM343.235 63.542C342.531 66.534 341.321 69.526 339.803 71.44C340.177 71.638 340.881 72.122 341.167 72.364C342.685 70.274 343.983 67.106 344.841 63.85L343.235 63.542ZM341.739 72.892C343.367 74.322 345.193 76.346 346.007 77.688L347.217 76.654C346.403 75.29 344.511 73.332 342.883 71.968L341.739 72.892Z" fill="white"/>
</svg>
