<svg width="406" height="228" viewBox="0 0 406 228" fill="none" xmlns="http://www.w3.org/2000/svg">
<rect width="406" height="228" fill="black"/>
<path d="M62.0347 66.237L57.1177 82H55.2037L51.2107 69.977C51.1741 69.8597 51.1374 69.735 51.1007 69.603C51.0714 69.471 51.0384 69.3317 51.0017 69.185C50.9651 69.3317 50.9284 69.471 50.8917 69.603C50.8551 69.735 50.8184 69.8597 50.7817 69.977L46.7667 82H44.8527L39.9357 66.237H41.7067C41.8974 66.237 42.0551 66.2847 42.1797 66.38C42.3117 66.4753 42.3961 66.5963 42.4327 66.743L45.6887 77.699C45.7401 77.897 45.7877 78.1097 45.8317 78.337C45.8831 78.5643 45.9307 78.8063 45.9747 79.063C46.0261 78.8063 46.0774 78.5643 46.1287 78.337C46.1874 78.1023 46.2497 77.8897 46.3157 77.699L50.0227 66.743C50.0667 66.6183 50.1511 66.5047 50.2757 66.402C50.4077 66.292 50.5654 66.237 50.7487 66.237H51.3647C51.5554 66.237 51.7094 66.2847 51.8267 66.38C51.9441 66.4753 52.0321 66.5963 52.0907 66.743L55.7867 77.699C55.8527 77.8897 55.9114 78.095 55.9627 78.315C56.0214 78.535 56.0764 78.766 56.1277 79.008C56.1644 78.766 56.2047 78.535 56.2487 78.315C56.2927 78.095 56.3404 77.8897 56.3917 77.699L59.6587 66.743C59.6954 66.611 59.7761 66.4937 59.9007 66.391C60.0327 66.2883 60.1904 66.237 60.3737 66.237H62.0347ZM66.3502 72.188C67.1715 72.012 67.9268 71.924 68.6162 71.924C69.4375 71.924 70.1635 72.045 70.7942 72.287C71.4248 72.529 71.9492 72.8627 72.3672 73.288C72.7925 73.7133 73.1115 74.2157 73.3242 74.795C73.5442 75.3743 73.6542 76.005 73.6542 76.687C73.6542 77.523 73.5075 78.2783 73.2142 78.953C72.9282 79.6277 72.5285 80.207 72.0152 80.691C71.5092 81.1677 70.9115 81.5343 70.2222 81.791C69.5328 82.0477 68.7885 82.176 67.9892 82.176C67.5272 82.176 67.0835 82.1283 66.6582 82.033C66.2328 81.945 65.8332 81.824 65.4592 81.67C65.0925 81.516 64.7515 81.34 64.4362 81.142C64.1208 80.944 63.8422 80.735 63.6002 80.515L64.2052 79.679C64.3372 79.4883 64.5095 79.393 64.7222 79.393C64.8688 79.393 65.0338 79.4517 65.2172 79.569C65.4005 79.679 65.6242 79.8037 65.8882 79.943C66.1522 80.0823 66.4602 80.2107 66.8122 80.328C67.1715 80.438 67.5968 80.493 68.0882 80.493C68.6382 80.493 69.1332 80.405 69.5732 80.229C70.0132 80.053 70.3908 79.8037 70.7062 79.481C71.0215 79.151 71.2635 78.7587 71.4322 78.304C71.6008 77.8493 71.6852 77.3397 71.6852 76.775C71.6852 76.2837 71.6118 75.84 71.4652 75.444C71.3258 75.048 71.1095 74.7107 70.8162 74.432C70.5302 74.1533 70.1708 73.937 69.7382 73.783C69.3055 73.629 68.7995 73.552 68.2202 73.552C67.8242 73.552 67.4098 73.585 66.9772 73.651C66.5518 73.717 66.1155 73.8233 65.6682 73.97L64.4362 73.607L65.7012 66.237H73.1702V67.095C73.1702 67.3737 73.0822 67.6047 72.9062 67.788C72.7375 67.964 72.4442 68.052 72.0262 68.052H67.0762L66.3502 72.188ZM82.1338 74.575H87.5678V76.236H82.1338V74.575ZM105.508 80.207V82H96.5648V66.237H98.6878V80.207H105.508ZM108.966 70.868C108.966 71.3667 109.035 71.814 109.175 72.21C109.321 72.5987 109.527 72.9287 109.791 73.2C110.062 73.4713 110.388 73.6767 110.77 73.816C111.158 73.9553 111.591 74.025 112.068 74.025C112.596 74.025 113.061 73.9407 113.465 73.772C113.875 73.596 114.22 73.365 114.499 73.079C114.777 72.793 114.99 72.463 115.137 72.089C115.283 71.715 115.357 71.3263 115.357 70.923C115.357 70.4317 115.276 69.988 115.115 69.592C114.961 69.1887 114.744 68.8477 114.466 68.569C114.187 68.2903 113.853 68.0777 113.465 67.931C113.083 67.777 112.662 67.7 112.2 67.7C111.716 67.7 111.276 67.7807 110.88 67.942C110.484 68.096 110.143 68.3123 109.857 68.591C109.571 68.8697 109.351 69.2033 109.197 69.592C109.043 69.9807 108.966 70.406 108.966 70.868ZM113.542 75.719C113.703 75.5063 113.853 75.3047 113.993 75.114C114.132 74.9233 114.264 74.7327 114.389 74.542C113.985 74.8647 113.531 75.1103 113.025 75.279C112.519 75.4477 111.983 75.532 111.419 75.532C110.825 75.532 110.26 75.433 109.725 75.235C109.197 75.037 108.731 74.7473 108.328 74.366C107.924 73.9773 107.602 73.5043 107.36 72.947C107.125 72.3823 107.008 71.737 107.008 71.011C107.008 70.3217 107.136 69.6763 107.393 69.075C107.649 68.4737 108.009 67.9493 108.471 67.502C108.933 67.0547 109.483 66.7027 110.121 66.446C110.759 66.1893 111.459 66.061 112.222 66.061C112.977 66.061 113.663 66.1857 114.279 66.435C114.895 66.6843 115.423 67.0327 115.863 67.48C116.303 67.9273 116.64 68.4627 116.875 69.086C117.117 69.7093 117.238 70.3987 117.238 71.154C117.238 71.6087 117.194 72.0413 117.106 72.452C117.025 72.8553 116.904 73.255 116.743 73.651C116.589 74.0397 116.398 74.4283 116.171 74.817C115.943 75.1983 115.687 75.5907 115.401 75.994L111.562 81.538C111.466 81.6773 111.331 81.791 111.155 81.879C110.979 81.9597 110.777 82 110.55 82H108.746L113.542 75.719ZM119.835 80.79C119.835 80.5993 119.868 80.4197 119.934 80.251C120.008 80.0823 120.103 79.9357 120.22 79.811C120.345 79.6863 120.492 79.5873 120.66 79.514C120.829 79.4407 121.009 79.404 121.199 79.404C121.39 79.404 121.57 79.4407 121.738 79.514C121.907 79.5873 122.054 79.6863 122.178 79.811C122.303 79.9357 122.402 80.0823 122.475 80.251C122.549 80.4197 122.585 80.5993 122.585 80.79C122.585 80.988 122.549 81.1713 122.475 81.34C122.402 81.5013 122.303 81.6443 122.178 81.769C122.054 81.8937 121.907 81.989 121.738 82.055C121.57 82.1283 121.39 82.165 121.199 82.165C121.009 82.165 120.829 82.1283 120.66 82.055C120.492 81.989 120.345 81.8937 120.22 81.769C120.103 81.6443 120.008 81.5013 119.934 81.34C119.868 81.1713 119.835 80.988 119.835 80.79ZM134.67 80.141C134.883 80.141 135.052 80.2033 135.176 80.328C135.301 80.4527 135.363 80.614 135.363 80.812V82H124.847V81.329C124.847 81.1897 124.877 81.0467 124.935 80.9C124.994 80.7533 125.086 80.6177 125.21 80.493L130.259 75.422C130.677 74.9967 131.059 74.5897 131.403 74.201C131.748 73.805 132.041 73.409 132.283 73.013C132.525 72.617 132.712 72.2173 132.844 71.814C132.976 71.4033 133.042 70.967 133.042 70.505C133.042 70.043 132.969 69.6397 132.822 69.295C132.676 68.943 132.474 68.6533 132.217 68.426C131.968 68.1987 131.671 68.03 131.326 67.92C130.982 67.8027 130.611 67.744 130.215 67.744C129.812 67.744 129.442 67.8027 129.104 67.92C128.767 68.0373 128.466 68.2023 128.202 68.415C127.946 68.6203 127.729 68.866 127.553 69.152C127.377 69.438 127.253 69.7533 127.179 70.098C127.091 70.3547 126.97 70.527 126.816 70.615C126.67 70.6957 126.461 70.7177 126.189 70.681L125.166 70.505C125.269 69.7863 125.467 69.152 125.76 68.602C126.061 68.0447 126.435 67.579 126.882 67.205C127.337 66.831 127.854 66.5487 128.433 66.358C129.013 66.16 129.64 66.061 130.314 66.061C130.982 66.061 131.605 66.16 132.184 66.358C132.764 66.556 133.266 66.8457 133.691 67.227C134.117 67.601 134.45 68.0593 134.692 68.602C134.934 69.1447 135.055 69.7607 135.055 70.45C135.055 71.0367 134.967 71.583 134.791 72.089C134.615 72.5877 134.377 73.0643 134.076 73.519C133.776 73.9737 133.427 74.4173 133.031 74.85C132.643 75.2827 132.228 75.719 131.788 76.159L127.63 80.405C127.924 80.3243 128.221 80.262 128.521 80.218C128.822 80.1667 129.112 80.141 129.39 80.141H134.67ZM156.988 66.237V82H155.921C155.752 82 155.609 81.9707 155.492 81.912C155.382 81.8533 155.272 81.7543 155.162 81.615L146.043 69.735C146.058 69.9183 146.069 70.098 146.076 70.274C146.083 70.45 146.087 70.615 146.087 70.769V82H144.217V66.237H145.317C145.412 66.237 145.493 66.2443 145.559 66.259C145.625 66.2663 145.684 66.2847 145.735 66.314C145.786 66.336 145.838 66.3727 145.889 66.424C145.94 66.468 145.995 66.5267 146.054 66.6L155.173 78.469C155.158 78.2783 155.144 78.095 155.129 77.919C155.122 77.7357 155.118 77.5633 155.118 77.402V66.237H156.988ZM163.152 67.975V73.486H169.631V75.224H163.152V82H161.018V66.237H170.731V67.975H163.152ZM184.116 68.03H179.012V82H176.889V68.03H171.774V66.237H184.116V68.03ZM193.695 74.696V83.76H195.301V76.06H205.553V83.716H207.247V74.696H193.695ZM194.619 78.128V79.404H206.169V78.128H194.619ZM192.859 65.346V66.688H199.877V65.346H192.859ZM190.483 68.8V70.142H200.449V68.8H190.483ZM194.619 81.582V82.946H206.169V81.582H194.619ZM195.059 65.83V67.986C195.059 69.724 194.729 72.298 190.285 74.058C190.659 74.322 191.121 74.85 191.341 75.18C196.005 73.09 196.643 70.142 196.643 68.008V65.83H195.059ZM192.969 63.454C192.485 65.126 191.605 66.776 190.483 67.898C190.857 68.052 191.517 68.47 191.803 68.69C192.881 67.48 193.893 65.654 194.465 63.762L192.969 63.454ZM196.159 70.472L195.081 71.198C196.027 71.792 198.315 73.42 199.129 74.102L200.273 72.958C199.635 72.518 196.951 70.89 196.159 70.472ZM202.913 66.798H207.489V71.484H202.913V66.798ZM201.373 65.324V73.002H209.117V65.324H201.373ZM215.959 63.52C215.431 65.126 214.397 67.436 213.561 68.844L214.969 69.262C215.849 67.876 216.883 65.742 217.675 63.916L215.959 63.52ZM212.263 68.184L212.417 69.79C214.815 69.658 218.225 69.482 221.503 69.284L221.525 67.81C218.071 67.964 214.573 68.118 212.263 68.184ZM213.605 71.374V83.738H215.145V72.782H220.579V71.374H213.605ZM219.831 71.374V81.846C219.831 82.132 219.743 82.198 219.457 82.198C219.149 82.22 218.203 82.242 217.169 82.198C217.389 82.616 217.631 83.276 217.719 83.716C219.105 83.716 220.073 83.694 220.689 83.43C221.283 83.166 221.459 82.704 221.459 81.868V71.374H219.831ZM214.331 74.652V75.95H220.689V74.652H214.331ZM214.331 77.952V79.272H220.689V77.952H214.331ZM223.527 63.564V70.868C223.527 72.694 224.077 73.2 226.189 73.2C226.629 73.2 229.511 73.2 229.973 73.2C231.755 73.2 232.239 72.474 232.437 69.79C231.953 69.68 231.293 69.438 230.941 69.152C230.853 71.33 230.699 71.704 229.841 71.704C229.203 71.704 226.805 71.704 226.343 71.704C225.331 71.704 225.155 71.55 225.155 70.846V63.564H223.527ZM230.259 65.192C228.763 65.962 226.255 66.93 224.077 67.612C224.275 67.942 224.495 68.426 224.583 68.778C226.849 68.14 229.489 67.282 231.359 66.402L230.259 65.192ZM223.527 73.794V81.252C223.527 83.078 224.099 83.584 226.233 83.584C226.695 83.584 229.665 83.584 230.149 83.584C231.997 83.584 232.481 82.792 232.701 79.822C232.239 79.734 231.579 79.47 231.205 79.206C231.095 81.692 230.963 82.11 230.017 82.11C229.357 82.11 226.871 82.11 226.409 82.11C225.353 82.11 225.155 81.978 225.155 81.23V73.794H223.527ZM230.523 75.004C229.027 75.972 226.365 76.984 224.077 77.644C224.253 77.974 224.495 78.502 224.583 78.832C226.959 78.194 229.775 77.292 231.623 76.236L230.523 75.004ZM218.709 65.61C219.875 67.172 221.063 69.284 221.525 70.626L222.977 69.988C222.471 68.624 221.239 66.6 220.073 65.06L218.709 65.61ZM238.861 70.714V72.188H249.971V70.714H238.861ZM238.465 81.406V82.88H250.257V81.406H238.465ZM237.717 74.96V83.782H239.323V76.456H249.509V83.782H251.181V74.96H237.717ZM244.339 65.214C246.407 68.03 250.279 71.132 253.733 72.936C254.019 72.452 254.415 71.88 254.833 71.484C251.313 69.922 247.463 66.864 245.087 63.586H243.415C241.677 66.424 238.003 69.79 234.131 71.748C234.505 72.1 234.945 72.694 235.165 73.068C238.927 71.022 242.535 67.898 244.339 65.214ZM256.879 77.974C256.879 77.622 257.957 77.138 257.957 77.138V77.116C260.201 74.982 262.489 72.034 264.359 69.042L262.995 68.206C261.345 71.176 258.881 74.256 258.111 75.026C257.407 75.818 256.857 76.368 256.373 76.478C256.549 76.874 256.791 77.644 256.879 77.974ZM256.879 77.974C257.385 77.688 258.199 77.512 264.469 76.478C264.425 76.126 264.403 75.51 264.425 75.07L257.671 76.06L256.813 76.61L256.879 77.974ZM256.725 72.672C256.725 72.342 257.803 71.814 257.803 71.814V71.77C259.409 69.812 261.081 66.996 262.357 64.268L260.795 63.608C259.783 66.248 258.045 69.042 257.517 69.79C257.011 70.516 256.593 71.022 256.175 71.11C256.373 71.55 256.637 72.342 256.725 72.672ZM256.725 72.672C257.121 72.474 257.781 72.364 262.181 71.88C262.159 71.572 262.225 70.956 262.291 70.56L257.495 71L256.703 71.484L256.725 72.672ZM256.263 80.856L256.527 82.44C258.793 82 261.851 81.384 264.799 80.768L264.689 79.316C261.587 79.91 258.375 80.526 256.263 80.856ZM266.911 67.568V69.108H274.765V67.568H266.911ZM274.105 67.568V67.942C273.863 77.468 273.533 81.032 272.851 81.802C272.609 82.088 272.367 82.154 271.949 82.132C271.443 82.132 270.189 82.132 268.803 82.022C269.089 82.462 269.309 83.144 269.331 83.606C270.541 83.672 271.817 83.694 272.543 83.628C273.313 83.562 273.797 83.364 274.281 82.726C275.117 81.692 275.381 78.348 275.689 68.426C275.689 68.206 275.689 67.568 275.689 67.568H274.105ZM267.835 63.542C267.131 66.534 265.921 69.526 264.403 71.44C264.777 71.638 265.481 72.122 265.767 72.364C267.285 70.274 268.583 67.106 269.441 63.85L267.835 63.542ZM266.339 72.892C267.967 74.322 269.793 76.346 270.607 77.688L271.817 76.654C271.003 75.29 269.111 73.332 267.483 71.968L266.339 72.892ZM280.287 67.062V68.536H285.435V79.954H280.287V81.45H286.975V67.062H280.287ZM279.297 67.062V83.21H280.837V67.062H279.297ZM280.177 73.178V74.652H286.249V73.178H280.177ZM282.663 63.476C282.487 64.62 282.069 66.292 281.695 67.348L283.015 67.678C283.455 66.688 284.005 65.17 284.445 63.806L282.663 63.476ZM290.099 66.996V68.536H296.853V66.996H290.099ZM296.281 66.996V67.348C295.973 77.05 295.621 80.702 294.895 81.494C294.653 81.78 294.389 81.846 293.949 81.846C293.443 81.846 292.123 81.824 290.693 81.714C291.001 82.154 291.199 82.836 291.243 83.32C292.475 83.386 293.773 83.43 294.521 83.342C295.291 83.276 295.797 83.078 296.281 82.44C297.161 81.362 297.469 77.952 297.821 67.854C297.821 67.612 297.821 66.996 297.821 66.996H296.281ZM290.561 63.432C289.857 66.49 288.647 69.526 287.151 71.462C287.547 71.682 288.229 72.144 288.515 72.408C290.033 70.318 291.331 67.084 292.145 63.806L290.561 63.432ZM289.549 72.716C290.759 74.322 292.233 76.5 292.893 77.842L294.301 76.962C293.597 75.664 292.079 73.53 290.825 71.968L289.549 72.716ZM300.263 75.268V76.654H311.065V75.268H300.263ZM300.395 67.59V68.932H310.999V67.59H300.395ZM304.355 73.376C303.431 75.4 302.045 78.106 301.055 79.778L302.507 80.284C303.519 78.546 304.905 75.862 305.895 73.706L304.355 73.376ZM307.655 76.082C306.973 79.822 304.905 81.626 300.307 82.396C300.615 82.726 300.945 83.32 301.055 83.76C306.137 82.682 308.447 80.57 309.195 76.28L307.655 76.082ZM309.041 63.96C308.645 64.818 307.919 66.094 307.369 66.886L308.469 67.436C309.085 66.688 309.811 65.588 310.449 64.576L309.041 63.96ZM304.949 63.52V73.64H306.467V63.52H304.949ZM301.209 64.576C301.825 65.478 302.397 66.688 302.595 67.48L303.893 66.886C303.673 66.094 303.079 64.928 302.463 64.048L301.209 64.576ZM304.971 68.184C304.003 69.878 301.979 71.638 300.153 72.43C300.461 72.76 300.857 73.31 301.055 73.684C302.947 72.65 305.015 70.692 306.093 68.844L304.971 68.184ZM306.291 68.954L305.499 69.658C306.423 70.274 308.711 71.99 309.503 72.738L310.405 71.528C309.767 71.066 307.083 69.372 306.291 68.954ZM312.671 67.59V69.13H320.503V67.59H312.671ZM313.221 63.52C312.605 67.414 311.461 71.132 309.591 73.464C309.987 73.728 310.669 74.278 310.933 74.586C312.869 72.012 314.167 68.074 314.893 63.762L313.221 63.52ZM317.555 68.47C316.653 75.444 314.541 79.888 309.305 82.352C309.635 82.704 310.119 83.43 310.295 83.826C315.839 80.966 318.171 76.236 319.227 68.646L317.555 68.47ZM313.551 68.954L312.055 69.196C313.155 75.862 315.245 81.23 319.557 83.76C319.799 83.32 320.327 82.682 320.723 82.352C316.631 80.196 314.519 75.004 313.551 68.954ZM302.375 79.47C304.927 80.504 307.545 81.978 309.063 83.21L310.207 82.022C308.623 80.812 305.895 79.36 303.255 78.348L302.375 79.47ZM330.865 64.488V65.94H340.127V68.756H330.909V70.186H341.711V64.488H330.865ZM330.095 64.488V71.154C330.095 74.652 329.875 79.448 327.587 82.836C327.983 82.99 328.665 83.474 328.951 83.76C331.371 80.218 331.701 74.85 331.701 71.154V64.488H330.095ZM330.975 72.606V74.058H342.459V72.606H330.975ZM332.735 81.516V82.88H340.875V81.516H332.735ZM335.969 70.01V77.402H337.553V70.01H335.969ZM332.031 76.786V83.782H333.505V78.194H340.259V83.694H341.777V76.786H332.031ZM322.043 75.224L322.461 76.83C324.353 76.214 326.795 75.422 329.127 74.652L328.907 73.134C326.377 73.948 323.759 74.74 322.043 75.224ZM322.307 67.964V69.504H329.105V67.964H322.307ZM325.079 63.542V81.692C325.079 82.022 324.947 82.11 324.683 82.11C324.419 82.11 323.583 82.11 322.615 82.088C322.835 82.55 323.033 83.232 323.099 83.628C324.485 83.628 325.343 83.584 325.849 83.32C326.399 83.056 326.597 82.616 326.597 81.714V63.542H325.079ZM344.791 77.974C344.791 77.622 345.935 77.094 345.935 77.094V77.05C348.135 74.96 350.379 72.034 352.249 69.086L350.753 68.162C349.169 71.11 346.749 74.146 345.957 74.916C345.253 75.708 344.725 76.258 344.219 76.346C344.417 76.786 344.703 77.622 344.791 77.974ZM344.791 77.974C345.297 77.688 346.089 77.49 352.249 76.368C352.183 76.016 352.139 75.378 352.139 74.938L345.583 76.016L344.703 76.588L344.791 77.974ZM344.637 72.628C344.637 72.254 345.759 71.704 345.759 71.704V71.66C347.255 69.768 348.817 67.018 349.961 64.356L348.289 63.674C347.387 66.226 345.803 68.954 345.319 69.658C344.857 70.384 344.461 70.868 344.043 70.978C344.263 71.418 344.527 72.254 344.637 72.628ZM344.637 72.628C345.033 72.43 345.715 72.298 349.939 71.836C349.939 71.506 349.983 70.868 350.071 70.45L345.429 70.868L344.593 71.374L344.637 72.628ZM344.175 80.856L344.461 82.55C346.639 82.044 349.565 81.45 352.337 80.812L352.205 79.272C349.257 79.888 346.199 80.504 344.175 80.856ZM352.381 66.468V68.074H364.129V66.468H352.381ZM352.931 71.484V73.068H363.755V71.484H352.931ZM354.383 81.296V82.814H362.369V81.296H354.383ZM357.441 63.52V72.298H359.157V63.52H357.441ZM353.503 75.312V83.76H355.109V76.83H361.555V83.672H363.227V75.312H353.503ZM137.556 94.25V95.812H145.476V94.25H137.556ZM140.966 89.52V109.738H142.55V89.52H140.966ZM140.9 95.218C140.196 98.298 138.568 102.038 136.984 103.952C137.27 104.348 137.666 105.008 137.842 105.448C139.536 103.27 141.186 99.068 141.956 95.614L140.9 95.218ZM142.462 97.44L141.626 98.21C142.33 99.09 144.068 101.554 144.662 102.61L145.696 101.268C145.212 100.63 143.056 98.056 142.462 97.44ZM147.984 89.52C147.192 92.644 145.828 95.68 144.112 97.616C144.508 97.858 145.19 98.408 145.498 98.672C147.236 96.538 148.71 93.304 149.634 89.894L147.984 89.52ZM147.676 93.128L146.95 94.69H156.168V93.128H147.676ZM155.53 93.128V93.524C155.244 103.402 154.892 107.054 154.232 107.824C153.99 108.11 153.77 108.198 153.374 108.176C152.934 108.176 151.856 108.176 150.69 108.066C150.976 108.528 151.174 109.232 151.196 109.694C152.274 109.76 153.374 109.782 154.056 109.716C154.76 109.628 155.244 109.452 155.684 108.814C156.52 107.758 156.828 104.326 157.136 94.008C157.136 93.766 157.158 93.128 157.158 93.128H155.53ZM150.602 100.542C151.526 102.214 152.45 104.414 152.736 105.8L154.122 105.294C153.77 103.93 152.824 101.774 151.856 100.124L150.602 100.542ZM148.644 96.362C148.182 98.65 147.28 101.928 146.488 103.886L147.808 104.238C148.622 102.324 149.568 99.2 150.25 96.714L148.644 96.362ZM144.86 103.732L145.212 105.272C147.346 104.964 150.118 104.568 152.846 104.128L152.802 102.83C149.854 103.204 146.84 103.556 144.86 103.732ZM170.776 105.382V106.966H177.596V105.382H170.776ZM170.16 91.588V108.792H171.766V93.15H176.694V108.638H178.366V91.588H170.16ZM163.912 91.39V109.738H165.562V91.39H163.912ZM159.6 96.032V97.572H169.412V96.032H159.6ZM163.824 96.582C162.944 99.618 160.92 103.182 159.072 105.074C159.358 105.47 159.776 106.13 159.952 106.592C161.932 104.48 163.956 100.41 164.99 97L163.824 96.582ZM168.136 89.74C166.222 90.532 162.724 91.192 159.798 91.588C159.996 91.962 160.194 92.512 160.282 92.886C163.296 92.534 166.904 91.896 169.258 91.016L168.136 89.74ZM165.43 98.012L164.594 98.826C165.408 99.794 167.542 102.61 168.246 103.776L169.258 102.434C168.686 101.708 166.134 98.716 165.43 98.012ZM193.942 89.52V92.534H195.614V89.52H193.942ZM188.728 91.874V93.304H200.96V91.874H188.728ZM187.848 97.022V98.474H201.576V97.022H187.848ZM190.796 93.502C191.258 94.712 191.654 96.296 191.72 97.264L193.216 96.89C193.128 95.944 192.71 94.404 192.226 93.216L190.796 93.502ZM197.33 93.172C197.066 94.272 196.538 95.922 196.098 96.956L197.506 97.198C197.968 96.208 198.496 94.712 198.958 93.414L197.33 93.172ZM187.958 100.652V102.082H201.488V100.652H187.958ZM192.996 98.078C192.028 100.476 190.51 103.732 189.41 105.69L190.84 106.174C191.962 104.15 193.524 100.938 194.646 98.408L192.996 98.078ZM190.532 105.404C193.898 106.416 198.012 108.286 200.036 109.782L201.092 108.528C198.958 106.988 194.822 105.228 191.5 104.282L190.532 105.404ZM197.33 101.576C196.384 105.866 193.744 107.736 187.408 108.374C187.672 108.726 187.958 109.298 188.068 109.76C194.866 108.858 197.88 106.724 198.936 101.818L197.33 101.576ZM181.094 101.224L181.468 102.852C183.426 102.258 185.956 101.466 188.354 100.718L188.156 99.244C185.56 99.992 182.876 100.784 181.094 101.224ZM181.468 93.964V95.504H188.178V93.964H181.468ZM184.46 89.542V107.758C184.46 108.088 184.328 108.176 184.042 108.176C183.778 108.198 182.854 108.198 181.864 108.154C182.084 108.616 182.304 109.342 182.37 109.76C183.8 109.76 184.702 109.716 185.274 109.43C185.846 109.166 186.044 108.704 186.044 107.758V89.542H184.46ZM205.272 91.83V109.232H206.988V93.502H219.99V109.122H221.772V91.83H205.272ZM206.042 105.646V107.34H221.222V105.646H206.042ZM227.162 90.95C228.35 91.984 229.824 93.458 230.506 94.404L231.628 93.216C230.924 92.314 229.428 90.906 228.24 89.938L227.162 90.95ZM228.328 109.32C228.68 108.902 229.274 108.44 233.19 105.536C232.992 105.228 232.728 104.612 232.574 104.172L228.46 107.164L228.02 107.846L228.328 109.32ZM225.446 96.428V98.034H229.34V96.428H225.446ZM235.742 90.334V91.874H241.506V90.334H235.742ZM232.926 99.244V100.806H243.2V99.244H232.926ZM242.694 99.244V99.508C241.132 104.37 236.754 107.274 232.002 108.33C232.288 108.704 232.64 109.364 232.794 109.782C237.92 108.418 242.496 105.382 244.3 99.64L243.288 99.178L243.002 99.244H242.694ZM235.148 100.41L233.762 100.894C235.764 105.448 239.46 108.572 244.652 109.826C244.872 109.386 245.312 108.726 245.686 108.374C240.626 107.318 236.886 104.436 235.148 100.41ZM235.302 90.334V92.776C235.302 94.382 234.796 96.208 231.892 97.55C232.2 97.792 232.772 98.43 232.97 98.76C236.138 97.242 236.842 94.866 236.842 92.798V90.334H235.302ZM240.736 90.334V95.416C240.736 97.066 241.066 97.704 242.584 97.704C242.848 97.704 243.926 97.704 244.256 97.704C244.696 97.704 245.136 97.682 245.422 97.572C245.356 97.198 245.29 96.582 245.268 96.164C244.982 96.23 244.52 96.274 244.234 96.274C243.948 96.274 242.958 96.274 242.694 96.274C242.364 96.274 242.298 96.054 242.298 95.438V90.334H240.736ZM228.328 109.32C228.328 108.682 230.132 107.34 230.132 107.34V96.428H228.548V105.932C228.548 106.922 227.844 107.648 227.448 107.934C227.734 108.242 228.196 108.946 228.328 109.32ZM249.514 90.972C250.724 92.006 252.264 93.502 252.99 94.426L254.09 93.216C253.364 92.292 251.802 90.884 250.57 89.916L249.514 90.972ZM250.79 109.342C251.142 108.88 251.758 108.418 255.916 105.47C255.74 105.14 255.476 104.458 255.366 103.996L250.966 107.01L250.482 107.714L250.79 109.342ZM247.512 96.428V98.078H252.022V96.428H247.512ZM254.662 96.824V98.518H267.598V96.824H254.662ZM260.25 89.586V109.76H261.988V89.586H260.25ZM250.79 109.342C250.79 108.704 252.66 107.45 252.66 107.45V96.428H250.988V105.976C250.988 106.922 250.328 107.56 249.91 107.824C250.218 108.176 250.636 108.902 250.79 109.342Z" fill="white"/>
</svg>
