<svg width="406" height="228" viewBox="0 0 406 228" fill="none" xmlns="http://www.w3.org/2000/svg">
<rect width="406" height="228" fill="black"/>
<path d="M108.516 66.237L103.599 82H101.685L97.6922 69.977C97.6555 69.8597 97.6188 69.735 97.5822 69.603C97.5528 69.471 97.5198 69.3317 97.4832 69.185C97.4465 69.3317 97.4098 69.471 97.3732 69.603C97.3365 69.735 97.2998 69.8597 97.2632 69.977L93.2482 82H91.3342L86.4172 66.237H88.1882C88.3788 66.237 88.5365 66.2847 88.6612 66.38C88.7932 66.4753 88.8775 66.5963 88.9142 66.743L92.1702 77.699C92.2215 77.897 92.2692 78.1097 92.3132 78.337C92.3645 78.5643 92.4122 78.8063 92.4562 79.063C92.5075 78.8063 92.5588 78.5643 92.6102 78.337C92.6688 78.1023 92.7312 77.8897 92.7972 77.699L96.5042 66.743C96.5482 66.6183 96.6325 66.5047 96.7572 66.402C96.8892 66.292 97.0468 66.237 97.2302 66.237H97.8462C98.0368 66.237 98.1908 66.2847 98.3082 66.38C98.4255 66.4753 98.5135 66.5963 98.5722 66.743L102.268 77.699C102.334 77.8897 102.393 78.095 102.444 78.315C102.503 78.535 102.558 78.766 102.609 79.008C102.646 78.766 102.686 78.535 102.73 78.315C102.774 78.095 102.822 77.8897 102.873 77.699L106.14 66.743C106.177 66.611 106.258 66.4937 106.382 66.391C106.514 66.2883 106.672 66.237 106.855 66.237H108.516ZM112.832 72.188C113.653 72.012 114.408 71.924 115.098 71.924C115.919 71.924 116.645 72.045 117.276 72.287C117.906 72.529 118.431 72.8627 118.849 73.288C119.274 73.7133 119.593 74.2157 119.806 74.795C120.026 75.3743 120.136 76.005 120.136 76.687C120.136 77.523 119.989 78.2783 119.696 78.953C119.41 79.6277 119.01 80.207 118.497 80.691C117.991 81.1677 117.393 81.5343 116.704 81.791C116.014 82.0477 115.27 82.176 114.471 82.176C114.009 82.176 113.565 82.1283 113.14 82.033C112.714 81.945 112.315 81.824 111.941 81.67C111.574 81.516 111.233 81.34 110.918 81.142C110.602 80.944 110.324 80.735 110.082 80.515L110.687 79.679C110.819 79.4883 110.991 79.393 111.204 79.393C111.35 79.393 111.515 79.4517 111.699 79.569C111.882 79.679 112.106 79.8037 112.37 79.943C112.634 80.0823 112.942 80.2107 113.294 80.328C113.653 80.438 114.078 80.493 114.57 80.493C115.12 80.493 115.615 80.405 116.055 80.229C116.495 80.053 116.872 79.8037 117.188 79.481C117.503 79.151 117.745 78.7587 117.914 78.304C118.082 77.8493 118.167 77.3397 118.167 76.775C118.167 76.2837 118.093 75.84 117.947 75.444C117.807 75.048 117.591 74.7107 117.298 74.432C117.012 74.1533 116.652 73.937 116.22 73.783C115.787 73.629 115.281 73.552 114.702 73.552C114.306 73.552 113.891 73.585 113.459 73.651C113.033 73.717 112.597 73.8233 112.15 73.97L110.918 73.607L112.183 66.237H119.652V67.095C119.652 67.3737 119.564 67.6047 119.388 67.788C119.219 67.964 118.926 68.052 118.508 68.052H113.558L112.832 72.188ZM128.615 74.575H134.049V76.236H128.615V74.575ZM151.989 80.207V82H143.046V66.237H145.169V80.207H151.989ZM155.447 70.868C155.447 71.3667 155.517 71.814 155.656 72.21C155.803 72.5987 156.008 72.9287 156.272 73.2C156.543 73.4713 156.87 73.6767 157.251 73.816C157.64 73.9553 158.072 74.025 158.549 74.025C159.077 74.025 159.543 73.9407 159.946 73.772C160.357 73.596 160.701 73.365 160.98 73.079C161.259 72.793 161.471 72.463 161.618 72.089C161.765 71.715 161.838 71.3263 161.838 70.923C161.838 70.4317 161.757 69.988 161.596 69.592C161.442 69.1887 161.226 68.8477 160.947 68.569C160.668 68.2903 160.335 68.0777 159.946 67.931C159.565 67.777 159.143 67.7 158.681 67.7C158.197 67.7 157.757 67.7807 157.361 67.942C156.965 68.096 156.624 68.3123 156.338 68.591C156.052 68.8697 155.832 69.2033 155.678 69.592C155.524 69.9807 155.447 70.406 155.447 70.868ZM160.023 75.719C160.184 75.5063 160.335 75.3047 160.474 75.114C160.613 74.9233 160.745 74.7327 160.87 74.542C160.467 74.8647 160.012 75.1103 159.506 75.279C159 75.4477 158.465 75.532 157.9 75.532C157.306 75.532 156.741 75.433 156.206 75.235C155.678 75.037 155.212 74.7473 154.809 74.366C154.406 73.9773 154.083 73.5043 153.841 72.947C153.606 72.3823 153.489 71.737 153.489 71.011C153.489 70.3217 153.617 69.6763 153.874 69.075C154.131 68.4737 154.49 67.9493 154.952 67.502C155.414 67.0547 155.964 66.7027 156.602 66.446C157.24 66.1893 157.94 66.061 158.703 66.061C159.458 66.061 160.144 66.1857 160.76 66.435C161.376 66.6843 161.904 67.0327 162.344 67.48C162.784 67.9273 163.121 68.4627 163.356 69.086C163.598 69.7093 163.719 70.3987 163.719 71.154C163.719 71.6087 163.675 72.0413 163.587 72.452C163.506 72.8553 163.385 73.255 163.224 73.651C163.07 74.0397 162.879 74.4283 162.652 74.817C162.425 75.1983 162.168 75.5907 161.882 75.994L158.043 81.538C157.948 81.6773 157.812 81.791 157.636 81.879C157.46 81.9597 157.258 82 157.031 82H155.227L160.023 75.719ZM166.317 80.79C166.317 80.5993 166.35 80.4197 166.416 80.251C166.489 80.0823 166.584 79.9357 166.702 79.811C166.826 79.6863 166.973 79.5873 167.142 79.514C167.31 79.4407 167.49 79.404 167.681 79.404C167.871 79.404 168.051 79.4407 168.22 79.514C168.388 79.5873 168.535 79.6863 168.66 79.811C168.784 79.9357 168.883 80.0823 168.957 80.251C169.03 80.4197 169.067 80.5993 169.067 80.79C169.067 80.988 169.03 81.1713 168.957 81.34C168.883 81.5013 168.784 81.6443 168.66 81.769C168.535 81.8937 168.388 81.989 168.22 82.055C168.051 82.1283 167.871 82.165 167.681 82.165C167.49 82.165 167.31 82.1283 167.142 82.055C166.973 81.989 166.826 81.8937 166.702 81.769C166.584 81.6443 166.489 81.5013 166.416 81.34C166.35 81.1713 166.317 80.988 166.317 80.79ZM171.725 70.505C171.828 69.7863 172.026 69.152 172.319 68.602C172.612 68.0447 172.983 67.579 173.43 67.205C173.885 66.831 174.402 66.5487 174.981 66.358C175.568 66.16 176.198 66.061 176.873 66.061C177.54 66.061 178.156 66.1563 178.721 66.347C179.286 66.5377 179.77 66.809 180.173 67.161C180.584 67.513 180.903 67.9383 181.13 68.437C181.357 68.9357 181.471 69.4893 181.471 70.098C181.471 70.5967 181.405 71.044 181.273 71.44C181.148 71.8287 180.965 72.1697 180.723 72.463C180.488 72.7563 180.202 73.0057 179.865 73.211C179.528 73.4163 179.15 73.585 178.732 73.717C179.759 73.981 180.529 74.4357 181.042 75.081C181.563 75.719 181.823 76.5183 181.823 77.479C181.823 78.205 181.684 78.8577 181.405 79.437C181.134 80.0163 180.76 80.5113 180.283 80.922C179.806 81.3253 179.249 81.637 178.611 81.857C177.98 82.0697 177.302 82.176 176.576 82.176C175.74 82.176 175.025 82.0733 174.431 81.868C173.837 81.6553 173.335 81.3657 172.924 80.999C172.513 80.6323 172.176 80.1997 171.912 79.701C171.648 79.195 171.424 78.6487 171.241 78.062L172.088 77.71C172.308 77.6147 172.521 77.589 172.726 77.633C172.939 77.677 173.093 77.798 173.188 77.996C173.283 78.2013 173.401 78.447 173.54 78.733C173.687 79.019 173.885 79.294 174.134 79.558C174.383 79.822 174.699 80.0457 175.08 80.229C175.469 80.4123 175.96 80.504 176.554 80.504C177.104 80.504 177.584 80.416 177.995 80.24C178.413 80.0567 178.758 79.822 179.029 79.536C179.308 79.25 179.517 78.931 179.656 78.579C179.795 78.227 179.865 77.8787 179.865 77.534C179.865 77.1087 179.81 76.72 179.7 76.368C179.59 76.016 179.385 75.7117 179.084 75.455C178.783 75.1983 178.369 74.9967 177.841 74.85C177.32 74.7033 176.649 74.63 175.828 74.63V73.211C176.503 73.2037 177.075 73.1303 177.544 72.991C178.021 72.8517 178.406 72.661 178.699 72.419C179 72.177 179.216 71.8873 179.348 71.55C179.487 71.2127 179.557 70.8387 179.557 70.428C179.557 69.9733 179.484 69.5773 179.337 69.24C179.198 68.9027 179.003 68.624 178.754 68.404C178.505 68.184 178.208 68.019 177.863 67.909C177.526 67.799 177.159 67.744 176.763 67.744C176.367 67.744 175.997 67.8027 175.652 67.92C175.315 68.0373 175.014 68.2023 174.75 68.415C174.493 68.6203 174.277 68.866 174.101 69.152C173.925 69.438 173.8 69.7533 173.727 70.098C173.632 70.3547 173.511 70.527 173.364 70.615C173.225 70.6957 173.019 70.7177 172.748 70.681L171.725 70.505ZM203.47 66.237V82H202.403C202.234 82 202.091 81.9707 201.974 81.912C201.864 81.8533 201.754 81.7543 201.644 81.615L192.525 69.735C192.539 69.9183 192.55 70.098 192.558 70.274C192.565 70.45 192.569 70.615 192.569 70.769V82H190.699V66.237H191.799C191.894 66.237 191.975 66.2443 192.041 66.259C192.107 66.2663 192.165 66.2847 192.217 66.314C192.268 66.336 192.319 66.3727 192.371 66.424C192.422 66.468 192.477 66.5267 192.536 66.6L201.655 78.469C201.64 78.2783 201.625 78.095 201.611 77.919C201.603 77.7357 201.6 77.5633 201.6 77.402V66.237H203.47ZM209.633 67.975V73.486H216.112V75.224H209.633V82H207.499V66.237H217.212V67.975H209.633ZM230.598 68.03H225.494V82H223.371V68.03H218.256V66.237H230.598V68.03ZM236.38 70.714V72.188H247.49V70.714H236.38ZM235.984 81.406V82.88H247.776V81.406H235.984ZM235.236 74.96V83.782H236.842V76.456H247.028V83.782H248.7V74.96H235.236ZM241.858 65.214C243.926 68.03 247.798 71.132 251.252 72.936C251.538 72.452 251.934 71.88 252.352 71.484C248.832 69.922 244.982 66.864 242.606 63.586H240.934C239.196 66.424 235.522 69.79 231.65 71.748C232.024 72.1 232.464 72.694 232.684 73.068C236.446 71.022 240.054 67.898 241.858 65.214ZM254.398 77.974C254.398 77.622 255.476 77.138 255.476 77.138V77.116C257.72 74.982 260.008 72.034 261.878 69.042L260.514 68.206C258.864 71.176 256.4 74.256 255.63 75.026C254.926 75.818 254.376 76.368 253.892 76.478C254.068 76.874 254.31 77.644 254.398 77.974ZM254.398 77.974C254.904 77.688 255.718 77.512 261.988 76.478C261.944 76.126 261.922 75.51 261.944 75.07L255.19 76.06L254.332 76.61L254.398 77.974ZM254.244 72.672C254.244 72.342 255.322 71.814 255.322 71.814V71.77C256.928 69.812 258.6 66.996 259.876 64.268L258.314 63.608C257.302 66.248 255.564 69.042 255.036 69.79C254.53 70.516 254.112 71.022 253.694 71.11C253.892 71.55 254.156 72.342 254.244 72.672ZM254.244 72.672C254.64 72.474 255.3 72.364 259.7 71.88C259.678 71.572 259.744 70.956 259.81 70.56L255.014 71L254.222 71.484L254.244 72.672ZM253.782 80.856L254.046 82.44C256.312 82 259.37 81.384 262.318 80.768L262.208 79.316C259.106 79.91 255.894 80.526 253.782 80.856ZM264.43 67.568V69.108H272.284V67.568H264.43ZM271.624 67.568V67.942C271.382 77.468 271.052 81.032 270.37 81.802C270.128 82.088 269.886 82.154 269.468 82.132C268.962 82.132 267.708 82.132 266.322 82.022C266.608 82.462 266.828 83.144 266.85 83.606C268.06 83.672 269.336 83.694 270.062 83.628C270.832 83.562 271.316 83.364 271.8 82.726C272.636 81.692 272.9 78.348 273.208 68.426C273.208 68.206 273.208 67.568 273.208 67.568H271.624ZM265.354 63.542C264.65 66.534 263.44 69.526 261.922 71.44C262.296 71.638 263 72.122 263.286 72.364C264.804 70.274 266.102 67.106 266.96 63.85L265.354 63.542ZM263.858 72.892C265.486 74.322 267.312 76.346 268.126 77.688L269.336 76.654C268.522 75.29 266.63 73.332 265.002 71.968L263.858 72.892ZM276.882 64.972V66.534H295.098V64.972H276.882ZM276.068 72.826V74.41H295.802V72.826H276.068ZM289.18 65.786V83.782H290.874V65.786H289.18ZM281.348 65.786V71.88C281.348 75.686 280.842 79.712 276.112 82.638C276.53 82.902 277.124 83.474 277.41 83.848C282.47 80.658 283.02 76.148 283.02 71.88V65.786H281.348ZM305.856 73.09L304.448 73.53C306.692 78.942 310.85 82.462 317.098 83.826C317.318 83.386 317.78 82.704 318.132 82.374C312.016 81.186 307.836 77.908 305.856 73.09ZM313.71 72.474V72.76C312.06 78.062 307.33 81.142 302.182 82.396C302.512 82.748 302.908 83.386 303.084 83.804C308.584 82.308 313.49 79.096 315.492 72.914L314.37 72.408L314.04 72.474H313.71ZM305.372 72.474L304.91 74.058H313.974V72.474H305.372ZM306.89 63.454C305.922 71.286 303.414 77.226 297.584 80.746C297.98 81.054 298.574 81.67 298.816 82.022C305.02 78.216 307.594 72.078 308.716 63.74L306.89 63.454ZM311.708 64.62C312.676 65.654 313.908 67.062 314.524 67.898L315.844 66.996C315.228 66.182 313.952 64.818 313.006 63.85L311.708 64.62ZM300.092 70.494C300.092 70.098 301.412 69.548 301.412 69.548V69.526C302.16 68.294 303.04 66.336 303.59 64.466L301.808 64.158C301.456 65.852 300.598 67.612 300.356 68.074C300.092 68.558 299.828 68.866 299.542 68.954C299.718 69.35 299.982 70.142 300.092 70.494ZM300.092 70.494C300.312 70.252 301.038 70.12 302.424 70.12H317.384V68.536H301.192L300.092 69.196V70.494Z" fill="white"/>
</svg>
