<svg width="406" height="228" viewBox="0 0 406 228" fill="none" xmlns="http://www.w3.org/2000/svg">
<rect width="406" height="228" fill="black"/>
<path d="M63.9791 66.237L59.0621 82H57.1481L53.1551 69.977C53.1184 69.8597 53.0817 69.735 53.0451 69.603C53.0157 69.471 52.9827 69.3317 52.9461 69.185C52.9094 69.3317 52.8727 69.471 52.8361 69.603C52.7994 69.735 52.7627 69.8597 52.7261 69.977L48.7111 82H46.7971L41.8801 66.237H43.6511C43.8417 66.237 43.9994 66.2847 44.1241 66.38C44.2561 66.4753 44.3404 66.5963 44.3771 66.743L47.6331 77.699C47.6844 77.897 47.7321 78.1097 47.7761 78.337C47.8274 78.5643 47.8751 78.8063 47.9191 79.063C47.9704 78.8063 48.0217 78.5643 48.0731 78.337C48.1317 78.1023 48.1941 77.8897 48.2601 77.699L51.9671 66.743C52.0111 66.6183 52.0954 66.5047 52.2201 66.402C52.3521 66.292 52.5097 66.237 52.6931 66.237H53.3091C53.4997 66.237 53.6537 66.2847 53.7711 66.38C53.8884 66.4753 53.9764 66.5963 54.0351 66.743L57.7311 77.699C57.7971 77.8897 57.8557 78.095 57.9071 78.315C57.9657 78.535 58.0207 78.766 58.0721 79.008C58.1087 78.766 58.1491 78.535 58.1931 78.315C58.2371 78.095 58.2847 77.8897 58.3361 77.699L61.6031 66.743C61.6397 66.611 61.7204 66.4937 61.8451 66.391C61.9771 66.2883 62.1347 66.237 62.3181 66.237H63.9791ZM68.2945 72.188C69.1158 72.012 69.8712 71.924 70.5605 71.924C71.3818 71.924 72.1078 72.045 72.7385 72.287C73.3692 72.529 73.8935 72.8627 74.3115 73.288C74.7368 73.7133 75.0558 74.2157 75.2685 74.795C75.4885 75.3743 75.5985 76.005 75.5985 76.687C75.5985 77.523 75.4518 78.2783 75.1585 78.953C74.8725 79.6277 74.4728 80.207 73.9595 80.691C73.4535 81.1677 72.8558 81.5343 72.1665 81.791C71.4772 82.0477 70.7328 82.176 69.9335 82.176C69.4715 82.176 69.0278 82.1283 68.6025 82.033C68.1772 81.945 67.7775 81.824 67.4035 81.67C67.0368 81.516 66.6958 81.34 66.3805 81.142C66.0652 80.944 65.7865 80.735 65.5445 80.515L66.1495 79.679C66.2815 79.4883 66.4538 79.393 66.6665 79.393C66.8132 79.393 66.9782 79.4517 67.1615 79.569C67.3448 79.679 67.5685 79.8037 67.8325 79.943C68.0965 80.0823 68.4045 80.2107 68.7565 80.328C69.1158 80.438 69.5412 80.493 70.0325 80.493C70.5825 80.493 71.0775 80.405 71.5175 80.229C71.9575 80.053 72.3352 79.8037 72.6505 79.481C72.9658 79.151 73.2078 78.7587 73.3765 78.304C73.5452 77.8493 73.6295 77.3397 73.6295 76.775C73.6295 76.2837 73.5562 75.84 73.4095 75.444C73.2702 75.048 73.0538 74.7107 72.7605 74.432C72.4745 74.1533 72.1152 73.937 71.6825 73.783C71.2498 73.629 70.7438 73.552 70.1645 73.552C69.7685 73.552 69.3542 73.585 68.9215 73.651C68.4962 73.717 68.0598 73.8233 67.6125 73.97L66.3805 73.607L67.6455 66.237H75.1145V67.095C75.1145 67.3737 75.0265 67.6047 74.8505 67.788C74.6818 67.964 74.3885 68.052 73.9705 68.052H69.0205L68.2945 72.188ZM84.0781 74.575H89.5121V76.236H84.0781V74.575ZM107.452 80.207V82H98.5091V66.237H100.632V80.207H107.452ZM110.91 70.868C110.91 71.3667 110.98 71.814 111.119 72.21C111.266 72.5987 111.471 72.9287 111.735 73.2C112.006 73.4713 112.333 73.6767 112.714 73.816C113.103 73.9553 113.535 74.025 114.012 74.025C114.54 74.025 115.006 73.9407 115.409 73.772C115.82 73.596 116.164 73.365 116.443 73.079C116.722 72.793 116.934 72.463 117.081 72.089C117.228 71.715 117.301 71.3263 117.301 70.923C117.301 70.4317 117.22 69.988 117.059 69.592C116.905 69.1887 116.689 68.8477 116.41 68.569C116.131 68.2903 115.798 68.0777 115.409 67.931C115.028 67.777 114.606 67.7 114.144 67.7C113.66 67.7 113.22 67.7807 112.824 67.942C112.428 68.096 112.087 68.3123 111.801 68.591C111.515 68.8697 111.295 69.2033 111.141 69.592C110.987 69.9807 110.91 70.406 110.91 70.868ZM115.486 75.719C115.647 75.5063 115.798 75.3047 115.937 75.114C116.076 74.9233 116.208 74.7327 116.333 74.542C115.93 74.8647 115.475 75.1103 114.969 75.279C114.463 75.4477 113.928 75.532 113.363 75.532C112.769 75.532 112.204 75.433 111.669 75.235C111.141 75.037 110.675 74.7473 110.272 74.366C109.869 73.9773 109.546 73.5043 109.304 72.947C109.069 72.3823 108.952 71.737 108.952 71.011C108.952 70.3217 109.08 69.6763 109.337 69.075C109.594 68.4737 109.953 67.9493 110.415 67.502C110.877 67.0547 111.427 66.7027 112.065 66.446C112.703 66.1893 113.403 66.061 114.166 66.061C114.921 66.061 115.607 66.1857 116.223 66.435C116.839 66.6843 117.367 67.0327 117.807 67.48C118.247 67.9273 118.584 68.4627 118.819 69.086C119.061 69.7093 119.182 70.3987 119.182 71.154C119.182 71.6087 119.138 72.0413 119.05 72.452C118.969 72.8553 118.848 73.255 118.687 73.651C118.533 74.0397 118.342 74.4283 118.115 74.817C117.888 75.1983 117.631 75.5907 117.345 75.994L113.506 81.538C113.411 81.6773 113.275 81.791 113.099 81.879C112.923 81.9597 112.721 82 112.494 82H110.69L115.486 75.719ZM121.78 80.79C121.78 80.5993 121.813 80.4197 121.879 80.251C121.952 80.0823 122.047 79.9357 122.165 79.811C122.289 79.6863 122.436 79.5873 122.605 79.514C122.773 79.4407 122.953 79.404 123.144 79.404C123.334 79.404 123.514 79.4407 123.683 79.514C123.851 79.5873 123.998 79.6863 124.123 79.811C124.247 79.9357 124.346 80.0823 124.42 80.251C124.493 80.4197 124.53 80.5993 124.53 80.79C124.53 80.988 124.493 81.1713 124.42 81.34C124.346 81.5013 124.247 81.6443 124.123 81.769C123.998 81.8937 123.851 81.989 123.683 82.055C123.514 82.1283 123.334 82.165 123.144 82.165C122.953 82.165 122.773 82.1283 122.605 82.055C122.436 81.989 122.289 81.8937 122.165 81.769C122.047 81.6443 121.952 81.5013 121.879 81.34C121.813 81.1713 121.78 80.988 121.78 80.79ZM136.956 80.504V82H128.508V80.504H131.885V69.757C131.885 69.4343 131.896 69.108 131.918 68.778L129.113 71.187C129.017 71.2677 128.922 71.319 128.827 71.341C128.731 71.3557 128.643 71.3557 128.563 71.341C128.482 71.3263 128.405 71.297 128.332 71.253C128.266 71.209 128.214 71.1613 128.178 71.11L127.562 70.263L132.259 66.204H133.854V80.504H136.956ZM158.932 66.237V82H157.865C157.697 82 157.554 81.9707 157.436 81.912C157.326 81.8533 157.216 81.7543 157.106 81.615L147.987 69.735C148.002 69.9183 148.013 70.098 148.02 70.274C148.028 70.45 148.031 70.615 148.031 70.769V82H146.161V66.237H147.261C147.357 66.237 147.437 66.2443 147.503 66.259C147.569 66.2663 147.628 66.2847 147.679 66.314C147.731 66.336 147.782 66.3727 147.833 66.424C147.885 66.468 147.94 66.5267 147.998 66.6L157.117 78.469C157.103 78.2783 157.088 78.095 157.073 77.919C157.066 77.7357 157.062 77.5633 157.062 77.402V66.237H158.932ZM165.096 67.975V73.486H171.575V75.224H165.096V82H162.962V66.237H172.675V67.975H165.096ZM186.061 68.03H180.957V82H178.834V68.03H173.719V66.237H186.061V68.03ZM190.677 74.696V83.76H192.283V76.06H202.535V83.716H204.229V74.696H190.677ZM191.601 78.128V79.404H203.151V78.128H191.601ZM189.841 65.346V66.688H196.859V65.346H189.841ZM187.465 68.8V70.142H197.431V68.8H187.465ZM191.601 81.582V82.946H203.151V81.582H191.601ZM192.041 65.83V67.986C192.041 69.724 191.711 72.298 187.267 74.058C187.641 74.322 188.103 74.85 188.323 75.18C192.987 73.09 193.625 70.142 193.625 68.008V65.83H192.041ZM189.951 63.454C189.467 65.126 188.587 66.776 187.465 67.898C187.839 68.052 188.499 68.47 188.785 68.69C189.863 67.48 190.875 65.654 191.447 63.762L189.951 63.454ZM193.141 70.472L192.063 71.198C193.009 71.792 195.297 73.42 196.111 74.102L197.255 72.958C196.617 72.518 193.933 70.89 193.141 70.472ZM199.895 66.798H204.471V71.484H199.895V66.798ZM198.355 65.324V73.002H206.099V65.324H198.355ZM212.941 63.52C212.413 65.126 211.379 67.436 210.543 68.844L211.951 69.262C212.831 67.876 213.865 65.742 214.657 63.916L212.941 63.52ZM209.245 68.184L209.399 69.79C211.797 69.658 215.207 69.482 218.485 69.284L218.507 67.81C215.053 67.964 211.555 68.118 209.245 68.184ZM210.587 71.374V83.738H212.127V72.782H217.561V71.374H210.587ZM216.813 71.374V81.846C216.813 82.132 216.725 82.198 216.439 82.198C216.131 82.22 215.185 82.242 214.151 82.198C214.371 82.616 214.613 83.276 214.701 83.716C216.087 83.716 217.055 83.694 217.671 83.43C218.265 83.166 218.441 82.704 218.441 81.868V71.374H216.813ZM211.313 74.652V75.95H217.671V74.652H211.313ZM211.313 77.952V79.272H217.671V77.952H211.313ZM220.509 63.564V70.868C220.509 72.694 221.059 73.2 223.171 73.2C223.611 73.2 226.493 73.2 226.955 73.2C228.737 73.2 229.221 72.474 229.419 69.79C228.935 69.68 228.275 69.438 227.923 69.152C227.835 71.33 227.681 71.704 226.823 71.704C226.185 71.704 223.787 71.704 223.325 71.704C222.313 71.704 222.137 71.55 222.137 70.846V63.564H220.509ZM227.241 65.192C225.745 65.962 223.237 66.93 221.059 67.612C221.257 67.942 221.477 68.426 221.565 68.778C223.831 68.14 226.471 67.282 228.341 66.402L227.241 65.192ZM220.509 73.794V81.252C220.509 83.078 221.081 83.584 223.215 83.584C223.677 83.584 226.647 83.584 227.131 83.584C228.979 83.584 229.463 82.792 229.683 79.822C229.221 79.734 228.561 79.47 228.187 79.206C228.077 81.692 227.945 82.11 226.999 82.11C226.339 82.11 223.853 82.11 223.391 82.11C222.335 82.11 222.137 81.978 222.137 81.23V73.794H220.509ZM227.505 75.004C226.009 75.972 223.347 76.984 221.059 77.644C221.235 77.974 221.477 78.502 221.565 78.832C223.941 78.194 226.757 77.292 228.605 76.236L227.505 75.004ZM215.691 65.61C216.857 67.172 218.045 69.284 218.507 70.626L219.959 69.988C219.453 68.624 218.221 66.6 217.055 65.06L215.691 65.61ZM235.843 70.714V72.188H246.953V70.714H235.843ZM235.447 81.406V82.88H247.239V81.406H235.447ZM234.699 74.96V83.782H236.305V76.456H246.491V83.782H248.163V74.96H234.699ZM241.321 65.214C243.389 68.03 247.261 71.132 250.715 72.936C251.001 72.452 251.397 71.88 251.815 71.484C248.295 69.922 244.445 66.864 242.069 63.586H240.397C238.659 66.424 234.985 69.79 231.113 71.748C231.487 72.1 231.927 72.694 232.147 73.068C235.909 71.022 239.517 67.898 241.321 65.214ZM253.861 77.974C253.861 77.622 254.939 77.138 254.939 77.138V77.116C257.183 74.982 259.471 72.034 261.341 69.042L259.977 68.206C258.327 71.176 255.863 74.256 255.093 75.026C254.389 75.818 253.839 76.368 253.355 76.478C253.531 76.874 253.773 77.644 253.861 77.974ZM253.861 77.974C254.367 77.688 255.181 77.512 261.451 76.478C261.407 76.126 261.385 75.51 261.407 75.07L254.653 76.06L253.795 76.61L253.861 77.974ZM253.707 72.672C253.707 72.342 254.785 71.814 254.785 71.814V71.77C256.391 69.812 258.063 66.996 259.339 64.268L257.777 63.608C256.765 66.248 255.027 69.042 254.499 69.79C253.993 70.516 253.575 71.022 253.157 71.11C253.355 71.55 253.619 72.342 253.707 72.672ZM253.707 72.672C254.103 72.474 254.763 72.364 259.163 71.88C259.141 71.572 259.207 70.956 259.273 70.56L254.477 71L253.685 71.484L253.707 72.672ZM253.245 80.856L253.509 82.44C255.775 82 258.833 81.384 261.781 80.768L261.671 79.316C258.569 79.91 255.357 80.526 253.245 80.856ZM263.893 67.568V69.108H271.747V67.568H263.893ZM271.087 67.568V67.942C270.845 77.468 270.515 81.032 269.833 81.802C269.591 82.088 269.349 82.154 268.931 82.132C268.425 82.132 267.171 82.132 265.785 82.022C266.071 82.462 266.291 83.144 266.313 83.606C267.523 83.672 268.799 83.694 269.525 83.628C270.295 83.562 270.779 83.364 271.263 82.726C272.099 81.692 272.363 78.348 272.671 68.426C272.671 68.206 272.671 67.568 272.671 67.568H271.087ZM264.817 63.542C264.113 66.534 262.903 69.526 261.385 71.44C261.759 71.638 262.463 72.122 262.749 72.364C264.267 70.274 265.565 67.106 266.423 63.85L264.817 63.542ZM263.321 72.892C264.949 74.322 266.775 76.346 267.589 77.688L268.799 76.654C267.985 75.29 266.093 73.332 264.465 71.968L263.321 72.892ZM295.691 74.124C295.691 75.3047 295.504 76.379 295.13 77.347C294.756 78.315 294.228 79.1437 293.546 79.833C292.864 80.5223 292.042 81.0577 291.082 81.439C290.128 81.813 289.072 82 287.914 82H282.029V66.237H287.914C289.072 66.237 290.128 66.4277 291.082 66.809C292.042 67.183 292.864 67.7183 293.546 68.415C294.228 69.1043 294.756 69.933 295.13 70.901C295.504 71.869 295.691 72.9433 295.691 74.124ZM293.502 74.124C293.502 73.156 293.37 72.2907 293.106 71.528C292.842 70.7653 292.468 70.12 291.984 69.592C291.5 69.064 290.913 68.6607 290.224 68.382C289.534 68.1033 288.764 67.964 287.914 67.964H284.163V80.273H287.914C288.764 80.273 289.534 80.1337 290.224 79.855C290.913 79.5763 291.5 79.1767 291.984 78.656C292.468 78.128 292.842 77.4827 293.106 76.72C293.37 75.9573 293.502 75.092 293.502 74.124ZM306.706 76.148L304.231 69.735C304.158 69.5443 304.081 69.3243 304 69.075C303.92 68.8183 303.843 68.547 303.769 68.261C303.615 68.855 303.458 69.35 303.296 69.746L300.821 76.148H306.706ZM311.15 82H309.5C309.31 82 309.156 81.9523 309.038 81.857C308.921 81.7617 308.833 81.6407 308.774 81.494L307.3 77.688H300.227L298.753 81.494C298.709 81.626 298.625 81.7433 298.5 81.846C298.376 81.9487 298.222 82 298.038 82H296.388L302.691 66.237H304.847L311.15 82ZM314.688 79.316C315.047 79.8 315.44 80.141 315.865 80.339C316.29 80.537 316.767 80.636 317.295 80.636C318.336 80.636 319.136 80.2657 319.693 79.525C320.25 78.7843 320.529 77.7283 320.529 76.357C320.529 75.631 320.463 75.0077 320.331 74.487C320.206 73.9663 320.023 73.541 319.781 73.211C319.539 72.8737 319.242 72.628 318.89 72.474C318.538 72.32 318.138 72.243 317.691 72.243C317.053 72.243 316.492 72.3897 316.008 72.683C315.531 72.9763 315.091 73.3907 314.688 73.926V79.316ZM314.589 72.584C315.058 72.0047 315.601 71.539 316.217 71.187C316.833 70.835 317.537 70.659 318.329 70.659C318.974 70.659 319.557 70.7837 320.078 71.033C320.599 71.275 321.042 71.638 321.409 72.122C321.776 72.5987 322.058 73.1927 322.256 73.904C322.454 74.6153 322.553 75.433 322.553 76.357C322.553 77.1783 322.443 77.9447 322.223 78.656C322.003 79.36 321.684 79.9723 321.266 80.493C320.855 81.0063 320.349 81.4133 319.748 81.714C319.154 82.0073 318.483 82.154 317.735 82.154C317.053 82.154 316.466 82.0403 315.975 81.813C315.491 81.5783 315.062 81.2557 314.688 80.845V85.773H312.719V70.857H313.896C314.175 70.857 314.347 70.9927 314.413 71.264L314.589 72.584ZM327.02 79.316C327.379 79.8 327.772 80.141 328.197 80.339C328.622 80.537 329.099 80.636 329.627 80.636C330.668 80.636 331.468 80.2657 332.025 79.525C332.582 78.7843 332.861 77.7283 332.861 76.357C332.861 75.631 332.795 75.0077 332.663 74.487C332.538 73.9663 332.355 73.541 332.113 73.211C331.871 72.8737 331.574 72.628 331.222 72.474C330.87 72.32 330.47 72.243 330.023 72.243C329.385 72.243 328.824 72.3897 328.34 72.683C327.863 72.9763 327.423 73.3907 327.02 73.926V79.316ZM326.921 72.584C327.39 72.0047 327.933 71.539 328.549 71.187C329.165 70.835 329.869 70.659 330.661 70.659C331.306 70.659 331.889 70.7837 332.41 71.033C332.931 71.275 333.374 71.638 333.741 72.122C334.108 72.5987 334.39 73.1927 334.588 73.904C334.786 74.6153 334.885 75.433 334.885 76.357C334.885 77.1783 334.775 77.9447 334.555 78.656C334.335 79.36 334.016 79.9723 333.598 80.493C333.187 81.0063 332.681 81.4133 332.08 81.714C331.486 82.0073 330.815 82.154 330.067 82.154C329.385 82.154 328.798 82.0403 328.307 81.813C327.823 81.5783 327.394 81.2557 327.02 80.845V85.773H325.051V70.857H326.228C326.507 70.857 326.679 70.9927 326.745 71.264L326.921 72.584ZM342.451 66.138V67.7H349.447V66.138H342.451ZM345.245 66.842V77.754H346.873V66.842H345.245ZM342.077 77.974L342.517 79.668C344.541 78.986 347.225 78.084 349.777 77.182L349.579 75.774C346.763 76.61 343.925 77.468 342.077 77.974ZM349.821 64.51V66.006H362.515V64.51H349.821ZM355.167 65.148C354.903 66.204 354.441 67.7 354.001 68.69L355.497 69.02C355.981 68.096 356.597 66.71 357.103 65.434L355.167 65.148ZM355.057 71V75.642C355.057 77.974 354.463 80.79 348.457 82.418C348.809 82.77 349.315 83.364 349.491 83.716C355.717 81.758 356.707 78.546 356.707 75.664V71H355.057ZM356.597 80.02C358.313 81.12 360.447 82.704 361.503 83.76L362.603 82.572C361.525 81.56 359.325 80.02 357.653 78.986L356.597 80.02ZM350.635 68.294V78.656H352.241V69.79H359.391V78.612H361.063V68.294H350.635ZM108.098 96.098V97.66H120.836V96.098H108.098ZM108.098 101.312V102.874H120.836V101.312H108.098ZM108.098 106.548V108.154H120.836V106.548H108.098ZM106.954 90.884V109.65H108.604V92.512H120.176V109.65H121.892V90.884H106.954ZM126.49 101.554V102.94H146.51V101.554H126.49ZM127.018 90.488V91.94H145.96V90.488H127.018ZM134.124 99.244C132.76 101.4 130.714 104.348 129.306 106.13L130.868 106.658C132.276 104.854 134.3 101.972 135.73 99.684L134.124 99.244ZM140.724 102.038C138.964 106.328 134.652 107.89 126.798 108.308C127.062 108.682 127.326 109.276 127.436 109.76C135.686 109.144 140.372 107.34 142.308 102.5L140.724 102.038ZM130.494 105.91C136.082 106.944 141.472 108.44 144.838 109.826L145.828 108.484C142.418 107.142 136.764 105.668 131.33 104.7L130.494 105.91ZM133.024 91.038V98.716H134.586V91.038H133.024ZM138.15 91.038V98.716H139.712V91.038H138.15ZM129.658 95.174H143.386V98.166H129.658V95.174ZM128.118 93.832V99.53H145.036V93.832H128.118ZM150.536 95.108V96.406H156.894V95.108H150.536ZM150.536 98.848V100.102H156.894V98.848H150.536ZM150.536 102.676V103.974H156.894V102.676H150.536ZM159.908 99.948V101.378H168.29V99.948H159.908ZM151.68 91.5V92.798H155.332V91.5H151.68ZM158.5 90.642V92.05H167.102V90.642H158.5ZM158.236 104.062V105.536H168.664V104.062H158.236ZM162.878 97.682V109.672H164.462V97.682H162.878ZM153.264 95.746V103.226H154.452V95.746H153.264ZM166.574 90.642V90.862C166.42 94.316 166.244 95.592 165.958 95.922C165.826 96.098 165.628 96.142 165.32 96.12C165.012 96.12 164.22 96.12 163.34 96.032C163.538 96.406 163.692 96.978 163.714 97.418C164.638 97.462 165.562 97.462 166.002 97.418C166.574 97.374 166.904 97.242 167.212 96.868C167.674 96.362 167.894 94.932 168.048 91.258C168.07 91.06 168.07 90.642 168.07 90.642H166.574ZM159.996 97.88C159.622 99.75 158.94 101.598 157.994 102.83C158.346 103.006 159.006 103.336 159.292 103.534C160.216 102.214 160.986 100.212 161.426 98.166L159.996 97.88ZM151.636 89.52C150.976 92.226 149.744 94.844 148.182 96.538C148.534 96.758 149.172 97.264 149.436 97.528C150.998 95.658 152.34 92.82 153.154 89.85L151.636 89.52ZM149.898 95.108V100.96C149.898 103.446 149.744 106.724 148.248 109.056C148.578 109.21 149.194 109.584 149.436 109.804C150.998 107.362 151.262 103.644 151.262 100.96V95.108H149.898ZM156.454 95.108V107.956C156.454 108.242 156.322 108.33 156.036 108.352C155.728 108.374 154.738 108.374 153.616 108.33C153.814 108.726 154.056 109.364 154.122 109.738C155.64 109.738 156.542 109.716 157.092 109.474C157.664 109.232 157.84 108.77 157.84 107.956V95.108H156.454ZM161.624 91.104C161.316 93.59 160.524 95.768 157.818 96.912C158.148 97.154 158.544 97.682 158.742 98.034C161.822 96.648 162.768 94.14 163.142 91.104H161.624ZM154.936 91.5V91.764C154.606 92.864 153.99 94.448 153.44 95.438C153.748 95.57 154.232 95.856 154.496 96.076C155.156 95.042 155.992 93.414 156.454 92.05L155.486 91.412L155.266 91.5H154.936ZM170.6 91.192C171.876 92.578 173.35 94.492 174.01 95.702L175.396 94.756C174.714 93.568 173.152 91.72 171.898 90.4L170.6 91.192ZM170.314 107.758L171.744 108.77C172.954 106.658 174.34 103.864 175.374 101.488L174.142 100.476C172.998 103.05 171.414 105.998 170.314 107.758ZM177.376 92.996V94.58H186.858V100.41H188.442V92.996H177.376ZM176.232 99.662V101.268H190.642V99.662H176.232ZM184.064 100.168L182.59 100.476C183.69 104.964 185.89 108.198 189.674 109.738C189.916 109.298 190.4 108.638 190.774 108.308C187.188 107.076 185.032 104.084 184.064 100.168ZM181.776 89.564V96.89C181.776 100.74 181.534 105.536 174.978 108.506C175.374 108.814 175.924 109.452 176.166 109.826C182.854 106.482 183.492 101.224 183.492 96.89V89.564H181.776ZM197.88 89.608C196.604 93.018 194.514 96.362 192.292 98.54C192.578 98.914 193.062 99.772 193.238 100.146C195.658 97.66 197.946 93.876 199.442 90.092L197.88 89.608ZM195.636 95.284V109.738H197.242V93.7L197.22 93.678L195.636 95.284ZM198.672 97.132V98.76H212.51V97.132H198.672ZM204.854 89.762V109.76H206.548V89.762H204.854ZM225.82 95.02C223.95 98.892 220.716 104.018 218.186 107.23L219.594 107.934C222.146 104.788 225.402 99.794 227.646 95.768L225.82 95.02ZM215.92 106.944L216.184 108.682C220.254 108.44 226.414 108 232.178 107.56L232.2 105.976C226.304 106.372 219.924 106.768 215.92 106.944ZM226.898 101.994C229.142 104.238 231.562 107.494 232.618 109.628L234.202 108.594C233.124 106.482 230.704 103.402 228.394 101.136L226.898 101.994ZM222.96 89.674C221.222 92.798 217.856 96.516 214.556 98.804C214.952 99.112 215.546 99.684 215.854 100.058C219.242 97.572 222.564 93.766 224.698 90.312L222.96 89.674ZM237.524 94.492V109.782H239.152V94.492H237.524ZM237.766 90.598C238.888 91.764 240.318 93.348 241.044 94.294L242.298 93.392C241.572 92.468 240.076 90.906 238.976 89.828L237.766 90.598ZM243.31 90.774V92.314H254.926V90.774H243.31ZM253.804 90.774V107.45C253.804 107.824 253.672 107.956 253.276 107.978C252.924 107.978 251.582 108 250.262 107.934C250.482 108.396 250.746 109.144 250.812 109.606C252.616 109.628 253.804 109.584 254.508 109.32C255.19 109.034 255.454 108.528 255.454 107.472V90.774H253.804ZM243.398 96.208V97.704H248.7V102.808H243.398V104.304H250.306V96.208H243.398ZM242.562 96.208V105.734H244.08V96.208H242.562ZM261.35 94.47H265.86V96.142H261.35V94.47ZM261.35 91.654H265.86V93.304H261.35V91.654ZM259.876 90.466V97.374H267.4V90.466H259.876ZM258.556 99.002V100.278H268.522V99.002H258.556ZM268.478 90.532V91.896H278.51V90.532H268.478ZM263.022 99.42V106.944L264.452 107.802V99.42H263.022ZM263.682 102.654V103.908H268.104V102.654H263.682ZM272.68 90.994C272.482 91.94 272.064 93.304 271.734 94.206L273.054 94.536C273.45 93.7 273.912 92.468 274.352 91.324L272.68 90.994ZM261.174 103.644L260.162 104.018C261.944 108.572 265.464 109.298 270.986 109.298H278.092C278.158 108.858 278.444 108.22 278.686 107.868C277.41 107.912 271.998 107.912 271.008 107.912C266.124 107.912 262.714 107.428 261.174 103.644ZM269.358 94.008V103.27H270.766V95.262H275.98V103.204H277.432V94.008H269.358ZM260.206 101.378C260.096 104.546 259.7 107.186 258.226 108.902C258.556 109.1 259.172 109.518 259.414 109.716C260.91 107.802 261.46 105.008 261.614 101.466L260.206 101.378ZM272.768 96.34C272.636 102.06 272.174 104.854 267.554 106.328C267.862 106.57 268.214 107.098 268.368 107.406C273.384 105.756 274.022 102.544 274.176 96.34H272.768ZM273.538 103.93C274.924 104.92 276.618 106.372 277.476 107.296L278.466 106.284C277.608 105.36 275.87 103.974 274.506 103.05L273.538 103.93ZM289.268 102.698H291.072C290.5 99.398 295.758 98.716 295.758 95.394C295.758 92.864 293.756 91.258 290.654 91.258C288.278 91.258 286.562 92.292 285.11 93.832L286.276 94.91C287.552 93.59 288.938 92.93 290.456 92.93C292.7 92.93 293.778 94.03 293.778 95.548C293.778 98.056 288.608 99.024 289.268 102.698ZM290.214 108.11C290.984 108.11 291.622 107.56 291.622 106.68C291.622 105.8 290.984 105.206 290.214 105.206C289.444 105.206 288.806 105.8 288.806 106.68C288.806 107.56 289.422 108.11 290.214 108.11Z" fill="white"/>
</svg>
