<svg width="406" height="228" viewBox="0 0 406 228" fill="none" xmlns="http://www.w3.org/2000/svg">
<rect width="406" height="228" fill="black"/>
<path d="M71.3329 78.744C71.4502 78.744 71.5529 78.7917 71.6409 78.887L72.4879 79.8C71.8426 80.548 71.0579 81.131 70.1339 81.549C69.2172 81.967 68.1062 82.176 66.8009 82.176C65.6716 82.176 64.6449 81.9817 63.7209 81.593C62.7969 81.197 62.0086 80.647 61.3559 79.943C60.7032 79.2317 60.1972 78.381 59.8379 77.391C59.4786 76.401 59.2989 75.312 59.2989 74.124C59.2989 72.936 59.4859 71.847 59.8599 70.857C60.2339 69.867 60.7582 69.0163 61.4329 68.305C62.1149 67.5937 62.9289 67.0437 63.8749 66.655C64.8209 66.259 65.8659 66.061 67.0099 66.061C68.1319 66.061 69.1219 66.2407 69.9799 66.6C70.8379 66.9593 71.5932 67.447 72.2459 68.063L71.5419 69.042C71.4979 69.1153 71.4392 69.1777 71.3659 69.229C71.2999 69.273 71.2082 69.295 71.0909 69.295C70.9589 69.295 70.7976 69.2253 70.6069 69.086C70.4162 68.9393 70.1669 68.778 69.8589 68.602C69.5509 68.426 69.1659 68.2683 68.7039 68.129C68.2419 67.9823 67.6736 67.909 66.9989 67.909C66.1849 67.909 65.4406 68.052 64.7659 68.338C64.0912 68.6167 63.5082 69.0237 63.0169 69.559C62.5329 70.0943 62.1552 70.747 61.8839 71.517C61.6126 72.287 61.4769 73.156 61.4769 74.124C61.4769 75.1067 61.6162 75.983 61.8949 76.753C62.1809 77.523 62.5659 78.1757 63.0499 78.711C63.5412 79.239 64.1169 79.6423 64.7769 79.921C65.4442 80.1997 66.1629 80.339 66.9329 80.339C67.4022 80.339 67.8239 80.3133 68.1979 80.262C68.5792 80.2033 68.9276 80.1153 69.2429 79.998C69.5656 79.8807 69.8626 79.734 70.1339 79.558C70.4126 79.3747 70.6876 79.1583 70.9589 78.909C71.0836 78.799 71.2082 78.744 71.3329 78.744ZM76.2948 73.09C76.6468 72.3273 77.0794 71.7333 77.5928 71.308C78.1061 70.8753 78.7331 70.659 79.4738 70.659C79.7084 70.659 79.9321 70.6847 80.1448 70.736C80.3648 70.7873 80.5591 70.868 80.7278 70.978L80.5848 72.441C80.5408 72.6243 80.4308 72.716 80.2548 72.716C80.1521 72.716 80.0018 72.694 79.8038 72.65C79.6058 72.606 79.3821 72.584 79.1328 72.584C78.7808 72.584 78.4654 72.6353 78.1868 72.738C77.9154 72.8407 77.6698 72.9947 77.4498 73.2C77.2371 73.398 77.0428 73.6473 76.8668 73.948C76.6981 74.2413 76.5441 74.5787 76.4048 74.96V82H74.4358V70.857H75.5578C75.7704 70.857 75.9171 70.8973 75.9978 70.978C76.0784 71.0587 76.1334 71.198 76.1628 71.396L76.2948 73.09ZM92.0634 70.857L85.8484 85.289C85.7824 85.4357 85.6981 85.553 85.5954 85.641C85.5001 85.729 85.3498 85.773 85.1444 85.773H83.6924L85.7274 81.351L81.1294 70.857H82.8234C82.9921 70.857 83.1241 70.901 83.2194 70.989C83.3221 71.0697 83.3918 71.1613 83.4284 71.264L86.4094 78.282C86.5268 78.59 86.6258 78.9127 86.7064 79.25C86.8091 78.9053 86.9191 78.579 87.0364 78.271L89.9294 71.264C89.9734 71.1467 90.0468 71.0513 90.1494 70.978C90.2594 70.8973 90.3804 70.857 90.5124 70.857H92.0634ZM95.7622 79.316C96.1215 79.8 96.5139 80.141 96.9392 80.339C97.3645 80.537 97.8412 80.636 98.3692 80.636C99.4105 80.636 100.21 80.2657 100.767 79.525C101.325 78.7843 101.603 77.7283 101.603 76.357C101.603 75.631 101.537 75.0077 101.405 74.487C101.281 73.9663 101.097 73.541 100.855 73.211C100.613 72.8737 100.316 72.628 99.9642 72.474C99.6122 72.32 99.2125 72.243 98.7652 72.243C98.1272 72.243 97.5662 72.3897 97.0822 72.683C96.6055 72.9763 96.1655 73.3907 95.7622 73.926V79.316ZM95.6632 72.584C96.1325 72.0047 96.6752 71.539 97.2912 71.187C97.9072 70.835 98.6112 70.659 99.4032 70.659C100.049 70.659 100.632 70.7837 101.152 71.033C101.673 71.275 102.117 71.638 102.483 72.122C102.85 72.5987 103.132 73.1927 103.33 73.904C103.528 74.6153 103.627 75.433 103.627 76.357C103.627 77.1783 103.517 77.9447 103.297 78.656C103.077 79.36 102.758 79.9723 102.34 80.493C101.93 81.0063 101.424 81.4133 100.822 81.714C100.228 82.0073 99.5572 82.154 98.8092 82.154C98.1272 82.154 97.5405 82.0403 97.0492 81.813C96.5652 81.5783 96.1362 81.2557 95.7622 80.845V85.773H93.7932V70.857H94.9702C95.2489 70.857 95.4212 70.9927 95.4872 71.264L95.6632 72.584ZM109.396 82.176C108.516 82.176 107.837 81.9303 107.361 81.439C106.891 80.9477 106.657 80.24 106.657 79.316V72.496H105.315C105.197 72.496 105.098 72.463 105.018 72.397C104.937 72.3237 104.897 72.2137 104.897 72.067V71.286L106.723 71.055L107.174 67.612C107.196 67.502 107.243 67.414 107.317 67.348C107.397 67.2747 107.5 67.238 107.625 67.238H108.615V71.077H111.838V72.496H108.615V79.184C108.615 79.6533 108.728 80.0017 108.956 80.229C109.183 80.4563 109.476 80.57 109.836 80.57C110.041 80.57 110.217 80.5443 110.364 80.493C110.518 80.4343 110.65 80.372 110.76 80.306C110.87 80.24 110.961 80.1813 111.035 80.13C111.115 80.0713 111.185 80.042 111.244 80.042C111.346 80.042 111.438 80.1043 111.519 80.229L112.091 81.164C111.753 81.4793 111.346 81.7287 110.87 81.912C110.393 82.088 109.902 82.176 109.396 82.176ZM118.492 70.681C119.306 70.681 120.039 70.8167 120.692 71.088C121.345 71.3593 121.902 71.7443 122.364 72.243C122.826 72.7417 123.178 73.3467 123.42 74.058C123.669 74.762 123.794 75.5503 123.794 76.423C123.794 77.303 123.669 78.095 123.42 78.799C123.178 79.503 122.826 80.1043 122.364 80.603C121.902 81.1017 121.345 81.4867 120.692 81.758C120.039 82.022 119.306 82.154 118.492 82.154C117.671 82.154 116.93 82.022 116.27 81.758C115.617 81.4867 115.06 81.1017 114.598 80.603C114.136 80.1043 113.78 79.503 113.531 78.799C113.289 78.095 113.168 77.303 113.168 76.423C113.168 75.5503 113.289 74.762 113.531 74.058C113.78 73.3467 114.136 72.7417 114.598 72.243C115.06 71.7443 115.617 71.3593 116.27 71.088C116.93 70.8167 117.671 70.681 118.492 70.681ZM118.492 80.625C119.592 80.625 120.413 80.2583 120.956 79.525C121.499 78.7843 121.77 77.754 121.77 76.434C121.77 75.1067 121.499 74.0727 120.956 73.332C120.413 72.5913 119.592 72.221 118.492 72.221C117.935 72.221 117.447 72.3163 117.029 72.507C116.618 72.6977 116.274 72.9727 115.995 73.332C115.724 73.6913 115.518 74.135 115.379 74.663C115.247 75.1837 115.181 75.774 115.181 76.434C115.181 77.754 115.452 78.7843 115.995 79.525C116.545 80.2583 117.377 80.625 118.492 80.625ZM134.692 68.03H129.588V82H127.465V68.03H122.35V66.237H134.692V68.03ZM141.341 75.213C141.341 74.7583 141.275 74.344 141.143 73.97C141.018 73.5887 140.831 73.2623 140.582 72.991C140.34 72.7123 140.043 72.4997 139.691 72.353C139.339 72.199 138.939 72.122 138.492 72.122C137.553 72.122 136.809 72.397 136.259 72.947C135.716 73.4897 135.379 74.245 135.247 75.213H141.341ZM142.925 80.438C142.683 80.7313 142.393 80.988 142.056 81.208C141.719 81.4207 141.356 81.5967 140.967 81.736C140.586 81.8753 140.19 81.978 139.779 82.044C139.368 82.1173 138.961 82.154 138.558 82.154C137.788 82.154 137.077 82.0257 136.424 81.769C135.779 81.505 135.218 81.1237 134.741 80.625C134.272 80.119 133.905 79.4957 133.641 78.755C133.377 78.0143 133.245 77.1637 133.245 76.203C133.245 75.4257 133.362 74.6997 133.597 74.025C133.839 73.3503 134.184 72.7673 134.631 72.276C135.078 71.7773 135.625 71.3887 136.27 71.11C136.915 70.824 137.641 70.681 138.448 70.681C139.115 70.681 139.731 70.7947 140.296 71.022C140.868 71.242 141.359 71.5647 141.77 71.99C142.188 72.408 142.514 72.9287 142.749 73.552C142.984 74.168 143.101 74.872 143.101 75.664C143.101 75.972 143.068 76.1773 143.002 76.28C142.936 76.3827 142.811 76.434 142.628 76.434H135.181C135.203 77.138 135.298 77.7503 135.467 78.271C135.643 78.7917 135.885 79.228 136.193 79.58C136.501 79.9247 136.868 80.185 137.293 80.361C137.718 80.5297 138.195 80.614 138.723 80.614C139.214 80.614 139.636 80.559 139.988 80.449C140.347 80.3317 140.655 80.207 140.912 80.075C141.169 79.943 141.381 79.822 141.55 79.712C141.726 79.5947 141.876 79.536 142.001 79.536C142.162 79.536 142.287 79.5983 142.375 79.723L142.925 80.438ZM153.261 72.837C153.202 72.9177 153.144 72.98 153.085 73.024C153.026 73.068 152.946 73.09 152.843 73.09C152.733 73.09 152.612 73.046 152.48 72.958C152.348 72.8627 152.183 72.76 151.985 72.65C151.794 72.54 151.556 72.441 151.27 72.353C150.991 72.2577 150.647 72.21 150.236 72.21C149.686 72.21 149.202 72.309 148.784 72.507C148.366 72.6977 148.014 72.9763 147.728 73.343C147.449 73.7097 147.237 74.1533 147.09 74.674C146.951 75.1947 146.881 75.7777 146.881 76.423C146.881 77.0977 146.958 77.699 147.112 78.227C147.266 78.7477 147.482 79.1877 147.761 79.547C148.047 79.899 148.388 80.1703 148.784 80.361C149.187 80.5443 149.638 80.636 150.137 80.636C150.614 80.636 151.006 80.581 151.314 80.471C151.622 80.3537 151.875 80.2253 152.073 80.086C152.278 79.9467 152.447 79.822 152.579 79.712C152.718 79.5947 152.854 79.536 152.986 79.536C153.147 79.536 153.272 79.5983 153.36 79.723L153.91 80.438C153.668 80.7387 153.393 80.9953 153.085 81.208C152.777 81.4207 152.443 81.6003 152.084 81.747C151.732 81.8863 151.362 81.989 150.973 82.055C150.584 82.121 150.188 82.154 149.785 82.154C149.088 82.154 148.439 82.0257 147.838 81.769C147.244 81.5123 146.727 81.142 146.287 80.658C145.847 80.1667 145.502 79.5653 145.253 78.854C145.004 78.1427 144.879 77.3323 144.879 76.423C144.879 75.5943 144.993 74.828 145.22 74.124C145.455 73.42 145.792 72.815 146.232 72.309C146.679 71.7957 147.226 71.396 147.871 71.11C148.524 70.824 149.272 70.681 150.115 70.681C150.9 70.681 151.589 70.8093 152.183 71.066C152.784 71.3153 153.316 71.671 153.778 72.133L153.261 72.837ZM157.981 72.342C158.458 71.836 158.986 71.4327 159.565 71.132C160.144 70.8313 160.812 70.681 161.567 70.681C162.176 70.681 162.711 70.7837 163.173 70.989C163.642 71.187 164.031 71.473 164.339 71.847C164.654 72.2137 164.893 72.6573 165.054 73.178C165.215 73.6987 165.296 74.2743 165.296 74.905V82H163.327V74.905C163.327 74.0617 163.133 73.409 162.744 72.947C162.363 72.4777 161.78 72.243 160.995 72.243C160.416 72.243 159.873 72.3823 159.367 72.661C158.868 72.9397 158.406 73.3173 157.981 73.794V82H156.012V65.797H157.981V72.342ZM181.298 66.237V82H180.231C180.062 82 179.919 81.9707 179.802 81.912C179.692 81.8533 179.582 81.7543 179.472 81.615L170.353 69.735C170.367 69.9183 170.378 70.098 170.386 70.274C170.393 70.45 170.397 70.615 170.397 70.769V82H168.527V66.237H169.627C169.722 66.237 169.803 66.2443 169.869 66.259C169.935 66.2663 169.993 66.2847 170.045 66.314C170.096 66.336 170.147 66.3727 170.199 66.424C170.25 66.468 170.305 66.5267 170.364 66.6L179.483 78.469C179.468 78.2783 179.453 78.095 179.439 77.919C179.431 77.7357 179.428 77.5633 179.428 77.402V66.237H181.298ZM186.762 70.857V82H184.804V70.857H186.762ZM187.18 67.359C187.18 67.5497 187.139 67.7293 187.059 67.898C186.985 68.0593 186.883 68.206 186.751 68.338C186.626 68.4627 186.476 68.5617 186.3 68.635C186.131 68.7083 185.951 68.745 185.761 68.745C185.57 68.745 185.39 68.7083 185.222 68.635C185.06 68.5617 184.917 68.4627 184.793 68.338C184.668 68.206 184.569 68.0593 184.496 67.898C184.422 67.7293 184.386 67.5497 184.386 67.359C184.386 67.1683 184.422 66.9887 184.496 66.82C184.569 66.644 184.668 66.4937 184.793 66.369C184.917 66.237 185.06 66.1343 185.222 66.061C185.39 65.9877 185.57 65.951 185.761 65.951C185.951 65.951 186.131 65.9877 186.3 66.061C186.476 66.1343 186.626 66.237 186.751 66.369C186.883 66.4937 186.985 66.644 187.059 66.82C187.139 66.9887 187.18 67.1683 187.18 67.359ZM193.862 76.555C194.258 76.555 194.606 76.5 194.907 76.39C195.207 76.28 195.46 76.126 195.666 75.928C195.871 75.73 196.025 75.4953 196.128 75.224C196.23 74.9453 196.282 74.641 196.282 74.311C196.282 73.629 196.073 73.0863 195.655 72.683C195.244 72.2797 194.646 72.078 193.862 72.078C193.07 72.078 192.465 72.2797 192.047 72.683C191.636 73.0863 191.431 73.629 191.431 74.311C191.431 74.641 191.482 74.9453 191.585 75.224C191.695 75.4953 191.852 75.73 192.058 75.928C192.263 76.126 192.516 76.28 192.817 76.39C193.117 76.5 193.466 76.555 193.862 76.555ZM197.393 82.605C197.393 82.3337 197.316 82.1137 197.162 81.945C197.008 81.7763 196.799 81.6443 196.535 81.549C196.278 81.4537 195.977 81.3877 195.633 81.351C195.288 81.307 194.921 81.274 194.533 81.252C194.151 81.23 193.763 81.208 193.367 81.186C192.971 81.164 192.589 81.1273 192.223 81.076C191.812 81.2667 191.475 81.5087 191.211 81.802C190.954 82.088 190.826 82.4253 190.826 82.814C190.826 83.0633 190.888 83.2943 191.013 83.507C191.145 83.727 191.343 83.914 191.607 84.068C191.871 84.2293 192.201 84.354 192.597 84.442C193 84.5373 193.473 84.585 194.016 84.585C194.544 84.585 195.017 84.5373 195.435 84.442C195.853 84.3467 196.205 84.211 196.491 84.035C196.784 83.859 197.008 83.65 197.162 83.408C197.316 83.166 197.393 82.8983 197.393 82.605ZM199.384 71.297V72.023C199.384 72.265 199.23 72.419 198.922 72.485L197.657 72.65C197.906 73.134 198.031 73.6693 198.031 74.256C198.031 74.7987 197.924 75.2937 197.712 75.741C197.506 76.181 197.22 76.5587 196.854 76.874C196.487 77.1893 196.047 77.4313 195.534 77.6C195.02 77.7687 194.463 77.853 193.862 77.853C193.341 77.853 192.85 77.7907 192.388 77.666C192.153 77.8127 191.973 77.9703 191.849 78.139C191.724 78.3003 191.662 78.4653 191.662 78.634C191.662 78.898 191.768 79.0997 191.981 79.239C192.201 79.371 192.487 79.4663 192.839 79.525C193.191 79.5837 193.59 79.6203 194.038 79.635C194.492 79.6497 194.954 79.6753 195.424 79.712C195.9 79.7413 196.362 79.7963 196.81 79.877C197.264 79.9577 197.668 80.0897 198.02 80.273C198.372 80.4563 198.654 80.7093 198.867 81.032C199.087 81.3547 199.197 81.7727 199.197 82.286C199.197 82.7627 199.076 83.2247 198.834 83.672C198.599 84.1193 198.258 84.5153 197.811 84.86C197.363 85.212 196.813 85.4907 196.161 85.696C195.515 85.9087 194.786 86.015 193.972 86.015C193.158 86.015 192.446 85.9343 191.838 85.773C191.229 85.6117 190.723 85.3953 190.32 85.124C189.916 84.8527 189.612 84.5373 189.407 84.178C189.209 83.826 189.11 83.4557 189.11 83.067C189.11 82.517 189.282 82.0513 189.627 81.67C189.971 81.2887 190.444 80.9843 191.046 80.757C190.716 80.6103 190.452 80.416 190.254 80.174C190.063 79.9247 189.968 79.591 189.968 79.173C189.968 79.0117 189.997 78.8467 190.056 78.678C190.114 78.502 190.202 78.3297 190.32 78.161C190.444 77.985 190.595 77.82 190.771 77.666C190.947 77.512 191.152 77.3763 191.387 77.259C190.837 76.951 190.408 76.544 190.1 76.038C189.792 75.5247 189.638 74.9307 189.638 74.256C189.638 73.7133 189.74 73.222 189.946 72.782C190.158 72.3347 190.452 71.957 190.826 71.649C191.2 71.3337 191.643 71.0917 192.157 70.923C192.677 70.7543 193.246 70.67 193.862 70.67C194.346 70.67 194.797 70.725 195.215 70.835C195.633 70.9377 196.014 71.0917 196.359 71.297H199.384ZM203.377 72.342C203.854 71.836 204.382 71.4327 204.961 71.132C205.541 70.8313 206.208 70.681 206.963 70.681C207.572 70.681 208.107 70.7837 208.569 70.989C209.039 71.187 209.427 71.473 209.735 71.847C210.051 72.2137 210.289 72.6573 210.45 73.178C210.612 73.6987 210.692 74.2743 210.692 74.905V82H208.723V74.905C208.723 74.0617 208.529 73.409 208.14 72.947C207.759 72.4777 207.176 72.243 206.391 72.243C205.812 72.243 205.269 72.3823 204.763 72.661C204.265 72.9397 203.803 73.3173 203.377 73.794V82H201.408V65.797H203.377V72.342ZM216.947 82.176C216.067 82.176 215.388 81.9303 214.912 81.439C214.442 80.9477 214.208 80.24 214.208 79.316V72.496H212.866C212.748 72.496 212.649 72.463 212.569 72.397C212.488 72.3237 212.448 72.2137 212.448 72.067V71.286L214.274 71.055L214.725 67.612C214.747 67.502 214.794 67.414 214.868 67.348C214.948 67.2747 215.051 67.238 215.176 67.238H216.166V71.077H219.389V72.496H216.166V79.184C216.166 79.6533 216.279 80.0017 216.507 80.229C216.734 80.4563 217.027 80.57 217.387 80.57C217.592 80.57 217.768 80.5443 217.915 80.493C218.069 80.4343 218.201 80.372 218.311 80.306C218.421 80.24 218.512 80.1813 218.586 80.13C218.666 80.0713 218.736 80.042 218.795 80.042C218.897 80.042 218.989 80.1043 219.07 80.229L219.642 81.164C219.304 81.4793 218.897 81.7287 218.421 81.912C217.944 82.088 217.453 82.176 216.947 82.176ZM221.234 74.575H226.668V76.236H221.234V74.575ZM240.123 74.124C240.123 75.5027 239.973 76.698 239.672 77.71C239.379 78.7147 238.976 79.547 238.462 80.207C237.949 80.867 237.34 81.3583 236.636 81.681C235.94 82.0037 235.192 82.165 234.392 82.165C233.586 82.165 232.834 82.0037 232.137 81.681C231.448 81.3583 230.847 80.867 230.333 80.207C229.82 79.547 229.417 78.7147 229.123 77.71C228.83 76.698 228.683 75.5027 228.683 74.124C228.683 72.7453 228.83 71.55 229.123 70.538C229.417 69.526 229.82 68.69 230.333 68.03C230.847 67.3627 231.448 66.8677 232.137 66.545C232.834 66.2223 233.586 66.061 234.392 66.061C235.192 66.061 235.94 66.2223 236.636 66.545C237.34 66.8677 237.949 67.3627 238.462 68.03C238.976 68.69 239.379 69.526 239.672 70.538C239.973 71.55 240.123 72.7453 240.123 74.124ZM238.088 74.124C238.088 72.9213 237.986 71.913 237.78 71.099C237.582 70.2777 237.311 69.6177 236.966 69.119C236.629 68.6203 236.237 68.2647 235.789 68.052C235.342 67.832 234.876 67.722 234.392 67.722C233.908 67.722 233.443 67.832 232.995 68.052C232.548 68.2647 232.156 68.6203 231.818 69.119C231.481 69.6177 231.21 70.2777 231.004 71.099C230.806 71.913 230.707 72.9213 230.707 74.124C230.707 75.3267 230.806 76.335 231.004 77.149C231.21 77.963 231.481 78.6193 231.818 79.118C232.156 79.6167 232.548 79.976 232.995 80.196C233.443 80.4087 233.908 80.515 234.392 80.515C234.876 80.515 235.342 80.4087 235.789 80.196C236.237 79.976 236.629 79.6167 236.966 79.118C237.311 78.6193 237.582 77.963 237.78 77.149C237.986 76.335 238.088 75.3267 238.088 74.124ZM244.767 72.188C245.588 72.012 246.344 71.924 247.033 71.924C247.854 71.924 248.58 72.045 249.211 72.287C249.842 72.529 250.366 72.8627 250.784 73.288C251.209 73.7133 251.528 74.2157 251.741 74.795C251.961 75.3743 252.071 76.005 252.071 76.687C252.071 77.523 251.924 78.2783 251.631 78.953C251.345 79.6277 250.945 80.207 250.432 80.691C249.926 81.1677 249.328 81.5343 248.639 81.791C247.95 82.0477 247.205 82.176 246.406 82.176C245.944 82.176 245.5 82.1283 245.075 82.033C244.65 81.945 244.25 81.824 243.876 81.67C243.509 81.516 243.168 81.34 242.853 81.142C242.538 80.944 242.259 80.735 242.017 80.515L242.622 79.679C242.754 79.4883 242.926 79.393 243.139 79.393C243.286 79.393 243.451 79.4517 243.634 79.569C243.817 79.679 244.041 79.8037 244.305 79.943C244.569 80.0823 244.877 80.2107 245.229 80.328C245.588 80.438 246.014 80.493 246.505 80.493C247.055 80.493 247.55 80.405 247.99 80.229C248.43 80.053 248.808 79.8037 249.123 79.481C249.438 79.151 249.68 78.7587 249.849 78.304C250.018 77.8493 250.102 77.3397 250.102 76.775C250.102 76.2837 250.029 75.84 249.882 75.444C249.743 75.048 249.526 74.7107 249.233 74.432C248.947 74.1533 248.588 73.937 248.155 73.783C247.722 73.629 247.216 73.552 246.637 73.552C246.241 73.552 245.827 73.585 245.394 73.651C244.969 73.717 244.532 73.8233 244.085 73.97L242.853 73.607L244.118 66.237H251.587V67.095C251.587 67.3737 251.499 67.6047 251.323 67.788C251.154 67.964 250.861 68.052 250.443 68.052H245.493L244.767 72.188ZM254.922 74.575H260.356V76.236H254.922V74.575ZM273.051 68.03H267.947V82H265.824V68.03H260.709V66.237H273.051V68.03ZM276.704 72.342C277.18 71.836 277.708 71.4327 278.288 71.132C278.867 70.8313 279.534 70.681 280.29 70.681C280.898 70.681 281.434 70.7837 281.896 70.989C282.365 71.187 282.754 71.473 283.062 71.847C283.377 72.2137 283.615 72.6573 283.777 73.178C283.938 73.6987 284.019 74.2743 284.019 74.905V82H282.05V74.905C282.05 74.0617 281.855 73.409 281.467 72.947C281.085 72.4777 280.502 72.243 279.718 72.243C279.138 72.243 278.596 72.3823 278.09 72.661C277.591 72.9397 277.129 73.3173 276.704 73.794V82H274.735V65.797H276.704V72.342ZM294.46 75.213C294.46 74.7583 294.394 74.344 294.262 73.97C294.138 73.5887 293.951 73.2623 293.701 72.991C293.459 72.7123 293.162 72.4997 292.81 72.353C292.458 72.199 292.059 72.122 291.611 72.122C290.673 72.122 289.928 72.397 289.378 72.947C288.836 73.4897 288.498 74.245 288.366 75.213H294.46ZM296.044 80.438C295.802 80.7313 295.513 80.988 295.175 81.208C294.838 81.4207 294.475 81.5967 294.086 81.736C293.705 81.8753 293.309 81.978 292.898 82.044C292.488 82.1173 292.081 82.154 291.677 82.154C290.907 82.154 290.196 82.0257 289.543 81.769C288.898 81.505 288.337 81.1237 287.86 80.625C287.391 80.119 287.024 79.4957 286.76 78.755C286.496 78.0143 286.364 77.1637 286.364 76.203C286.364 75.4257 286.482 74.6997 286.716 74.025C286.958 73.3503 287.303 72.7673 287.75 72.276C288.198 71.7773 288.744 71.3887 289.389 71.11C290.035 70.824 290.761 70.681 291.567 70.681C292.235 70.681 292.851 70.7947 293.415 71.022C293.987 71.242 294.479 71.5647 294.889 71.99C295.307 72.408 295.634 72.9287 295.868 73.552C296.103 74.168 296.22 74.872 296.22 75.664C296.22 75.972 296.187 76.1773 296.121 76.28C296.055 76.3827 295.931 76.434 295.747 76.434H288.3C288.322 77.138 288.418 77.7503 288.586 78.271C288.762 78.7917 289.004 79.228 289.312 79.58C289.62 79.9247 289.987 80.185 290.412 80.361C290.838 80.5297 291.314 80.614 291.842 80.614C292.334 80.614 292.755 80.559 293.107 80.449C293.467 80.3317 293.775 80.207 294.031 80.075C294.288 79.943 294.501 79.822 294.669 79.712C294.845 79.5947 294.996 79.536 295.12 79.536C295.282 79.536 295.406 79.5983 295.494 79.723L296.044 80.438ZM314.709 68.03H309.605V82H307.482V68.03H302.367V66.237H314.709V68.03ZM321.359 75.213C321.359 74.7583 321.293 74.344 321.161 73.97C321.036 73.5887 320.849 73.2623 320.6 72.991C320.358 72.7123 320.061 72.4997 319.709 72.353C319.357 72.199 318.957 72.122 318.51 72.122C317.571 72.122 316.827 72.397 316.277 72.947C315.734 73.4897 315.397 74.245 315.265 75.213H321.359ZM322.943 80.438C322.701 80.7313 322.411 80.988 322.074 81.208C321.736 81.4207 321.373 81.5967 320.985 81.736C320.603 81.8753 320.207 81.978 319.797 82.044C319.386 82.1173 318.979 82.154 318.576 82.154C317.806 82.154 317.094 82.0257 316.442 81.769C315.796 81.505 315.235 81.1237 314.759 80.625C314.289 80.119 313.923 79.4957 313.659 78.755C313.395 78.0143 313.263 77.1637 313.263 76.203C313.263 75.4257 313.38 74.6997 313.615 74.025C313.857 73.3503 314.201 72.7673 314.649 72.276C315.096 71.7773 315.642 71.3887 316.288 71.11C316.933 70.824 317.659 70.681 318.466 70.681C319.133 70.681 319.749 70.7947 320.314 71.022C320.886 71.242 321.377 71.5647 321.788 71.99C322.206 72.408 322.532 72.9287 322.767 73.552C323.001 74.168 323.119 74.872 323.119 75.664C323.119 75.972 323.086 76.1773 323.02 76.28C322.954 76.3827 322.829 76.434 322.646 76.434H315.199C315.221 77.138 315.316 77.7503 315.485 78.271C315.661 78.7917 315.903 79.228 316.211 79.58C316.519 79.9247 316.885 80.185 317.311 80.361C317.736 80.5297 318.213 80.614 318.741 80.614C319.232 80.614 319.654 80.559 320.006 80.449C320.365 80.3317 320.673 80.207 320.93 80.075C321.186 79.943 321.399 79.822 321.568 79.712C321.744 79.5947 321.894 79.536 322.019 79.536C322.18 79.536 322.305 79.5983 322.393 79.723L322.943 80.438ZM333.279 72.837C333.22 72.9177 333.161 72.98 333.103 73.024C333.044 73.068 332.963 73.09 332.861 73.09C332.751 73.09 332.63 73.046 332.498 72.958C332.366 72.8627 332.201 72.76 332.003 72.65C331.812 72.54 331.574 72.441 331.288 72.353C331.009 72.2577 330.664 72.21 330.254 72.21C329.704 72.21 329.22 72.309 328.802 72.507C328.384 72.6977 328.032 72.9763 327.746 73.343C327.467 73.7097 327.254 74.1533 327.108 74.674C326.968 75.1947 326.899 75.7777 326.899 76.423C326.899 77.0977 326.976 77.699 327.13 78.227C327.284 78.7477 327.5 79.1877 327.779 79.547C328.065 79.899 328.406 80.1703 328.802 80.361C329.205 80.5443 329.656 80.636 330.155 80.636C330.631 80.636 331.024 80.581 331.332 80.471C331.64 80.3537 331.893 80.2253 332.091 80.086C332.296 79.9467 332.465 79.822 332.597 79.712C332.736 79.5947 332.872 79.536 333.004 79.536C333.165 79.536 333.29 79.5983 333.378 79.723L333.928 80.438C333.686 80.7387 333.411 80.9953 333.103 81.208C332.795 81.4207 332.461 81.6003 332.102 81.747C331.75 81.8863 331.379 81.989 330.991 82.055C330.602 82.121 330.206 82.154 329.803 82.154C329.106 82.154 328.457 82.0257 327.856 81.769C327.262 81.5123 326.745 81.142 326.305 80.658C325.865 80.1667 325.52 79.5653 325.271 78.854C325.021 78.1427 324.897 77.3323 324.897 76.423C324.897 75.5943 325.01 74.828 325.238 74.124C325.472 73.42 325.81 72.815 326.25 72.309C326.697 71.7957 327.243 71.396 327.889 71.11C328.541 70.824 329.289 70.681 330.133 70.681C330.917 70.681 331.607 70.8093 332.201 71.066C332.802 71.3153 333.334 71.671 333.796 72.133L333.279 72.837ZM337.999 72.342C338.475 71.836 339.003 71.4327 339.583 71.132C340.162 70.8313 340.829 70.681 341.585 70.681C342.193 70.681 342.729 70.7837 343.191 70.989C343.66 71.187 344.049 71.473 344.357 71.847C344.672 72.2137 344.91 72.6573 345.072 73.178C345.233 73.6987 345.314 74.2743 345.314 74.905V82H343.345V74.905C343.345 74.0617 343.15 73.409 342.762 72.947C342.38 72.4777 341.797 72.243 341.013 72.243C340.433 72.243 339.891 72.3823 339.385 72.661C338.886 72.9397 338.424 73.3173 337.999 73.794V82H336.03V65.797H337.999V72.342ZM150.545 106.306C151.154 106.306 151.678 106.236 152.118 106.097C152.558 105.958 152.917 105.763 153.196 105.514C153.482 105.257 153.691 104.957 153.823 104.612C153.955 104.26 154.021 103.875 154.021 103.457C154.021 102.643 153.731 102.001 153.152 101.532C152.573 101.055 151.704 100.817 150.545 100.817H147.135V106.306H150.545ZM147.135 93.92V99.299H149.951C150.552 99.299 151.073 99.233 151.513 99.101C151.96 98.969 152.327 98.7857 152.613 98.551C152.906 98.3163 153.123 98.034 153.262 97.704C153.401 97.3667 153.471 97 153.471 96.604C153.471 95.6727 153.192 94.9943 152.635 94.569C152.078 94.1363 151.212 93.92 150.039 93.92H147.135ZM150.039 92.237C151.007 92.237 151.839 92.3323 152.536 92.523C153.24 92.7137 153.816 92.985 154.263 93.337C154.718 93.689 155.051 94.1217 155.264 94.635C155.477 95.141 155.583 95.713 155.583 96.351C155.583 96.7397 155.521 97.1137 155.396 97.473C155.279 97.825 155.099 98.155 154.857 98.463C154.615 98.771 154.307 99.0497 153.933 99.299C153.566 99.541 153.134 99.739 152.635 99.893C153.794 100.113 154.663 100.527 155.242 101.136C155.829 101.737 156.122 102.529 156.122 103.512C156.122 104.179 155.997 104.788 155.748 105.338C155.506 105.888 155.147 106.361 154.67 106.757C154.201 107.153 153.621 107.461 152.932 107.681C152.243 107.894 151.458 108 150.578 108H145.012V92.237H150.039ZM166.059 101.213C166.059 100.758 165.993 100.344 165.861 99.97C165.736 99.5887 165.549 99.2623 165.3 98.991C165.058 98.7123 164.761 98.4997 164.409 98.353C164.057 98.199 163.657 98.122 163.21 98.122C162.271 98.122 161.527 98.397 160.977 98.947C160.434 99.4897 160.097 100.245 159.965 101.213H166.059ZM167.643 106.438C167.401 106.731 167.111 106.988 166.774 107.208C166.436 107.421 166.073 107.597 165.685 107.736C165.303 107.875 164.907 107.978 164.497 108.044C164.086 108.117 163.679 108.154 163.276 108.154C162.506 108.154 161.794 108.026 161.142 107.769C160.496 107.505 159.935 107.124 159.459 106.625C158.989 106.119 158.623 105.496 158.359 104.755C158.095 104.014 157.963 103.164 157.963 102.203C157.963 101.426 158.08 100.7 158.315 100.025C158.557 99.3503 158.901 98.7673 159.349 98.276C159.796 97.7773 160.342 97.3887 160.988 97.11C161.633 96.824 162.359 96.681 163.166 96.681C163.833 96.681 164.449 96.7947 165.014 97.022C165.586 97.242 166.077 97.5647 166.488 97.99C166.906 98.408 167.232 98.9287 167.467 99.552C167.701 100.168 167.819 100.872 167.819 101.664C167.819 101.972 167.786 102.177 167.72 102.28C167.654 102.383 167.529 102.434 167.346 102.434H159.899C159.921 103.138 160.016 103.75 160.185 104.271C160.361 104.792 160.603 105.228 160.911 105.58C161.219 105.925 161.585 106.185 162.011 106.361C162.436 106.53 162.913 106.614 163.441 106.614C163.932 106.614 164.354 106.559 164.706 106.449C165.065 106.332 165.373 106.207 165.63 106.075C165.886 105.943 166.099 105.822 166.268 105.712C166.444 105.595 166.594 105.536 166.719 105.536C166.88 105.536 167.005 105.598 167.093 105.723L167.643 106.438ZM172.193 98.342C172.67 97.836 173.198 97.4327 173.777 97.132C174.356 96.8313 175.024 96.681 175.779 96.681C176.388 96.681 176.923 96.7837 177.385 96.989C177.854 97.187 178.243 97.473 178.551 97.847C178.866 98.2137 179.105 98.6573 179.266 99.178C179.427 99.6987 179.508 100.274 179.508 100.905V108H177.539V100.905C177.539 100.062 177.345 99.409 176.956 98.947C176.575 98.4777 175.992 98.243 175.207 98.243C174.628 98.243 174.085 98.3823 173.579 98.661C173.08 98.9397 172.618 99.3173 172.193 99.794V108H170.224V91.797H172.193V98.342ZM184.559 96.857V108H182.601V96.857H184.559ZM184.977 93.359C184.977 93.5497 184.937 93.7293 184.856 93.898C184.783 94.0593 184.68 94.206 184.548 94.338C184.424 94.4627 184.273 94.5617 184.097 94.635C183.929 94.7083 183.749 94.745 183.558 94.745C183.368 94.745 183.188 94.7083 183.019 94.635C182.858 94.5617 182.715 94.4627 182.59 94.338C182.466 94.206 182.367 94.0593 182.293 93.898C182.22 93.7293 182.183 93.5497 182.183 93.359C182.183 93.1683 182.22 92.9887 182.293 92.82C182.367 92.644 182.466 92.4937 182.59 92.369C182.715 92.237 182.858 92.1343 183.019 92.061C183.188 91.9877 183.368 91.951 183.558 91.951C183.749 91.951 183.929 91.9877 184.097 92.061C184.273 92.1343 184.424 92.237 184.548 92.369C184.68 92.4937 184.783 92.644 184.856 92.82C184.937 92.9887 184.977 93.1683 184.977 93.359ZM189.625 98.474C189.867 98.2027 190.123 97.957 190.395 97.737C190.666 97.517 190.952 97.33 191.253 97.176C191.561 97.0147 191.883 96.8937 192.221 96.813C192.565 96.725 192.936 96.681 193.332 96.681C193.94 96.681 194.476 96.7837 194.938 96.989C195.407 97.187 195.796 97.473 196.104 97.847C196.419 98.2137 196.657 98.6573 196.819 99.178C196.98 99.6987 197.061 100.274 197.061 100.905V108H195.092V100.905C195.092 100.062 194.897 99.409 194.509 98.947C194.127 98.4777 193.544 98.243 192.76 98.243C192.18 98.243 191.638 98.3823 191.132 98.661C190.633 98.9397 190.171 99.3173 189.746 99.794V108H187.777V96.857H188.954C189.232 96.857 189.405 96.9927 189.471 97.264L189.625 98.474ZM207.304 99.508C206.937 99.0167 206.541 98.6757 206.116 98.485C205.691 98.287 205.214 98.188 204.686 98.188C203.652 98.188 202.856 98.5583 202.299 99.299C201.742 100.04 201.463 101.096 201.463 102.467C201.463 103.193 201.525 103.816 201.65 104.337C201.775 104.85 201.958 105.276 202.2 105.613C202.442 105.943 202.739 106.185 203.091 106.339C203.443 106.493 203.843 106.57 204.29 106.57C204.935 106.57 205.496 106.423 205.973 106.13C206.457 105.837 206.901 105.422 207.304 104.887V99.508ZM209.262 91.797V108H208.096C207.817 108 207.641 107.864 207.568 107.593L207.392 106.24C206.915 106.812 206.373 107.274 205.764 107.626C205.155 107.978 204.451 108.154 203.652 108.154C203.014 108.154 202.435 108.033 201.914 107.791C201.393 107.542 200.95 107.179 200.583 106.702C200.216 106.225 199.934 105.631 199.736 104.92C199.538 104.209 199.439 103.391 199.439 102.467C199.439 101.646 199.549 100.883 199.769 100.179C199.989 99.4677 200.304 98.8517 200.715 98.331C201.126 97.8103 201.628 97.4033 202.222 97.11C202.823 96.8093 203.498 96.659 204.246 96.659C204.928 96.659 205.511 96.7763 205.995 97.011C206.486 97.2383 206.923 97.5573 207.304 97.968V91.797H209.262ZM232.108 100.124C232.108 101.305 231.921 102.379 231.547 103.347C231.173 104.315 230.645 105.144 229.963 105.833C229.281 106.522 228.459 107.058 227.499 107.439C226.545 107.813 225.489 108 224.331 108H218.446V92.237H224.331C225.489 92.237 226.545 92.4277 227.499 92.809C228.459 93.183 229.281 93.7183 229.963 94.415C230.645 95.1043 231.173 95.933 231.547 96.901C231.921 97.869 232.108 98.9433 232.108 100.124ZM229.919 100.124C229.919 99.156 229.787 98.2907 229.523 97.528C229.259 96.7653 228.885 96.12 228.401 95.592C227.917 95.064 227.33 94.6607 226.641 94.382C225.951 94.1033 225.181 93.964 224.331 93.964H220.58V106.273H224.331C225.181 106.273 225.951 106.134 226.641 105.855C227.33 105.576 227.917 105.177 228.401 104.656C228.885 104.128 229.259 103.483 229.523 102.72C229.787 101.957 229.919 101.092 229.919 100.124ZM242.028 101.213C242.028 100.758 241.962 100.344 241.83 99.97C241.705 99.5887 241.518 99.2623 241.269 98.991C241.027 98.7123 240.73 98.4997 240.378 98.353C240.026 98.199 239.626 98.122 239.179 98.122C238.24 98.122 237.496 98.397 236.946 98.947C236.403 99.4897 236.066 100.245 235.934 101.213H242.028ZM243.612 106.438C243.37 106.731 243.08 106.988 242.743 107.208C242.405 107.421 242.042 107.597 241.654 107.736C241.272 107.875 240.876 107.978 240.466 108.044C240.055 108.117 239.648 108.154 239.245 108.154C238.475 108.154 237.763 108.026 237.111 107.769C236.465 107.505 235.904 107.124 235.428 106.625C234.958 106.119 234.592 105.496 234.328 104.755C234.064 104.014 233.932 103.164 233.932 102.203C233.932 101.426 234.049 100.7 234.284 100.025C234.526 99.3503 234.87 98.7673 235.318 98.276C235.765 97.7773 236.311 97.3887 236.957 97.11C237.602 96.824 238.328 96.681 239.135 96.681C239.802 96.681 240.418 96.7947 240.983 97.022C241.555 97.242 242.046 97.5647 242.457 97.99C242.875 98.408 243.201 98.9287 243.436 99.552C243.67 100.168 243.788 100.872 243.788 101.664C243.788 101.972 243.755 102.177 243.689 102.28C243.623 102.383 243.498 102.434 243.315 102.434H235.868C235.89 103.138 235.985 103.75 236.154 104.271C236.33 104.792 236.572 105.228 236.88 105.58C237.188 105.925 237.554 106.185 237.98 106.361C238.405 106.53 238.882 106.614 239.41 106.614C239.901 106.614 240.323 106.559 240.675 106.449C241.034 106.332 241.342 106.207 241.599 106.075C241.855 105.943 242.068 105.822 242.237 105.712C242.413 105.595 242.563 105.536 242.688 105.536C242.849 105.536 242.974 105.598 243.062 105.723L243.612 106.438ZM248.466 93.975V99.486H254.945V101.224H248.466V108H246.332V92.237H256.045V93.975H248.466ZM260.335 96.857V108H258.377V96.857H260.335ZM260.753 93.359C260.753 93.5497 260.712 93.7293 260.632 93.898C260.558 94.0593 260.456 94.206 260.324 94.338C260.199 94.4627 260.049 94.5617 259.873 94.635C259.704 94.7083 259.524 94.745 259.334 94.745C259.143 94.745 258.963 94.7083 258.795 94.635C258.633 94.5617 258.49 94.4627 258.366 94.338C258.241 94.206 258.142 94.0593 258.069 93.898C257.995 93.7293 257.959 93.5497 257.959 93.359C257.959 93.1683 257.995 92.9887 258.069 92.82C258.142 92.644 258.241 92.4937 258.366 92.369C258.49 92.237 258.633 92.1343 258.795 92.061C258.963 91.9877 259.143 91.951 259.334 91.951C259.524 91.951 259.704 91.9877 259.873 92.061C260.049 92.1343 260.199 92.237 260.324 92.369C260.456 92.4937 260.558 92.644 260.632 92.82C260.712 92.9887 260.753 93.1683 260.753 93.359Z" fill="white"/>
</svg>
