<svg width="406" height="228" viewBox="0 0 406 228" fill="none" xmlns="http://www.w3.org/2000/svg">
<rect width="406" height="228" fill="black"/>
<path d="M106.765 66.237L101.848 82H99.9342L95.9412 69.977C95.9045 69.8597 95.8679 69.735 95.8312 69.603C95.8019 69.471 95.7689 69.3317 95.7322 69.185C95.6955 69.3317 95.6589 69.471 95.6222 69.603C95.5855 69.735 95.5489 69.8597 95.5122 69.977L91.4972 82H89.5832L84.6662 66.237H86.4372C86.6279 66.237 86.7855 66.2847 86.9102 66.38C87.0422 66.4753 87.1265 66.5963 87.1632 66.743L90.4192 77.699C90.4705 77.897 90.5182 78.1097 90.5622 78.337C90.6135 78.5643 90.6612 78.8063 90.7052 79.063C90.7565 78.8063 90.8079 78.5643 90.8592 78.337C90.9179 78.1023 90.9802 77.8897 91.0462 77.699L94.7532 66.743C94.7972 66.6183 94.8815 66.5047 95.0062 66.402C95.1382 66.292 95.2959 66.237 95.4792 66.237H96.0952C96.2859 66.237 96.4399 66.2847 96.5572 66.38C96.6745 66.4753 96.7625 66.5963 96.8212 66.743L100.517 77.699C100.583 77.8897 100.642 78.095 100.693 78.315C100.752 78.535 100.807 78.766 100.858 79.008C100.895 78.766 100.935 78.535 100.979 78.315C101.023 78.095 101.071 77.8897 101.122 77.699L104.389 66.743C104.426 66.611 104.507 66.4937 104.631 66.391C104.763 66.2883 104.921 66.237 105.104 66.237H106.765ZM119.199 74.124C119.199 75.5027 119.048 76.698 118.748 77.71C118.454 78.7147 118.051 79.547 117.538 80.207C117.024 80.867 116.416 81.3583 115.712 81.681C115.015 82.0037 114.267 82.165 113.468 82.165C112.661 82.165 111.909 82.0037 111.213 81.681C110.523 81.3583 109.922 80.867 109.409 80.207C108.895 79.547 108.492 78.7147 108.199 77.71C107.905 76.698 107.759 75.5027 107.759 74.124C107.759 72.7453 107.905 71.55 108.199 70.538C108.492 69.526 108.895 68.69 109.409 68.03C109.922 67.3627 110.523 66.8677 111.213 66.545C111.909 66.2223 112.661 66.061 113.468 66.061C114.267 66.061 115.015 66.2223 115.712 66.545C116.416 66.8677 117.024 67.3627 117.538 68.03C118.051 68.69 118.454 69.526 118.748 70.538C119.048 71.55 119.199 72.7453 119.199 74.124ZM117.164 74.124C117.164 72.9213 117.061 71.913 116.856 71.099C116.658 70.2777 116.386 69.6177 116.042 69.119C115.704 68.6203 115.312 68.2647 114.865 68.052C114.417 67.832 113.952 67.722 113.468 67.722C112.984 67.722 112.518 67.832 112.071 68.052C111.623 68.2647 111.231 68.6203 110.894 69.119C110.556 69.6177 110.285 70.2777 110.08 71.099C109.882 71.913 109.783 72.9213 109.783 74.124C109.783 75.3267 109.882 76.335 110.08 77.149C110.285 77.963 110.556 78.6193 110.894 79.118C111.231 79.6167 111.623 79.976 112.071 80.196C112.518 80.4087 112.984 80.515 113.468 80.515C113.952 80.515 114.417 80.4087 114.865 80.196C115.312 79.976 115.704 79.6167 116.042 79.118C116.386 78.6193 116.658 77.963 116.856 77.149C117.061 76.335 117.164 75.3267 117.164 74.124ZM121.235 74.575H126.669V76.236H121.235V74.575ZM143.729 68.701C143.663 68.811 143.59 68.8953 143.509 68.954C143.436 69.0053 143.344 69.031 143.234 69.031C143.11 69.031 142.963 68.9687 142.794 68.844C142.626 68.7193 142.413 68.5837 142.156 68.437C141.907 68.283 141.603 68.1437 141.243 68.019C140.891 67.8943 140.462 67.832 139.956 67.832C139.48 67.832 139.058 67.898 138.691 68.03C138.332 68.1547 138.028 68.327 137.778 68.547C137.536 68.767 137.353 69.0273 137.228 69.328C137.104 69.6213 137.041 69.9403 137.041 70.285C137.041 70.725 137.148 71.0917 137.36 71.385C137.58 71.671 137.866 71.9167 138.218 72.122C138.578 72.3273 138.981 72.507 139.428 72.661C139.883 72.8077 140.345 72.9617 140.814 73.123C141.291 73.2843 141.753 73.4677 142.2 73.673C142.655 73.871 143.058 74.124 143.41 74.432C143.77 74.74 144.056 75.1177 144.268 75.565C144.488 76.0123 144.598 76.5623 144.598 77.215C144.598 77.9043 144.481 78.5533 144.246 79.162C144.012 79.7633 143.667 80.2877 143.212 80.735C142.765 81.1823 142.211 81.5343 141.551 81.791C140.899 82.0477 140.154 82.176 139.318 82.176C138.292 82.176 137.36 81.9927 136.524 81.626C135.688 81.252 134.973 80.7497 134.379 80.119L134.995 79.107C135.054 79.0263 135.124 78.9603 135.204 78.909C135.292 78.8503 135.388 78.821 135.49 78.821C135.586 78.821 135.692 78.8613 135.809 78.942C135.934 79.0153 136.073 79.1107 136.227 79.228C136.381 79.3453 136.557 79.4737 136.755 79.613C136.953 79.7523 137.177 79.8807 137.426 79.998C137.683 80.1153 137.973 80.2143 138.295 80.295C138.618 80.3683 138.981 80.405 139.384 80.405C139.89 80.405 140.341 80.3353 140.737 80.196C141.133 80.0567 141.467 79.8623 141.738 79.613C142.017 79.3563 142.23 79.052 142.376 78.7C142.523 78.348 142.596 77.9557 142.596 77.523C142.596 77.0463 142.486 76.6577 142.266 76.357C142.054 76.049 141.771 75.7923 141.419 75.587C141.067 75.3817 140.664 75.2093 140.209 75.07C139.755 74.9233 139.293 74.7767 138.823 74.63C138.354 74.476 137.892 74.3 137.437 74.102C136.983 73.904 136.579 73.6473 136.227 73.332C135.875 73.0167 135.589 72.6243 135.369 72.155C135.157 71.6783 135.05 71.0917 135.05 70.395C135.05 69.8377 135.157 69.2987 135.369 68.778C135.589 68.2573 135.905 67.7953 136.315 67.392C136.733 66.9887 137.243 66.666 137.844 66.424C138.453 66.182 139.15 66.061 139.934 66.061C140.814 66.061 141.614 66.2003 142.332 66.479C143.058 66.7577 143.696 67.161 144.246 67.689L143.729 68.701ZM154.543 75.213C154.543 74.7583 154.477 74.344 154.345 73.97C154.221 73.5887 154.034 73.2623 153.784 72.991C153.542 72.7123 153.245 72.4997 152.893 72.353C152.541 72.199 152.142 72.122 151.694 72.122C150.756 72.122 150.011 72.397 149.461 72.947C148.919 73.4897 148.581 74.245 148.449 75.213H154.543ZM156.127 80.438C155.885 80.7313 155.596 80.988 155.258 81.208C154.921 81.4207 154.558 81.5967 154.169 81.736C153.788 81.8753 153.392 81.978 152.981 82.044C152.571 82.1173 152.164 82.154 151.76 82.154C150.99 82.154 150.279 82.0257 149.626 81.769C148.981 81.505 148.42 81.1237 147.943 80.625C147.474 80.119 147.107 79.4957 146.843 78.755C146.579 78.0143 146.447 77.1637 146.447 76.203C146.447 75.4257 146.565 74.6997 146.799 74.025C147.041 73.3503 147.386 72.7673 147.833 72.276C148.281 71.7773 148.827 71.3887 149.472 71.11C150.118 70.824 150.844 70.681 151.65 70.681C152.318 70.681 152.934 70.7947 153.498 71.022C154.07 71.242 154.562 71.5647 154.972 71.99C155.39 72.408 155.717 72.9287 155.951 73.552C156.186 74.168 156.303 74.872 156.303 75.664C156.303 75.972 156.27 76.1773 156.204 76.28C156.138 76.3827 156.014 76.434 155.83 76.434H148.383C148.405 77.138 148.501 77.7503 148.669 78.271C148.845 78.7917 149.087 79.228 149.395 79.58C149.703 79.9247 150.07 80.185 150.495 80.361C150.921 80.5297 151.397 80.614 151.925 80.614C152.417 80.614 152.838 80.559 153.19 80.449C153.55 80.3317 153.858 80.207 154.114 80.075C154.371 79.943 154.584 79.822 154.752 79.712C154.928 79.5947 155.079 79.536 155.203 79.536C155.365 79.536 155.489 79.5983 155.577 79.723L156.127 80.438ZM158.708 82V70.857H159.885C160.164 70.857 160.336 70.9927 160.402 71.264L160.545 72.408C160.956 71.902 161.418 71.4877 161.931 71.165C162.445 70.8423 163.039 70.681 163.713 70.681C164.461 70.681 165.066 70.89 165.528 71.308C165.998 71.726 166.335 72.2907 166.54 73.002C166.702 72.5987 166.907 72.2503 167.156 71.957C167.413 71.6637 167.699 71.4217 168.014 71.231C168.33 71.0403 168.663 70.901 169.015 70.813C169.375 70.725 169.738 70.681 170.104 70.681C170.691 70.681 171.212 70.7763 171.666 70.967C172.128 71.1503 172.517 71.4217 172.832 71.781C173.155 72.1403 173.401 72.584 173.569 73.112C173.738 73.6327 173.822 74.2303 173.822 74.905V82H171.853V74.905C171.853 74.0323 171.663 73.3723 171.281 72.925C170.9 72.4703 170.35 72.243 169.631 72.243C169.309 72.243 169.001 72.3017 168.707 72.419C168.421 72.529 168.168 72.694 167.948 72.914C167.728 73.134 167.552 73.4127 167.42 73.75C167.296 74.08 167.233 74.465 167.233 74.905V82H165.264V74.905C165.264 74.0103 165.085 73.343 164.725 72.903C164.366 72.463 163.842 72.243 163.152 72.243C162.668 72.243 162.221 72.375 161.81 72.639C161.4 72.8957 161.022 73.2477 160.677 73.695V82H158.708ZM178.866 70.857V82H176.908V70.857H178.866ZM179.284 67.359C179.284 67.5497 179.244 67.7293 179.163 67.898C179.09 68.0593 178.987 68.206 178.855 68.338C178.73 68.4627 178.58 68.5617 178.404 68.635C178.235 68.7083 178.056 68.745 177.865 68.745C177.674 68.745 177.495 68.7083 177.326 68.635C177.165 68.5617 177.022 68.4627 176.897 68.338C176.772 68.206 176.673 68.0593 176.6 67.898C176.527 67.7293 176.49 67.5497 176.49 67.359C176.49 67.1683 176.527 66.9887 176.6 66.82C176.673 66.644 176.772 66.4937 176.897 66.369C177.022 66.237 177.165 66.1343 177.326 66.061C177.495 65.9877 177.674 65.951 177.865 65.951C178.056 65.951 178.235 65.9877 178.404 66.061C178.58 66.1343 178.73 66.237 178.855 66.369C178.987 66.4937 179.09 66.644 179.163 66.82C179.244 66.9887 179.284 67.1683 179.284 67.359ZM183.931 72.474C184.173 72.2027 184.43 71.957 184.701 71.737C184.973 71.517 185.259 71.33 185.559 71.176C185.867 71.0147 186.19 70.8937 186.527 70.813C186.872 70.725 187.242 70.681 187.638 70.681C188.247 70.681 188.782 70.7837 189.244 70.989C189.714 71.187 190.102 71.473 190.41 71.847C190.726 72.2137 190.964 72.6573 191.125 73.178C191.287 73.6987 191.367 74.2743 191.367 74.905V82H189.398V74.905C189.398 74.0617 189.204 73.409 188.815 72.947C188.434 72.4777 187.851 72.243 187.066 72.243C186.487 72.243 185.944 72.3823 185.438 72.661C184.94 72.9397 184.478 73.3173 184.052 73.794V82H182.083V70.857H183.26C183.539 70.857 183.711 70.9927 183.777 71.264L183.931 72.474ZM200.39 76.984C199.488 77.0133 198.718 77.0867 198.08 77.204C197.449 77.314 196.932 77.4607 196.529 77.644C196.133 77.8273 195.843 78.0437 195.66 78.293C195.484 78.5423 195.396 78.821 195.396 79.129C195.396 79.4223 195.443 79.6753 195.539 79.888C195.634 80.1007 195.762 80.2767 195.924 80.416C196.092 80.548 196.287 80.647 196.507 80.713C196.734 80.7717 196.976 80.801 197.233 80.801C197.577 80.801 197.893 80.768 198.179 80.702C198.465 80.6287 198.732 80.526 198.982 80.394C199.238 80.262 199.48 80.1043 199.708 79.921C199.942 79.7377 200.17 79.5287 200.39 79.294V76.984ZM194.065 72.43C194.681 71.836 195.344 71.3923 196.056 71.099C196.767 70.8057 197.555 70.659 198.421 70.659C199.044 70.659 199.598 70.7617 200.082 70.967C200.566 71.1723 200.973 71.4583 201.303 71.825C201.633 72.1917 201.882 72.6353 202.051 73.156C202.219 73.6767 202.304 74.2487 202.304 74.872V82H201.435C201.244 82 201.097 81.9707 200.995 81.912C200.892 81.846 200.811 81.7213 200.753 81.538L200.533 80.482C200.239 80.7533 199.953 80.9953 199.675 81.208C199.396 81.4133 199.103 81.5893 198.795 81.736C198.487 81.8753 198.157 81.9817 197.805 82.055C197.46 82.1357 197.075 82.176 196.65 82.176C196.217 82.176 195.81 82.1173 195.429 82C195.047 81.8753 194.714 81.692 194.428 81.45C194.149 81.208 193.925 80.9037 193.757 80.537C193.595 80.163 193.515 79.723 193.515 79.217C193.515 78.777 193.636 78.3553 193.878 77.952C194.12 77.5413 194.512 77.1783 195.055 76.863C195.597 76.5477 196.305 76.291 197.178 76.093C198.05 75.8877 199.121 75.7703 200.39 75.741V74.872C200.39 74.0067 200.203 73.354 199.829 72.914C199.455 72.4667 198.908 72.243 198.19 72.243C197.706 72.243 197.299 72.3053 196.969 72.43C196.646 72.5473 196.364 72.683 196.122 72.837C195.887 72.9837 195.682 73.1193 195.506 73.244C195.337 73.3613 195.168 73.42 195 73.42C194.868 73.42 194.754 73.387 194.659 73.321C194.563 73.2477 194.483 73.1597 194.417 73.057L194.065 72.43ZM207.145 73.09C207.497 72.3273 207.93 71.7333 208.443 71.308C208.957 70.8753 209.584 70.659 210.324 70.659C210.559 70.659 210.783 70.6847 210.995 70.736C211.215 70.7873 211.41 70.868 211.578 70.978L211.435 72.441C211.391 72.6243 211.281 72.716 211.105 72.716C211.003 72.716 210.852 72.694 210.654 72.65C210.456 72.606 210.233 72.584 209.983 72.584C209.631 72.584 209.316 72.6353 209.037 72.738C208.766 72.8407 208.52 72.9947 208.3 73.2C208.088 73.398 207.893 73.6473 207.717 73.948C207.549 74.2413 207.395 74.5787 207.255 74.96V82H205.286V70.857H206.408C206.621 70.857 206.768 70.8973 206.848 70.978C206.929 71.0587 206.984 71.198 207.013 71.396L207.145 73.09ZM222.947 80.504V82H214.499V80.504H217.876V69.757C217.876 69.4343 217.887 69.108 217.909 68.778L215.104 71.187C215.009 71.2677 214.913 71.319 214.818 71.341C214.723 71.3557 214.635 71.3557 214.554 71.341C214.473 71.3263 214.396 71.297 214.323 71.253C214.257 71.209 214.206 71.1613 214.169 71.11L213.553 70.263L218.25 66.204H219.845V80.504H222.947ZM225.886 74.575H231.32V76.236H225.886V74.575ZM234.633 64.972V66.534H252.849V64.972H234.633ZM233.819 72.826V74.41H253.553V72.826H233.819ZM246.931 65.786V83.782H248.625V65.786H246.931ZM239.099 65.786V71.88C239.099 75.686 238.593 79.712 233.863 82.638C234.281 82.902 234.875 83.474 235.161 83.848C240.221 80.658 240.771 76.148 240.771 71.88V65.786H239.099ZM261.495 72.98H270.009V74.96H261.495V72.98ZM259.933 71.792V76.148H271.637V71.792H259.933ZM258.393 77.556V83.826H259.977V79.008H271.681V83.782H273.331V77.556H258.393ZM259.229 81.604V82.99H272.451V81.604H259.229ZM256.633 69.042V73.332H258.173V70.362H273.265V73.332H274.871V69.042H256.633ZM256.017 65.368V66.864H275.377V65.368H256.017ZM260.879 63.542V68.426H262.485V63.542H260.879ZM268.733 63.542V68.426H270.361V63.542H268.733ZM286.245 65.126L284.683 65.368C286.311 74.498 289.413 80.922 296.739 83.804C296.981 83.386 297.531 82.704 297.927 82.374C290.865 79.844 287.697 73.596 286.245 65.126ZM288.555 64.708C289.523 66.116 290.601 68.052 291.019 69.24L292.427 68.448C291.965 67.282 290.887 65.412 289.875 64.026L288.555 64.708ZM295.111 64.796C293.747 72.958 291.041 79.36 282.637 82.528C282.945 82.858 283.407 83.43 283.627 83.804C292.317 80.35 295.199 73.706 296.761 65.082L295.111 64.796ZM282.527 63.608C281.295 66.952 279.249 70.252 277.071 72.386C277.357 72.76 277.841 73.64 277.995 74.014C280.393 71.55 282.637 67.832 284.089 64.092L282.527 63.608ZM280.239 69.284V83.738H281.801V67.744L281.779 67.722L280.239 69.284ZM314.273 64.62C315.417 65.412 316.759 66.6 317.419 67.392L318.585 66.358C317.903 65.588 316.517 64.444 315.373 63.674L314.273 64.62ZM299.885 67.634V69.24H319.487V67.634H299.885ZM300.633 72.54V74.146H310.357V72.54H300.633ZM304.593 73.398V81.252H306.243V73.398H304.593ZM299.973 81.472L300.479 83.122C303.317 82.484 307.343 81.56 311.105 80.68L310.973 79.206C306.903 80.086 302.591 80.966 299.973 81.472ZM311.083 63.63C311.171 74.278 312.953 83.804 317.331 83.804C319.025 83.804 319.663 82.682 319.949 78.832C319.487 78.678 318.849 78.304 318.475 77.93C318.343 80.878 318.079 82.088 317.463 82.088C314.757 82.088 312.777 73.838 312.843 63.63H311.083Z" fill="white"/>
</svg>
