<svg width="406" height="228" viewBox="0 0 406 228" fill="none" xmlns="http://www.w3.org/2000/svg">
<rect width="406" height="228" fill="black"/>
<path d="M113.85 78.744C113.968 78.744 114.07 78.7917 114.158 78.887L115.005 79.8C114.36 80.548 113.575 81.131 112.651 81.549C111.735 81.967 110.624 82.176 109.318 82.176C108.189 82.176 107.162 81.9817 106.238 81.593C105.314 81.197 104.526 80.647 103.873 79.943C103.221 79.2317 102.715 78.381 102.355 77.391C101.996 76.401 101.816 75.312 101.816 74.124C101.816 72.936 102.003 71.847 102.377 70.857C102.751 69.867 103.276 69.0163 103.95 68.305C104.632 67.5937 105.446 67.0437 106.392 66.655C107.338 66.259 108.383 66.061 109.527 66.061C110.649 66.061 111.639 66.2407 112.497 66.6C113.355 66.9593 114.111 67.447 114.763 68.063L114.059 69.042C114.015 69.1153 113.957 69.1777 113.883 69.229C113.817 69.273 113.726 69.295 113.608 69.295C113.476 69.295 113.315 69.2253 113.124 69.086C112.934 68.9393 112.684 68.778 112.376 68.602C112.068 68.426 111.683 68.2683 111.221 68.129C110.759 67.9823 110.191 67.909 109.516 67.909C108.702 67.909 107.958 68.052 107.283 68.338C106.609 68.6167 106.026 69.0237 105.534 69.559C105.05 70.0943 104.673 70.747 104.401 71.517C104.13 72.287 103.994 73.156 103.994 74.124C103.994 75.1067 104.134 75.983 104.412 76.753C104.698 77.523 105.083 78.1757 105.567 78.711C106.059 79.239 106.634 79.6423 107.294 79.921C107.962 80.1997 108.68 80.339 109.45 80.339C109.92 80.339 110.341 80.3133 110.715 80.262C111.097 80.2033 111.445 80.1153 111.76 79.998C112.083 79.8807 112.38 79.734 112.651 79.558C112.93 79.3747 113.205 79.1583 113.476 78.909C113.601 78.799 113.726 78.744 113.85 78.744ZM118.812 73.09C119.164 72.3273 119.597 71.7333 120.11 71.308C120.624 70.8753 121.251 70.659 121.991 70.659C122.226 70.659 122.45 70.6847 122.662 70.736C122.882 70.7873 123.077 70.868 123.245 70.978L123.102 72.441C123.058 72.6243 122.948 72.716 122.772 72.716C122.67 72.716 122.519 72.694 122.321 72.65C122.123 72.606 121.9 72.584 121.65 72.584C121.298 72.584 120.983 72.6353 120.704 72.738C120.433 72.8407 120.187 72.9947 119.967 73.2C119.755 73.398 119.56 73.6473 119.384 73.948C119.216 74.2413 119.062 74.5787 118.922 74.96V82H116.953V70.857H118.075C118.288 70.857 118.435 70.8973 118.515 70.978C118.596 71.0587 118.651 71.198 118.68 71.396L118.812 73.09ZM134.581 70.857L128.366 85.289C128.3 85.4357 128.216 85.553 128.113 85.641C128.018 85.729 127.867 85.773 127.662 85.773H126.21L128.245 81.351L123.647 70.857H125.341C125.51 70.857 125.642 70.901 125.737 70.989C125.84 71.0697 125.909 71.1613 125.946 71.264L128.927 78.282C129.044 78.59 129.143 78.9127 129.224 79.25C129.327 78.9053 129.437 78.579 129.554 78.271L132.447 71.264C132.491 71.1467 132.564 71.0513 132.667 70.978C132.777 70.8973 132.898 70.857 133.03 70.857H134.581ZM138.28 79.316C138.639 79.8 139.031 80.141 139.457 80.339C139.882 80.537 140.359 80.636 140.887 80.636C141.928 80.636 142.727 80.2657 143.285 79.525C143.842 78.7843 144.121 77.7283 144.121 76.357C144.121 75.631 144.055 75.0077 143.923 74.487C143.798 73.9663 143.615 73.541 143.373 73.211C143.131 72.8737 142.834 72.628 142.482 72.474C142.13 72.32 141.73 72.243 141.283 72.243C140.645 72.243 140.084 72.3897 139.6 72.683C139.123 72.9763 138.683 73.3907 138.28 73.926V79.316ZM138.181 72.584C138.65 72.0047 139.193 71.539 139.809 71.187C140.425 70.835 141.129 70.659 141.921 70.659C142.566 70.659 143.149 70.7837 143.67 71.033C144.19 71.275 144.634 71.638 145.001 72.122C145.367 72.5987 145.65 73.1927 145.848 73.904C146.046 74.6153 146.145 75.433 146.145 76.357C146.145 77.1783 146.035 77.9447 145.815 78.656C145.595 79.36 145.276 79.9723 144.858 80.493C144.447 81.0063 143.941 81.4133 143.34 81.714C142.746 82.0073 142.075 82.154 141.327 82.154C140.645 82.154 140.058 82.0403 139.567 81.813C139.083 81.5783 138.654 81.2557 138.28 80.845V85.773H136.311V70.857H137.488C137.766 70.857 137.939 70.9927 138.005 71.264L138.181 72.584ZM151.913 82.176C151.033 82.176 150.355 81.9303 149.878 81.439C149.409 80.9477 149.174 80.24 149.174 79.316V72.496H147.832C147.715 72.496 147.616 72.463 147.535 72.397C147.455 72.3237 147.414 72.2137 147.414 72.067V71.286L149.24 71.055L149.691 67.612C149.713 67.502 149.761 67.414 149.834 67.348C149.915 67.2747 150.018 67.238 150.142 67.238H151.132V71.077H154.355V72.496H151.132V79.184C151.132 79.6533 151.246 80.0017 151.473 80.229C151.701 80.4563 151.994 80.57 152.353 80.57C152.559 80.57 152.735 80.5443 152.881 80.493C153.035 80.4343 153.167 80.372 153.277 80.306C153.387 80.24 153.479 80.1813 153.552 80.13C153.633 80.0713 153.703 80.042 153.761 80.042C153.864 80.042 153.956 80.1043 154.036 80.229L154.608 81.164C154.271 81.4793 153.864 81.7287 153.387 81.912C152.911 82.088 152.419 82.176 151.913 82.176ZM161.01 70.681C161.824 70.681 162.557 70.8167 163.21 71.088C163.862 71.3593 164.42 71.7443 164.882 72.243C165.344 72.7417 165.696 73.3467 165.938 74.058C166.187 74.762 166.312 75.5503 166.312 76.423C166.312 77.303 166.187 78.095 165.938 78.799C165.696 79.503 165.344 80.1043 164.882 80.603C164.42 81.1017 163.862 81.4867 163.21 81.758C162.557 82.022 161.824 82.154 161.01 82.154C160.188 82.154 159.448 82.022 158.788 81.758C158.135 81.4867 157.578 81.1017 157.116 80.603C156.654 80.1043 156.298 79.503 156.049 78.799C155.807 78.095 155.686 77.303 155.686 76.423C155.686 75.5503 155.807 74.762 156.049 74.058C156.298 73.3467 156.654 72.7417 157.116 72.243C157.578 71.7443 158.135 71.3593 158.788 71.088C159.448 70.8167 160.188 70.681 161.01 70.681ZM161.01 80.625C162.11 80.625 162.931 80.2583 163.474 79.525C164.016 78.7843 164.288 77.754 164.288 76.434C164.288 75.1067 164.016 74.0727 163.474 73.332C162.931 72.5913 162.11 72.221 161.01 72.221C160.452 72.221 159.965 72.3163 159.547 72.507C159.136 72.6977 158.791 72.9727 158.513 73.332C158.241 73.6913 158.036 74.135 157.897 74.663C157.765 75.1837 157.699 75.774 157.699 76.434C157.699 77.754 157.97 78.7843 158.513 79.525C159.063 80.2583 159.895 80.625 161.01 80.625ZM177.209 68.03H172.105V82H169.982V68.03H164.867V66.237H177.209V68.03ZM183.859 75.213C183.859 74.7583 183.793 74.344 183.661 73.97C183.536 73.5887 183.349 73.2623 183.1 72.991C182.858 72.7123 182.561 72.4997 182.209 72.353C181.857 72.199 181.457 72.122 181.01 72.122C180.071 72.122 179.327 72.397 178.777 72.947C178.234 73.4897 177.897 74.245 177.765 75.213H183.859ZM185.443 80.438C185.201 80.7313 184.911 80.988 184.574 81.208C184.236 81.4207 183.873 81.5967 183.485 81.736C183.103 81.8753 182.707 81.978 182.297 82.044C181.886 82.1173 181.479 82.154 181.076 82.154C180.306 82.154 179.594 82.0257 178.942 81.769C178.296 81.505 177.735 81.1237 177.259 80.625C176.789 80.119 176.423 79.4957 176.159 78.755C175.895 78.0143 175.763 77.1637 175.763 76.203C175.763 75.4257 175.88 74.6997 176.115 74.025C176.357 73.3503 176.701 72.7673 177.149 72.276C177.596 71.7773 178.142 71.3887 178.788 71.11C179.433 70.824 180.159 70.681 180.966 70.681C181.633 70.681 182.249 70.7947 182.814 71.022C183.386 71.242 183.877 71.5647 184.288 71.99C184.706 72.408 185.032 72.9287 185.267 73.552C185.501 74.168 185.619 74.872 185.619 75.664C185.619 75.972 185.586 76.1773 185.52 76.28C185.454 76.3827 185.329 76.434 185.146 76.434H177.699C177.721 77.138 177.816 77.7503 177.985 78.271C178.161 78.7917 178.403 79.228 178.711 79.58C179.019 79.9247 179.385 80.185 179.811 80.361C180.236 80.5297 180.713 80.614 181.241 80.614C181.732 80.614 182.154 80.559 182.506 80.449C182.865 80.3317 183.173 80.207 183.43 80.075C183.686 79.943 183.899 79.822 184.068 79.712C184.244 79.5947 184.394 79.536 184.519 79.536C184.68 79.536 184.805 79.5983 184.893 79.723L185.443 80.438ZM195.779 72.837C195.72 72.9177 195.661 72.98 195.603 73.024C195.544 73.068 195.463 73.09 195.361 73.09C195.251 73.09 195.13 73.046 194.998 72.958C194.866 72.8627 194.701 72.76 194.503 72.65C194.312 72.54 194.074 72.441 193.788 72.353C193.509 72.2577 193.164 72.21 192.754 72.21C192.204 72.21 191.72 72.309 191.302 72.507C190.884 72.6977 190.532 72.9763 190.246 73.343C189.967 73.7097 189.754 74.1533 189.608 74.674C189.468 75.1947 189.399 75.7777 189.399 76.423C189.399 77.0977 189.476 77.699 189.63 78.227C189.784 78.7477 190 79.1877 190.279 79.547C190.565 79.899 190.906 80.1703 191.302 80.361C191.705 80.5443 192.156 80.636 192.655 80.636C193.131 80.636 193.524 80.581 193.832 80.471C194.14 80.3537 194.393 80.2253 194.591 80.086C194.796 79.9467 194.965 79.822 195.097 79.712C195.236 79.5947 195.372 79.536 195.504 79.536C195.665 79.536 195.79 79.5983 195.878 79.723L196.428 80.438C196.186 80.7387 195.911 80.9953 195.603 81.208C195.295 81.4207 194.961 81.6003 194.602 81.747C194.25 81.8863 193.879 81.989 193.491 82.055C193.102 82.121 192.706 82.154 192.303 82.154C191.606 82.154 190.957 82.0257 190.356 81.769C189.762 81.5123 189.245 81.142 188.805 80.658C188.365 80.1667 188.02 79.5653 187.771 78.854C187.521 78.1427 187.397 77.3323 187.397 76.423C187.397 75.5943 187.51 74.828 187.738 74.124C187.972 73.42 188.31 72.815 188.75 72.309C189.197 71.7957 189.743 71.396 190.389 71.11C191.041 70.824 191.789 70.681 192.633 70.681C193.417 70.681 194.107 70.8093 194.701 71.066C195.302 71.3153 195.834 71.671 196.296 72.133L195.779 72.837ZM200.499 72.342C200.975 71.836 201.503 71.4327 202.083 71.132C202.662 70.8313 203.329 70.681 204.085 70.681C204.693 70.681 205.229 70.7837 205.691 70.989C206.16 71.187 206.549 71.473 206.857 71.847C207.172 72.2137 207.41 72.6573 207.572 73.178C207.733 73.6987 207.814 74.2743 207.814 74.905V82H205.845V74.905C205.845 74.0617 205.65 73.409 205.262 72.947C204.88 72.4777 204.297 72.243 203.513 72.243C202.933 72.243 202.391 72.3823 201.885 72.661C201.386 72.9397 200.924 73.3173 200.499 73.794V82H198.53V65.797H200.499V72.342ZM223.815 66.237V82H222.748C222.58 82 222.437 81.9707 222.319 81.912C222.209 81.8533 222.099 81.7543 221.989 81.615L212.87 69.735C212.885 69.9183 212.896 70.098 212.903 70.274C212.911 70.45 212.914 70.615 212.914 70.769V82H211.044V66.237H212.144C212.24 66.237 212.32 66.2443 212.386 66.259C212.452 66.2663 212.511 66.2847 212.562 66.314C212.614 66.336 212.665 66.3727 212.716 66.424C212.768 66.468 212.823 66.5267 212.881 66.6L222 78.469C221.986 78.2783 221.971 78.095 221.956 77.919C221.949 77.7357 221.945 77.5633 221.945 77.402V66.237H223.815ZM229.279 70.857V82H227.321V70.857H229.279ZM229.697 67.359C229.697 67.5497 229.657 67.7293 229.576 67.898C229.503 68.0593 229.4 68.206 229.268 68.338C229.143 68.4627 228.993 68.5617 228.817 68.635C228.648 68.7083 228.469 68.745 228.278 68.745C228.087 68.745 227.908 68.7083 227.739 68.635C227.578 68.5617 227.435 68.4627 227.31 68.338C227.185 68.206 227.086 68.0593 227.013 67.898C226.94 67.7293 226.903 67.5497 226.903 67.359C226.903 67.1683 226.94 66.9887 227.013 66.82C227.086 66.644 227.185 66.4937 227.31 66.369C227.435 66.237 227.578 66.1343 227.739 66.061C227.908 65.9877 228.087 65.951 228.278 65.951C228.469 65.951 228.648 65.9877 228.817 66.061C228.993 66.1343 229.143 66.237 229.268 66.369C229.4 66.4937 229.503 66.644 229.576 66.82C229.657 66.9887 229.697 67.1683 229.697 67.359ZM236.379 76.555C236.775 76.555 237.124 76.5 237.424 76.39C237.725 76.28 237.978 76.126 238.183 75.928C238.389 75.73 238.543 75.4953 238.645 75.224C238.748 74.9453 238.799 74.641 238.799 74.311C238.799 73.629 238.59 73.0863 238.172 72.683C237.762 72.2797 237.164 72.078 236.379 72.078C235.587 72.078 234.982 72.2797 234.564 72.683C234.154 73.0863 233.948 73.629 233.948 74.311C233.948 74.641 234 74.9453 234.102 75.224C234.212 75.4953 234.37 75.73 234.575 75.928C234.781 76.126 235.034 76.28 235.334 76.39C235.635 76.5 235.983 76.555 236.379 76.555ZM239.91 82.605C239.91 82.3337 239.833 82.1137 239.679 81.945C239.525 81.7763 239.316 81.6443 239.052 81.549C238.796 81.4537 238.495 81.3877 238.15 81.351C237.806 81.307 237.439 81.274 237.05 81.252C236.669 81.23 236.28 81.208 235.884 81.186C235.488 81.164 235.107 81.1273 234.74 81.076C234.33 81.2667 233.992 81.5087 233.728 81.802C233.472 82.088 233.343 82.4253 233.343 82.814C233.343 83.0633 233.406 83.2943 233.53 83.507C233.662 83.727 233.86 83.914 234.124 84.068C234.388 84.2293 234.718 84.354 235.114 84.442C235.518 84.5373 235.991 84.585 236.533 84.585C237.061 84.585 237.534 84.5373 237.952 84.442C238.37 84.3467 238.722 84.211 239.008 84.035C239.302 83.859 239.525 83.65 239.679 83.408C239.833 83.166 239.91 82.8983 239.91 82.605ZM241.901 71.297V72.023C241.901 72.265 241.747 72.419 241.439 72.485L240.174 72.65C240.424 73.134 240.548 73.6693 240.548 74.256C240.548 74.7987 240.442 75.2937 240.229 75.741C240.024 76.181 239.738 76.5587 239.371 76.874C239.005 77.1893 238.565 77.4313 238.051 77.6C237.538 77.7687 236.981 77.853 236.379 77.853C235.859 77.853 235.367 77.7907 234.905 77.666C234.671 77.8127 234.491 77.9703 234.366 78.139C234.242 78.3003 234.179 78.4653 234.179 78.634C234.179 78.898 234.286 79.0997 234.498 79.239C234.718 79.371 235.004 79.4663 235.356 79.525C235.708 79.5837 236.108 79.6203 236.555 79.635C237.01 79.6497 237.472 79.6753 237.941 79.712C238.418 79.7413 238.88 79.7963 239.327 79.877C239.782 79.9577 240.185 80.0897 240.537 80.273C240.889 80.4563 241.172 80.7093 241.384 81.032C241.604 81.3547 241.714 81.7727 241.714 82.286C241.714 82.7627 241.593 83.2247 241.351 83.672C241.117 84.1193 240.776 84.5153 240.328 84.86C239.881 85.212 239.331 85.4907 238.678 85.696C238.033 85.9087 237.303 86.015 236.489 86.015C235.675 86.015 234.964 85.9343 234.355 85.773C233.747 85.6117 233.241 85.3953 232.837 85.124C232.434 84.8527 232.13 84.5373 231.924 84.178C231.726 83.826 231.627 83.4557 231.627 83.067C231.627 82.517 231.8 82.0513 232.144 81.67C232.489 81.2887 232.962 80.9843 233.563 80.757C233.233 80.6103 232.969 80.416 232.771 80.174C232.581 79.9247 232.485 79.591 232.485 79.173C232.485 79.0117 232.515 78.8467 232.573 78.678C232.632 78.502 232.72 78.3297 232.837 78.161C232.962 77.985 233.112 77.82 233.288 77.666C233.464 77.512 233.67 77.3763 233.904 77.259C233.354 76.951 232.925 76.544 232.617 76.038C232.309 75.5247 232.155 74.9307 232.155 74.256C232.155 73.7133 232.258 73.222 232.463 72.782C232.676 72.3347 232.969 71.957 233.343 71.649C233.717 71.3337 234.161 71.0917 234.674 70.923C235.195 70.7543 235.763 70.67 236.379 70.67C236.863 70.67 237.314 70.725 237.732 70.835C238.15 70.9377 238.532 71.0917 238.876 71.297H241.901ZM245.895 72.342C246.372 71.836 246.9 71.4327 247.479 71.132C248.058 70.8313 248.726 70.681 249.481 70.681C250.09 70.681 250.625 70.7837 251.087 70.989C251.556 71.187 251.945 71.473 252.253 71.847C252.568 72.2137 252.807 72.6573 252.968 73.178C253.129 73.6987 253.21 74.2743 253.21 74.905V82H251.241V74.905C251.241 74.0617 251.047 73.409 250.658 72.947C250.277 72.4777 249.694 72.243 248.909 72.243C248.33 72.243 247.787 72.3823 247.281 72.661C246.782 72.9397 246.32 73.3173 245.895 73.794V82H243.926V65.797H245.895V72.342ZM259.464 82.176C258.584 82.176 257.906 81.9303 257.429 81.439C256.96 80.9477 256.725 80.24 256.725 79.316V72.496H255.383C255.266 72.496 255.167 72.463 255.086 72.397C255.006 72.3237 254.965 72.2137 254.965 72.067V71.286L256.791 71.055L257.242 67.612C257.264 67.502 257.312 67.414 257.385 67.348C257.466 67.2747 257.569 67.238 257.693 67.238H258.683V71.077H261.906V72.496H258.683V79.184C258.683 79.6533 258.797 80.0017 259.024 80.229C259.252 80.4563 259.545 80.57 259.904 80.57C260.11 80.57 260.286 80.5443 260.432 80.493C260.586 80.4343 260.718 80.372 260.828 80.306C260.938 80.24 261.03 80.1813 261.103 80.13C261.184 80.0713 261.254 80.042 261.312 80.042C261.415 80.042 261.507 80.1043 261.587 80.229L262.159 81.164C261.822 81.4793 261.415 81.7287 260.938 81.912C260.462 82.088 259.97 82.176 259.464 82.176ZM263.752 74.575H269.186V76.236H263.752V74.575ZM282.641 74.124C282.641 75.5027 282.491 76.698 282.19 77.71C281.897 78.7147 281.493 79.547 280.98 80.207C280.467 80.867 279.858 81.3583 279.154 81.681C278.457 82.0037 277.709 82.165 276.91 82.165C276.103 82.165 275.352 82.0037 274.655 81.681C273.966 81.3583 273.364 80.867 272.851 80.207C272.338 79.547 271.934 78.7147 271.641 77.71C271.348 76.698 271.201 75.5027 271.201 74.124C271.201 72.7453 271.348 71.55 271.641 70.538C271.934 69.526 272.338 68.69 272.851 68.03C273.364 67.3627 273.966 66.8677 274.655 66.545C275.352 66.2223 276.103 66.061 276.91 66.061C277.709 66.061 278.457 66.2223 279.154 66.545C279.858 66.8677 280.467 67.3627 280.98 68.03C281.493 68.69 281.897 69.526 282.19 70.538C282.491 71.55 282.641 72.7453 282.641 74.124ZM280.606 74.124C280.606 72.9213 280.503 71.913 280.298 71.099C280.1 70.2777 279.829 69.6177 279.484 69.119C279.147 68.6203 278.754 68.2647 278.307 68.052C277.86 67.832 277.394 67.722 276.91 67.722C276.426 67.722 275.96 67.832 275.513 68.052C275.066 68.2647 274.673 68.6203 274.336 69.119C273.999 69.6177 273.727 70.2777 273.522 71.099C273.324 71.913 273.225 72.9213 273.225 74.124C273.225 75.3267 273.324 76.335 273.522 77.149C273.727 77.963 273.999 78.6193 274.336 79.118C274.673 79.6167 275.066 79.976 275.513 80.196C275.96 80.4087 276.426 80.515 276.91 80.515C277.394 80.515 277.86 80.4087 278.307 80.196C278.754 79.976 279.147 79.6167 279.484 79.118C279.829 78.6193 280.1 77.963 280.298 77.149C280.503 76.335 280.606 75.3267 280.606 74.124ZM289.661 80.548C290.189 80.548 290.665 80.4637 291.091 80.295C291.523 80.1263 291.89 79.8917 292.191 79.591C292.499 79.2903 292.733 78.9347 292.895 78.524C293.063 78.1133 293.148 77.666 293.148 77.182C293.148 76.6687 293.067 76.2067 292.906 75.796C292.744 75.378 292.513 75.026 292.213 74.74C291.919 74.4467 291.567 74.223 291.157 74.069C290.746 73.915 290.295 73.838 289.804 73.838C289.276 73.838 288.799 73.9297 288.374 74.113C287.948 74.289 287.585 74.531 287.285 74.839C286.991 75.1397 286.764 75.4917 286.603 75.895C286.449 76.291 286.372 76.7053 286.372 77.138C286.372 77.644 286.445 78.106 286.592 78.524C286.738 78.942 286.951 79.3013 287.23 79.602C287.516 79.9027 287.86 80.1373 288.264 80.306C288.674 80.4673 289.14 80.548 289.661 80.548ZM288.517 72.144C288.377 72.32 288.242 72.4923 288.11 72.661C287.985 72.8223 287.864 72.9837 287.747 73.145C288.121 72.8883 288.531 72.6903 288.979 72.551C289.426 72.4117 289.914 72.342 290.442 72.342C291.08 72.342 291.681 72.4483 292.246 72.661C292.81 72.8663 293.302 73.1707 293.72 73.574C294.145 73.97 294.482 74.4613 294.732 75.048C294.981 75.6273 295.106 76.291 295.106 77.039C295.106 77.765 294.974 78.4397 294.71 79.063C294.446 79.6863 294.075 80.229 293.599 80.691C293.129 81.153 292.561 81.516 291.894 81.78C291.234 82.044 290.504 82.176 289.705 82.176C288.913 82.176 288.194 82.0513 287.549 81.802C286.903 81.5453 286.353 81.186 285.899 80.724C285.451 80.2547 285.103 79.69 284.854 79.03C284.612 78.3627 284.491 77.6183 284.491 76.797C284.491 76.1077 284.641 75.3743 284.942 74.597C285.25 73.8123 285.737 72.9763 286.405 72.089L290.409 66.71C290.511 66.578 290.651 66.468 290.827 66.38C291.01 66.2847 291.219 66.237 291.454 66.237H293.192L288.517 72.144ZM297.439 74.575H302.873V76.236H297.439V74.575ZM57.1174 100.124C57.1174 101.305 56.9304 102.379 56.5564 103.347C56.1824 104.315 55.6544 105.144 54.9724 105.833C54.2904 106.522 53.4691 107.058 52.5084 107.439C51.555 107.813 50.4991 108 49.3404 108H43.4554V92.237H49.3404C50.4991 92.237 51.555 92.4277 52.5084 92.809C53.4691 93.183 54.2904 93.7183 54.9724 94.415C55.6544 95.1043 56.1824 95.933 56.5564 96.901C56.9304 97.869 57.1174 98.9433 57.1174 100.124ZM54.9284 100.124C54.9284 99.156 54.7964 98.2907 54.5324 97.528C54.2684 96.7653 53.8944 96.12 53.4104 95.592C52.9264 95.064 52.3397 94.6607 51.6504 94.382C50.961 94.1033 50.1911 93.964 49.3404 93.964H45.5894V106.273H49.3404C50.1911 106.273 50.961 106.134 51.6504 105.855C52.3397 105.576 52.9264 105.177 53.4104 104.656C53.8944 104.128 54.2684 103.483 54.5324 102.72C54.7964 101.957 54.9284 101.092 54.9284 100.124ZM67.0373 101.213C67.0373 100.758 66.9713 100.344 66.8393 99.97C66.7147 99.5887 66.5277 99.2623 66.2783 98.991C66.0363 98.7123 65.7393 98.4997 65.3873 98.353C65.0353 98.199 64.6357 98.122 64.1883 98.122C63.2497 98.122 62.5053 98.397 61.9553 98.947C61.4127 99.4897 61.0753 100.245 60.9433 101.213H67.0373ZM68.6213 106.438C68.3793 106.731 68.0897 106.988 67.7523 107.208C67.415 107.421 67.052 107.597 66.6633 107.736C66.282 107.875 65.886 107.978 65.4753 108.044C65.0647 108.117 64.6577 108.154 64.2543 108.154C63.4843 108.154 62.773 108.026 62.1203 107.769C61.475 107.505 60.914 107.124 60.4373 106.625C59.968 106.119 59.6013 105.496 59.3373 104.755C59.0733 104.014 58.9413 103.164 58.9413 102.203C58.9413 101.426 59.0587 100.7 59.2933 100.025C59.5353 99.3503 59.88 98.7673 60.3273 98.276C60.7747 97.7773 61.321 97.3887 61.9663 97.11C62.6117 96.824 63.3377 96.681 64.1443 96.681C64.8117 96.681 65.4277 96.7947 65.9923 97.022C66.5643 97.242 67.0557 97.5647 67.4663 97.99C67.8843 98.408 68.2107 98.9287 68.4453 99.552C68.68 100.168 68.7973 100.872 68.7973 101.664C68.7973 101.972 68.7643 102.177 68.6983 102.28C68.6323 102.383 68.5077 102.434 68.3243 102.434H60.8773C60.8993 103.138 60.9947 103.75 61.1633 104.271C61.3393 104.792 61.5813 105.228 61.8893 105.58C62.1973 105.925 62.564 106.185 62.9893 106.361C63.4147 106.53 63.8913 106.614 64.4193 106.614C64.9107 106.614 65.3323 106.559 65.6843 106.449C66.0437 106.332 66.3517 106.207 66.6083 106.075C66.865 105.943 67.0777 105.822 67.2463 105.712C67.4223 105.595 67.5727 105.536 67.6973 105.536C67.8587 105.536 67.9833 105.598 68.0713 105.723L68.6213 106.438ZM78.9574 98.837C78.8987 98.9177 78.84 98.98 78.7814 99.024C78.7227 99.068 78.642 99.09 78.5394 99.09C78.4294 99.09 78.3084 99.046 78.1764 98.958C78.0444 98.8627 77.8794 98.76 77.6814 98.65C77.4907 98.54 77.2524 98.441 76.9664 98.353C76.6877 98.2577 76.343 98.21 75.9324 98.21C75.3824 98.21 74.8984 98.309 74.4804 98.507C74.0624 98.6977 73.7104 98.9763 73.4244 99.343C73.1457 99.7097 72.933 100.153 72.7864 100.674C72.647 101.195 72.5774 101.778 72.5774 102.423C72.5774 103.098 72.6544 103.699 72.8084 104.227C72.9624 104.748 73.1787 105.188 73.4574 105.547C73.7434 105.899 74.0844 106.17 74.4804 106.361C74.8837 106.544 75.3347 106.636 75.8334 106.636C76.31 106.636 76.7024 106.581 77.0104 106.471C77.3184 106.354 77.5714 106.225 77.7694 106.086C77.9747 105.947 78.1434 105.822 78.2754 105.712C78.4147 105.595 78.5504 105.536 78.6824 105.536C78.8437 105.536 78.9684 105.598 79.0564 105.723L79.6064 106.438C79.3644 106.739 79.0894 106.995 78.7814 107.208C78.4734 107.421 78.1397 107.6 77.7804 107.747C77.4284 107.886 77.058 107.989 76.6694 108.055C76.2807 108.121 75.8847 108.154 75.4814 108.154C74.7847 108.154 74.1357 108.026 73.5344 107.769C72.9404 107.512 72.4234 107.142 71.9834 106.658C71.5434 106.167 71.1987 105.565 70.9494 104.854C70.7 104.143 70.5754 103.332 70.5754 102.423C70.5754 101.594 70.689 100.828 70.9164 100.124C71.151 99.42 71.4884 98.815 71.9284 98.309C72.3757 97.7957 72.922 97.396 73.5674 97.11C74.22 96.824 74.968 96.681 75.8114 96.681C76.596 96.681 77.2854 96.8093 77.8794 97.066C78.4807 97.3153 79.0124 97.671 79.4744 98.133L78.9574 98.837ZM88.9729 101.213C88.9729 100.758 88.9069 100.344 88.7749 99.97C88.6502 99.5887 88.4632 99.2623 88.2139 98.991C87.9719 98.7123 87.6749 98.4997 87.3229 98.353C86.9709 98.199 86.5712 98.122 86.1239 98.122C85.1852 98.122 84.4409 98.397 83.8909 98.947C83.3482 99.4897 83.0109 100.245 82.8789 101.213H88.9729ZM90.5569 106.438C90.3149 106.731 90.0252 106.988 89.6879 107.208C89.3505 107.421 88.9875 107.597 88.5989 107.736C88.2175 107.875 87.8215 107.978 87.4109 108.044C87.0002 108.117 86.5932 108.154 86.1899 108.154C85.4199 108.154 84.7085 108.026 84.0559 107.769C83.4105 107.505 82.8495 107.124 82.3729 106.625C81.9035 106.119 81.5369 105.496 81.2729 104.755C81.0089 104.014 80.8769 103.164 80.8769 102.203C80.8769 101.426 80.9942 100.7 81.2289 100.025C81.4709 99.3503 81.8155 98.7673 82.2629 98.276C82.7102 97.7773 83.2565 97.3887 83.9019 97.11C84.5472 96.824 85.2732 96.681 86.0799 96.681C86.7472 96.681 87.3632 96.7947 87.9279 97.022C88.4999 97.242 88.9912 97.5647 89.4019 97.99C89.8199 98.408 90.1462 98.9287 90.3809 99.552C90.6155 100.168 90.7329 100.872 90.7329 101.664C90.7329 101.972 90.6999 102.177 90.6339 102.28C90.5679 102.383 90.4432 102.434 90.2599 102.434H82.8129C82.8349 103.138 82.9302 103.75 83.0989 104.271C83.2749 104.792 83.5169 105.228 83.8249 105.58C84.1329 105.925 84.4995 106.185 84.9249 106.361C85.3502 106.53 85.8269 106.614 86.3549 106.614C86.8462 106.614 87.2679 106.559 87.6199 106.449C87.9792 106.332 88.2872 106.207 88.5439 106.075C88.8005 105.943 89.0132 105.822 89.1819 105.712C89.3579 105.595 89.5082 105.536 89.6329 105.536C89.7942 105.536 89.9189 105.598 90.0069 105.723L90.5569 106.438ZM94.9859 98.474C95.2279 98.2027 95.4846 97.957 95.7559 97.737C96.0272 97.517 96.3132 97.33 96.6139 97.176C96.9219 97.0147 97.2446 96.8937 97.5819 96.813C97.9266 96.725 98.2969 96.681 98.6929 96.681C99.3016 96.681 99.8369 96.7837 100.299 96.989C100.768 97.187 101.157 97.473 101.465 97.847C101.78 98.2137 102.019 98.6573 102.18 99.178C102.341 99.6987 102.422 100.274 102.422 100.905V108H100.453V100.905C100.453 100.062 100.259 99.409 99.8699 98.947C99.4886 98.4777 98.9056 98.243 98.1209 98.243C97.5416 98.243 96.9989 98.3823 96.4929 98.661C95.9942 98.9397 95.5322 99.3173 95.1069 99.794V108H93.1379V96.857H94.3149C94.5936 96.857 94.7659 96.9927 94.8319 97.264L94.9859 98.474ZM108.676 108.176C107.796 108.176 107.118 107.93 106.641 107.439C106.172 106.948 105.937 106.24 105.937 105.316V98.496H104.595C104.478 98.496 104.379 98.463 104.298 98.397C104.217 98.3237 104.177 98.2137 104.177 98.067V97.286L106.003 97.055L106.454 93.612C106.476 93.502 106.524 93.414 106.597 93.348C106.678 93.2747 106.78 93.238 106.905 93.238H107.895V97.077H111.118V98.496H107.895V105.184C107.895 105.653 108.009 106.002 108.236 106.229C108.463 106.456 108.757 106.57 109.116 106.57C109.321 106.57 109.497 106.544 109.644 106.493C109.798 106.434 109.93 106.372 110.04 106.306C110.15 106.24 110.242 106.181 110.315 106.13C110.396 106.071 110.465 106.042 110.524 106.042C110.627 106.042 110.718 106.104 110.799 106.229L111.371 107.164C111.034 107.479 110.627 107.729 110.15 107.912C109.673 108.088 109.182 108.176 108.676 108.176ZM114.999 99.09C115.351 98.3273 115.784 97.7333 116.297 97.308C116.81 96.8753 117.437 96.659 118.178 96.659C118.413 96.659 118.636 96.6847 118.849 96.736C119.069 96.7873 119.263 96.868 119.432 96.978L119.289 98.441C119.245 98.6243 119.135 98.716 118.959 98.716C118.856 98.716 118.706 98.694 118.508 98.65C118.31 98.606 118.086 98.584 117.837 98.584C117.485 98.584 117.17 98.6353 116.891 98.738C116.62 98.8407 116.374 98.9947 116.154 99.2C115.941 99.398 115.747 99.6473 115.571 99.948C115.402 100.241 115.248 100.579 115.109 100.96V108H113.14V96.857H114.262C114.475 96.857 114.621 96.8973 114.702 96.978C114.783 97.0587 114.838 97.198 114.867 97.396L114.999 99.09ZM127.021 102.984C126.119 103.013 125.349 103.087 124.711 103.204C124.08 103.314 123.563 103.461 123.16 103.644C122.764 103.827 122.474 104.044 122.291 104.293C122.115 104.542 122.027 104.821 122.027 105.129C122.027 105.422 122.074 105.675 122.17 105.888C122.265 106.101 122.393 106.277 122.555 106.416C122.723 106.548 122.918 106.647 123.138 106.713C123.365 106.772 123.607 106.801 123.864 106.801C124.208 106.801 124.524 106.768 124.81 106.702C125.096 106.629 125.363 106.526 125.613 106.394C125.869 106.262 126.111 106.104 126.339 105.921C126.573 105.738 126.801 105.529 127.021 105.294V102.984ZM120.696 98.43C121.312 97.836 121.975 97.3923 122.687 97.099C123.398 96.8057 124.186 96.659 125.052 96.659C125.675 96.659 126.229 96.7617 126.713 96.967C127.197 97.1723 127.604 97.4583 127.934 97.825C128.264 98.1917 128.513 98.6353 128.682 99.156C128.85 99.6767 128.935 100.249 128.935 100.872V108H128.066C127.875 108 127.728 107.971 127.626 107.912C127.523 107.846 127.442 107.721 127.384 107.538L127.164 106.482C126.87 106.753 126.584 106.995 126.306 107.208C126.027 107.413 125.734 107.589 125.426 107.736C125.118 107.875 124.788 107.982 124.436 108.055C124.091 108.136 123.706 108.176 123.281 108.176C122.848 108.176 122.441 108.117 122.06 108C121.678 107.875 121.345 107.692 121.059 107.45C120.78 107.208 120.556 106.904 120.388 106.537C120.226 106.163 120.146 105.723 120.146 105.217C120.146 104.777 120.267 104.355 120.509 103.952C120.751 103.541 121.143 103.178 121.686 102.863C122.228 102.548 122.936 102.291 123.809 102.093C124.681 101.888 125.752 101.77 127.021 101.741V100.872C127.021 100.007 126.834 99.354 126.46 98.914C126.086 98.4667 125.539 98.243 124.821 98.243C124.337 98.243 123.93 98.3053 123.6 98.43C123.277 98.5473 122.995 98.683 122.753 98.837C122.518 98.9837 122.313 99.1193 122.137 99.244C121.968 99.3613 121.799 99.42 121.631 99.42C121.499 99.42 121.385 99.387 121.29 99.321C121.194 99.2477 121.114 99.1597 121.048 99.057L120.696 98.43ZM133.941 91.797V108H131.983V91.797H133.941ZM139.184 96.857V108H137.226V96.857H139.184ZM139.602 93.359C139.602 93.5497 139.562 93.7293 139.481 93.898C139.408 94.0593 139.305 94.206 139.173 94.338C139.049 94.4627 138.898 94.5617 138.722 94.635C138.554 94.7083 138.374 94.745 138.183 94.745C137.993 94.745 137.813 94.7083 137.644 94.635C137.483 94.5617 137.34 94.4627 137.215 94.338C137.091 94.206 136.992 94.0593 136.918 93.898C136.845 93.7293 136.808 93.5497 136.808 93.359C136.808 93.1683 136.845 92.9887 136.918 92.82C136.992 92.644 137.091 92.4937 137.215 92.369C137.34 92.237 137.483 92.1343 137.644 92.061C137.813 91.9877 137.993 91.951 138.183 91.951C138.374 91.951 138.554 91.9877 138.722 92.061C138.898 92.1343 139.049 92.237 139.173 92.369C139.305 92.4937 139.408 92.644 139.481 92.82C139.562 92.9887 139.602 93.1683 139.602 93.359ZM150.091 97.693C150.091 97.8323 150.065 97.968 150.014 98.1C149.97 98.232 149.907 98.3457 149.827 98.441L143.788 106.471H149.882V108H141.489V107.186C141.489 107.091 141.511 106.981 141.555 106.856C141.599 106.724 141.665 106.599 141.753 106.482L147.825 98.397H141.83V96.857H150.091V97.693ZM159.592 101.213C159.592 100.758 159.526 100.344 159.394 99.97C159.269 99.5887 159.082 99.2623 158.833 98.991C158.591 98.7123 158.294 98.4997 157.942 98.353C157.59 98.199 157.19 98.122 156.743 98.122C155.804 98.122 155.06 98.397 154.51 98.947C153.967 99.4897 153.63 100.245 153.498 101.213H159.592ZM161.176 106.438C160.934 106.731 160.644 106.988 160.307 107.208C159.97 107.421 159.607 107.597 159.218 107.736C158.837 107.875 158.441 107.978 158.03 108.044C157.619 108.117 157.212 108.154 156.809 108.154C156.039 108.154 155.328 108.026 154.675 107.769C154.03 107.505 153.469 107.124 152.992 106.625C152.523 106.119 152.156 105.496 151.892 104.755C151.628 104.014 151.496 103.164 151.496 102.203C151.496 101.426 151.613 100.7 151.848 100.025C152.09 99.3503 152.435 98.7673 152.882 98.276C153.329 97.7773 153.876 97.3887 154.521 97.11C155.166 96.824 155.892 96.681 156.699 96.681C157.366 96.681 157.982 96.7947 158.547 97.022C159.119 97.242 159.61 97.5647 160.021 97.99C160.439 98.408 160.765 98.9287 161 99.552C161.235 100.168 161.352 100.872 161.352 101.664C161.352 101.972 161.319 102.177 161.253 102.28C161.187 102.383 161.062 102.434 160.879 102.434H153.432C153.454 103.138 153.549 103.75 153.718 104.271C153.894 104.792 154.136 105.228 154.444 105.58C154.752 105.925 155.119 106.185 155.544 106.361C155.969 106.53 156.446 106.614 156.974 106.614C157.465 106.614 157.887 106.559 158.239 106.449C158.598 106.332 158.906 106.207 159.163 106.075C159.42 105.943 159.632 105.822 159.801 105.712C159.977 105.595 160.127 105.536 160.252 105.536C160.413 105.536 160.538 105.598 160.626 105.723L161.176 106.438ZM171.017 99.508C170.65 99.0167 170.254 98.6757 169.829 98.485C169.404 98.287 168.927 98.188 168.399 98.188C167.365 98.188 166.569 98.5583 166.012 99.299C165.455 100.04 165.176 101.096 165.176 102.467C165.176 103.193 165.238 103.816 165.363 104.337C165.488 104.85 165.671 105.276 165.913 105.613C166.155 105.943 166.452 106.185 166.804 106.339C167.156 106.493 167.556 106.57 168.003 106.57C168.648 106.57 169.209 106.423 169.686 106.13C170.17 105.837 170.614 105.422 171.017 104.887V99.508ZM172.975 91.797V108H171.809C171.53 108 171.354 107.864 171.281 107.593L171.105 106.24C170.628 106.812 170.086 107.274 169.477 107.626C168.868 107.978 168.164 108.154 167.365 108.154C166.727 108.154 166.148 108.033 165.627 107.791C165.106 107.542 164.663 107.179 164.296 106.702C163.929 106.225 163.647 105.631 163.449 104.92C163.251 104.209 163.152 103.391 163.152 102.467C163.152 101.646 163.262 100.883 163.482 100.179C163.702 99.4677 164.017 98.8517 164.428 98.331C164.839 97.8103 165.341 97.4033 165.935 97.11C166.536 96.8093 167.211 96.659 167.959 96.659C168.641 96.659 169.224 96.7763 169.708 97.011C170.199 97.2383 170.636 97.5573 171.017 97.968V91.797H172.975ZM190.222 94.701C190.156 94.811 190.082 94.8953 190.002 94.954C189.928 95.0053 189.837 95.031 189.727 95.031C189.602 95.031 189.455 94.9687 189.287 94.844C189.118 94.7193 188.905 94.5837 188.649 94.437C188.399 94.283 188.095 94.1437 187.736 94.019C187.384 93.8943 186.955 93.832 186.449 93.832C185.972 93.832 185.55 93.898 185.184 94.03C184.824 94.1547 184.52 94.327 184.271 94.547C184.029 94.767 183.845 95.0273 183.721 95.328C183.596 95.6213 183.534 95.9403 183.534 96.285C183.534 96.725 183.64 97.0917 183.853 97.385C184.073 97.671 184.359 97.9167 184.711 98.122C185.07 98.3273 185.473 98.507 185.921 98.661C186.375 98.8077 186.837 98.9617 187.307 99.123C187.783 99.2843 188.245 99.4677 188.693 99.673C189.147 99.871 189.551 100.124 189.903 100.432C190.262 100.74 190.548 101.118 190.761 101.565C190.981 102.012 191.091 102.562 191.091 103.215C191.091 103.904 190.973 104.553 190.739 105.162C190.504 105.763 190.159 106.288 189.705 106.735C189.257 107.182 188.704 107.534 188.044 107.791C187.391 108.048 186.647 108.176 185.811 108.176C184.784 108.176 183.853 107.993 183.017 107.626C182.181 107.252 181.466 106.75 180.872 106.119L181.488 105.107C181.546 105.026 181.616 104.96 181.697 104.909C181.785 104.85 181.88 104.821 181.983 104.821C182.078 104.821 182.184 104.861 182.302 104.942C182.426 105.015 182.566 105.111 182.72 105.228C182.874 105.345 183.05 105.474 183.248 105.613C183.446 105.752 183.669 105.881 183.919 105.998C184.175 106.115 184.465 106.214 184.788 106.295C185.11 106.368 185.473 106.405 185.877 106.405C186.383 106.405 186.834 106.335 187.23 106.196C187.626 106.057 187.959 105.862 188.231 105.613C188.509 105.356 188.722 105.052 188.869 104.7C189.015 104.348 189.089 103.956 189.089 103.523C189.089 103.046 188.979 102.658 188.759 102.357C188.546 102.049 188.264 101.792 187.912 101.587C187.56 101.382 187.156 101.209 186.702 101.07C186.247 100.923 185.785 100.777 185.316 100.63C184.846 100.476 184.384 100.3 183.93 100.102C183.475 99.904 183.072 99.6473 182.72 99.332C182.368 99.0167 182.082 98.6243 181.862 98.155C181.649 97.6783 181.543 97.0917 181.543 96.395C181.543 95.8377 181.649 95.2987 181.862 94.778C182.082 94.2573 182.397 93.7953 182.808 93.392C183.226 92.9887 183.735 92.666 184.337 92.424C184.945 92.182 185.642 92.061 186.427 92.061C187.307 92.061 188.106 92.2003 188.825 92.479C189.551 92.7577 190.189 93.161 190.739 93.689L190.222 94.701ZM196.569 108.176C195.689 108.176 195.01 107.93 194.534 107.439C194.064 106.948 193.83 106.24 193.83 105.316V98.496H192.488C192.37 98.496 192.271 98.463 192.191 98.397C192.11 98.3237 192.07 98.2137 192.07 98.067V97.286L193.896 97.055L194.347 93.612C194.369 93.502 194.416 93.414 194.49 93.348C194.57 93.2747 194.673 93.238 194.798 93.238H195.788V97.077H199.011V98.496H195.788V105.184C195.788 105.653 195.901 106.002 196.129 106.229C196.356 106.456 196.649 106.57 197.009 106.57C197.214 106.57 197.39 106.544 197.537 106.493C197.691 106.434 197.823 106.372 197.933 106.306C198.043 106.24 198.134 106.181 198.208 106.13C198.288 106.071 198.358 106.042 198.417 106.042C198.519 106.042 198.611 106.104 198.692 106.229L199.264 107.164C198.926 107.479 198.519 107.729 198.043 107.912C197.566 108.088 197.075 108.176 196.569 108.176ZM205.665 96.681C206.479 96.681 207.212 96.8167 207.865 97.088C208.518 97.3593 209.075 97.7443 209.537 98.243C209.999 98.7417 210.351 99.3467 210.593 100.058C210.842 100.762 210.967 101.55 210.967 102.423C210.967 103.303 210.842 104.095 210.593 104.799C210.351 105.503 209.999 106.104 209.537 106.603C209.075 107.102 208.518 107.487 207.865 107.758C207.212 108.022 206.479 108.154 205.665 108.154C204.844 108.154 204.103 108.022 203.443 107.758C202.79 107.487 202.233 107.102 201.771 106.603C201.309 106.104 200.953 105.503 200.704 104.799C200.462 104.095 200.341 103.303 200.341 102.423C200.341 101.55 200.462 100.762 200.704 100.058C200.953 99.3467 201.309 98.7417 201.771 98.243C202.233 97.7443 202.79 97.3593 203.443 97.088C204.103 96.8167 204.844 96.681 205.665 96.681ZM205.665 106.625C206.765 106.625 207.586 106.258 208.129 105.525C208.672 104.784 208.943 103.754 208.943 102.434C208.943 101.107 208.672 100.073 208.129 99.332C207.586 98.5913 206.765 98.221 205.665 98.221C205.108 98.221 204.62 98.3163 204.202 98.507C203.791 98.6977 203.447 98.9727 203.168 99.332C202.897 99.6913 202.691 100.135 202.552 100.663C202.42 101.184 202.354 101.774 202.354 102.434C202.354 103.754 202.625 104.784 203.168 105.525C203.718 106.258 204.55 106.625 205.665 106.625ZM215.309 99.09C215.661 98.3273 216.094 97.7333 216.607 97.308C217.121 96.8753 217.748 96.659 218.488 96.659C218.723 96.659 218.947 96.6847 219.159 96.736C219.379 96.7873 219.574 96.868 219.742 96.978L219.599 98.441C219.555 98.6243 219.445 98.716 219.269 98.716C219.167 98.716 219.016 98.694 218.818 98.65C218.62 98.606 218.397 98.584 218.147 98.584C217.795 98.584 217.48 98.6353 217.201 98.738C216.93 98.8407 216.684 98.9947 216.464 99.2C216.252 99.398 216.057 99.6473 215.881 99.948C215.713 100.241 215.559 100.579 215.419 100.96V108H213.45V96.857H214.572C214.785 96.857 214.932 96.8973 215.012 96.978C215.093 97.0587 215.148 97.198 215.177 97.396L215.309 99.09ZM227.331 102.984C226.429 103.013 225.659 103.087 225.021 103.204C224.391 103.314 223.874 103.461 223.47 103.644C223.074 103.827 222.785 104.044 222.601 104.293C222.425 104.542 222.337 104.821 222.337 105.129C222.337 105.422 222.385 105.675 222.48 105.888C222.576 106.101 222.704 106.277 222.865 106.416C223.034 106.548 223.228 106.647 223.448 106.713C223.676 106.772 223.918 106.801 224.174 106.801C224.519 106.801 224.834 106.768 225.12 106.702C225.406 106.629 225.674 106.526 225.923 106.394C226.18 106.262 226.422 106.104 226.649 105.921C226.884 105.738 227.111 105.529 227.331 105.294V102.984ZM221.006 98.43C221.622 97.836 222.286 97.3923 222.997 97.099C223.709 96.8057 224.497 96.659 225.362 96.659C225.986 96.659 226.539 96.7617 227.023 96.967C227.507 97.1723 227.914 97.4583 228.244 97.825C228.574 98.1917 228.824 98.6353 228.992 99.156C229.161 99.6767 229.245 100.249 229.245 100.872V108H228.376C228.186 108 228.039 107.971 227.936 107.912C227.834 107.846 227.753 107.721 227.694 107.538L227.474 106.482C227.181 106.753 226.895 106.995 226.616 107.208C226.338 107.413 226.044 107.589 225.736 107.736C225.428 107.875 225.098 107.982 224.746 108.055C224.402 108.136 224.017 108.176 223.591 108.176C223.159 108.176 222.752 108.117 222.37 108C221.989 107.875 221.655 107.692 221.369 107.45C221.091 107.208 220.867 106.904 220.698 106.537C220.537 106.163 220.456 105.723 220.456 105.217C220.456 104.777 220.577 104.355 220.819 103.952C221.061 103.541 221.454 103.178 221.996 102.863C222.539 102.548 223.247 102.291 224.119 102.093C224.992 101.888 226.063 101.77 227.331 101.741V100.872C227.331 100.007 227.144 99.354 226.77 98.914C226.396 98.4667 225.85 98.243 225.131 98.243C224.647 98.243 224.24 98.3053 223.91 98.43C223.588 98.5473 223.305 98.683 223.063 98.837C222.829 98.9837 222.623 99.1193 222.447 99.244C222.279 99.3613 222.11 99.42 221.941 99.42C221.809 99.42 221.696 99.387 221.6 99.321C221.505 99.2477 221.424 99.1597 221.358 99.057L221.006 98.43ZM236.111 102.555C236.507 102.555 236.855 102.5 237.156 102.39C237.456 102.28 237.709 102.126 237.915 101.928C238.12 101.73 238.274 101.495 238.377 101.224C238.479 100.945 238.531 100.641 238.531 100.311C238.531 99.629 238.322 99.0863 237.904 98.683C237.493 98.2797 236.895 98.078 236.111 98.078C235.319 98.078 234.714 98.2797 234.296 98.683C233.885 99.0863 233.68 99.629 233.68 100.311C233.68 100.641 233.731 100.945 233.834 101.224C233.944 101.495 234.101 101.73 234.307 101.928C234.512 102.126 234.765 102.28 235.066 102.39C235.366 102.5 235.715 102.555 236.111 102.555ZM239.642 108.605C239.642 108.334 239.565 108.114 239.411 107.945C239.257 107.776 239.048 107.644 238.784 107.549C238.527 107.454 238.226 107.388 237.882 107.351C237.537 107.307 237.17 107.274 236.782 107.252C236.4 107.23 236.012 107.208 235.616 107.186C235.22 107.164 234.838 107.127 234.472 107.076C234.061 107.267 233.724 107.509 233.46 107.802C233.203 108.088 233.075 108.425 233.075 108.814C233.075 109.063 233.137 109.294 233.262 109.507C233.394 109.727 233.592 109.914 233.856 110.068C234.12 110.229 234.45 110.354 234.846 110.442C235.249 110.537 235.722 110.585 236.265 110.585C236.793 110.585 237.266 110.537 237.684 110.442C238.102 110.347 238.454 110.211 238.74 110.035C239.033 109.859 239.257 109.65 239.411 109.408C239.565 109.166 239.642 108.898 239.642 108.605ZM241.633 97.297V98.023C241.633 98.265 241.479 98.419 241.171 98.485L239.906 98.65C240.155 99.134 240.28 99.6693 240.28 100.256C240.28 100.799 240.173 101.294 239.961 101.741C239.755 102.181 239.469 102.559 239.103 102.874C238.736 103.189 238.296 103.431 237.783 103.6C237.269 103.769 236.712 103.853 236.111 103.853C235.59 103.853 235.099 103.791 234.637 103.666C234.402 103.813 234.222 103.97 234.098 104.139C233.973 104.3 233.911 104.465 233.911 104.634C233.911 104.898 234.017 105.1 234.23 105.239C234.45 105.371 234.736 105.466 235.088 105.525C235.44 105.584 235.839 105.62 236.287 105.635C236.741 105.65 237.203 105.675 237.673 105.712C238.149 105.741 238.611 105.796 239.059 105.877C239.513 105.958 239.917 106.09 240.269 106.273C240.621 106.456 240.903 106.709 241.116 107.032C241.336 107.355 241.446 107.773 241.446 108.286C241.446 108.763 241.325 109.225 241.083 109.672C240.848 110.119 240.507 110.515 240.06 110.86C239.612 111.212 239.062 111.491 238.41 111.696C237.764 111.909 237.035 112.015 236.221 112.015C235.407 112.015 234.695 111.934 234.087 111.773C233.478 111.612 232.972 111.395 232.569 111.124C232.165 110.853 231.861 110.537 231.656 110.178C231.458 109.826 231.359 109.456 231.359 109.067C231.359 108.517 231.531 108.051 231.876 107.67C232.22 107.289 232.693 106.984 233.295 106.757C232.965 106.61 232.701 106.416 232.503 106.174C232.312 105.925 232.217 105.591 232.217 105.173C232.217 105.012 232.246 104.847 232.305 104.678C232.363 104.502 232.451 104.33 232.569 104.161C232.693 103.985 232.844 103.82 233.02 103.666C233.196 103.512 233.401 103.376 233.636 103.259C233.086 102.951 232.657 102.544 232.349 102.038C232.041 101.525 231.887 100.931 231.887 100.256C231.887 99.7133 231.989 99.222 232.195 98.782C232.407 98.3347 232.701 97.957 233.075 97.649C233.449 97.3337 233.892 97.0917 234.406 96.923C234.926 96.7543 235.495 96.67 236.111 96.67C236.595 96.67 237.046 96.725 237.464 96.835C237.882 96.9377 238.263 97.0917 238.608 97.297H241.633ZM250.944 101.213C250.944 100.758 250.878 100.344 250.746 99.97C250.621 99.5887 250.434 99.2623 250.185 98.991C249.943 98.7123 249.646 98.4997 249.294 98.353C248.942 98.199 248.542 98.122 248.095 98.122C247.156 98.122 246.412 98.397 245.862 98.947C245.319 99.4897 244.982 100.245 244.85 101.213H250.944ZM252.528 106.438C252.286 106.731 251.996 106.988 251.659 107.208C251.321 107.421 250.958 107.597 250.57 107.736C250.188 107.875 249.792 107.978 249.382 108.044C248.971 108.117 248.564 108.154 248.161 108.154C247.391 108.154 246.679 108.026 246.027 107.769C245.381 107.505 244.82 107.124 244.344 106.625C243.874 106.119 243.508 105.496 243.244 104.755C242.98 104.014 242.848 103.164 242.848 102.203C242.848 101.426 242.965 100.7 243.2 100.025C243.442 99.3503 243.786 98.7673 244.234 98.276C244.681 97.7773 245.227 97.3887 245.873 97.11C246.518 96.824 247.244 96.681 248.051 96.681C248.718 96.681 249.334 96.7947 249.899 97.022C250.471 97.242 250.962 97.5647 251.373 97.99C251.791 98.408 252.117 98.9287 252.352 99.552C252.586 100.168 252.704 100.872 252.704 101.664C252.704 101.972 252.671 102.177 252.605 102.28C252.539 102.383 252.414 102.434 252.231 102.434H244.784C244.806 103.138 244.901 103.75 245.07 104.271C245.246 104.792 245.488 105.228 245.796 105.58C246.104 105.925 246.47 106.185 246.896 106.361C247.321 106.53 247.798 106.614 248.326 106.614C248.817 106.614 249.239 106.559 249.591 106.449C249.95 106.332 250.258 106.207 250.515 106.075C250.771 105.943 250.984 105.822 251.153 105.712C251.329 105.595 251.479 105.536 251.604 105.536C251.765 105.536 251.89 105.598 251.978 105.723L252.528 106.438ZM257.672 97.858V99.464H270.256V97.858H257.672ZM269.706 97.858V98.166C269.42 104.7 269.09 107.208 268.496 107.802C268.276 108.044 268.012 108.088 267.572 108.088C267.044 108.088 265.68 108.066 264.228 107.934C264.536 108.418 264.756 109.1 264.778 109.606C266.164 109.672 267.55 109.694 268.276 109.628C269.046 109.562 269.53 109.408 269.97 108.858C270.762 108.022 271.07 105.47 271.378 98.65C271.4 98.43 271.422 97.858 271.422 97.858H269.706ZM260.686 89.982C259.3 93.37 256.858 96.406 254.042 98.298C254.46 98.606 255.164 99.244 255.472 99.596C258.244 97.484 260.84 94.206 262.424 90.488L260.686 89.982ZM268.364 89.938L266.78 90.576C268.43 93.854 271.202 97.418 273.644 99.398C273.974 98.936 274.59 98.276 275.03 97.924C272.632 96.23 269.794 92.886 268.364 89.938ZM262.314 98.298C261.874 102.456 260.994 106.526 255.23 108.44C255.604 108.792 256.088 109.452 256.286 109.87C262.424 107.67 263.568 103.116 264.074 98.298H262.314ZM276.878 92.908V94.492H296.26V92.908H276.878ZM286.756 95.57V109.782H288.428V95.57H286.756ZM280.442 98.518V107.714H282.07V100.102H294.104V98.518H280.442ZM293.378 98.518V105.624C293.378 105.91 293.268 105.998 292.894 106.02C292.542 106.042 291.266 106.042 289.858 105.998C290.1 106.438 290.342 107.054 290.43 107.494C292.3 107.516 293.466 107.494 294.148 107.252C294.852 106.988 295.05 106.504 295.05 105.646V98.518H293.378ZM284.336 89.52C283.038 94.162 280.376 99.112 276.218 101.95C276.548 102.302 276.988 102.962 277.208 103.358C281.696 100.212 284.446 95.042 286.03 89.916L284.336 89.52ZM313.156 90.62C314.3 91.412 315.642 92.6 316.302 93.392L317.468 92.358C316.786 91.588 315.4 90.444 314.256 89.674L313.156 90.62ZM298.768 93.634V95.24H318.37V93.634H298.768ZM299.516 98.54V100.146H309.24V98.54H299.516ZM303.476 99.398V107.252H305.126V99.398H303.476ZM298.856 107.472L299.362 109.122C302.2 108.484 306.226 107.56 309.988 106.68L309.856 105.206C305.786 106.086 301.474 106.966 298.856 107.472ZM309.966 89.63C310.054 100.278 311.836 109.804 316.214 109.804C317.908 109.804 318.546 108.682 318.832 104.832C318.37 104.678 317.732 104.304 317.358 103.93C317.226 106.878 316.962 108.088 316.346 108.088C313.64 108.088 311.66 99.838 311.726 89.63H309.966ZM326.928 102.17V103.71H340.612V102.17H326.928ZM328.798 96.472V97.99H337.862V96.472H328.798ZM333.088 100.124V107.802C333.088 108.11 332.978 108.198 332.604 108.22C332.208 108.22 330.91 108.242 329.436 108.198C329.656 108.66 329.876 109.298 329.964 109.76C331.856 109.76 333.066 109.76 333.792 109.518C334.54 109.254 334.738 108.792 334.738 107.824V100.124H333.088ZM337.422 96.472V96.78C336.586 97.924 334.848 99.464 333.374 100.344C333.66 100.564 334.078 101.026 334.298 101.312C335.992 100.3 337.928 98.694 339.226 97.176L338.17 96.384L337.818 96.472H337.422ZM320.922 92.402V93.986H340.194V92.402H320.922ZM328.028 89.52C326.796 94.074 324.244 98.958 320.24 101.752C320.526 102.148 320.944 102.874 321.12 103.292C325.52 100.146 328.204 95.02 329.744 89.96L328.028 89.52ZM323.694 98.518V109.716H325.344V98.518H323.694ZM355.44 89.52V97.022H356.958V89.52H355.44ZM360.984 90.246C358.96 95.086 355.484 99.112 351.26 101.51C351.59 101.796 352.14 102.456 352.338 102.786C356.606 100.08 360.214 95.856 362.458 90.664L360.984 90.246ZM352.58 92.028V93.458H359.532V92.028H352.58ZM351.92 96.208V97.726H362.634V96.208H351.92ZM354.67 103.644V104.92H360.896V103.644H354.67ZM353.966 100.058V109.672H355.418V101.444H360.17V109.606H361.666V100.058H353.966ZM354.67 107.186V108.572H360.896V107.186H354.67ZM347.916 91.522C348.862 92.468 349.94 93.81 350.402 94.69L351.59 93.81C351.128 92.952 350.006 91.676 349.06 90.774L347.916 91.522ZM346.97 96.56V98.122H350.094V96.56H346.97ZM349.17 108.968C349.17 108.374 350.6 107.34 350.6 107.34V96.56H349.148V105.932C349.148 106.856 348.686 107.384 348.334 107.604C348.62 107.934 349.038 108.594 349.17 108.968ZM349.17 108.968C349.478 108.594 350.006 108.22 353.13 106.284C352.998 105.976 352.8 105.382 352.734 104.964L349.434 106.856L348.928 107.516L349.17 108.968ZM346.288 89.498C345.364 92.864 343.846 96.252 342.086 98.496C342.35 98.848 342.768 99.684 342.922 100.036C344.88 97.462 346.618 93.612 347.718 89.872L346.288 89.498ZM344.594 95.02V109.716H346.046V93.634L346.024 93.59L344.594 95.02Z" fill="white"/>
</svg>
