<svg width="406" height="228" viewBox="0 0 406 228" fill="none" xmlns="http://www.w3.org/2000/svg">
<rect width="406" height="228" fill="black"/>
<path d="M75.7847 66.237L70.8677 82H68.9537L64.9607 69.977C64.9241 69.8597 64.8874 69.735 64.8507 69.603C64.8214 69.471 64.7884 69.3317 64.7517 69.185C64.7151 69.3317 64.6784 69.471 64.6417 69.603C64.6051 69.735 64.5684 69.8597 64.5317 69.977L60.5167 82H58.6027L53.6857 66.237H55.4567C55.6474 66.237 55.8051 66.2847 55.9297 66.38C56.0617 66.4753 56.1461 66.5963 56.1827 66.743L59.4387 77.699C59.4901 77.897 59.5377 78.1097 59.5817 78.337C59.6331 78.5643 59.6807 78.8063 59.7247 79.063C59.7761 78.8063 59.8274 78.5643 59.8787 78.337C59.9374 78.1023 59.9997 77.8897 60.0657 77.699L63.7727 66.743C63.8167 66.6183 63.9011 66.5047 64.0257 66.402C64.1577 66.292 64.3154 66.237 64.4987 66.237H65.1147C65.3054 66.237 65.4594 66.2847 65.5767 66.38C65.6941 66.4753 65.7821 66.5963 65.8407 66.743L69.5367 77.699C69.6027 77.8897 69.6614 78.095 69.7127 78.315C69.7714 78.535 69.8264 78.766 69.8777 79.008C69.9144 78.766 69.9547 78.535 69.9987 78.315C70.0427 78.095 70.0904 77.8897 70.1417 77.699L73.4087 66.743C73.4454 66.611 73.5261 66.4937 73.6507 66.391C73.7827 66.2883 73.9404 66.237 74.1237 66.237H75.7847ZM87.3162 80.504V82H78.8682V80.504H82.2452V69.757C82.2452 69.4343 82.2562 69.108 82.2782 68.778L79.4732 71.187C79.3778 71.2677 79.2825 71.319 79.1872 71.341C79.0918 71.3557 79.0038 71.3557 78.9232 71.341C78.8425 71.3263 78.7655 71.297 78.6922 71.253C78.6262 71.209 78.5748 71.1613 78.5382 71.11L77.9222 70.263L82.6192 66.204H84.2142V80.504H87.3162ZM90.2549 74.575H95.6889V76.236H90.2549V74.575ZM112.749 68.701C112.683 68.811 112.61 68.8953 112.529 68.954C112.456 69.0053 112.364 69.031 112.254 69.031C112.129 69.031 111.983 68.9687 111.814 68.844C111.645 68.7193 111.433 68.5837 111.176 68.437C110.927 68.283 110.622 68.1437 110.263 68.019C109.911 67.8943 109.482 67.832 108.976 67.832C108.499 67.832 108.078 67.898 107.711 68.03C107.352 68.1547 107.047 68.327 106.798 68.547C106.556 68.767 106.373 69.0273 106.248 69.328C106.123 69.6213 106.061 69.9403 106.061 70.285C106.061 70.725 106.167 71.0917 106.38 71.385C106.6 71.671 106.886 71.9167 107.238 72.122C107.597 72.3273 108.001 72.507 108.448 72.661C108.903 72.8077 109.365 72.9617 109.834 73.123C110.311 73.2843 110.773 73.4677 111.22 73.673C111.675 73.871 112.078 74.124 112.43 74.432C112.789 74.74 113.075 75.1177 113.288 75.565C113.508 76.0123 113.618 76.5623 113.618 77.215C113.618 77.9043 113.501 78.5533 113.266 79.162C113.031 79.7633 112.687 80.2877 112.232 80.735C111.785 81.1823 111.231 81.5343 110.571 81.791C109.918 82.0477 109.174 82.176 108.338 82.176C107.311 82.176 106.38 81.9927 105.544 81.626C104.708 81.252 103.993 80.7497 103.399 80.119L104.015 79.107C104.074 79.0263 104.143 78.9603 104.224 78.909C104.312 78.8503 104.407 78.821 104.51 78.821C104.605 78.821 104.712 78.8613 104.829 78.942C104.954 79.0153 105.093 79.1107 105.247 79.228C105.401 79.3453 105.577 79.4737 105.775 79.613C105.973 79.7523 106.197 79.8807 106.446 79.998C106.703 80.1153 106.992 80.2143 107.315 80.295C107.638 80.3683 108.001 80.405 108.404 80.405C108.91 80.405 109.361 80.3353 109.757 80.196C110.153 80.0567 110.487 79.8623 110.758 79.613C111.037 79.3563 111.249 79.052 111.396 78.7C111.543 78.348 111.616 77.9557 111.616 77.523C111.616 77.0463 111.506 76.6577 111.286 76.357C111.073 76.049 110.791 75.7923 110.439 75.587C110.087 75.3817 109.684 75.2093 109.229 75.07C108.774 74.9233 108.312 74.7767 107.843 74.63C107.374 74.476 106.912 74.3 106.457 74.102C106.002 73.904 105.599 73.6473 105.247 73.332C104.895 73.0167 104.609 72.6243 104.389 72.155C104.176 71.6783 104.07 71.0917 104.07 70.395C104.07 69.8377 104.176 69.2987 104.389 68.778C104.609 68.2573 104.924 67.7953 105.335 67.392C105.753 66.9887 106.263 66.666 106.864 66.424C107.473 66.182 108.169 66.061 108.954 66.061C109.834 66.061 110.633 66.2003 111.352 66.479C112.078 66.7577 112.716 67.161 113.266 67.689L112.749 68.701ZM123.563 75.213C123.563 74.7583 123.497 74.344 123.365 73.97C123.24 73.5887 123.053 73.2623 122.804 72.991C122.562 72.7123 122.265 72.4997 121.913 72.353C121.561 72.199 121.161 72.122 120.714 72.122C119.775 72.122 119.031 72.397 118.481 72.947C117.938 73.4897 117.601 74.245 117.469 75.213H123.563ZM125.147 80.438C124.905 80.7313 124.615 80.988 124.278 81.208C123.94 81.4207 123.577 81.5967 123.189 81.736C122.807 81.8753 122.411 81.978 122.001 82.044C121.59 82.1173 121.183 82.154 120.78 82.154C120.01 82.154 119.298 82.0257 118.646 81.769C118 81.505 117.439 81.1237 116.963 80.625C116.493 80.119 116.127 79.4957 115.863 78.755C115.599 78.0143 115.467 77.1637 115.467 76.203C115.467 75.4257 115.584 74.6997 115.819 74.025C116.061 73.3503 116.405 72.7673 116.853 72.276C117.3 71.7773 117.846 71.3887 118.492 71.11C119.137 70.824 119.863 70.681 120.67 70.681C121.337 70.681 121.953 70.7947 122.518 71.022C123.09 71.242 123.581 71.5647 123.992 71.99C124.41 72.408 124.736 72.9287 124.971 73.552C125.205 74.168 125.323 74.872 125.323 75.664C125.323 75.972 125.29 76.1773 125.224 76.28C125.158 76.3827 125.033 76.434 124.85 76.434H117.403C117.425 77.138 117.52 77.7503 117.689 78.271C117.865 78.7917 118.107 79.228 118.415 79.58C118.723 79.9247 119.089 80.185 119.515 80.361C119.94 80.5297 120.417 80.614 120.945 80.614C121.436 80.614 121.858 80.559 122.21 80.449C122.569 80.3317 122.877 80.207 123.134 80.075C123.39 79.943 123.603 79.822 123.772 79.712C123.948 79.5947 124.098 79.536 124.223 79.536C124.384 79.536 124.509 79.5983 124.597 79.723L125.147 80.438ZM127.728 82V70.857H128.905C129.183 70.857 129.356 70.9927 129.422 71.264L129.565 72.408C129.975 71.902 130.437 71.4877 130.951 71.165C131.464 70.8423 132.058 70.681 132.733 70.681C133.481 70.681 134.086 70.89 134.548 71.308C135.017 71.726 135.354 72.2907 135.56 73.002C135.721 72.5987 135.926 72.2503 136.176 71.957C136.432 71.6637 136.718 71.4217 137.034 71.231C137.349 71.0403 137.683 70.901 138.035 70.813C138.394 70.725 138.757 70.681 139.124 70.681C139.71 70.681 140.231 70.7763 140.686 70.967C141.148 71.1503 141.536 71.4217 141.852 71.781C142.174 72.1403 142.42 72.584 142.589 73.112C142.757 73.6327 142.842 74.2303 142.842 74.905V82H140.873V74.905C140.873 74.0323 140.682 73.3723 140.301 72.925C139.919 72.4703 139.369 72.243 138.651 72.243C138.328 72.243 138.02 72.3017 137.727 72.419C137.441 72.529 137.188 72.694 136.968 72.914C136.748 73.134 136.572 73.4127 136.44 73.75C136.315 74.08 136.253 74.465 136.253 74.905V82H134.284V74.905C134.284 74.0103 134.104 73.343 133.745 72.903C133.385 72.463 132.861 72.243 132.172 72.243C131.688 72.243 131.24 72.375 130.83 72.639C130.419 72.8957 130.041 73.2477 129.697 73.695V82H127.728ZM147.886 70.857V82H145.928V70.857H147.886ZM148.304 67.359C148.304 67.5497 148.263 67.7293 148.183 67.898C148.109 68.0593 148.007 68.206 147.875 68.338C147.75 68.4627 147.6 68.5617 147.424 68.635C147.255 68.7083 147.075 68.745 146.885 68.745C146.694 68.745 146.514 68.7083 146.346 68.635C146.184 68.5617 146.041 68.4627 145.917 68.338C145.792 68.206 145.693 68.0593 145.62 67.898C145.546 67.7293 145.51 67.5497 145.51 67.359C145.51 67.1683 145.546 66.9887 145.62 66.82C145.693 66.644 145.792 66.4937 145.917 66.369C146.041 66.237 146.184 66.1343 146.346 66.061C146.514 65.9877 146.694 65.951 146.885 65.951C147.075 65.951 147.255 65.9877 147.424 66.061C147.6 66.1343 147.75 66.237 147.875 66.369C148.007 66.4937 148.109 66.644 148.183 66.82C148.263 66.9887 148.304 67.1683 148.304 67.359ZM152.951 72.474C153.193 72.2027 153.449 71.957 153.721 71.737C153.992 71.517 154.278 71.33 154.579 71.176C154.887 71.0147 155.209 70.8937 155.547 70.813C155.891 70.725 156.262 70.681 156.658 70.681C157.266 70.681 157.802 70.7837 158.264 70.989C158.733 71.187 159.122 71.473 159.43 71.847C159.745 72.2137 159.983 72.6573 160.145 73.178C160.306 73.6987 160.387 74.2743 160.387 74.905V82H158.418V74.905C158.418 74.0617 158.223 73.409 157.835 72.947C157.453 72.4777 156.87 72.243 156.086 72.243C155.506 72.243 154.964 72.3823 154.458 72.661C153.959 72.9397 153.497 73.3173 153.072 73.794V82H151.103V70.857H152.28C152.558 70.857 152.731 70.9927 152.797 71.264L152.951 72.474ZM169.409 76.984C168.507 77.0133 167.737 77.0867 167.099 77.204C166.469 77.314 165.952 77.4607 165.548 77.644C165.152 77.8273 164.863 78.0437 164.679 78.293C164.503 78.5423 164.415 78.821 164.415 79.129C164.415 79.4223 164.463 79.6753 164.558 79.888C164.654 80.1007 164.782 80.2767 164.943 80.416C165.112 80.548 165.306 80.647 165.526 80.713C165.754 80.7717 165.996 80.801 166.252 80.801C166.597 80.801 166.912 80.768 167.198 80.702C167.484 80.6287 167.752 80.526 168.001 80.394C168.258 80.262 168.5 80.1043 168.727 79.921C168.962 79.7377 169.189 79.5287 169.409 79.294V76.984ZM163.084 72.43C163.7 71.836 164.364 71.3923 165.075 71.099C165.787 70.8057 166.575 70.659 167.44 70.659C168.064 70.659 168.617 70.7617 169.101 70.967C169.585 71.1723 169.992 71.4583 170.322 71.825C170.652 72.1917 170.902 72.6353 171.07 73.156C171.239 73.6767 171.323 74.2487 171.323 74.872V82H170.454C170.264 82 170.117 81.9707 170.014 81.912C169.912 81.846 169.831 81.7213 169.772 81.538L169.552 80.482C169.259 80.7533 168.973 80.9953 168.694 81.208C168.416 81.4133 168.122 81.5893 167.814 81.736C167.506 81.8753 167.176 81.9817 166.824 82.055C166.48 82.1357 166.095 82.176 165.669 82.176C165.237 82.176 164.83 82.1173 164.448 82C164.067 81.8753 163.733 81.692 163.447 81.45C163.169 81.208 162.945 80.9037 162.776 80.537C162.615 80.163 162.534 79.723 162.534 79.217C162.534 78.777 162.655 78.3553 162.897 77.952C163.139 77.5413 163.532 77.1783 164.074 76.863C164.617 76.5477 165.325 76.291 166.197 76.093C167.07 75.8877 168.141 75.7703 169.409 75.741V74.872C169.409 74.0067 169.222 73.354 168.848 72.914C168.474 72.4667 167.928 72.243 167.209 72.243C166.725 72.243 166.318 72.3053 165.988 72.43C165.666 72.5473 165.383 72.683 165.141 72.837C164.907 72.9837 164.701 73.1193 164.525 73.244C164.357 73.3613 164.188 73.42 164.019 73.42C163.887 73.42 163.774 73.387 163.678 73.321C163.583 73.2477 163.502 73.1597 163.436 73.057L163.084 72.43ZM176.165 73.09C176.517 72.3273 176.95 71.7333 177.463 71.308C177.976 70.8753 178.603 70.659 179.344 70.659C179.579 70.659 179.802 70.6847 180.015 70.736C180.235 70.7873 180.429 70.868 180.598 70.978L180.455 72.441C180.411 72.6243 180.301 72.716 180.125 72.716C180.022 72.716 179.872 72.694 179.674 72.65C179.476 72.606 179.252 72.584 179.003 72.584C178.651 72.584 178.336 72.6353 178.057 72.738C177.786 72.8407 177.54 72.9947 177.32 73.2C177.107 73.398 176.913 73.6473 176.737 73.948C176.568 74.2413 176.414 74.5787 176.275 74.96V82H174.306V70.857H175.428C175.641 70.857 175.787 70.8973 175.868 70.978C175.949 71.0587 176.004 71.198 176.033 71.396L176.165 73.09ZM191.626 80.141C191.838 80.141 192.007 80.2033 192.132 80.328C192.256 80.4527 192.319 80.614 192.319 80.812V82H181.803V81.329C181.803 81.1897 181.832 81.0467 181.891 80.9C181.949 80.7533 182.041 80.6177 182.166 80.493L187.215 75.422C187.633 74.9967 188.014 74.5897 188.359 74.201C188.703 73.805 188.997 73.409 189.239 73.013C189.481 72.617 189.668 72.2173 189.8 71.814C189.932 71.4033 189.998 70.967 189.998 70.505C189.998 70.043 189.924 69.6397 189.778 69.295C189.631 68.943 189.429 68.6533 189.173 68.426C188.923 68.1987 188.626 68.03 188.282 67.92C187.937 67.8027 187.567 67.744 187.171 67.744C186.767 67.744 186.397 67.8027 186.06 67.92C185.722 68.0373 185.422 68.2023 185.158 68.415C184.901 68.6203 184.685 68.866 184.509 69.152C184.333 69.438 184.208 69.7533 184.135 70.098C184.047 70.3547 183.926 70.527 183.772 70.615C183.625 70.6957 183.416 70.7177 183.145 70.681L182.122 70.505C182.224 69.7863 182.422 69.152 182.716 68.602C183.016 68.0447 183.39 67.579 183.838 67.205C184.292 66.831 184.809 66.5487 185.389 66.358C185.968 66.16 186.595 66.061 187.27 66.061C187.937 66.061 188.56 66.16 189.14 66.358C189.719 66.556 190.221 66.8457 190.647 67.227C191.072 67.601 191.406 68.0593 191.648 68.602C191.89 69.1447 192.011 69.7607 192.011 70.45C192.011 71.0367 191.923 71.583 191.747 72.089C191.571 72.5877 191.332 73.0643 191.032 73.519C190.731 73.9737 190.383 74.4173 189.987 74.85C189.598 75.2827 189.184 75.719 188.744 76.159L184.586 80.405C184.879 80.3243 185.176 80.262 185.477 80.218C185.777 80.1667 186.067 80.141 186.346 80.141H191.626ZM194.751 80.79C194.751 80.5993 194.784 80.4197 194.85 80.251C194.924 80.0823 195.019 79.9357 195.136 79.811C195.261 79.6863 195.408 79.5873 195.576 79.514C195.745 79.4407 195.925 79.404 196.115 79.404C196.306 79.404 196.486 79.4407 196.654 79.514C196.823 79.5873 196.97 79.6863 197.094 79.811C197.219 79.9357 197.318 80.0823 197.391 80.251C197.465 80.4197 197.501 80.5993 197.501 80.79C197.501 80.988 197.465 81.1713 197.391 81.34C197.318 81.5013 197.219 81.6443 197.094 81.769C196.97 81.8937 196.823 81.989 196.654 82.055C196.486 82.1283 196.306 82.165 196.115 82.165C195.925 82.165 195.745 82.1283 195.576 82.055C195.408 81.989 195.261 81.8937 195.136 81.769C195.019 81.6443 194.924 81.5013 194.85 81.34C194.784 81.1713 194.751 80.988 194.751 80.79ZM209.586 80.141C209.799 80.141 209.968 80.2033 210.092 80.328C210.217 80.4527 210.279 80.614 210.279 80.812V82H199.763V81.329C199.763 81.1897 199.793 81.0467 199.851 80.9C199.91 80.7533 200.002 80.6177 200.126 80.493L205.175 75.422C205.593 74.9967 205.975 74.5897 206.319 74.201C206.664 73.805 206.957 73.409 207.199 73.013C207.441 72.617 207.628 72.2173 207.76 71.814C207.892 71.4033 207.958 70.967 207.958 70.505C207.958 70.043 207.885 69.6397 207.738 69.295C207.592 68.943 207.39 68.6533 207.133 68.426C206.884 68.1987 206.587 68.03 206.242 67.92C205.898 67.8027 205.527 67.744 205.131 67.744C204.728 67.744 204.358 67.8027 204.02 67.92C203.683 68.0373 203.382 68.2023 203.118 68.415C202.862 68.6203 202.645 68.866 202.469 69.152C202.293 69.438 202.169 69.7533 202.095 70.098C202.007 70.3547 201.886 70.527 201.732 70.615C201.586 70.6957 201.377 70.7177 201.105 70.681L200.082 70.505C200.185 69.7863 200.383 69.152 200.676 68.602C200.977 68.0447 201.351 67.579 201.798 67.205C202.253 66.831 202.77 66.5487 203.349 66.358C203.929 66.16 204.556 66.061 205.23 66.061C205.898 66.061 206.521 66.16 207.1 66.358C207.68 66.556 208.182 66.8457 208.607 67.227C209.033 67.601 209.366 68.0593 209.608 68.602C209.85 69.1447 209.971 69.7607 209.971 70.45C209.971 71.0367 209.883 71.583 209.707 72.089C209.531 72.5877 209.293 73.0643 208.992 73.519C208.692 73.9737 208.343 74.4173 207.947 74.85C207.559 75.2827 207.144 75.719 206.704 76.159L202.546 80.405C202.84 80.3243 203.137 80.262 203.437 80.218C203.738 80.1667 204.028 80.141 204.306 80.141H209.586ZM212.866 74.575H218.3V76.236H212.866V74.575ZM220.645 66.138V67.7H227.641V66.138H220.645ZM223.439 66.842V77.754H225.067V66.842H223.439ZM220.271 77.974L220.711 79.668C222.735 78.986 225.419 78.084 227.971 77.182L227.773 75.774C224.957 76.61 222.119 77.468 220.271 77.974ZM228.015 64.51V66.006H240.709V64.51H228.015ZM233.361 65.148C233.097 66.204 232.635 67.7 232.195 68.69L233.691 69.02C234.175 68.096 234.791 66.71 235.297 65.434L233.361 65.148ZM233.251 71V75.642C233.251 77.974 232.657 80.79 226.651 82.418C227.003 82.77 227.509 83.364 227.685 83.716C233.911 81.758 234.901 78.546 234.901 75.664V71H233.251ZM234.791 80.02C236.507 81.12 238.641 82.704 239.697 83.76L240.797 82.572C239.719 81.56 237.519 80.02 235.847 78.986L234.791 80.02ZM228.829 68.294V78.656H230.435V69.79H237.585V78.612H239.257V68.294H228.829ZM246.253 70.098V71.66H258.991V70.098H246.253ZM246.253 75.312V76.874H258.991V75.312H246.253ZM246.253 80.548V82.154H258.991V80.548H246.253ZM245.109 64.884V83.65H246.759V66.512H258.331V83.65H260.047V64.884H245.109ZM264.799 67.326V68.91H284.489V67.326H264.799ZM271.993 72.54V74.124H280.793V72.54H271.993ZM280.199 72.54L280.177 72.826C279.803 78.854 279.363 81.318 278.659 81.956C278.417 82.176 278.109 82.198 277.625 82.198C277.053 82.198 275.491 82.198 273.907 82.044C274.215 82.506 274.457 83.188 274.479 83.672C275.975 83.738 277.427 83.782 278.197 83.738C279.033 83.672 279.583 83.518 280.089 82.99C280.947 82.11 281.387 79.668 281.827 73.332C281.871 73.09 281.893 72.54 281.893 72.54H280.199ZM271.619 68.206C271.377 73.464 271.003 79.602 264.579 82.506C264.997 82.836 265.525 83.43 265.767 83.848C272.477 80.636 273.115 74.036 273.445 68.206H271.619ZM273.709 63.476V68.008H275.403V63.476H273.709ZM287.811 67.326V83.76H289.439V68.954H304.553V67.326H287.811ZM303.937 67.326V81.56C303.937 81.978 303.827 82.088 303.387 82.11C302.925 82.132 301.407 82.132 299.801 82.066C300.065 82.528 300.307 83.298 300.395 83.782C302.397 83.782 303.783 83.738 304.575 83.474C305.345 83.21 305.587 82.66 305.587 81.582V67.326H303.937ZM295.291 63.476C294.917 64.818 294.191 66.732 293.575 67.964L295.159 68.338C295.819 67.172 296.655 65.39 297.337 63.828L295.291 63.476ZM292.343 71.858V80.724H293.861V71.858H292.343ZM293.047 71.858V73.354H299.427V77.666H293.047V79.14H300.967V71.858H293.047ZM311.769 71.858V73.464H324.353V71.858H311.769ZM323.803 71.858V72.166C323.517 78.7 323.187 81.208 322.593 81.802C322.373 82.044 322.109 82.088 321.669 82.088C321.141 82.088 319.777 82.066 318.325 81.934C318.633 82.418 318.853 83.1 318.875 83.606C320.261 83.672 321.647 83.694 322.373 83.628C323.143 83.562 323.627 83.408 324.067 82.858C324.859 82.022 325.167 79.47 325.475 72.65C325.497 72.43 325.519 71.858 325.519 71.858H323.803ZM314.783 63.982C313.397 67.37 310.955 70.406 308.139 72.298C308.557 72.606 309.261 73.244 309.569 73.596C312.341 71.484 314.937 68.206 316.521 64.488L314.783 63.982ZM322.461 63.938L320.877 64.576C322.527 67.854 325.299 71.418 327.741 73.398C328.071 72.936 328.687 72.276 329.127 71.924C326.729 70.23 323.891 66.886 322.461 63.938ZM316.411 72.298C315.971 76.456 315.091 80.526 309.327 82.44C309.701 82.792 310.185 83.452 310.383 83.87C316.521 81.67 317.665 77.116 318.171 72.298H316.411ZM330.843 78.084V79.536H350.489V78.084H330.843ZM339.731 63.52V66.314H341.447V63.52H339.731ZM332.911 74.08V75.422H346.793V74.08H332.911ZM339.753 76.786V82.044C339.753 82.374 339.621 82.462 339.225 82.484C338.851 82.484 337.333 82.506 335.837 82.462C336.057 82.858 336.321 83.408 336.409 83.826C338.389 83.826 339.665 83.826 340.435 83.628C341.205 83.408 341.469 83.012 341.469 82.088V76.786H339.753ZM346.419 74.08V74.41C345.033 75.334 342.349 76.368 340.061 76.94C340.303 77.16 340.699 77.6 340.897 77.886C343.493 77.248 346.353 76.148 348.333 74.916L347.233 74.014L346.859 74.08H346.419ZM335.463 69.526H345.869V71.506H335.463V69.526ZM333.835 68.294V72.738H347.585V68.294H333.835ZM331.041 65.456V66.886H350.203V65.456H331.041ZM154.218 99.64C154.218 103.952 155.956 107.428 158.596 110.112L159.916 109.43C157.364 106.812 155.802 103.578 155.802 99.64C155.802 95.724 157.364 92.49 159.916 89.872L158.596 89.19C155.956 91.874 154.218 95.35 154.218 99.64ZM161.896 98.518V100.322H182.026V98.518H161.896ZM189.616 99.64C189.616 95.35 187.878 91.874 185.238 89.19L183.918 89.872C186.47 92.49 188.032 95.724 188.032 99.64C188.032 103.578 186.47 106.812 183.918 109.43L185.238 110.112C187.878 107.428 189.616 103.952 189.616 99.64ZM214.311 109.815V111.135H205.643V109.815H214.311ZM227.125 100.124C227.125 101.503 226.975 102.698 226.674 103.71C226.381 104.715 225.978 105.547 225.464 106.207C224.951 106.867 224.342 107.358 223.638 107.681C222.942 108.004 222.194 108.165 221.394 108.165C220.588 108.165 219.836 108.004 219.139 107.681C218.45 107.358 217.849 106.867 217.335 106.207C216.822 105.547 216.419 104.715 216.125 103.71C215.832 102.698 215.685 101.503 215.685 100.124C215.685 98.7453 215.832 97.55 216.125 96.538C216.419 95.526 216.822 94.69 217.335 94.03C217.849 93.3627 218.45 92.8677 219.139 92.545C219.836 92.2223 220.588 92.061 221.394 92.061C222.194 92.061 222.942 92.2223 223.638 92.545C224.342 92.8677 224.951 93.3627 225.464 94.03C225.978 94.69 226.381 95.526 226.674 96.538C226.975 97.55 227.125 98.7453 227.125 100.124ZM225.09 100.124C225.09 98.9213 224.988 97.913 224.782 97.099C224.584 96.2777 224.313 95.6177 223.968 95.119C223.631 94.6203 223.239 94.2647 222.791 94.052C222.344 93.832 221.878 93.722 221.394 93.722C220.91 93.722 220.445 93.832 219.997 94.052C219.55 94.2647 219.158 94.6203 218.82 95.119C218.483 95.6177 218.212 96.2777 218.006 97.099C217.808 97.913 217.709 98.9213 217.709 100.124C217.709 101.327 217.808 102.335 218.006 103.149C218.212 103.963 218.483 104.619 218.82 105.118C219.158 105.617 219.55 105.976 219.997 106.196C220.445 106.409 220.91 106.515 221.394 106.515C221.878 106.515 222.344 106.409 222.791 106.196C223.239 105.976 223.631 105.617 223.968 105.118C224.313 104.619 224.584 103.963 224.782 103.149C224.988 102.335 225.09 101.327 225.09 100.124ZM239.678 92.237V93.117C239.678 93.3663 239.649 93.5717 239.59 93.733C239.539 93.8943 239.487 94.03 239.436 94.14L232.902 107.307C232.807 107.498 232.675 107.663 232.506 107.802C232.337 107.934 232.114 108 231.835 108H230.427L237.049 94.998C237.144 94.8147 237.243 94.646 237.346 94.492C237.449 94.338 237.559 94.1913 237.676 94.052H229.448C229.323 94.052 229.213 94.0043 229.118 93.909C229.023 93.8063 228.975 93.6927 228.975 93.568V92.237H239.678ZM251.747 106.504V108H243.299V106.504H246.676V95.757C246.676 95.4343 246.687 95.108 246.709 94.778L243.904 97.187C243.808 97.2677 243.713 97.319 243.618 97.341C243.522 97.3557 243.434 97.3557 243.354 97.341C243.273 97.3263 243.196 97.297 243.123 97.253C243.057 97.209 243.005 97.1613 242.969 97.11L242.353 96.263L247.05 92.204H248.645V106.504H251.747ZM259.691 106.614C260.204 106.614 260.662 106.544 261.066 106.405C261.476 106.258 261.821 106.057 262.1 105.8C262.386 105.536 262.602 105.224 262.749 104.865C262.903 104.498 262.98 104.095 262.98 103.655C262.98 103.112 262.888 102.65 262.705 102.269C262.529 101.88 262.287 101.565 261.979 101.323C261.678 101.081 261.33 100.905 260.934 100.795C260.538 100.678 260.123 100.619 259.691 100.619C259.258 100.619 258.844 100.678 258.448 100.795C258.052 100.905 257.7 101.081 257.392 101.323C257.091 101.565 256.849 101.88 256.666 102.269C256.49 102.65 256.402 103.112 256.402 103.655C256.402 104.095 256.475 104.498 256.622 104.865C256.776 105.224 256.992 105.536 257.271 105.8C257.557 106.057 257.901 106.258 258.305 106.405C258.715 106.544 259.177 106.614 259.691 106.614ZM259.691 93.579C259.221 93.579 258.807 93.6487 258.448 93.788C258.096 93.9273 257.799 94.118 257.557 94.36C257.322 94.602 257.142 94.8843 257.018 95.207C256.9 95.5297 256.842 95.8743 256.842 96.241C256.842 96.6003 256.893 96.9487 256.996 97.286C257.098 97.6233 257.263 97.924 257.491 98.188C257.718 98.4447 258.011 98.6537 258.371 98.815C258.737 98.969 259.177 99.046 259.691 99.046C260.204 99.046 260.64 98.969 261 98.815C261.366 98.6537 261.663 98.4447 261.891 98.188C262.118 97.924 262.283 97.6233 262.386 97.286C262.488 96.9487 262.54 96.6003 262.54 96.241C262.54 95.8743 262.477 95.5297 262.353 95.207C262.235 94.8843 262.056 94.602 261.814 94.36C261.579 94.118 261.282 93.9273 260.923 93.788C260.571 93.6487 260.16 93.579 259.691 93.579ZM261.946 99.783C262.928 100.062 263.684 100.527 264.212 101.18C264.74 101.833 265.004 102.669 265.004 103.688C265.004 104.377 264.872 105.001 264.608 105.558C264.351 106.108 263.988 106.577 263.519 106.966C263.057 107.355 262.499 107.655 261.847 107.868C261.194 108.073 260.475 108.176 259.691 108.176C258.906 108.176 258.187 108.073 257.535 107.868C256.882 107.655 256.321 107.355 255.852 106.966C255.382 106.577 255.019 106.108 254.763 105.558C254.506 105.001 254.378 104.377 254.378 103.688C254.378 102.669 254.642 101.833 255.17 101.18C255.698 100.527 256.453 100.062 257.436 99.783C256.607 99.475 255.98 99.0167 255.555 98.408C255.137 97.792 254.928 97.0587 254.928 96.208C254.928 95.6287 255.041 95.086 255.269 94.58C255.496 94.074 255.819 93.634 256.237 93.26C256.655 92.886 257.153 92.5927 257.733 92.38C258.319 92.1673 258.972 92.061 259.691 92.061C260.402 92.061 261.051 92.1673 261.638 92.38C262.224 92.5927 262.727 92.886 263.145 93.26C263.563 93.634 263.885 94.074 264.113 94.58C264.34 95.086 264.454 95.6287 264.454 96.208C264.454 97.0587 264.241 97.792 263.816 98.408C263.398 99.0167 262.774 99.475 261.946 99.783Z" fill="white"/>
</svg>
