<svg width="406" height="228" viewBox="0 0 406 228" fill="none" xmlns="http://www.w3.org/2000/svg">
<rect width="406" height="228" fill="black"/>
<path d="M84.7652 66.237L79.8482 82H77.9342L73.9412 69.977C73.9045 69.8597 73.8679 69.735 73.8312 69.603C73.8019 69.471 73.7689 69.3317 73.7322 69.185C73.6955 69.3317 73.6589 69.471 73.6222 69.603C73.5855 69.735 73.5489 69.8597 73.5122 69.977L69.4972 82H67.5832L62.6662 66.237H64.4372C64.6279 66.237 64.7855 66.2847 64.9102 66.38C65.0422 66.4753 65.1265 66.5963 65.1632 66.743L68.4192 77.699C68.4705 77.897 68.5182 78.1097 68.5622 78.337C68.6135 78.5643 68.6612 78.8063 68.7052 79.063C68.7565 78.8063 68.8079 78.5643 68.8592 78.337C68.9179 78.1023 68.9802 77.8897 69.0462 77.699L72.7532 66.743C72.7972 66.6183 72.8815 66.5047 73.0062 66.402C73.1382 66.292 73.2959 66.237 73.4792 66.237H74.0952C74.2859 66.237 74.4399 66.2847 74.5572 66.38C74.6745 66.4753 74.7625 66.5963 74.8212 66.743L78.5172 77.699C78.5832 77.8897 78.6419 78.095 78.6932 78.315C78.7519 78.535 78.8069 78.766 78.8582 79.008C78.8949 78.766 78.9352 78.535 78.9792 78.315C79.0232 78.095 79.0709 77.8897 79.1222 77.699L82.3892 66.743C82.4259 66.611 82.5065 66.4937 82.6312 66.391C82.7632 66.2883 82.9209 66.237 83.1042 66.237H84.7652ZM95.9556 80.141C96.1683 80.141 96.337 80.2033 96.4616 80.328C96.5863 80.4527 96.6486 80.614 96.6486 80.812V82H86.1326V81.329C86.1326 81.1897 86.162 81.0467 86.2206 80.9C86.2793 80.7533 86.371 80.6177 86.4956 80.493L91.5446 75.422C91.9626 74.9967 92.344 74.5897 92.6886 74.201C93.0333 73.805 93.3266 73.409 93.5686 73.013C93.8106 72.617 93.9976 72.2173 94.1296 71.814C94.2616 71.4033 94.3276 70.967 94.3276 70.505C94.3276 70.043 94.2543 69.6397 94.1076 69.295C93.961 68.943 93.7593 68.6533 93.5026 68.426C93.2533 68.1987 92.9563 68.03 92.6116 67.92C92.267 67.8027 91.8966 67.744 91.5006 67.744C91.0973 67.744 90.727 67.8027 90.3896 67.92C90.0523 68.0373 89.7516 68.2023 89.4876 68.415C89.231 68.6203 89.0146 68.866 88.8386 69.152C88.6626 69.438 88.538 69.7533 88.4646 70.098C88.3766 70.3547 88.2556 70.527 88.1016 70.615C87.955 70.6957 87.746 70.7177 87.4746 70.681L86.4516 70.505C86.5543 69.7863 86.7523 69.152 87.0456 68.602C87.3463 68.0447 87.7203 67.579 88.1676 67.205C88.6223 66.831 89.1393 66.5487 89.7186 66.358C90.298 66.16 90.925 66.061 91.5996 66.061C92.267 66.061 92.8903 66.16 93.4696 66.358C94.049 66.556 94.5513 66.8457 94.9766 67.227C95.402 67.601 95.7356 68.0593 95.9776 68.602C96.2196 69.1447 96.3406 69.7607 96.3406 70.45C96.3406 71.0367 96.2526 71.583 96.0766 72.089C95.9006 72.5877 95.6623 73.0643 95.3616 73.519C95.061 73.9737 94.7126 74.4173 94.3166 74.85C93.928 75.2827 93.5136 75.719 93.0736 76.159L88.9156 80.405C89.209 80.3243 89.506 80.262 89.8066 80.218C90.1073 80.1667 90.397 80.141 90.6756 80.141H95.9556ZM99.2354 74.575H104.669V76.236H99.2354V74.575ZM121.729 68.701C121.663 68.811 121.59 68.8953 121.509 68.954C121.436 69.0053 121.344 69.031 121.234 69.031C121.11 69.031 120.963 68.9687 120.794 68.844C120.626 68.7193 120.413 68.5837 120.156 68.437C119.907 68.283 119.603 68.1437 119.243 68.019C118.891 67.8943 118.462 67.832 117.956 67.832C117.48 67.832 117.058 67.898 116.691 68.03C116.332 68.1547 116.028 68.327 115.778 68.547C115.536 68.767 115.353 69.0273 115.228 69.328C115.104 69.6213 115.041 69.9403 115.041 70.285C115.041 70.725 115.148 71.0917 115.36 71.385C115.58 71.671 115.866 71.9167 116.218 72.122C116.578 72.3273 116.981 72.507 117.428 72.661C117.883 72.8077 118.345 72.9617 118.814 73.123C119.291 73.2843 119.753 73.4677 120.2 73.673C120.655 73.871 121.058 74.124 121.41 74.432C121.77 74.74 122.056 75.1177 122.268 75.565C122.488 76.0123 122.598 76.5623 122.598 77.215C122.598 77.9043 122.481 78.5533 122.246 79.162C122.012 79.7633 121.667 80.2877 121.212 80.735C120.765 81.1823 120.211 81.5343 119.551 81.791C118.899 82.0477 118.154 82.176 117.318 82.176C116.292 82.176 115.36 81.9927 114.524 81.626C113.688 81.252 112.973 80.7497 112.379 80.119L112.995 79.107C113.054 79.0263 113.124 78.9603 113.204 78.909C113.292 78.8503 113.388 78.821 113.49 78.821C113.586 78.821 113.692 78.8613 113.809 78.942C113.934 79.0153 114.073 79.1107 114.227 79.228C114.381 79.3453 114.557 79.4737 114.755 79.613C114.953 79.7523 115.177 79.8807 115.426 79.998C115.683 80.1153 115.973 80.2143 116.295 80.295C116.618 80.3683 116.981 80.405 117.384 80.405C117.89 80.405 118.341 80.3353 118.737 80.196C119.133 80.0567 119.467 79.8623 119.738 79.613C120.017 79.3563 120.23 79.052 120.376 78.7C120.523 78.348 120.596 77.9557 120.596 77.523C120.596 77.0463 120.486 76.6577 120.266 76.357C120.054 76.049 119.771 75.7923 119.419 75.587C119.067 75.3817 118.664 75.2093 118.209 75.07C117.755 74.9233 117.293 74.7767 116.823 74.63C116.354 74.476 115.892 74.3 115.437 74.102C114.983 73.904 114.579 73.6473 114.227 73.332C113.875 73.0167 113.589 72.6243 113.369 72.155C113.157 71.6783 113.05 71.0917 113.05 70.395C113.05 69.8377 113.157 69.2987 113.369 68.778C113.589 68.2573 113.905 67.7953 114.315 67.392C114.733 66.9887 115.243 66.666 115.844 66.424C116.453 66.182 117.15 66.061 117.934 66.061C118.814 66.061 119.614 66.2003 120.332 66.479C121.058 66.7577 121.696 67.161 122.246 67.689L121.729 68.701ZM132.543 75.213C132.543 74.7583 132.477 74.344 132.345 73.97C132.221 73.5887 132.034 73.2623 131.784 72.991C131.542 72.7123 131.245 72.4997 130.893 72.353C130.541 72.199 130.142 72.122 129.694 72.122C128.756 72.122 128.011 72.397 127.461 72.947C126.919 73.4897 126.581 74.245 126.449 75.213H132.543ZM134.127 80.438C133.885 80.7313 133.596 80.988 133.258 81.208C132.921 81.4207 132.558 81.5967 132.169 81.736C131.788 81.8753 131.392 81.978 130.981 82.044C130.571 82.1173 130.164 82.154 129.76 82.154C128.99 82.154 128.279 82.0257 127.626 81.769C126.981 81.505 126.42 81.1237 125.943 80.625C125.474 80.119 125.107 79.4957 124.843 78.755C124.579 78.0143 124.447 77.1637 124.447 76.203C124.447 75.4257 124.565 74.6997 124.799 74.025C125.041 73.3503 125.386 72.7673 125.833 72.276C126.281 71.7773 126.827 71.3887 127.472 71.11C128.118 70.824 128.844 70.681 129.65 70.681C130.318 70.681 130.934 70.7947 131.498 71.022C132.07 71.242 132.562 71.5647 132.972 71.99C133.39 72.408 133.717 72.9287 133.951 73.552C134.186 74.168 134.303 74.872 134.303 75.664C134.303 75.972 134.27 76.1773 134.204 76.28C134.138 76.3827 134.014 76.434 133.83 76.434H126.383C126.405 77.138 126.501 77.7503 126.669 78.271C126.845 78.7917 127.087 79.228 127.395 79.58C127.703 79.9247 128.07 80.185 128.495 80.361C128.921 80.5297 129.397 80.614 129.925 80.614C130.417 80.614 130.838 80.559 131.19 80.449C131.55 80.3317 131.858 80.207 132.114 80.075C132.371 79.943 132.584 79.822 132.752 79.712C132.928 79.5947 133.079 79.536 133.203 79.536C133.365 79.536 133.489 79.5983 133.577 79.723L134.127 80.438ZM136.708 82V70.857H137.885C138.164 70.857 138.336 70.9927 138.402 71.264L138.545 72.408C138.956 71.902 139.418 71.4877 139.931 71.165C140.445 70.8423 141.039 70.681 141.713 70.681C142.461 70.681 143.066 70.89 143.528 71.308C143.998 71.726 144.335 72.2907 144.54 73.002C144.702 72.5987 144.907 72.2503 145.156 71.957C145.413 71.6637 145.699 71.4217 146.014 71.231C146.33 71.0403 146.663 70.901 147.015 70.813C147.375 70.725 147.738 70.681 148.104 70.681C148.691 70.681 149.212 70.7763 149.666 70.967C150.128 71.1503 150.517 71.4217 150.832 71.781C151.155 72.1403 151.401 72.584 151.569 73.112C151.738 73.6327 151.822 74.2303 151.822 74.905V82H149.853V74.905C149.853 74.0323 149.663 73.3723 149.281 72.925C148.9 72.4703 148.35 72.243 147.631 72.243C147.309 72.243 147.001 72.3017 146.707 72.419C146.421 72.529 146.168 72.694 145.948 72.914C145.728 73.134 145.552 73.4127 145.42 73.75C145.296 74.08 145.233 74.465 145.233 74.905V82H143.264V74.905C143.264 74.0103 143.085 73.343 142.725 72.903C142.366 72.463 141.842 72.243 141.152 72.243C140.668 72.243 140.221 72.375 139.81 72.639C139.4 72.8957 139.022 73.2477 138.677 73.695V82H136.708ZM156.866 70.857V82H154.908V70.857H156.866ZM157.284 67.359C157.284 67.5497 157.244 67.7293 157.163 67.898C157.09 68.0593 156.987 68.206 156.855 68.338C156.73 68.4627 156.58 68.5617 156.404 68.635C156.235 68.7083 156.056 68.745 155.865 68.745C155.674 68.745 155.495 68.7083 155.326 68.635C155.165 68.5617 155.022 68.4627 154.897 68.338C154.772 68.206 154.673 68.0593 154.6 67.898C154.527 67.7293 154.49 67.5497 154.49 67.359C154.49 67.1683 154.527 66.9887 154.6 66.82C154.673 66.644 154.772 66.4937 154.897 66.369C155.022 66.237 155.165 66.1343 155.326 66.061C155.495 65.9877 155.674 65.951 155.865 65.951C156.056 65.951 156.235 65.9877 156.404 66.061C156.58 66.1343 156.73 66.237 156.855 66.369C156.987 66.4937 157.09 66.644 157.163 66.82C157.244 66.9887 157.284 67.1683 157.284 67.359ZM161.931 72.474C162.173 72.2027 162.43 71.957 162.701 71.737C162.973 71.517 163.259 71.33 163.559 71.176C163.867 71.0147 164.19 70.8937 164.527 70.813C164.872 70.725 165.242 70.681 165.638 70.681C166.247 70.681 166.782 70.7837 167.244 70.989C167.714 71.187 168.102 71.473 168.41 71.847C168.726 72.2137 168.964 72.6573 169.125 73.178C169.287 73.6987 169.367 74.2743 169.367 74.905V82H167.398V74.905C167.398 74.0617 167.204 73.409 166.815 72.947C166.434 72.4777 165.851 72.243 165.066 72.243C164.487 72.243 163.944 72.3823 163.438 72.661C162.94 72.9397 162.478 73.3173 162.052 73.794V82H160.083V70.857H161.26C161.539 70.857 161.711 70.9927 161.777 71.264L161.931 72.474ZM178.39 76.984C177.488 77.0133 176.718 77.0867 176.08 77.204C175.449 77.314 174.932 77.4607 174.529 77.644C174.133 77.8273 173.843 78.0437 173.66 78.293C173.484 78.5423 173.396 78.821 173.396 79.129C173.396 79.4223 173.443 79.6753 173.539 79.888C173.634 80.1007 173.762 80.2767 173.924 80.416C174.092 80.548 174.287 80.647 174.507 80.713C174.734 80.7717 174.976 80.801 175.233 80.801C175.577 80.801 175.893 80.768 176.179 80.702C176.465 80.6287 176.732 80.526 176.982 80.394C177.238 80.262 177.48 80.1043 177.708 79.921C177.942 79.7377 178.17 79.5287 178.39 79.294V76.984ZM172.065 72.43C172.681 71.836 173.344 71.3923 174.056 71.099C174.767 70.8057 175.555 70.659 176.421 70.659C177.044 70.659 177.598 70.7617 178.082 70.967C178.566 71.1723 178.973 71.4583 179.303 71.825C179.633 72.1917 179.882 72.6353 180.051 73.156C180.219 73.6767 180.304 74.2487 180.304 74.872V82H179.435C179.244 82 179.097 81.9707 178.995 81.912C178.892 81.846 178.811 81.7213 178.753 81.538L178.533 80.482C178.239 80.7533 177.953 80.9953 177.675 81.208C177.396 81.4133 177.103 81.5893 176.795 81.736C176.487 81.8753 176.157 81.9817 175.805 82.055C175.46 82.1357 175.075 82.176 174.65 82.176C174.217 82.176 173.81 82.1173 173.429 82C173.047 81.8753 172.714 81.692 172.428 81.45C172.149 81.208 171.925 80.9037 171.757 80.537C171.595 80.163 171.515 79.723 171.515 79.217C171.515 78.777 171.636 78.3553 171.878 77.952C172.12 77.5413 172.512 77.1783 173.055 76.863C173.597 76.5477 174.305 76.291 175.178 76.093C176.05 75.8877 177.121 75.7703 178.39 75.741V74.872C178.39 74.0067 178.203 73.354 177.829 72.914C177.455 72.4667 176.908 72.243 176.19 72.243C175.706 72.243 175.299 72.3053 174.969 72.43C174.646 72.5473 174.364 72.683 174.122 72.837C173.887 72.9837 173.682 73.1193 173.506 73.244C173.337 73.3613 173.168 73.42 173 73.42C172.868 73.42 172.754 73.387 172.659 73.321C172.563 73.2477 172.483 73.1597 172.417 73.057L172.065 72.43ZM185.145 73.09C185.497 72.3273 185.93 71.7333 186.443 71.308C186.957 70.8753 187.584 70.659 188.324 70.659C188.559 70.659 188.783 70.6847 188.995 70.736C189.215 70.7873 189.41 70.868 189.578 70.978L189.435 72.441C189.391 72.6243 189.281 72.716 189.105 72.716C189.003 72.716 188.852 72.694 188.654 72.65C188.456 72.606 188.233 72.584 187.983 72.584C187.631 72.584 187.316 72.6353 187.037 72.738C186.766 72.8407 186.52 72.9947 186.3 73.2C186.088 73.398 185.893 73.6473 185.717 73.948C185.549 74.2413 185.395 74.5787 185.255 74.96V82H183.286V70.857H184.408C184.621 70.857 184.768 70.8973 184.848 70.978C184.929 71.0587 184.984 71.198 185.013 71.396L185.145 73.09ZM191.179 70.505C191.282 69.7863 191.48 69.152 191.773 68.602C192.066 68.0447 192.437 67.579 192.884 67.205C193.339 66.831 193.856 66.5487 194.435 66.358C195.022 66.16 195.652 66.061 196.327 66.061C196.994 66.061 197.61 66.1563 198.175 66.347C198.74 66.5377 199.224 66.809 199.627 67.161C200.038 67.513 200.357 67.9383 200.584 68.437C200.811 68.9357 200.925 69.4893 200.925 70.098C200.925 70.5967 200.859 71.044 200.727 71.44C200.602 71.8287 200.419 72.1697 200.177 72.463C199.942 72.7563 199.656 73.0057 199.319 73.211C198.982 73.4163 198.604 73.585 198.186 73.717C199.213 73.981 199.983 74.4357 200.496 75.081C201.017 75.719 201.277 76.5183 201.277 77.479C201.277 78.205 201.138 78.8577 200.859 79.437C200.588 80.0163 200.214 80.5113 199.737 80.922C199.26 81.3253 198.703 81.637 198.065 81.857C197.434 82.0697 196.756 82.176 196.03 82.176C195.194 82.176 194.479 82.0733 193.885 81.868C193.291 81.6553 192.789 81.3657 192.378 80.999C191.967 80.6323 191.63 80.1997 191.366 79.701C191.102 79.195 190.878 78.6487 190.695 78.062L191.542 77.71C191.762 77.6147 191.975 77.589 192.18 77.633C192.393 77.677 192.547 77.798 192.642 77.996C192.737 78.2013 192.855 78.447 192.994 78.733C193.141 79.019 193.339 79.294 193.588 79.558C193.837 79.822 194.153 80.0457 194.534 80.229C194.923 80.4123 195.414 80.504 196.008 80.504C196.558 80.504 197.038 80.416 197.449 80.24C197.867 80.0567 198.212 79.822 198.483 79.536C198.762 79.25 198.971 78.931 199.11 78.579C199.249 78.227 199.319 77.8787 199.319 77.534C199.319 77.1087 199.264 76.72 199.154 76.368C199.044 76.016 198.839 75.7117 198.538 75.455C198.237 75.1983 197.823 74.9967 197.295 74.85C196.774 74.7033 196.103 74.63 195.282 74.63V73.211C195.957 73.2037 196.529 73.1303 196.998 72.991C197.475 72.8517 197.86 72.661 198.153 72.419C198.454 72.177 198.67 71.8873 198.802 71.55C198.941 71.2127 199.011 70.8387 199.011 70.428C199.011 69.9733 198.938 69.5773 198.791 69.24C198.652 68.9027 198.457 68.624 198.208 68.404C197.959 68.184 197.662 68.019 197.317 67.909C196.98 67.799 196.613 67.744 196.217 67.744C195.821 67.744 195.451 67.8027 195.106 67.92C194.769 68.0373 194.468 68.2023 194.204 68.415C193.947 68.6203 193.731 68.866 193.555 69.152C193.379 69.438 193.254 69.7533 193.181 70.098C193.086 70.3547 192.965 70.527 192.818 70.615C192.679 70.6957 192.473 70.7177 192.202 70.681L191.179 70.505ZM203.886 74.575H209.32V76.236H203.886V74.575ZM211.665 66.138V67.7H218.661V66.138H211.665ZM214.459 66.842V77.754H216.087V66.842H214.459ZM211.291 77.974L211.731 79.668C213.755 78.986 216.439 78.084 218.991 77.182L218.793 75.774C215.977 76.61 213.139 77.468 211.291 77.974ZM219.035 64.51V66.006H231.729V64.51H219.035ZM224.381 65.148C224.117 66.204 223.655 67.7 223.215 68.69L224.711 69.02C225.195 68.096 225.811 66.71 226.317 65.434L224.381 65.148ZM224.271 71V75.642C224.271 77.974 223.677 80.79 217.671 82.418C218.023 82.77 218.529 83.364 218.705 83.716C224.931 81.758 225.921 78.546 225.921 75.664V71H224.271ZM225.811 80.02C227.527 81.12 229.661 82.704 230.717 83.76L231.817 82.572C230.739 81.56 228.539 80.02 226.867 78.986L225.811 80.02ZM219.849 68.294V78.656H221.455V69.79H228.605V78.612H230.277V68.294H219.849ZM237.273 70.098V71.66H250.011V70.098H237.273ZM237.273 75.312V76.874H250.011V75.312H237.273ZM237.273 80.548V82.154H250.011V80.548H237.273ZM236.129 64.884V83.65H237.779V66.512H249.351V83.65H251.067V64.884H236.129ZM255.819 67.326V68.91H275.509V67.326H255.819ZM263.013 72.54V74.124H271.813V72.54H263.013ZM271.219 72.54L271.197 72.826C270.823 78.854 270.383 81.318 269.679 81.956C269.437 82.176 269.129 82.198 268.645 82.198C268.073 82.198 266.511 82.198 264.927 82.044C265.235 82.506 265.477 83.188 265.499 83.672C266.995 83.738 268.447 83.782 269.217 83.738C270.053 83.672 270.603 83.518 271.109 82.99C271.967 82.11 272.407 79.668 272.847 73.332C272.891 73.09 272.913 72.54 272.913 72.54H271.219ZM262.639 68.206C262.397 73.464 262.023 79.602 255.599 82.506C256.017 82.836 256.545 83.43 256.787 83.848C263.497 80.636 264.135 74.036 264.465 68.206H262.639ZM264.729 63.476V68.008H266.423V63.476H264.729ZM278.831 67.326V83.76H280.459V68.954H295.573V67.326H278.831ZM294.957 67.326V81.56C294.957 81.978 294.847 82.088 294.407 82.11C293.945 82.132 292.427 82.132 290.821 82.066C291.085 82.528 291.327 83.298 291.415 83.782C293.417 83.782 294.803 83.738 295.595 83.474C296.365 83.21 296.607 82.66 296.607 81.582V67.326H294.957ZM286.311 63.476C285.937 64.818 285.211 66.732 284.595 67.964L286.179 68.338C286.839 67.172 287.675 65.39 288.357 63.828L286.311 63.476ZM283.363 71.858V80.724H284.881V71.858H283.363ZM284.067 71.858V73.354H290.447V77.666H284.067V79.14H291.987V71.858H284.067ZM302.789 71.858V73.464H315.373V71.858H302.789ZM314.823 71.858V72.166C314.537 78.7 314.207 81.208 313.613 81.802C313.393 82.044 313.129 82.088 312.689 82.088C312.161 82.088 310.797 82.066 309.345 81.934C309.653 82.418 309.873 83.1 309.895 83.606C311.281 83.672 312.667 83.694 313.393 83.628C314.163 83.562 314.647 83.408 315.087 82.858C315.879 82.022 316.187 79.47 316.495 72.65C316.517 72.43 316.539 71.858 316.539 71.858H314.823ZM305.803 63.982C304.417 67.37 301.975 70.406 299.159 72.298C299.577 72.606 300.281 73.244 300.589 73.596C303.361 71.484 305.957 68.206 307.541 64.488L305.803 63.982ZM313.481 63.938L311.897 64.576C313.547 67.854 316.319 71.418 318.761 73.398C319.091 72.936 319.707 72.276 320.147 71.924C317.749 70.23 314.911 66.886 313.481 63.938ZM307.431 72.298C306.991 76.456 306.111 80.526 300.347 82.44C300.721 82.792 301.205 83.452 301.403 83.87C307.541 81.67 308.685 77.116 309.191 72.298H307.431ZM321.863 78.084V79.536H341.509V78.084H321.863ZM330.751 63.52V66.314H332.467V63.52H330.751ZM323.931 74.08V75.422H337.813V74.08H323.931ZM330.773 76.786V82.044C330.773 82.374 330.641 82.462 330.245 82.484C329.871 82.484 328.353 82.506 326.857 82.462C327.077 82.858 327.341 83.408 327.429 83.826C329.409 83.826 330.685 83.826 331.455 83.628C332.225 83.408 332.489 83.012 332.489 82.088V76.786H330.773ZM337.439 74.08V74.41C336.053 75.334 333.369 76.368 331.081 76.94C331.323 77.16 331.719 77.6 331.917 77.886C334.513 77.248 337.373 76.148 339.353 74.916L338.253 74.014L337.879 74.08H337.439ZM326.483 69.526H336.889V71.506H326.483V69.526ZM324.855 68.294V72.738H338.605V68.294H324.855ZM322.061 65.456V66.886H341.223V65.456H322.061ZM154.218 99.64C154.218 103.952 155.956 107.428 158.596 110.112L159.916 109.43C157.364 106.812 155.802 103.578 155.802 99.64C155.802 95.724 157.364 92.49 159.916 89.872L158.596 89.19C155.956 91.874 154.218 95.35 154.218 99.64ZM164.03 92.688V94.448H179.826V92.688H164.03ZM162.16 105.734V107.582H181.696V105.734H162.16ZM189.616 99.64C189.616 95.35 187.878 91.874 185.238 89.19L183.918 89.872C186.47 92.49 188.032 95.724 188.032 99.64C188.032 103.578 186.47 106.812 183.918 109.43L185.238 110.112C187.878 107.428 189.616 103.952 189.616 99.64ZM214.311 109.815V111.135H205.643V109.815H214.311ZM227.125 100.124C227.125 101.503 226.975 102.698 226.674 103.71C226.381 104.715 225.978 105.547 225.464 106.207C224.951 106.867 224.342 107.358 223.638 107.681C222.942 108.004 222.194 108.165 221.394 108.165C220.588 108.165 219.836 108.004 219.139 107.681C218.45 107.358 217.849 106.867 217.335 106.207C216.822 105.547 216.419 104.715 216.125 103.71C215.832 102.698 215.685 101.503 215.685 100.124C215.685 98.7453 215.832 97.55 216.125 96.538C216.419 95.526 216.822 94.69 217.335 94.03C217.849 93.3627 218.45 92.8677 219.139 92.545C219.836 92.2223 220.588 92.061 221.394 92.061C222.194 92.061 222.942 92.2223 223.638 92.545C224.342 92.8677 224.951 93.3627 225.464 94.03C225.978 94.69 226.381 95.526 226.674 96.538C226.975 97.55 227.125 98.7453 227.125 100.124ZM225.09 100.124C225.09 98.9213 224.988 97.913 224.782 97.099C224.584 96.2777 224.313 95.6177 223.968 95.119C223.631 94.6203 223.239 94.2647 222.791 94.052C222.344 93.832 221.878 93.722 221.394 93.722C220.91 93.722 220.445 93.832 219.997 94.052C219.55 94.2647 219.158 94.6203 218.82 95.119C218.483 95.6177 218.212 96.2777 218.006 97.099C217.808 97.913 217.709 98.9213 217.709 100.124C217.709 101.327 217.808 102.335 218.006 103.149C218.212 103.963 218.483 104.619 218.82 105.118C219.158 105.617 219.55 105.976 219.997 106.196C220.445 106.409 220.91 106.515 221.394 106.515C221.878 106.515 222.344 106.409 222.791 106.196C223.239 105.976 223.631 105.617 223.968 105.118C224.313 104.619 224.584 103.963 224.782 103.149C224.988 102.335 225.09 101.327 225.09 100.124ZM239.678 92.237V93.117C239.678 93.3663 239.649 93.5717 239.59 93.733C239.539 93.8943 239.487 94.03 239.436 94.14L232.902 107.307C232.807 107.498 232.675 107.663 232.506 107.802C232.337 107.934 232.114 108 231.835 108H230.427L237.049 94.998C237.144 94.8147 237.243 94.646 237.346 94.492C237.449 94.338 237.559 94.1913 237.676 94.052H229.448C229.323 94.052 229.213 94.0043 229.118 93.909C229.023 93.8063 228.975 93.6927 228.975 93.568V92.237H239.678ZM251.406 106.141C251.618 106.141 251.787 106.203 251.912 106.328C252.036 106.453 252.099 106.614 252.099 106.812V108H241.583V107.329C241.583 107.19 241.612 107.047 241.671 106.9C241.729 106.753 241.821 106.618 241.946 106.493L246.995 101.422C247.413 100.997 247.794 100.59 248.139 100.201C248.483 99.805 248.777 99.409 249.019 99.013C249.261 98.617 249.448 98.2173 249.58 97.814C249.712 97.4033 249.778 96.967 249.778 96.505C249.778 96.043 249.704 95.6397 249.558 95.295C249.411 94.943 249.209 94.6533 248.953 94.426C248.703 94.1987 248.406 94.03 248.062 93.92C247.717 93.8027 247.347 93.744 246.951 93.744C246.547 93.744 246.177 93.8027 245.84 93.92C245.502 94.0373 245.202 94.2023 244.938 94.415C244.681 94.6203 244.465 94.866 244.289 95.152C244.113 95.438 243.988 95.7533 243.915 96.098C243.827 96.3547 243.706 96.527 243.552 96.615C243.405 96.6957 243.196 96.7177 242.925 96.681L241.902 96.505C242.004 95.7863 242.202 95.152 242.496 94.602C242.796 94.0447 243.17 93.579 243.618 93.205C244.072 92.831 244.589 92.5487 245.169 92.358C245.748 92.16 246.375 92.061 247.05 92.061C247.717 92.061 248.34 92.16 248.92 92.358C249.499 92.556 250.001 92.8457 250.427 93.227C250.852 93.601 251.186 94.0593 251.428 94.602C251.67 95.1447 251.791 95.7607 251.791 96.45C251.791 97.0367 251.703 97.583 251.527 98.089C251.351 98.5877 251.112 99.0643 250.812 99.519C250.511 99.9737 250.163 100.417 249.767 100.85C249.378 101.283 248.964 101.719 248.524 102.159L244.366 106.405C244.659 106.324 244.956 106.262 245.257 106.218C245.557 106.167 245.847 106.141 246.126 106.141H251.406ZM261.341 102.313V95.812C261.341 95.6213 261.348 95.4123 261.363 95.185C261.377 94.9577 261.399 94.7267 261.429 94.492L255.687 102.313H261.341ZM265.444 102.313V103.435C265.444 103.552 265.407 103.651 265.334 103.732C265.268 103.813 265.161 103.853 265.015 103.853H263.057V108H261.341V103.853H254.345C254.198 103.853 254.07 103.813 253.96 103.732C253.857 103.644 253.791 103.538 253.762 103.413L253.564 102.412L261.231 92.237H263.057V102.313H265.444Z" fill="white"/>
</svg>
