<svg width="406" height="228" viewBox="0 0 406 228" fill="none" xmlns="http://www.w3.org/2000/svg">
<rect width="406" height="228" fill="black"/>
<path d="M84.7652 66.237L79.8482 82H77.9342L73.9412 69.977C73.9045 69.8597 73.8679 69.735 73.8312 69.603C73.8019 69.471 73.7689 69.3317 73.7322 69.185C73.6955 69.3317 73.6589 69.471 73.6222 69.603C73.5855 69.735 73.5489 69.8597 73.5122 69.977L69.4972 82H67.5832L62.6662 66.237H64.4372C64.6279 66.237 64.7855 66.2847 64.9102 66.38C65.0422 66.4753 65.1265 66.5963 65.1632 66.743L68.4192 77.699C68.4705 77.897 68.5182 78.1097 68.5622 78.337C68.6135 78.5643 68.6612 78.8063 68.7052 79.063C68.7565 78.8063 68.8079 78.5643 68.8592 78.337C68.9179 78.1023 68.9802 77.8897 69.0462 77.699L72.7532 66.743C72.7972 66.6183 72.8815 66.5047 73.0062 66.402C73.1382 66.292 73.2959 66.237 73.4792 66.237H74.0952C74.2859 66.237 74.4399 66.2847 74.5572 66.38C74.6745 66.4753 74.7625 66.5963 74.8212 66.743L78.5172 77.699C78.5832 77.8897 78.6419 78.095 78.6932 78.315C78.7519 78.535 78.8069 78.766 78.8582 79.008C78.8949 78.766 78.9352 78.535 78.9792 78.315C79.0232 78.095 79.0709 77.8897 79.1222 77.699L82.3892 66.743C82.4259 66.611 82.5065 66.4937 82.6312 66.391C82.7632 66.2883 82.9209 66.237 83.1042 66.237H84.7652ZM86.5286 70.505C86.6313 69.7863 86.8293 69.152 87.1226 68.602C87.416 68.0447 87.7863 67.579 88.2336 67.205C88.6883 66.831 89.2053 66.5487 89.7846 66.358C90.3713 66.16 91.002 66.061 91.6766 66.061C92.344 66.061 92.96 66.1563 93.5246 66.347C94.0893 66.5377 94.5733 66.809 94.9766 67.161C95.3873 67.513 95.7063 67.9383 95.9336 68.437C96.161 68.9357 96.2746 69.4893 96.2746 70.098C96.2746 70.5967 96.2086 71.044 96.0766 71.44C95.952 71.8287 95.7686 72.1697 95.5266 72.463C95.292 72.7563 95.006 73.0057 94.6686 73.211C94.3313 73.4163 93.9536 73.585 93.5356 73.717C94.5623 73.981 95.3323 74.4357 95.8456 75.081C96.3663 75.719 96.6266 76.5183 96.6266 77.479C96.6266 78.205 96.4873 78.8577 96.2086 79.437C95.9373 80.0163 95.5633 80.5113 95.0866 80.922C94.61 81.3253 94.0526 81.637 93.4146 81.857C92.784 82.0697 92.1056 82.176 91.3796 82.176C90.5436 82.176 89.8286 82.0733 89.2346 81.868C88.6406 81.6553 88.1383 81.3657 87.7276 80.999C87.317 80.6323 86.9796 80.1997 86.7156 79.701C86.4516 79.195 86.228 78.6487 86.0446 78.062L86.8916 77.71C87.1116 77.6147 87.3243 77.589 87.5296 77.633C87.7423 77.677 87.8963 77.798 87.9916 77.996C88.087 78.2013 88.2043 78.447 88.3436 78.733C88.4903 79.019 88.6883 79.294 88.9376 79.558C89.187 79.822 89.5023 80.0457 89.8836 80.229C90.2723 80.4123 90.7636 80.504 91.3576 80.504C91.9076 80.504 92.388 80.416 92.7986 80.24C93.2166 80.0567 93.5613 79.822 93.8326 79.536C94.1113 79.25 94.3203 78.931 94.4596 78.579C94.599 78.227 94.6686 77.8787 94.6686 77.534C94.6686 77.1087 94.6136 76.72 94.5036 76.368C94.3936 76.016 94.1883 75.7117 93.8876 75.455C93.587 75.1983 93.1726 74.9967 92.6446 74.85C92.124 74.7033 91.453 74.63 90.6316 74.63V73.211C91.3063 73.2037 91.8783 73.1303 92.3476 72.991C92.8243 72.8517 93.2093 72.661 93.5026 72.419C93.8033 72.177 94.0196 71.8873 94.1516 71.55C94.291 71.2127 94.3606 70.8387 94.3606 70.428C94.3606 69.9733 94.2873 69.5773 94.1406 69.24C94.0013 68.9027 93.807 68.624 93.5576 68.404C93.3083 68.184 93.0113 68.019 92.6666 67.909C92.3293 67.799 91.9626 67.744 91.5666 67.744C91.1706 67.744 90.8003 67.8027 90.4556 67.92C90.1183 68.0373 89.8176 68.2023 89.5536 68.415C89.297 68.6203 89.0806 68.866 88.9046 69.152C88.7286 69.438 88.604 69.7533 88.5306 70.098C88.4353 70.3547 88.3143 70.527 88.1676 70.615C88.0283 70.6957 87.823 70.7177 87.5516 70.681L86.5286 70.505ZM99.2354 74.575H104.669V76.236H99.2354V74.575ZM121.729 68.701C121.663 68.811 121.59 68.8953 121.509 68.954C121.436 69.0053 121.344 69.031 121.234 69.031C121.11 69.031 120.963 68.9687 120.794 68.844C120.626 68.7193 120.413 68.5837 120.156 68.437C119.907 68.283 119.603 68.1437 119.243 68.019C118.891 67.8943 118.462 67.832 117.956 67.832C117.48 67.832 117.058 67.898 116.691 68.03C116.332 68.1547 116.028 68.327 115.778 68.547C115.536 68.767 115.353 69.0273 115.228 69.328C115.104 69.6213 115.041 69.9403 115.041 70.285C115.041 70.725 115.148 71.0917 115.36 71.385C115.58 71.671 115.866 71.9167 116.218 72.122C116.578 72.3273 116.981 72.507 117.428 72.661C117.883 72.8077 118.345 72.9617 118.814 73.123C119.291 73.2843 119.753 73.4677 120.2 73.673C120.655 73.871 121.058 74.124 121.41 74.432C121.77 74.74 122.056 75.1177 122.268 75.565C122.488 76.0123 122.598 76.5623 122.598 77.215C122.598 77.9043 122.481 78.5533 122.246 79.162C122.012 79.7633 121.667 80.2877 121.212 80.735C120.765 81.1823 120.211 81.5343 119.551 81.791C118.899 82.0477 118.154 82.176 117.318 82.176C116.292 82.176 115.36 81.9927 114.524 81.626C113.688 81.252 112.973 80.7497 112.379 80.119L112.995 79.107C113.054 79.0263 113.124 78.9603 113.204 78.909C113.292 78.8503 113.388 78.821 113.49 78.821C113.586 78.821 113.692 78.8613 113.809 78.942C113.934 79.0153 114.073 79.1107 114.227 79.228C114.381 79.3453 114.557 79.4737 114.755 79.613C114.953 79.7523 115.177 79.8807 115.426 79.998C115.683 80.1153 115.973 80.2143 116.295 80.295C116.618 80.3683 116.981 80.405 117.384 80.405C117.89 80.405 118.341 80.3353 118.737 80.196C119.133 80.0567 119.467 79.8623 119.738 79.613C120.017 79.3563 120.23 79.052 120.376 78.7C120.523 78.348 120.596 77.9557 120.596 77.523C120.596 77.0463 120.486 76.6577 120.266 76.357C120.054 76.049 119.771 75.7923 119.419 75.587C119.067 75.3817 118.664 75.2093 118.209 75.07C117.755 74.9233 117.293 74.7767 116.823 74.63C116.354 74.476 115.892 74.3 115.437 74.102C114.983 73.904 114.579 73.6473 114.227 73.332C113.875 73.0167 113.589 72.6243 113.369 72.155C113.157 71.6783 113.05 71.0917 113.05 70.395C113.05 69.8377 113.157 69.2987 113.369 68.778C113.589 68.2573 113.905 67.7953 114.315 67.392C114.733 66.9887 115.243 66.666 115.844 66.424C116.453 66.182 117.15 66.061 117.934 66.061C118.814 66.061 119.614 66.2003 120.332 66.479C121.058 66.7577 121.696 67.161 122.246 67.689L121.729 68.701ZM132.543 75.213C132.543 74.7583 132.477 74.344 132.345 73.97C132.221 73.5887 132.034 73.2623 131.784 72.991C131.542 72.7123 131.245 72.4997 130.893 72.353C130.541 72.199 130.142 72.122 129.694 72.122C128.756 72.122 128.011 72.397 127.461 72.947C126.919 73.4897 126.581 74.245 126.449 75.213H132.543ZM134.127 80.438C133.885 80.7313 133.596 80.988 133.258 81.208C132.921 81.4207 132.558 81.5967 132.169 81.736C131.788 81.8753 131.392 81.978 130.981 82.044C130.571 82.1173 130.164 82.154 129.76 82.154C128.99 82.154 128.279 82.0257 127.626 81.769C126.981 81.505 126.42 81.1237 125.943 80.625C125.474 80.119 125.107 79.4957 124.843 78.755C124.579 78.0143 124.447 77.1637 124.447 76.203C124.447 75.4257 124.565 74.6997 124.799 74.025C125.041 73.3503 125.386 72.7673 125.833 72.276C126.281 71.7773 126.827 71.3887 127.472 71.11C128.118 70.824 128.844 70.681 129.65 70.681C130.318 70.681 130.934 70.7947 131.498 71.022C132.07 71.242 132.562 71.5647 132.972 71.99C133.39 72.408 133.717 72.9287 133.951 73.552C134.186 74.168 134.303 74.872 134.303 75.664C134.303 75.972 134.27 76.1773 134.204 76.28C134.138 76.3827 134.014 76.434 133.83 76.434H126.383C126.405 77.138 126.501 77.7503 126.669 78.271C126.845 78.7917 127.087 79.228 127.395 79.58C127.703 79.9247 128.07 80.185 128.495 80.361C128.921 80.5297 129.397 80.614 129.925 80.614C130.417 80.614 130.838 80.559 131.19 80.449C131.55 80.3317 131.858 80.207 132.114 80.075C132.371 79.943 132.584 79.822 132.752 79.712C132.928 79.5947 133.079 79.536 133.203 79.536C133.365 79.536 133.489 79.5983 133.577 79.723L134.127 80.438ZM136.708 82V70.857H137.885C138.164 70.857 138.336 70.9927 138.402 71.264L138.545 72.408C138.956 71.902 139.418 71.4877 139.931 71.165C140.445 70.8423 141.039 70.681 141.713 70.681C142.461 70.681 143.066 70.89 143.528 71.308C143.998 71.726 144.335 72.2907 144.54 73.002C144.702 72.5987 144.907 72.2503 145.156 71.957C145.413 71.6637 145.699 71.4217 146.014 71.231C146.33 71.0403 146.663 70.901 147.015 70.813C147.375 70.725 147.738 70.681 148.104 70.681C148.691 70.681 149.212 70.7763 149.666 70.967C150.128 71.1503 150.517 71.4217 150.832 71.781C151.155 72.1403 151.401 72.584 151.569 73.112C151.738 73.6327 151.822 74.2303 151.822 74.905V82H149.853V74.905C149.853 74.0323 149.663 73.3723 149.281 72.925C148.9 72.4703 148.35 72.243 147.631 72.243C147.309 72.243 147.001 72.3017 146.707 72.419C146.421 72.529 146.168 72.694 145.948 72.914C145.728 73.134 145.552 73.4127 145.42 73.75C145.296 74.08 145.233 74.465 145.233 74.905V82H143.264V74.905C143.264 74.0103 143.085 73.343 142.725 72.903C142.366 72.463 141.842 72.243 141.152 72.243C140.668 72.243 140.221 72.375 139.81 72.639C139.4 72.8957 139.022 73.2477 138.677 73.695V82H136.708ZM156.866 70.857V82H154.908V70.857H156.866ZM157.284 67.359C157.284 67.5497 157.244 67.7293 157.163 67.898C157.09 68.0593 156.987 68.206 156.855 68.338C156.73 68.4627 156.58 68.5617 156.404 68.635C156.235 68.7083 156.056 68.745 155.865 68.745C155.674 68.745 155.495 68.7083 155.326 68.635C155.165 68.5617 155.022 68.4627 154.897 68.338C154.772 68.206 154.673 68.0593 154.6 67.898C154.527 67.7293 154.49 67.5497 154.49 67.359C154.49 67.1683 154.527 66.9887 154.6 66.82C154.673 66.644 154.772 66.4937 154.897 66.369C155.022 66.237 155.165 66.1343 155.326 66.061C155.495 65.9877 155.674 65.951 155.865 65.951C156.056 65.951 156.235 65.9877 156.404 66.061C156.58 66.1343 156.73 66.237 156.855 66.369C156.987 66.4937 157.09 66.644 157.163 66.82C157.244 66.9887 157.284 67.1683 157.284 67.359ZM161.931 72.474C162.173 72.2027 162.43 71.957 162.701 71.737C162.973 71.517 163.259 71.33 163.559 71.176C163.867 71.0147 164.19 70.8937 164.527 70.813C164.872 70.725 165.242 70.681 165.638 70.681C166.247 70.681 166.782 70.7837 167.244 70.989C167.714 71.187 168.102 71.473 168.41 71.847C168.726 72.2137 168.964 72.6573 169.125 73.178C169.287 73.6987 169.367 74.2743 169.367 74.905V82H167.398V74.905C167.398 74.0617 167.204 73.409 166.815 72.947C166.434 72.4777 165.851 72.243 165.066 72.243C164.487 72.243 163.944 72.3823 163.438 72.661C162.94 72.9397 162.478 73.3173 162.052 73.794V82H160.083V70.857H161.26C161.539 70.857 161.711 70.9927 161.777 71.264L161.931 72.474ZM178.39 76.984C177.488 77.0133 176.718 77.0867 176.08 77.204C175.449 77.314 174.932 77.4607 174.529 77.644C174.133 77.8273 173.843 78.0437 173.66 78.293C173.484 78.5423 173.396 78.821 173.396 79.129C173.396 79.4223 173.443 79.6753 173.539 79.888C173.634 80.1007 173.762 80.2767 173.924 80.416C174.092 80.548 174.287 80.647 174.507 80.713C174.734 80.7717 174.976 80.801 175.233 80.801C175.577 80.801 175.893 80.768 176.179 80.702C176.465 80.6287 176.732 80.526 176.982 80.394C177.238 80.262 177.48 80.1043 177.708 79.921C177.942 79.7377 178.17 79.5287 178.39 79.294V76.984ZM172.065 72.43C172.681 71.836 173.344 71.3923 174.056 71.099C174.767 70.8057 175.555 70.659 176.421 70.659C177.044 70.659 177.598 70.7617 178.082 70.967C178.566 71.1723 178.973 71.4583 179.303 71.825C179.633 72.1917 179.882 72.6353 180.051 73.156C180.219 73.6767 180.304 74.2487 180.304 74.872V82H179.435C179.244 82 179.097 81.9707 178.995 81.912C178.892 81.846 178.811 81.7213 178.753 81.538L178.533 80.482C178.239 80.7533 177.953 80.9953 177.675 81.208C177.396 81.4133 177.103 81.5893 176.795 81.736C176.487 81.8753 176.157 81.9817 175.805 82.055C175.46 82.1357 175.075 82.176 174.65 82.176C174.217 82.176 173.81 82.1173 173.429 82C173.047 81.8753 172.714 81.692 172.428 81.45C172.149 81.208 171.925 80.9037 171.757 80.537C171.595 80.163 171.515 79.723 171.515 79.217C171.515 78.777 171.636 78.3553 171.878 77.952C172.12 77.5413 172.512 77.1783 173.055 76.863C173.597 76.5477 174.305 76.291 175.178 76.093C176.05 75.8877 177.121 75.7703 178.39 75.741V74.872C178.39 74.0067 178.203 73.354 177.829 72.914C177.455 72.4667 176.908 72.243 176.19 72.243C175.706 72.243 175.299 72.3053 174.969 72.43C174.646 72.5473 174.364 72.683 174.122 72.837C173.887 72.9837 173.682 73.1193 173.506 73.244C173.337 73.3613 173.168 73.42 173 73.42C172.868 73.42 172.754 73.387 172.659 73.321C172.563 73.2477 172.483 73.1597 172.417 73.057L172.065 72.43ZM185.145 73.09C185.497 72.3273 185.93 71.7333 186.443 71.308C186.957 70.8753 187.584 70.659 188.324 70.659C188.559 70.659 188.783 70.6847 188.995 70.736C189.215 70.7873 189.41 70.868 189.578 70.978L189.435 72.441C189.391 72.6243 189.281 72.716 189.105 72.716C189.003 72.716 188.852 72.694 188.654 72.65C188.456 72.606 188.233 72.584 187.983 72.584C187.631 72.584 187.316 72.6353 187.037 72.738C186.766 72.8407 186.52 72.9947 186.3 73.2C186.088 73.398 185.893 73.6473 185.717 73.948C185.549 74.2413 185.395 74.5787 185.255 74.96V82H183.286V70.857H184.408C184.621 70.857 184.768 70.8973 184.848 70.978C184.929 71.0587 184.984 71.198 185.013 71.396L185.145 73.09ZM197.779 76.313V69.812C197.779 69.6213 197.786 69.4123 197.801 69.185C197.816 68.9577 197.838 68.7267 197.867 68.492L192.125 76.313H197.779ZM201.882 76.313V77.435C201.882 77.5523 201.845 77.6513 201.772 77.732C201.706 77.8127 201.6 77.853 201.453 77.853H199.495V82H197.779V77.853H190.783C190.636 77.853 190.508 77.8127 190.398 77.732C190.295 77.644 190.229 77.5377 190.2 77.413L190.002 76.412L197.669 66.237H199.495V76.313H201.882ZM203.886 74.575H209.32V76.236H203.886V74.575ZM211.665 66.138V67.7H218.661V66.138H211.665ZM214.459 66.842V77.754H216.087V66.842H214.459ZM211.291 77.974L211.731 79.668C213.755 78.986 216.439 78.084 218.991 77.182L218.793 75.774C215.977 76.61 213.139 77.468 211.291 77.974ZM219.035 64.51V66.006H231.729V64.51H219.035ZM224.381 65.148C224.117 66.204 223.655 67.7 223.215 68.69L224.711 69.02C225.195 68.096 225.811 66.71 226.317 65.434L224.381 65.148ZM224.271 71V75.642C224.271 77.974 223.677 80.79 217.671 82.418C218.023 82.77 218.529 83.364 218.705 83.716C224.931 81.758 225.921 78.546 225.921 75.664V71H224.271ZM225.811 80.02C227.527 81.12 229.661 82.704 230.717 83.76L231.817 82.572C230.739 81.56 228.539 80.02 226.867 78.986L225.811 80.02ZM219.849 68.294V78.656H221.455V69.79H228.605V78.612H230.277V68.294H219.849ZM237.273 70.098V71.66H250.011V70.098H237.273ZM237.273 75.312V76.874H250.011V75.312H237.273ZM237.273 80.548V82.154H250.011V80.548H237.273ZM236.129 64.884V83.65H237.779V66.512H249.351V83.65H251.067V64.884H236.129ZM255.819 67.326V68.91H275.509V67.326H255.819ZM263.013 72.54V74.124H271.813V72.54H263.013ZM271.219 72.54L271.197 72.826C270.823 78.854 270.383 81.318 269.679 81.956C269.437 82.176 269.129 82.198 268.645 82.198C268.073 82.198 266.511 82.198 264.927 82.044C265.235 82.506 265.477 83.188 265.499 83.672C266.995 83.738 268.447 83.782 269.217 83.738C270.053 83.672 270.603 83.518 271.109 82.99C271.967 82.11 272.407 79.668 272.847 73.332C272.891 73.09 272.913 72.54 272.913 72.54H271.219ZM262.639 68.206C262.397 73.464 262.023 79.602 255.599 82.506C256.017 82.836 256.545 83.43 256.787 83.848C263.497 80.636 264.135 74.036 264.465 68.206H262.639ZM264.729 63.476V68.008H266.423V63.476H264.729ZM278.831 67.326V83.76H280.459V68.954H295.573V67.326H278.831ZM294.957 67.326V81.56C294.957 81.978 294.847 82.088 294.407 82.11C293.945 82.132 292.427 82.132 290.821 82.066C291.085 82.528 291.327 83.298 291.415 83.782C293.417 83.782 294.803 83.738 295.595 83.474C296.365 83.21 296.607 82.66 296.607 81.582V67.326H294.957ZM286.311 63.476C285.937 64.818 285.211 66.732 284.595 67.964L286.179 68.338C286.839 67.172 287.675 65.39 288.357 63.828L286.311 63.476ZM283.363 71.858V80.724H284.881V71.858H283.363ZM284.067 71.858V73.354H290.447V77.666H284.067V79.14H291.987V71.858H284.067ZM302.789 71.858V73.464H315.373V71.858H302.789ZM314.823 71.858V72.166C314.537 78.7 314.207 81.208 313.613 81.802C313.393 82.044 313.129 82.088 312.689 82.088C312.161 82.088 310.797 82.066 309.345 81.934C309.653 82.418 309.873 83.1 309.895 83.606C311.281 83.672 312.667 83.694 313.393 83.628C314.163 83.562 314.647 83.408 315.087 82.858C315.879 82.022 316.187 79.47 316.495 72.65C316.517 72.43 316.539 71.858 316.539 71.858H314.823ZM305.803 63.982C304.417 67.37 301.975 70.406 299.159 72.298C299.577 72.606 300.281 73.244 300.589 73.596C303.361 71.484 305.957 68.206 307.541 64.488L305.803 63.982ZM313.481 63.938L311.897 64.576C313.547 67.854 316.319 71.418 318.761 73.398C319.091 72.936 319.707 72.276 320.147 71.924C317.749 70.23 314.911 66.886 313.481 63.938ZM307.431 72.298C306.991 76.456 306.111 80.526 300.347 82.44C300.721 82.792 301.205 83.452 301.403 83.87C307.541 81.67 308.685 77.116 309.191 72.298H307.431ZM321.863 78.084V79.536H341.509V78.084H321.863ZM330.751 63.52V66.314H332.467V63.52H330.751ZM323.931 74.08V75.422H337.813V74.08H323.931ZM330.773 76.786V82.044C330.773 82.374 330.641 82.462 330.245 82.484C329.871 82.484 328.353 82.506 326.857 82.462C327.077 82.858 327.341 83.408 327.429 83.826C329.409 83.826 330.685 83.826 331.455 83.628C332.225 83.408 332.489 83.012 332.489 82.088V76.786H330.773ZM337.439 74.08V74.41C336.053 75.334 333.369 76.368 331.081 76.94C331.323 77.16 331.719 77.6 331.917 77.886C334.513 77.248 337.373 76.148 339.353 74.916L338.253 74.014L337.879 74.08H337.439ZM326.483 69.526H336.889V71.506H326.483V69.526ZM324.855 68.294V72.738H338.605V68.294H324.855ZM322.061 65.456V66.886H341.223V65.456H322.061ZM121.218 99.64C121.218 103.952 122.956 107.428 125.596 110.112L126.916 109.43C124.364 106.812 122.802 103.578 122.802 99.64C122.802 95.724 124.364 92.49 126.916 89.872L125.596 89.19C122.956 91.874 121.218 95.35 121.218 99.64ZM130.546 91.676V93.304H147.178V91.676H130.546ZM129.16 106.922V108.572H148.74V106.922H129.16ZM136.992 92.248C136.244 97.154 134.88 103.974 133.846 107.934H135.694C136.618 104.084 137.96 97.286 138.818 92.248H136.992ZM131.404 98.144V99.772H143.394V107.67H145.088V98.144H131.404ZM156.616 99.64C156.616 95.35 154.878 91.874 152.238 89.19L150.918 89.872C153.47 92.49 155.032 95.724 155.032 99.64C155.032 103.578 153.47 106.812 150.918 109.43L152.238 110.112C154.878 107.428 156.616 103.952 156.616 99.64ZM181.311 109.815V111.135H172.643V109.815H181.311ZM194.125 100.124C194.125 101.503 193.975 102.698 193.674 103.71C193.381 104.715 192.978 105.547 192.464 106.207C191.951 106.867 191.342 107.358 190.638 107.681C189.942 108.004 189.194 108.165 188.394 108.165C187.588 108.165 186.836 108.004 186.139 107.681C185.45 107.358 184.849 106.867 184.335 106.207C183.822 105.547 183.419 104.715 183.125 103.71C182.832 102.698 182.685 101.503 182.685 100.124C182.685 98.7453 182.832 97.55 183.125 96.538C183.419 95.526 183.822 94.69 184.335 94.03C184.849 93.3627 185.45 92.8677 186.139 92.545C186.836 92.2223 187.588 92.061 188.394 92.061C189.194 92.061 189.942 92.2223 190.638 92.545C191.342 92.8677 191.951 93.3627 192.464 94.03C192.978 94.69 193.381 95.526 193.674 96.538C193.975 97.55 194.125 98.7453 194.125 100.124ZM192.09 100.124C192.09 98.9213 191.988 97.913 191.782 97.099C191.584 96.2777 191.313 95.6177 190.968 95.119C190.631 94.6203 190.239 94.2647 189.791 94.052C189.344 93.832 188.878 93.722 188.394 93.722C187.91 93.722 187.445 93.832 186.997 94.052C186.55 94.2647 186.158 94.6203 185.82 95.119C185.483 95.6177 185.212 96.2777 185.006 97.099C184.808 97.913 184.709 98.9213 184.709 100.124C184.709 101.327 184.808 102.335 185.006 103.149C185.212 103.963 185.483 104.619 185.82 105.118C186.158 105.617 186.55 105.976 186.997 106.196C187.445 106.409 187.91 106.515 188.394 106.515C188.878 106.515 189.344 106.409 189.791 106.196C190.239 105.976 190.631 105.617 190.968 105.118C191.313 104.619 191.584 103.963 191.782 103.149C191.988 102.335 192.09 101.327 192.09 100.124ZM206.678 92.237V93.117C206.678 93.3663 206.649 93.5717 206.59 93.733C206.539 93.8943 206.487 94.03 206.436 94.14L199.902 107.307C199.807 107.498 199.675 107.663 199.506 107.802C199.337 107.934 199.114 108 198.835 108H197.427L204.049 94.998C204.144 94.8147 204.243 94.646 204.346 94.492C204.449 94.338 204.559 94.1913 204.676 94.052H196.448C196.323 94.052 196.213 94.0043 196.118 93.909C196.023 93.8063 195.975 93.6927 195.975 93.568V92.237H206.678ZM208.979 96.505C209.081 95.7863 209.279 95.152 209.573 94.602C209.866 94.0447 210.236 93.579 210.684 93.205C211.138 92.831 211.655 92.5487 212.235 92.358C212.821 92.16 213.452 92.061 214.127 92.061C214.794 92.061 215.41 92.1563 215.975 92.347C216.539 92.5377 217.023 92.809 217.427 93.161C217.837 93.513 218.156 93.9383 218.384 94.437C218.611 94.9357 218.725 95.4893 218.725 96.098C218.725 96.5967 218.659 97.044 218.527 97.44C218.402 97.8287 218.219 98.1697 217.977 98.463C217.742 98.7563 217.456 99.0057 217.119 99.211C216.781 99.4163 216.404 99.585 215.986 99.717C217.012 99.981 217.782 100.436 218.296 101.081C218.816 101.719 219.077 102.518 219.077 103.479C219.077 104.205 218.937 104.858 218.659 105.437C218.387 106.016 218.013 106.511 217.537 106.922C217.06 107.325 216.503 107.637 215.865 107.857C215.234 108.07 214.556 108.176 213.83 108.176C212.994 108.176 212.279 108.073 211.685 107.868C211.091 107.655 210.588 107.366 210.178 106.999C209.767 106.632 209.43 106.2 209.166 105.701C208.902 105.195 208.678 104.649 208.495 104.062L209.342 103.71C209.562 103.615 209.774 103.589 209.98 103.633C210.192 103.677 210.346 103.798 210.442 103.996C210.537 104.201 210.654 104.447 210.794 104.733C210.94 105.019 211.138 105.294 211.388 105.558C211.637 105.822 211.952 106.046 212.334 106.229C212.722 106.412 213.214 106.504 213.808 106.504C214.358 106.504 214.838 106.416 215.249 106.24C215.667 106.057 216.011 105.822 216.283 105.536C216.561 105.25 216.77 104.931 216.91 104.579C217.049 104.227 217.119 103.879 217.119 103.534C217.119 103.109 217.064 102.72 216.954 102.368C216.844 102.016 216.638 101.712 216.338 101.455C216.037 101.198 215.623 100.997 215.095 100.85C214.574 100.703 213.903 100.63 213.082 100.63V99.211C213.756 99.2037 214.328 99.1303 214.798 98.991C215.274 98.8517 215.659 98.661 215.953 98.419C216.253 98.177 216.47 97.8873 216.602 97.55C216.741 97.2127 216.811 96.8387 216.811 96.428C216.811 95.9733 216.737 95.5773 216.591 95.24C216.451 94.9027 216.257 94.624 216.008 94.404C215.758 94.184 215.461 94.019 215.117 93.909C214.779 93.799 214.413 93.744 214.017 93.744C213.621 93.744 213.25 93.8027 212.906 93.92C212.568 94.0373 212.268 94.2023 212.004 94.415C211.747 94.6203 211.531 94.866 211.355 95.152C211.179 95.438 211.054 95.7533 210.981 96.098C210.885 96.3547 210.764 96.527 210.618 96.615C210.478 96.6957 210.273 96.7177 210.002 96.681L208.979 96.505ZM231.509 106.504V108H223.061V106.504H226.438V95.757C226.438 95.4343 226.449 95.108 226.471 94.778L223.666 97.187C223.57 97.2677 223.475 97.319 223.38 97.341C223.284 97.3557 223.196 97.3557 223.116 97.341C223.035 97.3263 222.958 97.297 222.885 97.253C222.819 97.209 222.767 97.1613 222.731 97.11L222.115 96.263L226.812 92.204H228.407V106.504H231.509ZM245.062 89.542C244.292 91.566 242.796 94.14 240.552 96.032C240.926 96.252 241.454 96.736 241.718 97.11C244.116 94.932 245.7 92.226 246.69 89.806L245.062 89.542ZM245.04 91.434L244.182 92.842H249.968V91.434H245.04ZM246.91 95.57C246.624 101.818 246.096 106.394 238.814 108.484C239.166 108.814 239.606 109.408 239.782 109.826C247.394 107.45 248.164 102.412 248.494 95.57H246.91ZM247.966 101.026V107.296C247.966 108.946 248.362 109.408 250.012 109.408C250.342 109.408 251.926 109.408 252.3 109.408C253.73 109.408 254.148 108.66 254.302 105.712C253.862 105.58 253.224 105.338 252.872 105.052C252.828 107.582 252.718 107.912 252.146 107.912C251.794 107.912 250.474 107.912 250.21 107.912C249.616 107.912 249.528 107.846 249.528 107.274V101.026H247.966ZM235.58 91.17V92.644H239.254V103.996H235.58V105.47H240.772V91.17H235.58ZM235.624 97.484V98.958H239.958V97.484H235.624ZM234.744 91.17V107.208H236.24V91.17H234.744ZM243.72 96.516H251.772V100.454H243.72V96.516ZM242.268 95.108V101.862H253.312V95.108H242.268ZM249.418 91.434V91.72C248.956 92.798 248.032 94.36 247.218 95.306C247.57 95.46 248.054 95.768 248.362 95.988C249.242 94.998 250.364 93.392 251.002 92.028L249.99 91.368L249.748 91.434H249.418ZM265.412 96.648V98.298H274.454V96.648H265.412ZM256.194 107.076V108.726H275.95V107.076H256.194ZM264.466 89.85V107.956H266.204V89.85H264.466ZM278.172 94.91V96.472H284.838V94.91H278.172ZM280.856 89.784V104.524H282.418V89.784H280.856ZM277.842 105.162L278.392 106.834C280.306 106.108 282.792 105.118 285.102 104.172L284.794 102.676C282.242 103.622 279.602 104.612 277.842 105.162ZM285.322 90.576V92.138H294.518V90.576H285.322ZM296.102 96.626V96.978C295.684 104.348 295.2 107.12 294.584 107.78C294.364 108.066 294.166 108.11 293.814 108.11C293.44 108.11 292.604 108.088 291.702 108C291.944 108.44 292.12 109.122 292.142 109.584C293.088 109.628 293.968 109.628 294.518 109.562C295.156 109.518 295.574 109.342 296.014 108.814C296.784 107.89 297.246 105.184 297.686 97.44C297.73 97.198 297.752 96.626 297.752 96.626H296.102ZM286.092 98.452C286.092 98.122 287.258 97.66 287.258 97.66V97.616C289.898 96.164 292.78 94.008 295.75 91.346L294.496 90.422L293.704 90.752V90.862C291.57 93.128 288.512 95.262 287.61 95.812C286.774 96.362 285.96 96.824 285.388 96.912C285.63 97.308 285.982 98.1 286.092 98.452ZM286.092 98.452C286.29 98.276 286.994 98.188 288.006 98.188H296.674V96.626H287.038L286.092 97.088V98.452ZM293.198 97.506C291.856 102.544 289.304 106.46 285.41 108.792C285.784 109.012 286.4 109.474 286.664 109.738C290.47 107.186 293.154 103.182 294.65 97.792L293.198 97.506ZM289.81 97.528C288.952 100.256 287.214 102.544 285.014 103.952C285.366 104.172 285.982 104.656 286.246 104.898C288.446 103.314 290.294 100.85 291.262 97.836L289.81 97.528Z" fill="white"/>
</svg>
