<svg width="406" height="228" viewBox="0 0 406 228" fill="none" xmlns="http://www.w3.org/2000/svg">
<rect width="406" height="228" fill="black"/>
<path d="M89.0084 66.237L84.0914 82H82.1774L78.1844 69.977C78.1477 69.8597 78.111 69.735 78.0744 69.603C78.045 69.471 78.012 69.3317 77.9754 69.185C77.9387 69.3317 77.902 69.471 77.8654 69.603C77.8287 69.735 77.792 69.8597 77.7554 69.977L73.7404 82H71.8264L66.9094 66.237H68.6804C68.871 66.237 69.0287 66.2847 69.1534 66.38C69.2854 66.4753 69.3697 66.5963 69.4064 66.743L72.6624 77.699C72.7137 77.897 72.7614 78.1097 72.8054 78.337C72.8567 78.5643 72.9044 78.8063 72.9484 79.063C72.9997 78.8063 73.051 78.5643 73.1024 78.337C73.161 78.1023 73.2234 77.8897 73.2894 77.699L76.9964 66.743C77.0404 66.6183 77.1247 66.5047 77.2494 66.402C77.3814 66.292 77.539 66.237 77.7224 66.237H78.3384C78.529 66.237 78.683 66.2847 78.8004 66.38C78.9177 66.4753 79.0057 66.5963 79.0644 66.743L82.7604 77.699C82.8264 77.8897 82.885 78.095 82.9364 78.315C82.995 78.535 83.05 78.766 83.1014 79.008C83.138 78.766 83.1784 78.535 83.2224 78.315C83.2664 78.095 83.314 77.8897 83.3654 77.699L86.6324 66.743C86.669 66.611 86.7497 66.4937 86.8744 66.391C87.0064 66.2883 87.164 66.237 87.3474 66.237H89.0084ZM97.3718 76.313V69.812C97.3718 69.6213 97.3791 69.4123 97.3938 69.185C97.4085 68.9577 97.4305 68.7267 97.4598 68.492L91.7178 76.313H97.3718ZM101.475 76.313V77.435C101.475 77.5523 101.438 77.6513 101.365 77.732C101.299 77.8127 101.192 77.853 101.046 77.853H99.0878V82H97.3718V77.853H90.3758C90.2291 77.853 90.1008 77.8127 89.9908 77.732C89.8881 77.644 89.8221 77.5377 89.7928 77.413L89.5948 76.412L97.2618 66.237H99.0878V76.313H101.475ZM103.479 74.575H108.913V76.236H103.479V74.575ZM111.676 65.038V66.314H130.926V65.038H111.676ZM111.698 75.818V77.116H130.772V75.818H111.698ZM111.94 78.634V79.888H120.08V78.634H111.94ZM122.984 81.824V83.034H128.99V81.824H122.984ZM113.15 67.656V68.888H129.43V67.656H113.15ZM120.366 63.542V68.492H122.016V63.542H120.366ZM115.548 71.264H127.032V72.98H115.548V71.264ZM114.008 70.098V74.146H128.638V70.098H114.008ZM122.302 78.194V83.76H123.776V79.404H128.33V83.694H129.87V78.194H122.302ZM119.486 78.634V78.832C119.288 81.164 119.09 82.11 118.782 82.396C118.65 82.55 118.474 82.572 118.144 82.572C117.836 82.572 117 82.55 116.12 82.462C116.34 82.814 116.472 83.364 116.494 83.716C117.44 83.782 118.364 83.782 118.804 83.76C119.332 83.716 119.706 83.606 120.014 83.298C120.476 82.836 120.718 81.78 120.96 79.25C120.982 79.052 121.004 78.634 121.004 78.634H119.486ZM115.438 77.204C115.174 79.998 114.382 81.736 111.126 82.682C111.412 82.946 111.808 83.474 111.94 83.782C115.614 82.638 116.582 80.526 116.912 77.204H115.438ZM124.37 73.948C124.172 74.432 123.732 75.136 123.424 75.664L124.854 75.994C125.206 75.576 125.646 75.004 126.064 74.322L124.37 73.948ZM116.538 74.344C116.956 74.828 117.352 75.532 117.528 75.994L119.112 75.62C118.936 75.136 118.518 74.476 118.078 74.036L116.538 74.344ZM134.006 65.764V70.384H135.678V67.282H150.814V70.384H152.552V65.764H134.006ZM141.618 63.872C142.168 64.664 142.806 65.764 143.114 66.424L144.918 65.896C144.588 65.236 143.928 64.18 143.378 63.432L141.618 63.872ZM149.01 68.294C146.084 68.976 141.2 69.57 136.998 69.9C137.152 70.274 137.35 70.824 137.394 71.22C141.618 70.934 146.568 70.384 149.912 69.636L149.01 68.294ZM136.998 69.9V77.93H138.692V69.9H136.998ZM138.274 72.826V74.278H151.43V72.826H138.274ZM139.33 79.426C137.812 80.526 135.436 81.692 133.368 82.44C133.786 82.748 134.424 83.386 134.732 83.716C136.712 82.858 139.22 81.472 140.958 80.196L139.33 79.426ZM145.424 80.482C147.514 81.472 150.352 82.902 151.804 83.782L152.684 82.396C151.21 81.582 148.306 80.196 146.26 79.294L145.424 80.482ZM133.632 77.38V78.854H152.86V77.38H133.632ZM146.04 73.288V78.084H147.756V73.288H146.04ZM158.052 83.188C158.052 82.528 159.834 81.23 159.834 81.23V70.428H158.25V79.712C158.25 80.68 157.546 81.428 157.15 81.692C157.436 82.066 157.898 82.77 158.052 83.188ZM156.578 64.818C157.722 65.918 159.13 67.436 159.812 68.404L160.978 67.282C160.318 66.336 158.844 64.906 157.7 63.872L156.578 64.818ZM158.052 83.188C158.338 82.77 158.91 82.308 162.54 79.492C162.342 79.162 162.056 78.524 161.924 78.084L158.14 80.878L157.722 81.582L158.052 83.188ZM155.192 70.428V72.056H159.372V70.428H155.192ZM162.1 67.788V69.416H174.992V67.788H162.1ZM161.638 74.608V76.258H175.344V74.608H161.638ZM170.614 63.52V83.738H172.264V63.52H170.614ZM165.07 63.542V73.552C165.07 76.896 164.696 80.416 161.858 82.726C162.254 82.968 162.87 83.474 163.134 83.782C166.258 81.296 166.72 77.49 166.72 73.574V63.542H165.07ZM187.95 68.294V82.44H189.556V68.294H187.95ZM181.878 77.006V78.458H195.848V77.006H181.878ZM180.448 81.758V83.21H197.212V81.758H180.448ZM184.012 68.668C183.594 71.462 182.56 73.706 180.668 75.114C181.02 75.334 181.68 75.818 181.922 76.082C183.858 74.476 185.046 72.034 185.552 68.822L184.012 68.668ZM183.462 72.144C184.584 73.156 185.948 74.586 186.608 75.466L187.598 74.388C186.938 73.53 185.53 72.166 184.408 71.22L183.462 72.144ZM192.856 68.668C192.438 71.352 191.36 73.464 189.49 74.784C189.842 75.026 190.458 75.532 190.678 75.796C192.614 74.256 193.868 71.924 194.374 68.844L192.856 68.668ZM192.152 72.1C193.56 73.266 195.342 74.916 196.222 75.95L197.256 74.828C196.354 73.838 194.528 72.254 193.142 71.132L192.152 72.1ZM187.048 63.542V66.93H188.742V63.542H187.048ZM179.59 65.852V67.414H197.146V65.852H179.59ZM178.732 65.852V71.968C178.732 75.158 178.578 79.624 176.862 82.792C177.258 82.968 177.962 83.408 178.27 83.716C180.052 80.35 180.338 75.356 180.338 71.99V65.852H178.732ZM199.643 74.575H205.077V76.236H199.643V74.575ZM209.292 66.842V68.514H225.726V66.842H209.292ZM207.576 72.65V74.3H227.354V72.65H207.576ZM216.486 63.52V73.574H218.224V63.52H216.486ZM214.704 73.728C213.912 76.082 212.394 79.404 211.162 81.494L212.702 82.022C213.978 79.976 215.496 76.83 216.64 74.234L214.704 73.728ZM208.368 81.098L208.588 82.858C212.746 82.682 219.06 82.352 224.978 82.022L225.044 80.416C219.016 80.702 212.504 80.988 208.368 81.098ZM220.49 76.808C222.404 78.986 224.56 82 225.506 83.958L227.134 83.078C226.122 81.142 223.988 78.26 222.008 76.104L220.49 76.808ZM230.544 67.458V77.93H232.194V69.086H246.56V77.82H248.276V67.458H230.544ZM231.424 74.938V76.544H247.55V74.938H231.424ZM238.508 63.52V83.738H240.224V63.52H238.508ZM257.12 69.68V80.724C257.12 82.88 257.802 83.474 260.134 83.474C260.64 83.474 263.918 83.474 264.446 83.474C266.844 83.474 267.35 82.242 267.592 78.084C267.108 77.974 266.426 77.666 266.03 77.336C265.854 81.142 265.656 81.956 264.358 81.956C263.61 81.956 260.838 81.956 260.288 81.956C259.078 81.956 258.814 81.758 258.814 80.724V69.68H257.12ZM257.296 64.884C259.958 65.83 263.17 67.48 264.864 68.756L265.92 67.304C264.182 66.116 260.992 64.532 258.33 63.63L257.296 64.884ZM253.446 71.44C253.138 74.3 252.412 77.512 250.938 79.448L252.434 80.35C254.018 78.238 254.7 74.718 255.03 71.77L253.446 71.44ZM266.272 71.462C268.142 73.948 269.792 77.38 270.276 79.69L271.926 78.898C271.376 76.566 269.726 73.244 267.746 70.736L266.272 71.462ZM283.124 64.07V80.372C283.124 82.792 283.828 83.452 286.138 83.452C286.644 83.452 290.098 83.452 290.67 83.452C292.958 83.452 293.442 82.198 293.706 78.59C293.222 78.48 292.54 78.172 292.122 77.864C291.968 81.076 291.792 81.89 290.582 81.89C289.834 81.89 286.842 81.89 286.248 81.89C285.016 81.89 284.796 81.626 284.796 80.394V64.07H283.124ZM291.374 67.722C289.504 69.438 286.358 71.484 283.542 72.958C283.784 73.31 284.114 73.882 284.224 74.256C287.128 72.738 290.362 70.956 292.584 69.13L291.374 67.722ZM279.296 63.872C277.844 67.348 275.424 70.692 272.872 72.826C273.202 73.222 273.708 74.08 273.884 74.476C276.612 72.034 279.252 68.272 280.902 64.4L279.296 63.872ZM276.788 69.614V83.738H278.416V68.03L278.394 68.008L276.788 69.614ZM301.802 76.17V77.71H315.486V76.17H301.802ZM303.672 70.472V71.99H312.736V70.472H303.672ZM307.962 74.124V81.802C307.962 82.11 307.852 82.198 307.478 82.22C307.082 82.22 305.784 82.242 304.31 82.198C304.53 82.66 304.75 83.298 304.838 83.76C306.73 83.76 307.94 83.76 308.666 83.518C309.414 83.254 309.612 82.792 309.612 81.824V74.124H307.962ZM312.296 70.472V70.78C311.46 71.924 309.722 73.464 308.248 74.344C308.534 74.564 308.952 75.026 309.172 75.312C310.866 74.3 312.802 72.694 314.1 71.176L313.044 70.384L312.692 70.472H312.296ZM295.796 66.402V67.986H315.068V66.402H295.796ZM302.902 63.52C301.67 68.074 299.118 72.958 295.114 75.752C295.4 76.148 295.818 76.874 295.994 77.292C300.394 74.146 303.078 69.02 304.618 63.96L302.902 63.52ZM298.568 72.518V83.716H300.218V72.518H298.568ZM330.314 63.52V71.022H331.832V63.52H330.314ZM335.858 64.246C333.834 69.086 330.358 73.112 326.134 75.51C326.464 75.796 327.014 76.456 327.212 76.786C331.48 74.08 335.088 69.856 337.332 64.664L335.858 64.246ZM327.454 66.028V67.458H334.406V66.028H327.454ZM326.794 70.208V71.726H337.508V70.208H326.794ZM329.544 77.644V78.92H335.77V77.644H329.544ZM328.84 74.058V83.672H330.292V75.444H335.044V83.606H336.54V74.058H328.84ZM329.544 81.186V82.572H335.77V81.186H329.544ZM322.79 65.522C323.736 66.468 324.814 67.81 325.276 68.69L326.464 67.81C326.002 66.952 324.88 65.676 323.934 64.774L322.79 65.522ZM321.844 70.56V72.122H324.968V70.56H321.844ZM324.044 82.968C324.044 82.374 325.474 81.34 325.474 81.34V70.56H324.022V79.932C324.022 80.856 323.56 81.384 323.208 81.604C323.494 81.934 323.912 82.594 324.044 82.968ZM324.044 82.968C324.352 82.594 324.88 82.22 328.004 80.284C327.872 79.976 327.674 79.382 327.608 78.964L324.308 80.856L323.802 81.516L324.044 82.968ZM321.162 63.498C320.238 66.864 318.72 70.252 316.96 72.496C317.224 72.848 317.642 73.684 317.796 74.036C319.754 71.462 321.492 67.612 322.592 63.872L321.162 63.498ZM319.468 69.02V83.716H320.92V67.634L320.898 67.59L319.468 69.02Z" fill="white"/>
</svg>
