<svg width="406" height="228" viewBox="0 0 406 228" fill="none" xmlns="http://www.w3.org/2000/svg">
<rect width="406" height="228" fill="black"/>
<path d="M87.6503 78.744C87.7676 78.744 87.8703 78.7917 87.9583 78.887L88.8053 79.8C88.16 80.548 87.3753 81.131 86.4513 81.549C85.5346 81.967 84.4236 82.176 83.1183 82.176C81.989 82.176 80.9623 81.9817 80.0383 81.593C79.1143 81.197 78.326 80.647 77.6733 79.943C77.0206 79.2317 76.5146 78.381 76.1553 77.391C75.796 76.401 75.6163 75.312 75.6163 74.124C75.6163 72.936 75.8033 71.847 76.1773 70.857C76.5513 69.867 77.0756 69.0163 77.7503 68.305C78.4323 67.5937 79.2463 67.0437 80.1923 66.655C81.1383 66.259 82.1833 66.061 83.3273 66.061C84.4493 66.061 85.4393 66.2407 86.2973 66.6C87.1553 66.9593 87.9106 67.447 88.5633 68.063L87.8593 69.042C87.8153 69.1153 87.7566 69.1777 87.6833 69.229C87.6173 69.273 87.5256 69.295 87.4083 69.295C87.2763 69.295 87.115 69.2253 86.9243 69.086C86.7336 68.9393 86.4843 68.778 86.1763 68.602C85.8683 68.426 85.4833 68.2683 85.0213 68.129C84.5593 67.9823 83.991 67.909 83.3163 67.909C82.5023 67.909 81.758 68.052 81.0833 68.338C80.4086 68.6167 79.8256 69.0237 79.3343 69.559C78.8503 70.0943 78.4726 70.747 78.2013 71.517C77.93 72.287 77.7943 73.156 77.7943 74.124C77.7943 75.1067 77.9336 75.983 78.2123 76.753C78.4983 77.523 78.8833 78.1757 79.3673 78.711C79.8586 79.239 80.4343 79.6423 81.0943 79.921C81.7616 80.1997 82.4803 80.339 83.2503 80.339C83.7196 80.339 84.1413 80.3133 84.5153 80.262C84.8966 80.2033 85.245 80.1153 85.5603 79.998C85.883 79.8807 86.18 79.734 86.4513 79.558C86.73 79.3747 87.005 79.1583 87.2763 78.909C87.401 78.799 87.5256 78.744 87.6503 78.744ZM92.6121 73.09C92.9641 72.3273 93.3968 71.7333 93.9101 71.308C94.4235 70.8753 95.0505 70.659 95.7911 70.659C96.0258 70.659 96.2495 70.6847 96.4621 70.736C96.6821 70.7873 96.8765 70.868 97.0451 70.978L96.9021 72.441C96.8581 72.6243 96.7481 72.716 96.5721 72.716C96.4695 72.716 96.3191 72.694 96.1211 72.65C95.9231 72.606 95.6995 72.584 95.4501 72.584C95.0981 72.584 94.7828 72.6353 94.5041 72.738C94.2328 72.8407 93.9871 72.9947 93.7671 73.2C93.5545 73.398 93.3601 73.6473 93.1841 73.948C93.0155 74.2413 92.8615 74.5787 92.7221 74.96V82H90.7531V70.857H91.8751C92.0878 70.857 92.2345 70.8973 92.3151 70.978C92.3958 71.0587 92.4508 71.198 92.4801 71.396L92.6121 73.09ZM108.381 70.857L102.166 85.289C102.1 85.4357 102.015 85.553 101.913 85.641C101.817 85.729 101.667 85.773 101.462 85.773H100.01L102.045 81.351L97.4468 70.857H99.1408C99.3095 70.857 99.4415 70.901 99.5368 70.989C99.6395 71.0697 99.7092 71.1613 99.7458 71.264L102.727 78.282C102.844 78.59 102.943 78.9127 103.024 79.25C103.126 78.9053 103.236 78.579 103.354 78.271L106.247 71.264C106.291 71.1467 106.364 71.0513 106.467 70.978C106.577 70.8973 106.698 70.857 106.83 70.857H108.381ZM112.08 79.316C112.439 79.8 112.831 80.141 113.257 80.339C113.682 80.537 114.159 80.636 114.687 80.636C115.728 80.636 116.527 80.2657 117.085 79.525C117.642 78.7843 117.921 77.7283 117.921 76.357C117.921 75.631 117.855 75.0077 117.723 74.487C117.598 73.9663 117.415 73.541 117.173 73.211C116.931 72.8737 116.634 72.628 116.282 72.474C115.93 72.32 115.53 72.243 115.083 72.243C114.445 72.243 113.884 72.3897 113.4 72.683C112.923 72.9763 112.483 73.3907 112.08 73.926V79.316ZM111.981 72.584C112.45 72.0047 112.993 71.539 113.609 71.187C114.225 70.835 114.929 70.659 115.721 70.659C116.366 70.659 116.949 70.7837 117.47 71.033C117.99 71.275 118.434 71.638 118.801 72.122C119.167 72.5987 119.45 73.1927 119.648 73.904C119.846 74.6153 119.945 75.433 119.945 76.357C119.945 77.1783 119.835 77.9447 119.615 78.656C119.395 79.36 119.076 79.9723 118.658 80.493C118.247 81.0063 117.741 81.4133 117.14 81.714C116.546 82.0073 115.875 82.154 115.127 82.154C114.445 82.154 113.858 82.0403 113.367 81.813C112.883 81.5783 112.454 81.2557 112.08 80.845V85.773H110.111V70.857H111.288C111.566 70.857 111.739 70.9927 111.805 71.264L111.981 72.584ZM125.713 82.176C124.833 82.176 124.155 81.9303 123.678 81.439C123.209 80.9477 122.974 80.24 122.974 79.316V72.496H121.632C121.515 72.496 121.416 72.463 121.335 72.397C121.255 72.3237 121.214 72.2137 121.214 72.067V71.286L123.04 71.055L123.491 67.612C123.513 67.502 123.561 67.414 123.634 67.348C123.715 67.2747 123.818 67.238 123.942 67.238H124.932V71.077H128.155V72.496H124.932V79.184C124.932 79.6533 125.046 80.0017 125.273 80.229C125.501 80.4563 125.794 80.57 126.153 80.57C126.359 80.57 126.535 80.5443 126.681 80.493C126.835 80.4343 126.967 80.372 127.077 80.306C127.187 80.24 127.279 80.1813 127.352 80.13C127.433 80.0713 127.503 80.042 127.561 80.042C127.664 80.042 127.756 80.1043 127.836 80.229L128.408 81.164C128.071 81.4793 127.664 81.7287 127.187 81.912C126.711 82.088 126.219 82.176 125.713 82.176ZM134.81 70.681C135.624 70.681 136.357 70.8167 137.01 71.088C137.662 71.3593 138.22 71.7443 138.682 72.243C139.144 72.7417 139.496 73.3467 139.738 74.058C139.987 74.762 140.112 75.5503 140.112 76.423C140.112 77.303 139.987 78.095 139.738 78.799C139.496 79.503 139.144 80.1043 138.682 80.603C138.22 81.1017 137.662 81.4867 137.01 81.758C136.357 82.022 135.624 82.154 134.81 82.154C133.988 82.154 133.248 82.022 132.588 81.758C131.935 81.4867 131.378 81.1017 130.916 80.603C130.454 80.1043 130.098 79.503 129.849 78.799C129.607 78.095 129.486 77.303 129.486 76.423C129.486 75.5503 129.607 74.762 129.849 74.058C130.098 73.3467 130.454 72.7417 130.916 72.243C131.378 71.7443 131.935 71.3593 132.588 71.088C133.248 70.8167 133.988 70.681 134.81 70.681ZM134.81 80.625C135.91 80.625 136.731 80.2583 137.274 79.525C137.816 78.7843 138.088 77.754 138.088 76.434C138.088 75.1067 137.816 74.0727 137.274 73.332C136.731 72.5913 135.91 72.221 134.81 72.221C134.252 72.221 133.765 72.3163 133.347 72.507C132.936 72.6977 132.591 72.9727 132.313 73.332C132.041 73.6913 131.836 74.135 131.697 74.663C131.565 75.1837 131.499 75.774 131.499 76.434C131.499 77.754 131.77 78.7843 132.313 79.525C132.863 80.2583 133.695 80.625 134.81 80.625ZM151.009 68.03H145.905V82H143.782V68.03H138.667V66.237H151.009V68.03ZM157.658 75.213C157.658 74.7583 157.592 74.344 157.46 73.97C157.336 73.5887 157.149 73.2623 156.899 72.991C156.657 72.7123 156.36 72.4997 156.008 72.353C155.656 72.199 155.257 72.122 154.809 72.122C153.871 72.122 153.126 72.397 152.576 72.947C152.034 73.4897 151.696 74.245 151.564 75.213H157.658ZM159.242 80.438C159 80.7313 158.711 80.988 158.373 81.208C158.036 81.4207 157.673 81.5967 157.284 81.736C156.903 81.8753 156.507 81.978 156.096 82.044C155.686 82.1173 155.279 82.154 154.875 82.154C154.105 82.154 153.394 82.0257 152.741 81.769C152.096 81.505 151.535 81.1237 151.058 80.625C150.589 80.119 150.222 79.4957 149.958 78.755C149.694 78.0143 149.562 77.1637 149.562 76.203C149.562 75.4257 149.68 74.6997 149.914 74.025C150.156 73.3503 150.501 72.7673 150.948 72.276C151.396 71.7773 151.942 71.3887 152.587 71.11C153.233 70.824 153.959 70.681 154.765 70.681C155.433 70.681 156.049 70.7947 156.613 71.022C157.185 71.242 157.677 71.5647 158.087 71.99C158.505 72.408 158.832 72.9287 159.066 73.552C159.301 74.168 159.418 74.872 159.418 75.664C159.418 75.972 159.385 76.1773 159.319 76.28C159.253 76.3827 159.129 76.434 158.945 76.434H151.498C151.52 77.138 151.616 77.7503 151.784 78.271C151.96 78.7917 152.202 79.228 152.51 79.58C152.818 79.9247 153.185 80.185 153.61 80.361C154.036 80.5297 154.512 80.614 155.04 80.614C155.532 80.614 155.953 80.559 156.305 80.449C156.665 80.3317 156.973 80.207 157.229 80.075C157.486 79.943 157.699 79.822 157.867 79.712C158.043 79.5947 158.194 79.536 158.318 79.536C158.48 79.536 158.604 79.5983 158.692 79.723L159.242 80.438ZM169.578 72.837C169.52 72.9177 169.461 72.98 169.402 73.024C169.344 73.068 169.263 73.09 169.16 73.09C169.05 73.09 168.929 73.046 168.797 72.958C168.665 72.8627 168.5 72.76 168.302 72.65C168.112 72.54 167.873 72.441 167.587 72.353C167.309 72.2577 166.964 72.21 166.553 72.21C166.003 72.21 165.519 72.309 165.101 72.507C164.683 72.6977 164.331 72.9763 164.045 73.343C163.767 73.7097 163.554 74.1533 163.407 74.674C163.268 75.1947 163.198 75.7777 163.198 76.423C163.198 77.0977 163.275 77.699 163.429 78.227C163.583 78.7477 163.8 79.1877 164.078 79.547C164.364 79.899 164.705 80.1703 165.101 80.361C165.505 80.5443 165.956 80.636 166.454 80.636C166.931 80.636 167.323 80.581 167.631 80.471C167.939 80.3537 168.192 80.2253 168.39 80.086C168.596 79.9467 168.764 79.822 168.896 79.712C169.036 79.5947 169.171 79.536 169.303 79.536C169.465 79.536 169.589 79.5983 169.677 79.723L170.227 80.438C169.985 80.7387 169.71 80.9953 169.402 81.208C169.094 81.4207 168.761 81.6003 168.401 81.747C168.049 81.8863 167.679 81.989 167.29 82.055C166.902 82.121 166.506 82.154 166.102 82.154C165.406 82.154 164.757 82.0257 164.155 81.769C163.561 81.5123 163.044 81.142 162.604 80.658C162.164 80.1667 161.82 79.5653 161.57 78.854C161.321 78.1427 161.196 77.3323 161.196 76.423C161.196 75.5943 161.31 74.828 161.537 74.124C161.772 73.42 162.109 72.815 162.549 72.309C162.997 71.7957 163.543 71.396 164.188 71.11C164.841 70.824 165.589 70.681 166.432 70.681C167.217 70.681 167.906 70.8093 168.5 71.066C169.102 71.3153 169.633 71.671 170.095 72.133L169.578 72.837ZM174.298 72.342C174.775 71.836 175.303 71.4327 175.882 71.132C176.462 70.8313 177.129 70.681 177.884 70.681C178.493 70.681 179.028 70.7837 179.49 70.989C179.96 71.187 180.348 71.473 180.656 71.847C180.972 72.2137 181.21 72.6573 181.371 73.178C181.533 73.6987 181.613 74.2743 181.613 74.905V82H179.644V74.905C179.644 74.0617 179.45 73.409 179.061 72.947C178.68 72.4777 178.097 72.243 177.312 72.243C176.733 72.243 176.19 72.3823 175.684 72.661C175.186 72.9397 174.724 73.3173 174.298 73.794V82H172.329V65.797H174.298V72.342ZM197.615 66.237V82H196.548C196.379 82 196.236 81.9707 196.119 81.912C196.009 81.8533 195.899 81.7543 195.789 81.615L186.67 69.735C186.685 69.9183 186.696 70.098 186.703 70.274C186.71 70.45 186.714 70.615 186.714 70.769V82H184.844V66.237H185.944C186.039 66.237 186.12 66.2443 186.186 66.259C186.252 66.2663 186.311 66.2847 186.362 66.314C186.413 66.336 186.465 66.3727 186.516 66.424C186.567 66.468 186.622 66.5267 186.681 66.6L195.8 78.469C195.785 78.2783 195.771 78.095 195.756 77.919C195.749 77.7357 195.745 77.5633 195.745 77.402V66.237H197.615ZM203.079 70.857V82H201.121V70.857H203.079ZM203.497 67.359C203.497 67.5497 203.457 67.7293 203.376 67.898C203.303 68.0593 203.2 68.206 203.068 68.338C202.943 68.4627 202.793 68.5617 202.617 68.635C202.448 68.7083 202.269 68.745 202.078 68.745C201.887 68.745 201.708 68.7083 201.539 68.635C201.378 68.5617 201.235 68.4627 201.11 68.338C200.985 68.206 200.886 68.0593 200.813 67.898C200.74 67.7293 200.703 67.5497 200.703 67.359C200.703 67.1683 200.74 66.9887 200.813 66.82C200.886 66.644 200.985 66.4937 201.11 66.369C201.235 66.237 201.378 66.1343 201.539 66.061C201.708 65.9877 201.887 65.951 202.078 65.951C202.269 65.951 202.448 65.9877 202.617 66.061C202.793 66.1343 202.943 66.237 203.068 66.369C203.2 66.4937 203.303 66.644 203.376 66.82C203.457 66.9887 203.497 67.1683 203.497 67.359ZM210.179 76.555C210.575 76.555 210.923 76.5 211.224 76.39C211.525 76.28 211.778 76.126 211.983 75.928C212.188 75.73 212.342 75.4953 212.445 75.224C212.548 74.9453 212.599 74.641 212.599 74.311C212.599 73.629 212.39 73.0863 211.972 72.683C211.561 72.2797 210.964 72.078 210.179 72.078C209.387 72.078 208.782 72.2797 208.364 72.683C207.953 73.0863 207.748 73.629 207.748 74.311C207.748 74.641 207.799 74.9453 207.902 75.224C208.012 75.4953 208.17 75.73 208.375 75.928C208.58 76.126 208.833 76.28 209.134 76.39C209.435 76.5 209.783 76.555 210.179 76.555ZM213.71 82.605C213.71 82.3337 213.633 82.1137 213.479 81.945C213.325 81.7763 213.116 81.6443 212.852 81.549C212.595 81.4537 212.295 81.3877 211.95 81.351C211.605 81.307 211.239 81.274 210.85 81.252C210.469 81.23 210.08 81.208 209.684 81.186C209.288 81.164 208.907 81.1273 208.54 81.076C208.129 81.2667 207.792 81.5087 207.528 81.802C207.271 82.088 207.143 82.4253 207.143 82.814C207.143 83.0633 207.205 83.2943 207.33 83.507C207.462 83.727 207.66 83.914 207.924 84.068C208.188 84.2293 208.518 84.354 208.914 84.442C209.317 84.5373 209.79 84.585 210.333 84.585C210.861 84.585 211.334 84.5373 211.752 84.442C212.17 84.3467 212.522 84.211 212.808 84.035C213.101 83.859 213.325 83.65 213.479 83.408C213.633 83.166 213.71 82.8983 213.71 82.605ZM215.701 71.297V72.023C215.701 72.265 215.547 72.419 215.239 72.485L213.974 72.65C214.223 73.134 214.348 73.6693 214.348 74.256C214.348 74.7987 214.242 75.2937 214.029 75.741C213.824 76.181 213.538 76.5587 213.171 76.874C212.804 77.1893 212.364 77.4313 211.851 77.6C211.338 77.7687 210.78 77.853 210.179 77.853C209.658 77.853 209.167 77.7907 208.705 77.666C208.47 77.8127 208.291 77.9703 208.166 78.139C208.041 78.3003 207.979 78.4653 207.979 78.634C207.979 78.898 208.085 79.0997 208.298 79.239C208.518 79.371 208.804 79.4663 209.156 79.525C209.508 79.5837 209.908 79.6203 210.355 79.635C210.81 79.6497 211.272 79.6753 211.741 79.712C212.218 79.7413 212.68 79.7963 213.127 79.877C213.582 79.9577 213.985 80.0897 214.337 80.273C214.689 80.4563 214.971 80.7093 215.184 81.032C215.404 81.3547 215.514 81.7727 215.514 82.286C215.514 82.7627 215.393 83.2247 215.151 83.672C214.916 84.1193 214.575 84.5153 214.128 84.86C213.681 85.212 213.131 85.4907 212.478 85.696C211.833 85.9087 211.103 86.015 210.289 86.015C209.475 86.015 208.764 85.9343 208.155 85.773C207.546 85.6117 207.04 85.3953 206.637 85.124C206.234 84.8527 205.929 84.5373 205.724 84.178C205.526 83.826 205.427 83.4557 205.427 83.067C205.427 82.517 205.599 82.0513 205.944 81.67C206.289 81.2887 206.762 80.9843 207.363 80.757C207.033 80.6103 206.769 80.416 206.571 80.174C206.38 79.9247 206.285 79.591 206.285 79.173C206.285 79.0117 206.314 78.8467 206.373 78.678C206.432 78.502 206.52 78.3297 206.637 78.161C206.762 77.985 206.912 77.82 207.088 77.666C207.264 77.512 207.469 77.3763 207.704 77.259C207.154 76.951 206.725 76.544 206.417 76.038C206.109 75.5247 205.955 74.9307 205.955 74.256C205.955 73.7133 206.058 73.222 206.263 72.782C206.476 72.3347 206.769 71.957 207.143 71.649C207.517 71.3337 207.961 71.0917 208.474 70.923C208.995 70.7543 209.563 70.67 210.179 70.67C210.663 70.67 211.114 70.725 211.532 70.835C211.95 70.9377 212.331 71.0917 212.676 71.297H215.701ZM219.695 72.342C220.171 71.836 220.699 71.4327 221.279 71.132C221.858 70.8313 222.525 70.681 223.281 70.681C223.889 70.681 224.425 70.7837 224.887 70.989C225.356 71.187 225.745 71.473 226.053 71.847C226.368 72.2137 226.606 72.6573 226.768 73.178C226.929 73.6987 227.01 74.2743 227.01 74.905V82H225.041V74.905C225.041 74.0617 224.846 73.409 224.458 72.947C224.076 72.4777 223.493 72.243 222.709 72.243C222.129 72.243 221.587 72.3823 221.081 72.661C220.582 72.9397 220.12 73.3173 219.695 73.794V82H217.726V65.797H219.695V72.342ZM233.264 82.176C232.384 82.176 231.706 81.9303 231.229 81.439C230.76 80.9477 230.525 80.24 230.525 79.316V72.496H229.183C229.066 72.496 228.967 72.463 228.886 72.397C228.805 72.3237 228.765 72.2137 228.765 72.067V71.286L230.591 71.055L231.042 67.612C231.064 67.502 231.112 67.414 231.185 67.348C231.266 67.2747 231.368 67.238 231.493 67.238H232.483V71.077H235.706V72.496H232.483V79.184C232.483 79.6533 232.597 80.0017 232.824 80.229C233.051 80.4563 233.345 80.57 233.704 80.57C233.909 80.57 234.085 80.5443 234.232 80.493C234.386 80.4343 234.518 80.372 234.628 80.306C234.738 80.24 234.83 80.1813 234.903 80.13C234.984 80.0713 235.053 80.042 235.112 80.042C235.215 80.042 235.306 80.1043 235.387 80.229L235.959 81.164C235.622 81.4793 235.215 81.7287 234.738 81.912C234.261 82.088 233.77 82.176 233.264 82.176ZM237.552 74.575H242.986V76.236H237.552V74.575ZM256.441 74.124C256.441 75.5027 256.29 76.698 255.99 77.71C255.696 78.7147 255.293 79.547 254.78 80.207C254.266 80.867 253.658 81.3583 252.954 81.681C252.257 82.0037 251.509 82.165 250.71 82.165C249.903 82.165 249.151 82.0037 248.455 81.681C247.765 81.3583 247.164 80.867 246.651 80.207C246.137 79.547 245.734 78.7147 245.441 77.71C245.147 76.698 245.001 75.5027 245.001 74.124C245.001 72.7453 245.147 71.55 245.441 70.538C245.734 69.526 246.137 68.69 246.651 68.03C247.164 67.3627 247.765 66.8677 248.455 66.545C249.151 66.2223 249.903 66.061 250.71 66.061C251.509 66.061 252.257 66.2223 252.954 66.545C253.658 66.8677 254.266 67.3627 254.78 68.03C255.293 68.69 255.696 69.526 255.99 70.538C256.29 71.55 256.441 72.7453 256.441 74.124ZM254.406 74.124C254.406 72.9213 254.303 71.913 254.098 71.099C253.9 70.2777 253.628 69.6177 253.284 69.119C252.946 68.6203 252.554 68.2647 252.107 68.052C251.659 67.832 251.194 67.722 250.71 67.722C250.226 67.722 249.76 67.832 249.313 68.052C248.865 68.2647 248.473 68.6203 248.136 69.119C247.798 69.6177 247.527 70.2777 247.322 71.099C247.124 71.913 247.025 72.9213 247.025 74.124C247.025 75.3267 247.124 76.335 247.322 77.149C247.527 77.963 247.798 78.6193 248.136 79.118C248.473 79.6167 248.865 79.976 249.313 80.196C249.76 80.4087 250.226 80.515 250.71 80.515C251.194 80.515 251.659 80.4087 252.107 80.196C252.554 79.976 252.946 79.6167 253.284 79.118C253.628 78.6193 253.9 77.963 254.098 77.149C254.303 76.335 254.406 75.3267 254.406 74.124ZM268.301 80.504V82H259.853V80.504H263.23V69.757C263.23 69.4343 263.241 69.108 263.263 68.778L260.458 71.187C260.362 71.2677 260.267 71.319 260.172 71.341C260.076 71.3557 259.988 71.3557 259.908 71.341C259.827 71.3263 259.75 71.297 259.677 71.253C259.611 71.209 259.559 71.1613 259.523 71.11L258.907 70.263L263.604 66.204H265.199V80.504H268.301ZM271.239 74.575H276.673V76.236H271.239V74.575ZM290.428 67.029C290.428 67.271 290.355 67.5057 290.208 67.733L281.287 80.262H290.296V82H278.482V81.164C278.482 81.0467 278.501 80.9367 278.537 80.834C278.581 80.7313 278.633 80.6323 278.691 80.537L287.634 67.975H278.9V66.237H290.428V67.029ZM299.606 75.213C299.606 74.7583 299.54 74.344 299.408 73.97C299.283 73.5887 299.096 73.2623 298.847 72.991C298.605 72.7123 298.308 72.4997 297.956 72.353C297.604 72.199 297.204 72.122 296.757 72.122C295.818 72.122 295.074 72.397 294.524 72.947C293.981 73.4897 293.644 74.245 293.512 75.213H299.606ZM301.19 80.438C300.948 80.7313 300.658 80.988 300.321 81.208C299.983 81.4207 299.62 81.5967 299.232 81.736C298.85 81.8753 298.454 81.978 298.044 82.044C297.633 82.1173 297.226 82.154 296.823 82.154C296.053 82.154 295.341 82.0257 294.689 81.769C294.043 81.505 293.482 81.1237 293.006 80.625C292.536 80.119 292.17 79.4957 291.906 78.755C291.642 78.0143 291.51 77.1637 291.51 76.203C291.51 75.4257 291.627 74.6997 291.862 74.025C292.104 73.3503 292.448 72.7673 292.896 72.276C293.343 71.7773 293.889 71.3887 294.535 71.11C295.18 70.824 295.906 70.681 296.713 70.681C297.38 70.681 297.996 70.7947 298.561 71.022C299.133 71.242 299.624 71.5647 300.035 71.99C300.453 72.408 300.779 72.9287 301.014 73.552C301.248 74.168 301.366 74.872 301.366 75.664C301.366 75.972 301.333 76.1773 301.267 76.28C301.201 76.3827 301.076 76.434 300.893 76.434H293.446C293.468 77.138 293.563 77.7503 293.732 78.271C293.908 78.7917 294.15 79.228 294.458 79.58C294.766 79.9247 295.132 80.185 295.558 80.361C295.983 80.5297 296.46 80.614 296.988 80.614C297.479 80.614 297.901 80.559 298.253 80.449C298.612 80.3317 298.92 80.207 299.177 80.075C299.433 79.943 299.646 79.822 299.815 79.712C299.991 79.5947 300.141 79.536 300.266 79.536C300.427 79.536 300.552 79.5983 300.64 79.723L301.19 80.438ZM305.63 73.09C305.982 72.3273 306.414 71.7333 306.928 71.308C307.441 70.8753 308.068 70.659 308.809 70.659C309.043 70.659 309.267 70.6847 309.48 70.736C309.7 70.7873 309.894 70.868 310.063 70.978L309.92 72.441C309.876 72.6243 309.766 72.716 309.59 72.716C309.487 72.716 309.337 72.694 309.139 72.65C308.941 72.606 308.717 72.584 308.468 72.584C308.116 72.584 307.8 72.6353 307.522 72.738C307.25 72.8407 307.005 72.9947 306.785 73.2C306.572 73.398 306.378 73.6473 306.202 73.948C306.033 74.2413 305.879 74.5787 305.74 74.96V82H303.771V70.857H304.893C305.105 70.857 305.252 70.8973 305.333 70.978C305.413 71.0587 305.468 71.198 305.498 71.396L305.63 73.09ZM316.03 70.681C316.844 70.681 317.578 70.8167 318.23 71.088C318.883 71.3593 319.44 71.7443 319.902 72.243C320.364 72.7417 320.716 73.3467 320.958 74.058C321.208 74.762 321.332 75.5503 321.332 76.423C321.332 77.303 321.208 78.095 320.958 78.799C320.716 79.503 320.364 80.1043 319.902 80.603C319.44 81.1017 318.883 81.4867 318.23 81.758C317.578 82.022 316.844 82.154 316.03 82.154C315.209 82.154 314.468 82.022 313.808 81.758C313.156 81.4867 312.598 81.1017 312.136 80.603C311.674 80.1043 311.319 79.503 311.069 78.799C310.827 78.095 310.706 77.303 310.706 76.423C310.706 75.5503 310.827 74.762 311.069 74.058C311.319 73.3467 311.674 72.7417 312.136 72.243C312.598 71.7443 313.156 71.3593 313.808 71.088C314.468 70.8167 315.209 70.681 316.03 70.681ZM316.03 80.625C317.13 80.625 317.952 80.2583 318.494 79.525C319.037 78.7843 319.308 77.754 319.308 76.434C319.308 75.1067 319.037 74.0727 318.494 73.332C317.952 72.5913 317.13 72.221 316.03 72.221C315.473 72.221 314.985 72.3163 314.567 72.507C314.157 72.6977 313.812 72.9727 313.533 73.332C313.262 73.6913 313.057 74.135 312.917 74.663C312.785 75.1837 312.719 75.774 312.719 76.434C312.719 77.754 312.991 78.7843 313.533 79.525C314.083 80.2583 314.916 80.625 316.03 80.625ZM323.64 74.575H329.074V76.236H323.64V74.575ZM60.5315 99.145H61.3345C61.6132 99.145 61.8368 99.112 62.0055 99.046C62.1742 98.9727 62.3282 98.8517 62.4675 98.683L67.7145 92.743C67.8612 92.5523 68.0152 92.4203 68.1765 92.347C68.3378 92.2737 68.5358 92.237 68.7705 92.237H70.5745L64.5685 99.024C64.4218 99.2 64.2788 99.3467 64.1395 99.464C64.0075 99.574 63.8645 99.6657 63.7105 99.739C63.9085 99.805 64.0882 99.904 64.2495 100.036C64.4108 100.161 64.5685 100.326 64.7225 100.531L70.9925 108H69.1445C69.0052 108 68.8842 107.993 68.7815 107.978C68.6862 107.956 68.6018 107.927 68.5285 107.89C68.4552 107.846 68.3892 107.798 68.3305 107.747C68.2792 107.688 68.2278 107.622 68.1765 107.549L62.7425 101.29C62.5958 101.107 62.4382 100.978 62.2695 100.905C62.1008 100.824 61.8442 100.784 61.4995 100.784H60.5315V108H58.4085V92.237H60.5315V99.145ZM74.3609 98.474C74.6029 98.2027 74.8596 97.957 75.1309 97.737C75.4022 97.517 75.6882 97.33 75.9889 97.176C76.2969 97.0147 76.6196 96.8937 76.9569 96.813C77.3016 96.725 77.6719 96.681 78.0679 96.681C78.6766 96.681 79.2119 96.7837 79.6739 96.989C80.1432 97.187 80.5319 97.473 80.8399 97.847C81.1552 98.2137 81.3936 98.6573 81.5549 99.178C81.7162 99.6987 81.7969 100.274 81.7969 100.905V108H79.8279V100.905C79.8279 100.062 79.6336 99.409 79.2449 98.947C78.8636 98.4777 78.2806 98.243 77.4959 98.243C76.9166 98.243 76.3739 98.3823 75.8679 98.661C75.3692 98.9397 74.9072 99.3173 74.4819 99.794V108H72.5129V96.857H73.6899C73.9686 96.857 74.1409 96.9927 74.2069 97.264L74.3609 98.474ZM89.4775 96.681C90.2915 96.681 91.0248 96.8167 91.6775 97.088C92.3302 97.3593 92.8875 97.7443 93.3495 98.243C93.8115 98.7417 94.1635 99.3467 94.4055 100.058C94.6548 100.762 94.7795 101.55 94.7795 102.423C94.7795 103.303 94.6548 104.095 94.4055 104.799C94.1635 105.503 93.8115 106.104 93.3495 106.603C92.8875 107.102 92.3302 107.487 91.6775 107.758C91.0248 108.022 90.2915 108.154 89.4775 108.154C88.6562 108.154 87.9155 108.022 87.2555 107.758C86.6028 107.487 86.0455 107.102 85.5835 106.603C85.1215 106.104 84.7658 105.503 84.5165 104.799C84.2745 104.095 84.1535 103.303 84.1535 102.423C84.1535 101.55 84.2745 100.762 84.5165 100.058C84.7658 99.3467 85.1215 98.7417 85.5835 98.243C86.0455 97.7443 86.6028 97.3593 87.2555 97.088C87.9155 96.8167 88.6562 96.681 89.4775 96.681ZM89.4775 106.625C90.5775 106.625 91.3988 106.258 91.9415 105.525C92.4842 104.784 92.7555 103.754 92.7555 102.434C92.7555 101.107 92.4842 100.073 91.9415 99.332C91.3988 98.5913 90.5775 98.221 89.4775 98.221C88.9202 98.221 88.4325 98.3163 88.0145 98.507C87.6038 98.6977 87.2592 98.9727 86.9805 99.332C86.7092 99.6913 86.5038 100.135 86.3645 100.663C86.2325 101.184 86.1665 101.774 86.1665 102.434C86.1665 103.754 86.4378 104.784 86.9805 105.525C87.5305 106.258 88.3628 106.625 89.4775 106.625ZM112.458 96.857L108.85 108H107.299C107.108 108 106.976 107.875 106.903 107.626L104.439 100.069C104.38 99.9003 104.333 99.7317 104.296 99.563C104.259 99.387 104.223 99.2147 104.186 99.046C104.149 99.2147 104.113 99.387 104.076 99.563C104.039 99.7317 103.992 99.904 103.933 100.08L101.425 107.626C101.359 107.875 101.212 108 100.985 108H99.511L95.903 96.857H97.443C97.597 96.857 97.7254 96.8973 97.828 96.978C97.938 97.0587 98.0114 97.154 98.048 97.264L100.182 104.436C100.307 104.964 100.406 105.463 100.479 105.932C100.545 105.69 100.611 105.444 100.677 105.195C100.75 104.946 100.827 104.693 100.908 104.436L103.262 97.22C103.299 97.11 103.361 97.0183 103.449 96.945C103.544 96.8717 103.658 96.835 103.79 96.835H104.648C104.795 96.835 104.916 96.8717 105.011 96.945C105.106 97.0183 105.172 97.11 105.209 97.22L107.508 104.436C107.589 104.693 107.662 104.946 107.728 105.195C107.794 105.444 107.856 105.69 107.915 105.932C107.952 105.69 107.996 105.448 108.047 105.206C108.106 104.957 108.168 104.7 108.234 104.436L110.412 97.264C110.449 97.1467 110.518 97.0513 110.621 96.978C110.724 96.8973 110.845 96.857 110.984 96.857H112.458ZM116.388 91.797V108H114.43V91.797H116.388ZM127.022 101.213C127.022 100.758 126.956 100.344 126.824 99.97C126.699 99.5887 126.512 99.2623 126.263 98.991C126.021 98.7123 125.724 98.4997 125.372 98.353C125.02 98.199 124.62 98.122 124.173 98.122C123.234 98.122 122.49 98.397 121.94 98.947C121.397 99.4897 121.06 100.245 120.928 101.213H127.022ZM128.606 106.438C128.364 106.731 128.074 106.988 127.737 107.208C127.399 107.421 127.036 107.597 126.648 107.736C126.266 107.875 125.87 107.978 125.46 108.044C125.049 108.117 124.642 108.154 124.239 108.154C123.469 108.154 122.757 108.026 122.105 107.769C121.459 107.505 120.898 107.124 120.422 106.625C119.952 106.119 119.586 105.496 119.322 104.755C119.058 104.014 118.926 103.164 118.926 102.203C118.926 101.426 119.043 100.7 119.278 100.025C119.52 99.3503 119.864 98.7673 120.312 98.276C120.759 97.7773 121.305 97.3887 121.951 97.11C122.596 96.824 123.322 96.681 124.129 96.681C124.796 96.681 125.412 96.7947 125.977 97.022C126.549 97.242 127.04 97.5647 127.451 97.99C127.869 98.408 128.195 98.9287 128.43 99.552C128.664 100.168 128.782 100.872 128.782 101.664C128.782 101.972 128.749 102.177 128.683 102.28C128.617 102.383 128.492 102.434 128.309 102.434H120.862C120.884 103.138 120.979 103.75 121.148 104.271C121.324 104.792 121.566 105.228 121.874 105.58C122.182 105.925 122.548 106.185 122.974 106.361C123.399 106.53 123.876 106.614 124.404 106.614C124.895 106.614 125.317 106.559 125.669 106.449C126.028 106.332 126.336 106.207 126.593 106.075C126.849 105.943 127.062 105.822 127.231 105.712C127.407 105.595 127.557 105.536 127.682 105.536C127.843 105.536 127.968 105.598 128.056 105.723L128.606 106.438ZM138.447 99.508C138.08 99.0167 137.684 98.6757 137.259 98.485C136.833 98.287 136.357 98.188 135.829 98.188C134.795 98.188 133.999 98.5583 133.442 99.299C132.884 100.04 132.606 101.096 132.606 102.467C132.606 103.193 132.668 103.816 132.793 104.337C132.917 104.85 133.101 105.276 133.343 105.613C133.585 105.943 133.882 106.185 134.234 106.339C134.586 106.493 134.985 106.57 135.433 106.57C136.078 106.57 136.639 106.423 137.116 106.13C137.6 105.837 138.043 105.422 138.447 104.887V99.508ZM140.405 91.797V108H139.239C138.96 108 138.784 107.864 138.711 107.593L138.535 106.24C138.058 106.812 137.515 107.274 136.907 107.626C136.298 107.978 135.594 108.154 134.795 108.154C134.157 108.154 133.577 108.033 133.057 107.791C132.536 107.542 132.092 107.179 131.726 106.702C131.359 106.225 131.077 105.631 130.879 104.92C130.681 104.209 130.582 103.391 130.582 102.467C130.582 101.646 130.692 100.883 130.912 100.179C131.132 99.4677 131.447 98.8517 131.858 98.331C132.268 97.8103 132.771 97.4033 133.365 97.11C133.966 96.8093 134.641 96.659 135.389 96.659C136.071 96.659 136.654 96.7763 137.138 97.011C137.629 97.2383 138.065 97.5573 138.447 97.968V91.797H140.405ZM147.38 102.555C147.776 102.555 148.125 102.5 148.425 102.39C148.726 102.28 148.979 102.126 149.184 101.928C149.39 101.73 149.544 101.495 149.646 101.224C149.749 100.945 149.8 100.641 149.8 100.311C149.8 99.629 149.591 99.0863 149.173 98.683C148.763 98.2797 148.165 98.078 147.38 98.078C146.588 98.078 145.983 98.2797 145.565 98.683C145.155 99.0863 144.949 99.629 144.949 100.311C144.949 100.641 145.001 100.945 145.103 101.224C145.213 101.495 145.371 101.73 145.576 101.928C145.782 102.126 146.035 102.28 146.335 102.39C146.636 102.5 146.984 102.555 147.38 102.555ZM150.911 108.605C150.911 108.334 150.834 108.114 150.68 107.945C150.526 107.776 150.317 107.644 150.053 107.549C149.797 107.454 149.496 107.388 149.151 107.351C148.807 107.307 148.44 107.274 148.051 107.252C147.67 107.23 147.281 107.208 146.885 107.186C146.489 107.164 146.108 107.127 145.741 107.076C145.331 107.267 144.993 107.509 144.729 107.802C144.473 108.088 144.344 108.425 144.344 108.814C144.344 109.063 144.407 109.294 144.531 109.507C144.663 109.727 144.861 109.914 145.125 110.068C145.389 110.229 145.719 110.354 146.115 110.442C146.519 110.537 146.992 110.585 147.534 110.585C148.062 110.585 148.535 110.537 148.953 110.442C149.371 110.347 149.723 110.211 150.009 110.035C150.303 109.859 150.526 109.65 150.68 109.408C150.834 109.166 150.911 108.898 150.911 108.605ZM152.902 97.297V98.023C152.902 98.265 152.748 98.419 152.44 98.485L151.175 98.65C151.425 99.134 151.549 99.6693 151.549 100.256C151.549 100.799 151.443 101.294 151.23 101.741C151.025 102.181 150.739 102.559 150.372 102.874C150.006 103.189 149.566 103.431 149.052 103.6C148.539 103.769 147.982 103.853 147.38 103.853C146.86 103.853 146.368 103.791 145.906 103.666C145.672 103.813 145.492 103.97 145.367 104.139C145.243 104.3 145.18 104.465 145.18 104.634C145.18 104.898 145.287 105.1 145.499 105.239C145.719 105.371 146.005 105.466 146.357 105.525C146.709 105.584 147.109 105.62 147.556 105.635C148.011 105.65 148.473 105.675 148.942 105.712C149.419 105.741 149.881 105.796 150.328 105.877C150.783 105.958 151.186 106.09 151.538 106.273C151.89 106.456 152.173 106.709 152.385 107.032C152.605 107.355 152.715 107.773 152.715 108.286C152.715 108.763 152.594 109.225 152.352 109.672C152.118 110.119 151.777 110.515 151.329 110.86C150.882 111.212 150.332 111.491 149.679 111.696C149.034 111.909 148.304 112.015 147.49 112.015C146.676 112.015 145.965 111.934 145.356 111.773C144.748 111.612 144.242 111.395 143.838 111.124C143.435 110.853 143.131 110.537 142.925 110.178C142.727 109.826 142.628 109.456 142.628 109.067C142.628 108.517 142.801 108.051 143.145 107.67C143.49 107.289 143.963 106.984 144.564 106.757C144.234 106.61 143.97 106.416 143.772 106.174C143.582 105.925 143.486 105.591 143.486 105.173C143.486 105.012 143.516 104.847 143.574 104.678C143.633 104.502 143.721 104.33 143.838 104.161C143.963 103.985 144.113 103.82 144.289 103.666C144.465 103.512 144.671 103.376 144.905 103.259C144.355 102.951 143.926 102.544 143.618 102.038C143.31 101.525 143.156 100.931 143.156 100.256C143.156 99.7133 143.259 99.222 143.464 98.782C143.677 98.3347 143.97 97.957 144.344 97.649C144.718 97.3337 145.162 97.0917 145.675 96.923C146.196 96.7543 146.764 96.67 147.38 96.67C147.864 96.67 148.315 96.725 148.733 96.835C149.151 96.9377 149.533 97.0917 149.877 97.297H152.902ZM162.213 101.213C162.213 100.758 162.147 100.344 162.015 99.97C161.89 99.5887 161.703 99.2623 161.454 98.991C161.212 98.7123 160.915 98.4997 160.563 98.353C160.211 98.199 159.811 98.122 159.364 98.122C158.425 98.122 157.681 98.397 157.131 98.947C156.588 99.4897 156.251 100.245 156.119 101.213H162.213ZM163.797 106.438C163.555 106.731 163.265 106.988 162.928 107.208C162.591 107.421 162.228 107.597 161.839 107.736C161.458 107.875 161.062 107.978 160.651 108.044C160.24 108.117 159.833 108.154 159.43 108.154C158.66 108.154 157.949 108.026 157.296 107.769C156.651 107.505 156.09 107.124 155.613 106.625C155.144 106.119 154.777 105.496 154.513 104.755C154.249 104.014 154.117 103.164 154.117 102.203C154.117 101.426 154.234 100.7 154.469 100.025C154.711 99.3503 155.056 98.7673 155.503 98.276C155.95 97.7773 156.497 97.3887 157.142 97.11C157.787 96.824 158.513 96.681 159.32 96.681C159.987 96.681 160.603 96.7947 161.168 97.022C161.74 97.242 162.231 97.5647 162.642 97.99C163.06 98.408 163.386 98.9287 163.621 99.552C163.856 100.168 163.973 100.872 163.973 101.664C163.973 101.972 163.94 102.177 163.874 102.28C163.808 102.383 163.683 102.434 163.5 102.434H156.053C156.075 103.138 156.17 103.75 156.339 104.271C156.515 104.792 156.757 105.228 157.065 105.58C157.373 105.925 157.74 106.185 158.165 106.361C158.59 106.53 159.067 106.614 159.595 106.614C160.086 106.614 160.508 106.559 160.86 106.449C161.219 106.332 161.527 106.207 161.784 106.075C162.041 105.943 162.253 105.822 162.422 105.712C162.598 105.595 162.748 105.536 162.873 105.536C163.034 105.536 163.159 105.598 163.247 105.723L163.797 106.438ZM177.122 100.41C177.731 100.41 178.266 100.329 178.728 100.168C179.197 100.007 179.59 99.783 179.905 99.497C180.228 99.2037 180.47 98.8553 180.631 98.452C180.792 98.0487 180.873 97.605 180.873 97.121C180.873 96.1163 180.561 95.3317 179.938 94.767C179.322 94.2023 178.383 93.92 177.122 93.92H174.592V100.41H177.122ZM177.122 92.237C178.119 92.237 178.985 92.3543 179.718 92.589C180.459 92.8163 181.071 93.1427 181.555 93.568C182.039 93.9933 182.398 94.5067 182.633 95.108C182.875 95.7093 182.996 96.3803 182.996 97.121C182.996 97.8543 182.868 98.5253 182.611 99.134C182.354 99.7427 181.977 100.267 181.478 100.707C180.987 101.147 180.374 101.492 179.641 101.741C178.915 101.983 178.075 102.104 177.122 102.104H174.592V108H172.469V92.237H177.122ZM186.864 99.09C187.216 98.3273 187.649 97.7333 188.162 97.308C188.675 96.8753 189.302 96.659 190.043 96.659C190.278 96.659 190.501 96.6847 190.714 96.736C190.934 96.7873 191.128 96.868 191.297 96.978L191.154 98.441C191.11 98.6243 191 98.716 190.824 98.716C190.721 98.716 190.571 98.694 190.373 98.65C190.175 98.606 189.951 98.584 189.702 98.584C189.35 98.584 189.035 98.6353 188.756 98.738C188.485 98.8407 188.239 98.9947 188.019 99.2C187.806 99.398 187.612 99.6473 187.436 99.948C187.267 100.241 187.113 100.579 186.974 100.96V108H185.005V96.857H186.127C186.34 96.857 186.486 96.8973 186.567 96.978C186.648 97.0587 186.703 97.198 186.732 97.396L186.864 99.09ZM197.265 96.681C198.079 96.681 198.812 96.8167 199.465 97.088C200.117 97.3593 200.675 97.7443 201.137 98.243C201.599 98.7417 201.951 99.3467 202.193 100.058C202.442 100.762 202.567 101.55 202.567 102.423C202.567 103.303 202.442 104.095 202.193 104.799C201.951 105.503 201.599 106.104 201.137 106.603C200.675 107.102 200.117 107.487 199.465 107.758C198.812 108.022 198.079 108.154 197.265 108.154C196.443 108.154 195.703 108.022 195.043 107.758C194.39 107.487 193.833 107.102 193.371 106.603C192.909 106.104 192.553 105.503 192.304 104.799C192.062 104.095 191.941 103.303 191.941 102.423C191.941 101.55 192.062 100.762 192.304 100.058C192.553 99.3467 192.909 98.7417 193.371 98.243C193.833 97.7443 194.39 97.3593 195.043 97.088C195.703 96.8167 196.443 96.681 197.265 96.681ZM197.265 106.625C198.365 106.625 199.186 106.258 199.729 105.525C200.271 104.784 200.543 103.754 200.543 102.434C200.543 101.107 200.271 100.073 199.729 99.332C199.186 98.5913 198.365 98.221 197.265 98.221C196.707 98.221 196.22 98.3163 195.802 98.507C195.391 98.6977 195.046 98.9727 194.768 99.332C194.496 99.6913 194.291 100.135 194.152 100.663C194.02 101.184 193.954 101.774 193.954 102.434C193.954 103.754 194.225 104.784 194.768 105.525C195.318 106.258 196.15 106.625 197.265 106.625ZM209.747 96.681C210.561 96.681 211.294 96.8167 211.947 97.088C212.6 97.3593 213.157 97.7443 213.619 98.243C214.081 98.7417 214.433 99.3467 214.675 100.058C214.924 100.762 215.049 101.55 215.049 102.423C215.049 103.303 214.924 104.095 214.675 104.799C214.433 105.503 214.081 106.104 213.619 106.603C213.157 107.102 212.6 107.487 211.947 107.758C211.294 108.022 210.561 108.154 209.747 108.154C208.926 108.154 208.185 108.022 207.525 107.758C206.872 107.487 206.315 107.102 205.853 106.603C205.391 106.104 205.035 105.503 204.786 104.799C204.544 104.095 204.423 103.303 204.423 102.423C204.423 101.55 204.544 100.762 204.786 100.058C205.035 99.3467 205.391 98.7417 205.853 98.243C206.315 97.7443 206.872 97.3593 207.525 97.088C208.185 96.8167 208.926 96.681 209.747 96.681ZM209.747 106.625C210.847 106.625 211.668 106.258 212.211 105.525C212.754 104.784 213.025 103.754 213.025 102.434C213.025 101.107 212.754 100.073 212.211 99.332C211.668 98.5913 210.847 98.221 209.747 98.221C209.19 98.221 208.702 98.3163 208.284 98.507C207.873 98.6977 207.529 98.9727 207.25 99.332C206.979 99.6913 206.773 100.135 206.634 100.663C206.502 101.184 206.436 101.774 206.436 102.434C206.436 103.754 206.707 104.784 207.25 105.525C207.8 106.258 208.632 106.625 209.747 106.625ZM218.022 108V98.529L216.79 98.386C216.636 98.3493 216.508 98.2943 216.405 98.221C216.31 98.1403 216.262 98.0267 216.262 97.88V97.077H218.022V95.999C218.022 95.361 218.11 94.7963 218.286 94.305C218.469 93.8063 218.726 93.3883 219.056 93.051C219.393 92.7063 219.797 92.446 220.266 92.27C220.735 92.094 221.263 92.006 221.85 92.006C222.349 92.006 222.807 92.0793 223.225 92.226L223.181 93.205C223.166 93.381 223.067 93.4763 222.884 93.491C222.708 93.5057 222.47 93.513 222.169 93.513C221.832 93.513 221.524 93.557 221.245 93.645C220.974 93.733 220.739 93.876 220.541 94.074C220.343 94.272 220.189 94.5323 220.079 94.855C219.976 95.1777 219.925 95.5773 219.925 96.054V97.077H223.137V98.496H219.991V108H218.022ZM231.499 98.694C231.411 98.8553 231.275 98.936 231.092 98.936C230.982 98.936 230.857 98.8957 230.718 98.815C230.579 98.7343 230.406 98.6463 230.201 98.551C230.003 98.4483 229.765 98.3567 229.486 98.276C229.207 98.188 228.877 98.144 228.496 98.144C228.166 98.144 227.869 98.188 227.605 98.276C227.341 98.3567 227.114 98.4703 226.923 98.617C226.74 98.7637 226.597 98.936 226.494 99.134C226.399 99.3247 226.351 99.5337 226.351 99.761C226.351 100.047 226.432 100.285 226.593 100.476C226.762 100.667 226.982 100.832 227.253 100.971C227.524 101.11 227.832 101.235 228.177 101.345C228.522 101.448 228.874 101.561 229.233 101.686C229.6 101.803 229.955 101.935 230.3 102.082C230.645 102.229 230.953 102.412 231.224 102.632C231.495 102.852 231.712 103.123 231.873 103.446C232.042 103.761 232.126 104.143 232.126 104.59C232.126 105.103 232.034 105.58 231.851 106.02C231.668 106.453 231.396 106.83 231.037 107.153C230.678 107.468 230.238 107.718 229.717 107.901C229.196 108.084 228.595 108.176 227.913 108.176C227.136 108.176 226.432 108.051 225.801 107.802C225.17 107.545 224.635 107.219 224.195 106.823L224.657 106.075C224.716 105.98 224.785 105.906 224.866 105.855C224.947 105.804 225.049 105.778 225.174 105.778C225.306 105.778 225.445 105.829 225.592 105.932C225.739 106.035 225.915 106.148 226.12 106.273C226.333 106.398 226.589 106.511 226.89 106.614C227.191 106.717 227.565 106.768 228.012 106.768C228.393 106.768 228.727 106.72 229.013 106.625C229.299 106.522 229.537 106.387 229.728 106.218C229.919 106.049 230.058 105.855 230.146 105.635C230.241 105.415 230.289 105.18 230.289 104.931C230.289 104.623 230.205 104.37 230.036 104.172C229.875 103.967 229.658 103.794 229.387 103.655C229.116 103.508 228.804 103.384 228.452 103.281C228.107 103.171 227.752 103.057 227.385 102.94C227.026 102.823 226.67 102.691 226.318 102.544C225.973 102.39 225.665 102.199 225.394 101.972C225.123 101.745 224.903 101.466 224.734 101.136C224.573 100.799 224.492 100.392 224.492 99.915C224.492 99.4897 224.58 99.0827 224.756 98.694C224.932 98.298 225.189 97.9533 225.526 97.66C225.863 97.3593 226.278 97.121 226.769 96.945C227.26 96.769 227.821 96.681 228.452 96.681C229.185 96.681 229.842 96.7983 230.421 97.033C231.008 97.2603 231.514 97.5757 231.939 97.979L231.499 98.694ZM241.552 90.422V91.676H257.634V90.422H241.552ZM242.828 95.24V96.274H247.602V95.24H242.828ZM245.6 101.444V102.632H253.63V101.444H245.6ZM241.926 103.996V105.206H255.698V103.996H241.926ZM242.366 97.418V98.496H247.624V97.418H242.366ZM251.43 97.418V98.496H256.886V97.418H251.43ZM251.43 95.24V96.274H256.336V95.24H251.43ZM248.724 90.928V97.484H250.33V90.928H248.724ZM247.228 104.458V109.76H248.834V104.458H247.228ZM240.276 92.908V96.758H241.772V94.052H257.392V96.758H258.954V92.908H240.276ZM249.516 99.112C251.782 101.048 255.786 102.808 259.042 103.6C259.24 103.204 259.57 102.632 259.878 102.236C256.49 101.576 252.662 100.014 250.176 97.88H248.68C246.788 99.75 243.158 101.554 239.396 102.5C239.682 102.83 240.012 103.402 240.144 103.776C243.818 102.742 247.558 100.894 249.516 99.112ZM254.906 103.996V107.032C254.906 107.274 254.84 107.362 254.532 107.362C254.202 107.384 253.212 107.384 251.958 107.362C252.2 107.736 252.464 108.264 252.552 108.682C254.092 108.682 255.082 108.682 255.72 108.462C256.38 108.22 256.534 107.824 256.534 107.032V103.996H254.906ZM273.32 105.822V107.384H279.832V105.822H273.32ZM272.638 91.434V109.144H274.222V92.996H278.908V108.902H280.558V91.434H272.638ZM266.126 93.238V97.638C266.126 101.048 265.62 105.426 261.33 108.484C261.682 108.726 262.276 109.364 262.496 109.716C267.05 106.46 267.798 101.4 267.798 97.66V93.238H266.126ZM263.86 92.49V94.03H271.274V92.49H263.86ZM261.572 98.408V99.992H271.934V98.408H261.572ZM267.27 101.312L266.258 102.258C267.27 103.336 269.8 106.35 270.724 107.692L271.846 106.306C271.142 105.47 268.128 102.082 267.27 101.312ZM264.058 89.52C263.53 92.204 262.628 94.844 261.308 96.538C261.682 96.758 262.386 97.22 262.672 97.484C263.97 95.614 265.026 92.776 265.664 89.828L264.058 89.52ZM293.89 92.666H300.556V99.266H293.89V92.666ZM292.262 91.082V100.85H302.25V91.082H292.262ZM298.818 103.49C300.006 105.426 301.238 108 301.722 109.562L303.35 108.902C302.866 107.34 301.546 104.854 300.336 102.94L298.818 103.49ZM293.824 102.984C293.164 105.25 292.02 107.406 290.524 108.792C290.942 109.034 291.668 109.496 291.976 109.738C293.45 108.22 294.748 105.866 295.518 103.358L293.824 102.984ZM284.826 91.104C286.036 92.116 287.532 93.546 288.236 94.492L289.38 93.326C288.654 92.424 287.136 91.06 285.926 90.114L284.826 91.104ZM286.586 109.144C286.916 108.704 287.51 108.242 291.338 105.25C291.14 104.92 290.854 104.282 290.7 103.842L286.674 106.878L286.256 107.582L286.586 109.144ZM283.682 96.428V98.034H287.752V96.428H283.682ZM286.586 109.144C286.586 108.484 288.39 106.79 288.39 106.79V96.428H286.784V105.646C286.784 106.812 285.992 107.67 285.552 108.022C285.86 108.286 286.388 108.836 286.586 109.144ZM318.838 91.654V108.154H320.51V91.654H318.838ZM314.24 96.736V108.286H315.846V96.736H314.24ZM319.454 98.518V100.08H324.866V98.518H319.454ZM313.096 91.214V92.754H325.284V91.214H313.096ZM312.326 107.34V108.902H325.746V107.34H312.326ZM306.826 91.104C308.036 92.116 309.532 93.546 310.236 94.492L311.38 93.326C310.654 92.424 309.136 91.06 307.926 90.114L306.826 91.104ZM308.586 109.144C308.916 108.704 309.51 108.242 313.25 105.294C313.052 104.964 312.766 104.304 312.612 103.864L308.652 106.878L308.234 107.582L308.586 109.144ZM305.682 96.428V98.034H309.752V96.428H305.682ZM308.586 109.144C308.586 108.484 310.39 106.79 310.39 106.79V96.428H308.784V105.646C308.784 106.812 307.992 107.67 307.552 108.022C307.86 108.286 308.388 108.836 308.586 109.144ZM329.266 90.884V92.402H334.04V102.478H329.266V104.018H335.58V90.884H329.266ZM329.288 96.582V98.078H334.7V96.582H329.288ZM338.572 90.466V92.006H345.986V90.466H338.572ZM338.572 95.812V97.33H345.986V95.812H338.572ZM338.44 101.224V102.72H345.942V101.224H338.44ZM328.364 90.884V106.064H329.904V90.884H328.364ZM345.37 90.466V107.582C345.37 107.978 345.238 108.11 344.842 108.132C344.446 108.132 343.06 108.154 341.652 108.11C341.894 108.55 342.158 109.276 342.246 109.716C344.138 109.716 345.348 109.694 346.052 109.43C346.756 109.144 347.02 108.638 347.02 107.604V90.466H345.37ZM337.604 90.466V98.32C337.604 101.752 337.23 105.932 333.512 108.792C333.864 109.012 334.48 109.584 334.722 109.914C338.682 106.878 339.232 102.016 339.232 98.32V90.466H337.604Z" fill="white"/>
</svg>
