<svg width="406" height="228" viewBox="0 0 406 228" fill="none" xmlns="http://www.w3.org/2000/svg">
<rect width="406" height="228" fill="black"/>
<path d="M55.1874 78.744C55.3047 78.744 55.4074 78.7917 55.4954 78.887L56.3424 79.8C55.6971 80.548 54.9124 81.131 53.9884 81.549C53.0717 81.967 51.9607 82.176 50.6554 82.176C49.5261 82.176 48.4994 81.9817 47.5754 81.593C46.6514 81.197 45.8631 80.647 45.2104 79.943C44.5577 79.2317 44.0517 78.381 43.6924 77.391C43.3331 76.401 43.1534 75.312 43.1534 74.124C43.1534 72.936 43.3404 71.847 43.7144 70.857C44.0884 69.867 44.6127 69.0163 45.2874 68.305C45.9694 67.5937 46.7834 67.0437 47.7294 66.655C48.6754 66.259 49.7204 66.061 50.8644 66.061C51.9864 66.061 52.9764 66.2407 53.8344 66.6C54.6924 66.9593 55.4477 67.447 56.1004 68.063L55.3964 69.042C55.3524 69.1153 55.2937 69.1777 55.2204 69.229C55.1544 69.273 55.0627 69.295 54.9454 69.295C54.8134 69.295 54.6521 69.2253 54.4614 69.086C54.2707 68.9393 54.0214 68.778 53.7134 68.602C53.4054 68.426 53.0204 68.2683 52.5584 68.129C52.0964 67.9823 51.5281 67.909 50.8534 67.909C50.0394 67.909 49.2951 68.052 48.6204 68.338C47.9457 68.6167 47.3627 69.0237 46.8714 69.559C46.3874 70.0943 46.0097 70.747 45.7384 71.517C45.4671 72.287 45.3314 73.156 45.3314 74.124C45.3314 75.1067 45.4707 75.983 45.7494 76.753C46.0354 77.523 46.4204 78.1757 46.9044 78.711C47.3957 79.239 47.9714 79.6423 48.6314 79.921C49.2987 80.1997 50.0174 80.339 50.7874 80.339C51.2567 80.339 51.6784 80.3133 52.0524 80.262C52.4337 80.2033 52.7821 80.1153 53.0974 79.998C53.4201 79.8807 53.7171 79.734 53.9884 79.558C54.2671 79.3747 54.5421 79.1583 54.8134 78.909C54.9381 78.799 55.0627 78.744 55.1874 78.744ZM60.1493 73.09C60.5013 72.3273 60.9339 71.7333 61.4473 71.308C61.9606 70.8753 62.5876 70.659 63.3283 70.659C63.5629 70.659 63.7866 70.6847 63.9993 70.736C64.2193 70.7873 64.4136 70.868 64.5823 70.978L64.4393 72.441C64.3953 72.6243 64.2853 72.716 64.1093 72.716C64.0066 72.716 63.8563 72.694 63.6583 72.65C63.4603 72.606 63.2366 72.584 62.9873 72.584C62.6353 72.584 62.3199 72.6353 62.0413 72.738C61.7699 72.8407 61.5243 72.9947 61.3043 73.2C61.0916 73.398 60.8973 73.6473 60.7213 73.948C60.5526 74.2413 60.3986 74.5787 60.2593 74.96V82H58.2903V70.857H59.4123C59.6249 70.857 59.7716 70.8973 59.8523 70.978C59.9329 71.0587 59.9879 71.198 60.0173 71.396L60.1493 73.09ZM75.9179 70.857L69.7029 85.289C69.6369 85.4357 69.5526 85.553 69.4499 85.641C69.3546 85.729 69.2043 85.773 68.9989 85.773H67.5469L69.5819 81.351L64.9839 70.857H66.6779C66.8466 70.857 66.9786 70.901 67.0739 70.989C67.1766 71.0697 67.2463 71.1613 67.2829 71.264L70.2639 78.282C70.3813 78.59 70.4803 78.9127 70.5609 79.25C70.6636 78.9053 70.7736 78.579 70.8909 78.271L73.7839 71.264C73.8279 71.1467 73.9013 71.0513 74.0039 70.978C74.1139 70.8973 74.2349 70.857 74.3669 70.857H75.9179ZM79.6167 79.316C79.976 79.8 80.3683 80.141 80.7937 80.339C81.219 80.537 81.6957 80.636 82.2237 80.636C83.265 80.636 84.0643 80.2657 84.6217 79.525C85.179 78.7843 85.4577 77.7283 85.4577 76.357C85.4577 75.631 85.3917 75.0077 85.2597 74.487C85.135 73.9663 84.9517 73.541 84.7097 73.211C84.4677 72.8737 84.1707 72.628 83.8187 72.474C83.4667 72.32 83.067 72.243 82.6197 72.243C81.9817 72.243 81.4207 72.3897 80.9367 72.683C80.46 72.9763 80.02 73.3907 79.6167 73.926V79.316ZM79.5177 72.584C79.987 72.0047 80.5297 71.539 81.1457 71.187C81.7617 70.835 82.4657 70.659 83.2577 70.659C83.903 70.659 84.486 70.7837 85.0067 71.033C85.5273 71.275 85.971 71.638 86.3377 72.122C86.7043 72.5987 86.9867 73.1927 87.1847 73.904C87.3827 74.6153 87.4817 75.433 87.4817 76.357C87.4817 77.1783 87.3717 77.9447 87.1517 78.656C86.9317 79.36 86.6127 79.9723 86.1947 80.493C85.784 81.0063 85.278 81.4133 84.6767 81.714C84.0827 82.0073 83.4117 82.154 82.6637 82.154C81.9817 82.154 81.395 82.0403 80.9037 81.813C80.4197 81.5783 79.9907 81.2557 79.6167 80.845V85.773H77.6477V70.857H78.8247C79.1033 70.857 79.2757 70.9927 79.3417 71.264L79.5177 72.584ZM93.2503 82.176C92.3703 82.176 91.692 81.9303 91.2153 81.439C90.746 80.9477 90.5113 80.24 90.5113 79.316V72.496H89.1693C89.052 72.496 88.953 72.463 88.8723 72.397C88.7917 72.3237 88.7513 72.2137 88.7513 72.067V71.286L90.5773 71.055L91.0283 67.612C91.0503 67.502 91.098 67.414 91.1713 67.348C91.252 67.2747 91.3547 67.238 91.4793 67.238H92.4693V71.077H95.6923V72.496H92.4693V79.184C92.4693 79.6533 92.583 80.0017 92.8103 80.229C93.0377 80.4563 93.331 80.57 93.6903 80.57C93.8957 80.57 94.0717 80.5443 94.2183 80.493C94.3723 80.4343 94.5043 80.372 94.6143 80.306C94.7243 80.24 94.816 80.1813 94.8893 80.13C94.97 80.0713 95.0397 80.042 95.0983 80.042C95.201 80.042 95.2927 80.1043 95.3733 80.229L95.9453 81.164C95.608 81.4793 95.201 81.7287 94.7243 81.912C94.2477 82.088 93.7563 82.176 93.2503 82.176ZM102.347 70.681C103.161 70.681 103.894 70.8167 104.547 71.088C105.199 71.3593 105.757 71.7443 106.219 72.243C106.681 72.7417 107.033 73.3467 107.275 74.058C107.524 74.762 107.649 75.5503 107.649 76.423C107.649 77.303 107.524 78.095 107.275 78.799C107.033 79.503 106.681 80.1043 106.219 80.603C105.757 81.1017 105.199 81.4867 104.547 81.758C103.894 82.022 103.161 82.154 102.347 82.154C101.525 82.154 100.785 82.022 100.125 81.758C99.472 81.4867 98.9146 81.1017 98.4526 80.603C97.9906 80.1043 97.635 79.503 97.3856 78.799C97.1436 78.095 97.0226 77.303 97.0226 76.423C97.0226 75.5503 97.1436 74.762 97.3856 74.058C97.635 73.3467 97.9906 72.7417 98.4526 72.243C98.9146 71.7443 99.472 71.3593 100.125 71.088C100.785 70.8167 101.525 70.681 102.347 70.681ZM102.347 80.625C103.447 80.625 104.268 80.2583 104.811 79.525C105.353 78.7843 105.625 77.754 105.625 76.434C105.625 75.1067 105.353 74.0727 104.811 73.332C104.268 72.5913 103.447 72.221 102.347 72.221C101.789 72.221 101.302 72.3163 100.884 72.507C100.473 72.6977 100.128 72.9727 99.8496 73.332C99.5783 73.6913 99.373 74.135 99.2336 74.663C99.1016 75.1837 99.0356 75.774 99.0356 76.434C99.0356 77.754 99.307 78.7843 99.8496 79.525C100.4 80.2583 101.232 80.625 102.347 80.625ZM118.546 68.03H113.442V82H111.319V68.03H106.204V66.237H118.546V68.03ZM125.196 75.213C125.196 74.7583 125.13 74.344 124.998 73.97C124.873 73.5887 124.686 73.2623 124.437 72.991C124.195 72.7123 123.898 72.4997 123.546 72.353C123.194 72.199 122.794 72.122 122.347 72.122C121.408 72.122 120.664 72.397 120.114 72.947C119.571 73.4897 119.234 74.245 119.102 75.213H125.196ZM126.78 80.438C126.538 80.7313 126.248 80.988 125.911 81.208C125.573 81.4207 125.21 81.5967 124.822 81.736C124.44 81.8753 124.044 81.978 123.634 82.044C123.223 82.1173 122.816 82.154 122.413 82.154C121.643 82.154 120.931 82.0257 120.279 81.769C119.633 81.505 119.072 81.1237 118.596 80.625C118.126 80.119 117.76 79.4957 117.496 78.755C117.232 78.0143 117.1 77.1637 117.1 76.203C117.1 75.4257 117.217 74.6997 117.452 74.025C117.694 73.3503 118.038 72.7673 118.486 72.276C118.933 71.7773 119.479 71.3887 120.125 71.11C120.77 70.824 121.496 70.681 122.303 70.681C122.97 70.681 123.586 70.7947 124.151 71.022C124.723 71.242 125.214 71.5647 125.625 71.99C126.043 72.408 126.369 72.9287 126.604 73.552C126.838 74.168 126.956 74.872 126.956 75.664C126.956 75.972 126.923 76.1773 126.857 76.28C126.791 76.3827 126.666 76.434 126.483 76.434H119.036C119.058 77.138 119.153 77.7503 119.322 78.271C119.498 78.7917 119.74 79.228 120.048 79.58C120.356 79.9247 120.722 80.185 121.148 80.361C121.573 80.5297 122.05 80.614 122.578 80.614C123.069 80.614 123.491 80.559 123.843 80.449C124.202 80.3317 124.51 80.207 124.767 80.075C125.023 79.943 125.236 79.822 125.405 79.712C125.581 79.5947 125.731 79.536 125.856 79.536C126.017 79.536 126.142 79.5983 126.23 79.723L126.78 80.438ZM137.116 72.837C137.057 72.9177 136.998 72.98 136.94 73.024C136.881 73.068 136.8 73.09 136.698 73.09C136.588 73.09 136.467 73.046 136.335 72.958C136.203 72.8627 136.038 72.76 135.84 72.65C135.649 72.54 135.411 72.441 135.125 72.353C134.846 72.2577 134.501 72.21 134.091 72.21C133.541 72.21 133.057 72.309 132.639 72.507C132.221 72.6977 131.869 72.9763 131.583 73.343C131.304 73.7097 131.091 74.1533 130.945 74.674C130.805 75.1947 130.736 75.7777 130.736 76.423C130.736 77.0977 130.813 77.699 130.967 78.227C131.121 78.7477 131.337 79.1877 131.616 79.547C131.902 79.899 132.243 80.1703 132.639 80.361C133.042 80.5443 133.493 80.636 133.992 80.636C134.468 80.636 134.861 80.581 135.169 80.471C135.477 80.3537 135.73 80.2253 135.928 80.086C136.133 79.9467 136.302 79.822 136.434 79.712C136.573 79.5947 136.709 79.536 136.841 79.536C137.002 79.536 137.127 79.5983 137.215 79.723L137.765 80.438C137.523 80.7387 137.248 80.9953 136.94 81.208C136.632 81.4207 136.298 81.6003 135.939 81.747C135.587 81.8863 135.216 81.989 134.828 82.055C134.439 82.121 134.043 82.154 133.64 82.154C132.943 82.154 132.294 82.0257 131.693 81.769C131.099 81.5123 130.582 81.142 130.142 80.658C129.702 80.1667 129.357 79.5653 129.108 78.854C128.858 78.1427 128.734 77.3323 128.734 76.423C128.734 75.5943 128.847 74.828 129.075 74.124C129.309 73.42 129.647 72.815 130.087 72.309C130.534 71.7957 131.08 71.396 131.726 71.11C132.378 70.824 133.126 70.681 133.97 70.681C134.754 70.681 135.444 70.8093 136.038 71.066C136.639 71.3153 137.171 71.671 137.633 72.133L137.116 72.837ZM141.835 72.342C142.312 71.836 142.84 71.4327 143.419 71.132C143.999 70.8313 144.666 70.681 145.421 70.681C146.03 70.681 146.565 70.7837 147.027 70.989C147.497 71.187 147.885 71.473 148.193 71.847C148.509 72.2137 148.747 72.6573 148.908 73.178C149.07 73.6987 149.15 74.2743 149.15 74.905V82H147.181V74.905C147.181 74.0617 146.987 73.409 146.598 72.947C146.217 72.4777 145.634 72.243 144.849 72.243C144.27 72.243 143.727 72.3823 143.221 72.661C142.723 72.9397 142.261 73.3173 141.835 73.794V82H139.866V65.797H141.835V72.342ZM165.152 66.237V82H164.085C163.916 82 163.773 81.9707 163.656 81.912C163.546 81.8533 163.436 81.7543 163.326 81.615L154.207 69.735C154.222 69.9183 154.233 70.098 154.24 70.274C154.247 70.45 154.251 70.615 154.251 70.769V82H152.381V66.237H153.481C153.576 66.237 153.657 66.2443 153.723 66.259C153.789 66.2663 153.848 66.2847 153.899 66.314C153.95 66.336 154.002 66.3727 154.053 66.424C154.104 66.468 154.159 66.5267 154.218 66.6L163.337 78.469C163.322 78.2783 163.308 78.095 163.293 77.919C163.286 77.7357 163.282 77.5633 163.282 77.402V66.237H165.152ZM170.616 70.857V82H168.658V70.857H170.616ZM171.034 67.359C171.034 67.5497 170.994 67.7293 170.913 67.898C170.84 68.0593 170.737 68.206 170.605 68.338C170.48 68.4627 170.33 68.5617 170.154 68.635C169.985 68.7083 169.806 68.745 169.615 68.745C169.424 68.745 169.245 68.7083 169.076 68.635C168.915 68.5617 168.772 68.4627 168.647 68.338C168.522 68.206 168.423 68.0593 168.35 67.898C168.277 67.7293 168.24 67.5497 168.24 67.359C168.24 67.1683 168.277 66.9887 168.35 66.82C168.423 66.644 168.522 66.4937 168.647 66.369C168.772 66.237 168.915 66.1343 169.076 66.061C169.245 65.9877 169.424 65.951 169.615 65.951C169.806 65.951 169.985 65.9877 170.154 66.061C170.33 66.1343 170.48 66.237 170.605 66.369C170.737 66.4937 170.84 66.644 170.913 66.82C170.994 66.9887 171.034 67.1683 171.034 67.359ZM177.716 76.555C178.112 76.555 178.461 76.5 178.761 76.39C179.062 76.28 179.315 76.126 179.52 75.928C179.726 75.73 179.88 75.4953 179.982 75.224C180.085 74.9453 180.136 74.641 180.136 74.311C180.136 73.629 179.927 73.0863 179.509 72.683C179.099 72.2797 178.501 72.078 177.716 72.078C176.924 72.078 176.319 72.2797 175.901 72.683C175.491 73.0863 175.285 73.629 175.285 74.311C175.285 74.641 175.337 74.9453 175.439 75.224C175.549 75.4953 175.707 75.73 175.912 75.928C176.118 76.126 176.371 76.28 176.671 76.39C176.972 76.5 177.32 76.555 177.716 76.555ZM181.247 82.605C181.247 82.3337 181.17 82.1137 181.016 81.945C180.862 81.7763 180.653 81.6443 180.389 81.549C180.133 81.4537 179.832 81.3877 179.487 81.351C179.143 81.307 178.776 81.274 178.387 81.252C178.006 81.23 177.617 81.208 177.221 81.186C176.825 81.164 176.444 81.1273 176.077 81.076C175.667 81.2667 175.329 81.5087 175.065 81.802C174.809 82.088 174.68 82.4253 174.68 82.814C174.68 83.0633 174.743 83.2943 174.867 83.507C174.999 83.727 175.197 83.914 175.461 84.068C175.725 84.2293 176.055 84.354 176.451 84.442C176.855 84.5373 177.328 84.585 177.87 84.585C178.398 84.585 178.871 84.5373 179.289 84.442C179.707 84.3467 180.059 84.211 180.345 84.035C180.639 83.859 180.862 83.65 181.016 83.408C181.17 83.166 181.247 82.8983 181.247 82.605ZM183.238 71.297V72.023C183.238 72.265 183.084 72.419 182.776 72.485L181.511 72.65C181.761 73.134 181.885 73.6693 181.885 74.256C181.885 74.7987 181.779 75.2937 181.566 75.741C181.361 76.181 181.075 76.5587 180.708 76.874C180.342 77.1893 179.902 77.4313 179.388 77.6C178.875 77.7687 178.318 77.853 177.716 77.853C177.196 77.853 176.704 77.7907 176.242 77.666C176.008 77.8127 175.828 77.9703 175.703 78.139C175.579 78.3003 175.516 78.4653 175.516 78.634C175.516 78.898 175.623 79.0997 175.835 79.239C176.055 79.371 176.341 79.4663 176.693 79.525C177.045 79.5837 177.445 79.6203 177.892 79.635C178.347 79.6497 178.809 79.6753 179.278 79.712C179.755 79.7413 180.217 79.7963 180.664 79.877C181.119 79.9577 181.522 80.0897 181.874 80.273C182.226 80.4563 182.509 80.7093 182.721 81.032C182.941 81.3547 183.051 81.7727 183.051 82.286C183.051 82.7627 182.93 83.2247 182.688 83.672C182.454 84.1193 182.113 84.5153 181.665 84.86C181.218 85.212 180.668 85.4907 180.015 85.696C179.37 85.9087 178.64 86.015 177.826 86.015C177.012 86.015 176.301 85.9343 175.692 85.773C175.084 85.6117 174.578 85.3953 174.174 85.124C173.771 84.8527 173.467 84.5373 173.261 84.178C173.063 83.826 172.964 83.4557 172.964 83.067C172.964 82.517 173.137 82.0513 173.481 81.67C173.826 81.2887 174.299 80.9843 174.9 80.757C174.57 80.6103 174.306 80.416 174.108 80.174C173.918 79.9247 173.822 79.591 173.822 79.173C173.822 79.0117 173.852 78.8467 173.91 78.678C173.969 78.502 174.057 78.3297 174.174 78.161C174.299 77.985 174.449 77.82 174.625 77.666C174.801 77.512 175.007 77.3763 175.241 77.259C174.691 76.951 174.262 76.544 173.954 76.038C173.646 75.5247 173.492 74.9307 173.492 74.256C173.492 73.7133 173.595 73.222 173.8 72.782C174.013 72.3347 174.306 71.957 174.68 71.649C175.054 71.3337 175.498 71.0917 176.011 70.923C176.532 70.7543 177.1 70.67 177.716 70.67C178.2 70.67 178.651 70.725 179.069 70.835C179.487 70.9377 179.869 71.0917 180.213 71.297H183.238ZM187.232 72.342C187.709 71.836 188.237 71.4327 188.816 71.132C189.395 70.8313 190.063 70.681 190.818 70.681C191.427 70.681 191.962 70.7837 192.424 70.989C192.893 71.187 193.282 71.473 193.59 71.847C193.905 72.2137 194.144 72.6573 194.305 73.178C194.466 73.6987 194.547 74.2743 194.547 74.905V82H192.578V74.905C192.578 74.0617 192.384 73.409 191.995 72.947C191.614 72.4777 191.031 72.243 190.246 72.243C189.667 72.243 189.124 72.3823 188.618 72.661C188.119 72.9397 187.657 73.3173 187.232 73.794V82H185.263V65.797H187.232V72.342ZM200.801 82.176C199.921 82.176 199.243 81.9303 198.766 81.439C198.297 80.9477 198.062 80.24 198.062 79.316V72.496H196.72C196.603 72.496 196.504 72.463 196.423 72.397C196.342 72.3237 196.302 72.2137 196.302 72.067V71.286L198.128 71.055L198.579 67.612C198.601 67.502 198.649 67.414 198.722 67.348C198.803 67.2747 198.905 67.238 199.03 67.238H200.02V71.077H203.243V72.496H200.02V79.184C200.02 79.6533 200.134 80.0017 200.361 80.229C200.588 80.4563 200.882 80.57 201.241 80.57C201.446 80.57 201.622 80.5443 201.769 80.493C201.923 80.4343 202.055 80.372 202.165 80.306C202.275 80.24 202.367 80.1813 202.44 80.13C202.521 80.0713 202.59 80.042 202.649 80.042C202.752 80.042 202.843 80.1043 202.924 80.229L203.496 81.164C203.159 81.4793 202.752 81.7287 202.275 81.912C201.798 82.088 201.307 82.176 200.801 82.176ZM205.089 74.575H210.523V76.236H205.089V74.575ZM223.978 74.124C223.978 75.5027 223.828 76.698 223.527 77.71C223.234 78.7147 222.83 79.547 222.317 80.207C221.804 80.867 221.195 81.3583 220.491 81.681C219.794 82.0037 219.046 82.165 218.247 82.165C217.44 82.165 216.689 82.0037 215.992 81.681C215.303 81.3583 214.701 80.867 214.188 80.207C213.675 79.547 213.271 78.7147 212.978 77.71C212.685 76.698 212.538 75.5027 212.538 74.124C212.538 72.7453 212.685 71.55 212.978 70.538C213.271 69.526 213.675 68.69 214.188 68.03C214.701 67.3627 215.303 66.8677 215.992 66.545C216.689 66.2223 217.44 66.061 218.247 66.061C219.046 66.061 219.794 66.2223 220.491 66.545C221.195 66.8677 221.804 67.3627 222.317 68.03C222.83 68.69 223.234 69.526 223.527 70.538C223.828 71.55 223.978 72.7453 223.978 74.124ZM221.943 74.124C221.943 72.9213 221.84 71.913 221.635 71.099C221.437 70.2777 221.166 69.6177 220.821 69.119C220.484 68.6203 220.091 68.2647 219.644 68.052C219.197 67.832 218.731 67.722 218.247 67.722C217.763 67.722 217.297 67.832 216.85 68.052C216.403 68.2647 216.01 68.6203 215.673 69.119C215.336 69.6177 215.064 70.2777 214.859 71.099C214.661 71.913 214.562 72.9213 214.562 74.124C214.562 75.3267 214.661 76.335 214.859 77.149C215.064 77.963 215.336 78.6193 215.673 79.118C216.01 79.6167 216.403 79.976 216.85 80.196C217.297 80.4087 217.763 80.515 218.247 80.515C218.731 80.515 219.197 80.4087 219.644 80.196C220.091 79.976 220.484 79.6167 220.821 79.118C221.166 78.6193 221.437 77.963 221.635 77.149C221.84 76.335 221.943 75.3267 221.943 74.124ZM235.497 80.141C235.709 80.141 235.878 80.2033 236.003 80.328C236.127 80.4527 236.19 80.614 236.19 80.812V82H225.674V81.329C225.674 81.1897 225.703 81.0467 225.762 80.9C225.82 80.7533 225.912 80.6177 226.037 80.493L231.086 75.422C231.504 74.9967 231.885 74.5897 232.23 74.201C232.574 73.805 232.868 73.409 233.11 73.013C233.352 72.617 233.539 72.2173 233.671 71.814C233.803 71.4033 233.869 70.967 233.869 70.505C233.869 70.043 233.795 69.6397 233.649 69.295C233.502 68.943 233.3 68.6533 233.044 68.426C232.794 68.1987 232.497 68.03 232.153 67.92C231.808 67.8027 231.438 67.744 231.042 67.744C230.638 67.744 230.268 67.8027 229.931 67.92C229.593 68.0373 229.293 68.2023 229.029 68.415C228.772 68.6203 228.556 68.866 228.38 69.152C228.204 69.438 228.079 69.7533 228.006 70.098C227.918 70.3547 227.797 70.527 227.643 70.615C227.496 70.6957 227.287 70.7177 227.016 70.681L225.993 70.505C226.095 69.7863 226.293 69.152 226.587 68.602C226.887 68.0447 227.261 67.579 227.709 67.205C228.163 66.831 228.68 66.5487 229.26 66.358C229.839 66.16 230.466 66.061 231.141 66.061C231.808 66.061 232.431 66.16 233.011 66.358C233.59 66.556 234.092 66.8457 234.518 67.227C234.943 67.601 235.277 68.0593 235.519 68.602C235.761 69.1447 235.882 69.7607 235.882 70.45C235.882 71.0367 235.794 71.583 235.618 72.089C235.442 72.5877 235.203 73.0643 234.903 73.519C234.602 73.9737 234.254 74.4173 233.858 74.85C233.469 75.2827 233.055 75.719 232.615 76.159L228.457 80.405C228.75 80.3243 229.047 80.262 229.348 80.218C229.648 80.1667 229.938 80.141 230.217 80.141H235.497ZM238.776 74.575H244.21V76.236H238.776V74.575ZM258.644 78.744C258.762 78.744 258.864 78.7917 258.952 78.887L259.799 79.8C259.154 80.548 258.369 81.131 257.445 81.549C256.529 81.967 255.418 82.176 254.112 82.176C252.983 82.176 251.956 81.9817 251.032 81.593C250.108 81.197 249.32 80.647 248.667 79.943C248.015 79.2317 247.509 78.381 247.149 77.391C246.79 76.401 246.61 75.312 246.61 74.124C246.61 72.936 246.797 71.847 247.171 70.857C247.545 69.867 248.07 69.0163 248.744 68.305C249.426 67.5937 250.24 67.0437 251.186 66.655C252.132 66.259 253.177 66.061 254.321 66.061C255.443 66.061 256.433 66.2407 257.291 66.6C258.149 66.9593 258.905 67.447 259.557 68.063L258.853 69.042C258.809 69.1153 258.751 69.1777 258.677 69.229C258.611 69.273 258.52 69.295 258.402 69.295C258.27 69.295 258.109 69.2253 257.918 69.086C257.728 68.9393 257.478 68.778 257.17 68.602C256.862 68.426 256.477 68.2683 256.015 68.129C255.553 67.9823 254.985 67.909 254.31 67.909C253.496 67.909 252.752 68.052 252.077 68.338C251.403 68.6167 250.82 69.0237 250.328 69.559C249.844 70.0943 249.467 70.747 249.195 71.517C248.924 72.287 248.788 73.156 248.788 74.124C248.788 75.1067 248.928 75.983 249.206 76.753C249.492 77.523 249.877 78.1757 250.361 78.711C250.853 79.239 251.428 79.6423 252.088 79.921C252.756 80.1997 253.474 80.339 254.244 80.339C254.714 80.339 255.135 80.3133 255.509 80.262C255.891 80.2033 256.239 80.1153 256.554 79.998C256.877 79.8807 257.174 79.734 257.445 79.558C257.724 79.3747 257.999 79.1583 258.27 78.909C258.395 78.799 258.52 78.744 258.644 78.744ZM263.606 73.09C263.958 72.3273 264.391 71.7333 264.904 71.308C265.418 70.8753 266.045 70.659 266.785 70.659C267.02 70.659 267.244 70.6847 267.456 70.736C267.676 70.7873 267.871 70.868 268.039 70.978L267.896 72.441C267.852 72.6243 267.742 72.716 267.566 72.716C267.464 72.716 267.313 72.694 267.115 72.65C266.917 72.606 266.694 72.584 266.444 72.584C266.092 72.584 265.777 72.6353 265.498 72.738C265.227 72.8407 264.981 72.9947 264.761 73.2C264.549 73.398 264.354 73.6473 264.178 73.948C264.01 74.2413 263.856 74.5787 263.716 74.96V82H261.747V70.857H262.869C263.082 70.857 263.229 70.8973 263.309 70.978C263.39 71.0587 263.445 71.198 263.474 71.396L263.606 73.09ZM274.007 70.681C274.821 70.681 275.554 70.8167 276.207 71.088C276.859 71.3593 277.417 71.7443 277.879 72.243C278.341 72.7417 278.693 73.3467 278.935 74.058C279.184 74.762 279.309 75.5503 279.309 76.423C279.309 77.303 279.184 78.095 278.935 78.799C278.693 79.503 278.341 80.1043 277.879 80.603C277.417 81.1017 276.859 81.4867 276.207 81.758C275.554 82.022 274.821 82.154 274.007 82.154C273.185 82.154 272.445 82.022 271.785 81.758C271.132 81.4867 270.575 81.1017 270.113 80.603C269.651 80.1043 269.295 79.503 269.046 78.799C268.804 78.095 268.683 77.303 268.683 76.423C268.683 75.5503 268.804 74.762 269.046 74.058C269.295 73.3467 269.651 72.7417 270.113 72.243C270.575 71.7443 271.132 71.3593 271.785 71.088C272.445 70.8167 273.185 70.681 274.007 70.681ZM274.007 80.625C275.107 80.625 275.928 80.2583 276.471 79.525C277.013 78.7843 277.285 77.754 277.285 76.434C277.285 75.1067 277.013 74.0727 276.471 73.332C275.928 72.5913 275.107 72.221 274.007 72.221C273.449 72.221 272.962 72.3163 272.544 72.507C272.133 72.6977 271.788 72.9727 271.51 73.332C271.238 73.6913 271.033 74.135 270.894 74.663C270.762 75.1837 270.696 75.774 270.696 76.434C270.696 77.754 270.967 78.7843 271.51 79.525C272.06 80.2583 272.892 80.625 274.007 80.625ZM288.282 72.694C288.194 72.8553 288.059 72.936 287.875 72.936C287.765 72.936 287.641 72.8957 287.501 72.815C287.362 72.7343 287.19 72.6463 286.984 72.551C286.786 72.4483 286.548 72.3567 286.269 72.276C285.991 72.188 285.661 72.144 285.279 72.144C284.949 72.144 284.652 72.188 284.388 72.276C284.124 72.3567 283.897 72.4703 283.706 72.617C283.523 72.7637 283.38 72.936 283.277 73.134C283.182 73.3247 283.134 73.5337 283.134 73.761C283.134 74.047 283.215 74.2853 283.376 74.476C283.545 74.6667 283.765 74.8317 284.036 74.971C284.308 75.1103 284.616 75.235 284.96 75.345C285.305 75.4477 285.657 75.5613 286.016 75.686C286.383 75.8033 286.739 75.9353 287.083 76.082C287.428 76.2287 287.736 76.412 288.007 76.632C288.279 76.852 288.495 77.1233 288.656 77.446C288.825 77.7613 288.909 78.1427 288.909 78.59C288.909 79.1033 288.818 79.58 288.634 80.02C288.451 80.4527 288.18 80.8303 287.82 81.153C287.461 81.4683 287.021 81.7177 286.5 81.901C285.98 82.0843 285.378 82.176 284.696 82.176C283.919 82.176 283.215 82.0513 282.584 81.802C281.954 81.5453 281.418 81.219 280.978 80.823L281.44 80.075C281.499 79.9797 281.569 79.9063 281.649 79.855C281.73 79.8037 281.833 79.778 281.957 79.778C282.089 79.778 282.229 79.8293 282.375 79.932C282.522 80.0347 282.698 80.1483 282.903 80.273C283.116 80.3977 283.373 80.5113 283.673 80.614C283.974 80.7167 284.348 80.768 284.795 80.768C285.177 80.768 285.51 80.7203 285.796 80.625C286.082 80.5223 286.321 80.3867 286.511 80.218C286.702 80.0493 286.841 79.855 286.929 79.635C287.025 79.415 287.072 79.1803 287.072 78.931C287.072 78.623 286.988 78.37 286.819 78.172C286.658 77.9667 286.442 77.7943 286.17 77.655C285.899 77.5083 285.587 77.3837 285.235 77.281C284.891 77.171 284.535 77.0573 284.168 76.94C283.809 76.8227 283.453 76.6907 283.101 76.544C282.757 76.39 282.449 76.1993 282.177 75.972C281.906 75.7447 281.686 75.466 281.517 75.136C281.356 74.7987 281.275 74.3917 281.275 73.915C281.275 73.4897 281.363 73.0827 281.539 72.694C281.715 72.298 281.972 71.9533 282.309 71.66C282.647 71.3593 283.061 71.121 283.552 70.945C284.044 70.769 284.605 70.681 285.235 70.681C285.969 70.681 286.625 70.7983 287.204 71.033C287.791 71.2603 288.297 71.5757 288.722 71.979L288.282 72.694ZM297.8 72.694C297.712 72.8553 297.576 72.936 297.393 72.936C297.283 72.936 297.158 72.8957 297.019 72.815C296.879 72.7343 296.707 72.6463 296.502 72.551C296.304 72.4483 296.065 72.3567 295.787 72.276C295.508 72.188 295.178 72.144 294.797 72.144C294.467 72.144 294.17 72.188 293.906 72.276C293.642 72.3567 293.414 72.4703 293.224 72.617C293.04 72.7637 292.897 72.936 292.795 73.134C292.699 73.3247 292.652 73.5337 292.652 73.761C292.652 74.047 292.732 74.2853 292.894 74.476C293.062 74.6667 293.282 74.8317 293.554 74.971C293.825 75.1103 294.133 75.235 294.478 75.345C294.822 75.4477 295.174 75.5613 295.534 75.686C295.9 75.8033 296.256 75.9353 296.601 76.082C296.945 76.2287 297.253 76.412 297.525 76.632C297.796 76.852 298.012 77.1233 298.174 77.446C298.342 77.7613 298.427 78.1427 298.427 78.59C298.427 79.1033 298.335 79.58 298.152 80.02C297.968 80.4527 297.697 80.8303 297.338 81.153C296.978 81.4683 296.538 81.7177 296.018 81.901C295.497 82.0843 294.896 82.176 294.214 82.176C293.436 82.176 292.732 82.0513 292.102 81.802C291.471 81.5453 290.936 81.219 290.496 80.823L290.958 80.075C291.016 79.9797 291.086 79.9063 291.167 79.855C291.247 79.8037 291.35 79.778 291.475 79.778C291.607 79.778 291.746 79.8293 291.893 79.932C292.039 80.0347 292.215 80.1483 292.421 80.273C292.633 80.3977 292.89 80.5113 293.191 80.614C293.491 80.7167 293.865 80.768 294.313 80.768C294.694 80.768 295.028 80.7203 295.314 80.625C295.6 80.5223 295.838 80.3867 296.029 80.218C296.219 80.0493 296.359 79.855 296.447 79.635C296.542 79.415 296.59 79.1803 296.59 78.931C296.59 78.623 296.505 78.37 296.337 78.172C296.175 77.9667 295.959 77.7943 295.688 77.655C295.416 77.5083 295.105 77.3837 294.753 77.281C294.408 77.171 294.052 77.0573 293.686 76.94C293.326 76.8227 292.971 76.6907 292.619 76.544C292.274 76.39 291.966 76.1993 291.695 75.972C291.423 75.7447 291.203 75.466 291.035 75.136C290.873 74.7987 290.793 74.3917 290.793 73.915C290.793 73.4897 290.881 73.0827 291.057 72.694C291.233 72.298 291.489 71.9533 291.827 71.66C292.164 71.3593 292.578 71.121 293.07 70.945C293.561 70.769 294.122 70.681 294.753 70.681C295.486 70.681 296.142 70.7983 296.722 71.033C297.308 71.2603 297.814 71.5757 298.24 71.979L297.8 72.694ZM300.651 74.575H306.085V76.236H300.651V74.575ZM320.519 78.744C320.637 78.744 320.739 78.7917 320.827 78.887L321.674 79.8C321.029 80.548 320.244 81.131 319.32 81.549C318.404 81.967 317.293 82.176 315.987 82.176C314.858 82.176 313.831 81.9817 312.907 81.593C311.983 81.197 311.195 80.647 310.542 79.943C309.89 79.2317 309.384 78.381 309.024 77.391C308.665 76.401 308.485 75.312 308.485 74.124C308.485 72.936 308.672 71.847 309.046 70.857C309.42 69.867 309.945 69.0163 310.619 68.305C311.301 67.5937 312.115 67.0437 313.061 66.655C314.007 66.259 315.052 66.061 316.196 66.061C317.318 66.061 318.308 66.2407 319.166 66.6C320.024 66.9593 320.78 67.447 321.432 68.063L320.728 69.042C320.684 69.1153 320.626 69.1777 320.552 69.229C320.486 69.273 320.395 69.295 320.277 69.295C320.145 69.295 319.984 69.2253 319.793 69.086C319.603 68.9393 319.353 68.778 319.045 68.602C318.737 68.426 318.352 68.2683 317.89 68.129C317.428 67.9823 316.86 67.909 316.185 67.909C315.371 67.909 314.627 68.052 313.952 68.338C313.278 68.6167 312.695 69.0237 312.203 69.559C311.719 70.0943 311.342 70.747 311.07 71.517C310.799 72.287 310.663 73.156 310.663 74.124C310.663 75.1067 310.803 75.983 311.081 76.753C311.367 77.523 311.752 78.1757 312.236 78.711C312.728 79.239 313.303 79.6423 313.963 79.921C314.631 80.1997 315.349 80.339 316.119 80.339C316.589 80.339 317.01 80.3133 317.384 80.262C317.766 80.2033 318.114 80.1153 318.429 79.998C318.752 79.8807 319.049 79.734 319.32 79.558C319.599 79.3747 319.874 79.1583 320.145 78.909C320.27 78.799 320.395 78.744 320.519 78.744ZM325.656 72.342C326.132 71.836 326.66 71.4327 327.24 71.132C327.819 70.8313 328.486 70.681 329.242 70.681C329.85 70.681 330.386 70.7837 330.848 70.989C331.317 71.187 331.706 71.473 332.014 71.847C332.329 72.2137 332.567 72.6573 332.729 73.178C332.89 73.6987 332.971 74.2743 332.971 74.905V82H331.002V74.905C331.002 74.0617 330.807 73.409 330.419 72.947C330.037 72.4777 329.454 72.243 328.67 72.243C328.09 72.243 327.548 72.3823 327.042 72.661C326.543 72.9397 326.081 73.3173 325.656 73.794V82H323.687V65.797H325.656V72.342ZM341.993 76.984C341.091 77.0133 340.321 77.0867 339.683 77.204C339.053 77.314 338.536 77.4607 338.132 77.644C337.736 77.8273 337.447 78.0437 337.263 78.293C337.087 78.5423 336.999 78.821 336.999 79.129C336.999 79.4223 337.047 79.6753 337.142 79.888C337.238 80.1007 337.366 80.2767 337.527 80.416C337.696 80.548 337.89 80.647 338.11 80.713C338.338 80.7717 338.58 80.801 338.836 80.801C339.181 80.801 339.496 80.768 339.782 80.702C340.068 80.6287 340.336 80.526 340.585 80.394C340.842 80.262 341.084 80.1043 341.311 79.921C341.546 79.7377 341.773 79.5287 341.993 79.294V76.984ZM335.668 72.43C336.284 71.836 336.948 71.3923 337.659 71.099C338.371 70.8057 339.159 70.659 340.024 70.659C340.648 70.659 341.201 70.7617 341.685 70.967C342.169 71.1723 342.576 71.4583 342.906 71.825C343.236 72.1917 343.486 72.6353 343.654 73.156C343.823 73.6767 343.907 74.2487 343.907 74.872V82H343.038C342.848 82 342.701 81.9707 342.598 81.912C342.496 81.846 342.415 81.7213 342.356 81.538L342.136 80.482C341.843 80.7533 341.557 80.9953 341.278 81.208C341 81.4133 340.706 81.5893 340.398 81.736C340.09 81.8753 339.76 81.9817 339.408 82.055C339.064 82.1357 338.679 82.176 338.253 82.176C337.821 82.176 337.414 82.1173 337.032 82C336.651 81.8753 336.317 81.692 336.031 81.45C335.753 81.208 335.529 80.9037 335.36 80.537C335.199 80.163 335.118 79.723 335.118 79.217C335.118 78.777 335.239 78.3553 335.481 77.952C335.723 77.5413 336.116 77.1783 336.658 76.863C337.201 76.5477 337.909 76.291 338.781 76.093C339.654 75.8877 340.725 75.7703 341.993 75.741V74.872C341.993 74.0067 341.806 73.354 341.432 72.914C341.058 72.4667 340.512 72.243 339.793 72.243C339.309 72.243 338.902 72.3053 338.572 72.43C338.25 72.5473 337.967 72.683 337.725 72.837C337.491 72.9837 337.285 73.1193 337.109 73.244C336.941 73.3613 336.772 73.42 336.603 73.42C336.471 73.42 336.358 73.387 336.262 73.321C336.167 73.2477 336.086 73.1597 336.02 73.057L335.668 72.43ZM348.958 70.857V82H347V70.857H348.958ZM349.376 67.359C349.376 67.5497 349.336 67.7293 349.255 67.898C349.182 68.0593 349.079 68.206 348.947 68.338C348.822 68.4627 348.672 68.5617 348.496 68.635C348.327 68.7083 348.148 68.745 347.957 68.745C347.766 68.745 347.587 68.7083 347.418 68.635C347.257 68.5617 347.114 68.4627 346.989 68.338C346.864 68.206 346.765 68.0593 346.692 67.898C346.619 67.7293 346.582 67.5497 346.582 67.359C346.582 67.1683 346.619 66.9887 346.692 66.82C346.765 66.644 346.864 66.4937 346.989 66.369C347.114 66.237 347.257 66.1343 347.418 66.061C347.587 65.9877 347.766 65.951 347.957 65.951C348.148 65.951 348.327 65.9877 348.496 66.061C348.672 66.1343 348.822 66.237 348.947 66.369C349.079 66.4937 349.182 66.644 349.255 66.82C349.336 66.9887 349.376 67.1683 349.376 67.359ZM354.023 72.474C354.265 72.2027 354.522 71.957 354.793 71.737C355.064 71.517 355.35 71.33 355.651 71.176C355.959 71.0147 356.282 70.8937 356.619 70.813C356.964 70.725 357.334 70.681 357.73 70.681C358.339 70.681 358.874 70.7837 359.336 70.989C359.805 71.187 360.194 71.473 360.502 71.847C360.817 72.2137 361.056 72.6573 361.217 73.178C361.378 73.6987 361.459 74.2743 361.459 74.905V82H359.49V74.905C359.49 74.0617 359.296 73.409 358.907 72.947C358.526 72.4777 357.943 72.243 357.158 72.243C356.579 72.243 356.036 72.3823 355.53 72.661C355.031 72.9397 354.569 73.3173 354.144 73.794V82H352.175V70.857H353.352C353.631 70.857 353.803 70.9927 353.869 71.264L354.023 72.474ZM105.892 94.03H100.788V108H98.6647V94.03H93.5497V92.237H105.892V94.03ZM112.541 101.213C112.541 100.758 112.475 100.344 112.343 99.97C112.219 99.5887 112.032 99.2623 111.782 98.991C111.54 98.7123 111.243 98.4997 110.891 98.353C110.539 98.199 110.14 98.122 109.692 98.122C108.754 98.122 108.009 98.397 107.459 98.947C106.917 99.4897 106.579 100.245 106.447 101.213H112.541ZM114.125 106.438C113.883 106.731 113.594 106.988 113.256 107.208C112.919 107.421 112.556 107.597 112.167 107.736C111.786 107.875 111.39 107.978 110.979 108.044C110.569 108.117 110.162 108.154 109.758 108.154C108.988 108.154 108.277 108.026 107.624 107.769C106.979 107.505 106.418 107.124 105.941 106.625C105.472 106.119 105.105 105.496 104.841 104.755C104.577 104.014 104.445 103.164 104.445 102.203C104.445 101.426 104.563 100.7 104.797 100.025C105.039 99.3503 105.384 98.7673 105.831 98.276C106.279 97.7773 106.825 97.3887 107.47 97.11C108.116 96.824 108.842 96.681 109.648 96.681C110.316 96.681 110.932 96.7947 111.496 97.022C112.068 97.242 112.56 97.5647 112.97 97.99C113.388 98.408 113.715 98.9287 113.949 99.552C114.184 100.168 114.301 100.872 114.301 101.664C114.301 101.972 114.268 102.177 114.202 102.28C114.136 102.383 114.012 102.434 113.828 102.434H106.381C106.403 103.138 106.499 103.75 106.667 104.271C106.843 104.792 107.085 105.228 107.393 105.58C107.701 105.925 108.068 106.185 108.493 106.361C108.919 106.53 109.395 106.614 109.923 106.614C110.415 106.614 110.836 106.559 111.188 106.449C111.548 106.332 111.856 106.207 112.112 106.075C112.369 105.943 112.582 105.822 112.75 105.712C112.926 105.595 113.077 105.536 113.201 105.536C113.363 105.536 113.487 105.598 113.575 105.723L114.125 106.438ZM124.461 98.837C124.403 98.9177 124.344 98.98 124.285 99.024C124.227 99.068 124.146 99.09 124.043 99.09C123.933 99.09 123.812 99.046 123.68 98.958C123.548 98.8627 123.383 98.76 123.185 98.65C122.995 98.54 122.756 98.441 122.47 98.353C122.192 98.2577 121.847 98.21 121.436 98.21C120.886 98.21 120.402 98.309 119.984 98.507C119.566 98.6977 119.214 98.9763 118.928 99.343C118.65 99.7097 118.437 100.153 118.29 100.674C118.151 101.195 118.081 101.778 118.081 102.423C118.081 103.098 118.158 103.699 118.312 104.227C118.466 104.748 118.683 105.188 118.961 105.547C119.247 105.899 119.588 106.17 119.984 106.361C120.388 106.544 120.839 106.636 121.337 106.636C121.814 106.636 122.206 106.581 122.514 106.471C122.822 106.354 123.075 106.225 123.273 106.086C123.479 105.947 123.647 105.822 123.779 105.712C123.919 105.595 124.054 105.536 124.186 105.536C124.348 105.536 124.472 105.598 124.56 105.723L125.11 106.438C124.868 106.739 124.593 106.995 124.285 107.208C123.977 107.421 123.644 107.6 123.284 107.747C122.932 107.886 122.562 107.989 122.173 108.055C121.785 108.121 121.389 108.154 120.985 108.154C120.289 108.154 119.64 108.026 119.038 107.769C118.444 107.512 117.927 107.142 117.487 106.658C117.047 106.167 116.703 105.565 116.453 104.854C116.204 104.143 116.079 103.332 116.079 102.423C116.079 101.594 116.193 100.828 116.42 100.124C116.655 99.42 116.992 98.815 117.432 98.309C117.88 97.7957 118.426 97.396 119.071 97.11C119.724 96.824 120.472 96.681 121.315 96.681C122.1 96.681 122.789 96.8093 123.383 97.066C123.985 97.3153 124.516 97.671 124.978 98.133L124.461 98.837ZM129.181 98.342C129.658 97.836 130.186 97.4327 130.765 97.132C131.344 96.8313 132.012 96.681 132.767 96.681C133.376 96.681 133.911 96.7837 134.373 96.989C134.842 97.187 135.231 97.473 135.539 97.847C135.854 98.2137 136.093 98.6573 136.254 99.178C136.415 99.6987 136.496 100.274 136.496 100.905V108H134.527V100.905C134.527 100.062 134.333 99.409 133.944 98.947C133.563 98.4777 132.98 98.243 132.195 98.243C131.616 98.243 131.073 98.3823 130.567 98.661C130.068 98.9397 129.606 99.3173 129.181 99.794V108H127.212V91.797H129.181V98.342ZM141.328 98.474C141.57 98.2027 141.826 97.957 142.098 97.737C142.369 97.517 142.655 97.33 142.956 97.176C143.264 97.0147 143.586 96.8937 143.924 96.813C144.268 96.725 144.639 96.681 145.035 96.681C145.643 96.681 146.179 96.7837 146.641 96.989C147.11 97.187 147.499 97.473 147.807 97.847C148.122 98.2137 148.36 98.6573 148.522 99.178C148.683 99.6987 148.764 100.274 148.764 100.905V108H146.795V100.905C146.795 100.062 146.6 99.409 146.212 98.947C145.83 98.4777 145.247 98.243 144.463 98.243C143.883 98.243 143.341 98.3823 142.835 98.661C142.336 98.9397 141.874 99.3173 141.449 99.794V108H139.48V96.857H140.657C140.935 96.857 141.108 96.9927 141.174 97.264L141.328 98.474ZM156.444 96.681C157.258 96.681 157.992 96.8167 158.644 97.088C159.297 97.3593 159.854 97.7443 160.316 98.243C160.778 98.7417 161.13 99.3467 161.372 100.058C161.622 100.762 161.746 101.55 161.746 102.423C161.746 103.303 161.622 104.095 161.372 104.799C161.13 105.503 160.778 106.104 160.316 106.603C159.854 107.102 159.297 107.487 158.644 107.758C157.992 108.022 157.258 108.154 156.444 108.154C155.623 108.154 154.882 108.022 154.222 107.758C153.57 107.487 153.012 107.102 152.55 106.603C152.088 106.104 151.733 105.503 151.483 104.799C151.241 104.095 151.12 103.303 151.12 102.423C151.12 101.55 151.241 100.762 151.483 100.058C151.733 99.3467 152.088 98.7417 152.55 98.243C153.012 97.7443 153.57 97.3593 154.222 97.088C154.882 96.8167 155.623 96.681 156.444 96.681ZM156.444 106.625C157.544 106.625 158.366 106.258 158.908 105.525C159.451 104.784 159.722 103.754 159.722 102.434C159.722 101.107 159.451 100.073 158.908 99.332C158.366 98.5913 157.544 98.221 156.444 98.221C155.887 98.221 155.399 98.3163 154.981 98.507C154.571 98.6977 154.226 98.9727 153.947 99.332C153.676 99.6913 153.471 100.135 153.331 100.663C153.199 101.184 153.133 101.774 153.133 102.434C153.133 103.754 153.405 104.784 153.947 105.525C154.497 106.258 155.33 106.625 156.444 106.625ZM166.254 91.797V108H164.296V91.797H166.254ZM174.126 96.681C174.94 96.681 175.673 96.8167 176.326 97.088C176.979 97.3593 177.536 97.7443 177.998 98.243C178.46 98.7417 178.812 99.3467 179.054 100.058C179.303 100.762 179.428 101.55 179.428 102.423C179.428 103.303 179.303 104.095 179.054 104.799C178.812 105.503 178.46 106.104 177.998 106.603C177.536 107.102 176.979 107.487 176.326 107.758C175.673 108.022 174.94 108.154 174.126 108.154C173.305 108.154 172.564 108.022 171.904 107.758C171.251 107.487 170.694 107.102 170.232 106.603C169.77 106.104 169.414 105.503 169.165 104.799C168.923 104.095 168.802 103.303 168.802 102.423C168.802 101.55 168.923 100.762 169.165 100.058C169.414 99.3467 169.77 98.7417 170.232 98.243C170.694 97.7443 171.251 97.3593 171.904 97.088C172.564 96.8167 173.305 96.681 174.126 96.681ZM174.126 106.625C175.226 106.625 176.047 106.258 176.59 105.525C177.133 104.784 177.404 103.754 177.404 102.434C177.404 101.107 177.133 100.073 176.59 99.332C176.047 98.5913 175.226 98.221 174.126 98.221C173.569 98.221 173.081 98.3163 172.663 98.507C172.252 98.6977 171.908 98.9727 171.629 99.332C171.358 99.6913 171.152 100.135 171.013 100.663C170.881 101.184 170.815 101.774 170.815 102.434C170.815 103.754 171.086 104.784 171.629 105.525C172.179 106.258 173.011 106.625 174.126 106.625ZM185.73 102.555C186.126 102.555 186.474 102.5 186.775 102.39C187.076 102.28 187.329 102.126 187.534 101.928C187.739 101.73 187.893 101.495 187.996 101.224C188.099 100.945 188.15 100.641 188.15 100.311C188.15 99.629 187.941 99.0863 187.523 98.683C187.112 98.2797 186.515 98.078 185.73 98.078C184.938 98.078 184.333 98.2797 183.915 98.683C183.504 99.0863 183.299 99.629 183.299 100.311C183.299 100.641 183.35 100.945 183.453 101.224C183.563 101.495 183.721 101.73 183.926 101.928C184.131 102.126 184.384 102.28 184.685 102.39C184.986 102.5 185.334 102.555 185.73 102.555ZM189.261 108.605C189.261 108.334 189.184 108.114 189.03 107.945C188.876 107.776 188.667 107.644 188.403 107.549C188.146 107.454 187.846 107.388 187.501 107.351C187.156 107.307 186.79 107.274 186.401 107.252C186.02 107.23 185.631 107.208 185.235 107.186C184.839 107.164 184.458 107.127 184.091 107.076C183.68 107.267 183.343 107.509 183.079 107.802C182.822 108.088 182.694 108.425 182.694 108.814C182.694 109.063 182.756 109.294 182.881 109.507C183.013 109.727 183.211 109.914 183.475 110.068C183.739 110.229 184.069 110.354 184.465 110.442C184.868 110.537 185.341 110.585 185.884 110.585C186.412 110.585 186.885 110.537 187.303 110.442C187.721 110.347 188.073 110.211 188.359 110.035C188.652 109.859 188.876 109.65 189.03 109.408C189.184 109.166 189.261 108.898 189.261 108.605ZM191.252 97.297V98.023C191.252 98.265 191.098 98.419 190.79 98.485L189.525 98.65C189.774 99.134 189.899 99.6693 189.899 100.256C189.899 100.799 189.793 101.294 189.58 101.741C189.375 102.181 189.089 102.559 188.722 102.874C188.355 103.189 187.915 103.431 187.402 103.6C186.889 103.769 186.331 103.853 185.73 103.853C185.209 103.853 184.718 103.791 184.256 103.666C184.021 103.813 183.842 103.97 183.717 104.139C183.592 104.3 183.53 104.465 183.53 104.634C183.53 104.898 183.636 105.1 183.849 105.239C184.069 105.371 184.355 105.466 184.707 105.525C185.059 105.584 185.459 105.62 185.906 105.635C186.361 105.65 186.823 105.675 187.292 105.712C187.769 105.741 188.231 105.796 188.678 105.877C189.133 105.958 189.536 106.09 189.888 106.273C190.24 106.456 190.522 106.709 190.735 107.032C190.955 107.355 191.065 107.773 191.065 108.286C191.065 108.763 190.944 109.225 190.702 109.672C190.467 110.119 190.126 110.515 189.679 110.86C189.232 111.212 188.682 111.491 188.029 111.696C187.384 111.909 186.654 112.015 185.84 112.015C185.026 112.015 184.315 111.934 183.706 111.773C183.097 111.612 182.591 111.395 182.188 111.124C181.785 110.853 181.48 110.537 181.275 110.178C181.077 109.826 180.978 109.456 180.978 109.067C180.978 108.517 181.15 108.051 181.495 107.67C181.84 107.289 182.313 106.984 182.914 106.757C182.584 106.61 182.32 106.416 182.122 106.174C181.931 105.925 181.836 105.591 181.836 105.173C181.836 105.012 181.865 104.847 181.924 104.678C181.983 104.502 182.071 104.33 182.188 104.161C182.313 103.985 182.463 103.82 182.639 103.666C182.815 103.512 183.02 103.376 183.255 103.259C182.705 102.951 182.276 102.544 181.968 102.038C181.66 101.525 181.506 100.931 181.506 100.256C181.506 99.7133 181.609 99.222 181.814 98.782C182.027 98.3347 182.32 97.957 182.694 97.649C183.068 97.3337 183.512 97.0917 184.025 96.923C184.546 96.7543 185.114 96.67 185.73 96.67C186.214 96.67 186.665 96.725 187.083 96.835C187.501 96.9377 187.882 97.0917 188.227 97.297H191.252ZM195.345 96.857V108H193.387V96.857H195.345ZM195.763 93.359C195.763 93.5497 195.722 93.7293 195.642 93.898C195.568 94.0593 195.466 94.206 195.334 94.338C195.209 94.4627 195.059 94.5617 194.883 94.635C194.714 94.7083 194.534 94.745 194.344 94.745C194.153 94.745 193.973 94.7083 193.805 94.635C193.643 94.5617 193.5 94.4627 193.376 94.338C193.251 94.206 193.152 94.0593 193.079 93.898C193.005 93.7293 192.969 93.5497 192.969 93.359C192.969 93.1683 193.005 92.9887 193.079 92.82C193.152 92.644 193.251 92.4937 193.376 92.369C193.5 92.237 193.643 92.1343 193.805 92.061C193.973 91.9877 194.153 91.951 194.344 91.951C194.534 91.951 194.714 91.9877 194.883 92.061C195.059 92.1343 195.209 92.237 195.334 92.369C195.466 92.4937 195.568 92.644 195.642 92.82C195.722 92.9887 195.763 93.1683 195.763 93.359ZM206.02 101.213C206.02 100.758 205.954 100.344 205.822 99.97C205.697 99.5887 205.51 99.2623 205.261 98.991C205.019 98.7123 204.722 98.4997 204.37 98.353C204.018 98.199 203.618 98.122 203.171 98.122C202.232 98.122 201.488 98.397 200.938 98.947C200.395 99.4897 200.058 100.245 199.926 101.213H206.02ZM207.604 106.438C207.362 106.731 207.072 106.988 206.735 107.208C206.397 107.421 206.034 107.597 205.646 107.736C205.264 107.875 204.868 107.978 204.458 108.044C204.047 108.117 203.64 108.154 203.237 108.154C202.467 108.154 201.755 108.026 201.103 107.769C200.457 107.505 199.896 107.124 199.42 106.625C198.95 106.119 198.584 105.496 198.32 104.755C198.056 104.014 197.924 103.164 197.924 102.203C197.924 101.426 198.041 100.7 198.276 100.025C198.518 99.3503 198.862 98.7673 199.31 98.276C199.757 97.7773 200.303 97.3887 200.949 97.11C201.594 96.824 202.32 96.681 203.127 96.681C203.794 96.681 204.41 96.7947 204.975 97.022C205.547 97.242 206.038 97.5647 206.449 97.99C206.867 98.408 207.193 98.9287 207.428 99.552C207.662 100.168 207.78 100.872 207.78 101.664C207.78 101.972 207.747 102.177 207.681 102.28C207.615 102.383 207.49 102.434 207.307 102.434H199.86C199.882 103.138 199.977 103.75 200.146 104.271C200.322 104.792 200.564 105.228 200.872 105.58C201.18 105.925 201.546 106.185 201.972 106.361C202.397 106.53 202.874 106.614 203.402 106.614C203.893 106.614 204.315 106.559 204.667 106.449C205.026 106.332 205.334 106.207 205.591 106.075C205.847 105.943 206.06 105.822 206.229 105.712C206.405 105.595 206.555 105.536 206.68 105.536C206.841 105.536 206.966 105.598 207.054 105.723L207.604 106.438ZM216.675 98.694C216.587 98.8553 216.451 98.936 216.268 98.936C216.158 98.936 216.033 98.8957 215.894 98.815C215.754 98.7343 215.582 98.6463 215.377 98.551C215.179 98.4483 214.94 98.3567 214.662 98.276C214.383 98.188 214.053 98.144 213.672 98.144C213.342 98.144 213.045 98.188 212.781 98.276C212.517 98.3567 212.289 98.4703 212.099 98.617C211.915 98.7637 211.772 98.936 211.67 99.134C211.574 99.3247 211.527 99.5337 211.527 99.761C211.527 100.047 211.607 100.285 211.769 100.476C211.937 100.667 212.157 100.832 212.429 100.971C212.7 101.11 213.008 101.235 213.353 101.345C213.697 101.448 214.049 101.561 214.409 101.686C214.775 101.803 215.131 101.935 215.476 102.082C215.82 102.229 216.128 102.412 216.4 102.632C216.671 102.852 216.887 103.123 217.049 103.446C217.217 103.761 217.302 104.143 217.302 104.59C217.302 105.103 217.21 105.58 217.027 106.02C216.843 106.453 216.572 106.83 216.213 107.153C215.853 107.468 215.413 107.718 214.893 107.901C214.372 108.084 213.771 108.176 213.089 108.176C212.311 108.176 211.607 108.051 210.977 107.802C210.346 107.545 209.811 107.219 209.371 106.823L209.833 106.075C209.891 105.98 209.961 105.906 210.042 105.855C210.122 105.804 210.225 105.778 210.35 105.778C210.482 105.778 210.621 105.829 210.768 105.932C210.914 106.035 211.09 106.148 211.296 106.273C211.508 106.398 211.765 106.511 212.066 106.614C212.366 106.717 212.74 106.768 213.188 106.768C213.569 106.768 213.903 106.72 214.189 106.625C214.475 106.522 214.713 106.387 214.904 106.218C215.094 106.049 215.234 105.855 215.322 105.635C215.417 105.415 215.465 105.18 215.465 104.931C215.465 104.623 215.38 104.37 215.212 104.172C215.05 103.967 214.834 103.794 214.563 103.655C214.291 103.508 213.98 103.384 213.628 103.281C213.283 103.171 212.927 103.057 212.561 102.94C212.201 102.823 211.846 102.691 211.494 102.544C211.149 102.39 210.841 102.199 210.57 101.972C210.298 101.745 210.078 101.466 209.91 101.136C209.748 100.799 209.668 100.392 209.668 99.915C209.668 99.4897 209.756 99.0827 209.932 98.694C210.108 98.298 210.364 97.9533 210.702 97.66C211.039 97.3593 211.453 97.121 211.945 96.945C212.436 96.769 212.997 96.681 213.628 96.681C214.361 96.681 215.017 96.7983 215.597 97.033C216.183 97.2603 216.689 97.5757 217.115 97.979L216.675 98.694ZM232.976 91.94V93.458H244.878V91.94H232.976ZM235.968 96.67V98.056H241.688V96.67H235.968ZM233.482 99.904V101.29H244.306V99.904H233.482ZM235.616 102.962V104.348H242.304V102.962H235.616ZM240.676 92.336L239.29 92.776C240.28 95.306 242.084 97.77 244.064 99.046C244.328 98.65 244.834 98.078 245.186 97.77C243.316 96.714 241.556 94.536 240.676 92.336ZM241.732 102.962V103.182C241.38 106.416 241.006 107.758 240.522 108.176C240.324 108.352 240.082 108.374 239.708 108.374C239.268 108.374 238.168 108.352 237.046 108.264C237.31 108.66 237.508 109.276 237.53 109.716C238.652 109.782 239.708 109.782 240.28 109.76C240.962 109.716 241.38 109.584 241.798 109.21C242.458 108.594 242.876 107.12 243.272 103.666C243.316 103.424 243.36 102.962 243.36 102.962H241.732ZM235.968 100.608C235.594 102.06 235.022 103.886 234.538 105.118L236.056 105.404C236.54 104.128 237.112 102.192 237.574 100.608H235.968ZM227.08 91.896H230.908V95.856H227.08V91.896ZM225.65 90.488V97.264H232.382V90.488H225.65ZM228.51 96.516V106.68H229.94V96.516H228.51ZM225.672 99.288V107.34H227.014V99.288H225.672ZM224.594 107.12L224.924 108.66C227.256 108.066 230.446 107.274 233.438 106.482L233.262 105.052C230.072 105.844 226.75 106.658 224.594 107.12ZM229.126 100.278V101.73H232.888V100.278H229.126ZM237.684 89.498C237.2 92.512 235.594 95.944 232.096 98.078C232.448 98.32 232.954 98.892 233.174 99.288C236.914 96.868 238.674 93.172 239.312 89.674L237.684 89.498ZM248.794 89.564C248.31 91.654 247.452 93.678 246.374 95.064C246.638 95.394 247.078 96.186 247.21 96.516C248.486 94.866 249.564 92.358 250.224 89.938L248.794 89.564ZM248.816 92.05L248.508 93.502H253.172V92.05H248.816ZM249.102 109.518C249.41 109.122 249.916 108.704 253.238 106.394C253.084 106.108 252.864 105.536 252.754 105.14L249.278 107.45L248.838 108.088L249.102 109.518ZM247.584 96.164V97.594H252.776V96.164H247.584ZM246.814 100.696V102.148H253.26V100.696H246.814ZM249.102 109.518C249.102 108.88 250.818 107.45 250.818 107.45V96.956H249.3V106.24C249.3 107.318 248.618 108.066 248.222 108.352C248.486 108.616 248.926 109.188 249.102 109.518ZM257 92.16V93.59H266.768V92.16H257ZM261.466 94.624V106.856H262.94V94.624H261.466ZM257.748 98.98C257.748 98.672 258.716 98.144 258.716 98.144V98.122C259.926 95.966 261.18 92.798 261.994 89.806L260.41 89.476C259.86 92.248 258.65 95.328 258.298 96.098C257.924 96.912 257.594 97.462 257.264 97.572C257.44 97.946 257.66 98.672 257.748 98.98ZM257.748 98.98C257.946 98.804 258.606 98.672 259.464 98.672H266.196V97.286H258.628L257.748 97.704V98.98ZM257.198 101.598V103.072H266.658V101.598H257.198ZM256.494 97.352H252.864V98.87H254.976V106.768H256.494V97.352ZM253.502 90.84C254.162 92.05 254.888 93.7 255.218 94.778L256.626 94.228C256.296 93.172 255.526 91.61 254.822 90.378L253.502 90.84ZM255.9 105.734C254.888 105.734 253.612 106.746 252.402 108.044L253.48 109.562C254.316 108.374 255.262 107.208 255.878 107.208C256.318 107.208 256.912 107.758 257.66 108.286C258.848 109.012 260.19 109.32 262.016 109.32C263.358 109.32 265.602 109.254 266.746 109.188C266.768 108.726 266.988 107.912 267.164 107.472C265.69 107.648 263.446 107.736 262.06 107.736C260.344 107.736 259.046 107.538 257.946 106.856C257.022 106.284 256.538 105.734 255.9 105.734ZM276.074 92.996V94.536H288.196V92.996H276.074ZM276.536 97.836V99.354H286.238V97.836H276.536ZM281.266 89.52V98.694H282.894V89.52H281.266ZM278.67 98.958L277.174 99.398C279.088 104.568 282.652 108.22 287.932 109.782C288.174 109.364 288.636 108.704 289.01 108.374C283.862 107.01 280.32 103.578 278.67 98.958ZM286.106 97.836V98.122C284.5 103.556 279.858 106.966 274.82 108.264C275.128 108.616 275.546 109.32 275.7 109.76C281.09 108.132 285.886 104.546 287.756 98.232L286.722 97.77L286.414 97.836H286.106ZM268.572 101.18L269.056 102.764C271.014 102.192 273.566 101.444 275.964 100.718L275.766 99.222C273.148 99.97 270.42 100.718 268.572 101.18ZM268.858 93.964V95.526H275.766V93.964H268.858ZM271.696 89.542V107.78C271.696 108.088 271.564 108.198 271.278 108.198C270.992 108.22 270.024 108.22 268.99 108.198C269.21 108.638 269.452 109.298 269.496 109.716C271.014 109.716 271.938 109.672 272.51 109.408C273.104 109.166 273.324 108.704 273.324 107.78V89.542H271.696ZM302.056 96.142L300.67 96.692C302.826 100.586 306.478 104.81 309.602 107.054C309.91 106.592 310.504 105.954 310.922 105.624C307.776 103.644 304.036 99.684 302.056 96.142ZM299.746 96.164C297.854 100.058 294.18 103.952 290.55 105.822C290.946 106.152 291.496 106.79 291.804 107.23C295.478 105.118 299.13 101.07 301.22 96.714L299.746 96.164ZM291.232 95.108V96.736H310.174V95.108H291.232ZM299.9 89.564V109.782H301.704V89.564H299.9ZM303.112 90.928C304.476 91.918 306.214 93.326 307.072 94.228L308.304 93.062C307.424 92.182 305.664 90.84 304.322 89.916L303.112 90.928Z" fill="white"/>
</svg>
