<svg width="406" height="228" viewBox="0 0 406 228" fill="none" xmlns="http://www.w3.org/2000/svg">
<rect width="406" height="228" fill="black"/>
<path d="M92.7313 78.744C92.8487 78.744 92.9513 78.7917 93.0393 78.887L93.8863 79.8C93.241 80.548 92.4563 81.131 91.5323 81.549C90.6157 81.967 89.5047 82.176 88.1993 82.176C87.07 82.176 86.0433 81.9817 85.1193 81.593C84.1953 81.197 83.407 80.647 82.7543 79.943C82.1017 79.2317 81.5957 78.381 81.2363 77.391C80.877 76.401 80.6973 75.312 80.6973 74.124C80.6973 72.936 80.8843 71.847 81.2583 70.857C81.6323 69.867 82.1567 69.0163 82.8313 68.305C83.5133 67.5937 84.3273 67.0437 85.2733 66.655C86.2193 66.259 87.2643 66.061 88.4083 66.061C89.5303 66.061 90.5203 66.2407 91.3783 66.6C92.2363 66.9593 92.9917 67.447 93.6443 68.063L92.9403 69.042C92.8963 69.1153 92.8377 69.1777 92.7643 69.229C92.6983 69.273 92.6067 69.295 92.4893 69.295C92.3573 69.295 92.196 69.2253 92.0053 69.086C91.8147 68.9393 91.5653 68.778 91.2573 68.602C90.9493 68.426 90.5643 68.2683 90.1023 68.129C89.6403 67.9823 89.072 67.909 88.3973 67.909C87.5833 67.909 86.839 68.052 86.1643 68.338C85.4897 68.6167 84.9067 69.0237 84.4153 69.559C83.9313 70.0943 83.5537 70.747 83.2823 71.517C83.011 72.287 82.8753 73.156 82.8753 74.124C82.8753 75.1067 83.0147 75.983 83.2933 76.753C83.5793 77.523 83.9643 78.1757 84.4483 78.711C84.9397 79.239 85.5153 79.6423 86.1753 79.921C86.8427 80.1997 87.5613 80.339 88.3313 80.339C88.8007 80.339 89.2223 80.3133 89.5963 80.262C89.9777 80.2033 90.326 80.1153 90.6413 79.998C90.964 79.8807 91.261 79.734 91.5323 79.558C91.811 79.3747 92.086 79.1583 92.3573 78.909C92.482 78.799 92.6067 78.744 92.7313 78.744ZM97.6932 73.09C98.0452 72.3273 98.4779 71.7333 98.9912 71.308C99.5045 70.8753 100.132 70.659 100.872 70.659C101.107 70.659 101.331 70.6847 101.543 70.736C101.763 70.7873 101.958 70.868 102.126 70.978L101.983 72.441C101.939 72.6243 101.829 72.716 101.653 72.716C101.551 72.716 101.4 72.694 101.202 72.65C101.004 72.606 100.781 72.584 100.531 72.584C100.179 72.584 99.8639 72.6353 99.5852 72.738C99.3139 72.8407 99.0682 72.9947 98.8482 73.2C98.6355 73.398 98.4412 73.6473 98.2652 73.948C98.0965 74.2413 97.9425 74.5787 97.8032 74.96V82H95.8342V70.857H96.9562C97.1689 70.857 97.3155 70.8973 97.3962 70.978C97.4769 71.0587 97.5319 71.198 97.5612 71.396L97.6932 73.09ZM113.462 70.857L107.247 85.289C107.181 85.4357 107.097 85.553 106.994 85.641C106.899 85.729 106.748 85.773 106.543 85.773H105.091L107.126 81.351L102.528 70.857H104.222C104.391 70.857 104.523 70.901 104.618 70.989C104.721 71.0697 104.79 71.1613 104.827 71.264L107.808 78.282C107.925 78.59 108.024 78.9127 108.105 79.25C108.208 78.9053 108.318 78.579 108.435 78.271L111.328 71.264C111.372 71.1467 111.445 71.0513 111.548 70.978C111.658 70.8973 111.779 70.857 111.911 70.857H113.462ZM117.161 79.316C117.52 79.8 117.912 80.141 118.338 80.339C118.763 80.537 119.24 80.636 119.768 80.636C120.809 80.636 121.608 80.2657 122.166 79.525C122.723 78.7843 123.002 77.7283 123.002 76.357C123.002 75.631 122.936 75.0077 122.804 74.487C122.679 73.9663 122.496 73.541 122.254 73.211C122.012 72.8737 121.715 72.628 121.363 72.474C121.011 72.32 120.611 72.243 120.164 72.243C119.526 72.243 118.965 72.3897 118.481 72.683C118.004 72.9763 117.564 73.3907 117.161 73.926V79.316ZM117.062 72.584C117.531 72.0047 118.074 71.539 118.69 71.187C119.306 70.835 120.01 70.659 120.802 70.659C121.447 70.659 122.03 70.7837 122.551 71.033C123.071 71.275 123.515 71.638 123.882 72.122C124.248 72.5987 124.531 73.1927 124.729 73.904C124.927 74.6153 125.026 75.433 125.026 76.357C125.026 77.1783 124.916 77.9447 124.696 78.656C124.476 79.36 124.157 79.9723 123.739 80.493C123.328 81.0063 122.822 81.4133 122.221 81.714C121.627 82.0073 120.956 82.154 120.208 82.154C119.526 82.154 118.939 82.0403 118.448 81.813C117.964 81.5783 117.535 81.2557 117.161 80.845V85.773H115.192V70.857H116.369C116.647 70.857 116.82 70.9927 116.886 71.264L117.062 72.584ZM130.794 82.176C129.914 82.176 129.236 81.9303 128.759 81.439C128.29 80.9477 128.055 80.24 128.055 79.316V72.496H126.713C126.596 72.496 126.497 72.463 126.416 72.397C126.336 72.3237 126.295 72.2137 126.295 72.067V71.286L128.121 71.055L128.572 67.612C128.594 67.502 128.642 67.414 128.715 67.348C128.796 67.2747 128.899 67.238 129.023 67.238H130.013V71.077H133.236V72.496H130.013V79.184C130.013 79.6533 130.127 80.0017 130.354 80.229C130.582 80.4563 130.875 80.57 131.234 80.57C131.44 80.57 131.616 80.5443 131.762 80.493C131.916 80.4343 132.048 80.372 132.158 80.306C132.268 80.24 132.36 80.1813 132.433 80.13C132.514 80.0713 132.584 80.042 132.642 80.042C132.745 80.042 132.837 80.1043 132.917 80.229L133.489 81.164C133.152 81.4793 132.745 81.7287 132.268 81.912C131.792 82.088 131.3 82.176 130.794 82.176ZM139.891 70.681C140.705 70.681 141.438 70.8167 142.091 71.088C142.743 71.3593 143.301 71.7443 143.763 72.243C144.225 72.7417 144.577 73.3467 144.819 74.058C145.068 74.762 145.193 75.5503 145.193 76.423C145.193 77.303 145.068 78.095 144.819 78.799C144.577 79.503 144.225 80.1043 143.763 80.603C143.301 81.1017 142.743 81.4867 142.091 81.758C141.438 82.022 140.705 82.154 139.891 82.154C139.069 82.154 138.329 82.022 137.669 81.758C137.016 81.4867 136.459 81.1017 135.997 80.603C135.535 80.1043 135.179 79.503 134.93 78.799C134.688 78.095 134.567 77.303 134.567 76.423C134.567 75.5503 134.688 74.762 134.93 74.058C135.179 73.3467 135.535 72.7417 135.997 72.243C136.459 71.7443 137.016 71.3593 137.669 71.088C138.329 70.8167 139.069 70.681 139.891 70.681ZM139.891 80.625C140.991 80.625 141.812 80.2583 142.355 79.525C142.897 78.7843 143.169 77.754 143.169 76.434C143.169 75.1067 142.897 74.0727 142.355 73.332C141.812 72.5913 140.991 72.221 139.891 72.221C139.333 72.221 138.846 72.3163 138.428 72.507C138.017 72.6977 137.672 72.9727 137.394 73.332C137.122 73.6913 136.917 74.135 136.778 74.663C136.646 75.1837 136.58 75.774 136.58 76.434C136.58 77.754 136.851 78.7843 137.394 79.525C137.944 80.2583 138.776 80.625 139.891 80.625ZM156.09 68.03H150.986V82H148.863V68.03H143.748V66.237H156.09V68.03ZM162.739 75.213C162.739 74.7583 162.673 74.344 162.541 73.97C162.417 73.5887 162.23 73.2623 161.98 72.991C161.738 72.7123 161.441 72.4997 161.089 72.353C160.737 72.199 160.338 72.122 159.89 72.122C158.952 72.122 158.207 72.397 157.657 72.947C157.115 73.4897 156.777 74.245 156.645 75.213H162.739ZM164.323 80.438C164.081 80.7313 163.792 80.988 163.454 81.208C163.117 81.4207 162.754 81.5967 162.365 81.736C161.984 81.8753 161.588 81.978 161.177 82.044C160.767 82.1173 160.36 82.154 159.956 82.154C159.186 82.154 158.475 82.0257 157.822 81.769C157.177 81.505 156.616 81.1237 156.139 80.625C155.67 80.119 155.303 79.4957 155.039 78.755C154.775 78.0143 154.643 77.1637 154.643 76.203C154.643 75.4257 154.761 74.6997 154.995 74.025C155.237 73.3503 155.582 72.7673 156.029 72.276C156.477 71.7773 157.023 71.3887 157.668 71.11C158.314 70.824 159.04 70.681 159.846 70.681C160.514 70.681 161.13 70.7947 161.694 71.022C162.266 71.242 162.758 71.5647 163.168 71.99C163.586 72.408 163.913 72.9287 164.147 73.552C164.382 74.168 164.499 74.872 164.499 75.664C164.499 75.972 164.466 76.1773 164.4 76.28C164.334 76.3827 164.21 76.434 164.026 76.434H156.579C156.601 77.138 156.697 77.7503 156.865 78.271C157.041 78.7917 157.283 79.228 157.591 79.58C157.899 79.9247 158.266 80.185 158.691 80.361C159.117 80.5297 159.593 80.614 160.121 80.614C160.613 80.614 161.034 80.559 161.386 80.449C161.746 80.3317 162.054 80.207 162.31 80.075C162.567 79.943 162.78 79.822 162.948 79.712C163.124 79.5947 163.275 79.536 163.399 79.536C163.561 79.536 163.685 79.5983 163.773 79.723L164.323 80.438ZM174.66 72.837C174.601 72.9177 174.542 72.98 174.484 73.024C174.425 73.068 174.344 73.09 174.242 73.09C174.132 73.09 174.011 73.046 173.879 72.958C173.747 72.8627 173.582 72.76 173.384 72.65C173.193 72.54 172.955 72.441 172.669 72.353C172.39 72.2577 172.045 72.21 171.635 72.21C171.085 72.21 170.601 72.309 170.183 72.507C169.765 72.6977 169.413 72.9763 169.127 73.343C168.848 73.7097 168.635 74.1533 168.489 74.674C168.349 75.1947 168.28 75.7777 168.28 76.423C168.28 77.0977 168.357 77.699 168.511 78.227C168.665 78.7477 168.881 79.1877 169.16 79.547C169.446 79.899 169.787 80.1703 170.183 80.361C170.586 80.5443 171.037 80.636 171.536 80.636C172.012 80.636 172.405 80.581 172.713 80.471C173.021 80.3537 173.274 80.2253 173.472 80.086C173.677 79.9467 173.846 79.822 173.978 79.712C174.117 79.5947 174.253 79.536 174.385 79.536C174.546 79.536 174.671 79.5983 174.759 79.723L175.309 80.438C175.067 80.7387 174.792 80.9953 174.484 81.208C174.176 81.4207 173.842 81.6003 173.483 81.747C173.131 81.8863 172.76 81.989 172.372 82.055C171.983 82.121 171.587 82.154 171.184 82.154C170.487 82.154 169.838 82.0257 169.237 81.769C168.643 81.5123 168.126 81.142 167.686 80.658C167.246 80.1667 166.901 79.5653 166.652 78.854C166.402 78.1427 166.278 77.3323 166.278 76.423C166.278 75.5943 166.391 74.828 166.619 74.124C166.853 73.42 167.191 72.815 167.631 72.309C168.078 71.7957 168.624 71.396 169.27 71.11C169.922 70.824 170.67 70.681 171.514 70.681C172.298 70.681 172.988 70.8093 173.582 71.066C174.183 71.3153 174.715 71.671 175.177 72.133L174.66 72.837ZM179.379 72.342C179.856 71.836 180.384 71.4327 180.963 71.132C181.543 70.8313 182.21 70.681 182.965 70.681C183.574 70.681 184.109 70.7837 184.571 70.989C185.041 71.187 185.429 71.473 185.737 71.847C186.053 72.2137 186.291 72.6573 186.452 73.178C186.614 73.6987 186.694 74.2743 186.694 74.905V82H184.725V74.905C184.725 74.0617 184.531 73.409 184.142 72.947C183.761 72.4777 183.178 72.243 182.393 72.243C181.814 72.243 181.271 72.3823 180.765 72.661C180.267 72.9397 179.805 73.3173 179.379 73.794V82H177.41V65.797H179.379V72.342ZM202.696 66.237V82H201.629C201.46 82 201.317 81.9707 201.2 81.912C201.09 81.8533 200.98 81.7543 200.87 81.615L191.751 69.735C191.766 69.9183 191.777 70.098 191.784 70.274C191.791 70.45 191.795 70.615 191.795 70.769V82H189.925V66.237H191.025C191.12 66.237 191.201 66.2443 191.267 66.259C191.333 66.2663 191.392 66.2847 191.443 66.314C191.494 66.336 191.546 66.3727 191.597 66.424C191.648 66.468 191.703 66.5267 191.762 66.6L200.881 78.469C200.866 78.2783 200.852 78.095 200.837 77.919C200.83 77.7357 200.826 77.5633 200.826 77.402V66.237H202.696ZM208.16 70.857V82H206.202V70.857H208.16ZM208.578 67.359C208.578 67.5497 208.538 67.7293 208.457 67.898C208.384 68.0593 208.281 68.206 208.149 68.338C208.024 68.4627 207.874 68.5617 207.698 68.635C207.529 68.7083 207.35 68.745 207.159 68.745C206.968 68.745 206.789 68.7083 206.62 68.635C206.459 68.5617 206.316 68.4627 206.191 68.338C206.066 68.206 205.967 68.0593 205.894 67.898C205.821 67.7293 205.784 67.5497 205.784 67.359C205.784 67.1683 205.821 66.9887 205.894 66.82C205.967 66.644 206.066 66.4937 206.191 66.369C206.316 66.237 206.459 66.1343 206.62 66.061C206.789 65.9877 206.968 65.951 207.159 65.951C207.35 65.951 207.529 65.9877 207.698 66.061C207.874 66.1343 208.024 66.237 208.149 66.369C208.281 66.4937 208.384 66.644 208.457 66.82C208.538 66.9887 208.578 67.1683 208.578 67.359ZM215.26 76.555C215.656 76.555 216.005 76.5 216.305 76.39C216.606 76.28 216.859 76.126 217.064 75.928C217.27 75.73 217.424 75.4953 217.526 75.224C217.629 74.9453 217.68 74.641 217.68 74.311C217.68 73.629 217.471 73.0863 217.053 72.683C216.643 72.2797 216.045 72.078 215.26 72.078C214.468 72.078 213.863 72.2797 213.445 72.683C213.035 73.0863 212.829 73.629 212.829 74.311C212.829 74.641 212.881 74.9453 212.983 75.224C213.093 75.4953 213.251 75.73 213.456 75.928C213.662 76.126 213.915 76.28 214.215 76.39C214.516 76.5 214.864 76.555 215.26 76.555ZM218.791 82.605C218.791 82.3337 218.714 82.1137 218.56 81.945C218.406 81.7763 218.197 81.6443 217.933 81.549C217.677 81.4537 217.376 81.3877 217.031 81.351C216.687 81.307 216.32 81.274 215.931 81.252C215.55 81.23 215.161 81.208 214.765 81.186C214.369 81.164 213.988 81.1273 213.621 81.076C213.211 81.2667 212.873 81.5087 212.609 81.802C212.353 82.088 212.224 82.4253 212.224 82.814C212.224 83.0633 212.287 83.2943 212.411 83.507C212.543 83.727 212.741 83.914 213.005 84.068C213.269 84.2293 213.599 84.354 213.995 84.442C214.399 84.5373 214.872 84.585 215.414 84.585C215.942 84.585 216.415 84.5373 216.833 84.442C217.251 84.3467 217.603 84.211 217.889 84.035C218.183 83.859 218.406 83.65 218.56 83.408C218.714 83.166 218.791 82.8983 218.791 82.605ZM220.782 71.297V72.023C220.782 72.265 220.628 72.419 220.32 72.485L219.055 72.65C219.305 73.134 219.429 73.6693 219.429 74.256C219.429 74.7987 219.323 75.2937 219.11 75.741C218.905 76.181 218.619 76.5587 218.252 76.874C217.886 77.1893 217.446 77.4313 216.932 77.6C216.419 77.7687 215.862 77.853 215.26 77.853C214.74 77.853 214.248 77.7907 213.786 77.666C213.552 77.8127 213.372 77.9703 213.247 78.139C213.123 78.3003 213.06 78.4653 213.06 78.634C213.06 78.898 213.167 79.0997 213.379 79.239C213.599 79.371 213.885 79.4663 214.237 79.525C214.589 79.5837 214.989 79.6203 215.436 79.635C215.891 79.6497 216.353 79.6753 216.822 79.712C217.299 79.7413 217.761 79.7963 218.208 79.877C218.663 79.9577 219.066 80.0897 219.418 80.273C219.77 80.4563 220.053 80.7093 220.265 81.032C220.485 81.3547 220.595 81.7727 220.595 82.286C220.595 82.7627 220.474 83.2247 220.232 83.672C219.998 84.1193 219.657 84.5153 219.209 84.86C218.762 85.212 218.212 85.4907 217.559 85.696C216.914 85.9087 216.184 86.015 215.37 86.015C214.556 86.015 213.845 85.9343 213.236 85.773C212.628 85.6117 212.122 85.3953 211.718 85.124C211.315 84.8527 211.011 84.5373 210.805 84.178C210.607 83.826 210.508 83.4557 210.508 83.067C210.508 82.517 210.681 82.0513 211.025 81.67C211.37 81.2887 211.843 80.9843 212.444 80.757C212.114 80.6103 211.85 80.416 211.652 80.174C211.462 79.9247 211.366 79.591 211.366 79.173C211.366 79.0117 211.396 78.8467 211.454 78.678C211.513 78.502 211.601 78.3297 211.718 78.161C211.843 77.985 211.993 77.82 212.169 77.666C212.345 77.512 212.551 77.3763 212.785 77.259C212.235 76.951 211.806 76.544 211.498 76.038C211.19 75.5247 211.036 74.9307 211.036 74.256C211.036 73.7133 211.139 73.222 211.344 72.782C211.557 72.3347 211.85 71.957 212.224 71.649C212.598 71.3337 213.042 71.0917 213.555 70.923C214.076 70.7543 214.644 70.67 215.26 70.67C215.744 70.67 216.195 70.725 216.613 70.835C217.031 70.9377 217.413 71.0917 217.757 71.297H220.782ZM224.776 72.342C225.253 71.836 225.781 71.4327 226.36 71.132C226.939 70.8313 227.607 70.681 228.362 70.681C228.971 70.681 229.506 70.7837 229.968 70.989C230.437 71.187 230.826 71.473 231.134 71.847C231.449 72.2137 231.688 72.6573 231.849 73.178C232.01 73.6987 232.091 74.2743 232.091 74.905V82H230.122V74.905C230.122 74.0617 229.928 73.409 229.539 72.947C229.158 72.4777 228.575 72.243 227.79 72.243C227.211 72.243 226.668 72.3823 226.162 72.661C225.663 72.9397 225.201 73.3173 224.776 73.794V82H222.807V65.797H224.776V72.342ZM238.345 82.176C237.465 82.176 236.787 81.9303 236.31 81.439C235.841 80.9477 235.606 80.24 235.606 79.316V72.496H234.264C234.147 72.496 234.048 72.463 233.967 72.397C233.886 72.3237 233.846 72.2137 233.846 72.067V71.286L235.672 71.055L236.123 67.612C236.145 67.502 236.193 67.414 236.266 67.348C236.347 67.2747 236.449 67.238 236.574 67.238H237.564V71.077H240.787V72.496H237.564V79.184C237.564 79.6533 237.678 80.0017 237.905 80.229C238.132 80.4563 238.426 80.57 238.785 80.57C238.99 80.57 239.166 80.5443 239.313 80.493C239.467 80.4343 239.599 80.372 239.709 80.306C239.819 80.24 239.911 80.1813 239.984 80.13C240.065 80.0713 240.134 80.042 240.193 80.042C240.296 80.042 240.387 80.1043 240.468 80.229L241.04 81.164C240.703 81.4793 240.296 81.7287 239.819 81.912C239.342 82.088 238.851 82.176 238.345 82.176ZM242.633 74.575H248.067V76.236H242.633V74.575ZM261.522 74.124C261.522 75.5027 261.372 76.698 261.071 77.71C260.778 78.7147 260.374 79.547 259.861 80.207C259.348 80.867 258.739 81.3583 258.035 81.681C257.338 82.0037 256.59 82.165 255.791 82.165C254.984 82.165 254.233 82.0037 253.536 81.681C252.847 81.3583 252.245 80.867 251.732 80.207C251.219 79.547 250.815 78.7147 250.522 77.71C250.229 76.698 250.082 75.5027 250.082 74.124C250.082 72.7453 250.229 71.55 250.522 70.538C250.815 69.526 251.219 68.69 251.732 68.03C252.245 67.3627 252.847 66.8677 253.536 66.545C254.233 66.2223 254.984 66.061 255.791 66.061C256.59 66.061 257.338 66.2223 258.035 66.545C258.739 66.8677 259.348 67.3627 259.861 68.03C260.374 68.69 260.778 69.526 261.071 70.538C261.372 71.55 261.522 72.7453 261.522 74.124ZM259.487 74.124C259.487 72.9213 259.384 71.913 259.179 71.099C258.981 70.2777 258.71 69.6177 258.365 69.119C258.028 68.6203 257.635 68.2647 257.188 68.052C256.741 67.832 256.275 67.722 255.791 67.722C255.307 67.722 254.841 67.832 254.394 68.052C253.947 68.2647 253.554 68.6203 253.217 69.119C252.88 69.6177 252.608 70.2777 252.403 71.099C252.205 71.913 252.106 72.9213 252.106 74.124C252.106 75.3267 252.205 76.335 252.403 77.149C252.608 77.963 252.88 78.6193 253.217 79.118C253.554 79.6167 253.947 79.976 254.394 80.196C254.841 80.4087 255.307 80.515 255.791 80.515C256.275 80.515 256.741 80.4087 257.188 80.196C257.635 79.976 258.028 79.6167 258.365 79.118C258.71 78.6193 258.981 77.963 259.179 77.149C259.384 76.335 259.487 75.3267 259.487 74.124ZM263.614 70.505C263.716 69.7863 263.914 69.152 264.208 68.602C264.501 68.0447 264.871 67.579 265.319 67.205C265.773 66.831 266.29 66.5487 266.87 66.358C267.456 66.16 268.087 66.061 268.762 66.061C269.429 66.061 270.045 66.1563 270.61 66.347C271.174 66.5377 271.658 66.809 272.062 67.161C272.472 67.513 272.791 67.9383 273.019 68.437C273.246 68.9357 273.36 69.4893 273.36 70.098C273.36 70.5967 273.294 71.044 273.162 71.44C273.037 71.8287 272.854 72.1697 272.612 72.463C272.377 72.7563 272.091 73.0057 271.754 73.211C271.416 73.4163 271.039 73.585 270.621 73.717C271.647 73.981 272.417 74.4357 272.931 75.081C273.451 75.719 273.712 76.5183 273.712 77.479C273.712 78.205 273.572 78.8577 273.294 79.437C273.022 80.0163 272.648 80.5113 272.172 80.922C271.695 81.3253 271.138 81.637 270.5 81.857C269.869 82.0697 269.191 82.176 268.465 82.176C267.629 82.176 266.914 82.0733 266.32 81.868C265.726 81.6553 265.223 81.3657 264.813 80.999C264.402 80.6323 264.065 80.1997 263.801 79.701C263.537 79.195 263.313 78.6487 263.13 78.062L263.977 77.71C264.197 77.6147 264.409 77.589 264.615 77.633C264.827 77.677 264.981 77.798 265.077 77.996C265.172 78.2013 265.289 78.447 265.429 78.733C265.575 79.019 265.773 79.294 266.023 79.558C266.272 79.822 266.587 80.0457 266.969 80.229C267.357 80.4123 267.849 80.504 268.443 80.504C268.993 80.504 269.473 80.416 269.884 80.24C270.302 80.0567 270.646 79.822 270.918 79.536C271.196 79.25 271.405 78.931 271.545 78.579C271.684 78.227 271.754 77.8787 271.754 77.534C271.754 77.1087 271.699 76.72 271.589 76.368C271.479 76.016 271.273 75.7117 270.973 75.455C270.672 75.1983 270.258 74.9967 269.73 74.85C269.209 74.7033 268.538 74.63 267.717 74.63V73.211C268.391 73.2037 268.963 73.1303 269.433 72.991C269.909 72.8517 270.294 72.661 270.588 72.419C270.888 72.177 271.105 71.8873 271.237 71.55C271.376 71.2127 271.446 70.8387 271.446 70.428C271.446 69.9733 271.372 69.5773 271.226 69.24C271.086 68.9027 270.892 68.624 270.643 68.404C270.393 68.184 270.096 68.019 269.752 67.909C269.414 67.799 269.048 67.744 268.652 67.744C268.256 67.744 267.885 67.8027 267.541 67.92C267.203 68.0373 266.903 68.2023 266.639 68.415C266.382 68.6203 266.166 68.866 265.99 69.152C265.814 69.438 265.689 69.7533 265.616 70.098C265.52 70.3547 265.399 70.527 265.253 70.615C265.113 70.6957 264.908 70.7177 264.637 70.681L263.614 70.505ZM276.32 74.575H281.754V76.236H276.32V74.575ZM297.893 66.237V82H296.826C296.658 82 296.515 81.9707 296.397 81.912C296.287 81.8533 296.177 81.7543 296.067 81.615L286.948 69.735C286.963 69.9183 286.974 70.098 286.981 70.274C286.989 70.45 286.992 70.615 286.992 70.769V82H285.122V66.237H286.222C286.318 66.237 286.398 66.2443 286.464 66.259C286.53 66.2663 286.589 66.2847 286.64 66.314C286.692 66.336 286.743 66.3727 286.794 66.424C286.846 66.468 286.901 66.5267 286.959 66.6L296.078 78.469C296.064 78.2783 296.049 78.095 296.034 77.919C296.027 77.7357 296.023 77.5633 296.023 77.402V66.237H297.893ZM304.057 67.975V73.486H310.536V75.224H304.057V82H301.923V66.237H311.636V67.975H304.057ZM325.022 68.03H319.918V82H317.795V68.03H312.68V66.237H325.022V68.03Z" fill="white"/>
</svg>
