<svg width="406" height="228" viewBox="0 0 406 228" fill="none" xmlns="http://www.w3.org/2000/svg">
<rect width="406" height="228" fill="black"/>
<path d="M85.5341 78.744C85.6514 78.744 85.7541 78.7917 85.8421 78.887L86.6891 79.8C86.0437 80.548 85.2591 81.131 84.3351 81.549C83.4184 81.967 82.3074 82.176 81.0021 82.176C79.8727 82.176 78.8461 81.9817 77.9221 81.593C76.9981 81.197 76.2097 80.647 75.5571 79.943C74.9044 79.2317 74.3984 78.381 74.0391 77.391C73.6797 76.401 73.5001 75.312 73.5001 74.124C73.5001 72.936 73.6871 71.847 74.0611 70.857C74.4351 69.867 74.9594 69.0163 75.6341 68.305C76.3161 67.5937 77.1301 67.0437 78.0761 66.655C79.0221 66.259 80.0671 66.061 81.2111 66.061C82.3331 66.061 83.3231 66.2407 84.1811 66.6C85.0391 66.9593 85.7944 67.447 86.4471 68.063L85.7431 69.042C85.6991 69.1153 85.6404 69.1777 85.5671 69.229C85.5011 69.273 85.4094 69.295 85.2921 69.295C85.1601 69.295 84.9987 69.2253 84.8081 69.086C84.6174 68.9393 84.3681 68.778 84.0601 68.602C83.7521 68.426 83.3671 68.2683 82.9051 68.129C82.4431 67.9823 81.8747 67.909 81.2001 67.909C80.3861 67.909 79.6417 68.052 78.9671 68.338C78.2924 68.6167 77.7094 69.0237 77.2181 69.559C76.7341 70.0943 76.3564 70.747 76.0851 71.517C75.8137 72.287 75.6781 73.156 75.6781 74.124C75.6781 75.1067 75.8174 75.983 76.0961 76.753C76.3821 77.523 76.7671 78.1757 77.2511 78.711C77.7424 79.239 78.3181 79.6423 78.9781 79.921C79.6454 80.1997 80.3641 80.339 81.1341 80.339C81.6034 80.339 82.0251 80.3133 82.3991 80.262C82.7804 80.2033 83.1287 80.1153 83.4441 79.998C83.7667 79.8807 84.0637 79.734 84.3351 79.558C84.6137 79.3747 84.8887 79.1583 85.1601 78.909C85.2847 78.799 85.4094 78.744 85.5341 78.744ZM90.4959 73.09C90.8479 72.3273 91.2806 71.7333 91.7939 71.308C92.3073 70.8753 92.9343 70.659 93.6749 70.659C93.9096 70.659 94.1333 70.6847 94.3459 70.736C94.5659 70.7873 94.7603 70.868 94.9289 70.978L94.7859 72.441C94.7419 72.6243 94.6319 72.716 94.4559 72.716C94.3533 72.716 94.2029 72.694 94.0049 72.65C93.8069 72.606 93.5833 72.584 93.3339 72.584C92.9819 72.584 92.6666 72.6353 92.3879 72.738C92.1166 72.8407 91.8709 72.9947 91.6509 73.2C91.4383 73.398 91.2439 73.6473 91.0679 73.948C90.8993 74.2413 90.7453 74.5787 90.6059 74.96V82H88.6369V70.857H89.7589C89.9716 70.857 90.1183 70.8973 90.1989 70.978C90.2796 71.0587 90.3346 71.198 90.3639 71.396L90.4959 73.09ZM106.265 70.857L100.05 85.289C99.9836 85.4357 99.8993 85.553 99.7966 85.641C99.7013 85.729 99.5509 85.773 99.3456 85.773H97.8936L99.9286 81.351L95.3306 70.857H97.0246C97.1933 70.857 97.3253 70.901 97.4206 70.989C97.5233 71.0697 97.5929 71.1613 97.6296 71.264L100.611 78.282C100.728 78.59 100.827 78.9127 100.908 79.25C101.01 78.9053 101.12 78.579 101.238 78.271L104.131 71.264C104.175 71.1467 104.248 71.0513 104.351 70.978C104.461 70.8973 104.582 70.857 104.714 70.857H106.265ZM109.963 79.316C110.323 79.8 110.715 80.141 111.14 80.339C111.566 80.537 112.042 80.636 112.57 80.636C113.612 80.636 114.411 80.2657 114.968 79.525C115.526 78.7843 115.804 77.7283 115.804 76.357C115.804 75.631 115.738 75.0077 115.606 74.487C115.482 73.9663 115.298 73.541 115.056 73.211C114.814 72.8737 114.517 72.628 114.165 72.474C113.813 72.32 113.414 72.243 112.966 72.243C112.328 72.243 111.767 72.3897 111.283 72.683C110.807 72.9763 110.367 73.3907 109.963 73.926V79.316ZM109.864 72.584C110.334 72.0047 110.876 71.539 111.492 71.187C112.108 70.835 112.812 70.659 113.604 70.659C114.25 70.659 114.833 70.7837 115.353 71.033C115.874 71.275 116.318 71.638 116.684 72.122C117.051 72.5987 117.333 73.1927 117.531 73.904C117.729 74.6153 117.828 75.433 117.828 76.357C117.828 77.1783 117.718 77.9447 117.498 78.656C117.278 79.36 116.959 79.9723 116.541 80.493C116.131 81.0063 115.625 81.4133 115.023 81.714C114.429 82.0073 113.758 82.154 113.01 82.154C112.328 82.154 111.742 82.0403 111.25 81.813C110.766 81.5783 110.337 81.2557 109.963 80.845V85.773H107.994V70.857H109.171C109.45 70.857 109.622 70.9927 109.688 71.264L109.864 72.584ZM123.597 82.176C122.717 82.176 122.039 81.9303 121.562 81.439C121.093 80.9477 120.858 80.24 120.858 79.316V72.496H119.516C119.399 72.496 119.3 72.463 119.219 72.397C119.138 72.3237 119.098 72.2137 119.098 72.067V71.286L120.924 71.055L121.375 67.612C121.397 67.502 121.445 67.414 121.518 67.348C121.599 67.2747 121.701 67.238 121.826 67.238H122.816V71.077H126.039V72.496H122.816V79.184C122.816 79.6533 122.93 80.0017 123.157 80.229C123.384 80.4563 123.678 80.57 124.037 80.57C124.242 80.57 124.418 80.5443 124.565 80.493C124.719 80.4343 124.851 80.372 124.961 80.306C125.071 80.24 125.163 80.1813 125.236 80.13C125.317 80.0713 125.386 80.042 125.445 80.042C125.548 80.042 125.639 80.1043 125.72 80.229L126.292 81.164C125.955 81.4793 125.548 81.7287 125.071 81.912C124.594 82.088 124.103 82.176 123.597 82.176ZM132.693 70.681C133.507 70.681 134.241 70.8167 134.893 71.088C135.546 71.3593 136.103 71.7443 136.565 72.243C137.027 72.7417 137.379 73.3467 137.621 74.058C137.871 74.762 137.995 75.5503 137.995 76.423C137.995 77.303 137.871 78.095 137.621 78.799C137.379 79.503 137.027 80.1043 136.565 80.603C136.103 81.1017 135.546 81.4867 134.893 81.758C134.241 82.022 133.507 82.154 132.693 82.154C131.872 82.154 131.131 82.022 130.471 81.758C129.819 81.4867 129.261 81.1017 128.799 80.603C128.337 80.1043 127.982 79.503 127.732 78.799C127.49 78.095 127.369 77.303 127.369 76.423C127.369 75.5503 127.49 74.762 127.732 74.058C127.982 73.3467 128.337 72.7417 128.799 72.243C129.261 71.7443 129.819 71.3593 130.471 71.088C131.131 70.8167 131.872 70.681 132.693 70.681ZM132.693 80.625C133.793 80.625 134.615 80.2583 135.157 79.525C135.7 78.7843 135.971 77.754 135.971 76.434C135.971 75.1067 135.7 74.0727 135.157 73.332C134.615 72.5913 133.793 72.221 132.693 72.221C132.136 72.221 131.648 72.3163 131.23 72.507C130.82 72.6977 130.475 72.9727 130.196 73.332C129.925 73.6913 129.72 74.135 129.58 74.663C129.448 75.1837 129.382 75.774 129.382 76.434C129.382 77.754 129.654 78.7843 130.196 79.525C130.746 80.2583 131.579 80.625 132.693 80.625ZM148.893 68.03H143.789V82H141.666V68.03H136.551V66.237H148.893V68.03ZM155.542 75.213C155.542 74.7583 155.476 74.344 155.344 73.97C155.22 73.5887 155.033 73.2623 154.783 72.991C154.541 72.7123 154.244 72.4997 153.892 72.353C153.54 72.199 153.141 72.122 152.693 72.122C151.755 72.122 151.01 72.397 150.46 72.947C149.918 73.4897 149.58 74.245 149.448 75.213H155.542ZM157.126 80.438C156.884 80.7313 156.595 80.988 156.257 81.208C155.92 81.4207 155.557 81.5967 155.168 81.736C154.787 81.8753 154.391 81.978 153.98 82.044C153.57 82.1173 153.163 82.154 152.759 82.154C151.989 82.154 151.278 82.0257 150.625 81.769C149.98 81.505 149.419 81.1237 148.942 80.625C148.473 80.119 148.106 79.4957 147.842 78.755C147.578 78.0143 147.446 77.1637 147.446 76.203C147.446 75.4257 147.564 74.6997 147.798 74.025C148.04 73.3503 148.385 72.7673 148.832 72.276C149.28 71.7773 149.826 71.3887 150.471 71.11C151.117 70.824 151.843 70.681 152.649 70.681C153.317 70.681 153.933 70.7947 154.497 71.022C155.069 71.242 155.561 71.5647 155.971 71.99C156.389 72.408 156.716 72.9287 156.95 73.552C157.185 74.168 157.302 74.872 157.302 75.664C157.302 75.972 157.269 76.1773 157.203 76.28C157.137 76.3827 157.013 76.434 156.829 76.434H149.382C149.404 77.138 149.5 77.7503 149.668 78.271C149.844 78.7917 150.086 79.228 150.394 79.58C150.702 79.9247 151.069 80.185 151.494 80.361C151.92 80.5297 152.396 80.614 152.924 80.614C153.416 80.614 153.837 80.559 154.189 80.449C154.549 80.3317 154.857 80.207 155.113 80.075C155.37 79.943 155.583 79.822 155.751 79.712C155.927 79.5947 156.078 79.536 156.202 79.536C156.364 79.536 156.488 79.5983 156.576 79.723L157.126 80.438ZM167.462 72.837C167.404 72.9177 167.345 72.98 167.286 73.024C167.228 73.068 167.147 73.09 167.044 73.09C166.934 73.09 166.813 73.046 166.681 72.958C166.549 72.8627 166.384 72.76 166.186 72.65C165.996 72.54 165.757 72.441 165.471 72.353C165.193 72.2577 164.848 72.21 164.437 72.21C163.887 72.21 163.403 72.309 162.985 72.507C162.567 72.6977 162.215 72.9763 161.929 73.343C161.651 73.7097 161.438 74.1533 161.291 74.674C161.152 75.1947 161.082 75.7777 161.082 76.423C161.082 77.0977 161.159 77.699 161.313 78.227C161.467 78.7477 161.684 79.1877 161.962 79.547C162.248 79.899 162.589 80.1703 162.985 80.361C163.389 80.5443 163.84 80.636 164.338 80.636C164.815 80.636 165.207 80.581 165.515 80.471C165.823 80.3537 166.076 80.2253 166.274 80.086C166.48 79.9467 166.648 79.822 166.78 79.712C166.92 79.5947 167.055 79.536 167.187 79.536C167.349 79.536 167.473 79.5983 167.561 79.723L168.111 80.438C167.869 80.7387 167.594 80.9953 167.286 81.208C166.978 81.4207 166.645 81.6003 166.285 81.747C165.933 81.8863 165.563 81.989 165.174 82.055C164.786 82.121 164.39 82.154 163.986 82.154C163.29 82.154 162.641 82.0257 162.039 81.769C161.445 81.5123 160.928 81.142 160.488 80.658C160.048 80.1667 159.704 79.5653 159.454 78.854C159.205 78.1427 159.08 77.3323 159.08 76.423C159.08 75.5943 159.194 74.828 159.421 74.124C159.656 73.42 159.993 72.815 160.433 72.309C160.881 71.7957 161.427 71.396 162.072 71.11C162.725 70.824 163.473 70.681 164.316 70.681C165.101 70.681 165.79 70.8093 166.384 71.066C166.986 71.3153 167.517 71.671 167.979 72.133L167.462 72.837ZM172.182 72.342C172.659 71.836 173.187 71.4327 173.766 71.132C174.345 70.8313 175.013 70.681 175.768 70.681C176.377 70.681 176.912 70.7837 177.374 70.989C177.843 71.187 178.232 71.473 178.54 71.847C178.855 72.2137 179.094 72.6573 179.255 73.178C179.416 73.6987 179.497 74.2743 179.497 74.905V82H177.528V74.905C177.528 74.0617 177.334 73.409 176.945 72.947C176.564 72.4777 175.981 72.243 175.196 72.243C174.617 72.243 174.074 72.3823 173.568 72.661C173.069 72.9397 172.607 73.3173 172.182 73.794V82H170.213V65.797H172.182V72.342ZM195.499 66.237V82H194.432C194.263 82 194.12 81.9707 194.003 81.912C193.893 81.8533 193.783 81.7543 193.673 81.615L184.554 69.735C184.569 69.9183 184.58 70.098 184.587 70.274C184.594 70.45 184.598 70.615 184.598 70.769V82H182.728V66.237H183.828C183.923 66.237 184.004 66.2443 184.07 66.259C184.136 66.2663 184.195 66.2847 184.246 66.314C184.297 66.336 184.349 66.3727 184.4 66.424C184.451 66.468 184.506 66.5267 184.565 66.6L193.684 78.469C193.669 78.2783 193.655 78.095 193.64 77.919C193.633 77.7357 193.629 77.5633 193.629 77.402V66.237H195.499ZM200.963 70.857V82H199.005V70.857H200.963ZM201.381 67.359C201.381 67.5497 201.34 67.7293 201.26 67.898C201.186 68.0593 201.084 68.206 200.952 68.338C200.827 68.4627 200.677 68.5617 200.501 68.635C200.332 68.7083 200.152 68.745 199.962 68.745C199.771 68.745 199.591 68.7083 199.423 68.635C199.261 68.5617 199.118 68.4627 198.994 68.338C198.869 68.206 198.77 68.0593 198.697 67.898C198.623 67.7293 198.587 67.5497 198.587 67.359C198.587 67.1683 198.623 66.9887 198.697 66.82C198.77 66.644 198.869 66.4937 198.994 66.369C199.118 66.237 199.261 66.1343 199.423 66.061C199.591 65.9877 199.771 65.951 199.962 65.951C200.152 65.951 200.332 65.9877 200.501 66.061C200.677 66.1343 200.827 66.237 200.952 66.369C201.084 66.4937 201.186 66.644 201.26 66.82C201.34 66.9887 201.381 67.1683 201.381 67.359ZM208.063 76.555C208.459 76.555 208.807 76.5 209.108 76.39C209.409 76.28 209.662 76.126 209.867 75.928C210.072 75.73 210.226 75.4953 210.329 75.224C210.432 74.9453 210.483 74.641 210.483 74.311C210.483 73.629 210.274 73.0863 209.856 72.683C209.445 72.2797 208.848 72.078 208.063 72.078C207.271 72.078 206.666 72.2797 206.248 72.683C205.837 73.0863 205.632 73.629 205.632 74.311C205.632 74.641 205.683 74.9453 205.786 75.224C205.896 75.4953 206.054 75.73 206.259 75.928C206.464 76.126 206.717 76.28 207.018 76.39C207.319 76.5 207.667 76.555 208.063 76.555ZM211.594 82.605C211.594 82.3337 211.517 82.1137 211.363 81.945C211.209 81.7763 211 81.6443 210.736 81.549C210.479 81.4537 210.179 81.3877 209.834 81.351C209.489 81.307 209.123 81.274 208.734 81.252C208.353 81.23 207.964 81.208 207.568 81.186C207.172 81.164 206.791 81.1273 206.424 81.076C206.013 81.2667 205.676 81.5087 205.412 81.802C205.155 82.088 205.027 82.4253 205.027 82.814C205.027 83.0633 205.089 83.2943 205.214 83.507C205.346 83.727 205.544 83.914 205.808 84.068C206.072 84.2293 206.402 84.354 206.798 84.442C207.201 84.5373 207.674 84.585 208.217 84.585C208.745 84.585 209.218 84.5373 209.636 84.442C210.054 84.3467 210.406 84.211 210.692 84.035C210.985 83.859 211.209 83.65 211.363 83.408C211.517 83.166 211.594 82.8983 211.594 82.605ZM213.585 71.297V72.023C213.585 72.265 213.431 72.419 213.123 72.485L211.858 72.65C212.107 73.134 212.232 73.6693 212.232 74.256C212.232 74.7987 212.126 75.2937 211.913 75.741C211.708 76.181 211.422 76.5587 211.055 76.874C210.688 77.1893 210.248 77.4313 209.735 77.6C209.222 77.7687 208.664 77.853 208.063 77.853C207.542 77.853 207.051 77.7907 206.589 77.666C206.354 77.8127 206.175 77.9703 206.05 78.139C205.925 78.3003 205.863 78.4653 205.863 78.634C205.863 78.898 205.969 79.0997 206.182 79.239C206.402 79.371 206.688 79.4663 207.04 79.525C207.392 79.5837 207.792 79.6203 208.239 79.635C208.694 79.6497 209.156 79.6753 209.625 79.712C210.102 79.7413 210.564 79.7963 211.011 79.877C211.466 79.9577 211.869 80.0897 212.221 80.273C212.573 80.4563 212.855 80.7093 213.068 81.032C213.288 81.3547 213.398 81.7727 213.398 82.286C213.398 82.7627 213.277 83.2247 213.035 83.672C212.8 84.1193 212.459 84.5153 212.012 84.86C211.565 85.212 211.015 85.4907 210.362 85.696C209.717 85.9087 208.987 86.015 208.173 86.015C207.359 86.015 206.648 85.9343 206.039 85.773C205.43 85.6117 204.924 85.3953 204.521 85.124C204.118 84.8527 203.813 84.5373 203.608 84.178C203.41 83.826 203.311 83.4557 203.311 83.067C203.311 82.517 203.483 82.0513 203.828 81.67C204.173 81.2887 204.646 80.9843 205.247 80.757C204.917 80.6103 204.653 80.416 204.455 80.174C204.264 79.9247 204.169 79.591 204.169 79.173C204.169 79.0117 204.198 78.8467 204.257 78.678C204.316 78.502 204.404 78.3297 204.521 78.161C204.646 77.985 204.796 77.82 204.972 77.666C205.148 77.512 205.353 77.3763 205.588 77.259C205.038 76.951 204.609 76.544 204.301 76.038C203.993 75.5247 203.839 74.9307 203.839 74.256C203.839 73.7133 203.942 73.222 204.147 72.782C204.36 72.3347 204.653 71.957 205.027 71.649C205.401 71.3337 205.845 71.0917 206.358 70.923C206.879 70.7543 207.447 70.67 208.063 70.67C208.547 70.67 208.998 70.725 209.416 70.835C209.834 70.9377 210.215 71.0917 210.56 71.297H213.585ZM217.579 72.342C218.055 71.836 218.583 71.4327 219.163 71.132C219.742 70.8313 220.409 70.681 221.165 70.681C221.773 70.681 222.309 70.7837 222.771 70.989C223.24 71.187 223.629 71.473 223.937 71.847C224.252 72.2137 224.49 72.6573 224.652 73.178C224.813 73.6987 224.894 74.2743 224.894 74.905V82H222.925V74.905C222.925 74.0617 222.73 73.409 222.342 72.947C221.96 72.4777 221.377 72.243 220.593 72.243C220.013 72.243 219.471 72.3823 218.965 72.661C218.466 72.9397 218.004 73.3173 217.579 73.794V82H215.61V65.797H217.579V72.342ZM231.148 82.176C230.268 82.176 229.589 81.9303 229.113 81.439C228.643 80.9477 228.409 80.24 228.409 79.316V72.496H227.067C226.949 72.496 226.85 72.463 226.77 72.397C226.689 72.3237 226.649 72.2137 226.649 72.067V71.286L228.475 71.055L228.926 67.612C228.948 67.502 228.995 67.414 229.069 67.348C229.149 67.2747 229.252 67.238 229.377 67.238H230.367V71.077H233.59V72.496H230.367V79.184C230.367 79.6533 230.48 80.0017 230.708 80.229C230.935 80.4563 231.228 80.57 231.588 80.57C231.793 80.57 231.969 80.5443 232.116 80.493C232.27 80.4343 232.402 80.372 232.512 80.306C232.622 80.24 232.713 80.1813 232.787 80.13C232.867 80.0713 232.937 80.042 232.996 80.042C233.098 80.042 233.19 80.1043 233.271 80.229L233.843 81.164C233.505 81.4793 233.098 81.7287 232.622 81.912C232.145 82.088 231.654 82.176 231.148 82.176ZM235.436 74.575H240.87V76.236H235.436V74.575ZM254.325 74.124C254.325 75.5027 254.174 76.698 253.874 77.71C253.58 78.7147 253.177 79.547 252.664 80.207C252.15 80.867 251.542 81.3583 250.838 81.681C250.141 82.0037 249.393 82.165 248.594 82.165C247.787 82.165 247.035 82.0037 246.339 81.681C245.649 81.3583 245.048 80.867 244.535 80.207C244.021 79.547 243.618 78.7147 243.325 77.71C243.031 76.698 242.885 75.5027 242.885 74.124C242.885 72.7453 243.031 71.55 243.325 70.538C243.618 69.526 244.021 68.69 244.535 68.03C245.048 67.3627 245.649 66.8677 246.339 66.545C247.035 66.2223 247.787 66.061 248.594 66.061C249.393 66.061 250.141 66.2223 250.838 66.545C251.542 66.8677 252.15 67.3627 252.664 68.03C253.177 68.69 253.58 69.526 253.874 70.538C254.174 71.55 254.325 72.7453 254.325 74.124ZM252.29 74.124C252.29 72.9213 252.187 71.913 251.982 71.099C251.784 70.2777 251.512 69.6177 251.168 69.119C250.83 68.6203 250.438 68.2647 249.991 68.052C249.543 67.832 249.078 67.722 248.594 67.722C248.11 67.722 247.644 67.832 247.197 68.052C246.749 68.2647 246.357 68.6203 246.02 69.119C245.682 69.6177 245.411 70.2777 245.206 71.099C245.008 71.913 244.909 72.9213 244.909 74.124C244.909 75.3267 245.008 76.335 245.206 77.149C245.411 77.963 245.682 78.6193 246.02 79.118C246.357 79.6167 246.749 79.976 247.197 80.196C247.644 80.4087 248.11 80.515 248.594 80.515C249.078 80.515 249.543 80.4087 249.991 80.196C250.438 79.976 250.83 79.6167 251.168 79.118C251.512 78.6193 251.784 77.963 251.982 77.149C252.187 76.335 252.29 75.3267 252.29 74.124ZM263.016 76.313V69.812C263.016 69.6213 263.024 69.4123 263.038 69.185C263.053 68.9577 263.075 68.7267 263.104 68.492L257.362 76.313H263.016ZM267.119 76.313V77.435C267.119 77.5523 267.083 77.6513 267.009 77.732C266.943 77.8127 266.837 77.853 266.69 77.853H264.732V82H263.016V77.853H256.02C255.874 77.853 255.745 77.8127 255.635 77.732C255.533 77.644 255.467 77.5377 255.437 77.413L255.239 76.412L262.906 66.237H264.732V76.313H267.119ZM269.123 74.575H274.557V76.236H269.123V74.575ZM285.988 68.701C285.922 68.811 285.849 68.8953 285.768 68.954C285.695 69.0053 285.603 69.031 285.493 69.031C285.368 69.031 285.222 68.9687 285.053 68.844C284.884 68.7193 284.672 68.5837 284.415 68.437C284.166 68.283 283.861 68.1437 283.502 68.019C283.15 67.8943 282.721 67.832 282.215 67.832C281.738 67.832 281.317 67.898 280.95 68.03C280.591 68.1547 280.286 68.327 280.037 68.547C279.795 68.767 279.612 69.0273 279.487 69.328C279.362 69.6213 279.3 69.9403 279.3 70.285C279.3 70.725 279.406 71.0917 279.619 71.385C279.839 71.671 280.125 71.9167 280.477 72.122C280.836 72.3273 281.24 72.507 281.687 72.661C282.142 72.8077 282.604 72.9617 283.073 73.123C283.55 73.2843 284.012 73.4677 284.459 73.673C284.914 73.871 285.317 74.124 285.669 74.432C286.028 74.74 286.314 75.1177 286.527 75.565C286.747 76.0123 286.857 76.5623 286.857 77.215C286.857 77.9043 286.74 78.5533 286.505 79.162C286.27 79.7633 285.926 80.2877 285.471 80.735C285.024 81.1823 284.47 81.5343 283.81 81.791C283.157 82.0477 282.413 82.176 281.577 82.176C280.55 82.176 279.619 81.9927 278.783 81.626C277.947 81.252 277.232 80.7497 276.638 80.119L277.254 79.107C277.313 79.0263 277.382 78.9603 277.463 78.909C277.551 78.8503 277.646 78.821 277.749 78.821C277.844 78.821 277.951 78.8613 278.068 78.942C278.193 79.0153 278.332 79.1107 278.486 79.228C278.64 79.3453 278.816 79.4737 279.014 79.613C279.212 79.7523 279.436 79.8807 279.685 79.998C279.942 80.1153 280.231 80.2143 280.554 80.295C280.877 80.3683 281.24 80.405 281.643 80.405C282.149 80.405 282.6 80.3353 282.996 80.196C283.392 80.0567 283.726 79.8623 283.997 79.613C284.276 79.3563 284.488 79.052 284.635 78.7C284.782 78.348 284.855 77.9557 284.855 77.523C284.855 77.0463 284.745 76.6577 284.525 76.357C284.312 76.049 284.03 75.7923 283.678 75.587C283.326 75.3817 282.923 75.2093 282.468 75.07C282.013 74.9233 281.551 74.7767 281.082 74.63C280.613 74.476 280.151 74.3 279.696 74.102C279.241 73.904 278.838 73.6473 278.486 73.332C278.134 73.0167 277.848 72.6243 277.628 72.155C277.415 71.6783 277.309 71.0917 277.309 70.395C277.309 69.8377 277.415 69.2987 277.628 68.778C277.848 68.2573 278.163 67.7953 278.574 67.392C278.992 66.9887 279.502 66.666 280.103 66.424C280.712 66.182 281.408 66.061 282.193 66.061C283.073 66.061 283.872 66.2003 284.591 66.479C285.317 66.7577 285.955 67.161 286.505 67.689L285.988 68.701ZM289.172 82V70.857H290.349C290.628 70.857 290.8 70.9927 290.866 71.264L291.009 72.408C291.42 71.902 291.882 71.4877 292.395 71.165C292.908 70.8423 293.502 70.681 294.177 70.681C294.925 70.681 295.53 70.89 295.992 71.308C296.461 71.726 296.799 72.2907 297.004 73.002C297.165 72.5987 297.371 72.2503 297.62 71.957C297.877 71.6637 298.163 71.4217 298.478 71.231C298.793 71.0403 299.127 70.901 299.479 70.813C299.838 70.725 300.201 70.681 300.568 70.681C301.155 70.681 301.675 70.7763 302.13 70.967C302.592 71.1503 302.981 71.4217 303.296 71.781C303.619 72.1403 303.864 72.584 304.033 73.112C304.202 73.6327 304.286 74.2303 304.286 74.905V82H302.317V74.905C302.317 74.0323 302.126 73.3723 301.745 72.925C301.364 72.4703 300.814 72.243 300.095 72.243C299.772 72.243 299.464 72.3017 299.171 72.419C298.885 72.529 298.632 72.694 298.412 72.914C298.192 73.134 298.016 73.4127 297.884 73.75C297.759 74.08 297.697 74.465 297.697 74.905V82H295.728V74.905C295.728 74.0103 295.548 73.343 295.189 72.903C294.83 72.463 294.305 72.243 293.616 72.243C293.132 72.243 292.685 72.375 292.274 72.639C291.863 72.8957 291.486 73.2477 291.141 73.695V82H289.172ZM313.301 76.984C312.399 77.0133 311.629 77.0867 310.991 77.204C310.36 77.314 309.843 77.4607 309.44 77.644C309.044 77.8273 308.754 78.0437 308.571 78.293C308.395 78.5423 308.307 78.821 308.307 79.129C308.307 79.4223 308.355 79.6753 308.45 79.888C308.545 80.1007 308.674 80.2767 308.835 80.416C309.004 80.548 309.198 80.647 309.418 80.713C309.645 80.7717 309.887 80.801 310.144 80.801C310.489 80.801 310.804 80.768 311.09 80.702C311.376 80.6287 311.644 80.526 311.893 80.394C312.15 80.262 312.392 80.1043 312.619 79.921C312.854 79.7377 313.081 79.5287 313.301 79.294V76.984ZM306.976 72.43C307.592 71.836 308.256 71.3923 308.967 71.099C309.678 70.8057 310.467 70.659 311.332 70.659C311.955 70.659 312.509 70.7617 312.993 70.967C313.477 71.1723 313.884 71.4583 314.214 71.825C314.544 72.1917 314.793 72.6353 314.962 73.156C315.131 73.6767 315.215 74.2487 315.215 74.872V82H314.346C314.155 82 314.009 81.9707 313.906 81.912C313.803 81.846 313.723 81.7213 313.664 81.538L313.444 80.482C313.151 80.7533 312.865 80.9953 312.586 81.208C312.307 81.4133 312.014 81.5893 311.706 81.736C311.398 81.8753 311.068 81.9817 310.716 82.055C310.371 82.1357 309.986 82.176 309.561 82.176C309.128 82.176 308.721 82.1173 308.34 82C307.959 81.8753 307.625 81.692 307.339 81.45C307.06 81.208 306.837 80.9037 306.668 80.537C306.507 80.163 306.426 79.723 306.426 79.217C306.426 78.777 306.547 78.3553 306.789 77.952C307.031 77.5413 307.423 77.1783 307.966 76.863C308.509 76.5477 309.216 76.291 310.089 76.093C310.962 75.8877 312.032 75.7703 313.301 75.741V74.872C313.301 74.0067 313.114 73.354 312.74 72.914C312.366 72.4667 311.82 72.243 311.101 72.243C310.617 72.243 310.21 72.3053 309.88 72.43C309.557 72.5473 309.275 72.683 309.033 72.837C308.798 72.9837 308.593 73.1193 308.417 73.244C308.248 73.3613 308.08 73.42 307.911 73.42C307.779 73.42 307.665 73.387 307.57 73.321C307.475 73.2477 307.394 73.1597 307.328 73.057L306.976 72.43ZM320.056 73.09C320.408 72.3273 320.841 71.7333 321.354 71.308C321.868 70.8753 322.495 70.659 323.235 70.659C323.47 70.659 323.694 70.6847 323.906 70.736C324.126 70.7873 324.321 70.868 324.489 70.978L324.346 72.441C324.302 72.6243 324.192 72.716 324.016 72.716C323.914 72.716 323.763 72.694 323.565 72.65C323.367 72.606 323.144 72.584 322.894 72.584C322.542 72.584 322.227 72.6353 321.948 72.738C321.677 72.8407 321.431 72.9947 321.211 73.2C320.999 73.398 320.804 73.6473 320.628 73.948C320.46 74.2413 320.306 74.5787 320.166 74.96V82H318.197V70.857H319.319C319.532 70.857 319.679 70.8973 319.759 70.978C319.84 71.0587 319.895 71.198 319.924 71.396L320.056 73.09ZM329.632 82.176C328.752 82.176 328.074 81.9303 327.597 81.439C327.128 80.9477 326.893 80.24 326.893 79.316V72.496H325.551C325.434 72.496 325.335 72.463 325.254 72.397C325.173 72.3237 325.133 72.2137 325.133 72.067V71.286L326.959 71.055L327.41 67.612C327.432 67.502 327.48 67.414 327.553 67.348C327.634 67.2747 327.736 67.238 327.861 67.238H328.851V71.077H332.074V72.496H328.851V79.184C328.851 79.6533 328.965 80.0017 329.192 80.229C329.419 80.4563 329.713 80.57 330.072 80.57C330.277 80.57 330.453 80.5443 330.6 80.493C330.754 80.4343 330.886 80.372 330.996 80.306C331.106 80.24 331.198 80.1813 331.271 80.13C331.352 80.0713 331.421 80.042 331.48 80.042C331.583 80.042 331.674 80.1043 331.755 80.229L332.327 81.164C331.99 81.4793 331.583 81.7287 331.106 81.912C330.629 82.088 330.138 82.176 329.632 82.176ZM69.9364 104.744C70.0538 104.744 70.1564 104.792 70.2444 104.887L71.0914 105.8C70.4461 106.548 69.6614 107.131 68.7374 107.549C67.8208 107.967 66.7098 108.176 65.4044 108.176C64.2751 108.176 63.2484 107.982 62.3244 107.593C61.4004 107.197 60.6121 106.647 59.9594 105.943C59.3068 105.232 58.8008 104.381 58.4414 103.391C58.0821 102.401 57.9024 101.312 57.9024 100.124C57.9024 98.936 58.0894 97.847 58.4634 96.857C58.8374 95.867 59.3618 95.0163 60.0364 94.305C60.7184 93.5937 61.5324 93.0437 62.4784 92.655C63.4244 92.259 64.4694 92.061 65.6134 92.061C66.7354 92.061 67.7254 92.2407 68.5834 92.6C69.4414 92.9593 70.1968 93.447 70.8494 94.063L70.1454 95.042C70.1014 95.1153 70.0428 95.1777 69.9694 95.229C69.9034 95.273 69.8118 95.295 69.6944 95.295C69.5624 95.295 69.4011 95.2253 69.2104 95.086C69.0198 94.9393 68.7704 94.778 68.4624 94.602C68.1544 94.426 67.7694 94.2683 67.3074 94.129C66.8454 93.9823 66.2771 93.909 65.6024 93.909C64.7884 93.909 64.0441 94.052 63.3694 94.338C62.6948 94.6167 62.1118 95.0237 61.6204 95.559C61.1364 96.0943 60.7588 96.747 60.4874 97.517C60.2161 98.287 60.0804 99.156 60.0804 100.124C60.0804 101.107 60.2198 101.983 60.4984 102.753C60.7844 103.523 61.1694 104.176 61.6534 104.711C62.1448 105.239 62.7204 105.642 63.3804 105.921C64.0478 106.2 64.7664 106.339 65.5364 106.339C66.0058 106.339 66.4274 106.313 66.8014 106.262C67.1828 106.203 67.5311 106.115 67.8464 105.998C68.1691 105.881 68.4661 105.734 68.7374 105.558C69.0161 105.375 69.2911 105.158 69.5624 104.909C69.6871 104.799 69.8118 104.744 69.9364 104.744ZM77.5859 96.681C78.3999 96.681 79.1332 96.8167 79.7859 97.088C80.4386 97.3593 80.9959 97.7443 81.4579 98.243C81.9199 98.7417 82.2719 99.3467 82.5139 100.058C82.7632 100.762 82.8879 101.55 82.8879 102.423C82.8879 103.303 82.7632 104.095 82.5139 104.799C82.2719 105.503 81.9199 106.104 81.4579 106.603C80.9959 107.102 80.4386 107.487 79.7859 107.758C79.1332 108.022 78.3999 108.154 77.5859 108.154C76.7646 108.154 76.0239 108.022 75.3639 107.758C74.7112 107.487 74.1539 107.102 73.6919 106.603C73.2299 106.104 72.8742 105.503 72.6249 104.799C72.3829 104.095 72.2619 103.303 72.2619 102.423C72.2619 101.55 72.3829 100.762 72.6249 100.058C72.8742 99.3467 73.2299 98.7417 73.6919 98.243C74.1539 97.7443 74.7112 97.3593 75.3639 97.088C76.0239 96.8167 76.7646 96.681 77.5859 96.681ZM77.5859 106.625C78.6859 106.625 79.5072 106.258 80.0499 105.525C80.5926 104.784 80.8639 103.754 80.8639 102.434C80.8639 101.107 80.5926 100.073 80.0499 99.332C79.5072 98.5913 78.6859 98.221 77.5859 98.221C77.0286 98.221 76.5409 98.3163 76.1229 98.507C75.7122 98.6977 75.3676 98.9727 75.0889 99.332C74.8176 99.6913 74.6122 100.135 74.4729 100.663C74.3409 101.184 74.2749 101.774 74.2749 102.434C74.2749 103.754 74.5462 104.784 75.0889 105.525C75.6389 106.258 76.4712 106.625 77.5859 106.625ZM87.2193 98.474C87.4613 98.2027 87.718 97.957 87.9893 97.737C88.2606 97.517 88.5466 97.33 88.8473 97.176C89.1553 97.0147 89.478 96.8937 89.8153 96.813C90.16 96.725 90.5303 96.681 90.9263 96.681C91.535 96.681 92.0703 96.7837 92.5323 96.989C93.0016 97.187 93.3903 97.473 93.6983 97.847C94.0136 98.2137 94.252 98.6573 94.4133 99.178C94.5746 99.6987 94.6553 100.274 94.6553 100.905V108H92.6863V100.905C92.6863 100.062 92.492 99.409 92.1033 98.947C91.722 98.4777 91.139 98.243 90.3543 98.243C89.775 98.243 89.2323 98.3823 88.7263 98.661C88.2276 98.9397 87.7656 99.3173 87.3403 99.794V108H85.3713V96.857H86.5483C86.827 96.857 86.9993 96.9927 87.0653 97.264L87.2193 98.474ZM100.91 108.176C100.03 108.176 99.3512 107.93 98.8745 107.439C98.4052 106.948 98.1705 106.24 98.1705 105.316V98.496H96.8285C96.7112 98.496 96.6122 98.463 96.5315 98.397C96.4508 98.3237 96.4105 98.2137 96.4105 98.067V97.286L98.2365 97.055L98.6875 93.612C98.7095 93.502 98.7572 93.414 98.8305 93.348C98.9112 93.2747 99.0138 93.238 99.1385 93.238H100.129V97.077H103.352V98.496H100.129V105.184C100.129 105.653 100.242 106.002 100.47 106.229C100.697 106.456 100.99 106.57 101.35 106.57C101.555 106.57 101.731 106.544 101.878 106.493C102.032 106.434 102.164 106.372 102.274 106.306C102.384 106.24 102.475 106.181 102.549 106.13C102.629 106.071 102.699 106.042 102.758 106.042C102.86 106.042 102.952 106.104 103.033 106.229L103.605 107.164C103.267 107.479 102.86 107.729 102.384 107.912C101.907 108.088 101.416 108.176 100.91 108.176ZM107.232 99.09C107.584 98.3273 108.017 97.7333 108.53 97.308C109.044 96.8753 109.671 96.659 110.411 96.659C110.646 96.659 110.87 96.6847 111.082 96.736C111.302 96.7873 111.497 96.868 111.665 96.978L111.522 98.441C111.478 98.6243 111.368 98.716 111.192 98.716C111.09 98.716 110.939 98.694 110.741 98.65C110.543 98.606 110.32 98.584 110.07 98.584C109.718 98.584 109.403 98.6353 109.124 98.738C108.853 98.8407 108.607 98.9947 108.387 99.2C108.175 99.398 107.98 99.6473 107.804 99.948C107.636 100.241 107.482 100.579 107.342 100.96V108H105.373V96.857H106.495C106.708 96.857 106.855 96.8973 106.935 96.978C107.016 97.0587 107.071 97.198 107.1 97.396L107.232 99.09ZM119.254 102.984C118.352 103.013 117.582 103.087 116.944 103.204C116.313 103.314 115.796 103.461 115.393 103.644C114.997 103.827 114.707 104.044 114.524 104.293C114.348 104.542 114.26 104.821 114.26 105.129C114.26 105.422 114.308 105.675 114.403 105.888C114.498 106.101 114.627 106.277 114.788 106.416C114.957 106.548 115.151 106.647 115.371 106.713C115.598 106.772 115.84 106.801 116.097 106.801C116.442 106.801 116.757 106.768 117.043 106.702C117.329 106.629 117.597 106.526 117.846 106.394C118.103 106.262 118.345 106.104 118.572 105.921C118.807 105.738 119.034 105.529 119.254 105.294V102.984ZM112.929 98.43C113.545 97.836 114.209 97.3923 114.92 97.099C115.631 96.8057 116.42 96.659 117.285 96.659C117.908 96.659 118.462 96.7617 118.946 96.967C119.43 97.1723 119.837 97.4583 120.167 97.825C120.497 98.1917 120.746 98.6353 120.915 99.156C121.084 99.6767 121.168 100.249 121.168 100.872V108H120.299C120.108 108 119.962 107.971 119.859 107.912C119.756 107.846 119.676 107.721 119.617 107.538L119.397 106.482C119.104 106.753 118.818 106.995 118.539 107.208C118.26 107.413 117.967 107.589 117.659 107.736C117.351 107.875 117.021 107.982 116.669 108.055C116.324 108.136 115.939 108.176 115.514 108.176C115.081 108.176 114.674 108.117 114.293 108C113.912 107.875 113.578 107.692 113.292 107.45C113.013 107.208 112.79 106.904 112.621 106.537C112.46 106.163 112.379 105.723 112.379 105.217C112.379 104.777 112.5 104.355 112.742 103.952C112.984 103.541 113.376 103.178 113.919 102.863C114.462 102.548 115.169 102.291 116.042 102.093C116.915 101.888 117.985 101.77 119.254 101.741V100.872C119.254 100.007 119.067 99.354 118.693 98.914C118.319 98.4667 117.773 98.243 117.054 98.243C116.57 98.243 116.163 98.3053 115.833 98.43C115.51 98.5473 115.228 98.683 114.986 98.837C114.751 98.9837 114.546 99.1193 114.37 99.244C114.201 99.3613 114.033 99.42 113.864 99.42C113.732 99.42 113.618 99.387 113.523 99.321C113.428 99.2477 113.347 99.1597 113.281 99.057L112.929 98.43ZM131.906 98.837C131.847 98.9177 131.788 98.98 131.73 99.024C131.671 99.068 131.59 99.09 131.488 99.09C131.378 99.09 131.257 99.046 131.125 98.958C130.993 98.8627 130.828 98.76 130.63 98.65C130.439 98.54 130.201 98.441 129.915 98.353C129.636 98.2577 129.291 98.21 128.881 98.21C128.331 98.21 127.847 98.309 127.429 98.507C127.011 98.6977 126.659 98.9763 126.373 99.343C126.094 99.7097 125.881 100.153 125.735 100.674C125.595 101.195 125.526 101.778 125.526 102.423C125.526 103.098 125.603 103.699 125.757 104.227C125.911 104.748 126.127 105.188 126.406 105.547C126.692 105.899 127.033 106.17 127.429 106.361C127.832 106.544 128.283 106.636 128.782 106.636C129.258 106.636 129.651 106.581 129.959 106.471C130.267 106.354 130.52 106.225 130.718 106.086C130.923 105.947 131.092 105.822 131.224 105.712C131.363 105.595 131.499 105.536 131.631 105.536C131.792 105.536 131.917 105.598 132.005 105.723L132.555 106.438C132.313 106.739 132.038 106.995 131.73 107.208C131.422 107.421 131.088 107.6 130.729 107.747C130.377 107.886 130.006 107.989 129.618 108.055C129.229 108.121 128.833 108.154 128.43 108.154C127.733 108.154 127.084 108.026 126.483 107.769C125.889 107.512 125.372 107.142 124.932 106.658C124.492 106.167 124.147 105.565 123.898 104.854C123.648 104.143 123.524 103.332 123.524 102.423C123.524 101.594 123.637 100.828 123.865 100.124C124.099 99.42 124.437 98.815 124.877 98.309C125.324 97.7957 125.87 97.396 126.516 97.11C127.168 96.824 127.916 96.681 128.76 96.681C129.544 96.681 130.234 96.8093 130.828 97.066C131.429 97.3153 131.961 97.671 132.423 98.133L131.906 98.837ZM138.077 108.176C137.197 108.176 136.519 107.93 136.042 107.439C135.573 106.948 135.338 106.24 135.338 105.316V98.496H133.996C133.879 98.496 133.78 98.463 133.699 98.397C133.619 98.3237 133.578 98.2137 133.578 98.067V97.286L135.404 97.055L135.855 93.612C135.877 93.502 135.925 93.414 135.998 93.348C136.079 93.2747 136.182 93.238 136.306 93.238H137.296V97.077H140.519V98.496H137.296V105.184C137.296 105.653 137.41 106.002 137.637 106.229C137.865 106.456 138.158 106.57 138.517 106.57C138.723 106.57 138.899 106.544 139.045 106.493C139.199 106.434 139.331 106.372 139.441 106.306C139.551 106.24 139.643 106.181 139.716 106.13C139.797 106.071 139.867 106.042 139.925 106.042C140.028 106.042 140.12 106.104 140.2 106.229L140.772 107.164C140.435 107.479 140.028 107.729 139.551 107.912C139.075 108.088 138.583 108.176 138.077 108.176ZM149.031 98.694C148.943 98.8553 148.808 98.936 148.624 98.936C148.514 98.936 148.39 98.8957 148.25 98.815C148.111 98.7343 147.939 98.6463 147.733 98.551C147.535 98.4483 147.297 98.3567 147.018 98.276C146.74 98.188 146.41 98.144 146.028 98.144C145.698 98.144 145.401 98.188 145.137 98.276C144.873 98.3567 144.646 98.4703 144.455 98.617C144.272 98.7637 144.129 98.936 144.026 99.134C143.931 99.3247 143.883 99.5337 143.883 99.761C143.883 100.047 143.964 100.285 144.125 100.476C144.294 100.667 144.514 100.832 144.785 100.971C145.057 101.11 145.365 101.235 145.709 101.345C146.054 101.448 146.406 101.561 146.765 101.686C147.132 101.803 147.488 101.935 147.832 102.082C148.177 102.229 148.485 102.412 148.756 102.632C149.028 102.852 149.244 103.123 149.405 103.446C149.574 103.761 149.658 104.143 149.658 104.59C149.658 105.103 149.567 105.58 149.383 106.02C149.2 106.453 148.929 106.83 148.569 107.153C148.21 107.468 147.77 107.718 147.249 107.901C146.729 108.084 146.127 108.176 145.445 108.176C144.668 108.176 143.964 108.051 143.333 107.802C142.703 107.545 142.167 107.219 141.727 106.823L142.189 106.075C142.248 105.98 142.318 105.906 142.398 105.855C142.479 105.804 142.582 105.778 142.706 105.778C142.838 105.778 142.978 105.829 143.124 105.932C143.271 106.035 143.447 106.148 143.652 106.273C143.865 106.398 144.122 106.511 144.422 106.614C144.723 106.717 145.097 106.768 145.544 106.768C145.926 106.768 146.259 106.72 146.545 106.625C146.831 106.522 147.07 106.387 147.26 106.218C147.451 106.049 147.59 105.855 147.678 105.635C147.774 105.415 147.821 105.18 147.821 104.931C147.821 104.623 147.737 104.37 147.568 104.172C147.407 103.967 147.191 103.794 146.919 103.655C146.648 103.508 146.336 103.384 145.984 103.281C145.64 103.171 145.284 103.057 144.917 102.94C144.558 102.823 144.202 102.691 143.85 102.544C143.506 102.39 143.198 102.199 142.926 101.972C142.655 101.745 142.435 101.466 142.266 101.136C142.105 100.799 142.024 100.392 142.024 99.915C142.024 99.4897 142.112 99.0827 142.288 98.694C142.464 98.298 142.721 97.9533 143.058 97.66C143.396 97.3593 143.81 97.121 144.301 96.945C144.793 96.769 145.354 96.681 145.984 96.681C146.718 96.681 147.374 96.7983 147.953 97.033C148.54 97.2603 149.046 97.5757 149.471 97.979L149.031 98.694ZM151.883 106.79C151.883 106.599 151.916 106.42 151.982 106.251C152.055 106.082 152.15 105.936 152.268 105.811C152.392 105.686 152.539 105.587 152.708 105.514C152.876 105.441 153.056 105.404 153.247 105.404C153.437 105.404 153.617 105.441 153.786 105.514C153.954 105.587 154.101 105.686 154.226 105.811C154.35 105.936 154.449 106.082 154.523 106.251C154.596 106.42 154.633 106.599 154.633 106.79C154.633 106.988 154.596 107.171 154.523 107.34C154.449 107.501 154.35 107.644 154.226 107.769C154.101 107.894 153.954 107.989 153.786 108.055C153.617 108.128 153.437 108.165 153.247 108.165C153.056 108.165 152.876 108.128 152.708 108.055C152.539 107.989 152.392 107.894 152.268 107.769C152.15 107.644 152.055 107.501 151.982 107.34C151.916 107.171 151.883 106.988 151.883 106.79ZM151.883 98.54C151.883 98.3493 151.916 98.1697 151.982 98.001C152.055 97.8323 152.15 97.6857 152.268 97.561C152.392 97.4363 152.539 97.3373 152.708 97.264C152.876 97.1907 153.056 97.154 153.247 97.154C153.437 97.154 153.617 97.1907 153.786 97.264C153.954 97.3373 154.101 97.4363 154.226 97.561C154.35 97.6857 154.449 97.8323 154.523 98.001C154.596 98.1697 154.633 98.3493 154.633 98.54C154.633 98.738 154.596 98.9213 154.523 99.09C154.449 99.2513 154.35 99.3943 154.226 99.519C154.101 99.6437 153.954 99.7427 153.786 99.816C153.617 99.882 153.437 99.915 153.247 99.915C153.056 99.915 152.876 99.882 152.708 99.816C152.539 99.7427 152.392 99.6437 152.268 99.519C152.15 99.3943 152.055 99.2513 151.982 99.09C151.916 98.9213 151.883 98.738 151.883 98.54ZM168.303 100.41C168.911 100.41 169.447 100.329 169.909 100.168C170.378 100.007 170.77 99.783 171.086 99.497C171.408 99.2037 171.65 98.8553 171.812 98.452C171.973 98.0487 172.054 97.605 172.054 97.121C172.054 96.1163 171.742 95.3317 171.119 94.767C170.503 94.2023 169.564 93.92 168.303 93.92H165.773V100.41H168.303ZM168.303 92.237C169.3 92.237 170.165 92.3543 170.899 92.589C171.639 92.8163 172.252 93.1427 172.736 93.568C173.22 93.9933 173.579 94.5067 173.814 95.108C174.056 95.7093 174.177 96.3803 174.177 97.121C174.177 97.8543 174.048 98.5253 173.792 99.134C173.535 99.7427 173.157 100.267 172.659 100.707C172.167 101.147 171.555 101.492 170.822 101.741C170.096 101.983 169.256 102.104 168.303 102.104H165.773V108H163.65V92.237H168.303ZM178.045 99.09C178.397 98.3273 178.829 97.7333 179.343 97.308C179.856 96.8753 180.483 96.659 181.224 96.659C181.458 96.659 181.682 96.6847 181.895 96.736C182.115 96.7873 182.309 96.868 182.478 96.978L182.335 98.441C182.291 98.6243 182.181 98.716 182.005 98.716C181.902 98.716 181.752 98.694 181.554 98.65C181.356 98.606 181.132 98.584 180.883 98.584C180.531 98.584 180.215 98.6353 179.937 98.738C179.665 98.8407 179.42 98.9947 179.2 99.2C178.987 99.398 178.793 99.6473 178.617 99.948C178.448 100.241 178.294 100.579 178.155 100.96V108H176.186V96.857H177.308C177.52 96.857 177.667 96.8973 177.748 96.978C177.828 97.0587 177.883 97.198 177.913 97.396L178.045 99.09ZM191.206 101.213C191.206 100.758 191.14 100.344 191.008 99.97C190.884 99.5887 190.697 99.2623 190.447 98.991C190.205 98.7123 189.908 98.4997 189.556 98.353C189.204 98.199 188.805 98.122 188.357 98.122C187.419 98.122 186.674 98.397 186.124 98.947C185.582 99.4897 185.244 100.245 185.112 101.213H191.206ZM192.79 106.438C192.548 106.731 192.259 106.988 191.921 107.208C191.584 107.421 191.221 107.597 190.832 107.736C190.451 107.875 190.055 107.978 189.644 108.044C189.234 108.117 188.827 108.154 188.423 108.154C187.653 108.154 186.942 108.026 186.289 107.769C185.644 107.505 185.083 107.124 184.606 106.625C184.137 106.119 183.77 105.496 183.506 104.755C183.242 104.014 183.11 103.164 183.11 102.203C183.11 101.426 183.228 100.7 183.462 100.025C183.704 99.3503 184.049 98.7673 184.496 98.276C184.944 97.7773 185.49 97.3887 186.135 97.11C186.781 96.824 187.507 96.681 188.313 96.681C188.981 96.681 189.597 96.7947 190.161 97.022C190.733 97.242 191.225 97.5647 191.635 97.99C192.053 98.408 192.38 98.9287 192.614 99.552C192.849 100.168 192.966 100.872 192.966 101.664C192.966 101.972 192.933 102.177 192.867 102.28C192.801 102.383 192.677 102.434 192.493 102.434H185.046C185.068 103.138 185.164 103.75 185.332 104.271C185.508 104.792 185.75 105.228 186.058 105.58C186.366 105.925 186.733 106.185 187.158 106.361C187.584 106.53 188.06 106.614 188.588 106.614C189.08 106.614 189.501 106.559 189.853 106.449C190.213 106.332 190.521 106.207 190.777 106.075C191.034 105.943 191.247 105.822 191.415 105.712C191.591 105.595 191.742 105.536 191.866 105.536C192.028 105.536 192.152 105.598 192.24 105.723L192.79 106.438ZM201.861 98.694C201.773 98.8553 201.638 98.936 201.454 98.936C201.344 98.936 201.22 98.8957 201.08 98.815C200.941 98.7343 200.769 98.6463 200.563 98.551C200.365 98.4483 200.127 98.3567 199.848 98.276C199.57 98.188 199.24 98.144 198.858 98.144C198.528 98.144 198.231 98.188 197.967 98.276C197.703 98.3567 197.476 98.4703 197.285 98.617C197.102 98.7637 196.959 98.936 196.856 99.134C196.761 99.3247 196.713 99.5337 196.713 99.761C196.713 100.047 196.794 100.285 196.955 100.476C197.124 100.667 197.344 100.832 197.615 100.971C197.887 101.11 198.195 101.235 198.539 101.345C198.884 101.448 199.236 101.561 199.595 101.686C199.962 101.803 200.318 101.935 200.662 102.082C201.007 102.229 201.315 102.412 201.586 102.632C201.858 102.852 202.074 103.123 202.235 103.446C202.404 103.761 202.488 104.143 202.488 104.59C202.488 105.103 202.397 105.58 202.213 106.02C202.03 106.453 201.759 106.83 201.399 107.153C201.04 107.468 200.6 107.718 200.079 107.901C199.559 108.084 198.957 108.176 198.275 108.176C197.498 108.176 196.794 108.051 196.163 107.802C195.533 107.545 194.997 107.219 194.557 106.823L195.019 106.075C195.078 105.98 195.148 105.906 195.228 105.855C195.309 105.804 195.412 105.778 195.536 105.778C195.668 105.778 195.808 105.829 195.954 105.932C196.101 106.035 196.277 106.148 196.482 106.273C196.695 106.398 196.952 106.511 197.252 106.614C197.553 106.717 197.927 106.768 198.374 106.768C198.756 106.768 199.089 106.72 199.375 106.625C199.661 106.522 199.9 106.387 200.09 106.218C200.281 106.049 200.42 105.855 200.508 105.635C200.604 105.415 200.651 105.18 200.651 104.931C200.651 104.623 200.567 104.37 200.398 104.172C200.237 103.967 200.021 103.794 199.749 103.655C199.478 103.508 199.166 103.384 198.814 103.281C198.47 103.171 198.114 103.057 197.747 102.94C197.388 102.823 197.032 102.691 196.68 102.544C196.336 102.39 196.028 102.199 195.756 101.972C195.485 101.745 195.265 101.466 195.096 101.136C194.935 100.799 194.854 100.392 194.854 99.915C194.854 99.4897 194.942 99.0827 195.118 98.694C195.294 98.298 195.551 97.9533 195.888 97.66C196.226 97.3593 196.64 97.121 197.131 96.945C197.623 96.769 198.184 96.681 198.814 96.681C199.548 96.681 200.204 96.7983 200.783 97.033C201.37 97.2603 201.876 97.5757 202.301 97.979L201.861 98.694ZM212.347 101.213C212.347 100.758 212.281 100.344 212.149 99.97C212.024 99.5887 211.837 99.2623 211.588 98.991C211.346 98.7123 211.049 98.4997 210.697 98.353C210.345 98.199 209.945 98.122 209.498 98.122C208.559 98.122 207.815 98.397 207.265 98.947C206.722 99.4897 206.385 100.245 206.253 101.213H212.347ZM213.931 106.438C213.689 106.731 213.399 106.988 213.062 107.208C212.725 107.421 212.362 107.597 211.973 107.736C211.592 107.875 211.196 107.978 210.785 108.044C210.374 108.117 209.967 108.154 209.564 108.154C208.794 108.154 208.083 108.026 207.43 107.769C206.785 107.505 206.224 107.124 205.747 106.625C205.278 106.119 204.911 105.496 204.647 104.755C204.383 104.014 204.251 103.164 204.251 102.203C204.251 101.426 204.368 100.7 204.603 100.025C204.845 99.3503 205.19 98.7673 205.637 98.276C206.084 97.7773 206.631 97.3887 207.276 97.11C207.921 96.824 208.647 96.681 209.454 96.681C210.121 96.681 210.737 96.7947 211.302 97.022C211.874 97.242 212.365 97.5647 212.776 97.99C213.194 98.408 213.52 98.9287 213.755 99.552C213.99 100.168 214.107 100.872 214.107 101.664C214.107 101.972 214.074 102.177 214.008 102.28C213.942 102.383 213.817 102.434 213.634 102.434H206.187C206.209 103.138 206.304 103.75 206.473 104.271C206.649 104.792 206.891 105.228 207.199 105.58C207.507 105.925 207.874 106.185 208.299 106.361C208.724 106.53 209.201 106.614 209.729 106.614C210.22 106.614 210.642 106.559 210.994 106.449C211.353 106.332 211.661 106.207 211.918 106.075C212.175 105.943 212.387 105.822 212.556 105.712C212.732 105.595 212.882 105.536 213.007 105.536C213.168 105.536 213.293 105.598 213.381 105.723L213.931 106.438ZM218.36 98.474C218.602 98.2027 218.859 97.957 219.13 97.737C219.401 97.517 219.687 97.33 219.988 97.176C220.296 97.0147 220.619 96.8937 220.956 96.813C221.301 96.725 221.671 96.681 222.067 96.681C222.676 96.681 223.211 96.7837 223.673 96.989C224.142 97.187 224.531 97.473 224.839 97.847C225.154 98.2137 225.393 98.6573 225.554 99.178C225.715 99.6987 225.796 100.274 225.796 100.905V108H223.827V100.905C223.827 100.062 223.633 99.409 223.244 98.947C222.863 98.4777 222.28 98.243 221.495 98.243C220.916 98.243 220.373 98.3823 219.867 98.661C219.368 98.9397 218.906 99.3173 218.481 99.794V108H216.512V96.857H217.689C217.968 96.857 218.14 96.9927 218.206 97.264L218.36 98.474ZM232.05 108.176C231.17 108.176 230.492 107.93 230.015 107.439C229.546 106.948 229.311 106.24 229.311 105.316V98.496H227.969C227.852 98.496 227.753 98.463 227.672 98.397C227.591 98.3237 227.551 98.2137 227.551 98.067V97.286L229.377 97.055L229.828 93.612C229.85 93.502 229.898 93.414 229.971 93.348C230.052 93.2747 230.154 93.238 230.279 93.238H231.269V97.077H234.492V98.496H231.269V105.184C231.269 105.653 231.383 106.002 231.61 106.229C231.837 106.456 232.131 106.57 232.49 106.57C232.695 106.57 232.871 106.544 233.018 106.493C233.172 106.434 233.304 106.372 233.414 106.306C233.524 106.24 233.616 106.181 233.689 106.13C233.77 106.071 233.839 106.042 233.898 106.042C234.001 106.042 234.092 106.104 234.173 106.229L234.745 107.164C234.408 107.479 234.001 107.729 233.524 107.912C233.047 108.088 232.556 108.176 232.05 108.176ZM250.245 102.148L247.77 95.735C247.697 95.5443 247.62 95.3243 247.539 95.075C247.459 94.8183 247.382 94.547 247.308 94.261C247.154 94.855 246.997 95.35 246.835 95.746L244.36 102.148H250.245ZM254.689 108H253.039C252.849 108 252.695 107.952 252.577 107.857C252.46 107.762 252.372 107.641 252.313 107.494L250.839 103.688H243.766L242.292 107.494C242.248 107.626 242.164 107.743 242.039 107.846C241.915 107.949 241.761 108 241.577 108H239.927L246.23 92.237H248.386L254.689 108ZM258.106 98.474C258.348 98.2027 258.605 97.957 258.876 97.737C259.147 97.517 259.433 97.33 259.734 97.176C260.042 97.0147 260.365 96.8937 260.702 96.813C261.047 96.725 261.417 96.681 261.813 96.681C262.422 96.681 262.957 96.7837 263.419 96.989C263.888 97.187 264.277 97.473 264.585 97.847C264.9 98.2137 265.139 98.6573 265.3 99.178C265.461 99.6987 265.542 100.274 265.542 100.905V108H263.573V100.905C263.573 100.062 263.379 99.409 262.99 98.947C262.609 98.4777 262.026 98.243 261.241 98.243C260.662 98.243 260.119 98.3823 259.613 98.661C259.114 98.9397 258.652 99.3173 258.227 99.794V108H256.258V96.857H257.435C257.714 96.857 257.886 96.9927 257.952 97.264L258.106 98.474ZM275.786 99.508C275.419 99.0167 275.023 98.6757 274.598 98.485C274.172 98.287 273.696 98.188 273.168 98.188C272.134 98.188 271.338 98.5583 270.781 99.299C270.223 100.04 269.945 101.096 269.945 102.467C269.945 103.193 270.007 103.816 270.132 104.337C270.256 104.85 270.44 105.276 270.682 105.613C270.924 105.943 271.221 106.185 271.573 106.339C271.925 106.493 272.324 106.57 272.772 106.57C273.417 106.57 273.978 106.423 274.455 106.13C274.939 105.837 275.382 105.422 275.786 104.887V99.508ZM277.744 91.797V108H276.578C276.299 108 276.123 107.864 276.05 107.593L275.874 106.24C275.397 106.812 274.854 107.274 274.246 107.626C273.637 107.978 272.933 108.154 272.134 108.154C271.496 108.154 270.916 108.033 270.396 107.791C269.875 107.542 269.431 107.179 269.065 106.702C268.698 106.225 268.416 105.631 268.218 104.92C268.02 104.209 267.921 103.391 267.921 102.467C267.921 101.646 268.031 100.883 268.251 100.179C268.471 99.4677 268.786 98.8517 269.197 98.331C269.607 97.8103 270.11 97.4033 270.704 97.11C271.305 96.8093 271.98 96.659 272.728 96.659C273.41 96.659 273.993 96.7763 274.477 97.011C274.968 97.2383 275.404 97.5573 275.786 97.968V91.797H277.744ZM289.061 93.975V99.486H295.54V101.224H289.061V108H286.927V92.237H296.64V93.975H289.061ZM307.251 96.857V108H306.085C305.806 108 305.63 107.864 305.557 107.593L305.403 106.394C304.919 106.929 304.376 107.362 303.775 107.692C303.174 108.015 302.484 108.176 301.707 108.176C301.098 108.176 300.559 108.077 300.09 107.879C299.628 107.674 299.239 107.388 298.924 107.021C298.609 106.654 298.37 106.211 298.209 105.69C298.055 105.169 297.978 104.594 297.978 103.963V96.857H299.936V103.963C299.936 104.806 300.127 105.459 300.508 105.921C300.897 106.383 301.487 106.614 302.279 106.614C302.858 106.614 303.397 106.478 303.896 106.207C304.402 105.928 304.868 105.547 305.293 105.063V96.857H307.251ZM313.777 108.176C312.897 108.176 312.218 107.93 311.742 107.439C311.272 106.948 311.038 106.24 311.038 105.316V98.496H309.696C309.578 98.496 309.479 98.463 309.399 98.397C309.318 98.3237 309.278 98.2137 309.278 98.067V97.286L311.104 97.055L311.555 93.612C311.577 93.502 311.624 93.414 311.698 93.348C311.778 93.2747 311.881 93.238 312.006 93.238H312.996V97.077H316.219V98.496H312.996V105.184C312.996 105.653 313.109 106.002 313.337 106.229C313.564 106.456 313.857 106.57 314.217 106.57C314.422 106.57 314.598 106.544 314.745 106.493C314.899 106.434 315.031 106.372 315.141 106.306C315.251 106.24 315.342 106.181 315.416 106.13C315.496 106.071 315.566 106.042 315.625 106.042C315.727 106.042 315.819 106.104 315.9 106.229L316.472 107.164C316.134 107.479 315.727 107.729 315.251 107.912C314.774 108.088 314.283 108.176 313.777 108.176ZM327.403 96.857V108H326.237C325.959 108 325.783 107.864 325.709 107.593L325.555 106.394C325.071 106.929 324.529 107.362 323.927 107.692C323.326 108.015 322.637 108.176 321.859 108.176C321.251 108.176 320.712 108.077 320.242 107.879C319.78 107.674 319.392 107.388 319.076 107.021C318.761 106.654 318.523 106.211 318.361 105.69C318.207 105.169 318.13 104.594 318.13 103.963V96.857H320.088V103.963C320.088 104.806 320.279 105.459 320.66 105.921C321.049 106.383 321.639 106.614 322.431 106.614C323.011 106.614 323.55 106.478 324.048 106.207C324.554 105.928 325.02 105.547 325.445 105.063V96.857H327.403ZM332.367 99.09C332.719 98.3273 333.152 97.7333 333.665 97.308C334.178 96.8753 334.805 96.659 335.546 96.659C335.781 96.659 336.004 96.6847 336.217 96.736C336.437 96.7873 336.631 96.868 336.8 96.978L336.657 98.441C336.613 98.6243 336.503 98.716 336.327 98.716C336.224 98.716 336.074 98.694 335.876 98.65C335.678 98.606 335.454 98.584 335.205 98.584C334.853 98.584 334.538 98.6353 334.259 98.738C333.988 98.8407 333.742 98.9947 333.522 99.2C333.309 99.398 333.115 99.6473 332.939 99.948C332.77 100.241 332.616 100.579 332.477 100.96V108H330.508V96.857H331.63C331.843 96.857 331.989 96.8973 332.07 96.978C332.151 97.0587 332.206 97.198 332.235 97.396L332.367 99.09ZM345.529 101.213C345.529 100.758 345.463 100.344 345.331 99.97C345.206 99.5887 345.019 99.2623 344.77 98.991C344.528 98.7123 344.231 98.4997 343.879 98.353C343.527 98.199 343.127 98.122 342.68 98.122C341.741 98.122 340.997 98.397 340.447 98.947C339.904 99.4897 339.567 100.245 339.435 101.213H345.529ZM347.113 106.438C346.871 106.731 346.581 106.988 346.244 107.208C345.906 107.421 345.543 107.597 345.155 107.736C344.773 107.875 344.377 107.978 343.967 108.044C343.556 108.117 343.149 108.154 342.746 108.154C341.976 108.154 341.264 108.026 340.612 107.769C339.966 107.505 339.405 107.124 338.929 106.625C338.459 106.119 338.093 105.496 337.829 104.755C337.565 104.014 337.433 103.164 337.433 102.203C337.433 101.426 337.55 100.7 337.785 100.025C338.027 99.3503 338.371 98.7673 338.819 98.276C339.266 97.7773 339.812 97.3887 340.458 97.11C341.103 96.824 341.829 96.681 342.636 96.681C343.303 96.681 343.919 96.7947 344.484 97.022C345.056 97.242 345.547 97.5647 345.958 97.99C346.376 98.408 346.702 98.9287 346.937 99.552C347.171 100.168 347.289 100.872 347.289 101.664C347.289 101.972 347.256 102.177 347.19 102.28C347.124 102.383 346.999 102.434 346.816 102.434H339.369C339.391 103.138 339.486 103.75 339.655 104.271C339.831 104.792 340.073 105.228 340.381 105.58C340.689 105.925 341.055 106.185 341.481 106.361C341.906 106.53 342.383 106.614 342.911 106.614C343.402 106.614 343.824 106.559 344.176 106.449C344.535 106.332 344.843 106.207 345.1 106.075C345.356 105.943 345.569 105.822 345.738 105.712C345.914 105.595 346.064 105.536 346.189 105.536C346.35 105.536 346.475 105.598 346.563 105.723L347.113 106.438Z" fill="white"/>
</svg>
