<svg width="406" height="228" viewBox="0 0 406 228" fill="none" xmlns="http://www.w3.org/2000/svg">
<rect width="406" height="228" fill="black"/>
<path d="M57.1265 67.975V73.486H63.6055V75.224H57.1265V82H54.9925V66.237H64.7055V67.975H57.1265ZM68.995 70.857V82H67.037V70.857H68.995ZM69.413 67.359C69.413 67.5497 69.3726 67.7293 69.292 67.898C69.2186 68.0593 69.116 68.206 68.984 68.338C68.8593 68.4627 68.709 68.5617 68.533 68.635C68.3643 68.7083 68.1846 68.745 67.994 68.745C67.8033 68.745 67.6236 68.7083 67.455 68.635C67.2936 68.5617 67.1506 68.4627 67.026 68.338C66.9013 68.206 66.8023 68.0593 66.729 67.898C66.6556 67.7293 66.619 67.5497 66.619 67.359C66.619 67.1683 66.6556 66.9887 66.729 66.82C66.8023 66.644 66.9013 66.4937 67.026 66.369C67.1506 66.237 67.2936 66.1343 67.455 66.061C67.6236 65.9877 67.8033 65.951 67.994 65.951C68.1846 65.951 68.3643 65.9877 68.533 66.061C68.709 66.1343 68.8593 66.237 68.984 66.369C69.116 66.4937 69.2186 66.644 69.292 66.82C69.3726 66.9887 69.413 67.1683 69.413 67.359ZM74.0601 72.474C74.3021 72.2027 74.5588 71.957 74.8301 71.737C75.1015 71.517 75.3875 71.33 75.6881 71.176C75.9961 71.0147 76.3188 70.8937 76.6561 70.813C77.0008 70.725 77.3711 70.681 77.7671 70.681C78.3758 70.681 78.9111 70.7837 79.3731 70.989C79.8425 71.187 80.2311 71.473 80.5391 71.847C80.8545 72.2137 81.0928 72.6573 81.2541 73.178C81.4155 73.6987 81.4961 74.2743 81.4961 74.905V82H79.5271V74.905C79.5271 74.0617 79.3328 73.409 78.9441 72.947C78.5628 72.4777 77.9798 72.243 77.1951 72.243C76.6158 72.243 76.0731 72.3823 75.5671 72.661C75.0685 72.9397 74.6065 73.3173 74.1811 73.794V82H72.2121V70.857H73.3891C73.6678 70.857 73.8401 70.9927 73.9061 71.264L74.0601 72.474ZM90.5187 76.984C89.6167 77.0133 88.8467 77.0867 88.2087 77.204C87.578 77.314 87.061 77.4607 86.6577 77.644C86.2617 77.8273 85.972 78.0437 85.7887 78.293C85.6127 78.5423 85.5247 78.821 85.5247 79.129C85.5247 79.4223 85.5724 79.6753 85.6677 79.888C85.763 80.1007 85.8914 80.2767 86.0527 80.416C86.2214 80.548 86.4157 80.647 86.6357 80.713C86.863 80.7717 87.105 80.801 87.3617 80.801C87.7064 80.801 88.0217 80.768 88.3077 80.702C88.5937 80.6287 88.8614 80.526 89.1107 80.394C89.3674 80.262 89.6094 80.1043 89.8367 79.921C90.0714 79.7377 90.2987 79.5287 90.5187 79.294V76.984ZM84.1937 72.43C84.8097 71.836 85.4734 71.3923 86.1847 71.099C86.896 70.8057 87.6844 70.659 88.5497 70.659C89.173 70.659 89.7267 70.7617 90.2107 70.967C90.6947 71.1723 91.1017 71.4583 91.4317 71.825C91.7617 72.1917 92.011 72.6353 92.1797 73.156C92.3484 73.6767 92.4327 74.2487 92.4327 74.872V82H91.5637C91.373 82 91.2264 81.9707 91.1237 81.912C91.021 81.846 90.9404 81.7213 90.8817 81.538L90.6617 80.482C90.3684 80.7533 90.0824 80.9953 89.8037 81.208C89.525 81.4133 89.2317 81.5893 88.9237 81.736C88.6157 81.8753 88.2857 81.9817 87.9337 82.055C87.589 82.1357 87.204 82.176 86.7787 82.176C86.346 82.176 85.939 82.1173 85.5577 82C85.1764 81.8753 84.8427 81.692 84.5567 81.45C84.278 81.208 84.0544 80.9037 83.8857 80.537C83.7244 80.163 83.6437 79.723 83.6437 79.217C83.6437 78.777 83.7647 78.3553 84.0067 77.952C84.2487 77.5413 84.641 77.1783 85.1837 76.863C85.7264 76.5477 86.434 76.291 87.3067 76.093C88.1794 75.8877 89.25 75.7703 90.5187 75.741V74.872C90.5187 74.0067 90.3317 73.354 89.9577 72.914C89.5837 72.4667 89.0374 72.243 88.3187 72.243C87.8347 72.243 87.4277 72.3053 87.0977 72.43C86.775 72.5473 86.4927 72.683 86.2507 72.837C86.016 72.9837 85.8107 73.1193 85.6347 73.244C85.466 73.3613 85.2974 73.42 85.1287 73.42C84.9967 73.42 84.883 73.387 84.7877 73.321C84.6924 73.2477 84.6117 73.1597 84.5457 73.057L84.1937 72.43ZM97.4393 65.797V82H95.4813V65.797H97.4393ZM111.358 74.41C111.967 74.41 112.502 74.3293 112.964 74.168C113.434 74.0067 113.826 73.783 114.141 73.497C114.464 73.2037 114.706 72.8553 114.867 72.452C115.029 72.0487 115.109 71.605 115.109 71.121C115.109 70.1163 114.798 69.3317 114.174 68.767C113.558 68.2023 112.62 67.92 111.358 67.92H108.828V74.41H111.358ZM111.358 66.237C112.356 66.237 113.221 66.3543 113.954 66.589C114.695 66.8163 115.307 67.1427 115.791 67.568C116.275 67.9933 116.635 68.5067 116.869 69.108C117.111 69.7093 117.232 70.3803 117.232 71.121C117.232 71.8543 117.104 72.5253 116.847 73.134C116.591 73.7427 116.213 74.267 115.714 74.707C115.223 75.147 114.611 75.4917 113.877 75.741C113.151 75.983 112.312 76.104 111.358 76.104H108.828V82H106.705V66.237H111.358ZM121.1 73.09C121.452 72.3273 121.885 71.7333 122.398 71.308C122.912 70.8753 123.539 70.659 124.279 70.659C124.514 70.659 124.738 70.6847 124.95 70.736C125.17 70.7873 125.365 70.868 125.533 70.978L125.39 72.441C125.346 72.6243 125.236 72.716 125.06 72.716C124.958 72.716 124.807 72.694 124.609 72.65C124.411 72.606 124.188 72.584 123.938 72.584C123.586 72.584 123.271 72.6353 122.992 72.738C122.721 72.8407 122.475 72.9947 122.255 73.2C122.043 73.398 121.848 73.6473 121.672 73.948C121.504 74.2413 121.35 74.5787 121.21 74.96V82H119.241V70.857H120.363C120.576 70.857 120.723 70.8973 120.803 70.978C120.884 71.0587 120.939 71.198 120.968 71.396L121.1 73.09ZM134.262 75.213C134.262 74.7583 134.196 74.344 134.064 73.97C133.939 73.5887 133.752 73.2623 133.503 72.991C133.261 72.7123 132.964 72.4997 132.612 72.353C132.26 72.199 131.86 72.122 131.413 72.122C130.474 72.122 129.73 72.397 129.18 72.947C128.637 73.4897 128.3 74.245 128.168 75.213H134.262ZM135.846 80.438C135.604 80.7313 135.314 80.988 134.977 81.208C134.64 81.4207 134.277 81.5967 133.888 81.736C133.507 81.8753 133.111 81.978 132.7 82.044C132.289 82.1173 131.882 82.154 131.479 82.154C130.709 82.154 129.998 82.0257 129.345 81.769C128.7 81.505 128.139 81.1237 127.662 80.625C127.193 80.119 126.826 79.4957 126.562 78.755C126.298 78.0143 126.166 77.1637 126.166 76.203C126.166 75.4257 126.283 74.6997 126.518 74.025C126.76 73.3503 127.105 72.7673 127.552 72.276C127.999 71.7773 128.546 71.3887 129.191 71.11C129.836 70.824 130.562 70.681 131.369 70.681C132.036 70.681 132.652 70.7947 133.217 71.022C133.789 71.242 134.28 71.5647 134.691 71.99C135.109 72.408 135.435 72.9287 135.67 73.552C135.905 74.168 136.022 74.872 136.022 75.664C136.022 75.972 135.989 76.1773 135.923 76.28C135.857 76.3827 135.732 76.434 135.549 76.434H128.102C128.124 77.138 128.219 77.7503 128.388 78.271C128.564 78.7917 128.806 79.228 129.114 79.58C129.422 79.9247 129.789 80.185 130.214 80.361C130.639 80.5297 131.116 80.614 131.644 80.614C132.135 80.614 132.557 80.559 132.909 80.449C133.268 80.3317 133.576 80.207 133.833 80.075C134.09 79.943 134.302 79.822 134.471 79.712C134.647 79.5947 134.797 79.536 134.922 79.536C135.083 79.536 135.208 79.5983 135.296 79.723L135.846 80.438ZM144.917 72.694C144.829 72.8553 144.693 72.936 144.51 72.936C144.4 72.936 144.275 72.8957 144.136 72.815C143.997 72.7343 143.824 72.6463 143.619 72.551C143.421 72.4483 143.183 72.3567 142.904 72.276C142.625 72.188 142.295 72.144 141.914 72.144C141.584 72.144 141.287 72.188 141.023 72.276C140.759 72.3567 140.532 72.4703 140.341 72.617C140.158 72.7637 140.015 72.936 139.912 73.134C139.817 73.3247 139.769 73.5337 139.769 73.761C139.769 74.047 139.85 74.2853 140.011 74.476C140.18 74.6667 140.4 74.8317 140.671 74.971C140.942 75.1103 141.25 75.235 141.595 75.345C141.94 75.4477 142.292 75.5613 142.651 75.686C143.018 75.8033 143.373 75.9353 143.718 76.082C144.063 76.2287 144.371 76.412 144.642 76.632C144.913 76.852 145.13 77.1233 145.291 77.446C145.46 77.7613 145.544 78.1427 145.544 78.59C145.544 79.1033 145.452 79.58 145.269 80.02C145.086 80.4527 144.814 80.8303 144.455 81.153C144.096 81.4683 143.656 81.7177 143.135 81.901C142.614 82.0843 142.013 82.176 141.331 82.176C140.554 82.176 139.85 82.0513 139.219 81.802C138.588 81.5453 138.053 81.219 137.613 80.823L138.075 80.075C138.134 79.9797 138.203 79.9063 138.284 79.855C138.365 79.8037 138.467 79.778 138.592 79.778C138.724 79.778 138.863 79.8293 139.01 79.932C139.157 80.0347 139.333 80.1483 139.538 80.273C139.751 80.3977 140.007 80.5113 140.308 80.614C140.609 80.7167 140.983 80.768 141.43 80.768C141.811 80.768 142.145 80.7203 142.431 80.625C142.717 80.5223 142.955 80.3867 143.146 80.218C143.337 80.0493 143.476 79.855 143.564 79.635C143.659 79.415 143.707 79.1803 143.707 78.931C143.707 78.623 143.623 78.37 143.454 78.172C143.293 77.9667 143.076 77.7943 142.805 77.655C142.534 77.5083 142.222 77.3837 141.87 77.281C141.525 77.171 141.17 77.0573 140.803 76.94C140.444 76.8227 140.088 76.6907 139.736 76.544C139.391 76.39 139.083 76.1993 138.812 75.972C138.541 75.7447 138.321 75.466 138.152 75.136C137.991 74.7987 137.91 74.3917 137.91 73.915C137.91 73.4897 137.998 73.0827 138.174 72.694C138.35 72.298 138.607 71.9533 138.944 71.66C139.281 71.3593 139.696 71.121 140.187 70.945C140.678 70.769 141.239 70.681 141.87 70.681C142.603 70.681 143.26 70.7983 143.839 71.033C144.426 71.2603 144.932 71.5757 145.357 71.979L144.917 72.694ZM155.403 75.213C155.403 74.7583 155.337 74.344 155.205 73.97C155.08 73.5887 154.893 73.2623 154.644 72.991C154.402 72.7123 154.105 72.4997 153.753 72.353C153.401 72.199 153.001 72.122 152.554 72.122C151.615 72.122 150.871 72.397 150.321 72.947C149.778 73.4897 149.441 74.245 149.309 75.213H155.403ZM156.987 80.438C156.745 80.7313 156.455 80.988 156.118 81.208C155.78 81.4207 155.417 81.5967 155.029 81.736C154.647 81.8753 154.251 81.978 153.841 82.044C153.43 82.1173 153.023 82.154 152.62 82.154C151.85 82.154 151.138 82.0257 150.486 81.769C149.84 81.505 149.279 81.1237 148.803 80.625C148.333 80.119 147.967 79.4957 147.703 78.755C147.439 78.0143 147.307 77.1637 147.307 76.203C147.307 75.4257 147.424 74.6997 147.659 74.025C147.901 73.3503 148.245 72.7673 148.693 72.276C149.14 71.7773 149.686 71.3887 150.332 71.11C150.977 70.824 151.703 70.681 152.51 70.681C153.177 70.681 153.793 70.7947 154.358 71.022C154.93 71.242 155.421 71.5647 155.832 71.99C156.25 72.408 156.576 72.9287 156.811 73.552C157.045 74.168 157.163 74.872 157.163 75.664C157.163 75.972 157.13 76.1773 157.064 76.28C156.998 76.3827 156.873 76.434 156.69 76.434H149.243C149.265 77.138 149.36 77.7503 149.529 78.271C149.705 78.7917 149.947 79.228 150.255 79.58C150.563 79.9247 150.929 80.185 151.355 80.361C151.78 80.5297 152.257 80.614 152.785 80.614C153.276 80.614 153.698 80.559 154.05 80.449C154.409 80.3317 154.717 80.207 154.974 80.075C155.23 79.943 155.443 79.822 155.612 79.712C155.788 79.5947 155.938 79.536 156.063 79.536C156.224 79.536 156.349 79.5983 156.437 79.723L156.987 80.438ZM161.416 72.474C161.658 72.2027 161.914 71.957 162.186 71.737C162.457 71.517 162.743 71.33 163.044 71.176C163.352 71.0147 163.674 70.8937 164.012 70.813C164.356 70.725 164.727 70.681 165.123 70.681C165.731 70.681 166.267 70.7837 166.729 70.989C167.198 71.187 167.587 71.473 167.895 71.847C168.21 72.2137 168.448 72.6573 168.61 73.178C168.771 73.6987 168.852 74.2743 168.852 74.905V82H166.883V74.905C166.883 74.0617 166.688 73.409 166.3 72.947C165.918 72.4777 165.335 72.243 164.551 72.243C163.971 72.243 163.429 72.3823 162.923 72.661C162.424 72.9397 161.962 73.3173 161.537 73.794V82H159.568V70.857H160.745C161.023 70.857 161.196 70.9927 161.262 71.264L161.416 72.474ZM175.106 82.176C174.226 82.176 173.547 81.9303 173.071 81.439C172.601 80.9477 172.367 80.24 172.367 79.316V72.496H171.025C170.907 72.496 170.808 72.463 170.728 72.397C170.647 72.3237 170.607 72.2137 170.607 72.067V71.286L172.433 71.055L172.884 67.612C172.906 67.502 172.953 67.414 173.027 67.348C173.107 67.2747 173.21 67.238 173.335 67.238H174.325V71.077H177.548V72.496H174.325V79.184C174.325 79.6533 174.438 80.0017 174.666 80.229C174.893 80.4563 175.186 80.57 175.546 80.57C175.751 80.57 175.927 80.5443 176.074 80.493C176.228 80.4343 176.36 80.372 176.47 80.306C176.58 80.24 176.671 80.1813 176.745 80.13C176.825 80.0713 176.895 80.042 176.954 80.042C177.056 80.042 177.148 80.1043 177.229 80.229L177.801 81.164C177.463 81.4793 177.056 81.7287 176.58 81.912C176.103 82.088 175.612 82.176 175.106 82.176ZM185.609 76.984C184.707 77.0133 183.937 77.0867 183.299 77.204C182.668 77.314 182.151 77.4607 181.748 77.644C181.352 77.8273 181.062 78.0437 180.879 78.293C180.703 78.5423 180.615 78.821 180.615 79.129C180.615 79.4223 180.662 79.6753 180.758 79.888C180.853 80.1007 180.981 80.2767 181.143 80.416C181.311 80.548 181.506 80.647 181.726 80.713C181.953 80.7717 182.195 80.801 182.452 80.801C182.796 80.801 183.112 80.768 183.398 80.702C183.684 80.6287 183.951 80.526 184.201 80.394C184.457 80.262 184.699 80.1043 184.927 79.921C185.161 79.7377 185.389 79.5287 185.609 79.294V76.984ZM179.284 72.43C179.9 71.836 180.563 71.3923 181.275 71.099C181.986 70.8057 182.774 70.659 183.64 70.659C184.263 70.659 184.817 70.7617 185.301 70.967C185.785 71.1723 186.192 71.4583 186.522 71.825C186.852 72.1917 187.101 72.6353 187.27 73.156C187.438 73.6767 187.523 74.2487 187.523 74.872V82H186.654C186.463 82 186.316 81.9707 186.214 81.912C186.111 81.846 186.03 81.7213 185.972 81.538L185.752 80.482C185.458 80.7533 185.172 80.9953 184.894 81.208C184.615 81.4133 184.322 81.5893 184.014 81.736C183.706 81.8753 183.376 81.9817 183.024 82.055C182.679 82.1357 182.294 82.176 181.869 82.176C181.436 82.176 181.029 82.1173 180.648 82C180.266 81.8753 179.933 81.692 179.647 81.45C179.368 81.208 179.144 80.9037 178.976 80.537C178.814 80.163 178.734 79.723 178.734 79.217C178.734 78.777 178.855 78.3553 179.097 77.952C179.339 77.5413 179.731 77.1783 180.274 76.863C180.816 76.5477 181.524 76.291 182.397 76.093C183.269 75.8877 184.34 75.7703 185.609 75.741V74.872C185.609 74.0067 185.422 73.354 185.048 72.914C184.674 72.4667 184.127 72.243 183.409 72.243C182.925 72.243 182.518 72.3053 182.188 72.43C181.865 72.5473 181.583 72.683 181.341 72.837C181.106 72.9837 180.901 73.1193 180.725 73.244C180.556 73.3613 180.387 73.42 180.219 73.42C180.087 73.42 179.973 73.387 179.878 73.321C179.782 73.2477 179.702 73.1597 179.636 73.057L179.284 72.43ZM200.695 82H198.737V72.496H192.995V79.184C192.995 79.6533 193.108 80.0017 193.336 80.229C193.563 80.4563 193.856 80.57 194.216 80.57C194.421 80.57 194.597 80.5443 194.744 80.493C194.898 80.4343 195.03 80.372 195.14 80.306C195.25 80.24 195.341 80.1813 195.415 80.13C195.495 80.0713 195.565 80.042 195.624 80.042C195.726 80.042 195.818 80.1043 195.899 80.229L196.471 81.164C196.133 81.4793 195.726 81.7287 195.25 81.912C194.773 82.088 194.282 82.176 193.776 82.176C192.896 82.176 192.217 81.9303 191.741 81.439C191.271 80.9477 191.037 80.24 191.037 79.316V72.496H189.695C189.577 72.496 189.478 72.463 189.398 72.397C189.317 72.3237 189.277 72.2137 189.277 72.067V71.286L191.103 71.044L191.554 67.612C191.576 67.502 191.623 67.414 191.697 67.348C191.777 67.2747 191.88 67.238 192.005 67.238H192.995V71.077H200.695V82ZM201.179 67.282C201.179 67.4727 201.138 67.6523 201.058 67.821C200.984 67.9823 200.882 68.1253 200.75 68.25C200.625 68.3747 200.478 68.4737 200.31 68.547C200.141 68.6203 199.961 68.657 199.771 68.657C199.58 68.657 199.4 68.6203 199.232 68.547C199.07 68.4737 198.927 68.3747 198.803 68.25C198.678 68.1253 198.579 67.9823 198.506 67.821C198.432 67.6523 198.396 67.4727 198.396 67.282C198.396 67.0913 198.432 66.9117 198.506 66.743C198.579 66.567 198.678 66.4167 198.803 66.292C198.927 66.16 199.07 66.0573 199.232 65.984C199.4 65.9107 199.58 65.874 199.771 65.874C199.961 65.874 200.141 65.9107 200.31 65.984C200.478 66.0573 200.625 66.16 200.75 66.292C200.882 66.4167 200.984 66.567 201.058 66.743C201.138 66.9117 201.179 67.0913 201.179 67.282ZM208.608 70.681C209.422 70.681 210.156 70.8167 210.808 71.088C211.461 71.3593 212.018 71.7443 212.48 72.243C212.942 72.7417 213.294 73.3467 213.536 74.058C213.786 74.762 213.91 75.5503 213.91 76.423C213.91 77.303 213.786 78.095 213.536 78.799C213.294 79.503 212.942 80.1043 212.48 80.603C212.018 81.1017 211.461 81.4867 210.808 81.758C210.156 82.022 209.422 82.154 208.608 82.154C207.787 82.154 207.046 82.022 206.386 81.758C205.734 81.4867 205.176 81.1017 204.714 80.603C204.252 80.1043 203.897 79.503 203.647 78.799C203.405 78.095 203.284 77.303 203.284 76.423C203.284 75.5503 203.405 74.762 203.647 74.058C203.897 73.3467 204.252 72.7417 204.714 72.243C205.176 71.7443 205.734 71.3593 206.386 71.088C207.046 70.8167 207.787 70.681 208.608 70.681ZM208.608 80.625C209.708 80.625 210.53 80.2583 211.072 79.525C211.615 78.7843 211.886 77.754 211.886 76.434C211.886 75.1067 211.615 74.0727 211.072 73.332C210.53 72.5913 209.708 72.221 208.608 72.221C208.051 72.221 207.563 72.3163 207.145 72.507C206.735 72.6977 206.39 72.9727 206.111 73.332C205.84 73.6913 205.635 74.135 205.495 74.663C205.363 75.1837 205.297 75.774 205.297 76.434C205.297 77.754 205.569 78.7843 206.111 79.525C206.661 80.2583 207.494 80.625 208.608 80.625ZM218.242 72.474C218.484 72.2027 218.74 71.957 219.012 71.737C219.283 71.517 219.569 71.33 219.87 71.176C220.178 71.0147 220.5 70.8937 220.838 70.813C221.182 70.725 221.553 70.681 221.949 70.681C222.557 70.681 223.093 70.7837 223.555 70.989C224.024 71.187 224.413 71.473 224.721 71.847C225.036 72.2137 225.274 72.6573 225.436 73.178C225.597 73.6987 225.678 74.2743 225.678 74.905V82H223.709V74.905C223.709 74.0617 223.514 73.409 223.126 72.947C222.744 72.4777 222.161 72.243 221.377 72.243C220.797 72.243 220.255 72.3823 219.749 72.661C219.25 72.9397 218.788 73.3173 218.363 73.794V82H216.394V70.857H217.571C217.849 70.857 218.022 70.9927 218.088 71.264L218.242 72.474ZM234.114 74.575H239.548V76.236H234.114V74.575ZM261.349 74.421V80.471C260.557 81.043 259.71 81.472 258.808 81.758C257.914 82.0367 256.931 82.176 255.86 82.176C254.592 82.176 253.448 81.9817 252.428 81.593C251.409 81.197 250.536 80.647 249.81 79.943C249.092 79.2317 248.538 78.381 248.149 77.391C247.761 76.401 247.566 75.312 247.566 74.124C247.566 72.9213 247.753 71.825 248.127 70.835C248.509 69.845 249.048 68.998 249.744 68.294C250.441 67.5827 251.288 67.0327 252.285 66.644C253.283 66.2553 254.397 66.061 255.629 66.061C256.253 66.061 256.832 66.1087 257.367 66.204C257.903 66.292 258.398 66.424 258.852 66.6C259.307 66.7687 259.729 66.9777 260.117 67.227C260.506 67.469 260.869 67.744 261.206 68.052L260.601 69.02C260.506 69.1667 260.381 69.262 260.227 69.306C260.081 69.3427 259.916 69.306 259.732 69.196C259.556 69.0933 259.355 68.9687 259.127 68.822C258.9 68.6753 258.621 68.536 258.291 68.404C257.969 68.2647 257.584 68.1473 257.136 68.052C256.696 67.9567 256.172 67.909 255.563 67.909C254.676 67.909 253.873 68.0557 253.154 68.349C252.436 68.635 251.823 69.0493 251.317 69.592C250.811 70.1273 250.423 70.78 250.151 71.55C249.88 72.3127 249.744 73.1707 249.744 74.124C249.744 75.114 249.884 76.0013 250.162 76.786C250.448 77.5633 250.852 78.227 251.372 78.777C251.9 79.3197 252.538 79.734 253.286 80.02C254.034 80.306 254.874 80.449 255.805 80.449C256.539 80.449 257.188 80.3683 257.752 80.207C258.324 80.0383 258.882 79.8073 259.424 79.514V76.049H256.971C256.832 76.049 256.718 76.0087 256.63 75.928C256.55 75.8473 256.509 75.7483 256.509 75.631V74.421H261.349ZM265.841 73.09C266.193 72.3273 266.625 71.7333 267.139 71.308C267.652 70.8753 268.279 70.659 269.02 70.659C269.254 70.659 269.478 70.6847 269.691 70.736C269.911 70.7873 270.105 70.868 270.274 70.978L270.131 72.441C270.087 72.6243 269.977 72.716 269.801 72.716C269.698 72.716 269.548 72.694 269.35 72.65C269.152 72.606 268.928 72.584 268.679 72.584C268.327 72.584 268.011 72.6353 267.733 72.738C267.461 72.8407 267.216 72.9947 266.996 73.2C266.783 73.398 266.589 73.6473 266.413 73.948C266.244 74.2413 266.09 74.5787 265.951 74.96V82H263.982V70.857H265.104C265.316 70.857 265.463 70.8973 265.544 70.978C265.624 71.0587 265.679 71.198 265.709 71.396L265.841 73.09ZM276.241 70.681C277.055 70.681 277.788 70.8167 278.441 71.088C279.094 71.3593 279.651 71.7443 280.113 72.243C280.575 72.7417 280.927 73.3467 281.169 74.058C281.418 74.762 281.543 75.5503 281.543 76.423C281.543 77.303 281.418 78.095 281.169 78.799C280.927 79.503 280.575 80.1043 280.113 80.603C279.651 81.1017 279.094 81.4867 278.441 81.758C277.788 82.022 277.055 82.154 276.241 82.154C275.42 82.154 274.679 82.022 274.019 81.758C273.366 81.4867 272.809 81.1017 272.347 80.603C271.885 80.1043 271.529 79.503 271.28 78.799C271.038 78.095 270.917 77.303 270.917 76.423C270.917 75.5503 271.038 74.762 271.28 74.058C271.529 73.3467 271.885 72.7417 272.347 72.243C272.809 71.7443 273.366 71.3593 274.019 71.088C274.679 70.8167 275.42 70.681 276.241 70.681ZM276.241 80.625C277.341 80.625 278.162 80.2583 278.705 79.525C279.248 78.7843 279.519 77.754 279.519 76.434C279.519 75.1067 279.248 74.0727 278.705 73.332C278.162 72.5913 277.341 72.221 276.241 72.221C275.684 72.221 275.196 72.3163 274.778 72.507C274.367 72.6977 274.023 72.9727 273.744 73.332C273.473 73.6913 273.267 74.135 273.128 74.663C272.996 75.1837 272.93 75.774 272.93 76.434C272.93 77.754 273.201 78.7843 273.744 79.525C274.294 80.2583 275.126 80.625 276.241 80.625ZM293.19 70.857V82H292.024C291.745 82 291.569 81.8643 291.496 81.593L291.342 80.394C290.858 80.9293 290.315 81.362 289.714 81.692C289.112 82.0147 288.423 82.176 287.646 82.176C287.037 82.176 286.498 82.077 286.029 81.879C285.567 81.6737 285.178 81.3877 284.863 81.021C284.547 80.6543 284.309 80.2107 284.148 79.69C283.994 79.1693 283.917 78.5937 283.917 77.963V70.857H285.875V77.963C285.875 78.8063 286.065 79.459 286.447 79.921C286.835 80.383 287.426 80.614 288.218 80.614C288.797 80.614 289.336 80.4783 289.835 80.207C290.341 79.9283 290.806 79.547 291.232 79.063V70.857H293.19ZM298.263 79.316C298.622 79.8 299.015 80.141 299.44 80.339C299.865 80.537 300.342 80.636 300.87 80.636C301.911 80.636 302.711 80.2657 303.268 79.525C303.825 78.7843 304.104 77.7283 304.104 76.357C304.104 75.631 304.038 75.0077 303.906 74.487C303.781 73.9663 303.598 73.541 303.356 73.211C303.114 72.8737 302.817 72.628 302.465 72.474C302.113 72.32 301.713 72.243 301.266 72.243C300.628 72.243 300.067 72.3897 299.583 72.683C299.106 72.9763 298.666 73.3907 298.263 73.926V79.316ZM298.164 72.584C298.633 72.0047 299.176 71.539 299.792 71.187C300.408 70.835 301.112 70.659 301.904 70.659C302.549 70.659 303.132 70.7837 303.653 71.033C304.174 71.275 304.617 71.638 304.984 72.122C305.351 72.5987 305.633 73.1927 305.831 73.904C306.029 74.6153 306.128 75.433 306.128 76.357C306.128 77.1783 306.018 77.9447 305.798 78.656C305.578 79.36 305.259 79.9723 304.841 80.493C304.43 81.0063 303.924 81.4133 303.323 81.714C302.729 82.0073 302.058 82.154 301.31 82.154C300.628 82.154 300.041 82.0403 299.55 81.813C299.066 81.5783 298.637 81.2557 298.263 80.845V85.773H296.294V70.857H297.471C297.75 70.857 297.922 70.9927 297.988 71.264L298.164 72.584ZM314.134 70.505C314.237 69.7863 314.435 69.152 314.728 68.602C315.021 68.0447 315.392 67.579 315.839 67.205C316.294 66.831 316.811 66.5487 317.39 66.358C317.977 66.16 318.607 66.061 319.282 66.061C319.949 66.061 320.565 66.1563 321.13 66.347C321.695 66.5377 322.179 66.809 322.582 67.161C322.993 67.513 323.312 67.9383 323.539 68.437C323.766 68.9357 323.88 69.4893 323.88 70.098C323.88 70.5967 323.814 71.044 323.682 71.44C323.557 71.8287 323.374 72.1697 323.132 72.463C322.897 72.7563 322.611 73.0057 322.274 73.211C321.937 73.4163 321.559 73.585 321.141 73.717C322.168 73.981 322.938 74.4357 323.451 75.081C323.972 75.719 324.232 76.5183 324.232 77.479C324.232 78.205 324.093 78.8577 323.814 79.437C323.543 80.0163 323.169 80.5113 322.692 80.922C322.215 81.3253 321.658 81.637 321.02 81.857C320.389 82.0697 319.711 82.176 318.985 82.176C318.149 82.176 317.434 82.0733 316.84 81.868C316.246 81.6553 315.744 81.3657 315.333 80.999C314.922 80.6323 314.585 80.1997 314.321 79.701C314.057 79.195 313.833 78.6487 313.65 78.062L314.497 77.71C314.717 77.6147 314.93 77.589 315.135 77.633C315.348 77.677 315.502 77.798 315.597 77.996C315.692 78.2013 315.81 78.447 315.949 78.733C316.096 79.019 316.294 79.294 316.543 79.558C316.792 79.822 317.108 80.0457 317.489 80.229C317.878 80.4123 318.369 80.504 318.963 80.504C319.513 80.504 319.993 80.416 320.404 80.24C320.822 80.0567 321.167 79.822 321.438 79.536C321.717 79.25 321.926 78.931 322.065 78.579C322.204 78.227 322.274 77.8787 322.274 77.534C322.274 77.1087 322.219 76.72 322.109 76.368C321.999 76.016 321.794 75.7117 321.493 75.455C321.192 75.1983 320.778 74.9967 320.25 74.85C319.729 74.7033 319.058 74.63 318.237 74.63V73.211C318.912 73.2037 319.484 73.1303 319.953 72.991C320.43 72.8517 320.815 72.661 321.108 72.419C321.409 72.177 321.625 71.8873 321.757 71.55C321.896 71.2127 321.966 70.8387 321.966 70.428C321.966 69.9733 321.893 69.5773 321.746 69.24C321.607 68.9027 321.412 68.624 321.163 68.404C320.914 68.184 320.617 68.019 320.272 67.909C319.935 67.799 319.568 67.744 319.172 67.744C318.776 67.744 318.406 67.8027 318.061 67.92C317.724 68.0373 317.423 68.2023 317.159 68.415C316.902 68.6203 316.686 68.866 316.51 69.152C316.334 69.438 316.209 69.7533 316.136 70.098C316.041 70.3547 315.92 70.527 315.773 70.615C315.634 70.6957 315.428 70.7177 315.157 70.681L314.134 70.505ZM337.566 74.124C337.566 75.5027 337.415 76.698 337.115 77.71C336.821 78.7147 336.418 79.547 335.905 80.207C335.391 80.867 334.783 81.3583 334.079 81.681C333.382 82.0037 332.634 82.165 331.835 82.165C331.028 82.165 330.276 82.0037 329.58 81.681C328.89 81.3583 328.289 80.867 327.776 80.207C327.262 79.547 326.859 78.7147 326.566 77.71C326.272 76.698 326.126 75.5027 326.126 74.124C326.126 72.7453 326.272 71.55 326.566 70.538C326.859 69.526 327.262 68.69 327.776 68.03C328.289 67.3627 328.89 66.8677 329.58 66.545C330.276 66.2223 331.028 66.061 331.835 66.061C332.634 66.061 333.382 66.2223 334.079 66.545C334.783 66.8677 335.391 67.3627 335.905 68.03C336.418 68.69 336.821 69.526 337.115 70.538C337.415 71.55 337.566 72.7453 337.566 74.124ZM335.531 74.124C335.531 72.9213 335.428 71.913 335.223 71.099C335.025 70.2777 334.753 69.6177 334.409 69.119C334.071 68.6203 333.679 68.2647 333.232 68.052C332.784 67.832 332.319 67.722 331.835 67.722C331.351 67.722 330.885 67.832 330.438 68.052C329.99 68.2647 329.598 68.6203 329.261 69.119C328.923 69.6177 328.652 70.2777 328.447 71.099C328.249 71.913 328.15 72.9213 328.15 74.124C328.15 75.3267 328.249 76.335 328.447 77.149C328.652 77.963 328.923 78.6193 329.261 79.118C329.598 79.6167 329.99 79.976 330.438 80.196C330.885 80.4087 331.351 80.515 331.835 80.515C332.319 80.515 332.784 80.4087 333.232 80.196C333.679 79.976 334.071 79.6167 334.409 79.118C334.753 78.6193 335.025 77.963 335.223 77.149C335.428 76.335 335.531 75.3267 335.531 74.124ZM345.231 74.575H350.665V76.236H345.231V74.575ZM120.864 106.306C121.473 106.306 121.997 106.236 122.437 106.097C122.877 105.958 123.237 105.763 123.515 105.514C123.801 105.257 124.01 104.957 124.142 104.612C124.274 104.26 124.34 103.875 124.34 103.457C124.34 102.643 124.051 102.001 123.471 101.532C122.892 101.055 122.023 100.817 120.864 100.817H117.454V106.306H120.864ZM117.454 93.92V99.299H120.27C120.872 99.299 121.392 99.233 121.832 99.101C122.28 98.969 122.646 98.7857 122.932 98.551C123.226 98.3163 123.442 98.034 123.581 97.704C123.721 97.3667 123.79 97 123.79 96.604C123.79 95.6727 123.512 94.9943 122.954 94.569C122.397 94.1363 121.532 93.92 120.358 93.92H117.454ZM120.358 92.237C121.326 92.237 122.159 92.3323 122.855 92.523C123.559 92.7137 124.135 92.985 124.582 93.337C125.037 93.689 125.371 94.1217 125.583 94.635C125.796 95.141 125.902 95.713 125.902 96.351C125.902 96.7397 125.84 97.1137 125.715 97.473C125.598 97.825 125.418 98.155 125.176 98.463C124.934 98.771 124.626 99.0497 124.252 99.299C123.886 99.541 123.453 99.739 122.954 99.893C124.113 100.113 124.982 100.527 125.561 101.136C126.148 101.737 126.441 102.529 126.441 103.512C126.441 104.179 126.317 104.788 126.067 105.338C125.825 105.888 125.466 106.361 124.989 106.757C124.52 107.153 123.941 107.461 123.251 107.681C122.562 107.894 121.777 108 120.897 108H115.331V92.237H120.358ZM130.901 91.797V108H128.943V91.797H130.901ZM138.773 96.681C139.587 96.681 140.321 96.8167 140.973 97.088C141.626 97.3593 142.183 97.7443 142.645 98.243C143.107 98.7417 143.459 99.3467 143.701 100.058C143.951 100.762 144.075 101.55 144.075 102.423C144.075 103.303 143.951 104.095 143.701 104.799C143.459 105.503 143.107 106.104 142.645 106.603C142.183 107.102 141.626 107.487 140.973 107.758C140.321 108.022 139.587 108.154 138.773 108.154C137.952 108.154 137.211 108.022 136.551 107.758C135.899 107.487 135.341 107.102 134.879 106.603C134.417 106.104 134.062 105.503 133.812 104.799C133.57 104.095 133.449 103.303 133.449 102.423C133.449 101.55 133.57 100.762 133.812 100.058C134.062 99.3467 134.417 98.7417 134.879 98.243C135.341 97.7443 135.899 97.3593 136.551 97.088C137.211 96.8167 137.952 96.681 138.773 96.681ZM138.773 106.625C139.873 106.625 140.695 106.258 141.237 105.525C141.78 104.784 142.051 103.754 142.051 102.434C142.051 101.107 141.78 100.073 141.237 99.332C140.695 98.5913 139.873 98.221 138.773 98.221C138.216 98.221 137.728 98.3163 137.31 98.507C136.9 98.6977 136.555 98.9727 136.276 99.332C136.005 99.6913 135.8 100.135 135.66 100.663C135.528 101.184 135.462 101.774 135.462 102.434C135.462 103.754 135.734 104.784 136.276 105.525C136.826 106.258 137.659 106.625 138.773 106.625ZM154.314 98.837C154.255 98.9177 154.196 98.98 154.138 99.024C154.079 99.068 153.998 99.09 153.896 99.09C153.786 99.09 153.665 99.046 153.533 98.958C153.401 98.8627 153.236 98.76 153.038 98.65C152.847 98.54 152.609 98.441 152.323 98.353C152.044 98.2577 151.699 98.21 151.289 98.21C150.739 98.21 150.255 98.309 149.837 98.507C149.419 98.6977 149.067 98.9763 148.781 99.343C148.502 99.7097 148.289 100.153 148.143 100.674C148.003 101.195 147.934 101.778 147.934 102.423C147.934 103.098 148.011 103.699 148.165 104.227C148.319 104.748 148.535 105.188 148.814 105.547C149.1 105.899 149.441 106.17 149.837 106.361C150.24 106.544 150.691 106.636 151.19 106.636C151.666 106.636 152.059 106.581 152.367 106.471C152.675 106.354 152.928 106.225 153.126 106.086C153.331 105.947 153.5 105.822 153.632 105.712C153.771 105.595 153.907 105.536 154.039 105.536C154.2 105.536 154.325 105.598 154.413 105.723L154.963 106.438C154.721 106.739 154.446 106.995 154.138 107.208C153.83 107.421 153.496 107.6 153.137 107.747C152.785 107.886 152.414 107.989 152.026 108.055C151.637 108.121 151.241 108.154 150.838 108.154C150.141 108.154 149.492 108.026 148.891 107.769C148.297 107.512 147.78 107.142 147.34 106.658C146.9 106.167 146.555 105.565 146.306 104.854C146.056 104.143 145.932 103.332 145.932 102.423C145.932 101.594 146.045 100.828 146.273 100.124C146.507 99.42 146.845 98.815 147.285 98.309C147.732 97.7957 148.278 97.396 148.924 97.11C149.576 96.824 150.324 96.681 151.168 96.681C151.952 96.681 152.642 96.8093 153.236 97.066C153.837 97.3153 154.369 97.671 154.831 98.133L154.314 98.837ZM159.034 91.797V101.334H159.54C159.686 101.334 159.807 101.316 159.903 101.279C160.005 101.235 160.112 101.151 160.222 101.026L163.742 97.253C163.844 97.1283 163.951 97.033 164.061 96.967C164.178 96.8937 164.332 96.857 164.523 96.857H166.294L162.191 101.224C161.993 101.473 161.78 101.668 161.553 101.807C161.685 101.895 161.802 101.998 161.905 102.115C162.015 102.225 162.117 102.353 162.213 102.5L166.569 108H164.82C164.651 108 164.504 107.974 164.38 107.923C164.262 107.864 164.16 107.762 164.072 107.615L160.409 103.05C160.299 102.896 160.189 102.797 160.079 102.753C159.976 102.702 159.815 102.676 159.595 102.676H159.034V108H157.065V91.797H159.034ZM175.369 98.837C175.31 98.9177 175.251 98.98 175.193 99.024C175.134 99.068 175.053 99.09 174.951 99.09C174.841 99.09 174.72 99.046 174.588 98.958C174.456 98.8627 174.291 98.76 174.093 98.65C173.902 98.54 173.664 98.441 173.378 98.353C173.099 98.2577 172.754 98.21 172.344 98.21C171.794 98.21 171.31 98.309 170.892 98.507C170.474 98.6977 170.122 98.9763 169.836 99.343C169.557 99.7097 169.344 100.153 169.198 100.674C169.058 101.195 168.989 101.778 168.989 102.423C168.989 103.098 169.066 103.699 169.22 104.227C169.374 104.748 169.59 105.188 169.869 105.547C170.155 105.899 170.496 106.17 170.892 106.361C171.295 106.544 171.746 106.636 172.245 106.636C172.721 106.636 173.114 106.581 173.422 106.471C173.73 106.354 173.983 106.225 174.181 106.086C174.386 105.947 174.555 105.822 174.687 105.712C174.826 105.595 174.962 105.536 175.094 105.536C175.255 105.536 175.38 105.598 175.468 105.723L176.018 106.438C175.776 106.739 175.501 106.995 175.193 107.208C174.885 107.421 174.551 107.6 174.192 107.747C173.84 107.886 173.469 107.989 173.081 108.055C172.692 108.121 172.296 108.154 171.893 108.154C171.196 108.154 170.547 108.026 169.946 107.769C169.352 107.512 168.835 107.142 168.395 106.658C167.955 106.167 167.61 105.565 167.361 104.854C167.111 104.143 166.987 103.332 166.987 102.423C166.987 101.594 167.1 100.828 167.328 100.124C167.562 99.42 167.9 98.815 168.34 98.309C168.787 97.7957 169.333 97.396 169.979 97.11C170.631 96.824 171.379 96.681 172.223 96.681C173.007 96.681 173.697 96.8093 174.291 97.066C174.892 97.3153 175.424 97.671 175.886 98.133L175.369 98.837ZM180.088 98.342C180.565 97.836 181.093 97.4327 181.672 97.132C182.252 96.8313 182.919 96.681 183.674 96.681C184.283 96.681 184.818 96.7837 185.28 96.989C185.75 97.187 186.138 97.473 186.446 97.847C186.762 98.2137 187 98.6573 187.161 99.178C187.323 99.6987 187.403 100.274 187.403 100.905V108H185.434V100.905C185.434 100.062 185.24 99.409 184.851 98.947C184.47 98.4777 183.887 98.243 183.102 98.243C182.523 98.243 181.98 98.3823 181.474 98.661C180.976 98.9397 180.514 99.3173 180.088 99.794V108H178.119V91.797H180.088V98.342ZM196.426 102.984C195.524 103.013 194.754 103.087 194.116 103.204C193.485 103.314 192.968 103.461 192.565 103.644C192.169 103.827 191.879 104.044 191.696 104.293C191.52 104.542 191.432 104.821 191.432 105.129C191.432 105.422 191.48 105.675 191.575 105.888C191.67 106.101 191.799 106.277 191.96 106.416C192.129 106.548 192.323 106.647 192.543 106.713C192.77 106.772 193.012 106.801 193.269 106.801C193.614 106.801 193.929 106.768 194.215 106.702C194.501 106.629 194.769 106.526 195.018 106.394C195.275 106.262 195.517 106.104 195.744 105.921C195.979 105.738 196.206 105.529 196.426 105.294V102.984ZM190.101 98.43C190.717 97.836 191.381 97.3923 192.092 97.099C192.803 96.8057 193.592 96.659 194.457 96.659C195.08 96.659 195.634 96.7617 196.118 96.967C196.602 97.1723 197.009 97.4583 197.339 97.825C197.669 98.1917 197.918 98.6353 198.087 99.156C198.256 99.6767 198.34 100.249 198.34 100.872V108H197.471C197.28 108 197.134 107.971 197.031 107.912C196.928 107.846 196.848 107.721 196.789 107.538L196.569 106.482C196.276 106.753 195.99 106.995 195.711 107.208C195.432 107.413 195.139 107.589 194.831 107.736C194.523 107.875 194.193 107.982 193.841 108.055C193.496 108.136 193.111 108.176 192.686 108.176C192.253 108.176 191.846 108.117 191.465 108C191.084 107.875 190.75 107.692 190.464 107.45C190.185 107.208 189.962 106.904 189.793 106.537C189.632 106.163 189.551 105.723 189.551 105.217C189.551 104.777 189.672 104.355 189.914 103.952C190.156 103.541 190.548 103.178 191.091 102.863C191.634 102.548 192.341 102.291 193.214 102.093C194.087 101.888 195.157 101.77 196.426 101.741V100.872C196.426 100.007 196.239 99.354 195.865 98.914C195.491 98.4667 194.945 98.243 194.226 98.243C193.742 98.243 193.335 98.3053 193.005 98.43C192.682 98.5473 192.4 98.683 192.158 98.837C191.923 98.9837 191.718 99.1193 191.542 99.244C191.373 99.3613 191.205 99.42 191.036 99.42C190.904 99.42 190.79 99.387 190.695 99.321C190.6 99.2477 190.519 99.1597 190.453 99.057L190.101 98.43ZM203.39 96.857V108H201.432V96.857H203.39ZM203.808 93.359C203.808 93.5497 203.768 93.7293 203.687 93.898C203.614 94.0593 203.511 94.206 203.379 94.338C203.255 94.4627 203.104 94.5617 202.928 94.635C202.76 94.7083 202.58 94.745 202.389 94.745C202.199 94.745 202.019 94.7083 201.85 94.635C201.689 94.5617 201.546 94.4627 201.421 94.338C201.297 94.206 201.198 94.0593 201.124 93.898C201.051 93.7293 201.014 93.5497 201.014 93.359C201.014 93.1683 201.051 92.9887 201.124 92.82C201.198 92.644 201.297 92.4937 201.421 92.369C201.546 92.237 201.689 92.1343 201.85 92.061C202.019 91.9877 202.199 91.951 202.389 91.951C202.58 91.951 202.76 91.9877 202.928 92.061C203.104 92.1343 203.255 92.237 203.379 92.369C203.511 92.4937 203.614 92.644 203.687 92.82C203.768 92.9887 203.808 93.1683 203.808 93.359ZM208.456 98.474C208.698 98.2027 208.954 97.957 209.226 97.737C209.497 97.517 209.783 97.33 210.084 97.176C210.392 97.0147 210.714 96.8937 211.052 96.813C211.396 96.725 211.767 96.681 212.163 96.681C212.771 96.681 213.307 96.7837 213.769 96.989C214.238 97.187 214.627 97.473 214.935 97.847C215.25 98.2137 215.488 98.6573 215.65 99.178C215.811 99.6987 215.892 100.274 215.892 100.905V108H213.923V100.905C213.923 100.062 213.728 99.409 213.34 98.947C212.958 98.4777 212.375 98.243 211.591 98.243C211.011 98.243 210.469 98.3823 209.963 98.661C209.464 98.9397 209.002 99.3173 208.577 99.794V108H206.608V96.857H207.785C208.063 96.857 208.236 96.9927 208.302 97.264L208.456 98.474ZM233.909 106.207V108H224.966V92.237H227.089V106.207H233.909ZM239.707 96.681C240.521 96.681 241.254 96.8167 241.907 97.088C242.56 97.3593 243.117 97.7443 243.579 98.243C244.041 98.7417 244.393 99.3467 244.635 100.058C244.884 100.762 245.009 101.55 245.009 102.423C245.009 103.303 244.884 104.095 244.635 104.799C244.393 105.503 244.041 106.104 243.579 106.603C243.117 107.102 242.56 107.487 241.907 107.758C241.254 108.022 240.521 108.154 239.707 108.154C238.886 108.154 238.145 108.022 237.485 107.758C236.832 107.487 236.275 107.102 235.813 106.603C235.351 106.104 234.995 105.503 234.746 104.799C234.504 104.095 234.383 103.303 234.383 102.423C234.383 101.55 234.504 100.762 234.746 100.058C234.995 99.3467 235.351 98.7417 235.813 98.243C236.275 97.7443 236.832 97.3593 237.485 97.088C238.145 96.8167 238.886 96.681 239.707 96.681ZM239.707 106.625C240.807 106.625 241.628 106.258 242.171 105.525C242.714 104.784 242.985 103.754 242.985 102.434C242.985 101.107 242.714 100.073 242.171 99.332C241.628 98.5913 240.807 98.221 239.707 98.221C239.15 98.221 238.662 98.3163 238.244 98.507C237.833 98.6977 237.489 98.9727 237.21 99.332C236.939 99.6913 236.733 100.135 236.594 100.663C236.462 101.184 236.396 101.774 236.396 102.434C236.396 103.754 236.667 104.784 237.21 105.525C237.76 106.258 238.592 106.625 239.707 106.625ZM250.72 108.176C249.84 108.176 249.162 107.93 248.685 107.439C248.216 106.948 247.981 106.24 247.981 105.316V98.496H246.639C246.522 98.496 246.423 98.463 246.342 98.397C246.261 98.3237 246.221 98.2137 246.221 98.067V97.286L248.047 97.055L248.498 93.612C248.52 93.502 248.568 93.414 248.641 93.348C248.722 93.2747 248.824 93.238 248.949 93.238H249.939V97.077H255.186L255.637 93.612C255.659 93.502 255.707 93.414 255.78 93.348C255.861 93.2747 255.963 93.238 256.088 93.238H257.078V97.077H260.301V98.496H257.078V105.184C257.078 105.653 257.192 106.002 257.419 106.229C257.654 106.456 257.947 106.57 258.299 106.57C258.504 106.57 258.68 106.544 258.827 106.493C258.981 106.434 259.113 106.372 259.223 106.306C259.333 106.24 259.425 106.181 259.498 106.13C259.579 106.071 259.648 106.042 259.707 106.042C259.817 106.042 259.909 106.104 259.982 106.229L260.565 107.164C260.22 107.479 259.81 107.729 259.333 107.912C258.856 108.088 258.365 108.176 257.859 108.176C256.986 108.176 256.312 107.93 255.835 107.439C255.358 106.948 255.12 106.24 255.12 105.316V98.496H249.939V105.184C249.939 105.653 250.053 106.002 250.28 106.229C250.507 106.456 250.801 106.57 251.16 106.57C251.365 106.57 251.541 106.544 251.688 106.493C251.842 106.434 251.974 106.372 252.084 106.306C252.194 106.24 252.286 106.181 252.359 106.13C252.44 106.071 252.509 106.042 252.568 106.042C252.671 106.042 252.762 106.104 252.843 106.229L253.415 107.164C253.078 107.479 252.671 107.729 252.194 107.912C251.717 108.088 251.226 108.176 250.72 108.176ZM269.71 101.213C269.71 100.758 269.644 100.344 269.512 99.97C269.388 99.5887 269.201 99.2623 268.951 98.991C268.709 98.7123 268.412 98.4997 268.06 98.353C267.708 98.199 267.309 98.122 266.861 98.122C265.923 98.122 265.178 98.397 264.628 98.947C264.086 99.4897 263.748 100.245 263.616 101.213H269.71ZM271.294 106.438C271.052 106.731 270.763 106.988 270.425 107.208C270.088 107.421 269.725 107.597 269.336 107.736C268.955 107.875 268.559 107.978 268.148 108.044C267.738 108.117 267.331 108.154 266.927 108.154C266.157 108.154 265.446 108.026 264.793 107.769C264.148 107.505 263.587 107.124 263.11 106.625C262.641 106.119 262.274 105.496 262.01 104.755C261.746 104.014 261.614 103.164 261.614 102.203C261.614 101.426 261.732 100.7 261.966 100.025C262.208 99.3503 262.553 98.7673 263 98.276C263.448 97.7773 263.994 97.3887 264.639 97.11C265.285 96.824 266.011 96.681 266.817 96.681C267.485 96.681 268.101 96.7947 268.665 97.022C269.237 97.242 269.729 97.5647 270.139 97.99C270.557 98.408 270.884 98.9287 271.118 99.552C271.353 100.168 271.47 100.872 271.47 101.664C271.47 101.972 271.437 102.177 271.371 102.28C271.305 102.383 271.181 102.434 270.997 102.434H263.55C263.572 103.138 263.668 103.75 263.836 104.271C264.012 104.792 264.254 105.228 264.562 105.58C264.87 105.925 265.237 106.185 265.662 106.361C266.088 106.53 266.564 106.614 267.092 106.614C267.584 106.614 268.005 106.559 268.357 106.449C268.717 106.332 269.025 106.207 269.281 106.075C269.538 105.943 269.751 105.822 269.919 105.712C270.095 105.595 270.246 105.536 270.37 105.536C270.532 105.536 270.656 105.598 270.744 105.723L271.294 106.438ZM275.734 99.09C276.086 98.3273 276.519 97.7333 277.032 97.308C277.546 96.8753 278.173 96.659 278.913 96.659C279.148 96.659 279.372 96.6847 279.584 96.736C279.804 96.7873 279.999 96.868 280.167 96.978L280.024 98.441C279.98 98.6243 279.87 98.716 279.694 98.716C279.592 98.716 279.441 98.694 279.243 98.65C279.045 98.606 278.822 98.584 278.572 98.584C278.22 98.584 277.905 98.6353 277.626 98.738C277.355 98.8407 277.109 98.9947 276.889 99.2C276.677 99.398 276.482 99.6473 276.306 99.948C276.138 100.241 275.984 100.579 275.844 100.96V108H273.875V96.857H274.997C275.21 96.857 275.357 96.8973 275.437 96.978C275.518 97.0587 275.573 97.198 275.602 97.396L275.734 99.09ZM291.503 96.857L285.288 111.289C285.222 111.436 285.138 111.553 285.035 111.641C284.94 111.729 284.789 111.773 284.584 111.773H283.132L285.167 107.351L280.569 96.857H282.263C282.432 96.857 282.564 96.901 282.659 96.989C282.762 97.0697 282.831 97.1613 282.868 97.264L285.849 104.282C285.966 104.59 286.065 104.913 286.146 105.25C286.249 104.905 286.359 104.579 286.476 104.271L289.369 97.264C289.413 97.1467 289.486 97.0513 289.589 96.978C289.699 96.8973 289.82 96.857 289.952 96.857H291.503Z" fill="white"/>
</svg>
