<svg width="406" height="228" viewBox="0 0 406 228" fill="none" xmlns="http://www.w3.org/2000/svg">
<rect width="406" height="228" fill="black"/>
<path d="M63.5074 67.975V73.486H69.9864V75.224H63.5074V82H61.3734V66.237H71.0864V67.975H63.5074ZM75.3758 70.857V82H73.4178V70.857H75.3758ZM75.7938 67.359C75.7938 67.5497 75.7535 67.7293 75.6728 67.898C75.5995 68.0593 75.4968 68.206 75.3648 68.338C75.2402 68.4627 75.0898 68.5617 74.9138 68.635C74.7452 68.7083 74.5655 68.745 74.3748 68.745C74.1842 68.745 74.0045 68.7083 73.8358 68.635C73.6745 68.5617 73.5315 68.4627 73.4068 68.338C73.2822 68.206 73.1832 68.0593 73.1098 67.898C73.0365 67.7293 72.9998 67.5497 72.9998 67.359C72.9998 67.1683 73.0365 66.9887 73.1098 66.82C73.1832 66.644 73.2822 66.4937 73.4068 66.369C73.5315 66.237 73.6745 66.1343 73.8358 66.061C74.0045 65.9877 74.1842 65.951 74.3748 65.951C74.5655 65.951 74.7452 65.9877 74.9138 66.061C75.0898 66.1343 75.2402 66.237 75.3648 66.369C75.4968 66.4937 75.5995 66.644 75.6728 66.82C75.7535 66.9887 75.7938 67.1683 75.7938 67.359ZM80.441 72.474C80.683 72.2027 80.9397 71.957 81.211 71.737C81.4823 71.517 81.7683 71.33 82.069 71.176C82.377 71.0147 82.6997 70.8937 83.037 70.813C83.3817 70.725 83.752 70.681 84.148 70.681C84.7567 70.681 85.292 70.7837 85.754 70.989C86.2233 71.187 86.612 71.473 86.92 71.847C87.2353 72.2137 87.4737 72.6573 87.635 73.178C87.7963 73.6987 87.877 74.2743 87.877 74.905V82H85.908V74.905C85.908 74.0617 85.7137 73.409 85.325 72.947C84.9437 72.4777 84.3607 72.243 83.576 72.243C82.9967 72.243 82.454 72.3823 81.948 72.661C81.4493 72.9397 80.9873 73.3173 80.562 73.794V82H78.593V70.857H79.77C80.0487 70.857 80.221 70.9927 80.287 71.264L80.441 72.474ZM96.8996 76.984C95.9976 77.0133 95.2276 77.0867 94.5896 77.204C93.9589 77.314 93.4419 77.4607 93.0386 77.644C92.6426 77.8273 92.3529 78.0437 92.1696 78.293C91.9936 78.5423 91.9056 78.821 91.9056 79.129C91.9056 79.4223 91.9532 79.6753 92.0486 79.888C92.1439 80.1007 92.2722 80.2767 92.4336 80.416C92.6022 80.548 92.7966 80.647 93.0166 80.713C93.2439 80.7717 93.4859 80.801 93.7426 80.801C94.0872 80.801 94.4026 80.768 94.6886 80.702C94.9746 80.6287 95.2422 80.526 95.4916 80.394C95.7482 80.262 95.9902 80.1043 96.2176 79.921C96.4522 79.7377 96.6796 79.5287 96.8996 79.294V76.984ZM90.5746 72.43C91.1906 71.836 91.8542 71.3923 92.5656 71.099C93.2769 70.8057 94.0652 70.659 94.9306 70.659C95.5539 70.659 96.1076 70.7617 96.5916 70.967C97.0756 71.1723 97.4826 71.4583 97.8126 71.825C98.1426 72.1917 98.3919 72.6353 98.5606 73.156C98.7292 73.6767 98.8136 74.2487 98.8136 74.872V82H97.9446C97.7539 82 97.6072 81.9707 97.5046 81.912C97.4019 81.846 97.3212 81.7213 97.2626 81.538L97.0426 80.482C96.7492 80.7533 96.4632 80.9953 96.1846 81.208C95.9059 81.4133 95.6126 81.5893 95.3046 81.736C94.9966 81.8753 94.6666 81.9817 94.3146 82.055C93.9699 82.1357 93.5849 82.176 93.1596 82.176C92.7269 82.176 92.3199 82.1173 91.9386 82C91.5572 81.8753 91.2236 81.692 90.9376 81.45C90.6589 81.208 90.4352 80.9037 90.2666 80.537C90.1052 80.163 90.0246 79.723 90.0246 79.217C90.0246 78.777 90.1456 78.3553 90.3876 77.952C90.6296 77.5413 91.0219 77.1783 91.5646 76.863C92.1072 76.5477 92.8149 76.291 93.6876 76.093C94.5602 75.8877 95.6309 75.7703 96.8996 75.741V74.872C96.8996 74.0067 96.7126 73.354 96.3386 72.914C95.9646 72.4667 95.4182 72.243 94.6996 72.243C94.2156 72.243 93.8086 72.3053 93.4786 72.43C93.1559 72.5473 92.8736 72.683 92.6316 72.837C92.3969 72.9837 92.1916 73.1193 92.0156 73.244C91.8469 73.3613 91.6782 73.42 91.5096 73.42C91.3776 73.42 91.2639 73.387 91.1686 73.321C91.0732 73.2477 90.9926 73.1597 90.9266 73.057L90.5746 72.43ZM103.82 65.797V82H101.862V65.797H103.82ZM117.739 74.41C118.348 74.41 118.883 74.3293 119.345 74.168C119.815 74.0067 120.207 73.783 120.522 73.497C120.845 73.2037 121.087 72.8553 121.248 72.452C121.41 72.0487 121.49 71.605 121.49 71.121C121.49 70.1163 121.179 69.3317 120.555 68.767C119.939 68.2023 119.001 67.92 117.739 67.92H115.209V74.41H117.739ZM117.739 66.237C118.737 66.237 119.602 66.3543 120.335 66.589C121.076 66.8163 121.688 67.1427 122.172 67.568C122.656 67.9933 123.016 68.5067 123.25 69.108C123.492 69.7093 123.613 70.3803 123.613 71.121C123.613 71.8543 123.485 72.5253 123.228 73.134C122.972 73.7427 122.594 74.267 122.095 74.707C121.604 75.147 120.992 75.4917 120.258 75.741C119.532 75.983 118.693 76.104 117.739 76.104H115.209V82H113.086V66.237H117.739ZM127.481 73.09C127.833 72.3273 128.266 71.7333 128.779 71.308C129.293 70.8753 129.92 70.659 130.66 70.659C130.895 70.659 131.119 70.6847 131.331 70.736C131.551 70.7873 131.746 70.868 131.914 70.978L131.771 72.441C131.727 72.6243 131.617 72.716 131.441 72.716C131.339 72.716 131.188 72.694 130.99 72.65C130.792 72.606 130.569 72.584 130.319 72.584C129.967 72.584 129.652 72.6353 129.373 72.738C129.102 72.8407 128.856 72.9947 128.636 73.2C128.424 73.398 128.229 73.6473 128.053 73.948C127.885 74.2413 127.731 74.5787 127.591 74.96V82H125.622V70.857H126.744C126.957 70.857 127.104 70.8973 127.184 70.978C127.265 71.0587 127.32 71.198 127.349 71.396L127.481 73.09ZM140.643 75.213C140.643 74.7583 140.577 74.344 140.445 73.97C140.32 73.5887 140.133 73.2623 139.884 72.991C139.642 72.7123 139.345 72.4997 138.993 72.353C138.641 72.199 138.241 72.122 137.794 72.122C136.855 72.122 136.111 72.397 135.561 72.947C135.018 73.4897 134.681 74.245 134.549 75.213H140.643ZM142.227 80.438C141.985 80.7313 141.695 80.988 141.358 81.208C141.02 81.4207 140.657 81.5967 140.269 81.736C139.887 81.8753 139.491 81.978 139.081 82.044C138.67 82.1173 138.263 82.154 137.86 82.154C137.09 82.154 136.378 82.0257 135.726 81.769C135.08 81.505 134.519 81.1237 134.043 80.625C133.573 80.119 133.207 79.4957 132.943 78.755C132.679 78.0143 132.547 77.1637 132.547 76.203C132.547 75.4257 132.664 74.6997 132.899 74.025C133.141 73.3503 133.485 72.7673 133.933 72.276C134.38 71.7773 134.926 71.3887 135.572 71.11C136.217 70.824 136.943 70.681 137.75 70.681C138.417 70.681 139.033 70.7947 139.598 71.022C140.17 71.242 140.661 71.5647 141.072 71.99C141.49 72.408 141.816 72.9287 142.051 73.552C142.285 74.168 142.403 74.872 142.403 75.664C142.403 75.972 142.37 76.1773 142.304 76.28C142.238 76.3827 142.113 76.434 141.93 76.434H134.483C134.505 77.138 134.6 77.7503 134.769 78.271C134.945 78.7917 135.187 79.228 135.495 79.58C135.803 79.9247 136.169 80.185 136.595 80.361C137.02 80.5297 137.497 80.614 138.025 80.614C138.516 80.614 138.938 80.559 139.29 80.449C139.649 80.3317 139.957 80.207 140.214 80.075C140.47 79.943 140.683 79.822 140.852 79.712C141.028 79.5947 141.178 79.536 141.303 79.536C141.464 79.536 141.589 79.5983 141.677 79.723L142.227 80.438ZM151.298 72.694C151.21 72.8553 151.074 72.936 150.891 72.936C150.781 72.936 150.656 72.8957 150.517 72.815C150.378 72.7343 150.205 72.6463 150 72.551C149.802 72.4483 149.564 72.3567 149.285 72.276C149.006 72.188 148.676 72.144 148.295 72.144C147.965 72.144 147.668 72.188 147.404 72.276C147.14 72.3567 146.913 72.4703 146.722 72.617C146.539 72.7637 146.396 72.936 146.293 73.134C146.198 73.3247 146.15 73.5337 146.15 73.761C146.15 74.047 146.231 74.2853 146.392 74.476C146.561 74.6667 146.781 74.8317 147.052 74.971C147.323 75.1103 147.631 75.235 147.976 75.345C148.321 75.4477 148.673 75.5613 149.032 75.686C149.399 75.8033 149.754 75.9353 150.099 76.082C150.444 76.2287 150.752 76.412 151.023 76.632C151.294 76.852 151.511 77.1233 151.672 77.446C151.841 77.7613 151.925 78.1427 151.925 78.59C151.925 79.1033 151.833 79.58 151.65 80.02C151.467 80.4527 151.195 80.8303 150.836 81.153C150.477 81.4683 150.037 81.7177 149.516 81.901C148.995 82.0843 148.394 82.176 147.712 82.176C146.935 82.176 146.231 82.0513 145.6 81.802C144.969 81.5453 144.434 81.219 143.994 80.823L144.456 80.075C144.515 79.9797 144.584 79.9063 144.665 79.855C144.746 79.8037 144.848 79.778 144.973 79.778C145.105 79.778 145.244 79.8293 145.391 79.932C145.538 80.0347 145.714 80.1483 145.919 80.273C146.132 80.3977 146.388 80.5113 146.689 80.614C146.99 80.7167 147.364 80.768 147.811 80.768C148.192 80.768 148.526 80.7203 148.812 80.625C149.098 80.5223 149.336 80.3867 149.527 80.218C149.718 80.0493 149.857 79.855 149.945 79.635C150.04 79.415 150.088 79.1803 150.088 78.931C150.088 78.623 150.004 78.37 149.835 78.172C149.674 77.9667 149.457 77.7943 149.186 77.655C148.915 77.5083 148.603 77.3837 148.251 77.281C147.906 77.171 147.551 77.0573 147.184 76.94C146.825 76.8227 146.469 76.6907 146.117 76.544C145.772 76.39 145.464 76.1993 145.193 75.972C144.922 75.7447 144.702 75.466 144.533 75.136C144.372 74.7987 144.291 74.3917 144.291 73.915C144.291 73.4897 144.379 73.0827 144.555 72.694C144.731 72.298 144.988 71.9533 145.325 71.66C145.662 71.3593 146.077 71.121 146.568 70.945C147.059 70.769 147.62 70.681 148.251 70.681C148.984 70.681 149.641 70.7983 150.22 71.033C150.807 71.2603 151.313 71.5757 151.738 71.979L151.298 72.694ZM161.783 75.213C161.783 74.7583 161.717 74.344 161.585 73.97C161.461 73.5887 161.274 73.2623 161.024 72.991C160.782 72.7123 160.485 72.4997 160.133 72.353C159.781 72.199 159.382 72.122 158.934 72.122C157.996 72.122 157.251 72.397 156.701 72.947C156.159 73.4897 155.821 74.245 155.689 75.213H161.783ZM163.367 80.438C163.125 80.7313 162.836 80.988 162.498 81.208C162.161 81.4207 161.798 81.5967 161.409 81.736C161.028 81.8753 160.632 81.978 160.221 82.044C159.811 82.1173 159.404 82.154 159 82.154C158.23 82.154 157.519 82.0257 156.866 81.769C156.221 81.505 155.66 81.1237 155.183 80.625C154.714 80.119 154.347 79.4957 154.083 78.755C153.819 78.0143 153.687 77.1637 153.687 76.203C153.687 75.4257 153.805 74.6997 154.039 74.025C154.281 73.3503 154.626 72.7673 155.073 72.276C155.521 71.7773 156.067 71.3887 156.712 71.11C157.358 70.824 158.084 70.681 158.89 70.681C159.558 70.681 160.174 70.7947 160.738 71.022C161.31 71.242 161.802 71.5647 162.212 71.99C162.63 72.408 162.957 72.9287 163.191 73.552C163.426 74.168 163.543 74.872 163.543 75.664C163.543 75.972 163.51 76.1773 163.444 76.28C163.378 76.3827 163.254 76.434 163.07 76.434H155.623C155.645 77.138 155.741 77.7503 155.909 78.271C156.085 78.7917 156.327 79.228 156.635 79.58C156.943 79.9247 157.31 80.185 157.735 80.361C158.161 80.5297 158.637 80.614 159.165 80.614C159.657 80.614 160.078 80.559 160.43 80.449C160.79 80.3317 161.098 80.207 161.354 80.075C161.611 79.943 161.824 79.822 161.992 79.712C162.168 79.5947 162.319 79.536 162.443 79.536C162.605 79.536 162.729 79.5983 162.817 79.723L163.367 80.438ZM167.796 72.474C168.038 72.2027 168.295 71.957 168.566 71.737C168.838 71.517 169.124 71.33 169.424 71.176C169.732 71.0147 170.055 70.8937 170.392 70.813C170.737 70.725 171.107 70.681 171.503 70.681C172.112 70.681 172.647 70.7837 173.109 70.989C173.579 71.187 173.967 71.473 174.275 71.847C174.591 72.2137 174.829 72.6573 174.99 73.178C175.152 73.6987 175.232 74.2743 175.232 74.905V82H173.263V74.905C173.263 74.0617 173.069 73.409 172.68 72.947C172.299 72.4777 171.716 72.243 170.931 72.243C170.352 72.243 169.809 72.3823 169.303 72.661C168.805 72.9397 168.343 73.3173 167.917 73.794V82H165.948V70.857H167.125C167.404 70.857 167.576 70.9927 167.642 71.264L167.796 72.474ZM181.487 82.176C180.607 82.176 179.928 81.9303 179.452 81.439C178.982 80.9477 178.748 80.24 178.748 79.316V72.496H177.406C177.288 72.496 177.189 72.463 177.109 72.397C177.028 72.3237 176.988 72.2137 176.988 72.067V71.286L178.814 71.055L179.265 67.612C179.287 67.502 179.334 67.414 179.408 67.348C179.488 67.2747 179.591 67.238 179.716 67.238H180.706V71.077H183.929V72.496H180.706V79.184C180.706 79.6533 180.819 80.0017 181.047 80.229C181.274 80.4563 181.567 80.57 181.927 80.57C182.132 80.57 182.308 80.5443 182.455 80.493C182.609 80.4343 182.741 80.372 182.851 80.306C182.961 80.24 183.052 80.1813 183.126 80.13C183.206 80.0713 183.276 80.042 183.335 80.042C183.437 80.042 183.529 80.1043 183.61 80.229L184.182 81.164C183.844 81.4793 183.437 81.7287 182.961 81.912C182.484 82.088 181.993 82.176 181.487 82.176ZM191.989 76.984C191.087 77.0133 190.317 77.0867 189.679 77.204C189.049 77.314 188.532 77.4607 188.128 77.644C187.732 77.8273 187.443 78.0437 187.259 78.293C187.083 78.5423 186.995 78.821 186.995 79.129C186.995 79.4223 187.043 79.6753 187.138 79.888C187.234 80.1007 187.362 80.2767 187.523 80.416C187.692 80.548 187.886 80.647 188.106 80.713C188.334 80.7717 188.576 80.801 188.832 80.801C189.177 80.801 189.492 80.768 189.778 80.702C190.064 80.6287 190.332 80.526 190.581 80.394C190.838 80.262 191.08 80.1043 191.307 79.921C191.542 79.7377 191.769 79.5287 191.989 79.294V76.984ZM185.664 72.43C186.28 71.836 186.944 71.3923 187.655 71.099C188.367 70.8057 189.155 70.659 190.02 70.659C190.644 70.659 191.197 70.7617 191.681 70.967C192.165 71.1723 192.572 71.4583 192.902 71.825C193.232 72.1917 193.482 72.6353 193.65 73.156C193.819 73.6767 193.903 74.2487 193.903 74.872V82H193.034C192.844 82 192.697 81.9707 192.594 81.912C192.492 81.846 192.411 81.7213 192.352 81.538L192.132 80.482C191.839 80.7533 191.553 80.9953 191.274 81.208C190.996 81.4133 190.702 81.5893 190.394 81.736C190.086 81.8753 189.756 81.9817 189.404 82.055C189.06 82.1357 188.675 82.176 188.249 82.176C187.817 82.176 187.41 82.1173 187.028 82C186.647 81.8753 186.313 81.692 186.027 81.45C185.749 81.208 185.525 80.9037 185.356 80.537C185.195 80.163 185.114 79.723 185.114 79.217C185.114 78.777 185.235 78.3553 185.477 77.952C185.719 77.5413 186.112 77.1783 186.654 76.863C187.197 76.5477 187.905 76.291 188.777 76.093C189.65 75.8877 190.721 75.7703 191.989 75.741V74.872C191.989 74.0067 191.802 73.354 191.428 72.914C191.054 72.4667 190.508 72.243 189.789 72.243C189.305 72.243 188.898 72.3053 188.568 72.43C188.246 72.5473 187.963 72.683 187.721 72.837C187.487 72.9837 187.281 73.1193 187.105 73.244C186.937 73.3613 186.768 73.42 186.599 73.42C186.467 73.42 186.354 73.387 186.258 73.321C186.163 73.2477 186.082 73.1597 186.016 73.057L185.664 72.43ZM207.076 82H205.118V72.496H199.376V79.184C199.376 79.6533 199.489 80.0017 199.717 80.229C199.944 80.4563 200.237 80.57 200.597 80.57C200.802 80.57 200.978 80.5443 201.125 80.493C201.279 80.4343 201.411 80.372 201.521 80.306C201.631 80.24 201.722 80.1813 201.796 80.13C201.876 80.0713 201.946 80.042 202.005 80.042C202.107 80.042 202.199 80.1043 202.28 80.229L202.852 81.164C202.514 81.4793 202.107 81.7287 201.631 81.912C201.154 82.088 200.663 82.176 200.157 82.176C199.277 82.176 198.598 81.9303 198.122 81.439C197.652 80.9477 197.418 80.24 197.418 79.316V72.496H196.076C195.958 72.496 195.859 72.463 195.779 72.397C195.698 72.3237 195.658 72.2137 195.658 72.067V71.286L197.484 71.044L197.935 67.612C197.957 67.502 198.004 67.414 198.078 67.348C198.158 67.2747 198.261 67.238 198.386 67.238H199.376V71.077H207.076V82ZM207.56 67.282C207.56 67.4727 207.519 67.6523 207.439 67.821C207.365 67.9823 207.263 68.1253 207.131 68.25C207.006 68.3747 206.859 68.4737 206.691 68.547C206.522 68.6203 206.342 68.657 206.152 68.657C205.961 68.657 205.781 68.6203 205.613 68.547C205.451 68.4737 205.308 68.3747 205.184 68.25C205.059 68.1253 204.96 67.9823 204.887 67.821C204.813 67.6523 204.777 67.4727 204.777 67.282C204.777 67.0913 204.813 66.9117 204.887 66.743C204.96 66.567 205.059 66.4167 205.184 66.292C205.308 66.16 205.451 66.0573 205.613 65.984C205.781 65.9107 205.961 65.874 206.152 65.874C206.342 65.874 206.522 65.9107 206.691 65.984C206.859 66.0573 207.006 66.16 207.131 66.292C207.263 66.4167 207.365 66.567 207.439 66.743C207.519 66.9117 207.56 67.0913 207.56 67.282ZM214.989 70.681C215.803 70.681 216.537 70.8167 217.189 71.088C217.842 71.3593 218.399 71.7443 218.861 72.243C219.323 72.7417 219.675 73.3467 219.917 74.058C220.167 74.762 220.291 75.5503 220.291 76.423C220.291 77.303 220.167 78.095 219.917 78.799C219.675 79.503 219.323 80.1043 218.861 80.603C218.399 81.1017 217.842 81.4867 217.189 81.758C216.537 82.022 215.803 82.154 214.989 82.154C214.168 82.154 213.427 82.022 212.767 81.758C212.115 81.4867 211.557 81.1017 211.095 80.603C210.633 80.1043 210.278 79.503 210.028 78.799C209.786 78.095 209.665 77.303 209.665 76.423C209.665 75.5503 209.786 74.762 210.028 74.058C210.278 73.3467 210.633 72.7417 211.095 72.243C211.557 71.7443 212.115 71.3593 212.767 71.088C213.427 70.8167 214.168 70.681 214.989 70.681ZM214.989 80.625C216.089 80.625 216.911 80.2583 217.453 79.525C217.996 78.7843 218.267 77.754 218.267 76.434C218.267 75.1067 217.996 74.0727 217.453 73.332C216.911 72.5913 216.089 72.221 214.989 72.221C214.432 72.221 213.944 72.3163 213.526 72.507C213.116 72.6977 212.771 72.9727 212.492 73.332C212.221 73.6913 212.016 74.135 211.876 74.663C211.744 75.1837 211.678 75.774 211.678 76.434C211.678 77.754 211.95 78.7843 212.492 79.525C213.042 80.2583 213.875 80.625 214.989 80.625ZM224.623 72.474C224.865 72.2027 225.121 71.957 225.393 71.737C225.664 71.517 225.95 71.33 226.251 71.176C226.559 71.0147 226.881 70.8937 227.219 70.813C227.563 70.725 227.934 70.681 228.33 70.681C228.938 70.681 229.474 70.7837 229.936 70.989C230.405 71.187 230.794 71.473 231.102 71.847C231.417 72.2137 231.655 72.6573 231.817 73.178C231.978 73.6987 232.059 74.2743 232.059 74.905V82H230.09V74.905C230.09 74.0617 229.895 73.409 229.507 72.947C229.125 72.4777 228.542 72.243 227.758 72.243C227.178 72.243 226.636 72.3823 226.13 72.661C225.631 72.9397 225.169 73.3173 224.744 73.794V82H222.775V70.857H223.952C224.23 70.857 224.403 70.9927 224.469 71.264L224.623 72.474ZM240.495 74.575H245.929V76.236H240.495V74.575ZM267.73 74.421V80.471C266.938 81.043 266.091 81.472 265.189 81.758C264.294 82.0367 263.312 82.176 262.241 82.176C260.972 82.176 259.828 81.9817 258.809 81.593C257.79 81.197 256.917 80.647 256.191 79.943C255.472 79.2317 254.919 78.381 254.53 77.391C254.141 76.401 253.947 75.312 253.947 74.124C253.947 72.9213 254.134 71.825 254.508 70.835C254.889 69.845 255.428 68.998 256.125 68.294C256.822 67.5827 257.669 67.0327 258.666 66.644C259.663 66.2553 260.778 66.061 262.01 66.061C262.633 66.061 263.213 66.1087 263.748 66.204C264.283 66.292 264.778 66.424 265.233 66.6C265.688 66.7687 266.109 66.9777 266.498 67.227C266.887 67.469 267.25 67.744 267.587 68.052L266.982 69.02C266.887 69.1667 266.762 69.262 266.608 69.306C266.461 69.3427 266.296 69.306 266.113 69.196C265.937 69.0933 265.735 68.9687 265.508 68.822C265.281 68.6753 265.002 68.536 264.672 68.404C264.349 68.2647 263.964 68.1473 263.517 68.052C263.077 67.9567 262.553 67.909 261.944 67.909C261.057 67.909 260.254 68.0557 259.535 68.349C258.816 68.635 258.204 69.0493 257.698 69.592C257.192 70.1273 256.803 70.78 256.532 71.55C256.261 72.3127 256.125 73.1707 256.125 74.124C256.125 75.114 256.264 76.0013 256.543 76.786C256.829 77.5633 257.232 78.227 257.753 78.777C258.281 79.3197 258.919 79.734 259.667 80.02C260.415 80.306 261.255 80.449 262.186 80.449C262.919 80.449 263.568 80.3683 264.133 80.207C264.705 80.0383 265.262 79.8073 265.805 79.514V76.049H263.352C263.213 76.049 263.099 76.0087 263.011 75.928C262.93 75.8473 262.89 75.7483 262.89 75.631V74.421H267.73ZM272.222 73.09C272.574 72.3273 273.006 71.7333 273.52 71.308C274.033 70.8753 274.66 70.659 275.401 70.659C275.635 70.659 275.859 70.6847 276.072 70.736C276.292 70.7873 276.486 70.868 276.655 70.978L276.512 72.441C276.468 72.6243 276.358 72.716 276.182 72.716C276.079 72.716 275.929 72.694 275.731 72.65C275.533 72.606 275.309 72.584 275.06 72.584C274.708 72.584 274.392 72.6353 274.114 72.738C273.842 72.8407 273.597 72.9947 273.377 73.2C273.164 73.398 272.97 73.6473 272.794 73.948C272.625 74.2413 272.471 74.5787 272.332 74.96V82H270.363V70.857H271.485C271.697 70.857 271.844 70.8973 271.925 70.978C272.005 71.0587 272.06 71.198 272.09 71.396L272.222 73.09ZM282.622 70.681C283.436 70.681 284.169 70.8167 284.822 71.088C285.475 71.3593 286.032 71.7443 286.494 72.243C286.956 72.7417 287.308 73.3467 287.55 74.058C287.799 74.762 287.924 75.5503 287.924 76.423C287.924 77.303 287.799 78.095 287.55 78.799C287.308 79.503 286.956 80.1043 286.494 80.603C286.032 81.1017 285.475 81.4867 284.822 81.758C284.169 82.022 283.436 82.154 282.622 82.154C281.801 82.154 281.06 82.022 280.4 81.758C279.747 81.4867 279.19 81.1017 278.728 80.603C278.266 80.1043 277.91 79.503 277.661 78.799C277.419 78.095 277.298 77.303 277.298 76.423C277.298 75.5503 277.419 74.762 277.661 74.058C277.91 73.3467 278.266 72.7417 278.728 72.243C279.19 71.7443 279.747 71.3593 280.4 71.088C281.06 70.8167 281.801 70.681 282.622 70.681ZM282.622 80.625C283.722 80.625 284.543 80.2583 285.086 79.525C285.629 78.7843 285.9 77.754 285.9 76.434C285.9 75.1067 285.629 74.0727 285.086 73.332C284.543 72.5913 283.722 72.221 282.622 72.221C282.065 72.221 281.577 72.3163 281.159 72.507C280.748 72.6977 280.404 72.9727 280.125 73.332C279.854 73.6913 279.648 74.135 279.509 74.663C279.377 75.1837 279.311 75.774 279.311 76.434C279.311 77.754 279.582 78.7843 280.125 79.525C280.675 80.2583 281.507 80.625 282.622 80.625ZM299.57 70.857V82H298.404C298.126 82 297.95 81.8643 297.876 81.593L297.722 80.394C297.238 80.9293 296.696 81.362 296.094 81.692C295.493 82.0147 294.804 82.176 294.026 82.176C293.418 82.176 292.879 82.077 292.409 81.879C291.947 81.6737 291.559 81.3877 291.243 81.021C290.928 80.6543 290.69 80.2107 290.528 79.69C290.374 79.1693 290.297 78.5937 290.297 77.963V70.857H292.255V77.963C292.255 78.8063 292.446 79.459 292.827 79.921C293.216 80.383 293.806 80.614 294.598 80.614C295.178 80.614 295.717 80.4783 296.215 80.207C296.721 79.9283 297.187 79.547 297.612 79.063V70.857H299.57ZM304.644 79.316C305.003 79.8 305.396 80.141 305.821 80.339C306.246 80.537 306.723 80.636 307.251 80.636C308.292 80.636 309.092 80.2657 309.649 79.525C310.206 78.7843 310.485 77.7283 310.485 76.357C310.485 75.631 310.419 75.0077 310.287 74.487C310.162 73.9663 309.979 73.541 309.737 73.211C309.495 72.8737 309.198 72.628 308.846 72.474C308.494 72.32 308.094 72.243 307.647 72.243C307.009 72.243 306.448 72.3897 305.964 72.683C305.487 72.9763 305.047 73.3907 304.644 73.926V79.316ZM304.545 72.584C305.014 72.0047 305.557 71.539 306.173 71.187C306.789 70.835 307.493 70.659 308.285 70.659C308.93 70.659 309.513 70.7837 310.034 71.033C310.555 71.275 310.998 71.638 311.365 72.122C311.732 72.5987 312.014 73.1927 312.212 73.904C312.41 74.6153 312.509 75.433 312.509 76.357C312.509 77.1783 312.399 77.9447 312.179 78.656C311.959 79.36 311.64 79.9723 311.222 80.493C310.811 81.0063 310.305 81.4133 309.704 81.714C309.11 82.0073 308.439 82.154 307.691 82.154C307.009 82.154 306.422 82.0403 305.931 81.813C305.447 81.5783 305.018 81.2557 304.644 80.845V85.773H302.675V70.857H303.852C304.131 70.857 304.303 70.9927 304.369 71.264L304.545 72.584ZM325.443 80.548C325.971 80.548 326.448 80.4637 326.873 80.295C327.306 80.1263 327.672 79.8917 327.973 79.591C328.281 79.2903 328.516 78.9347 328.677 78.524C328.846 78.1133 328.93 77.666 328.93 77.182C328.93 76.6687 328.849 76.2067 328.688 75.796C328.527 75.378 328.296 75.026 327.995 74.74C327.702 74.4467 327.35 74.223 326.939 74.069C326.528 73.915 326.077 73.838 325.586 73.838C325.058 73.838 324.581 73.9297 324.156 74.113C323.731 74.289 323.368 74.531 323.067 74.839C322.774 75.1397 322.546 75.4917 322.385 75.895C322.231 76.291 322.154 76.7053 322.154 77.138C322.154 77.644 322.227 78.106 322.374 78.524C322.521 78.942 322.733 79.3013 323.012 79.602C323.298 79.9027 323.643 80.1373 324.046 80.306C324.457 80.4673 324.922 80.548 325.443 80.548ZM324.299 72.144C324.16 72.32 324.024 72.4923 323.892 72.661C323.767 72.8223 323.646 72.9837 323.529 73.145C323.903 72.8883 324.314 72.6903 324.761 72.551C325.208 72.4117 325.696 72.342 326.224 72.342C326.862 72.342 327.463 72.4483 328.028 72.661C328.593 72.8663 329.084 73.1707 329.502 73.574C329.927 73.97 330.265 74.4613 330.514 75.048C330.763 75.6273 330.888 76.291 330.888 77.039C330.888 77.765 330.756 78.4397 330.492 79.063C330.228 79.6863 329.858 80.229 329.381 80.691C328.912 81.153 328.343 81.516 327.676 81.78C327.016 82.044 326.286 82.176 325.487 82.176C324.695 82.176 323.976 82.0513 323.331 81.802C322.686 81.5453 322.136 81.186 321.681 80.724C321.234 80.2547 320.885 79.69 320.636 79.03C320.394 78.3627 320.273 77.6183 320.273 76.797C320.273 76.1077 320.423 75.3743 320.724 74.597C321.032 73.8123 321.52 72.9763 322.187 72.089L326.191 66.71C326.294 66.578 326.433 66.468 326.609 66.38C326.792 66.2847 327.001 66.237 327.236 66.237H328.974L324.299 72.144ZM338.851 74.575H344.285V76.236H338.851V74.575ZM51.8801 102.148L49.4051 95.735C49.3318 95.5443 49.2548 95.3243 49.1741 95.075C49.0934 94.8183 49.0164 94.547 48.9431 94.261C48.7891 94.855 48.6314 95.35 48.4701 95.746L45.9951 102.148H51.8801ZM56.3241 108H54.6741C54.4834 108 54.3294 107.952 54.2121 107.857C54.0948 107.762 54.0068 107.641 53.9481 107.494L52.4741 103.688H45.4011L43.9271 107.494C43.8831 107.626 43.7988 107.743 43.6741 107.846C43.5494 107.949 43.3954 108 43.2121 108H41.5621L47.8651 92.237H50.0211L56.3241 108ZM65.39 98.837C65.3313 98.9177 65.2727 98.98 65.214 99.024C65.1553 99.068 65.0747 99.09 64.972 99.09C64.862 99.09 64.741 99.046 64.609 98.958C64.477 98.8627 64.312 98.76 64.114 98.65C63.9233 98.54 63.685 98.441 63.399 98.353C63.1203 98.2577 62.7757 98.21 62.365 98.21C61.815 98.21 61.331 98.309 60.913 98.507C60.495 98.6977 60.143 98.9763 59.857 99.343C59.5783 99.7097 59.3657 100.153 59.219 100.674C59.0797 101.195 59.01 101.778 59.01 102.423C59.01 103.098 59.087 103.699 59.241 104.227C59.395 104.748 59.6113 105.188 59.89 105.547C60.176 105.899 60.517 106.17 60.913 106.361C61.3163 106.544 61.7673 106.636 62.266 106.636C62.7427 106.636 63.135 106.581 63.443 106.471C63.751 106.354 64.004 106.225 64.202 106.086C64.4073 105.947 64.576 105.822 64.708 105.712C64.8473 105.595 64.983 105.536 65.115 105.536C65.2763 105.536 65.401 105.598 65.489 105.723L66.039 106.438C65.797 106.739 65.522 106.995 65.214 107.208C64.906 107.421 64.5723 107.6 64.213 107.747C63.861 107.886 63.4907 107.989 63.102 108.055C62.7133 108.121 62.3173 108.154 61.914 108.154C61.2173 108.154 60.5683 108.026 59.967 107.769C59.373 107.512 58.856 107.142 58.416 106.658C57.976 106.167 57.6313 105.565 57.382 104.854C57.1327 104.143 57.008 103.332 57.008 102.423C57.008 101.594 57.1217 100.828 57.349 100.124C57.5837 99.42 57.921 98.815 58.361 98.309C58.8083 97.7957 59.3547 97.396 60 97.11C60.6527 96.824 61.4007 96.681 62.244 96.681C63.0287 96.681 63.718 96.8093 64.312 97.066C64.9133 97.3153 65.445 97.671 65.907 98.133L65.39 98.837ZM78.4808 108H76.5228V98.496H70.7808V105.184C70.7808 105.653 70.8945 106.002 71.1218 106.229C71.3492 106.456 71.6425 106.57 72.0018 106.57C72.2072 106.57 72.3832 106.544 72.5298 106.493C72.6838 106.434 72.8158 106.372 72.9258 106.306C73.0358 106.24 73.1275 106.181 73.2008 106.13C73.2815 106.071 73.3512 106.042 73.4098 106.042C73.5125 106.042 73.6042 106.104 73.6848 106.229L74.2568 107.164C73.9195 107.479 73.5125 107.729 73.0358 107.912C72.5592 108.088 72.0678 108.176 71.5618 108.176C70.6818 108.176 70.0035 107.93 69.5268 107.439C69.0575 106.948 68.8228 106.24 68.8228 105.316V98.496H67.4808C67.3635 98.496 67.2645 98.463 67.1838 98.397C67.1032 98.3237 67.0628 98.2137 67.0628 98.067V97.286L68.8888 97.044L69.3398 93.612C69.3618 93.502 69.4095 93.414 69.4828 93.348C69.5635 93.2747 69.6662 93.238 69.7908 93.238H70.7808V97.077H78.4808V108ZM78.9648 93.282C78.9648 93.4727 78.9245 93.6523 78.8438 93.821C78.7705 93.9823 78.6678 94.1253 78.5358 94.25C78.4112 94.3747 78.2645 94.4737 78.0958 94.547C77.9272 94.6203 77.7475 94.657 77.5568 94.657C77.3662 94.657 77.1865 94.6203 77.0178 94.547C76.8565 94.4737 76.7135 94.3747 76.5888 94.25C76.4642 94.1253 76.3652 93.9823 76.2918 93.821C76.2185 93.6523 76.1818 93.4727 76.1818 93.282C76.1818 93.0913 76.2185 92.9117 76.2918 92.743C76.3652 92.567 76.4642 92.4167 76.5888 92.292C76.7135 92.16 76.8565 92.0573 77.0178 91.984C77.1865 91.9107 77.3662 91.874 77.5568 91.874C77.7475 91.874 77.9272 91.9107 78.0958 91.984C78.2645 92.0573 78.4112 92.16 78.5358 92.292C78.6678 92.4167 78.7705 92.567 78.8438 92.743C78.9245 92.9117 78.9648 93.0913 78.9648 93.282ZM91.2455 96.857L86.7025 108H84.9425L80.3995 96.857H81.9945C82.1558 96.857 82.2878 96.8973 82.3905 96.978C82.4932 97.0587 82.5628 97.154 82.5995 97.264L85.4265 104.436C85.5145 104.707 85.5915 104.971 85.6575 105.228C85.7235 105.485 85.7858 105.741 85.8445 105.998C85.9032 105.741 85.9655 105.485 86.0315 105.228C86.0975 104.971 86.1782 104.707 86.2735 104.436L89.1335 97.264C89.1775 97.1467 89.2508 97.0513 89.3535 96.978C89.4562 96.8973 89.5772 96.857 89.7165 96.857H91.2455ZM100.198 101.213C100.198 100.758 100.132 100.344 100 99.97C99.8758 99.5887 99.6888 99.2623 99.4395 98.991C99.1975 98.7123 98.9005 98.4997 98.5485 98.353C98.1965 98.199 97.7968 98.122 97.3495 98.122C96.4108 98.122 95.6665 98.397 95.1165 98.947C94.5738 99.4897 94.2365 100.245 94.1045 101.213H100.198ZM101.782 106.438C101.54 106.731 101.251 106.988 100.913 107.208C100.576 107.421 100.213 107.597 99.8245 107.736C99.4431 107.875 99.0471 107.978 98.6365 108.044C98.2258 108.117 97.8188 108.154 97.4155 108.154C96.6455 108.154 95.9341 108.026 95.2815 107.769C94.6361 107.505 94.0751 107.124 93.5985 106.625C93.1291 106.119 92.7625 105.496 92.4985 104.755C92.2345 104.014 92.1025 103.164 92.1025 102.203C92.1025 101.426 92.2198 100.7 92.4545 100.025C92.6965 99.3503 93.0411 98.7673 93.4885 98.276C93.9358 97.7773 94.4821 97.3887 95.1275 97.11C95.7728 96.824 96.4988 96.681 97.3055 96.681C97.9728 96.681 98.5888 96.7947 99.1535 97.022C99.7255 97.242 100.217 97.5647 100.627 97.99C101.045 98.408 101.372 98.9287 101.606 99.552C101.841 100.168 101.958 100.872 101.958 101.664C101.958 101.972 101.925 102.177 101.859 102.28C101.793 102.383 101.669 102.434 101.485 102.434H94.0385C94.0605 103.138 94.1558 103.75 94.3245 104.271C94.5005 104.792 94.7425 105.228 95.0505 105.58C95.3585 105.925 95.7251 106.185 96.1505 106.361C96.5758 106.53 97.0525 106.614 97.5805 106.614C98.0718 106.614 98.4935 106.559 98.8455 106.449C99.2048 106.332 99.5128 106.207 99.7695 106.075C100.026 105.943 100.239 105.822 100.407 105.712C100.583 105.595 100.734 105.536 100.858 105.536C101.02 105.536 101.144 105.598 101.232 105.723L101.782 106.438ZM106.388 91.797V108H104.429V91.797H106.388ZM119.177 96.857L112.962 111.289C112.896 111.436 112.811 111.553 112.709 111.641C112.613 111.729 112.463 111.773 112.258 111.773H110.806L112.841 107.351L108.243 96.857H109.937C110.105 96.857 110.237 96.901 110.333 96.989C110.435 97.0697 110.505 97.1613 110.542 97.264L113.523 104.282C113.64 104.59 113.739 104.913 113.82 105.25C113.922 104.905 114.032 104.579 114.15 104.271L117.043 97.264C117.087 97.1467 117.16 97.0513 117.263 96.978C117.373 96.8973 117.494 96.857 117.626 96.857H119.177ZM134.101 102.148L131.626 95.735C131.552 95.5443 131.475 95.3243 131.395 95.075C131.314 94.8183 131.237 94.547 131.164 94.261C131.01 94.855 130.852 95.35 130.691 95.746L128.216 102.148H134.101ZM138.545 108H136.895C136.704 108 136.55 107.952 136.433 107.857C136.315 107.762 136.227 107.641 136.169 107.494L134.695 103.688H127.622L126.148 107.494C126.104 107.626 126.019 107.743 125.895 107.846C125.77 107.949 125.616 108 125.433 108H123.783L130.086 92.237H132.242L138.545 108ZM147.18 99.508C146.813 99.0167 146.417 98.6757 145.992 98.485C145.567 98.287 145.09 98.188 144.562 98.188C143.528 98.188 142.732 98.5583 142.175 99.299C141.618 100.04 141.339 101.096 141.339 102.467C141.339 103.193 141.401 103.816 141.526 104.337C141.651 104.85 141.834 105.276 142.076 105.613C142.318 105.943 142.615 106.185 142.967 106.339C143.319 106.493 143.719 106.57 144.166 106.57C144.811 106.57 145.372 106.423 145.849 106.13C146.333 105.837 146.777 105.422 147.18 104.887V99.508ZM149.138 91.797V108H147.972C147.693 108 147.517 107.864 147.444 107.593L147.268 106.24C146.791 106.812 146.249 107.274 145.64 107.626C145.031 107.978 144.327 108.154 143.528 108.154C142.89 108.154 142.311 108.033 141.79 107.791C141.269 107.542 140.826 107.179 140.459 106.702C140.092 106.225 139.81 105.631 139.612 104.92C139.414 104.209 139.315 103.391 139.315 102.467C139.315 101.646 139.425 100.883 139.645 100.179C139.865 99.4677 140.18 98.8517 140.591 98.331C141.002 97.8103 141.504 97.4033 142.098 97.11C142.699 96.8093 143.374 96.659 144.122 96.659C144.804 96.659 145.387 96.7763 145.871 97.011C146.362 97.2383 146.799 97.5573 147.18 97.968V91.797H149.138ZM154.299 96.857V108.825C154.299 109.272 154.24 109.687 154.123 110.068C154.005 110.457 153.818 110.794 153.562 111.08C153.305 111.366 152.975 111.59 152.572 111.751C152.176 111.92 151.699 112.004 151.142 112.004C150.907 112.004 150.691 111.986 150.493 111.949C150.295 111.912 150.097 111.857 149.899 111.784L149.976 110.728C149.99 110.662 150.016 110.611 150.053 110.574C150.082 110.545 150.126 110.526 150.185 110.519C150.243 110.512 150.32 110.508 150.416 110.508C150.504 110.515 150.617 110.519 150.757 110.519C151.329 110.519 151.736 110.383 151.978 110.112C152.22 109.848 152.341 109.419 152.341 108.825V96.857H154.299ZM154.706 93.359C154.706 93.5497 154.665 93.7293 154.585 93.898C154.511 94.0593 154.409 94.206 154.277 94.338C154.152 94.4627 154.005 94.5617 153.837 94.635C153.668 94.7083 153.488 94.745 153.298 94.745C153.107 94.745 152.927 94.7083 152.759 94.635C152.597 94.5617 152.454 94.4627 152.33 94.338C152.205 94.206 152.106 94.0593 152.033 93.898C151.959 93.7293 151.923 93.5497 151.923 93.359C151.923 93.1683 151.959 92.9887 152.033 92.82C152.106 92.644 152.205 92.4937 152.33 92.369C152.454 92.237 152.597 92.1343 152.759 92.061C152.927 91.9877 153.107 91.951 153.298 91.951C153.488 91.951 153.668 91.9877 153.837 92.061C154.005 92.1343 154.152 92.237 154.277 92.369C154.409 92.4937 154.511 92.644 154.585 92.82C154.665 92.9887 154.706 93.1683 154.706 93.359ZM166.679 96.857V108H165.513C165.234 108 165.058 107.864 164.985 107.593L164.831 106.394C164.347 106.929 163.804 107.362 163.203 107.692C162.602 108.015 161.912 108.176 161.135 108.176C160.526 108.176 159.987 108.077 159.518 107.879C159.056 107.674 158.667 107.388 158.352 107.021C158.037 106.654 157.798 106.211 157.637 105.69C157.483 105.169 157.406 104.594 157.406 103.963V96.857H159.364V103.963C159.364 104.806 159.555 105.459 159.936 105.921C160.325 106.383 160.915 106.614 161.707 106.614C162.286 106.614 162.825 106.478 163.324 106.207C163.83 105.928 164.296 105.547 164.721 105.063V96.857H166.679ZM176.273 98.694C176.185 98.8553 176.05 98.936 175.866 98.936C175.756 98.936 175.632 98.8957 175.492 98.815C175.353 98.7343 175.181 98.6463 174.975 98.551C174.777 98.4483 174.539 98.3567 174.26 98.276C173.982 98.188 173.652 98.144 173.27 98.144C172.94 98.144 172.643 98.188 172.379 98.276C172.115 98.3567 171.888 98.4703 171.697 98.617C171.514 98.7637 171.371 98.936 171.268 99.134C171.173 99.3247 171.125 99.5337 171.125 99.761C171.125 100.047 171.206 100.285 171.367 100.476C171.536 100.667 171.756 100.832 172.027 100.971C172.299 101.11 172.607 101.235 172.951 101.345C173.296 101.448 173.648 101.561 174.007 101.686C174.374 101.803 174.73 101.935 175.074 102.082C175.419 102.229 175.727 102.412 175.998 102.632C176.27 102.852 176.486 103.123 176.647 103.446C176.816 103.761 176.9 104.143 176.9 104.59C176.9 105.103 176.809 105.58 176.625 106.02C176.442 106.453 176.171 106.83 175.811 107.153C175.452 107.468 175.012 107.718 174.491 107.901C173.971 108.084 173.369 108.176 172.687 108.176C171.91 108.176 171.206 108.051 170.575 107.802C169.945 107.545 169.409 107.219 168.969 106.823L169.431 106.075C169.49 105.98 169.56 105.906 169.64 105.855C169.721 105.804 169.824 105.778 169.948 105.778C170.08 105.778 170.22 105.829 170.366 105.932C170.513 106.035 170.689 106.148 170.894 106.273C171.107 106.398 171.364 106.511 171.664 106.614C171.965 106.717 172.339 106.768 172.786 106.768C173.168 106.768 173.501 106.72 173.787 106.625C174.073 106.522 174.312 106.387 174.502 106.218C174.693 106.049 174.832 105.855 174.92 105.635C175.016 105.415 175.063 105.18 175.063 104.931C175.063 104.623 174.979 104.37 174.81 104.172C174.649 103.967 174.433 103.794 174.161 103.655C173.89 103.508 173.578 103.384 173.226 103.281C172.882 103.171 172.526 103.057 172.159 102.94C171.8 102.823 171.444 102.691 171.092 102.544C170.748 102.39 170.44 102.199 170.168 101.972C169.897 101.745 169.677 101.466 169.508 101.136C169.347 100.799 169.266 100.392 169.266 99.915C169.266 99.4897 169.354 99.0827 169.53 98.694C169.706 98.298 169.963 97.9533 170.3 97.66C170.638 97.3593 171.052 97.121 171.543 96.945C172.035 96.769 172.596 96.681 173.226 96.681C173.96 96.681 174.616 96.7983 175.195 97.033C175.782 97.2603 176.288 97.5757 176.713 97.979L176.273 98.694ZM182.722 108.176C181.842 108.176 181.164 107.93 180.687 107.439C180.218 106.948 179.983 106.24 179.983 105.316V98.496H178.641C178.524 98.496 178.425 98.463 178.344 98.397C178.263 98.3237 178.223 98.2137 178.223 98.067V97.286L180.049 97.055L180.5 93.612C180.522 93.502 180.57 93.414 180.643 93.348C180.724 93.2747 180.826 93.238 180.951 93.238H181.941V97.077H185.164V98.496H181.941V105.184C181.941 105.653 182.055 106.002 182.282 106.229C182.509 106.456 182.803 106.57 183.162 106.57C183.367 106.57 183.543 106.544 183.69 106.493C183.844 106.434 183.976 106.372 184.086 106.306C184.196 106.24 184.288 106.181 184.361 106.13C184.442 106.071 184.511 106.042 184.57 106.042C184.673 106.042 184.764 106.104 184.845 106.229L185.417 107.164C185.08 107.479 184.673 107.729 184.196 107.912C183.719 108.088 183.228 108.176 182.722 108.176ZM209.678 92.237V108H207.808V96.417C207.808 96.263 207.811 96.098 207.819 95.922C207.833 95.746 207.848 95.5663 207.863 95.383L202.451 105.239C202.282 105.569 202.025 105.734 201.681 105.734H201.373C201.028 105.734 200.771 105.569 200.603 105.239L195.081 95.339C195.125 95.7277 195.147 96.087 195.147 96.417V108H193.277V92.237H194.85C195.04 92.237 195.187 92.2553 195.29 92.292C195.392 92.3287 195.491 92.4313 195.587 92.6L201.032 102.302C201.12 102.478 201.204 102.661 201.285 102.852C201.373 103.043 201.453 103.237 201.527 103.435C201.6 103.237 201.677 103.043 201.758 102.852C201.838 102.654 201.926 102.467 202.022 102.291L207.368 92.6C207.456 92.4313 207.551 92.3287 207.654 92.292C207.764 92.2553 207.914 92.237 208.105 92.237H209.678ZM218.963 102.984C218.061 103.013 217.291 103.087 216.653 103.204C216.022 103.314 215.505 103.461 215.102 103.644C214.706 103.827 214.416 104.044 214.233 104.293C214.057 104.542 213.969 104.821 213.969 105.129C213.969 105.422 214.017 105.675 214.112 105.888C214.207 106.101 214.336 106.277 214.497 106.416C214.666 106.548 214.86 106.647 215.08 106.713C215.307 106.772 215.549 106.801 215.806 106.801C216.151 106.801 216.466 106.768 216.752 106.702C217.038 106.629 217.306 106.526 217.555 106.394C217.812 106.262 218.054 106.104 218.281 105.921C218.516 105.738 218.743 105.529 218.963 105.294V102.984ZM212.638 98.43C213.254 97.836 213.918 97.3923 214.629 97.099C215.34 96.8057 216.129 96.659 216.994 96.659C217.617 96.659 218.171 96.7617 218.655 96.967C219.139 97.1723 219.546 97.4583 219.876 97.825C220.206 98.1917 220.455 98.6353 220.624 99.156C220.793 99.6767 220.877 100.249 220.877 100.872V108H220.008C219.817 108 219.671 107.971 219.568 107.912C219.465 107.846 219.385 107.721 219.326 107.538L219.106 106.482C218.813 106.753 218.527 106.995 218.248 107.208C217.969 107.413 217.676 107.589 217.368 107.736C217.06 107.875 216.73 107.982 216.378 108.055C216.033 108.136 215.648 108.176 215.223 108.176C214.79 108.176 214.383 108.117 214.002 108C213.621 107.875 213.287 107.692 213.001 107.45C212.722 107.208 212.499 106.904 212.33 106.537C212.169 106.163 212.088 105.723 212.088 105.217C212.088 104.777 212.209 104.355 212.451 103.952C212.693 103.541 213.085 103.178 213.628 102.863C214.171 102.548 214.878 102.291 215.751 102.093C216.624 101.888 217.694 101.77 218.963 101.741V100.872C218.963 100.007 218.776 99.354 218.402 98.914C218.028 98.4667 217.482 98.243 216.763 98.243C216.279 98.243 215.872 98.3053 215.542 98.43C215.219 98.5473 214.937 98.683 214.695 98.837C214.46 98.9837 214.255 99.1193 214.079 99.244C213.91 99.3613 213.742 99.42 213.573 99.42C213.441 99.42 213.327 99.387 213.232 99.321C213.137 99.2477 213.056 99.1597 212.99 99.057L212.638 98.43ZM225.719 99.09C226.071 98.3273 226.503 97.7333 227.017 97.308C227.53 96.8753 228.157 96.659 228.898 96.659C229.132 96.659 229.356 96.6847 229.569 96.736C229.789 96.7873 229.983 96.868 230.152 96.978L230.009 98.441C229.965 98.6243 229.855 98.716 229.679 98.716C229.576 98.716 229.426 98.694 229.228 98.65C229.03 98.606 228.806 98.584 228.557 98.584C228.205 98.584 227.889 98.6353 227.611 98.738C227.339 98.8407 227.094 98.9947 226.874 99.2C226.661 99.398 226.467 99.6473 226.291 99.948C226.122 100.241 225.968 100.579 225.829 100.96V108H223.86V96.857H224.982C225.194 96.857 225.341 96.8973 225.422 96.978C225.502 97.0587 225.557 97.198 225.587 97.396L225.719 99.09ZM233.842 91.797V101.334H234.348C234.495 101.334 234.616 101.316 234.711 101.279C234.814 101.235 234.92 101.151 235.03 101.026L238.55 97.253C238.653 97.1283 238.759 97.033 238.869 96.967C238.987 96.8937 239.141 96.857 239.331 96.857H241.102L236.999 101.224C236.801 101.473 236.589 101.668 236.361 101.807C236.493 101.895 236.611 101.998 236.713 102.115C236.823 102.225 236.926 102.353 237.021 102.5L241.377 108H239.628C239.46 108 239.313 107.974 239.188 107.923C239.071 107.864 238.968 107.762 238.88 107.615L235.217 103.05C235.107 102.896 234.997 102.797 234.887 102.753C234.785 102.702 234.623 102.676 234.403 102.676H233.842V108H231.873V91.797H233.842ZM249.88 101.213C249.88 100.758 249.814 100.344 249.682 99.97C249.557 99.5887 249.37 99.2623 249.121 98.991C248.879 98.7123 248.582 98.4997 248.23 98.353C247.878 98.199 247.478 98.122 247.031 98.122C246.092 98.122 245.348 98.397 244.798 98.947C244.255 99.4897 243.918 100.245 243.786 101.213H249.88ZM251.464 106.438C251.222 106.731 250.932 106.988 250.595 107.208C250.258 107.421 249.895 107.597 249.506 107.736C249.125 107.875 248.729 107.978 248.318 108.044C247.907 108.117 247.5 108.154 247.097 108.154C246.327 108.154 245.616 108.026 244.963 107.769C244.318 107.505 243.757 107.124 243.28 106.625C242.811 106.119 242.444 105.496 242.18 104.755C241.916 104.014 241.784 103.164 241.784 102.203C241.784 101.426 241.901 100.7 242.136 100.025C242.378 99.3503 242.723 98.7673 243.17 98.276C243.617 97.7773 244.164 97.3887 244.809 97.11C245.454 96.824 246.18 96.681 246.987 96.681C247.654 96.681 248.27 96.7947 248.835 97.022C249.407 97.242 249.898 97.5647 250.309 97.99C250.727 98.408 251.053 98.9287 251.288 99.552C251.523 100.168 251.64 100.872 251.64 101.664C251.64 101.972 251.607 102.177 251.541 102.28C251.475 102.383 251.35 102.434 251.167 102.434H243.72C243.742 103.138 243.837 103.75 244.006 104.271C244.182 104.792 244.424 105.228 244.732 105.58C245.04 105.925 245.407 106.185 245.832 106.361C246.257 106.53 246.734 106.614 247.262 106.614C247.753 106.614 248.175 106.559 248.527 106.449C248.886 106.332 249.194 106.207 249.451 106.075C249.708 105.943 249.92 105.822 250.089 105.712C250.265 105.595 250.415 105.536 250.54 105.536C250.701 105.536 250.826 105.598 250.914 105.723L251.464 106.438ZM257.38 108.176C256.5 108.176 255.822 107.93 255.345 107.439C254.876 106.948 254.641 106.24 254.641 105.316V98.496H253.299C253.182 98.496 253.083 98.463 253.002 98.397C252.922 98.3237 252.881 98.2137 252.881 98.067V97.286L254.707 97.055L255.158 93.612C255.18 93.502 255.228 93.414 255.301 93.348C255.382 93.2747 255.485 93.238 255.609 93.238H256.599V97.077H259.822V98.496H256.599V105.184C256.599 105.653 256.713 106.002 256.94 106.229C257.168 106.456 257.461 106.57 257.82 106.57C258.026 106.57 258.202 106.544 258.348 106.493C258.502 106.434 258.634 106.372 258.744 106.306C258.854 106.24 258.946 106.181 259.019 106.13C259.1 106.071 259.17 106.042 259.228 106.042C259.331 106.042 259.423 106.104 259.503 106.229L260.075 107.164C259.738 107.479 259.331 107.729 258.854 107.912C258.378 108.088 257.886 108.176 257.38 108.176ZM272.588 100.41C273.197 100.41 273.732 100.329 274.194 100.168C274.663 100.007 275.056 99.783 275.371 99.497C275.694 99.2037 275.936 98.8553 276.097 98.452C276.258 98.0487 276.339 97.605 276.339 97.121C276.339 96.1163 276.027 95.3317 275.404 94.767C274.788 94.2023 273.849 93.92 272.588 93.92H270.058V100.41H272.588ZM272.588 92.237C273.585 92.237 274.451 92.3543 275.184 92.589C275.925 92.8163 276.537 93.1427 277.021 93.568C277.505 93.9933 277.864 94.5067 278.099 95.108C278.341 95.7093 278.462 96.3803 278.462 97.121C278.462 97.8543 278.334 98.5253 278.077 99.134C277.82 99.7427 277.443 100.267 276.944 100.707C276.453 101.147 275.84 101.492 275.107 101.741C274.381 101.983 273.541 102.104 272.588 102.104H270.058V108H267.935V92.237H272.588ZM282.33 99.09C282.682 98.3273 283.115 97.7333 283.628 97.308C284.141 96.8753 284.768 96.659 285.509 96.659C285.744 96.659 285.967 96.6847 286.18 96.736C286.4 96.7873 286.594 96.868 286.763 96.978L286.62 98.441C286.576 98.6243 286.466 98.716 286.29 98.716C286.187 98.716 286.037 98.694 285.839 98.65C285.641 98.606 285.417 98.584 285.168 98.584C284.816 98.584 284.501 98.6353 284.222 98.738C283.951 98.8407 283.705 98.9947 283.485 99.2C283.272 99.398 283.078 99.6473 282.902 99.948C282.733 100.241 282.579 100.579 282.44 100.96V108H280.471V96.857H281.593C281.806 96.857 281.952 96.8973 282.033 96.978C282.114 97.0587 282.169 97.198 282.198 97.396L282.33 99.09ZM290.553 96.857V108H288.595V96.857H290.553ZM290.971 93.359C290.971 93.5497 290.93 93.7293 290.85 93.898C290.776 94.0593 290.674 94.206 290.542 94.338C290.417 94.4627 290.267 94.5617 290.091 94.635C289.922 94.7083 289.742 94.745 289.552 94.745C289.361 94.745 289.181 94.7083 289.013 94.635C288.851 94.5617 288.708 94.4627 288.584 94.338C288.459 94.206 288.36 94.0593 288.287 93.898C288.213 93.7293 288.177 93.5497 288.177 93.359C288.177 93.1683 288.213 92.9887 288.287 92.82C288.36 92.644 288.459 92.4937 288.584 92.369C288.708 92.237 288.851 92.1343 289.013 92.061C289.181 91.9877 289.361 91.951 289.552 91.951C289.742 91.951 289.922 91.9877 290.091 92.061C290.267 92.1343 290.417 92.237 290.542 92.369C290.674 92.4937 290.776 92.644 290.85 92.82C290.93 92.9887 290.971 93.1683 290.971 93.359ZM301.525 98.837C301.466 98.9177 301.407 98.98 301.349 99.024C301.29 99.068 301.209 99.09 301.107 99.09C300.997 99.09 300.876 99.046 300.744 98.958C300.612 98.8627 300.447 98.76 300.249 98.65C300.058 98.54 299.82 98.441 299.534 98.353C299.255 98.2577 298.91 98.21 298.5 98.21C297.95 98.21 297.466 98.309 297.048 98.507C296.63 98.6977 296.278 98.9763 295.992 99.343C295.713 99.7097 295.5 100.153 295.354 100.674C295.214 101.195 295.145 101.778 295.145 102.423C295.145 103.098 295.222 103.699 295.376 104.227C295.53 104.748 295.746 105.188 296.025 105.547C296.311 105.899 296.652 106.17 297.048 106.361C297.451 106.544 297.902 106.636 298.401 106.636C298.877 106.636 299.27 106.581 299.578 106.471C299.886 106.354 300.139 106.225 300.337 106.086C300.542 105.947 300.711 105.822 300.843 105.712C300.982 105.595 301.118 105.536 301.25 105.536C301.411 105.536 301.536 105.598 301.624 105.723L302.174 106.438C301.932 106.739 301.657 106.995 301.349 107.208C301.041 107.421 300.707 107.6 300.348 107.747C299.996 107.886 299.625 107.989 299.237 108.055C298.848 108.121 298.452 108.154 298.049 108.154C297.352 108.154 296.703 108.026 296.102 107.769C295.508 107.512 294.991 107.142 294.551 106.658C294.111 106.167 293.766 105.565 293.517 104.854C293.267 104.143 293.143 103.332 293.143 102.423C293.143 101.594 293.256 100.828 293.484 100.124C293.718 99.42 294.056 98.815 294.496 98.309C294.943 97.7957 295.489 97.396 296.135 97.11C296.787 96.824 297.535 96.681 298.379 96.681C299.163 96.681 299.853 96.8093 300.447 97.066C301.048 97.3153 301.58 97.671 302.042 98.133L301.525 98.837ZM311.54 101.213C311.54 100.758 311.474 100.344 311.342 99.97C311.218 99.5887 311.031 99.2623 310.781 98.991C310.539 98.7123 310.242 98.4997 309.89 98.353C309.538 98.199 309.139 98.122 308.691 98.122C307.753 98.122 307.008 98.397 306.458 98.947C305.916 99.4897 305.578 100.245 305.446 101.213H311.54ZM313.124 106.438C312.882 106.731 312.593 106.988 312.255 107.208C311.918 107.421 311.555 107.597 311.166 107.736C310.785 107.875 310.389 107.978 309.978 108.044C309.568 108.117 309.161 108.154 308.757 108.154C307.987 108.154 307.276 108.026 306.623 107.769C305.978 107.505 305.417 107.124 304.94 106.625C304.471 106.119 304.104 105.496 303.84 104.755C303.576 104.014 303.444 103.164 303.444 102.203C303.444 101.426 303.562 100.7 303.796 100.025C304.038 99.3503 304.383 98.7673 304.83 98.276C305.278 97.7773 305.824 97.3887 306.469 97.11C307.115 96.824 307.841 96.681 308.647 96.681C309.315 96.681 309.931 96.7947 310.495 97.022C311.067 97.242 311.559 97.5647 311.969 97.99C312.387 98.408 312.714 98.9287 312.948 99.552C313.183 100.168 313.3 100.872 313.3 101.664C313.3 101.972 313.267 102.177 313.201 102.28C313.135 102.383 313.011 102.434 312.827 102.434H305.38C305.402 103.138 305.498 103.75 305.666 104.271C305.842 104.792 306.084 105.228 306.392 105.58C306.7 105.925 307.067 106.185 307.492 106.361C307.918 106.53 308.394 106.614 308.922 106.614C309.414 106.614 309.835 106.559 310.187 106.449C310.547 106.332 310.855 106.207 311.111 106.075C311.368 105.943 311.581 105.822 311.749 105.712C311.925 105.595 312.076 105.536 312.2 105.536C312.362 105.536 312.486 105.598 312.574 105.723L313.124 106.438ZM335.458 100.124C335.458 101.305 335.271 102.379 334.897 103.347C334.523 104.315 333.995 105.144 333.313 105.833C332.631 106.522 331.81 107.058 330.849 107.439C329.896 107.813 328.84 108 327.681 108H321.796V92.237H327.681C328.84 92.237 329.896 92.4277 330.849 92.809C331.81 93.183 332.631 93.7183 333.313 94.415C333.995 95.1043 334.523 95.933 334.897 96.901C335.271 97.869 335.458 98.9433 335.458 100.124ZM333.269 100.124C333.269 99.156 333.137 98.2907 332.873 97.528C332.609 96.7653 332.235 96.12 331.751 95.592C331.267 95.064 330.681 94.6607 329.991 94.382C329.302 94.1033 328.532 93.964 327.681 93.964H323.93V106.273H327.681C328.532 106.273 329.302 106.134 329.991 105.855C330.681 105.576 331.267 105.177 331.751 104.656C332.235 104.128 332.609 103.483 332.873 102.72C333.137 101.957 333.269 101.092 333.269 100.124ZM348.257 106.262L348.246 108H338.533V92.237H348.246V93.975H340.667V99.211H346.805V100.883H340.667V106.262H348.257ZM363.253 108H361.141C360.979 108 360.851 107.96 360.756 107.879C360.668 107.791 360.594 107.696 360.536 107.593L356.312 100.971C356.253 101.147 356.187 101.297 356.114 101.422L352 107.593C351.926 107.696 351.846 107.791 351.758 107.879C351.677 107.96 351.563 108 351.417 108H349.437L354.86 99.904L349.657 92.237H351.78C351.934 92.237 352.047 92.2627 352.121 92.314C352.194 92.3653 352.26 92.4387 352.319 92.534L356.433 98.848C356.484 98.694 356.561 98.5253 356.664 98.342L360.547 92.578C360.605 92.4753 360.675 92.3947 360.756 92.336C360.836 92.27 360.932 92.237 361.042 92.237H363.077L357.852 99.805L363.253 108Z" fill="white"/>
</svg>
