<svg width="406" height="228" viewBox="0 0 406 228" fill="none" xmlns="http://www.w3.org/2000/svg">
<rect width="406" height="228" fill="black"/>
<path d="M57.1265 67.975V73.486H63.6055V75.224H57.1265V82H54.9925V66.237H64.7055V67.975H57.1265ZM68.995 70.857V82H67.037V70.857H68.995ZM69.413 67.359C69.413 67.5497 69.3726 67.7293 69.292 67.898C69.2186 68.0593 69.116 68.206 68.984 68.338C68.8593 68.4627 68.709 68.5617 68.533 68.635C68.3643 68.7083 68.1846 68.745 67.994 68.745C67.8033 68.745 67.6236 68.7083 67.455 68.635C67.2936 68.5617 67.1506 68.4627 67.026 68.338C66.9013 68.206 66.8023 68.0593 66.729 67.898C66.6556 67.7293 66.619 67.5497 66.619 67.359C66.619 67.1683 66.6556 66.9887 66.729 66.82C66.8023 66.644 66.9013 66.4937 67.026 66.369C67.1506 66.237 67.2936 66.1343 67.455 66.061C67.6236 65.9877 67.8033 65.951 67.994 65.951C68.1846 65.951 68.3643 65.9877 68.533 66.061C68.709 66.1343 68.8593 66.237 68.984 66.369C69.116 66.4937 69.2186 66.644 69.292 66.82C69.3726 66.9887 69.413 67.1683 69.413 67.359ZM74.0601 72.474C74.3021 72.2027 74.5588 71.957 74.8301 71.737C75.1015 71.517 75.3875 71.33 75.6881 71.176C75.9961 71.0147 76.3188 70.8937 76.6561 70.813C77.0008 70.725 77.3711 70.681 77.7671 70.681C78.3758 70.681 78.9111 70.7837 79.3731 70.989C79.8425 71.187 80.2311 71.473 80.5391 71.847C80.8545 72.2137 81.0928 72.6573 81.2541 73.178C81.4155 73.6987 81.4961 74.2743 81.4961 74.905V82H79.5271V74.905C79.5271 74.0617 79.3328 73.409 78.9441 72.947C78.5628 72.4777 77.9798 72.243 77.1951 72.243C76.6158 72.243 76.0731 72.3823 75.5671 72.661C75.0685 72.9397 74.6065 73.3173 74.1811 73.794V82H72.2121V70.857H73.3891C73.6678 70.857 73.8401 70.9927 73.9061 71.264L74.0601 72.474ZM90.5187 76.984C89.6167 77.0133 88.8467 77.0867 88.2087 77.204C87.578 77.314 87.061 77.4607 86.6577 77.644C86.2617 77.8273 85.972 78.0437 85.7887 78.293C85.6127 78.5423 85.5247 78.821 85.5247 79.129C85.5247 79.4223 85.5724 79.6753 85.6677 79.888C85.763 80.1007 85.8914 80.2767 86.0527 80.416C86.2214 80.548 86.4157 80.647 86.6357 80.713C86.863 80.7717 87.105 80.801 87.3617 80.801C87.7064 80.801 88.0217 80.768 88.3077 80.702C88.5937 80.6287 88.8614 80.526 89.1107 80.394C89.3674 80.262 89.6094 80.1043 89.8367 79.921C90.0714 79.7377 90.2987 79.5287 90.5187 79.294V76.984ZM84.1937 72.43C84.8097 71.836 85.4734 71.3923 86.1847 71.099C86.896 70.8057 87.6844 70.659 88.5497 70.659C89.173 70.659 89.7267 70.7617 90.2107 70.967C90.6947 71.1723 91.1017 71.4583 91.4317 71.825C91.7617 72.1917 92.011 72.6353 92.1797 73.156C92.3484 73.6767 92.4327 74.2487 92.4327 74.872V82H91.5637C91.373 82 91.2264 81.9707 91.1237 81.912C91.021 81.846 90.9404 81.7213 90.8817 81.538L90.6617 80.482C90.3684 80.7533 90.0824 80.9953 89.8037 81.208C89.525 81.4133 89.2317 81.5893 88.9237 81.736C88.6157 81.8753 88.2857 81.9817 87.9337 82.055C87.589 82.1357 87.204 82.176 86.7787 82.176C86.346 82.176 85.939 82.1173 85.5577 82C85.1764 81.8753 84.8427 81.692 84.5567 81.45C84.278 81.208 84.0544 80.9037 83.8857 80.537C83.7244 80.163 83.6437 79.723 83.6437 79.217C83.6437 78.777 83.7647 78.3553 84.0067 77.952C84.2487 77.5413 84.641 77.1783 85.1837 76.863C85.7264 76.5477 86.434 76.291 87.3067 76.093C88.1794 75.8877 89.25 75.7703 90.5187 75.741V74.872C90.5187 74.0067 90.3317 73.354 89.9577 72.914C89.5837 72.4667 89.0374 72.243 88.3187 72.243C87.8347 72.243 87.4277 72.3053 87.0977 72.43C86.775 72.5473 86.4927 72.683 86.2507 72.837C86.016 72.9837 85.8107 73.1193 85.6347 73.244C85.466 73.3613 85.2974 73.42 85.1287 73.42C84.9967 73.42 84.883 73.387 84.7877 73.321C84.6924 73.2477 84.6117 73.1597 84.5457 73.057L84.1937 72.43ZM97.4393 65.797V82H95.4813V65.797H97.4393ZM111.358 74.41C111.967 74.41 112.502 74.3293 112.964 74.168C113.434 74.0067 113.826 73.783 114.141 73.497C114.464 73.2037 114.706 72.8553 114.867 72.452C115.029 72.0487 115.109 71.605 115.109 71.121C115.109 70.1163 114.798 69.3317 114.174 68.767C113.558 68.2023 112.62 67.92 111.358 67.92H108.828V74.41H111.358ZM111.358 66.237C112.356 66.237 113.221 66.3543 113.954 66.589C114.695 66.8163 115.307 67.1427 115.791 67.568C116.275 67.9933 116.635 68.5067 116.869 69.108C117.111 69.7093 117.232 70.3803 117.232 71.121C117.232 71.8543 117.104 72.5253 116.847 73.134C116.591 73.7427 116.213 74.267 115.714 74.707C115.223 75.147 114.611 75.4917 113.877 75.741C113.151 75.983 112.312 76.104 111.358 76.104H108.828V82H106.705V66.237H111.358ZM121.1 73.09C121.452 72.3273 121.885 71.7333 122.398 71.308C122.912 70.8753 123.539 70.659 124.279 70.659C124.514 70.659 124.738 70.6847 124.95 70.736C125.17 70.7873 125.365 70.868 125.533 70.978L125.39 72.441C125.346 72.6243 125.236 72.716 125.06 72.716C124.958 72.716 124.807 72.694 124.609 72.65C124.411 72.606 124.188 72.584 123.938 72.584C123.586 72.584 123.271 72.6353 122.992 72.738C122.721 72.8407 122.475 72.9947 122.255 73.2C122.043 73.398 121.848 73.6473 121.672 73.948C121.504 74.2413 121.35 74.5787 121.21 74.96V82H119.241V70.857H120.363C120.576 70.857 120.723 70.8973 120.803 70.978C120.884 71.0587 120.939 71.198 120.968 71.396L121.1 73.09ZM134.262 75.213C134.262 74.7583 134.196 74.344 134.064 73.97C133.939 73.5887 133.752 73.2623 133.503 72.991C133.261 72.7123 132.964 72.4997 132.612 72.353C132.26 72.199 131.86 72.122 131.413 72.122C130.474 72.122 129.73 72.397 129.18 72.947C128.637 73.4897 128.3 74.245 128.168 75.213H134.262ZM135.846 80.438C135.604 80.7313 135.314 80.988 134.977 81.208C134.64 81.4207 134.277 81.5967 133.888 81.736C133.507 81.8753 133.111 81.978 132.7 82.044C132.289 82.1173 131.882 82.154 131.479 82.154C130.709 82.154 129.998 82.0257 129.345 81.769C128.7 81.505 128.139 81.1237 127.662 80.625C127.193 80.119 126.826 79.4957 126.562 78.755C126.298 78.0143 126.166 77.1637 126.166 76.203C126.166 75.4257 126.283 74.6997 126.518 74.025C126.76 73.3503 127.105 72.7673 127.552 72.276C127.999 71.7773 128.546 71.3887 129.191 71.11C129.836 70.824 130.562 70.681 131.369 70.681C132.036 70.681 132.652 70.7947 133.217 71.022C133.789 71.242 134.28 71.5647 134.691 71.99C135.109 72.408 135.435 72.9287 135.67 73.552C135.905 74.168 136.022 74.872 136.022 75.664C136.022 75.972 135.989 76.1773 135.923 76.28C135.857 76.3827 135.732 76.434 135.549 76.434H128.102C128.124 77.138 128.219 77.7503 128.388 78.271C128.564 78.7917 128.806 79.228 129.114 79.58C129.422 79.9247 129.789 80.185 130.214 80.361C130.639 80.5297 131.116 80.614 131.644 80.614C132.135 80.614 132.557 80.559 132.909 80.449C133.268 80.3317 133.576 80.207 133.833 80.075C134.09 79.943 134.302 79.822 134.471 79.712C134.647 79.5947 134.797 79.536 134.922 79.536C135.083 79.536 135.208 79.5983 135.296 79.723L135.846 80.438ZM144.917 72.694C144.829 72.8553 144.693 72.936 144.51 72.936C144.4 72.936 144.275 72.8957 144.136 72.815C143.997 72.7343 143.824 72.6463 143.619 72.551C143.421 72.4483 143.183 72.3567 142.904 72.276C142.625 72.188 142.295 72.144 141.914 72.144C141.584 72.144 141.287 72.188 141.023 72.276C140.759 72.3567 140.532 72.4703 140.341 72.617C140.158 72.7637 140.015 72.936 139.912 73.134C139.817 73.3247 139.769 73.5337 139.769 73.761C139.769 74.047 139.85 74.2853 140.011 74.476C140.18 74.6667 140.4 74.8317 140.671 74.971C140.942 75.1103 141.25 75.235 141.595 75.345C141.94 75.4477 142.292 75.5613 142.651 75.686C143.018 75.8033 143.373 75.9353 143.718 76.082C144.063 76.2287 144.371 76.412 144.642 76.632C144.913 76.852 145.13 77.1233 145.291 77.446C145.46 77.7613 145.544 78.1427 145.544 78.59C145.544 79.1033 145.452 79.58 145.269 80.02C145.086 80.4527 144.814 80.8303 144.455 81.153C144.096 81.4683 143.656 81.7177 143.135 81.901C142.614 82.0843 142.013 82.176 141.331 82.176C140.554 82.176 139.85 82.0513 139.219 81.802C138.588 81.5453 138.053 81.219 137.613 80.823L138.075 80.075C138.134 79.9797 138.203 79.9063 138.284 79.855C138.365 79.8037 138.467 79.778 138.592 79.778C138.724 79.778 138.863 79.8293 139.01 79.932C139.157 80.0347 139.333 80.1483 139.538 80.273C139.751 80.3977 140.007 80.5113 140.308 80.614C140.609 80.7167 140.983 80.768 141.43 80.768C141.811 80.768 142.145 80.7203 142.431 80.625C142.717 80.5223 142.955 80.3867 143.146 80.218C143.337 80.0493 143.476 79.855 143.564 79.635C143.659 79.415 143.707 79.1803 143.707 78.931C143.707 78.623 143.623 78.37 143.454 78.172C143.293 77.9667 143.076 77.7943 142.805 77.655C142.534 77.5083 142.222 77.3837 141.87 77.281C141.525 77.171 141.17 77.0573 140.803 76.94C140.444 76.8227 140.088 76.6907 139.736 76.544C139.391 76.39 139.083 76.1993 138.812 75.972C138.541 75.7447 138.321 75.466 138.152 75.136C137.991 74.7987 137.91 74.3917 137.91 73.915C137.91 73.4897 137.998 73.0827 138.174 72.694C138.35 72.298 138.607 71.9533 138.944 71.66C139.281 71.3593 139.696 71.121 140.187 70.945C140.678 70.769 141.239 70.681 141.87 70.681C142.603 70.681 143.26 70.7983 143.839 71.033C144.426 71.2603 144.932 71.5757 145.357 71.979L144.917 72.694ZM155.403 75.213C155.403 74.7583 155.337 74.344 155.205 73.97C155.08 73.5887 154.893 73.2623 154.644 72.991C154.402 72.7123 154.105 72.4997 153.753 72.353C153.401 72.199 153.001 72.122 152.554 72.122C151.615 72.122 150.871 72.397 150.321 72.947C149.778 73.4897 149.441 74.245 149.309 75.213H155.403ZM156.987 80.438C156.745 80.7313 156.455 80.988 156.118 81.208C155.78 81.4207 155.417 81.5967 155.029 81.736C154.647 81.8753 154.251 81.978 153.841 82.044C153.43 82.1173 153.023 82.154 152.62 82.154C151.85 82.154 151.138 82.0257 150.486 81.769C149.84 81.505 149.279 81.1237 148.803 80.625C148.333 80.119 147.967 79.4957 147.703 78.755C147.439 78.0143 147.307 77.1637 147.307 76.203C147.307 75.4257 147.424 74.6997 147.659 74.025C147.901 73.3503 148.245 72.7673 148.693 72.276C149.14 71.7773 149.686 71.3887 150.332 71.11C150.977 70.824 151.703 70.681 152.51 70.681C153.177 70.681 153.793 70.7947 154.358 71.022C154.93 71.242 155.421 71.5647 155.832 71.99C156.25 72.408 156.576 72.9287 156.811 73.552C157.045 74.168 157.163 74.872 157.163 75.664C157.163 75.972 157.13 76.1773 157.064 76.28C156.998 76.3827 156.873 76.434 156.69 76.434H149.243C149.265 77.138 149.36 77.7503 149.529 78.271C149.705 78.7917 149.947 79.228 150.255 79.58C150.563 79.9247 150.929 80.185 151.355 80.361C151.78 80.5297 152.257 80.614 152.785 80.614C153.276 80.614 153.698 80.559 154.05 80.449C154.409 80.3317 154.717 80.207 154.974 80.075C155.23 79.943 155.443 79.822 155.612 79.712C155.788 79.5947 155.938 79.536 156.063 79.536C156.224 79.536 156.349 79.5983 156.437 79.723L156.987 80.438ZM161.416 72.474C161.658 72.2027 161.914 71.957 162.186 71.737C162.457 71.517 162.743 71.33 163.044 71.176C163.352 71.0147 163.674 70.8937 164.012 70.813C164.356 70.725 164.727 70.681 165.123 70.681C165.731 70.681 166.267 70.7837 166.729 70.989C167.198 71.187 167.587 71.473 167.895 71.847C168.21 72.2137 168.448 72.6573 168.61 73.178C168.771 73.6987 168.852 74.2743 168.852 74.905V82H166.883V74.905C166.883 74.0617 166.688 73.409 166.3 72.947C165.918 72.4777 165.335 72.243 164.551 72.243C163.971 72.243 163.429 72.3823 162.923 72.661C162.424 72.9397 161.962 73.3173 161.537 73.794V82H159.568V70.857H160.745C161.023 70.857 161.196 70.9927 161.262 71.264L161.416 72.474ZM175.106 82.176C174.226 82.176 173.547 81.9303 173.071 81.439C172.601 80.9477 172.367 80.24 172.367 79.316V72.496H171.025C170.907 72.496 170.808 72.463 170.728 72.397C170.647 72.3237 170.607 72.2137 170.607 72.067V71.286L172.433 71.055L172.884 67.612C172.906 67.502 172.953 67.414 173.027 67.348C173.107 67.2747 173.21 67.238 173.335 67.238H174.325V71.077H177.548V72.496H174.325V79.184C174.325 79.6533 174.438 80.0017 174.666 80.229C174.893 80.4563 175.186 80.57 175.546 80.57C175.751 80.57 175.927 80.5443 176.074 80.493C176.228 80.4343 176.36 80.372 176.47 80.306C176.58 80.24 176.671 80.1813 176.745 80.13C176.825 80.0713 176.895 80.042 176.954 80.042C177.056 80.042 177.148 80.1043 177.229 80.229L177.801 81.164C177.463 81.4793 177.056 81.7287 176.58 81.912C176.103 82.088 175.612 82.176 175.106 82.176ZM185.609 76.984C184.707 77.0133 183.937 77.0867 183.299 77.204C182.668 77.314 182.151 77.4607 181.748 77.644C181.352 77.8273 181.062 78.0437 180.879 78.293C180.703 78.5423 180.615 78.821 180.615 79.129C180.615 79.4223 180.662 79.6753 180.758 79.888C180.853 80.1007 180.981 80.2767 181.143 80.416C181.311 80.548 181.506 80.647 181.726 80.713C181.953 80.7717 182.195 80.801 182.452 80.801C182.796 80.801 183.112 80.768 183.398 80.702C183.684 80.6287 183.951 80.526 184.201 80.394C184.457 80.262 184.699 80.1043 184.927 79.921C185.161 79.7377 185.389 79.5287 185.609 79.294V76.984ZM179.284 72.43C179.9 71.836 180.563 71.3923 181.275 71.099C181.986 70.8057 182.774 70.659 183.64 70.659C184.263 70.659 184.817 70.7617 185.301 70.967C185.785 71.1723 186.192 71.4583 186.522 71.825C186.852 72.1917 187.101 72.6353 187.27 73.156C187.438 73.6767 187.523 74.2487 187.523 74.872V82H186.654C186.463 82 186.316 81.9707 186.214 81.912C186.111 81.846 186.03 81.7213 185.972 81.538L185.752 80.482C185.458 80.7533 185.172 80.9953 184.894 81.208C184.615 81.4133 184.322 81.5893 184.014 81.736C183.706 81.8753 183.376 81.9817 183.024 82.055C182.679 82.1357 182.294 82.176 181.869 82.176C181.436 82.176 181.029 82.1173 180.648 82C180.266 81.8753 179.933 81.692 179.647 81.45C179.368 81.208 179.144 80.9037 178.976 80.537C178.814 80.163 178.734 79.723 178.734 79.217C178.734 78.777 178.855 78.3553 179.097 77.952C179.339 77.5413 179.731 77.1783 180.274 76.863C180.816 76.5477 181.524 76.291 182.397 76.093C183.269 75.8877 184.34 75.7703 185.609 75.741V74.872C185.609 74.0067 185.422 73.354 185.048 72.914C184.674 72.4667 184.127 72.243 183.409 72.243C182.925 72.243 182.518 72.3053 182.188 72.43C181.865 72.5473 181.583 72.683 181.341 72.837C181.106 72.9837 180.901 73.1193 180.725 73.244C180.556 73.3613 180.387 73.42 180.219 73.42C180.087 73.42 179.973 73.387 179.878 73.321C179.782 73.2477 179.702 73.1597 179.636 73.057L179.284 72.43ZM200.695 82H198.737V72.496H192.995V79.184C192.995 79.6533 193.108 80.0017 193.336 80.229C193.563 80.4563 193.856 80.57 194.216 80.57C194.421 80.57 194.597 80.5443 194.744 80.493C194.898 80.4343 195.03 80.372 195.14 80.306C195.25 80.24 195.341 80.1813 195.415 80.13C195.495 80.0713 195.565 80.042 195.624 80.042C195.726 80.042 195.818 80.1043 195.899 80.229L196.471 81.164C196.133 81.4793 195.726 81.7287 195.25 81.912C194.773 82.088 194.282 82.176 193.776 82.176C192.896 82.176 192.217 81.9303 191.741 81.439C191.271 80.9477 191.037 80.24 191.037 79.316V72.496H189.695C189.577 72.496 189.478 72.463 189.398 72.397C189.317 72.3237 189.277 72.2137 189.277 72.067V71.286L191.103 71.044L191.554 67.612C191.576 67.502 191.623 67.414 191.697 67.348C191.777 67.2747 191.88 67.238 192.005 67.238H192.995V71.077H200.695V82ZM201.179 67.282C201.179 67.4727 201.138 67.6523 201.058 67.821C200.984 67.9823 200.882 68.1253 200.75 68.25C200.625 68.3747 200.478 68.4737 200.31 68.547C200.141 68.6203 199.961 68.657 199.771 68.657C199.58 68.657 199.4 68.6203 199.232 68.547C199.07 68.4737 198.927 68.3747 198.803 68.25C198.678 68.1253 198.579 67.9823 198.506 67.821C198.432 67.6523 198.396 67.4727 198.396 67.282C198.396 67.0913 198.432 66.9117 198.506 66.743C198.579 66.567 198.678 66.4167 198.803 66.292C198.927 66.16 199.07 66.0573 199.232 65.984C199.4 65.9107 199.58 65.874 199.771 65.874C199.961 65.874 200.141 65.9107 200.31 65.984C200.478 66.0573 200.625 66.16 200.75 66.292C200.882 66.4167 200.984 66.567 201.058 66.743C201.138 66.9117 201.179 67.0913 201.179 67.282ZM208.608 70.681C209.422 70.681 210.156 70.8167 210.808 71.088C211.461 71.3593 212.018 71.7443 212.48 72.243C212.942 72.7417 213.294 73.3467 213.536 74.058C213.786 74.762 213.91 75.5503 213.91 76.423C213.91 77.303 213.786 78.095 213.536 78.799C213.294 79.503 212.942 80.1043 212.48 80.603C212.018 81.1017 211.461 81.4867 210.808 81.758C210.156 82.022 209.422 82.154 208.608 82.154C207.787 82.154 207.046 82.022 206.386 81.758C205.734 81.4867 205.176 81.1017 204.714 80.603C204.252 80.1043 203.897 79.503 203.647 78.799C203.405 78.095 203.284 77.303 203.284 76.423C203.284 75.5503 203.405 74.762 203.647 74.058C203.897 73.3467 204.252 72.7417 204.714 72.243C205.176 71.7443 205.734 71.3593 206.386 71.088C207.046 70.8167 207.787 70.681 208.608 70.681ZM208.608 80.625C209.708 80.625 210.53 80.2583 211.072 79.525C211.615 78.7843 211.886 77.754 211.886 76.434C211.886 75.1067 211.615 74.0727 211.072 73.332C210.53 72.5913 209.708 72.221 208.608 72.221C208.051 72.221 207.563 72.3163 207.145 72.507C206.735 72.6977 206.39 72.9727 206.111 73.332C205.84 73.6913 205.635 74.135 205.495 74.663C205.363 75.1837 205.297 75.774 205.297 76.434C205.297 77.754 205.569 78.7843 206.111 79.525C206.661 80.2583 207.494 80.625 208.608 80.625ZM218.242 72.474C218.484 72.2027 218.74 71.957 219.012 71.737C219.283 71.517 219.569 71.33 219.87 71.176C220.178 71.0147 220.5 70.8937 220.838 70.813C221.182 70.725 221.553 70.681 221.949 70.681C222.557 70.681 223.093 70.7837 223.555 70.989C224.024 71.187 224.413 71.473 224.721 71.847C225.036 72.2137 225.274 72.6573 225.436 73.178C225.597 73.6987 225.678 74.2743 225.678 74.905V82H223.709V74.905C223.709 74.0617 223.514 73.409 223.126 72.947C222.744 72.4777 222.161 72.243 221.377 72.243C220.797 72.243 220.255 72.3823 219.749 72.661C219.25 72.9397 218.788 73.3173 218.363 73.794V82H216.394V70.857H217.571C217.849 70.857 218.022 70.9927 218.088 71.264L218.242 72.474ZM234.114 74.575H239.548V76.236H234.114V74.575ZM261.349 74.421V80.471C260.557 81.043 259.71 81.472 258.808 81.758C257.914 82.0367 256.931 82.176 255.86 82.176C254.592 82.176 253.448 81.9817 252.428 81.593C251.409 81.197 250.536 80.647 249.81 79.943C249.092 79.2317 248.538 78.381 248.149 77.391C247.761 76.401 247.566 75.312 247.566 74.124C247.566 72.9213 247.753 71.825 248.127 70.835C248.509 69.845 249.048 68.998 249.744 68.294C250.441 67.5827 251.288 67.0327 252.285 66.644C253.283 66.2553 254.397 66.061 255.629 66.061C256.253 66.061 256.832 66.1087 257.367 66.204C257.903 66.292 258.398 66.424 258.852 66.6C259.307 66.7687 259.729 66.9777 260.117 67.227C260.506 67.469 260.869 67.744 261.206 68.052L260.601 69.02C260.506 69.1667 260.381 69.262 260.227 69.306C260.081 69.3427 259.916 69.306 259.732 69.196C259.556 69.0933 259.355 68.9687 259.127 68.822C258.9 68.6753 258.621 68.536 258.291 68.404C257.969 68.2647 257.584 68.1473 257.136 68.052C256.696 67.9567 256.172 67.909 255.563 67.909C254.676 67.909 253.873 68.0557 253.154 68.349C252.436 68.635 251.823 69.0493 251.317 69.592C250.811 70.1273 250.423 70.78 250.151 71.55C249.88 72.3127 249.744 73.1707 249.744 74.124C249.744 75.114 249.884 76.0013 250.162 76.786C250.448 77.5633 250.852 78.227 251.372 78.777C251.9 79.3197 252.538 79.734 253.286 80.02C254.034 80.306 254.874 80.449 255.805 80.449C256.539 80.449 257.188 80.3683 257.752 80.207C258.324 80.0383 258.882 79.8073 259.424 79.514V76.049H256.971C256.832 76.049 256.718 76.0087 256.63 75.928C256.55 75.8473 256.509 75.7483 256.509 75.631V74.421H261.349ZM265.841 73.09C266.193 72.3273 266.625 71.7333 267.139 71.308C267.652 70.8753 268.279 70.659 269.02 70.659C269.254 70.659 269.478 70.6847 269.691 70.736C269.911 70.7873 270.105 70.868 270.274 70.978L270.131 72.441C270.087 72.6243 269.977 72.716 269.801 72.716C269.698 72.716 269.548 72.694 269.35 72.65C269.152 72.606 268.928 72.584 268.679 72.584C268.327 72.584 268.011 72.6353 267.733 72.738C267.461 72.8407 267.216 72.9947 266.996 73.2C266.783 73.398 266.589 73.6473 266.413 73.948C266.244 74.2413 266.09 74.5787 265.951 74.96V82H263.982V70.857H265.104C265.316 70.857 265.463 70.8973 265.544 70.978C265.624 71.0587 265.679 71.198 265.709 71.396L265.841 73.09ZM276.241 70.681C277.055 70.681 277.788 70.8167 278.441 71.088C279.094 71.3593 279.651 71.7443 280.113 72.243C280.575 72.7417 280.927 73.3467 281.169 74.058C281.418 74.762 281.543 75.5503 281.543 76.423C281.543 77.303 281.418 78.095 281.169 78.799C280.927 79.503 280.575 80.1043 280.113 80.603C279.651 81.1017 279.094 81.4867 278.441 81.758C277.788 82.022 277.055 82.154 276.241 82.154C275.42 82.154 274.679 82.022 274.019 81.758C273.366 81.4867 272.809 81.1017 272.347 80.603C271.885 80.1043 271.529 79.503 271.28 78.799C271.038 78.095 270.917 77.303 270.917 76.423C270.917 75.5503 271.038 74.762 271.28 74.058C271.529 73.3467 271.885 72.7417 272.347 72.243C272.809 71.7443 273.366 71.3593 274.019 71.088C274.679 70.8167 275.42 70.681 276.241 70.681ZM276.241 80.625C277.341 80.625 278.162 80.2583 278.705 79.525C279.248 78.7843 279.519 77.754 279.519 76.434C279.519 75.1067 279.248 74.0727 278.705 73.332C278.162 72.5913 277.341 72.221 276.241 72.221C275.684 72.221 275.196 72.3163 274.778 72.507C274.367 72.6977 274.023 72.9727 273.744 73.332C273.473 73.6913 273.267 74.135 273.128 74.663C272.996 75.1837 272.93 75.774 272.93 76.434C272.93 77.754 273.201 78.7843 273.744 79.525C274.294 80.2583 275.126 80.625 276.241 80.625ZM293.19 70.857V82H292.024C291.745 82 291.569 81.8643 291.496 81.593L291.342 80.394C290.858 80.9293 290.315 81.362 289.714 81.692C289.112 82.0147 288.423 82.176 287.646 82.176C287.037 82.176 286.498 82.077 286.029 81.879C285.567 81.6737 285.178 81.3877 284.863 81.021C284.547 80.6543 284.309 80.2107 284.148 79.69C283.994 79.1693 283.917 78.5937 283.917 77.963V70.857H285.875V77.963C285.875 78.8063 286.065 79.459 286.447 79.921C286.835 80.383 287.426 80.614 288.218 80.614C288.797 80.614 289.336 80.4783 289.835 80.207C290.341 79.9283 290.806 79.547 291.232 79.063V70.857H293.19ZM298.263 79.316C298.622 79.8 299.015 80.141 299.44 80.339C299.865 80.537 300.342 80.636 300.87 80.636C301.911 80.636 302.711 80.2657 303.268 79.525C303.825 78.7843 304.104 77.7283 304.104 76.357C304.104 75.631 304.038 75.0077 303.906 74.487C303.781 73.9663 303.598 73.541 303.356 73.211C303.114 72.8737 302.817 72.628 302.465 72.474C302.113 72.32 301.713 72.243 301.266 72.243C300.628 72.243 300.067 72.3897 299.583 72.683C299.106 72.9763 298.666 73.3907 298.263 73.926V79.316ZM298.164 72.584C298.633 72.0047 299.176 71.539 299.792 71.187C300.408 70.835 301.112 70.659 301.904 70.659C302.549 70.659 303.132 70.7837 303.653 71.033C304.174 71.275 304.617 71.638 304.984 72.122C305.351 72.5987 305.633 73.1927 305.831 73.904C306.029 74.6153 306.128 75.433 306.128 76.357C306.128 77.1783 306.018 77.9447 305.798 78.656C305.578 79.36 305.259 79.9723 304.841 80.493C304.43 81.0063 303.924 81.4133 303.323 81.714C302.729 82.0073 302.058 82.154 301.31 82.154C300.628 82.154 300.041 82.0403 299.55 81.813C299.066 81.5783 298.637 81.2557 298.263 80.845V85.773H296.294V70.857H297.471C297.75 70.857 297.922 70.9927 297.988 71.264L298.164 72.584ZM323.561 80.141C323.774 80.141 323.942 80.2033 324.067 80.328C324.192 80.4527 324.254 80.614 324.254 80.812V82H313.738V81.329C313.738 81.1897 313.767 81.0467 313.826 80.9C313.885 80.7533 313.976 80.6177 314.101 80.493L319.15 75.422C319.568 74.9967 319.949 74.5897 320.294 74.201C320.639 73.805 320.932 73.409 321.174 73.013C321.416 72.617 321.603 72.2173 321.735 71.814C321.867 71.4033 321.933 70.967 321.933 70.505C321.933 70.043 321.86 69.6397 321.713 69.295C321.566 68.943 321.365 68.6533 321.108 68.426C320.859 68.1987 320.562 68.03 320.217 67.92C319.872 67.8027 319.502 67.744 319.106 67.744C318.703 67.744 318.332 67.8027 317.995 67.92C317.658 68.0373 317.357 68.2023 317.093 68.415C316.836 68.6203 316.62 68.866 316.444 69.152C316.268 69.438 316.143 69.7533 316.07 70.098C315.982 70.3547 315.861 70.527 315.707 70.615C315.56 70.6957 315.351 70.7177 315.08 70.681L314.057 70.505C314.16 69.7863 314.358 69.152 314.651 68.602C314.952 68.0447 315.326 67.579 315.773 67.205C316.228 66.831 316.745 66.5487 317.324 66.358C317.903 66.16 318.53 66.061 319.205 66.061C319.872 66.061 320.496 66.16 321.075 66.358C321.654 66.556 322.157 66.8457 322.582 67.227C323.007 67.601 323.341 68.0593 323.583 68.602C323.825 69.1447 323.946 69.7607 323.946 70.45C323.946 71.0367 323.858 71.583 323.682 72.089C323.506 72.5877 323.268 73.0643 322.967 73.519C322.666 73.9737 322.318 74.4173 321.922 74.85C321.533 75.2827 321.119 75.719 320.679 76.159L316.521 80.405C316.814 80.3243 317.111 80.262 317.412 80.218C317.713 80.1667 318.002 80.141 318.281 80.141H323.561ZM328.579 70.868C328.579 71.3667 328.648 71.814 328.788 72.21C328.934 72.5987 329.14 72.9287 329.404 73.2C329.675 73.4713 330.001 73.6767 330.383 73.816C330.771 73.9553 331.204 74.025 331.681 74.025C332.209 74.025 332.674 73.9407 333.078 73.772C333.488 73.596 333.833 73.365 334.112 73.079C334.39 72.793 334.603 72.463 334.75 72.089C334.896 71.715 334.97 71.3263 334.97 70.923C334.97 70.4317 334.889 69.988 334.728 69.592C334.574 69.1887 334.357 68.8477 334.079 68.569C333.8 68.2903 333.466 68.0777 333.078 67.931C332.696 67.777 332.275 67.7 331.813 67.7C331.329 67.7 330.889 67.7807 330.493 67.942C330.097 68.096 329.756 68.3123 329.47 68.591C329.184 68.8697 328.964 69.2033 328.81 69.592C328.656 69.9807 328.579 70.406 328.579 70.868ZM333.155 75.719C333.316 75.5063 333.466 75.3047 333.606 75.114C333.745 74.9233 333.877 74.7327 334.002 74.542C333.598 74.8647 333.144 75.1103 332.638 75.279C332.132 75.4477 331.596 75.532 331.032 75.532C330.438 75.532 329.873 75.433 329.338 75.235C328.81 75.037 328.344 74.7473 327.941 74.366C327.537 73.9773 327.215 73.5043 326.973 72.947C326.738 72.3823 326.621 71.737 326.621 71.011C326.621 70.3217 326.749 69.6763 327.006 69.075C327.262 68.4737 327.622 67.9493 328.084 67.502C328.546 67.0547 329.096 66.7027 329.734 66.446C330.372 66.1893 331.072 66.061 331.835 66.061C332.59 66.061 333.276 66.1857 333.892 66.435C334.508 66.6843 335.036 67.0327 335.476 67.48C335.916 67.9273 336.253 68.4627 336.488 69.086C336.73 69.7093 336.851 70.3987 336.851 71.154C336.851 71.6087 336.807 72.0413 336.719 72.452C336.638 72.8553 336.517 73.255 336.356 73.651C336.202 74.0397 336.011 74.4283 335.784 74.817C335.556 75.1983 335.3 75.5907 335.014 75.994L331.175 81.538C331.079 81.6773 330.944 81.791 330.768 81.879C330.592 81.9597 330.39 82 330.163 82H328.359L333.155 75.719ZM345.231 74.575H350.665V76.236H345.231V74.575ZM136.839 104.744C136.956 104.744 137.059 104.792 137.147 104.887L137.994 105.8C137.348 106.548 136.564 107.131 135.64 107.549C134.723 107.967 133.612 108.176 132.307 108.176C131.177 108.176 130.151 107.982 129.227 107.593C128.303 107.197 127.514 106.647 126.862 105.943C126.209 105.232 125.703 104.381 125.344 103.391C124.984 102.401 124.805 101.312 124.805 100.124C124.805 98.936 124.992 97.847 125.366 96.857C125.74 95.867 126.264 95.0163 126.939 94.305C127.621 93.5937 128.435 93.0437 129.381 92.655C130.327 92.259 131.372 92.061 132.516 92.061C133.638 92.061 134.628 92.2407 135.486 92.6C136.344 92.9593 137.099 93.447 137.752 94.063L137.048 95.042C137.004 95.1153 136.945 95.1777 136.872 95.229C136.806 95.273 136.714 95.295 136.597 95.295C136.465 95.295 136.303 95.2253 136.113 95.086C135.922 94.9393 135.673 94.778 135.365 94.602C135.057 94.426 134.672 94.2683 134.21 94.129C133.748 93.9823 133.179 93.909 132.505 93.909C131.691 93.909 130.946 94.052 130.272 94.338C129.597 94.6167 129.014 95.0237 128.523 95.559C128.039 96.0943 127.661 96.747 127.39 97.517C127.118 98.287 126.983 99.156 126.983 100.124C126.983 101.107 127.122 101.983 127.401 102.753C127.687 103.523 128.072 104.176 128.556 104.711C129.047 105.239 129.623 105.642 130.283 105.921C130.95 106.2 131.669 106.339 132.439 106.339C132.908 106.339 133.33 106.313 133.704 106.262C134.085 106.203 134.433 106.115 134.749 105.998C135.071 105.881 135.368 105.734 135.64 105.558C135.918 105.375 136.193 105.158 136.465 104.909C136.589 104.799 136.714 104.744 136.839 104.744ZM146.045 102.984C145.143 103.013 144.373 103.087 143.735 103.204C143.104 103.314 142.587 103.461 142.184 103.644C141.788 103.827 141.498 104.044 141.315 104.293C141.139 104.542 141.051 104.821 141.051 105.129C141.051 105.422 141.099 105.675 141.194 105.888C141.289 106.101 141.418 106.277 141.579 106.416C141.748 106.548 141.942 106.647 142.162 106.713C142.389 106.772 142.631 106.801 142.888 106.801C143.233 106.801 143.548 106.768 143.834 106.702C144.12 106.629 144.388 106.526 144.637 106.394C144.894 106.262 145.136 106.104 145.363 105.921C145.598 105.738 145.825 105.529 146.045 105.294V102.984ZM139.72 98.43C140.336 97.836 141 97.3923 141.711 97.099C142.422 96.8057 143.211 96.659 144.076 96.659C144.699 96.659 145.253 96.7617 145.737 96.967C146.221 97.1723 146.628 97.4583 146.958 97.825C147.288 98.1917 147.537 98.6353 147.706 99.156C147.875 99.6767 147.959 100.249 147.959 100.872V108H147.09C146.899 108 146.753 107.971 146.65 107.912C146.547 107.846 146.467 107.721 146.408 107.538L146.188 106.482C145.895 106.753 145.609 106.995 145.33 107.208C145.051 107.413 144.758 107.589 144.45 107.736C144.142 107.875 143.812 107.982 143.46 108.055C143.115 108.136 142.73 108.176 142.305 108.176C141.872 108.176 141.465 108.117 141.084 108C140.703 107.875 140.369 107.692 140.083 107.45C139.804 107.208 139.581 106.904 139.412 106.537C139.251 106.163 139.17 105.723 139.17 105.217C139.17 104.777 139.291 104.355 139.533 103.952C139.775 103.541 140.167 103.178 140.71 102.863C141.253 102.548 141.96 102.291 142.833 102.093C143.706 101.888 144.776 101.77 146.045 101.741V100.872C146.045 100.007 145.858 99.354 145.484 98.914C145.11 98.4667 144.564 98.243 143.845 98.243C143.361 98.243 142.954 98.3053 142.624 98.43C142.301 98.5473 142.019 98.683 141.777 98.837C141.542 98.9837 141.337 99.1193 141.161 99.244C140.992 99.3613 140.824 99.42 140.655 99.42C140.523 99.42 140.409 99.387 140.314 99.321C140.219 99.2477 140.138 99.1597 140.072 99.057L139.72 98.43ZM152.801 99.09C153.153 98.3273 153.585 97.7333 154.099 97.308C154.612 96.8753 155.239 96.659 155.98 96.659C156.214 96.659 156.438 96.6847 156.651 96.736C156.871 96.7873 157.065 96.868 157.234 96.978L157.091 98.441C157.047 98.6243 156.937 98.716 156.761 98.716C156.658 98.716 156.508 98.694 156.31 98.65C156.112 98.606 155.888 98.584 155.639 98.584C155.287 98.584 154.971 98.6353 154.693 98.738C154.421 98.8407 154.176 98.9947 153.956 99.2C153.743 99.398 153.549 99.6473 153.373 99.948C153.204 100.241 153.05 100.579 152.911 100.96V108H150.942V96.857H152.064C152.276 96.857 152.423 96.8973 152.504 96.978C152.584 97.0587 152.639 97.198 152.669 97.396L152.801 99.09ZM160.924 105.316C161.284 105.8 161.676 106.141 162.101 106.339C162.534 106.537 163.007 106.636 163.52 106.636C164.569 106.636 165.372 106.266 165.929 105.525C166.487 104.784 166.765 103.681 166.765 102.214C166.765 100.85 166.516 99.849 166.017 99.211C165.526 98.5657 164.822 98.243 163.905 98.243C163.267 98.243 162.71 98.3897 162.233 98.683C161.764 98.9763 161.328 99.3907 160.924 99.926V105.316ZM160.924 98.463C161.394 97.9203 161.922 97.4877 162.508 97.165C163.102 96.8423 163.784 96.681 164.554 96.681C165.207 96.681 165.794 96.8057 166.314 97.055C166.842 97.3043 167.29 97.6673 167.656 98.144C168.023 98.6133 168.302 99.1853 168.492 99.86C168.69 100.535 168.789 101.294 168.789 102.137C168.789 103.039 168.679 103.86 168.459 104.601C168.239 105.342 167.92 105.976 167.502 106.504C167.092 107.025 166.589 107.432 165.995 107.725C165.401 108.011 164.734 108.154 163.993 108.154C163.26 108.154 162.64 108.018 162.134 107.747C161.636 107.468 161.199 107.076 160.825 106.57L160.726 107.582C160.668 107.861 160.499 108 160.22 108H158.955V91.797H160.924V98.463ZM175.963 96.681C176.777 96.681 177.51 96.8167 178.163 97.088C178.816 97.3593 179.373 97.7443 179.835 98.243C180.297 98.7417 180.649 99.3467 180.891 100.058C181.14 100.762 181.265 101.55 181.265 102.423C181.265 103.303 181.14 104.095 180.891 104.799C180.649 105.503 180.297 106.104 179.835 106.603C179.373 107.102 178.816 107.487 178.163 107.758C177.51 108.022 176.777 108.154 175.963 108.154C175.142 108.154 174.401 108.022 173.741 107.758C173.088 107.487 172.531 107.102 172.069 106.603C171.607 106.104 171.251 105.503 171.002 104.799C170.76 104.095 170.639 103.303 170.639 102.423C170.639 101.55 170.76 100.762 171.002 100.058C171.251 99.3467 171.607 98.7417 172.069 98.243C172.531 97.7443 173.088 97.3593 173.741 97.088C174.401 96.8167 175.142 96.681 175.963 96.681ZM175.963 106.625C177.063 106.625 177.884 106.258 178.427 105.525C178.97 104.784 179.241 103.754 179.241 102.434C179.241 101.107 178.97 100.073 178.427 99.332C177.884 98.5913 177.063 98.221 175.963 98.221C175.406 98.221 174.918 98.3163 174.5 98.507C174.089 98.6977 173.745 98.9727 173.466 99.332C173.195 99.6913 172.989 100.135 172.85 100.663C172.718 101.184 172.652 101.774 172.652 102.434C172.652 103.754 172.923 104.784 173.466 105.525C174.016 106.258 174.848 106.625 175.963 106.625ZM185.596 98.474C185.838 98.2027 186.095 97.957 186.366 97.737C186.638 97.517 186.924 97.33 187.224 97.176C187.532 97.0147 187.855 96.8937 188.192 96.813C188.537 96.725 188.907 96.681 189.303 96.681C189.912 96.681 190.447 96.7837 190.909 96.989C191.379 97.187 191.767 97.473 192.075 97.847C192.391 98.2137 192.629 98.6573 192.79 99.178C192.952 99.6987 193.032 100.274 193.032 100.905V108H191.063V100.905C191.063 100.062 190.869 99.409 190.48 98.947C190.099 98.4777 189.516 98.243 188.731 98.243C188.152 98.243 187.609 98.3823 187.103 98.661C186.605 98.9397 186.143 99.3173 185.717 99.794V108H183.748V96.857H184.925C185.204 96.857 185.376 96.9927 185.442 97.264L185.596 98.474ZM206.76 100.41C207.368 100.41 207.904 100.329 208.366 100.168C208.835 100.007 209.227 99.783 209.543 99.497C209.865 99.2037 210.107 98.8553 210.269 98.452C210.43 98.0487 210.511 97.605 210.511 97.121C210.511 96.1163 210.199 95.3317 209.576 94.767C208.96 94.2023 208.021 93.92 206.76 93.92H204.23V100.41H206.76ZM206.76 92.237C207.757 92.237 208.622 92.3543 209.356 92.589C210.096 92.8163 210.709 93.1427 211.193 93.568C211.677 93.9933 212.036 94.5067 212.271 95.108C212.513 95.7093 212.634 96.3803 212.634 97.121C212.634 97.8543 212.505 98.5253 212.249 99.134C211.992 99.7427 211.614 100.267 211.116 100.707C210.624 101.147 210.012 101.492 209.279 101.741C208.553 101.983 207.713 102.104 206.76 102.104H204.23V108H202.107V92.237H206.76ZM216.502 99.09C216.854 98.3273 217.286 97.7333 217.8 97.308C218.313 96.8753 218.94 96.659 219.681 96.659C219.915 96.659 220.139 96.6847 220.352 96.736C220.572 96.7873 220.766 96.868 220.935 96.978L220.792 98.441C220.748 98.6243 220.638 98.716 220.462 98.716C220.359 98.716 220.209 98.694 220.011 98.65C219.813 98.606 219.589 98.584 219.34 98.584C218.988 98.584 218.672 98.6353 218.394 98.738C218.122 98.8407 217.877 98.9947 217.657 99.2C217.444 99.398 217.25 99.6473 217.074 99.948C216.905 100.241 216.751 100.579 216.612 100.96V108H214.643V96.857H215.765C215.977 96.857 216.124 96.8973 216.205 96.978C216.285 97.0587 216.34 97.198 216.37 97.396L216.502 99.09ZM226.902 96.681C227.716 96.681 228.45 96.8167 229.102 97.088C229.755 97.3593 230.312 97.7443 230.774 98.243C231.236 98.7417 231.588 99.3467 231.83 100.058C232.08 100.762 232.204 101.55 232.204 102.423C232.204 103.303 232.08 104.095 231.83 104.799C231.588 105.503 231.236 106.104 230.774 106.603C230.312 107.102 229.755 107.487 229.102 107.758C228.45 108.022 227.716 108.154 226.902 108.154C226.081 108.154 225.34 108.022 224.68 107.758C224.028 107.487 223.47 107.102 223.008 106.603C222.546 106.104 222.191 105.503 221.941 104.799C221.699 104.095 221.578 103.303 221.578 102.423C221.578 101.55 221.699 100.762 221.941 100.058C222.191 99.3467 222.546 98.7417 223.008 98.243C223.47 97.7443 224.028 97.3593 224.68 97.088C225.34 96.8167 226.081 96.681 226.902 96.681ZM226.902 106.625C228.002 106.625 228.824 106.258 229.366 105.525C229.909 104.784 230.18 103.754 230.18 102.434C230.18 101.107 229.909 100.073 229.366 99.332C228.824 98.5913 228.002 98.221 226.902 98.221C226.345 98.221 225.857 98.3163 225.439 98.507C225.029 98.6977 224.684 98.9727 224.405 99.332C224.134 99.6913 223.929 100.135 223.789 100.663C223.657 101.184 223.591 101.774 223.591 102.434C223.591 103.754 223.863 104.784 224.405 105.525C224.955 106.258 225.788 106.625 226.902 106.625ZM237.915 108.176C237.035 108.176 236.357 107.93 235.88 107.439C235.411 106.948 235.176 106.24 235.176 105.316V98.496H233.834C233.717 98.496 233.618 98.463 233.537 98.397C233.457 98.3237 233.416 98.2137 233.416 98.067V97.286L235.242 97.055L235.693 93.612C235.715 93.502 235.763 93.414 235.836 93.348C235.917 93.2747 236.02 93.238 236.144 93.238H237.134V97.077H240.357V98.496H237.134V105.184C237.134 105.653 237.248 106.002 237.475 106.229C237.703 106.456 237.996 106.57 238.355 106.57C238.561 106.57 238.737 106.544 238.883 106.493C239.037 106.434 239.169 106.372 239.279 106.306C239.389 106.24 239.481 106.181 239.554 106.13C239.635 106.071 239.705 106.042 239.763 106.042C239.866 106.042 239.958 106.104 240.038 106.229L240.61 107.164C240.273 107.479 239.866 107.729 239.389 107.912C238.913 108.088 238.421 108.176 237.915 108.176ZM247.012 96.681C247.826 96.681 248.559 96.8167 249.212 97.088C249.864 97.3593 250.422 97.7443 250.884 98.243C251.346 98.7417 251.698 99.3467 251.94 100.058C252.189 100.762 252.314 101.55 252.314 102.423C252.314 103.303 252.189 104.095 251.94 104.799C251.698 105.503 251.346 106.104 250.884 106.603C250.422 107.102 249.864 107.487 249.212 107.758C248.559 108.022 247.826 108.154 247.012 108.154C246.19 108.154 245.45 108.022 244.79 107.758C244.137 107.487 243.58 107.102 243.118 106.603C242.656 106.104 242.3 105.503 242.051 104.799C241.809 104.095 241.688 103.303 241.688 102.423C241.688 101.55 241.809 100.762 242.051 100.058C242.3 99.3467 242.656 98.7417 243.118 98.243C243.58 97.7443 244.137 97.3593 244.79 97.088C245.45 96.8167 246.19 96.681 247.012 96.681ZM247.012 106.625C248.112 106.625 248.933 106.258 249.476 105.525C250.018 104.784 250.29 103.754 250.29 102.434C250.29 101.107 250.018 100.073 249.476 99.332C248.933 98.5913 248.112 98.221 247.012 98.221C246.454 98.221 245.967 98.3163 245.549 98.507C245.138 98.6977 244.793 98.9727 244.515 99.332C244.243 99.6913 244.038 100.135 243.899 100.663C243.767 101.184 243.701 101.774 243.701 102.434C243.701 103.754 243.972 104.784 244.515 105.525C245.065 106.258 245.897 106.625 247.012 106.625ZM262.552 98.837C262.493 98.9177 262.435 98.98 262.376 99.024C262.317 99.068 262.237 99.09 262.134 99.09C262.024 99.09 261.903 99.046 261.771 98.958C261.639 98.8627 261.474 98.76 261.276 98.65C261.085 98.54 260.847 98.441 260.561 98.353C260.282 98.2577 259.938 98.21 259.527 98.21C258.977 98.21 258.493 98.309 258.075 98.507C257.657 98.6977 257.305 98.9763 257.019 99.343C256.74 99.7097 256.528 100.153 256.381 100.674C256.242 101.195 256.172 101.778 256.172 102.423C256.172 103.098 256.249 103.699 256.403 104.227C256.557 104.748 256.773 105.188 257.052 105.547C257.338 105.899 257.679 106.17 258.075 106.361C258.478 106.544 258.929 106.636 259.428 106.636C259.905 106.636 260.297 106.581 260.605 106.471C260.913 106.354 261.166 106.225 261.364 106.086C261.569 105.947 261.738 105.822 261.87 105.712C262.009 105.595 262.145 105.536 262.277 105.536C262.438 105.536 262.563 105.598 262.651 105.723L263.201 106.438C262.959 106.739 262.684 106.995 262.376 107.208C262.068 107.421 261.734 107.6 261.375 107.747C261.023 107.886 260.653 107.989 260.264 108.055C259.875 108.121 259.479 108.154 259.076 108.154C258.379 108.154 257.73 108.026 257.129 107.769C256.535 107.512 256.018 107.142 255.578 106.658C255.138 106.167 254.793 105.565 254.544 104.854C254.295 104.143 254.17 103.332 254.17 102.423C254.17 101.594 254.284 100.828 254.511 100.124C254.746 99.42 255.083 98.815 255.523 98.309C255.97 97.7957 256.517 97.396 257.162 97.11C257.815 96.824 258.563 96.681 259.406 96.681C260.191 96.681 260.88 96.8093 261.474 97.066C262.075 97.3153 262.607 97.671 263.069 98.133L262.552 98.837ZM269.807 96.681C270.621 96.681 271.354 96.8167 272.007 97.088C272.659 97.3593 273.217 97.7443 273.679 98.243C274.141 98.7417 274.493 99.3467 274.735 100.058C274.984 100.762 275.109 101.55 275.109 102.423C275.109 103.303 274.984 104.095 274.735 104.799C274.493 105.503 274.141 106.104 273.679 106.603C273.217 107.102 272.659 107.487 272.007 107.758C271.354 108.022 270.621 108.154 269.807 108.154C268.985 108.154 268.245 108.022 267.585 107.758C266.932 107.487 266.375 107.102 265.913 106.603C265.451 106.104 265.095 105.503 264.846 104.799C264.604 104.095 264.483 103.303 264.483 102.423C264.483 101.55 264.604 100.762 264.846 100.058C265.095 99.3467 265.451 98.7417 265.913 98.243C266.375 97.7443 266.932 97.3593 267.585 97.088C268.245 96.8167 268.985 96.681 269.807 96.681ZM269.807 106.625C270.907 106.625 271.728 106.258 272.271 105.525C272.813 104.784 273.085 103.754 273.085 102.434C273.085 101.107 272.813 100.073 272.271 99.332C271.728 98.5913 270.907 98.221 269.807 98.221C269.249 98.221 268.762 98.3163 268.344 98.507C267.933 98.6977 267.588 98.9727 267.31 99.332C267.038 99.6913 266.833 100.135 266.694 100.663C266.562 101.184 266.496 101.774 266.496 102.434C266.496 103.754 266.767 104.784 267.31 105.525C267.86 106.258 268.692 106.625 269.807 106.625ZM279.616 91.797V108H277.658V91.797H279.616Z" fill="white"/>
</svg>
