<svg width="406" height="228" viewBox="0 0 406 228" fill="none" xmlns="http://www.w3.org/2000/svg">
<rect width="406" height="228" fill="black"/>
<path d="M57.6265 47.975V53.486H64.1055V55.224H57.6265V62H55.4925V46.237H65.2055V47.975H57.6265ZM69.495 50.857V62H67.537V50.857H69.495ZM69.913 47.359C69.913 47.5497 69.8726 47.7293 69.792 47.898C69.7186 48.0593 69.616 48.206 69.484 48.338C69.3593 48.4627 69.209 48.5617 69.033 48.635C68.8643 48.7083 68.6846 48.745 68.494 48.745C68.3033 48.745 68.1236 48.7083 67.955 48.635C67.7936 48.5617 67.6506 48.4627 67.526 48.338C67.4013 48.206 67.3023 48.0593 67.229 47.898C67.1556 47.7293 67.119 47.5497 67.119 47.359C67.119 47.1683 67.1556 46.9887 67.229 46.82C67.3023 46.644 67.4013 46.4937 67.526 46.369C67.6506 46.237 67.7936 46.1343 67.955 46.061C68.1236 45.9877 68.3033 45.951 68.494 45.951C68.6846 45.951 68.8643 45.9877 69.033 46.061C69.209 46.1343 69.3593 46.237 69.484 46.369C69.616 46.4937 69.7186 46.644 69.792 46.82C69.8726 46.9887 69.913 47.1683 69.913 47.359ZM74.5601 52.474C74.8021 52.2027 75.0588 51.957 75.3301 51.737C75.6015 51.517 75.8875 51.33 76.1881 51.176C76.4961 51.0147 76.8188 50.8937 77.1561 50.813C77.5008 50.725 77.8711 50.681 78.2671 50.681C78.8758 50.681 79.4111 50.7837 79.8731 50.989C80.3425 51.187 80.7311 51.473 81.0391 51.847C81.3545 52.2137 81.5928 52.6573 81.7541 53.178C81.9155 53.6987 81.9961 54.2743 81.9961 54.905V62H80.0271V54.905C80.0271 54.0617 79.8328 53.409 79.4441 52.947C79.0628 52.4777 78.4798 52.243 77.6951 52.243C77.1158 52.243 76.5731 52.3823 76.0671 52.661C75.5685 52.9397 75.1065 53.3173 74.6811 53.794V62H72.7121V50.857H73.8891C74.1678 50.857 74.3401 50.9927 74.4061 51.264L74.5601 52.474ZM91.0187 56.984C90.1167 57.0133 89.3467 57.0867 88.7087 57.204C88.078 57.314 87.561 57.4607 87.1577 57.644C86.7617 57.8273 86.472 58.0437 86.2887 58.293C86.1127 58.5423 86.0247 58.821 86.0247 59.129C86.0247 59.4223 86.0724 59.6753 86.1677 59.888C86.263 60.1007 86.3914 60.2767 86.5527 60.416C86.7214 60.548 86.9157 60.647 87.1357 60.713C87.363 60.7717 87.605 60.801 87.8617 60.801C88.2064 60.801 88.5217 60.768 88.8077 60.702C89.0937 60.6287 89.3614 60.526 89.6107 60.394C89.8674 60.262 90.1094 60.1043 90.3367 59.921C90.5714 59.7377 90.7987 59.5287 91.0187 59.294V56.984ZM84.6937 52.43C85.3097 51.836 85.9734 51.3923 86.6847 51.099C87.396 50.8057 88.1844 50.659 89.0497 50.659C89.673 50.659 90.2267 50.7617 90.7107 50.967C91.1947 51.1723 91.6017 51.4583 91.9317 51.825C92.2617 52.1917 92.511 52.6353 92.6797 53.156C92.8484 53.6767 92.9327 54.2487 92.9327 54.872V62H92.0637C91.873 62 91.7264 61.9707 91.6237 61.912C91.521 61.846 91.4404 61.7213 91.3817 61.538L91.1617 60.482C90.8684 60.7533 90.5824 60.9953 90.3037 61.208C90.025 61.4133 89.7317 61.5893 89.4237 61.736C89.1157 61.8753 88.7857 61.9817 88.4337 62.055C88.089 62.1357 87.704 62.176 87.2787 62.176C86.846 62.176 86.439 62.1173 86.0577 62C85.6764 61.8753 85.3427 61.692 85.0567 61.45C84.778 61.208 84.5544 60.9037 84.3857 60.537C84.2244 60.163 84.1437 59.723 84.1437 59.217C84.1437 58.777 84.2647 58.3553 84.5067 57.952C84.7487 57.5413 85.141 57.1783 85.6837 56.863C86.2264 56.5477 86.934 56.291 87.8067 56.093C88.6794 55.8877 89.75 55.7703 91.0187 55.741V54.872C91.0187 54.0067 90.8317 53.354 90.4577 52.914C90.0837 52.4667 89.5374 52.243 88.8187 52.243C88.3347 52.243 87.9277 52.3053 87.5977 52.43C87.275 52.5473 86.9927 52.683 86.7507 52.837C86.516 52.9837 86.3107 53.1193 86.1347 53.244C85.966 53.3613 85.7974 53.42 85.6287 53.42C85.4967 53.42 85.383 53.387 85.2877 53.321C85.1924 53.2477 85.1117 53.1597 85.0457 53.057L84.6937 52.43ZM97.9393 45.797V62H95.9813V45.797H97.9393ZM111.858 54.41C112.467 54.41 113.002 54.3293 113.464 54.168C113.934 54.0067 114.326 53.783 114.641 53.497C114.964 53.2037 115.206 52.8553 115.367 52.452C115.529 52.0487 115.609 51.605 115.609 51.121C115.609 50.1163 115.298 49.3317 114.674 48.767C114.058 48.2023 113.12 47.92 111.858 47.92H109.328V54.41H111.858ZM111.858 46.237C112.856 46.237 113.721 46.3543 114.454 46.589C115.195 46.8163 115.807 47.1427 116.291 47.568C116.775 47.9933 117.135 48.5067 117.369 49.108C117.611 49.7093 117.732 50.3803 117.732 51.121C117.732 51.8543 117.604 52.5253 117.347 53.134C117.091 53.7427 116.713 54.267 116.214 54.707C115.723 55.147 115.111 55.4917 114.377 55.741C113.651 55.983 112.812 56.104 111.858 56.104H109.328V62H107.205V46.237H111.858ZM121.6 53.09C121.952 52.3273 122.385 51.7333 122.898 51.308C123.412 50.8753 124.039 50.659 124.779 50.659C125.014 50.659 125.238 50.6847 125.45 50.736C125.67 50.7873 125.865 50.868 126.033 50.978L125.89 52.441C125.846 52.6243 125.736 52.716 125.56 52.716C125.458 52.716 125.307 52.694 125.109 52.65C124.911 52.606 124.688 52.584 124.438 52.584C124.086 52.584 123.771 52.6353 123.492 52.738C123.221 52.8407 122.975 52.9947 122.755 53.2C122.543 53.398 122.348 53.6473 122.172 53.948C122.004 54.2413 121.85 54.5787 121.71 54.96V62H119.741V50.857H120.863C121.076 50.857 121.223 50.8973 121.303 50.978C121.384 51.0587 121.439 51.198 121.468 51.396L121.6 53.09ZM134.762 55.213C134.762 54.7583 134.696 54.344 134.564 53.97C134.439 53.5887 134.252 53.2623 134.003 52.991C133.761 52.7123 133.464 52.4997 133.112 52.353C132.76 52.199 132.36 52.122 131.913 52.122C130.974 52.122 130.23 52.397 129.68 52.947C129.137 53.4897 128.8 54.245 128.668 55.213H134.762ZM136.346 60.438C136.104 60.7313 135.814 60.988 135.477 61.208C135.14 61.4207 134.777 61.5967 134.388 61.736C134.007 61.8753 133.611 61.978 133.2 62.044C132.789 62.1173 132.382 62.154 131.979 62.154C131.209 62.154 130.498 62.0257 129.845 61.769C129.2 61.505 128.639 61.1237 128.162 60.625C127.693 60.119 127.326 59.4957 127.062 58.755C126.798 58.0143 126.666 57.1637 126.666 56.203C126.666 55.4257 126.783 54.6997 127.018 54.025C127.26 53.3503 127.605 52.7673 128.052 52.276C128.499 51.7773 129.046 51.3887 129.691 51.11C130.336 50.824 131.062 50.681 131.869 50.681C132.536 50.681 133.152 50.7947 133.717 51.022C134.289 51.242 134.78 51.5647 135.191 51.99C135.609 52.408 135.935 52.9287 136.17 53.552C136.405 54.168 136.522 54.872 136.522 55.664C136.522 55.972 136.489 56.1773 136.423 56.28C136.357 56.3827 136.232 56.434 136.049 56.434H128.602C128.624 57.138 128.719 57.7503 128.888 58.271C129.064 58.7917 129.306 59.228 129.614 59.58C129.922 59.9247 130.289 60.185 130.714 60.361C131.139 60.5297 131.616 60.614 132.144 60.614C132.635 60.614 133.057 60.559 133.409 60.449C133.768 60.3317 134.076 60.207 134.333 60.075C134.59 59.943 134.802 59.822 134.971 59.712C135.147 59.5947 135.297 59.536 135.422 59.536C135.583 59.536 135.708 59.5983 135.796 59.723L136.346 60.438ZM145.417 52.694C145.329 52.8553 145.193 52.936 145.01 52.936C144.9 52.936 144.775 52.8957 144.636 52.815C144.497 52.7343 144.324 52.6463 144.119 52.551C143.921 52.4483 143.683 52.3567 143.404 52.276C143.125 52.188 142.795 52.144 142.414 52.144C142.084 52.144 141.787 52.188 141.523 52.276C141.259 52.3567 141.032 52.4703 140.841 52.617C140.658 52.7637 140.515 52.936 140.412 53.134C140.317 53.3247 140.269 53.5337 140.269 53.761C140.269 54.047 140.35 54.2853 140.511 54.476C140.68 54.6667 140.9 54.8317 141.171 54.971C141.442 55.1103 141.75 55.235 142.095 55.345C142.44 55.4477 142.792 55.5613 143.151 55.686C143.518 55.8033 143.873 55.9353 144.218 56.082C144.563 56.2287 144.871 56.412 145.142 56.632C145.413 56.852 145.63 57.1233 145.791 57.446C145.96 57.7613 146.044 58.1427 146.044 58.59C146.044 59.1033 145.952 59.58 145.769 60.02C145.586 60.4527 145.314 60.8303 144.955 61.153C144.596 61.4683 144.156 61.7177 143.635 61.901C143.114 62.0843 142.513 62.176 141.831 62.176C141.054 62.176 140.35 62.0513 139.719 61.802C139.088 61.5453 138.553 61.219 138.113 60.823L138.575 60.075C138.634 59.9797 138.703 59.9063 138.784 59.855C138.865 59.8037 138.967 59.778 139.092 59.778C139.224 59.778 139.363 59.8293 139.51 59.932C139.657 60.0347 139.833 60.1483 140.038 60.273C140.251 60.3977 140.507 60.5113 140.808 60.614C141.109 60.7167 141.483 60.768 141.93 60.768C142.311 60.768 142.645 60.7203 142.931 60.625C143.217 60.5223 143.455 60.3867 143.646 60.218C143.837 60.0493 143.976 59.855 144.064 59.635C144.159 59.415 144.207 59.1803 144.207 58.931C144.207 58.623 144.123 58.37 143.954 58.172C143.793 57.9667 143.576 57.7943 143.305 57.655C143.034 57.5083 142.722 57.3837 142.37 57.281C142.025 57.171 141.67 57.0573 141.303 56.94C140.944 56.8227 140.588 56.6907 140.236 56.544C139.891 56.39 139.583 56.1993 139.312 55.972C139.041 55.7447 138.821 55.466 138.652 55.136C138.491 54.7987 138.41 54.3917 138.41 53.915C138.41 53.4897 138.498 53.0827 138.674 52.694C138.85 52.298 139.107 51.9533 139.444 51.66C139.781 51.3593 140.196 51.121 140.687 50.945C141.178 50.769 141.739 50.681 142.37 50.681C143.103 50.681 143.76 50.7983 144.339 51.033C144.926 51.2603 145.432 51.5757 145.857 51.979L145.417 52.694ZM155.903 55.213C155.903 54.7583 155.837 54.344 155.705 53.97C155.58 53.5887 155.393 53.2623 155.144 52.991C154.902 52.7123 154.605 52.4997 154.253 52.353C153.901 52.199 153.501 52.122 153.054 52.122C152.115 52.122 151.371 52.397 150.821 52.947C150.278 53.4897 149.941 54.245 149.809 55.213H155.903ZM157.487 60.438C157.245 60.7313 156.955 60.988 156.618 61.208C156.28 61.4207 155.917 61.5967 155.529 61.736C155.147 61.8753 154.751 61.978 154.341 62.044C153.93 62.1173 153.523 62.154 153.12 62.154C152.35 62.154 151.638 62.0257 150.986 61.769C150.34 61.505 149.779 61.1237 149.303 60.625C148.833 60.119 148.467 59.4957 148.203 58.755C147.939 58.0143 147.807 57.1637 147.807 56.203C147.807 55.4257 147.924 54.6997 148.159 54.025C148.401 53.3503 148.745 52.7673 149.193 52.276C149.64 51.7773 150.186 51.3887 150.832 51.11C151.477 50.824 152.203 50.681 153.01 50.681C153.677 50.681 154.293 50.7947 154.858 51.022C155.43 51.242 155.921 51.5647 156.332 51.99C156.75 52.408 157.076 52.9287 157.311 53.552C157.545 54.168 157.663 54.872 157.663 55.664C157.663 55.972 157.63 56.1773 157.564 56.28C157.498 56.3827 157.373 56.434 157.19 56.434H149.743C149.765 57.138 149.86 57.7503 150.029 58.271C150.205 58.7917 150.447 59.228 150.755 59.58C151.063 59.9247 151.429 60.185 151.855 60.361C152.28 60.5297 152.757 60.614 153.285 60.614C153.776 60.614 154.198 60.559 154.55 60.449C154.909 60.3317 155.217 60.207 155.474 60.075C155.73 59.943 155.943 59.822 156.112 59.712C156.288 59.5947 156.438 59.536 156.563 59.536C156.724 59.536 156.849 59.5983 156.937 59.723L157.487 60.438ZM161.916 52.474C162.158 52.2027 162.414 51.957 162.686 51.737C162.957 51.517 163.243 51.33 163.544 51.176C163.852 51.0147 164.174 50.8937 164.512 50.813C164.856 50.725 165.227 50.681 165.623 50.681C166.231 50.681 166.767 50.7837 167.229 50.989C167.698 51.187 168.087 51.473 168.395 51.847C168.71 52.2137 168.948 52.6573 169.11 53.178C169.271 53.6987 169.352 54.2743 169.352 54.905V62H167.383V54.905C167.383 54.0617 167.188 53.409 166.8 52.947C166.418 52.4777 165.835 52.243 165.051 52.243C164.471 52.243 163.929 52.3823 163.423 52.661C162.924 52.9397 162.462 53.3173 162.037 53.794V62H160.068V50.857H161.245C161.523 50.857 161.696 50.9927 161.762 51.264L161.916 52.474ZM175.606 62.176C174.726 62.176 174.047 61.9303 173.571 61.439C173.101 60.9477 172.867 60.24 172.867 59.316V52.496H171.525C171.407 52.496 171.308 52.463 171.228 52.397C171.147 52.3237 171.107 52.2137 171.107 52.067V51.286L172.933 51.055L173.384 47.612C173.406 47.502 173.453 47.414 173.527 47.348C173.607 47.2747 173.71 47.238 173.835 47.238H174.825V51.077H178.048V52.496H174.825V59.184C174.825 59.6533 174.938 60.0017 175.166 60.229C175.393 60.4563 175.686 60.57 176.046 60.57C176.251 60.57 176.427 60.5443 176.574 60.493C176.728 60.4343 176.86 60.372 176.97 60.306C177.08 60.24 177.171 60.1813 177.245 60.13C177.325 60.0713 177.395 60.042 177.454 60.042C177.556 60.042 177.648 60.1043 177.729 60.229L178.301 61.164C177.963 61.4793 177.556 61.7287 177.08 61.912C176.603 62.088 176.112 62.176 175.606 62.176ZM186.109 56.984C185.207 57.0133 184.437 57.0867 183.799 57.204C183.168 57.314 182.651 57.4607 182.248 57.644C181.852 57.8273 181.562 58.0437 181.379 58.293C181.203 58.5423 181.115 58.821 181.115 59.129C181.115 59.4223 181.162 59.6753 181.258 59.888C181.353 60.1007 181.481 60.2767 181.643 60.416C181.811 60.548 182.006 60.647 182.226 60.713C182.453 60.7717 182.695 60.801 182.952 60.801C183.296 60.801 183.612 60.768 183.898 60.702C184.184 60.6287 184.451 60.526 184.701 60.394C184.957 60.262 185.199 60.1043 185.427 59.921C185.661 59.7377 185.889 59.5287 186.109 59.294V56.984ZM179.784 52.43C180.4 51.836 181.063 51.3923 181.775 51.099C182.486 50.8057 183.274 50.659 184.14 50.659C184.763 50.659 185.317 50.7617 185.801 50.967C186.285 51.1723 186.692 51.4583 187.022 51.825C187.352 52.1917 187.601 52.6353 187.77 53.156C187.938 53.6767 188.023 54.2487 188.023 54.872V62H187.154C186.963 62 186.816 61.9707 186.714 61.912C186.611 61.846 186.53 61.7213 186.472 61.538L186.252 60.482C185.958 60.7533 185.672 60.9953 185.394 61.208C185.115 61.4133 184.822 61.5893 184.514 61.736C184.206 61.8753 183.876 61.9817 183.524 62.055C183.179 62.1357 182.794 62.176 182.369 62.176C181.936 62.176 181.529 62.1173 181.148 62C180.766 61.8753 180.433 61.692 180.147 61.45C179.868 61.208 179.644 60.9037 179.476 60.537C179.314 60.163 179.234 59.723 179.234 59.217C179.234 58.777 179.355 58.3553 179.597 57.952C179.839 57.5413 180.231 57.1783 180.774 56.863C181.316 56.5477 182.024 56.291 182.897 56.093C183.769 55.8877 184.84 55.7703 186.109 55.741V54.872C186.109 54.0067 185.922 53.354 185.548 52.914C185.174 52.4667 184.627 52.243 183.909 52.243C183.425 52.243 183.018 52.3053 182.688 52.43C182.365 52.5473 182.083 52.683 181.841 52.837C181.606 52.9837 181.401 53.1193 181.225 53.244C181.056 53.3613 180.887 53.42 180.719 53.42C180.587 53.42 180.473 53.387 180.378 53.321C180.282 53.2477 180.202 53.1597 180.136 53.057L179.784 52.43ZM201.195 62H199.237V52.496H193.495V59.184C193.495 59.6533 193.608 60.0017 193.836 60.229C194.063 60.4563 194.356 60.57 194.716 60.57C194.921 60.57 195.097 60.5443 195.244 60.493C195.398 60.4343 195.53 60.372 195.64 60.306C195.75 60.24 195.841 60.1813 195.915 60.13C195.995 60.0713 196.065 60.042 196.124 60.042C196.226 60.042 196.318 60.1043 196.399 60.229L196.971 61.164C196.633 61.4793 196.226 61.7287 195.75 61.912C195.273 62.088 194.782 62.176 194.276 62.176C193.396 62.176 192.717 61.9303 192.241 61.439C191.771 60.9477 191.537 60.24 191.537 59.316V52.496H190.195C190.077 52.496 189.978 52.463 189.898 52.397C189.817 52.3237 189.777 52.2137 189.777 52.067V51.286L191.603 51.044L192.054 47.612C192.076 47.502 192.123 47.414 192.197 47.348C192.277 47.2747 192.38 47.238 192.505 47.238H193.495V51.077H201.195V62ZM201.679 47.282C201.679 47.4727 201.638 47.6523 201.558 47.821C201.484 47.9823 201.382 48.1253 201.25 48.25C201.125 48.3747 200.978 48.4737 200.81 48.547C200.641 48.6203 200.461 48.657 200.271 48.657C200.08 48.657 199.9 48.6203 199.732 48.547C199.57 48.4737 199.427 48.3747 199.303 48.25C199.178 48.1253 199.079 47.9823 199.006 47.821C198.932 47.6523 198.896 47.4727 198.896 47.282C198.896 47.0913 198.932 46.9117 199.006 46.743C199.079 46.567 199.178 46.4167 199.303 46.292C199.427 46.16 199.57 46.0573 199.732 45.984C199.9 45.9107 200.08 45.874 200.271 45.874C200.461 45.874 200.641 45.9107 200.81 45.984C200.978 46.0573 201.125 46.16 201.25 46.292C201.382 46.4167 201.484 46.567 201.558 46.743C201.638 46.9117 201.679 47.0913 201.679 47.282ZM209.108 50.681C209.922 50.681 210.656 50.8167 211.308 51.088C211.961 51.3593 212.518 51.7443 212.98 52.243C213.442 52.7417 213.794 53.3467 214.036 54.058C214.286 54.762 214.41 55.5503 214.41 56.423C214.41 57.303 214.286 58.095 214.036 58.799C213.794 59.503 213.442 60.1043 212.98 60.603C212.518 61.1017 211.961 61.4867 211.308 61.758C210.656 62.022 209.922 62.154 209.108 62.154C208.287 62.154 207.546 62.022 206.886 61.758C206.234 61.4867 205.676 61.1017 205.214 60.603C204.752 60.1043 204.397 59.503 204.147 58.799C203.905 58.095 203.784 57.303 203.784 56.423C203.784 55.5503 203.905 54.762 204.147 54.058C204.397 53.3467 204.752 52.7417 205.214 52.243C205.676 51.7443 206.234 51.3593 206.886 51.088C207.546 50.8167 208.287 50.681 209.108 50.681ZM209.108 60.625C210.208 60.625 211.03 60.2583 211.572 59.525C212.115 58.7843 212.386 57.754 212.386 56.434C212.386 55.1067 212.115 54.0727 211.572 53.332C211.03 52.5913 210.208 52.221 209.108 52.221C208.551 52.221 208.063 52.3163 207.645 52.507C207.235 52.6977 206.89 52.9727 206.611 53.332C206.34 53.6913 206.135 54.135 205.995 54.663C205.863 55.1837 205.797 55.774 205.797 56.434C205.797 57.754 206.069 58.7843 206.611 59.525C207.161 60.2583 207.994 60.625 209.108 60.625ZM218.742 52.474C218.984 52.2027 219.24 51.957 219.512 51.737C219.783 51.517 220.069 51.33 220.37 51.176C220.678 51.0147 221 50.8937 221.338 50.813C221.682 50.725 222.053 50.681 222.449 50.681C223.057 50.681 223.593 50.7837 224.055 50.989C224.524 51.187 224.913 51.473 225.221 51.847C225.536 52.2137 225.774 52.6573 225.936 53.178C226.097 53.6987 226.178 54.2743 226.178 54.905V62H224.209V54.905C224.209 54.0617 224.014 53.409 223.626 52.947C223.244 52.4777 222.661 52.243 221.877 52.243C221.297 52.243 220.755 52.3823 220.249 52.661C219.75 52.9397 219.288 53.3173 218.863 53.794V62H216.894V50.857H218.071C218.349 50.857 218.522 50.9927 218.588 51.264L218.742 52.474ZM234.614 54.575H240.048V56.236H234.614V54.575ZM261.849 54.421V60.471C261.057 61.043 260.21 61.472 259.308 61.758C258.414 62.0367 257.431 62.176 256.36 62.176C255.092 62.176 253.948 61.9817 252.928 61.593C251.909 61.197 251.036 60.647 250.31 59.943C249.592 59.2317 249.038 58.381 248.649 57.391C248.261 56.401 248.066 55.312 248.066 54.124C248.066 52.9213 248.253 51.825 248.627 50.835C249.009 49.845 249.548 48.998 250.244 48.294C250.941 47.5827 251.788 47.0327 252.785 46.644C253.783 46.2553 254.897 46.061 256.129 46.061C256.753 46.061 257.332 46.1087 257.867 46.204C258.403 46.292 258.898 46.424 259.352 46.6C259.807 46.7687 260.229 46.9777 260.617 47.227C261.006 47.469 261.369 47.744 261.706 48.052L261.101 49.02C261.006 49.1667 260.881 49.262 260.727 49.306C260.581 49.3427 260.416 49.306 260.232 49.196C260.056 49.0933 259.855 48.9687 259.627 48.822C259.4 48.6753 259.121 48.536 258.791 48.404C258.469 48.2647 258.084 48.1473 257.636 48.052C257.196 47.9567 256.672 47.909 256.063 47.909C255.176 47.909 254.373 48.0557 253.654 48.349C252.936 48.635 252.323 49.0493 251.817 49.592C251.311 50.1273 250.923 50.78 250.651 51.55C250.38 52.3127 250.244 53.1707 250.244 54.124C250.244 55.114 250.384 56.0013 250.662 56.786C250.948 57.5633 251.352 58.227 251.872 58.777C252.4 59.3197 253.038 59.734 253.786 60.02C254.534 60.306 255.374 60.449 256.305 60.449C257.039 60.449 257.688 60.3683 258.252 60.207C258.824 60.0383 259.382 59.8073 259.924 59.514V56.049H257.471C257.332 56.049 257.218 56.0087 257.13 55.928C257.05 55.8473 257.009 55.7483 257.009 55.631V54.421H261.849ZM266.341 53.09C266.693 52.3273 267.125 51.7333 267.639 51.308C268.152 50.8753 268.779 50.659 269.52 50.659C269.754 50.659 269.978 50.6847 270.191 50.736C270.411 50.7873 270.605 50.868 270.774 50.978L270.631 52.441C270.587 52.6243 270.477 52.716 270.301 52.716C270.198 52.716 270.048 52.694 269.85 52.65C269.652 52.606 269.428 52.584 269.179 52.584C268.827 52.584 268.511 52.6353 268.233 52.738C267.961 52.8407 267.716 52.9947 267.496 53.2C267.283 53.398 267.089 53.6473 266.913 53.948C266.744 54.2413 266.59 54.5787 266.451 54.96V62H264.482V50.857H265.604C265.816 50.857 265.963 50.8973 266.044 50.978C266.124 51.0587 266.179 51.198 266.209 51.396L266.341 53.09ZM276.741 50.681C277.555 50.681 278.288 50.8167 278.941 51.088C279.594 51.3593 280.151 51.7443 280.613 52.243C281.075 52.7417 281.427 53.3467 281.669 54.058C281.918 54.762 282.043 55.5503 282.043 56.423C282.043 57.303 281.918 58.095 281.669 58.799C281.427 59.503 281.075 60.1043 280.613 60.603C280.151 61.1017 279.594 61.4867 278.941 61.758C278.288 62.022 277.555 62.154 276.741 62.154C275.92 62.154 275.179 62.022 274.519 61.758C273.866 61.4867 273.309 61.1017 272.847 60.603C272.385 60.1043 272.029 59.503 271.78 58.799C271.538 58.095 271.417 57.303 271.417 56.423C271.417 55.5503 271.538 54.762 271.78 54.058C272.029 53.3467 272.385 52.7417 272.847 52.243C273.309 51.7443 273.866 51.3593 274.519 51.088C275.179 50.8167 275.92 50.681 276.741 50.681ZM276.741 60.625C277.841 60.625 278.662 60.2583 279.205 59.525C279.748 58.7843 280.019 57.754 280.019 56.434C280.019 55.1067 279.748 54.0727 279.205 53.332C278.662 52.5913 277.841 52.221 276.741 52.221C276.184 52.221 275.696 52.3163 275.278 52.507C274.867 52.6977 274.523 52.9727 274.244 53.332C273.973 53.6913 273.767 54.135 273.628 54.663C273.496 55.1837 273.43 55.774 273.43 56.434C273.43 57.754 273.701 58.7843 274.244 59.525C274.794 60.2583 275.626 60.625 276.741 60.625ZM293.69 50.857V62H292.524C292.245 62 292.069 61.8643 291.996 61.593L291.842 60.394C291.358 60.9293 290.815 61.362 290.214 61.692C289.612 62.0147 288.923 62.176 288.146 62.176C287.537 62.176 286.998 62.077 286.529 61.879C286.067 61.6737 285.678 61.3877 285.363 61.021C285.047 60.6543 284.809 60.2107 284.648 59.69C284.494 59.1693 284.417 58.5937 284.417 57.963V50.857H286.375V57.963C286.375 58.8063 286.565 59.459 286.947 59.921C287.335 60.383 287.926 60.614 288.718 60.614C289.297 60.614 289.836 60.4783 290.335 60.207C290.841 59.9283 291.306 59.547 291.732 59.063V50.857H293.69ZM298.763 59.316C299.122 59.8 299.515 60.141 299.94 60.339C300.365 60.537 300.842 60.636 301.37 60.636C302.411 60.636 303.211 60.2657 303.768 59.525C304.325 58.7843 304.604 57.7283 304.604 56.357C304.604 55.631 304.538 55.0077 304.406 54.487C304.281 53.9663 304.098 53.541 303.856 53.211C303.614 52.8737 303.317 52.628 302.965 52.474C302.613 52.32 302.213 52.243 301.766 52.243C301.128 52.243 300.567 52.3897 300.083 52.683C299.606 52.9763 299.166 53.3907 298.763 53.926V59.316ZM298.664 52.584C299.133 52.0047 299.676 51.539 300.292 51.187C300.908 50.835 301.612 50.659 302.404 50.659C303.049 50.659 303.632 50.7837 304.153 51.033C304.674 51.275 305.117 51.638 305.484 52.122C305.851 52.5987 306.133 53.1927 306.331 53.904C306.529 54.6153 306.628 55.433 306.628 56.357C306.628 57.1783 306.518 57.9447 306.298 58.656C306.078 59.36 305.759 59.9723 305.341 60.493C304.93 61.0063 304.424 61.4133 303.823 61.714C303.229 62.0073 302.558 62.154 301.81 62.154C301.128 62.154 300.541 62.0403 300.05 61.813C299.566 61.5783 299.137 61.2557 298.763 60.845V65.773H296.794V50.857H297.971C298.25 50.857 298.422 50.9927 298.488 51.264L298.664 52.584ZM314.634 50.505C314.737 49.7863 314.935 49.152 315.228 48.602C315.521 48.0447 315.892 47.579 316.339 47.205C316.794 46.831 317.311 46.5487 317.89 46.358C318.477 46.16 319.107 46.061 319.782 46.061C320.449 46.061 321.065 46.1563 321.63 46.347C322.195 46.5377 322.679 46.809 323.082 47.161C323.493 47.513 323.812 47.9383 324.039 48.437C324.266 48.9357 324.38 49.4893 324.38 50.098C324.38 50.5967 324.314 51.044 324.182 51.44C324.057 51.8287 323.874 52.1697 323.632 52.463C323.397 52.7563 323.111 53.0057 322.774 53.211C322.437 53.4163 322.059 53.585 321.641 53.717C322.668 53.981 323.438 54.4357 323.951 55.081C324.472 55.719 324.732 56.5183 324.732 57.479C324.732 58.205 324.593 58.8577 324.314 59.437C324.043 60.0163 323.669 60.5113 323.192 60.922C322.715 61.3253 322.158 61.637 321.52 61.857C320.889 62.0697 320.211 62.176 319.485 62.176C318.649 62.176 317.934 62.0733 317.34 61.868C316.746 61.6553 316.244 61.3657 315.833 60.999C315.422 60.6323 315.085 60.1997 314.821 59.701C314.557 59.195 314.333 58.6487 314.15 58.062L314.997 57.71C315.217 57.6147 315.43 57.589 315.635 57.633C315.848 57.677 316.002 57.798 316.097 57.996C316.192 58.2013 316.31 58.447 316.449 58.733C316.596 59.019 316.794 59.294 317.043 59.558C317.292 59.822 317.608 60.0457 317.989 60.229C318.378 60.4123 318.869 60.504 319.463 60.504C320.013 60.504 320.493 60.416 320.904 60.24C321.322 60.0567 321.667 59.822 321.938 59.536C322.217 59.25 322.426 58.931 322.565 58.579C322.704 58.227 322.774 57.8787 322.774 57.534C322.774 57.1087 322.719 56.72 322.609 56.368C322.499 56.016 322.294 55.7117 321.993 55.455C321.692 55.1983 321.278 54.9967 320.75 54.85C320.229 54.7033 319.558 54.63 318.737 54.63V53.211C319.412 53.2037 319.984 53.1303 320.453 52.991C320.93 52.8517 321.315 52.661 321.608 52.419C321.909 52.177 322.125 51.8873 322.257 51.55C322.396 51.2127 322.466 50.8387 322.466 50.428C322.466 49.9733 322.393 49.5773 322.246 49.24C322.107 48.9027 321.912 48.624 321.663 48.404C321.414 48.184 321.117 48.019 320.772 47.909C320.435 47.799 320.068 47.744 319.672 47.744C319.276 47.744 318.906 47.8027 318.561 47.92C318.224 48.0373 317.923 48.2023 317.659 48.415C317.402 48.6203 317.186 48.866 317.01 49.152C316.834 49.438 316.709 49.7533 316.636 50.098C316.541 50.3547 316.42 50.527 316.273 50.615C316.134 50.6957 315.928 50.7177 315.657 50.681L314.634 50.505ZM327.396 50.505C327.498 49.7863 327.696 49.152 327.99 48.602C328.283 48.0447 328.653 47.579 329.101 47.205C329.555 46.831 330.072 46.5487 330.652 46.358C331.238 46.16 331.869 46.061 332.544 46.061C333.211 46.061 333.827 46.1563 334.392 46.347C334.956 46.5377 335.44 46.809 335.844 47.161C336.254 47.513 336.573 47.9383 336.801 48.437C337.028 48.9357 337.142 49.4893 337.142 50.098C337.142 50.5967 337.076 51.044 336.944 51.44C336.819 51.8287 336.636 52.1697 336.394 52.463C336.159 52.7563 335.873 53.0057 335.536 53.211C335.198 53.4163 334.821 53.585 334.403 53.717C335.429 53.981 336.199 54.4357 336.713 55.081C337.233 55.719 337.494 56.5183 337.494 57.479C337.494 58.205 337.354 58.8577 337.076 59.437C336.804 60.0163 336.43 60.5113 335.954 60.922C335.477 61.3253 334.92 61.637 334.282 61.857C333.651 62.0697 332.973 62.176 332.247 62.176C331.411 62.176 330.696 62.0733 330.102 61.868C329.508 61.6553 329.005 61.3657 328.595 60.999C328.184 60.6323 327.847 60.1997 327.583 59.701C327.319 59.195 327.095 58.6487 326.912 58.062L327.759 57.71C327.979 57.6147 328.191 57.589 328.397 57.633C328.609 57.677 328.763 57.798 328.859 57.996C328.954 58.2013 329.071 58.447 329.211 58.733C329.357 59.019 329.555 59.294 329.805 59.558C330.054 59.822 330.369 60.0457 330.751 60.229C331.139 60.4123 331.631 60.504 332.225 60.504C332.775 60.504 333.255 60.416 333.666 60.24C334.084 60.0567 334.428 59.822 334.7 59.536C334.978 59.25 335.187 58.931 335.327 58.579C335.466 58.227 335.536 57.8787 335.536 57.534C335.536 57.1087 335.481 56.72 335.371 56.368C335.261 56.016 335.055 55.7117 334.755 55.455C334.454 55.1983 334.04 54.9967 333.512 54.85C332.991 54.7033 332.32 54.63 331.499 54.63V53.211C332.173 53.2037 332.745 53.1303 333.215 52.991C333.691 52.8517 334.076 52.661 334.37 52.419C334.67 52.177 334.887 51.8873 335.019 51.55C335.158 51.2127 335.228 50.8387 335.228 50.428C335.228 49.9733 335.154 49.5773 335.008 49.24C334.868 48.9027 334.674 48.624 334.425 48.404C334.175 48.184 333.878 48.019 333.534 47.909C333.196 47.799 332.83 47.744 332.434 47.744C332.038 47.744 331.667 47.8027 331.323 47.92C330.985 48.0373 330.685 48.2023 330.421 48.415C330.164 48.6203 329.948 48.866 329.772 49.152C329.596 49.438 329.471 49.7533 329.398 50.098C329.302 50.3547 329.181 50.527 329.035 50.615C328.895 50.6957 328.69 50.7177 328.419 50.681L327.396 50.505ZM345.731 54.575H351.165V56.236H345.731V54.575ZM61.1177 73.975V79.486H67.5967V81.224H61.1177V88H58.9837V72.237H68.6967V73.975H61.1177ZM72.9862 76.857V88H71.0282V76.857H72.9862ZM73.4042 73.359C73.4042 73.5497 73.3639 73.7293 73.2832 73.898C73.2099 74.0593 73.1072 74.206 72.9752 74.338C72.8505 74.4627 72.7002 74.5617 72.5242 74.635C72.3555 74.7083 72.1759 74.745 71.9852 74.745C71.7945 74.745 71.6149 74.7083 71.4462 74.635C71.2849 74.5617 71.1419 74.4627 71.0172 74.338C70.8925 74.206 70.7935 74.0593 70.7202 73.898C70.6469 73.7293 70.6102 73.5497 70.6102 73.359C70.6102 73.1683 70.6469 72.9887 70.7202 72.82C70.7935 72.644 70.8925 72.4937 71.0172 72.369C71.1419 72.237 71.2849 72.1343 71.4462 72.061C71.6149 71.9877 71.7945 71.951 71.9852 71.951C72.1759 71.951 72.3555 71.9877 72.5242 72.061C72.7002 72.1343 72.8505 72.237 72.9752 72.369C73.1072 72.4937 73.2099 72.644 73.2832 72.82C73.3639 72.9887 73.4042 73.1683 73.4042 73.359ZM78.0513 78.474C78.2933 78.2027 78.55 77.957 78.8213 77.737C79.0927 77.517 79.3787 77.33 79.6793 77.176C79.9873 77.0147 80.31 76.8937 80.6473 76.813C80.992 76.725 81.3623 76.681 81.7583 76.681C82.367 76.681 82.9023 76.7837 83.3643 76.989C83.8337 77.187 84.2223 77.473 84.5303 77.847C84.8457 78.2137 85.084 78.6573 85.2453 79.178C85.4067 79.6987 85.4873 80.2743 85.4873 80.905V88H83.5183V80.905C83.5183 80.0617 83.324 79.409 82.9353 78.947C82.554 78.4777 81.971 78.243 81.1863 78.243C80.607 78.243 80.0643 78.3823 79.5583 78.661C79.0597 78.9397 78.5977 79.3173 78.1723 79.794V88H76.2033V76.857H77.3803C77.659 76.857 77.8313 76.9927 77.8973 77.264L78.0513 78.474ZM94.5099 82.984C93.6079 83.0133 92.8379 83.0867 92.1999 83.204C91.5693 83.314 91.0523 83.4607 90.6489 83.644C90.2529 83.8273 89.9633 84.0437 89.7799 84.293C89.6039 84.5423 89.5159 84.821 89.5159 85.129C89.5159 85.4223 89.5636 85.6753 89.6589 85.888C89.7543 86.1007 89.8826 86.2767 90.0439 86.416C90.2126 86.548 90.4069 86.647 90.6269 86.713C90.8543 86.7717 91.0963 86.801 91.3529 86.801C91.6976 86.801 92.0129 86.768 92.2989 86.702C92.5849 86.6287 92.8526 86.526 93.1019 86.394C93.3586 86.262 93.6006 86.1043 93.8279 85.921C94.0626 85.7377 94.2899 85.5287 94.5099 85.294V82.984ZM88.1849 78.43C88.8009 77.836 89.4646 77.3923 90.1759 77.099C90.8873 76.8057 91.6756 76.659 92.5409 76.659C93.1643 76.659 93.7179 76.7617 94.2019 76.967C94.6859 77.1723 95.0929 77.4583 95.4229 77.825C95.7529 78.1917 96.0023 78.6353 96.1709 79.156C96.3396 79.6767 96.4239 80.2487 96.4239 80.872V88H95.5549C95.3643 88 95.2176 87.9707 95.1149 87.912C95.0123 87.846 94.9316 87.7213 94.8729 87.538L94.6529 86.482C94.3596 86.7533 94.0736 86.9953 93.7949 87.208C93.5163 87.4133 93.2229 87.5893 92.9149 87.736C92.6069 87.8753 92.2769 87.9817 91.9249 88.055C91.5803 88.1357 91.1953 88.176 90.7699 88.176C90.3373 88.176 89.9303 88.1173 89.5489 88C89.1676 87.8753 88.8339 87.692 88.5479 87.45C88.2693 87.208 88.0456 86.9037 87.8769 86.537C87.7156 86.163 87.6349 85.723 87.6349 85.217C87.6349 84.777 87.7559 84.3553 87.9979 83.952C88.2399 83.5413 88.6323 83.1783 89.1749 82.863C89.7176 82.5477 90.4253 82.291 91.2979 82.093C92.1706 81.8877 93.2413 81.7703 94.5099 81.741V80.872C94.5099 80.0067 94.3229 79.354 93.9489 78.914C93.5749 78.4667 93.0286 78.243 92.3099 78.243C91.8259 78.243 91.4189 78.3053 91.0889 78.43C90.7663 78.5473 90.4839 78.683 90.2419 78.837C90.0073 78.9837 89.8019 79.1193 89.6259 79.244C89.4573 79.3613 89.2886 79.42 89.1199 79.42C88.9879 79.42 88.8743 79.387 88.7789 79.321C88.6836 79.2477 88.6029 79.1597 88.5369 79.057L88.1849 78.43ZM101.254 78.474C101.496 78.2027 101.753 77.957 102.024 77.737C102.296 77.517 102.582 77.33 102.882 77.176C103.19 77.0147 103.513 76.8937 103.85 76.813C104.195 76.725 104.565 76.681 104.961 76.681C105.57 76.681 106.105 76.7837 106.567 76.989C107.037 77.187 107.425 77.473 107.733 77.847C108.049 78.2137 108.287 78.6573 108.448 79.178C108.61 79.6987 108.69 80.2743 108.69 80.905V88H106.721V80.905C106.721 80.0617 106.527 79.409 106.138 78.947C105.757 78.4777 105.174 78.243 104.389 78.243C103.81 78.243 103.267 78.3823 102.761 78.661C102.263 78.9397 101.801 79.3173 101.375 79.794V88H99.4065V76.857H100.583C100.862 76.857 101.034 76.9927 101.1 77.264L101.254 78.474ZM119.429 78.837C119.37 78.9177 119.312 78.98 119.253 79.024C119.194 79.068 119.114 79.09 119.011 79.09C118.901 79.09 118.78 79.046 118.648 78.958C118.516 78.8627 118.351 78.76 118.153 78.65C117.962 78.54 117.724 78.441 117.438 78.353C117.159 78.2577 116.815 78.21 116.404 78.21C115.854 78.21 115.37 78.309 114.952 78.507C114.534 78.6977 114.182 78.9763 113.896 79.343C113.617 79.7097 113.405 80.1533 113.258 80.674C113.119 81.1947 113.049 81.7777 113.049 82.423C113.049 83.0977 113.126 83.699 113.28 84.227C113.434 84.7477 113.65 85.1877 113.929 85.547C114.215 85.899 114.556 86.1703 114.952 86.361C115.355 86.5443 115.806 86.636 116.305 86.636C116.782 86.636 117.174 86.581 117.482 86.471C117.79 86.3537 118.043 86.2253 118.241 86.086C118.446 85.9467 118.615 85.822 118.747 85.712C118.886 85.5947 119.022 85.536 119.154 85.536C119.315 85.536 119.44 85.5983 119.528 85.723L120.078 86.438C119.836 86.7387 119.561 86.9953 119.253 87.208C118.945 87.4207 118.611 87.6003 118.252 87.747C117.9 87.8863 117.53 87.989 117.141 88.055C116.752 88.121 116.356 88.154 115.953 88.154C115.256 88.154 114.607 88.0257 114.006 87.769C113.412 87.5123 112.895 87.142 112.455 86.658C112.015 86.1667 111.67 85.5653 111.421 84.854C111.172 84.1427 111.047 83.3323 111.047 82.423C111.047 81.5943 111.161 80.828 111.388 80.124C111.623 79.42 111.96 78.815 112.4 78.309C112.847 77.7957 113.394 77.396 114.039 77.11C114.692 76.824 115.44 76.681 116.283 76.681C117.068 76.681 117.757 76.8093 118.351 77.066C118.952 77.3153 119.484 77.671 119.946 78.133L119.429 78.837ZM124.248 76.857V88H122.29V76.857H124.248ZM124.666 73.359C124.666 73.5497 124.626 73.7293 124.545 73.898C124.472 74.0593 124.369 74.206 124.237 74.338C124.112 74.4627 123.962 74.5617 123.786 74.635C123.617 74.7083 123.438 74.745 123.247 74.745C123.056 74.745 122.877 74.7083 122.708 74.635C122.547 74.5617 122.404 74.4627 122.279 74.338C122.154 74.206 122.055 74.0593 121.982 73.898C121.909 73.7293 121.872 73.5497 121.872 73.359C121.872 73.1683 121.909 72.9887 121.982 72.82C122.055 72.644 122.154 72.4937 122.279 72.369C122.404 72.237 122.547 72.1343 122.708 72.061C122.877 71.9877 123.056 71.951 123.247 71.951C123.438 71.951 123.617 71.9877 123.786 72.061C123.962 72.1343 124.112 72.237 124.237 72.369C124.369 72.4937 124.472 72.644 124.545 72.82C124.626 72.9887 124.666 73.1683 124.666 73.359ZM133.504 82.984C132.602 83.0133 131.832 83.0867 131.194 83.204C130.563 83.314 130.046 83.4607 129.643 83.644C129.247 83.8273 128.957 84.0437 128.774 84.293C128.598 84.5423 128.51 84.821 128.51 85.129C128.51 85.4223 128.558 85.6753 128.653 85.888C128.748 86.1007 128.877 86.2767 129.038 86.416C129.207 86.548 129.401 86.647 129.621 86.713C129.848 86.7717 130.09 86.801 130.347 86.801C130.692 86.801 131.007 86.768 131.293 86.702C131.579 86.6287 131.847 86.526 132.096 86.394C132.353 86.262 132.595 86.1043 132.822 85.921C133.057 85.7377 133.284 85.5287 133.504 85.294V82.984ZM127.179 78.43C127.795 77.836 128.459 77.3923 129.17 77.099C129.881 76.8057 130.67 76.659 131.535 76.659C132.158 76.659 132.712 76.7617 133.196 76.967C133.68 77.1723 134.087 77.4583 134.417 77.825C134.747 78.1917 134.996 78.6353 135.165 79.156C135.334 79.6767 135.418 80.2487 135.418 80.872V88H134.549C134.358 88 134.212 87.9707 134.109 87.912C134.006 87.846 133.926 87.7213 133.867 87.538L133.647 86.482C133.354 86.7533 133.068 86.9953 132.789 87.208C132.51 87.4133 132.217 87.5893 131.909 87.736C131.601 87.8753 131.271 87.9817 130.919 88.055C130.574 88.1357 130.189 88.176 129.764 88.176C129.331 88.176 128.924 88.1173 128.543 88C128.162 87.8753 127.828 87.692 127.542 87.45C127.263 87.208 127.04 86.9037 126.871 86.537C126.71 86.163 126.629 85.723 126.629 85.217C126.629 84.777 126.75 84.3553 126.992 83.952C127.234 83.5413 127.626 83.1783 128.169 82.863C128.712 82.5477 129.419 82.291 130.292 82.093C131.165 81.8877 132.235 81.7703 133.504 81.741V80.872C133.504 80.0067 133.317 79.354 132.943 78.914C132.569 78.4667 132.023 78.243 131.304 78.243C130.82 78.243 130.413 78.3053 130.083 78.43C129.76 78.5473 129.478 78.683 129.236 78.837C129.001 78.9837 128.796 79.1193 128.62 79.244C128.451 79.3613 128.283 79.42 128.114 79.42C127.982 79.42 127.868 79.387 127.773 79.321C127.678 79.2477 127.597 79.1597 127.531 79.057L127.179 78.43ZM140.425 71.797V88H138.467V71.797H140.425ZM157.754 74.701C157.688 74.811 157.614 74.8953 157.534 74.954C157.46 75.0053 157.369 75.031 157.259 75.031C157.134 75.031 156.987 74.9687 156.819 74.844C156.65 74.7193 156.437 74.5837 156.181 74.437C155.931 74.283 155.627 74.1437 155.268 74.019C154.916 73.8943 154.487 73.832 153.981 73.832C153.504 73.832 153.082 73.898 152.716 74.03C152.356 74.1547 152.052 74.327 151.803 74.547C151.561 74.767 151.377 75.0273 151.253 75.328C151.128 75.6213 151.066 75.9403 151.066 76.285C151.066 76.725 151.172 77.0917 151.385 77.385C151.605 77.671 151.891 77.9167 152.243 78.122C152.602 78.3273 153.005 78.507 153.453 78.661C153.907 78.8077 154.369 78.9617 154.839 79.123C155.315 79.2843 155.777 79.4677 156.225 79.673C156.679 79.871 157.083 80.124 157.435 80.432C157.794 80.74 158.08 81.1177 158.293 81.565C158.513 82.0123 158.623 82.5623 158.623 83.215C158.623 83.9043 158.505 84.5533 158.271 85.162C158.036 85.7633 157.691 86.2877 157.237 86.735C156.789 87.1823 156.236 87.5343 155.576 87.791C154.923 88.0477 154.179 88.176 153.343 88.176C152.316 88.176 151.385 87.9927 150.549 87.626C149.713 87.252 148.998 86.7497 148.404 86.119L149.02 85.107C149.078 85.0263 149.148 84.9603 149.229 84.909C149.317 84.8503 149.412 84.821 149.515 84.821C149.61 84.821 149.716 84.8613 149.834 84.942C149.958 85.0153 150.098 85.1107 150.252 85.228C150.406 85.3453 150.582 85.4737 150.78 85.613C150.978 85.7523 151.201 85.8807 151.451 85.998C151.707 86.1153 151.997 86.2143 152.32 86.295C152.642 86.3683 153.005 86.405 153.409 86.405C153.915 86.405 154.366 86.3353 154.762 86.196C155.158 86.0567 155.491 85.8623 155.763 85.613C156.041 85.3563 156.254 85.052 156.401 84.7C156.547 84.348 156.621 83.9557 156.621 83.523C156.621 83.0463 156.511 82.6577 156.291 82.357C156.078 82.049 155.796 81.7923 155.444 81.587C155.092 81.3817 154.688 81.2093 154.234 81.07C153.779 80.9233 153.317 80.7767 152.848 80.63C152.378 80.476 151.916 80.3 151.462 80.102C151.007 79.904 150.604 79.6473 150.252 79.332C149.9 79.0167 149.614 78.6243 149.394 78.155C149.181 77.6783 149.075 77.0917 149.075 76.395C149.075 75.8377 149.181 75.2987 149.394 74.778C149.614 74.2573 149.929 73.7953 150.34 73.392C150.758 72.9887 151.267 72.666 151.869 72.424C152.477 72.182 153.174 72.061 153.959 72.061C154.839 72.061 155.638 72.2003 156.357 72.479C157.083 72.7577 157.721 73.161 158.271 73.689L157.754 74.701ZM170.122 76.857V88H168.956C168.678 88 168.502 87.8643 168.428 87.593L168.274 86.394C167.79 86.9293 167.248 87.362 166.646 87.692C166.045 88.0147 165.356 88.176 164.578 88.176C163.97 88.176 163.431 88.077 162.961 87.879C162.499 87.6737 162.111 87.3877 161.795 87.021C161.48 86.6543 161.242 86.2107 161.08 85.69C160.926 85.1693 160.849 84.5937 160.849 83.963V76.857H162.807V83.963C162.807 84.8063 162.998 85.459 163.379 85.921C163.768 86.383 164.358 86.614 165.15 86.614C165.73 86.614 166.269 86.4783 166.767 86.207C167.273 85.9283 167.739 85.547 168.164 85.063V76.857H170.122ZM175.196 85.316C175.555 85.8 175.947 86.141 176.373 86.339C176.798 86.537 177.275 86.636 177.803 86.636C178.844 86.636 179.643 86.2657 180.201 85.525C180.758 84.7843 181.037 83.7283 181.037 82.357C181.037 81.631 180.971 81.0077 180.839 80.487C180.714 79.9663 180.531 79.541 180.289 79.211C180.047 78.8737 179.75 78.628 179.398 78.474C179.046 78.32 178.646 78.243 178.199 78.243C177.561 78.243 177 78.3897 176.516 78.683C176.039 78.9763 175.599 79.3907 175.196 79.926V85.316ZM175.097 78.584C175.566 78.0047 176.109 77.539 176.725 77.187C177.341 76.835 178.045 76.659 178.837 76.659C179.482 76.659 180.065 76.7837 180.586 77.033C181.106 77.275 181.55 77.638 181.917 78.122C182.283 78.5987 182.566 79.1927 182.764 79.904C182.962 80.6153 183.061 81.433 183.061 82.357C183.061 83.1783 182.951 83.9447 182.731 84.656C182.511 85.36 182.192 85.9723 181.774 86.493C181.363 87.0063 180.857 87.4133 180.256 87.714C179.662 88.0073 178.991 88.154 178.243 88.154C177.561 88.154 176.974 88.0403 176.483 87.813C175.999 87.5783 175.57 87.2557 175.196 86.845V91.773H173.227V76.857H174.404C174.682 76.857 174.855 76.9927 174.921 77.264L175.097 78.584ZM187.528 85.316C187.887 85.8 188.279 86.141 188.705 86.339C189.13 86.537 189.607 86.636 190.135 86.636C191.176 86.636 191.975 86.2657 192.533 85.525C193.09 84.7843 193.369 83.7283 193.369 82.357C193.369 81.631 193.303 81.0077 193.171 80.487C193.046 79.9663 192.863 79.541 192.621 79.211C192.379 78.8737 192.082 78.628 191.73 78.474C191.378 78.32 190.978 78.243 190.531 78.243C189.893 78.243 189.332 78.3897 188.848 78.683C188.371 78.9763 187.931 79.3907 187.528 79.926V85.316ZM187.429 78.584C187.898 78.0047 188.441 77.539 189.057 77.187C189.673 76.835 190.377 76.659 191.169 76.659C191.814 76.659 192.397 76.7837 192.918 77.033C193.438 77.275 193.882 77.638 194.249 78.122C194.615 78.5987 194.898 79.1927 195.096 79.904C195.294 80.6153 195.393 81.433 195.393 82.357C195.393 83.1783 195.283 83.9447 195.063 84.656C194.843 85.36 194.524 85.9723 194.106 86.493C193.695 87.0063 193.189 87.4133 192.588 87.714C191.994 88.0073 191.323 88.154 190.575 88.154C189.893 88.154 189.306 88.0403 188.815 87.813C188.331 87.5783 187.902 87.2557 187.528 86.845V91.773H185.559V76.857H186.736C187.014 76.857 187.187 76.9927 187.253 77.264L187.429 78.584ZM199.915 71.797V88H197.957V71.797H199.915ZM212.704 76.857L206.489 91.289C206.423 91.4357 206.339 91.553 206.236 91.641C206.141 91.729 205.99 91.773 205.785 91.773H204.333L206.368 87.351L201.77 76.857H203.464C203.633 76.857 203.765 76.901 203.86 76.989C203.963 77.0697 204.032 77.1613 204.069 77.264L207.05 84.282C207.167 84.59 207.266 84.9127 207.347 85.25C207.45 84.9053 207.56 84.579 207.677 84.271L210.57 77.264C210.614 77.1467 210.687 77.0513 210.79 76.978C210.9 76.8973 211.021 76.857 211.153 76.857H212.704ZM231.054 84.744C231.171 84.744 231.274 84.7917 231.362 84.887L232.209 85.8C231.563 86.548 230.779 87.131 229.855 87.549C228.938 87.967 227.827 88.176 226.522 88.176C225.392 88.176 224.366 87.9817 223.442 87.593C222.518 87.197 221.729 86.647 221.077 85.943C220.424 85.2317 219.918 84.381 219.559 83.391C219.199 82.401 219.02 81.312 219.02 80.124C219.02 78.936 219.207 77.847 219.581 76.857C219.955 75.867 220.479 75.0163 221.154 74.305C221.836 73.5937 222.65 73.0437 223.596 72.655C224.542 72.259 225.587 72.061 226.731 72.061C227.853 72.061 228.843 72.2407 229.701 72.6C230.559 72.9593 231.314 73.447 231.967 74.063L231.263 75.042C231.219 75.1153 231.16 75.1777 231.087 75.229C231.021 75.273 230.929 75.295 230.812 75.295C230.68 75.295 230.518 75.2253 230.328 75.086C230.137 74.9393 229.888 74.778 229.58 74.602C229.272 74.426 228.887 74.2683 228.425 74.129C227.963 73.9823 227.394 73.909 226.72 73.909C225.906 73.909 225.161 74.052 224.487 74.338C223.812 74.6167 223.229 75.0237 222.738 75.559C222.254 76.0943 221.876 76.747 221.605 77.517C221.333 78.287 221.198 79.156 221.198 80.124C221.198 81.1067 221.337 81.983 221.616 82.753C221.902 83.523 222.287 84.1757 222.771 84.711C223.262 85.239 223.838 85.6423 224.498 85.921C225.165 86.1997 225.884 86.339 226.654 86.339C227.123 86.339 227.545 86.3133 227.919 86.262C228.3 86.2033 228.648 86.1153 228.964 85.998C229.286 85.8807 229.583 85.734 229.855 85.558C230.133 85.3747 230.408 85.1583 230.68 84.909C230.804 84.799 230.929 84.744 231.054 84.744ZM236.19 78.342C236.667 77.836 237.195 77.4327 237.774 77.132C238.353 76.8313 239.021 76.681 239.776 76.681C240.385 76.681 240.92 76.7837 241.382 76.989C241.851 77.187 242.24 77.473 242.548 77.847C242.863 78.2137 243.102 78.6573 243.263 79.178C243.424 79.6987 243.505 80.2743 243.505 80.905V88H241.536V80.905C241.536 80.0617 241.342 79.409 240.953 78.947C240.572 78.4777 239.989 78.243 239.204 78.243C238.625 78.243 238.082 78.3823 237.576 78.661C237.077 78.9397 236.615 79.3173 236.19 79.794V88H234.221V71.797H236.19V78.342ZM252.528 82.984C251.626 83.0133 250.856 83.0867 250.218 83.204C249.587 83.314 249.07 83.4607 248.667 83.644C248.271 83.8273 247.981 84.0437 247.798 84.293C247.622 84.5423 247.534 84.821 247.534 85.129C247.534 85.4223 247.581 85.6753 247.677 85.888C247.772 86.1007 247.9 86.2767 248.062 86.416C248.23 86.548 248.425 86.647 248.645 86.713C248.872 86.7717 249.114 86.801 249.371 86.801C249.715 86.801 250.031 86.768 250.317 86.702C250.603 86.6287 250.87 86.526 251.12 86.394C251.376 86.262 251.618 86.1043 251.846 85.921C252.08 85.7377 252.308 85.5287 252.528 85.294V82.984ZM246.203 78.43C246.819 77.836 247.482 77.3923 248.194 77.099C248.905 76.8057 249.693 76.659 250.559 76.659C251.182 76.659 251.736 76.7617 252.22 76.967C252.704 77.1723 253.111 77.4583 253.441 77.825C253.771 78.1917 254.02 78.6353 254.189 79.156C254.357 79.6767 254.442 80.2487 254.442 80.872V88H253.573C253.382 88 253.235 87.9707 253.133 87.912C253.03 87.846 252.949 87.7213 252.891 87.538L252.671 86.482C252.377 86.7533 252.091 86.9953 251.812 87.208C251.534 87.4133 251.241 87.5893 250.933 87.736C250.625 87.8753 250.295 87.9817 249.943 88.055C249.598 88.1357 249.213 88.176 248.788 88.176C248.355 88.176 247.948 88.1173 247.567 88C247.185 87.8753 246.852 87.692 246.566 87.45C246.287 87.208 246.063 86.9037 245.895 86.537C245.733 86.163 245.653 85.723 245.653 85.217C245.653 84.777 245.774 84.3553 246.016 83.952C246.258 83.5413 246.65 83.1783 247.193 82.863C247.735 82.5477 248.443 82.291 249.316 82.093C250.188 81.8877 251.259 81.7703 252.528 81.741V80.872C252.528 80.0067 252.341 79.354 251.967 78.914C251.593 78.4667 251.046 78.243 250.328 78.243C249.844 78.243 249.437 78.3053 249.107 78.43C248.784 78.5473 248.502 78.683 248.26 78.837C248.025 78.9837 247.82 79.1193 247.644 79.244C247.475 79.3613 247.306 79.42 247.138 79.42C247.006 79.42 246.892 79.387 246.797 79.321C246.701 79.2477 246.621 79.1597 246.554 79.057L246.203 78.43ZM259.492 76.857V88H257.534V76.857H259.492ZM259.91 73.359C259.91 73.5497 259.87 73.7293 259.789 73.898C259.716 74.0593 259.613 74.206 259.481 74.338C259.356 74.4627 259.206 74.5617 259.03 74.635C258.861 74.7083 258.682 74.745 258.491 74.745C258.3 74.745 258.121 74.7083 257.952 74.635C257.791 74.5617 257.648 74.4627 257.523 74.338C257.398 74.206 257.299 74.0593 257.226 73.898C257.153 73.7293 257.116 73.5497 257.116 73.359C257.116 73.1683 257.153 72.9887 257.226 72.82C257.299 72.644 257.398 72.4937 257.523 72.369C257.648 72.237 257.791 72.1343 257.952 72.061C258.121 71.9877 258.3 71.951 258.491 71.951C258.682 71.951 258.861 71.9877 259.03 72.061C259.206 72.1343 259.356 72.237 259.481 72.369C259.613 72.4937 259.716 72.644 259.789 72.82C259.87 72.9887 259.91 73.1683 259.91 73.359ZM264.557 78.474C264.799 78.2027 265.056 77.957 265.327 77.737C265.599 77.517 265.885 77.33 266.185 77.176C266.493 77.0147 266.816 76.8937 267.153 76.813C267.498 76.725 267.868 76.681 268.264 76.681C268.873 76.681 269.408 76.7837 269.87 76.989C270.34 77.187 270.728 77.473 271.036 77.847C271.352 78.2137 271.59 78.6573 271.751 79.178C271.913 79.6987 271.993 80.2743 271.993 80.905V88H270.024V80.905C270.024 80.0617 269.83 79.409 269.441 78.947C269.06 78.4777 268.477 78.243 267.692 78.243C267.113 78.243 266.57 78.3823 266.064 78.661C265.566 78.9397 265.104 79.3173 264.678 79.794V88H262.709V76.857H263.886C264.165 76.857 264.337 76.9927 264.403 77.264L264.557 78.474ZM291.061 74.03H285.957V88H283.834V74.03H278.719V72.237H291.061V74.03ZM292.369 79.09C292.721 78.3273 293.154 77.7333 293.667 77.308C294.18 76.8753 294.807 76.659 295.548 76.659C295.783 76.659 296.006 76.6847 296.219 76.736C296.439 76.7873 296.633 76.868 296.802 76.978L296.659 78.441C296.615 78.6243 296.505 78.716 296.329 78.716C296.226 78.716 296.076 78.694 295.878 78.65C295.68 78.606 295.456 78.584 295.207 78.584C294.855 78.584 294.54 78.6353 294.261 78.738C293.99 78.8407 293.744 78.9947 293.524 79.2C293.311 79.398 293.117 79.6473 292.941 79.948C292.772 80.2413 292.618 80.5787 292.479 80.96V88H290.51V76.857H291.632C291.845 76.857 291.991 76.8973 292.072 76.978C292.153 77.0587 292.208 77.198 292.237 77.396L292.369 79.09ZM304.391 82.984C303.489 83.0133 302.719 83.0867 302.081 83.204C301.45 83.314 300.933 83.4607 300.53 83.644C300.134 83.8273 299.844 84.0437 299.661 84.293C299.485 84.5423 299.397 84.821 299.397 85.129C299.397 85.4223 299.444 85.6753 299.54 85.888C299.635 86.1007 299.763 86.2767 299.925 86.416C300.093 86.548 300.288 86.647 300.508 86.713C300.735 86.7717 300.977 86.801 301.234 86.801C301.578 86.801 301.894 86.768 302.18 86.702C302.466 86.6287 302.733 86.526 302.983 86.394C303.239 86.262 303.481 86.1043 303.709 85.921C303.943 85.7377 304.171 85.5287 304.391 85.294V82.984ZM298.066 78.43C298.682 77.836 299.345 77.3923 300.057 77.099C300.768 76.8057 301.556 76.659 302.422 76.659C303.045 76.659 303.599 76.7617 304.083 76.967C304.567 77.1723 304.974 77.4583 305.304 77.825C305.634 78.1917 305.883 78.6353 306.052 79.156C306.22 79.6767 306.305 80.2487 306.305 80.872V88H305.436C305.245 88 305.098 87.9707 304.996 87.912C304.893 87.846 304.812 87.7213 304.754 87.538L304.534 86.482C304.24 86.7533 303.954 86.9953 303.676 87.208C303.397 87.4133 303.104 87.5893 302.796 87.736C302.488 87.8753 302.158 87.9817 301.806 88.055C301.461 88.1357 301.076 88.176 300.651 88.176C300.218 88.176 299.811 88.1173 299.43 88C299.048 87.8753 298.715 87.692 298.429 87.45C298.15 87.208 297.926 86.9037 297.758 86.537C297.596 86.163 297.516 85.723 297.516 85.217C297.516 84.777 297.637 84.3553 297.879 83.952C298.121 83.5413 298.513 83.1783 299.056 82.863C299.598 82.5477 300.306 82.291 301.179 82.093C302.051 81.8877 303.122 81.7703 304.391 81.741V80.872C304.391 80.0067 304.204 79.354 303.83 78.914C303.456 78.4667 302.909 78.243 302.191 78.243C301.707 78.243 301.3 78.3053 300.97 78.43C300.647 78.5473 300.365 78.683 300.123 78.837C299.888 78.9837 299.683 79.1193 299.507 79.244C299.338 79.3613 299.169 79.42 299.001 79.42C298.869 79.42 298.755 79.387 298.66 79.321C298.564 79.2477 298.484 79.1597 298.418 79.057L298.066 78.43ZM316.547 79.508C316.181 79.0167 315.785 78.6757 315.359 78.485C314.934 78.287 314.457 78.188 313.929 78.188C312.895 78.188 312.1 78.5583 311.542 79.299C310.985 80.0397 310.706 81.0957 310.706 82.467C310.706 83.193 310.769 83.8163 310.893 84.337C311.018 84.8503 311.201 85.2757 311.443 85.613C311.685 85.943 311.982 86.185 312.334 86.339C312.686 86.493 313.086 86.57 313.533 86.57C314.179 86.57 314.74 86.4233 315.216 86.13C315.7 85.8367 316.144 85.4223 316.547 84.887V79.508ZM318.505 71.797V88H317.339C317.061 88 316.885 87.8643 316.811 87.593L316.635 86.24C316.159 86.812 315.616 87.274 315.007 87.626C314.399 87.978 313.695 88.154 312.895 88.154C312.257 88.154 311.678 88.033 311.157 87.791C310.637 87.5417 310.193 87.1787 309.826 86.702C309.46 86.2253 309.177 85.6313 308.979 84.92C308.781 84.2087 308.682 83.391 308.682 82.467C308.682 81.6457 308.792 80.883 309.012 80.179C309.232 79.4677 309.548 78.8517 309.958 78.331C310.369 77.8103 310.871 77.4033 311.465 77.11C312.067 76.8093 312.741 76.659 313.489 76.659C314.171 76.659 314.754 76.7763 315.238 77.011C315.73 77.2383 316.166 77.5573 316.547 77.968V71.797H318.505ZM323.666 76.857V88H321.708V76.857H323.666ZM324.084 73.359C324.084 73.5497 324.044 73.7293 323.963 73.898C323.89 74.0593 323.787 74.206 323.655 74.338C323.53 74.4627 323.38 74.5617 323.204 74.635C323.035 74.7083 322.856 74.745 322.665 74.745C322.474 74.745 322.295 74.7083 322.126 74.635C321.965 74.5617 321.822 74.4627 321.697 74.338C321.572 74.206 321.473 74.0593 321.4 73.898C321.327 73.7293 321.29 73.5497 321.29 73.359C321.29 73.1683 321.327 72.9887 321.4 72.82C321.473 72.644 321.572 72.4937 321.697 72.369C321.822 72.237 321.965 72.1343 322.126 72.061C322.295 71.9877 322.474 71.951 322.665 71.951C322.856 71.951 323.035 71.9877 323.204 72.061C323.38 72.1343 323.53 72.237 323.655 72.369C323.787 72.4937 323.89 72.644 323.963 72.82C324.044 72.9887 324.084 73.1683 324.084 73.359ZM328.731 78.474C328.973 78.2027 329.23 77.957 329.501 77.737C329.772 77.517 330.058 77.33 330.359 77.176C330.667 77.0147 330.99 76.8937 331.327 76.813C331.672 76.725 332.042 76.681 332.438 76.681C333.047 76.681 333.582 76.7837 334.044 76.989C334.513 77.187 334.902 77.473 335.21 77.847C335.525 78.2137 335.764 78.6573 335.925 79.178C336.086 79.6987 336.167 80.2743 336.167 80.905V88H334.198V80.905C334.198 80.0617 334.004 79.409 333.615 78.947C333.234 78.4777 332.651 78.243 331.866 78.243C331.287 78.243 330.744 78.3823 330.238 78.661C329.739 78.9397 329.277 79.3173 328.852 79.794V88H326.883V76.857H328.06C328.339 76.857 328.511 76.9927 328.577 77.264L328.731 78.474ZM343.034 82.555C343.43 82.555 343.778 82.5 344.079 82.39C344.379 82.28 344.632 82.126 344.838 81.928C345.043 81.73 345.197 81.4953 345.3 81.224C345.402 80.9453 345.454 80.641 345.454 80.311C345.454 79.629 345.245 79.0863 344.827 78.683C344.416 78.2797 343.818 78.078 343.034 78.078C342.242 78.078 341.637 78.2797 341.219 78.683C340.808 79.0863 340.603 79.629 340.603 80.311C340.603 80.641 340.654 80.9453 340.757 81.224C340.867 81.4953 341.024 81.73 341.23 81.928C341.435 82.126 341.688 82.28 341.989 82.39C342.289 82.5 342.638 82.555 343.034 82.555ZM346.565 88.605C346.565 88.3337 346.488 88.1137 346.334 87.945C346.18 87.7763 345.971 87.6443 345.707 87.549C345.45 87.4537 345.149 87.3877 344.805 87.351C344.46 87.307 344.093 87.274 343.705 87.252C343.323 87.23 342.935 87.208 342.539 87.186C342.143 87.164 341.761 87.1273 341.395 87.076C340.984 87.2667 340.647 87.5087 340.383 87.802C340.126 88.088 339.998 88.4253 339.998 88.814C339.998 89.0633 340.06 89.2943 340.185 89.507C340.317 89.727 340.515 89.914 340.779 90.068C341.043 90.2293 341.373 90.354 341.769 90.442C342.172 90.5373 342.645 90.585 343.188 90.585C343.716 90.585 344.189 90.5373 344.607 90.442C345.025 90.3467 345.377 90.211 345.663 90.035C345.956 89.859 346.18 89.65 346.334 89.408C346.488 89.166 346.565 88.8983 346.565 88.605ZM348.556 77.297V78.023C348.556 78.265 348.402 78.419 348.094 78.485L346.829 78.65C347.078 79.134 347.203 79.6693 347.203 80.256C347.203 80.7987 347.096 81.2937 346.884 81.741C346.678 82.181 346.392 82.5587 346.026 82.874C345.659 83.1893 345.219 83.4313 344.706 83.6C344.192 83.7687 343.635 83.853 343.034 83.853C342.513 83.853 342.022 83.7907 341.56 83.666C341.325 83.8127 341.145 83.9703 341.021 84.139C340.896 84.3003 340.834 84.4653 340.834 84.634C340.834 84.898 340.94 85.0997 341.153 85.239C341.373 85.371 341.659 85.4663 342.011 85.525C342.363 85.5837 342.762 85.6203 343.21 85.635C343.664 85.6497 344.126 85.6753 344.596 85.712C345.072 85.7413 345.534 85.7963 345.982 85.877C346.436 85.9577 346.84 86.0897 347.192 86.273C347.544 86.4563 347.826 86.7093 348.039 87.032C348.259 87.3547 348.369 87.7727 348.369 88.286C348.369 88.7627 348.248 89.2247 348.006 89.672C347.771 90.1193 347.43 90.5153 346.983 90.86C346.535 91.212 345.985 91.4907 345.333 91.696C344.687 91.9087 343.958 92.015 343.144 92.015C342.33 92.015 341.618 91.9343 341.01 91.773C340.401 91.6117 339.895 91.3953 339.492 91.124C339.088 90.8527 338.784 90.5373 338.579 90.178C338.381 89.826 338.282 89.4557 338.282 89.067C338.282 88.517 338.454 88.0513 338.799 87.67C339.143 87.2887 339.616 86.9843 340.218 86.757C339.888 86.6103 339.624 86.416 339.426 86.174C339.235 85.9247 339.14 85.591 339.14 85.173C339.14 85.0117 339.169 84.8467 339.228 84.678C339.286 84.502 339.374 84.3297 339.492 84.161C339.616 83.985 339.767 83.82 339.943 83.666C340.119 83.512 340.324 83.3763 340.559 83.259C340.009 82.951 339.58 82.544 339.272 82.038C338.964 81.5247 338.81 80.9307 338.81 80.256C338.81 79.7133 338.912 79.222 339.118 78.782C339.33 78.3347 339.624 77.957 339.998 77.649C340.372 77.3337 340.815 77.0917 341.329 76.923C341.849 76.7543 342.418 76.67 343.034 76.67C343.518 76.67 343.969 76.725 344.387 76.835C344.805 76.9377 345.186 77.0917 345.531 77.297H348.556ZM25.9424 106.41C26.551 106.41 27.0864 106.329 27.5484 106.168C28.0177 106.007 28.41 105.783 28.7254 105.497C29.048 105.204 29.29 104.855 29.4514 104.452C29.6127 104.049 29.6934 103.605 29.6934 103.121C29.6934 102.116 29.3817 101.332 28.7584 100.767C28.1424 100.202 27.2037 99.92 25.9424 99.92H23.4124V106.41H25.9424ZM25.9424 98.237C26.9397 98.237 27.805 98.3543 28.5384 98.589C29.279 98.8163 29.8914 99.1427 30.3754 99.568C30.8594 99.9933 31.2187 100.507 31.4534 101.108C31.6954 101.709 31.8164 102.38 31.8164 103.121C31.8164 103.854 31.688 104.525 31.4314 105.134C31.1747 105.743 30.797 106.267 30.2984 106.707C29.807 107.147 29.1947 107.492 28.4614 107.741C27.7354 107.983 26.8957 108.104 25.9424 108.104H23.4124V114H21.2894V98.237H25.9424ZM35.9998 97.797V114H34.0418V97.797H35.9998ZM45.214 108.984C44.312 109.013 43.542 109.087 42.904 109.204C42.2734 109.314 41.7564 109.461 41.353 109.644C40.957 109.827 40.6674 110.044 40.484 110.293C40.308 110.542 40.22 110.821 40.22 111.129C40.22 111.422 40.2677 111.675 40.363 111.888C40.4584 112.101 40.5867 112.277 40.748 112.416C40.9167 112.548 41.111 112.647 41.331 112.713C41.5584 112.772 41.8004 112.801 42.057 112.801C42.4017 112.801 42.717 112.768 43.003 112.702C43.289 112.629 43.5567 112.526 43.806 112.394C44.0627 112.262 44.3047 112.104 44.532 111.921C44.7667 111.738 44.994 111.529 45.214 111.294V108.984ZM38.889 104.43C39.505 103.836 40.1687 103.392 40.88 103.099C41.5914 102.806 42.3797 102.659 43.245 102.659C43.8684 102.659 44.422 102.762 44.906 102.967C45.39 103.172 45.797 103.458 46.127 103.825C46.457 104.192 46.7064 104.635 46.875 105.156C47.0437 105.677 47.128 106.249 47.128 106.872V114H46.259C46.0684 114 45.9217 113.971 45.819 113.912C45.7164 113.846 45.6357 113.721 45.577 113.538L45.357 112.482C45.0637 112.753 44.7777 112.995 44.499 113.208C44.2204 113.413 43.927 113.589 43.619 113.736C43.311 113.875 42.981 113.982 42.629 114.055C42.2844 114.136 41.8994 114.176 41.474 114.176C41.0414 114.176 40.6344 114.117 40.253 114C39.8717 113.875 39.538 113.692 39.252 113.45C38.9734 113.208 38.7497 112.904 38.581 112.537C38.4197 112.163 38.339 111.723 38.339 111.217C38.339 110.777 38.46 110.355 38.702 109.952C38.944 109.541 39.3364 109.178 39.879 108.863C40.4217 108.548 41.1294 108.291 42.002 108.093C42.8747 107.888 43.9454 107.77 45.214 107.741V106.872C45.214 106.007 45.027 105.354 44.653 104.914C44.279 104.467 43.7327 104.243 43.014 104.243C42.53 104.243 42.123 104.305 41.793 104.43C41.4704 104.547 41.188 104.683 40.946 104.837C40.7114 104.984 40.506 105.119 40.33 105.244C40.1614 105.361 39.9927 105.42 39.824 105.42C39.692 105.42 39.5784 105.387 39.483 105.321C39.3877 105.248 39.307 105.16 39.241 105.057L38.889 104.43ZM58.0892 114V104.496H52.6002V111.184C52.6002 111.653 52.7138 112.002 52.9412 112.229C53.1685 112.456 53.4618 112.57 53.8212 112.57C54.0265 112.57 54.2025 112.544 54.3492 112.493C54.5032 112.434 54.6352 112.372 54.7452 112.306C54.8552 112.24 54.9468 112.181 55.0202 112.13C55.1008 112.071 55.1705 112.042 55.2292 112.042C55.3318 112.042 55.4235 112.104 55.5042 112.229L56.0762 113.164C55.7388 113.479 55.3318 113.729 54.8552 113.912C54.3785 114.088 53.8872 114.176 53.3812 114.176C52.5012 114.176 51.8228 113.93 51.3462 113.439C50.8768 112.948 50.6422 112.24 50.6422 111.316V104.496H49.3002C49.1828 104.496 49.0838 104.463 49.0032 104.397C48.9225 104.324 48.8822 104.214 48.8822 104.067V103.286L50.7082 103.055L51.1592 99.612C51.1812 99.502 51.2288 99.414 51.3022 99.348C51.3828 99.2747 51.4855 99.238 51.6102 99.238H52.6002V103.077H58.0892V101.999C58.0892 101.361 58.1772 100.796 58.3532 100.305C58.5365 99.8063 58.7932 99.3883 59.1232 99.051C59.4532 98.7063 59.8528 98.446 60.3222 98.27C60.7988 98.094 61.3305 98.006 61.9172 98.006C62.4085 98.006 62.8668 98.0793 63.2922 98.226L63.2482 99.205C63.2335 99.381 63.1345 99.4763 62.9512 99.491C62.7752 99.5057 62.5368 99.513 62.2362 99.513C61.8988 99.513 61.5908 99.557 61.3122 99.645C61.0408 99.733 60.8062 99.876 60.6082 100.074C60.4102 100.272 60.2562 100.532 60.1462 100.855C60.0435 101.178 59.9922 101.577 59.9922 102.054V103.077H63.2042V104.496H60.0582V114H58.0892ZM69.4169 102.681C70.2309 102.681 70.9643 102.817 71.6169 103.088C72.2696 103.359 72.8269 103.744 73.2889 104.243C73.7509 104.742 74.1029 105.347 74.3449 106.058C74.5943 106.762 74.7189 107.55 74.7189 108.423C74.7189 109.303 74.5943 110.095 74.3449 110.799C74.1029 111.503 73.7509 112.104 73.2889 112.603C72.8269 113.102 72.2696 113.487 71.6169 113.758C70.9643 114.022 70.2309 114.154 69.4169 114.154C68.5956 114.154 67.8549 114.022 67.1949 113.758C66.5423 113.487 65.9849 113.102 65.5229 112.603C65.0609 112.104 64.7053 111.503 64.4559 110.799C64.2139 110.095 64.0929 109.303 64.0929 108.423C64.0929 107.55 64.2139 106.762 64.4559 106.058C64.7053 105.347 65.0609 104.742 65.5229 104.243C65.9849 103.744 66.5423 103.359 67.1949 103.088C67.8549 102.817 68.5956 102.681 69.4169 102.681ZM69.4169 112.625C70.5169 112.625 71.3383 112.258 71.8809 111.525C72.4236 110.784 72.6949 109.754 72.6949 108.434C72.6949 107.107 72.4236 106.073 71.8809 105.332C71.3383 104.591 70.5169 104.221 69.4169 104.221C68.8596 104.221 68.3719 104.316 67.9539 104.507C67.5433 104.698 67.1986 104.973 66.9199 105.332C66.6486 105.691 66.4433 106.135 66.3039 106.663C66.1719 107.184 66.1059 107.774 66.1059 108.434C66.1059 109.754 66.3773 110.784 66.9199 111.525C67.4699 112.258 68.3023 112.625 69.4169 112.625ZM79.0614 105.09C79.4134 104.327 79.846 103.733 80.3594 103.308C80.8727 102.875 81.4997 102.659 82.2404 102.659C82.475 102.659 82.6987 102.685 82.9114 102.736C83.1314 102.787 83.3257 102.868 83.4944 102.978L83.3514 104.441C83.3074 104.624 83.1974 104.716 83.0214 104.716C82.9187 104.716 82.7684 104.694 82.5704 104.65C82.3724 104.606 82.1487 104.584 81.8994 104.584C81.5474 104.584 81.232 104.635 80.9534 104.738C80.682 104.841 80.4364 104.995 80.2164 105.2C80.0037 105.398 79.8094 105.647 79.6334 105.948C79.4647 106.241 79.3107 106.579 79.1714 106.96V114H77.2024V102.857H78.3244C78.537 102.857 78.6837 102.897 78.7644 102.978C78.845 103.059 78.9 103.198 78.9294 103.396L79.0614 105.09ZM85.216 114V102.857H86.393C86.6717 102.857 86.844 102.993 86.91 103.264L87.053 104.408C87.4637 103.902 87.9257 103.488 88.439 103.165C88.9524 102.842 89.5464 102.681 90.221 102.681C90.969 102.681 91.574 102.89 92.036 103.308C92.5054 103.726 92.8427 104.291 93.048 105.002C93.2094 104.599 93.4147 104.25 93.664 103.957C93.9207 103.664 94.2067 103.422 94.522 103.231C94.8374 103.04 95.171 102.901 95.523 102.813C95.8824 102.725 96.2454 102.681 96.612 102.681C97.1987 102.681 97.7194 102.776 98.174 102.967C98.636 103.15 99.0247 103.422 99.34 103.781C99.6627 104.14 99.9084 104.584 100.077 105.112C100.246 105.633 100.33 106.23 100.33 106.905V114H98.361V106.905C98.361 106.032 98.1704 105.372 97.789 104.925C97.4077 104.47 96.8577 104.243 96.139 104.243C95.8164 104.243 95.5084 104.302 95.215 104.419C94.929 104.529 94.676 104.694 94.456 104.914C94.236 105.134 94.06 105.413 93.928 105.75C93.8034 106.08 93.741 106.465 93.741 106.905V114H91.772V106.905C91.772 106.01 91.5924 105.343 91.233 104.903C90.8737 104.463 90.3494 104.243 89.66 104.243C89.176 104.243 88.7287 104.375 88.318 104.639C87.9074 104.896 87.5297 105.248 87.185 105.695V114H85.216ZM114.93 112.306C115.538 112.306 116.063 112.236 116.503 112.097C116.943 111.958 117.302 111.763 117.581 111.514C117.867 111.257 118.076 110.957 118.208 110.612C118.34 110.26 118.406 109.875 118.406 109.457C118.406 108.643 118.116 108.001 117.537 107.532C116.957 107.055 116.088 106.817 114.93 106.817H111.52V112.306H114.93ZM111.52 99.92V105.299H114.336C114.937 105.299 115.458 105.233 115.898 105.101C116.345 104.969 116.712 104.786 116.998 104.551C117.291 104.316 117.507 104.034 117.647 103.704C117.786 103.367 117.856 103 117.856 102.604C117.856 101.673 117.577 100.994 117.02 100.569C116.462 100.136 115.597 99.92 114.424 99.92H111.52ZM114.424 98.237C115.392 98.237 116.224 98.3323 116.921 98.523C117.625 98.7137 118.2 98.985 118.648 99.337C119.102 99.689 119.436 100.122 119.649 100.635C119.861 101.141 119.968 101.713 119.968 102.351C119.968 102.74 119.905 103.114 119.781 103.473C119.663 103.825 119.484 104.155 119.242 104.463C119 104.771 118.692 105.05 118.318 105.299C117.951 105.541 117.518 105.739 117.02 105.893C118.178 106.113 119.047 106.527 119.627 107.136C120.213 107.737 120.507 108.529 120.507 109.512C120.507 110.179 120.382 110.788 120.133 111.338C119.891 111.888 119.531 112.361 119.055 112.757C118.585 113.153 118.006 113.461 117.317 113.681C116.627 113.894 115.843 114 114.963 114H109.397V98.237H114.424ZM129.025 108.984C128.123 109.013 127.353 109.087 126.715 109.204C126.084 109.314 125.567 109.461 125.164 109.644C124.768 109.827 124.478 110.044 124.295 110.293C124.119 110.542 124.031 110.821 124.031 111.129C124.031 111.422 124.078 111.675 124.174 111.888C124.269 112.101 124.397 112.277 124.559 112.416C124.727 112.548 124.922 112.647 125.142 112.713C125.369 112.772 125.611 112.801 125.868 112.801C126.212 112.801 126.528 112.768 126.814 112.702C127.1 112.629 127.367 112.526 127.617 112.394C127.873 112.262 128.115 112.104 128.343 111.921C128.577 111.738 128.805 111.529 129.025 111.294V108.984ZM122.7 104.43C123.316 103.836 123.979 103.392 124.691 103.099C125.402 102.806 126.19 102.659 127.056 102.659C127.679 102.659 128.233 102.762 128.717 102.967C129.201 103.172 129.608 103.458 129.938 103.825C130.268 104.192 130.517 104.635 130.686 105.156C130.854 105.677 130.939 106.249 130.939 106.872V114H130.07C129.879 114 129.732 113.971 129.63 113.912C129.527 113.846 129.446 113.721 129.388 113.538L129.168 112.482C128.874 112.753 128.588 112.995 128.31 113.208C128.031 113.413 127.738 113.589 127.43 113.736C127.122 113.875 126.792 113.982 126.44 114.055C126.095 114.136 125.71 114.176 125.285 114.176C124.852 114.176 124.445 114.117 124.064 114C123.682 113.875 123.349 113.692 123.063 113.45C122.784 113.208 122.56 112.904 122.392 112.537C122.23 112.163 122.15 111.723 122.15 111.217C122.15 110.777 122.271 110.355 122.513 109.952C122.755 109.541 123.147 109.178 123.69 108.863C124.232 108.548 124.94 108.291 125.813 108.093C126.685 107.888 127.756 107.77 129.025 107.741V106.872C129.025 106.007 128.838 105.354 128.464 104.914C128.09 104.467 127.543 104.243 126.825 104.243C126.341 104.243 125.934 104.305 125.604 104.43C125.281 104.547 124.999 104.683 124.757 104.837C124.522 104.984 124.317 105.119 124.141 105.244C123.972 105.361 123.803 105.42 123.635 105.42C123.503 105.42 123.389 105.387 123.294 105.321C123.198 105.248 123.118 105.16 123.052 105.057L122.7 104.43ZM140.411 104.694C140.323 104.855 140.187 104.936 140.004 104.936C139.894 104.936 139.769 104.896 139.63 104.815C139.491 104.734 139.318 104.646 139.113 104.551C138.915 104.448 138.677 104.357 138.398 104.276C138.119 104.188 137.789 104.144 137.408 104.144C137.078 104.144 136.781 104.188 136.517 104.276C136.253 104.357 136.026 104.47 135.835 104.617C135.652 104.764 135.509 104.936 135.406 105.134C135.311 105.325 135.263 105.534 135.263 105.761C135.263 106.047 135.344 106.285 135.505 106.476C135.674 106.667 135.894 106.832 136.165 106.971C136.436 107.11 136.744 107.235 137.089 107.345C137.434 107.448 137.786 107.561 138.145 107.686C138.512 107.803 138.867 107.935 139.212 108.082C139.557 108.229 139.865 108.412 140.136 108.632C140.407 108.852 140.624 109.123 140.785 109.446C140.954 109.761 141.038 110.143 141.038 110.59C141.038 111.103 140.946 111.58 140.763 112.02C140.58 112.453 140.308 112.83 139.949 113.153C139.59 113.468 139.15 113.718 138.629 113.901C138.108 114.084 137.507 114.176 136.825 114.176C136.048 114.176 135.344 114.051 134.713 113.802C134.082 113.545 133.547 113.219 133.107 112.823L133.569 112.075C133.628 111.98 133.697 111.906 133.778 111.855C133.859 111.804 133.961 111.778 134.086 111.778C134.218 111.778 134.357 111.829 134.504 111.932C134.651 112.035 134.827 112.148 135.032 112.273C135.245 112.398 135.501 112.511 135.802 112.614C136.103 112.717 136.477 112.768 136.924 112.768C137.305 112.768 137.639 112.72 137.925 112.625C138.211 112.522 138.449 112.387 138.64 112.218C138.831 112.049 138.97 111.855 139.058 111.635C139.153 111.415 139.201 111.18 139.201 110.931C139.201 110.623 139.117 110.37 138.948 110.172C138.787 109.967 138.57 109.794 138.299 109.655C138.028 109.508 137.716 109.384 137.364 109.281C137.019 109.171 136.664 109.057 136.297 108.94C135.938 108.823 135.582 108.691 135.23 108.544C134.885 108.39 134.577 108.199 134.306 107.972C134.035 107.745 133.815 107.466 133.646 107.136C133.485 106.799 133.404 106.392 133.404 105.915C133.404 105.49 133.492 105.083 133.668 104.694C133.844 104.298 134.101 103.953 134.438 103.66C134.775 103.359 135.19 103.121 135.681 102.945C136.172 102.769 136.733 102.681 137.364 102.681C138.097 102.681 138.754 102.798 139.333 103.033C139.92 103.26 140.426 103.576 140.851 103.979L140.411 104.694ZM150.897 107.213C150.897 106.758 150.831 106.344 150.699 105.97C150.574 105.589 150.387 105.262 150.138 104.991C149.896 104.712 149.599 104.5 149.247 104.353C148.895 104.199 148.495 104.122 148.048 104.122C147.109 104.122 146.365 104.397 145.815 104.947C145.272 105.49 144.935 106.245 144.803 107.213H150.897ZM152.481 112.438C152.239 112.731 151.949 112.988 151.612 113.208C151.274 113.421 150.911 113.597 150.523 113.736C150.141 113.875 149.745 113.978 149.335 114.044C148.924 114.117 148.517 114.154 148.114 114.154C147.344 114.154 146.632 114.026 145.98 113.769C145.334 113.505 144.773 113.124 144.297 112.625C143.827 112.119 143.461 111.496 143.197 110.755C142.933 110.014 142.801 109.164 142.801 108.203C142.801 107.426 142.918 106.7 143.153 106.025C143.395 105.35 143.739 104.767 144.187 104.276C144.634 103.777 145.18 103.389 145.826 103.11C146.471 102.824 147.197 102.681 148.004 102.681C148.671 102.681 149.287 102.795 149.852 103.022C150.424 103.242 150.915 103.565 151.326 103.99C151.744 104.408 152.07 104.929 152.305 105.552C152.539 106.168 152.657 106.872 152.657 107.664C152.657 107.972 152.624 108.177 152.558 108.28C152.492 108.383 152.367 108.434 152.184 108.434H144.737C144.759 109.138 144.854 109.75 145.023 110.271C145.199 110.792 145.441 111.228 145.749 111.58C146.057 111.925 146.423 112.185 146.849 112.361C147.274 112.53 147.751 112.614 148.279 112.614C148.77 112.614 149.192 112.559 149.544 112.449C149.903 112.332 150.211 112.207 150.468 112.075C150.724 111.943 150.937 111.822 151.106 111.712C151.282 111.595 151.432 111.536 151.557 111.536C151.718 111.536 151.843 111.598 151.931 111.723L152.481 112.438ZM162.322 105.508C161.955 105.017 161.559 104.676 161.134 104.485C160.708 104.287 160.232 104.188 159.704 104.188C158.67 104.188 157.874 104.558 157.317 105.299C156.759 106.04 156.481 107.096 156.481 108.467C156.481 109.193 156.543 109.816 156.668 110.337C156.792 110.85 156.976 111.276 157.218 111.613C157.46 111.943 157.757 112.185 158.109 112.339C158.461 112.493 158.86 112.57 159.308 112.57C159.953 112.57 160.514 112.423 160.991 112.13C161.475 111.837 161.918 111.422 162.322 110.887V105.508ZM164.28 97.797V114H163.114C162.835 114 162.659 113.864 162.586 113.593L162.41 112.24C161.933 112.812 161.39 113.274 160.782 113.626C160.173 113.978 159.469 114.154 158.67 114.154C158.032 114.154 157.452 114.033 156.932 113.791C156.411 113.542 155.967 113.179 155.601 112.702C155.234 112.225 154.952 111.631 154.754 110.92C154.556 110.209 154.457 109.391 154.457 108.467C154.457 107.646 154.567 106.883 154.787 106.179C155.007 105.468 155.322 104.852 155.733 104.331C156.143 103.81 156.646 103.403 157.24 103.11C157.841 102.809 158.516 102.659 159.264 102.659C159.946 102.659 160.529 102.776 161.013 103.011C161.504 103.238 161.94 103.557 162.322 103.968V97.797H164.28ZM177.698 102.681C178.512 102.681 179.246 102.817 179.898 103.088C180.551 103.359 181.108 103.744 181.57 104.243C182.032 104.742 182.384 105.347 182.626 106.058C182.876 106.762 183 107.55 183 108.423C183 109.303 182.876 110.095 182.626 110.799C182.384 111.503 182.032 112.104 181.57 112.603C181.108 113.102 180.551 113.487 179.898 113.758C179.246 114.022 178.512 114.154 177.698 114.154C176.877 114.154 176.136 114.022 175.476 113.758C174.824 113.487 174.266 113.102 173.804 112.603C173.342 112.104 172.987 111.503 172.737 110.799C172.495 110.095 172.374 109.303 172.374 108.423C172.374 107.55 172.495 106.762 172.737 106.058C172.987 105.347 173.342 104.742 173.804 104.243C174.266 103.744 174.824 103.359 175.476 103.088C176.136 102.817 176.877 102.681 177.698 102.681ZM177.698 112.625C178.798 112.625 179.62 112.258 180.162 111.525C180.705 110.784 180.976 109.754 180.976 108.434C180.976 107.107 180.705 106.073 180.162 105.332C179.62 104.591 178.798 104.221 177.698 104.221C177.141 104.221 176.653 104.316 176.235 104.507C175.825 104.698 175.48 104.973 175.201 105.332C174.93 105.691 174.725 106.135 174.585 106.663C174.453 107.184 174.387 107.774 174.387 108.434C174.387 109.754 174.659 110.784 175.201 111.525C175.751 112.258 176.584 112.625 177.698 112.625ZM187.332 104.474C187.574 104.203 187.83 103.957 188.102 103.737C188.373 103.517 188.659 103.33 188.96 103.176C189.268 103.015 189.59 102.894 189.928 102.813C190.272 102.725 190.643 102.681 191.039 102.681C191.647 102.681 192.183 102.784 192.645 102.989C193.114 103.187 193.503 103.473 193.811 103.847C194.126 104.214 194.364 104.657 194.526 105.178C194.687 105.699 194.768 106.274 194.768 106.905V114H192.799V106.905C192.799 106.062 192.604 105.409 192.216 104.947C191.834 104.478 191.251 104.243 190.467 104.243C189.887 104.243 189.345 104.382 188.839 104.661C188.34 104.94 187.878 105.317 187.453 105.794V114H185.484V102.857H186.661C186.939 102.857 187.112 102.993 187.178 103.264L187.332 104.474ZM214.908 110.744C215.025 110.744 215.128 110.792 215.216 110.887L216.063 111.8C215.418 112.548 214.633 113.131 213.709 113.549C212.792 113.967 211.681 114.176 210.376 114.176C209.247 114.176 208.22 113.982 207.296 113.593C206.372 113.197 205.584 112.647 204.931 111.943C204.278 111.232 203.772 110.381 203.413 109.391C203.054 108.401 202.874 107.312 202.874 106.124C202.874 104.936 203.061 103.847 203.435 102.857C203.809 101.867 204.333 101.016 205.008 100.305C205.69 99.5937 206.504 99.0437 207.45 98.655C208.396 98.259 209.441 98.061 210.585 98.061C211.707 98.061 212.697 98.2407 213.555 98.6C214.413 98.9593 215.168 99.447 215.821 100.063L215.117 101.042C215.073 101.115 215.014 101.178 214.941 101.229C214.875 101.273 214.783 101.295 214.666 101.295C214.534 101.295 214.373 101.225 214.182 101.086C213.991 100.939 213.742 100.778 213.434 100.602C213.126 100.426 212.741 100.268 212.279 100.129C211.817 99.9823 211.249 99.909 210.574 99.909C209.76 99.909 209.016 100.052 208.341 100.338C207.666 100.617 207.083 101.024 206.592 101.559C206.108 102.094 205.73 102.747 205.459 103.517C205.188 104.287 205.052 105.156 205.052 106.124C205.052 107.107 205.191 107.983 205.47 108.753C205.756 109.523 206.141 110.176 206.625 110.711C207.116 111.239 207.692 111.642 208.352 111.921C209.019 112.2 209.738 112.339 210.508 112.339C210.977 112.339 211.399 112.313 211.773 112.262C212.154 112.203 212.503 112.115 212.818 111.998C213.141 111.881 213.438 111.734 213.709 111.558C213.988 111.375 214.263 111.158 214.534 110.909C214.659 110.799 214.783 110.744 214.908 110.744ZM222.558 102.681C223.372 102.681 224.105 102.817 224.758 103.088C225.41 103.359 225.968 103.744 226.43 104.243C226.892 104.742 227.244 105.347 227.486 106.058C227.735 106.762 227.86 107.55 227.86 108.423C227.86 109.303 227.735 110.095 227.486 110.799C227.244 111.503 226.892 112.104 226.43 112.603C225.968 113.102 225.41 113.487 224.758 113.758C224.105 114.022 223.372 114.154 222.558 114.154C221.736 114.154 220.996 114.022 220.336 113.758C219.683 113.487 219.126 113.102 218.664 112.603C218.202 112.104 217.846 111.503 217.597 110.799C217.355 110.095 217.234 109.303 217.234 108.423C217.234 107.55 217.355 106.762 217.597 106.058C217.846 105.347 218.202 104.742 218.664 104.243C219.126 103.744 219.683 103.359 220.336 103.088C220.996 102.817 221.736 102.681 222.558 102.681ZM222.558 112.625C223.658 112.625 224.479 112.258 225.022 111.525C225.564 110.784 225.836 109.754 225.836 108.434C225.836 107.107 225.564 106.073 225.022 105.332C224.479 104.591 223.658 104.221 222.558 104.221C222 104.221 221.513 104.316 221.095 104.507C220.684 104.698 220.339 104.973 220.061 105.332C219.789 105.691 219.584 106.135 219.445 106.663C219.313 107.184 219.247 107.774 219.247 108.434C219.247 109.754 219.518 110.784 220.061 111.525C220.611 112.258 221.443 112.625 222.558 112.625ZM232.191 104.474C232.433 104.203 232.69 103.957 232.961 103.737C233.232 103.517 233.518 103.33 233.819 103.176C234.127 103.015 234.45 102.894 234.787 102.813C235.132 102.725 235.502 102.681 235.898 102.681C236.507 102.681 237.042 102.784 237.504 102.989C237.973 103.187 238.362 103.473 238.67 103.847C238.985 104.214 239.224 104.657 239.385 105.178C239.546 105.699 239.627 106.274 239.627 106.905V114H237.658V106.905C237.658 106.062 237.464 105.409 237.075 104.947C236.694 104.478 236.111 104.243 235.326 104.243C234.747 104.243 234.204 104.382 233.698 104.661C233.199 104.94 232.737 105.317 232.312 105.794V114H230.343V102.857H231.52C231.799 102.857 231.971 102.993 232.037 103.264L232.191 104.474ZM243.187 114V104.529L241.955 104.386C241.793 104.349 241.665 104.294 241.57 104.221C241.474 104.14 241.427 104.027 241.427 103.88V103.077H243.187V102.483C243.187 101.867 243.278 101.284 243.462 100.734C243.652 100.177 243.938 99.6927 244.32 99.282C244.701 98.8713 245.178 98.545 245.75 98.303C246.322 98.061 246.989 97.94 247.752 97.94C248.316 97.94 248.859 97.962 249.38 98.006C249.908 98.05 250.417 98.0757 250.909 98.083H252.24V114H250.293V99.458C249.897 99.4433 249.497 99.425 249.094 99.403C248.698 99.381 248.349 99.37 248.049 99.37C247.095 99.37 246.362 99.645 245.849 100.195C245.343 100.738 245.09 101.5 245.09 102.483V103.077H247.983V104.496H245.145V114H243.187ZM264.578 102.857V114H263.412C263.134 114 262.958 113.864 262.884 113.593L262.73 112.394C262.246 112.929 261.704 113.362 261.102 113.692C260.501 114.015 259.812 114.176 259.034 114.176C258.426 114.176 257.887 114.077 257.417 113.879C256.955 113.674 256.567 113.388 256.251 113.021C255.936 112.654 255.698 112.211 255.536 111.69C255.382 111.169 255.305 110.594 255.305 109.963V102.857H257.263V109.963C257.263 110.806 257.454 111.459 257.835 111.921C258.224 112.383 258.814 112.614 259.606 112.614C260.186 112.614 260.725 112.478 261.223 112.207C261.729 111.928 262.195 111.547 262.62 111.063V102.857H264.578ZM276.835 114H274.954C274.793 114 274.664 113.96 274.569 113.879C274.481 113.791 274.408 113.696 274.349 113.593L271.544 109.226C271.515 109.329 271.482 109.431 271.445 109.534C271.416 109.629 271.372 109.717 271.313 109.798L268.717 113.593C268.644 113.696 268.563 113.791 268.475 113.879C268.394 113.96 268.281 114 268.134 114H266.385L270.29 108.28L266.539 102.857H268.42C268.581 102.857 268.699 102.883 268.772 102.934C268.845 102.985 268.911 103.059 268.97 103.154L271.709 107.334C271.768 107.121 271.859 106.916 271.984 106.718L274.382 103.198C274.448 103.095 274.518 103.015 274.591 102.956C274.672 102.89 274.767 102.857 274.877 102.857H276.681L272.93 108.181L276.835 114ZM290.264 112.306C290.872 112.306 291.397 112.236 291.837 112.097C292.277 111.958 292.636 111.763 292.915 111.514C293.201 111.257 293.41 110.957 293.542 110.612C293.674 110.26 293.74 109.875 293.74 109.457C293.74 108.643 293.45 108.001 292.871 107.532C292.291 107.055 291.422 106.817 290.264 106.817H286.854V112.306H290.264ZM286.854 99.92V105.299H289.67C290.271 105.299 290.792 105.233 291.232 105.101C291.679 104.969 292.046 104.786 292.332 104.551C292.625 104.316 292.841 104.034 292.981 103.704C293.12 103.367 293.19 103 293.19 102.604C293.19 101.673 292.911 100.994 292.354 100.569C291.796 100.136 290.931 99.92 289.758 99.92H286.854ZM289.758 98.237C290.726 98.237 291.558 98.3323 292.255 98.523C292.959 98.7137 293.534 98.985 293.982 99.337C294.436 99.689 294.77 100.122 294.983 100.635C295.195 101.141 295.302 101.713 295.302 102.351C295.302 102.74 295.239 103.114 295.115 103.473C294.997 103.825 294.818 104.155 294.576 104.463C294.334 104.771 294.026 105.05 293.652 105.299C293.285 105.541 292.852 105.739 292.354 105.893C293.512 106.113 294.381 106.527 294.961 107.136C295.547 107.737 295.841 108.529 295.841 109.512C295.841 110.179 295.716 110.788 295.467 111.338C295.225 111.888 294.865 112.361 294.389 112.757C293.919 113.153 293.34 113.461 292.651 113.681C291.961 113.894 291.177 114 290.297 114H284.731V98.237H289.758ZM300.301 97.797V114H298.343V97.797H300.301ZM308.173 102.681C308.987 102.681 309.72 102.817 310.373 103.088C311.025 103.359 311.583 103.744 312.045 104.243C312.507 104.742 312.859 105.347 313.101 106.058C313.35 106.762 313.475 107.55 313.475 108.423C313.475 109.303 313.35 110.095 313.101 110.799C312.859 111.503 312.507 112.104 312.045 112.603C311.583 113.102 311.025 113.487 310.373 113.758C309.72 114.022 308.987 114.154 308.173 114.154C307.351 114.154 306.611 114.022 305.951 113.758C305.298 113.487 304.741 113.102 304.279 112.603C303.817 112.104 303.461 111.503 303.212 110.799C302.97 110.095 302.849 109.303 302.849 108.423C302.849 107.55 302.97 106.762 303.212 106.058C303.461 105.347 303.817 104.742 304.279 104.243C304.741 103.744 305.298 103.359 305.951 103.088C306.611 102.817 307.351 102.681 308.173 102.681ZM308.173 112.625C309.273 112.625 310.094 112.258 310.637 111.525C311.179 110.784 311.451 109.754 311.451 108.434C311.451 107.107 311.179 106.073 310.637 105.332C310.094 104.591 309.273 104.221 308.173 104.221C307.615 104.221 307.128 104.316 306.71 104.507C306.299 104.698 305.954 104.973 305.676 105.332C305.404 105.691 305.199 106.135 305.06 106.663C304.928 107.184 304.862 107.774 304.862 108.434C304.862 109.754 305.133 110.784 305.676 111.525C306.226 112.258 307.058 112.625 308.173 112.625ZM323.713 104.837C323.655 104.918 323.596 104.98 323.537 105.024C323.479 105.068 323.398 105.09 323.295 105.09C323.185 105.09 323.064 105.046 322.932 104.958C322.8 104.863 322.635 104.76 322.437 104.65C322.247 104.54 322.008 104.441 321.722 104.353C321.444 104.258 321.099 104.21 320.688 104.21C320.138 104.21 319.654 104.309 319.236 104.507C318.818 104.698 318.466 104.976 318.18 105.343C317.902 105.71 317.689 106.153 317.542 106.674C317.403 107.195 317.333 107.778 317.333 108.423C317.333 109.098 317.41 109.699 317.564 110.227C317.718 110.748 317.935 111.188 318.213 111.547C318.499 111.899 318.84 112.17 319.236 112.361C319.64 112.544 320.091 112.636 320.589 112.636C321.066 112.636 321.458 112.581 321.766 112.471C322.074 112.354 322.327 112.225 322.525 112.086C322.731 111.947 322.899 111.822 323.031 111.712C323.171 111.595 323.306 111.536 323.438 111.536C323.6 111.536 323.724 111.598 323.812 111.723L324.362 112.438C324.12 112.739 323.845 112.995 323.537 113.208C323.229 113.421 322.896 113.6 322.536 113.747C322.184 113.886 321.814 113.989 321.425 114.055C321.037 114.121 320.641 114.154 320.237 114.154C319.541 114.154 318.892 114.026 318.29 113.769C317.696 113.512 317.179 113.142 316.739 112.658C316.299 112.167 315.955 111.565 315.705 110.854C315.456 110.143 315.331 109.332 315.331 108.423C315.331 107.594 315.445 106.828 315.672 106.124C315.907 105.42 316.244 104.815 316.684 104.309C317.132 103.796 317.678 103.396 318.323 103.11C318.976 102.824 319.724 102.681 320.567 102.681C321.352 102.681 322.041 102.809 322.635 103.066C323.237 103.315 323.768 103.671 324.23 104.133L323.713 104.837ZM328.433 97.797V107.334H328.939C329.086 107.334 329.207 107.316 329.302 107.279C329.405 107.235 329.511 107.151 329.621 107.026L333.141 103.253C333.244 103.128 333.35 103.033 333.46 102.967C333.577 102.894 333.731 102.857 333.922 102.857H335.693L331.59 107.224C331.392 107.473 331.179 107.668 330.952 107.807C331.084 107.895 331.201 107.998 331.304 108.115C331.414 108.225 331.517 108.353 331.612 108.5L335.968 114H334.219C334.05 114 333.904 113.974 333.779 113.923C333.662 113.864 333.559 113.762 333.471 113.615L329.808 109.05C329.698 108.896 329.588 108.797 329.478 108.753C329.375 108.702 329.214 108.676 328.994 108.676H328.433V114H326.464V97.797H328.433ZM344.768 104.837C344.709 104.918 344.651 104.98 344.592 105.024C344.533 105.068 344.453 105.09 344.35 105.09C344.24 105.09 344.119 105.046 343.987 104.958C343.855 104.863 343.69 104.76 343.492 104.65C343.301 104.54 343.063 104.441 342.777 104.353C342.498 104.258 342.154 104.21 341.743 104.21C341.193 104.21 340.709 104.309 340.291 104.507C339.873 104.698 339.521 104.976 339.235 105.343C338.956 105.71 338.744 106.153 338.597 106.674C338.458 107.195 338.388 107.778 338.388 108.423C338.388 109.098 338.465 109.699 338.619 110.227C338.773 110.748 338.989 111.188 339.268 111.547C339.554 111.899 339.895 112.17 340.291 112.361C340.694 112.544 341.145 112.636 341.644 112.636C342.121 112.636 342.513 112.581 342.821 112.471C343.129 112.354 343.382 112.225 343.58 112.086C343.785 111.947 343.954 111.822 344.086 111.712C344.225 111.595 344.361 111.536 344.493 111.536C344.654 111.536 344.779 111.598 344.867 111.723L345.417 112.438C345.175 112.739 344.9 112.995 344.592 113.208C344.284 113.421 343.95 113.6 343.591 113.747C343.239 113.886 342.869 113.989 342.48 114.055C342.091 114.121 341.695 114.154 341.292 114.154C340.595 114.154 339.946 114.026 339.345 113.769C338.751 113.512 338.234 113.142 337.794 112.658C337.354 112.167 337.009 111.565 336.76 110.854C336.511 110.143 336.386 109.332 336.386 108.423C336.386 107.594 336.5 106.828 336.727 106.124C336.962 105.42 337.299 104.815 337.739 104.309C338.186 103.796 338.733 103.396 339.378 103.11C340.031 102.824 340.779 102.681 341.622 102.681C342.407 102.681 343.096 102.809 343.69 103.066C344.291 103.315 344.823 103.671 345.285 104.133L344.768 104.837ZM349.488 104.342C349.964 103.836 350.492 103.433 351.072 103.132C351.651 102.831 352.318 102.681 353.074 102.681C353.682 102.681 354.218 102.784 354.68 102.989C355.149 103.187 355.538 103.473 355.846 103.847C356.161 104.214 356.399 104.657 356.561 105.178C356.722 105.699 356.803 106.274 356.803 106.905V114H354.834V106.905C354.834 106.062 354.639 105.409 354.251 104.947C353.869 104.478 353.286 104.243 352.502 104.243C351.922 104.243 351.38 104.382 350.874 104.661C350.375 104.94 349.913 105.317 349.488 105.794V114H347.519V97.797H349.488V104.342ZM365.825 108.984C364.923 109.013 364.153 109.087 363.515 109.204C362.885 109.314 362.368 109.461 361.964 109.644C361.568 109.827 361.279 110.044 361.095 110.293C360.919 110.542 360.831 110.821 360.831 111.129C360.831 111.422 360.879 111.675 360.974 111.888C361.07 112.101 361.198 112.277 361.359 112.416C361.528 112.548 361.722 112.647 361.942 112.713C362.17 112.772 362.412 112.801 362.668 112.801C363.013 112.801 363.328 112.768 363.614 112.702C363.9 112.629 364.168 112.526 364.417 112.394C364.674 112.262 364.916 112.104 365.143 111.921C365.378 111.738 365.605 111.529 365.825 111.294V108.984ZM359.5 104.43C360.116 103.836 360.78 103.392 361.491 103.099C362.203 102.806 362.991 102.659 363.856 102.659C364.48 102.659 365.033 102.762 365.517 102.967C366.001 103.172 366.408 103.458 366.738 103.825C367.068 104.192 367.318 104.635 367.486 105.156C367.655 105.677 367.739 106.249 367.739 106.872V114H366.87C366.68 114 366.533 113.971 366.43 113.912C366.328 113.846 366.247 113.721 366.188 113.538L365.968 112.482C365.675 112.753 365.389 112.995 365.11 113.208C364.832 113.413 364.538 113.589 364.23 113.736C363.922 113.875 363.592 113.982 363.24 114.055C362.896 114.136 362.511 114.176 362.085 114.176C361.653 114.176 361.246 114.117 360.864 114C360.483 113.875 360.149 113.692 359.863 113.45C359.585 113.208 359.361 112.904 359.192 112.537C359.031 112.163 358.95 111.723 358.95 111.217C358.95 110.777 359.071 110.355 359.313 109.952C359.555 109.541 359.948 109.178 360.49 108.863C361.033 108.548 361.741 108.291 362.613 108.093C363.486 107.888 364.557 107.77 365.825 107.741V106.872C365.825 106.007 365.638 105.354 365.264 104.914C364.89 104.467 364.344 104.243 363.625 104.243C363.141 104.243 362.734 104.305 362.404 104.43C362.082 104.547 361.799 104.683 361.557 104.837C361.323 104.984 361.117 105.119 360.941 105.244C360.773 105.361 360.604 105.42 360.435 105.42C360.303 105.42 360.19 105.387 360.094 105.321C359.999 105.248 359.918 105.16 359.852 105.057L359.5 104.43ZM372.79 102.857V114H370.832V102.857H372.79ZM373.208 99.359C373.208 99.5497 373.168 99.7293 373.087 99.898C373.014 100.059 372.911 100.206 372.779 100.338C372.654 100.463 372.504 100.562 372.328 100.635C372.159 100.708 371.98 100.745 371.789 100.745C371.598 100.745 371.419 100.708 371.25 100.635C371.089 100.562 370.946 100.463 370.821 100.338C370.696 100.206 370.597 100.059 370.524 99.898C370.451 99.7293 370.414 99.5497 370.414 99.359C370.414 99.1683 370.451 98.9887 370.524 98.82C370.597 98.644 370.696 98.4937 370.821 98.369C370.946 98.237 371.089 98.1343 371.25 98.061C371.419 97.9877 371.598 97.951 371.789 97.951C371.98 97.951 372.159 97.9877 372.328 98.061C372.504 98.1343 372.654 98.237 372.779 98.369C372.911 98.4937 373.014 98.644 373.087 98.82C373.168 98.9887 373.208 99.1683 373.208 99.359ZM377.855 104.474C378.097 104.203 378.354 103.957 378.625 103.737C378.896 103.517 379.182 103.33 379.483 103.176C379.791 103.015 380.114 102.894 380.451 102.813C380.796 102.725 381.166 102.681 381.562 102.681C382.171 102.681 382.706 102.784 383.168 102.989C383.637 103.187 384.026 103.473 384.334 103.847C384.649 104.214 384.888 104.657 385.049 105.178C385.21 105.699 385.291 106.274 385.291 106.905V114H383.322V106.905C383.322 106.062 383.128 105.409 382.739 104.947C382.358 104.478 381.775 104.243 380.99 104.243C380.411 104.243 379.868 104.382 379.362 104.661C378.863 104.94 378.401 105.317 377.976 105.794V114H376.007V102.857H377.184C377.463 102.857 377.635 102.993 377.701 103.264L377.855 104.474Z" fill="white"/>
</svg>
