<svg width="406" height="228" viewBox="0 0 406 228" fill="none" xmlns="http://www.w3.org/2000/svg">
<rect width="406" height="228" fill="black"/>
<path d="M57.1265 67.975V73.486H63.6055V75.224H57.1265V82H54.9925V66.237H64.7055V67.975H57.1265ZM68.995 70.857V82H67.037V70.857H68.995ZM69.413 67.359C69.413 67.5497 69.3726 67.7293 69.292 67.898C69.2186 68.0593 69.116 68.206 68.984 68.338C68.8593 68.4627 68.709 68.5617 68.533 68.635C68.3643 68.7083 68.1846 68.745 67.994 68.745C67.8033 68.745 67.6236 68.7083 67.455 68.635C67.2936 68.5617 67.1506 68.4627 67.026 68.338C66.9013 68.206 66.8023 68.0593 66.729 67.898C66.6556 67.7293 66.619 67.5497 66.619 67.359C66.619 67.1683 66.6556 66.9887 66.729 66.82C66.8023 66.644 66.9013 66.4937 67.026 66.369C67.1506 66.237 67.2936 66.1343 67.455 66.061C67.6236 65.9877 67.8033 65.951 67.994 65.951C68.1846 65.951 68.3643 65.9877 68.533 66.061C68.709 66.1343 68.8593 66.237 68.984 66.369C69.116 66.4937 69.2186 66.644 69.292 66.82C69.3726 66.9887 69.413 67.1683 69.413 67.359ZM74.0601 72.474C74.3021 72.2027 74.5588 71.957 74.8301 71.737C75.1015 71.517 75.3875 71.33 75.6881 71.176C75.9961 71.0147 76.3188 70.8937 76.6561 70.813C77.0008 70.725 77.3711 70.681 77.7671 70.681C78.3758 70.681 78.9111 70.7837 79.3731 70.989C79.8425 71.187 80.2311 71.473 80.5391 71.847C80.8545 72.2137 81.0928 72.6573 81.2541 73.178C81.4155 73.6987 81.4961 74.2743 81.4961 74.905V82H79.5271V74.905C79.5271 74.0617 79.3328 73.409 78.9441 72.947C78.5628 72.4777 77.9798 72.243 77.1951 72.243C76.6158 72.243 76.0731 72.3823 75.5671 72.661C75.0685 72.9397 74.6065 73.3173 74.1811 73.794V82H72.2121V70.857H73.3891C73.6678 70.857 73.8401 70.9927 73.9061 71.264L74.0601 72.474ZM90.5187 76.984C89.6167 77.0133 88.8467 77.0867 88.2087 77.204C87.578 77.314 87.061 77.4607 86.6577 77.644C86.2617 77.8273 85.972 78.0437 85.7887 78.293C85.6127 78.5423 85.5247 78.821 85.5247 79.129C85.5247 79.4223 85.5724 79.6753 85.6677 79.888C85.763 80.1007 85.8914 80.2767 86.0527 80.416C86.2214 80.548 86.4157 80.647 86.6357 80.713C86.863 80.7717 87.105 80.801 87.3617 80.801C87.7064 80.801 88.0217 80.768 88.3077 80.702C88.5937 80.6287 88.8614 80.526 89.1107 80.394C89.3674 80.262 89.6094 80.1043 89.8367 79.921C90.0714 79.7377 90.2987 79.5287 90.5187 79.294V76.984ZM84.1937 72.43C84.8097 71.836 85.4734 71.3923 86.1847 71.099C86.896 70.8057 87.6844 70.659 88.5497 70.659C89.173 70.659 89.7267 70.7617 90.2107 70.967C90.6947 71.1723 91.1017 71.4583 91.4317 71.825C91.7617 72.1917 92.011 72.6353 92.1797 73.156C92.3484 73.6767 92.4327 74.2487 92.4327 74.872V82H91.5637C91.373 82 91.2264 81.9707 91.1237 81.912C91.021 81.846 90.9404 81.7213 90.8817 81.538L90.6617 80.482C90.3684 80.7533 90.0824 80.9953 89.8037 81.208C89.525 81.4133 89.2317 81.5893 88.9237 81.736C88.6157 81.8753 88.2857 81.9817 87.9337 82.055C87.589 82.1357 87.204 82.176 86.7787 82.176C86.346 82.176 85.939 82.1173 85.5577 82C85.1764 81.8753 84.8427 81.692 84.5567 81.45C84.278 81.208 84.0544 80.9037 83.8857 80.537C83.7244 80.163 83.6437 79.723 83.6437 79.217C83.6437 78.777 83.7647 78.3553 84.0067 77.952C84.2487 77.5413 84.641 77.1783 85.1837 76.863C85.7264 76.5477 86.434 76.291 87.3067 76.093C88.1794 75.8877 89.25 75.7703 90.5187 75.741V74.872C90.5187 74.0067 90.3317 73.354 89.9577 72.914C89.5837 72.4667 89.0374 72.243 88.3187 72.243C87.8347 72.243 87.4277 72.3053 87.0977 72.43C86.775 72.5473 86.4927 72.683 86.2507 72.837C86.016 72.9837 85.8107 73.1193 85.6347 73.244C85.466 73.3613 85.2974 73.42 85.1287 73.42C84.9967 73.42 84.883 73.387 84.7877 73.321C84.6924 73.2477 84.6117 73.1597 84.5457 73.057L84.1937 72.43ZM97.4393 65.797V82H95.4813V65.797H97.4393ZM111.358 74.41C111.967 74.41 112.502 74.3293 112.964 74.168C113.434 74.0067 113.826 73.783 114.141 73.497C114.464 73.2037 114.706 72.8553 114.867 72.452C115.029 72.0487 115.109 71.605 115.109 71.121C115.109 70.1163 114.798 69.3317 114.174 68.767C113.558 68.2023 112.62 67.92 111.358 67.92H108.828V74.41H111.358ZM111.358 66.237C112.356 66.237 113.221 66.3543 113.954 66.589C114.695 66.8163 115.307 67.1427 115.791 67.568C116.275 67.9933 116.635 68.5067 116.869 69.108C117.111 69.7093 117.232 70.3803 117.232 71.121C117.232 71.8543 117.104 72.5253 116.847 73.134C116.591 73.7427 116.213 74.267 115.714 74.707C115.223 75.147 114.611 75.4917 113.877 75.741C113.151 75.983 112.312 76.104 111.358 76.104H108.828V82H106.705V66.237H111.358ZM121.1 73.09C121.452 72.3273 121.885 71.7333 122.398 71.308C122.912 70.8753 123.539 70.659 124.279 70.659C124.514 70.659 124.738 70.6847 124.95 70.736C125.17 70.7873 125.365 70.868 125.533 70.978L125.39 72.441C125.346 72.6243 125.236 72.716 125.06 72.716C124.958 72.716 124.807 72.694 124.609 72.65C124.411 72.606 124.188 72.584 123.938 72.584C123.586 72.584 123.271 72.6353 122.992 72.738C122.721 72.8407 122.475 72.9947 122.255 73.2C122.043 73.398 121.848 73.6473 121.672 73.948C121.504 74.2413 121.35 74.5787 121.21 74.96V82H119.241V70.857H120.363C120.576 70.857 120.723 70.8973 120.803 70.978C120.884 71.0587 120.939 71.198 120.968 71.396L121.1 73.09ZM134.262 75.213C134.262 74.7583 134.196 74.344 134.064 73.97C133.939 73.5887 133.752 73.2623 133.503 72.991C133.261 72.7123 132.964 72.4997 132.612 72.353C132.26 72.199 131.86 72.122 131.413 72.122C130.474 72.122 129.73 72.397 129.18 72.947C128.637 73.4897 128.3 74.245 128.168 75.213H134.262ZM135.846 80.438C135.604 80.7313 135.314 80.988 134.977 81.208C134.64 81.4207 134.277 81.5967 133.888 81.736C133.507 81.8753 133.111 81.978 132.7 82.044C132.289 82.1173 131.882 82.154 131.479 82.154C130.709 82.154 129.998 82.0257 129.345 81.769C128.7 81.505 128.139 81.1237 127.662 80.625C127.193 80.119 126.826 79.4957 126.562 78.755C126.298 78.0143 126.166 77.1637 126.166 76.203C126.166 75.4257 126.283 74.6997 126.518 74.025C126.76 73.3503 127.105 72.7673 127.552 72.276C127.999 71.7773 128.546 71.3887 129.191 71.11C129.836 70.824 130.562 70.681 131.369 70.681C132.036 70.681 132.652 70.7947 133.217 71.022C133.789 71.242 134.28 71.5647 134.691 71.99C135.109 72.408 135.435 72.9287 135.67 73.552C135.905 74.168 136.022 74.872 136.022 75.664C136.022 75.972 135.989 76.1773 135.923 76.28C135.857 76.3827 135.732 76.434 135.549 76.434H128.102C128.124 77.138 128.219 77.7503 128.388 78.271C128.564 78.7917 128.806 79.228 129.114 79.58C129.422 79.9247 129.789 80.185 130.214 80.361C130.639 80.5297 131.116 80.614 131.644 80.614C132.135 80.614 132.557 80.559 132.909 80.449C133.268 80.3317 133.576 80.207 133.833 80.075C134.09 79.943 134.302 79.822 134.471 79.712C134.647 79.5947 134.797 79.536 134.922 79.536C135.083 79.536 135.208 79.5983 135.296 79.723L135.846 80.438ZM144.917 72.694C144.829 72.8553 144.693 72.936 144.51 72.936C144.4 72.936 144.275 72.8957 144.136 72.815C143.997 72.7343 143.824 72.6463 143.619 72.551C143.421 72.4483 143.183 72.3567 142.904 72.276C142.625 72.188 142.295 72.144 141.914 72.144C141.584 72.144 141.287 72.188 141.023 72.276C140.759 72.3567 140.532 72.4703 140.341 72.617C140.158 72.7637 140.015 72.936 139.912 73.134C139.817 73.3247 139.769 73.5337 139.769 73.761C139.769 74.047 139.85 74.2853 140.011 74.476C140.18 74.6667 140.4 74.8317 140.671 74.971C140.942 75.1103 141.25 75.235 141.595 75.345C141.94 75.4477 142.292 75.5613 142.651 75.686C143.018 75.8033 143.373 75.9353 143.718 76.082C144.063 76.2287 144.371 76.412 144.642 76.632C144.913 76.852 145.13 77.1233 145.291 77.446C145.46 77.7613 145.544 78.1427 145.544 78.59C145.544 79.1033 145.452 79.58 145.269 80.02C145.086 80.4527 144.814 80.8303 144.455 81.153C144.096 81.4683 143.656 81.7177 143.135 81.901C142.614 82.0843 142.013 82.176 141.331 82.176C140.554 82.176 139.85 82.0513 139.219 81.802C138.588 81.5453 138.053 81.219 137.613 80.823L138.075 80.075C138.134 79.9797 138.203 79.9063 138.284 79.855C138.365 79.8037 138.467 79.778 138.592 79.778C138.724 79.778 138.863 79.8293 139.01 79.932C139.157 80.0347 139.333 80.1483 139.538 80.273C139.751 80.3977 140.007 80.5113 140.308 80.614C140.609 80.7167 140.983 80.768 141.43 80.768C141.811 80.768 142.145 80.7203 142.431 80.625C142.717 80.5223 142.955 80.3867 143.146 80.218C143.337 80.0493 143.476 79.855 143.564 79.635C143.659 79.415 143.707 79.1803 143.707 78.931C143.707 78.623 143.623 78.37 143.454 78.172C143.293 77.9667 143.076 77.7943 142.805 77.655C142.534 77.5083 142.222 77.3837 141.87 77.281C141.525 77.171 141.17 77.0573 140.803 76.94C140.444 76.8227 140.088 76.6907 139.736 76.544C139.391 76.39 139.083 76.1993 138.812 75.972C138.541 75.7447 138.321 75.466 138.152 75.136C137.991 74.7987 137.91 74.3917 137.91 73.915C137.91 73.4897 137.998 73.0827 138.174 72.694C138.35 72.298 138.607 71.9533 138.944 71.66C139.281 71.3593 139.696 71.121 140.187 70.945C140.678 70.769 141.239 70.681 141.87 70.681C142.603 70.681 143.26 70.7983 143.839 71.033C144.426 71.2603 144.932 71.5757 145.357 71.979L144.917 72.694ZM155.403 75.213C155.403 74.7583 155.337 74.344 155.205 73.97C155.08 73.5887 154.893 73.2623 154.644 72.991C154.402 72.7123 154.105 72.4997 153.753 72.353C153.401 72.199 153.001 72.122 152.554 72.122C151.615 72.122 150.871 72.397 150.321 72.947C149.778 73.4897 149.441 74.245 149.309 75.213H155.403ZM156.987 80.438C156.745 80.7313 156.455 80.988 156.118 81.208C155.78 81.4207 155.417 81.5967 155.029 81.736C154.647 81.8753 154.251 81.978 153.841 82.044C153.43 82.1173 153.023 82.154 152.62 82.154C151.85 82.154 151.138 82.0257 150.486 81.769C149.84 81.505 149.279 81.1237 148.803 80.625C148.333 80.119 147.967 79.4957 147.703 78.755C147.439 78.0143 147.307 77.1637 147.307 76.203C147.307 75.4257 147.424 74.6997 147.659 74.025C147.901 73.3503 148.245 72.7673 148.693 72.276C149.14 71.7773 149.686 71.3887 150.332 71.11C150.977 70.824 151.703 70.681 152.51 70.681C153.177 70.681 153.793 70.7947 154.358 71.022C154.93 71.242 155.421 71.5647 155.832 71.99C156.25 72.408 156.576 72.9287 156.811 73.552C157.045 74.168 157.163 74.872 157.163 75.664C157.163 75.972 157.13 76.1773 157.064 76.28C156.998 76.3827 156.873 76.434 156.69 76.434H149.243C149.265 77.138 149.36 77.7503 149.529 78.271C149.705 78.7917 149.947 79.228 150.255 79.58C150.563 79.9247 150.929 80.185 151.355 80.361C151.78 80.5297 152.257 80.614 152.785 80.614C153.276 80.614 153.698 80.559 154.05 80.449C154.409 80.3317 154.717 80.207 154.974 80.075C155.23 79.943 155.443 79.822 155.612 79.712C155.788 79.5947 155.938 79.536 156.063 79.536C156.224 79.536 156.349 79.5983 156.437 79.723L156.987 80.438ZM161.416 72.474C161.658 72.2027 161.914 71.957 162.186 71.737C162.457 71.517 162.743 71.33 163.044 71.176C163.352 71.0147 163.674 70.8937 164.012 70.813C164.356 70.725 164.727 70.681 165.123 70.681C165.731 70.681 166.267 70.7837 166.729 70.989C167.198 71.187 167.587 71.473 167.895 71.847C168.21 72.2137 168.448 72.6573 168.61 73.178C168.771 73.6987 168.852 74.2743 168.852 74.905V82H166.883V74.905C166.883 74.0617 166.688 73.409 166.3 72.947C165.918 72.4777 165.335 72.243 164.551 72.243C163.971 72.243 163.429 72.3823 162.923 72.661C162.424 72.9397 161.962 73.3173 161.537 73.794V82H159.568V70.857H160.745C161.023 70.857 161.196 70.9927 161.262 71.264L161.416 72.474ZM175.106 82.176C174.226 82.176 173.547 81.9303 173.071 81.439C172.601 80.9477 172.367 80.24 172.367 79.316V72.496H171.025C170.907 72.496 170.808 72.463 170.728 72.397C170.647 72.3237 170.607 72.2137 170.607 72.067V71.286L172.433 71.055L172.884 67.612C172.906 67.502 172.953 67.414 173.027 67.348C173.107 67.2747 173.21 67.238 173.335 67.238H174.325V71.077H177.548V72.496H174.325V79.184C174.325 79.6533 174.438 80.0017 174.666 80.229C174.893 80.4563 175.186 80.57 175.546 80.57C175.751 80.57 175.927 80.5443 176.074 80.493C176.228 80.4343 176.36 80.372 176.47 80.306C176.58 80.24 176.671 80.1813 176.745 80.13C176.825 80.0713 176.895 80.042 176.954 80.042C177.056 80.042 177.148 80.1043 177.229 80.229L177.801 81.164C177.463 81.4793 177.056 81.7287 176.58 81.912C176.103 82.088 175.612 82.176 175.106 82.176ZM185.609 76.984C184.707 77.0133 183.937 77.0867 183.299 77.204C182.668 77.314 182.151 77.4607 181.748 77.644C181.352 77.8273 181.062 78.0437 180.879 78.293C180.703 78.5423 180.615 78.821 180.615 79.129C180.615 79.4223 180.662 79.6753 180.758 79.888C180.853 80.1007 180.981 80.2767 181.143 80.416C181.311 80.548 181.506 80.647 181.726 80.713C181.953 80.7717 182.195 80.801 182.452 80.801C182.796 80.801 183.112 80.768 183.398 80.702C183.684 80.6287 183.951 80.526 184.201 80.394C184.457 80.262 184.699 80.1043 184.927 79.921C185.161 79.7377 185.389 79.5287 185.609 79.294V76.984ZM179.284 72.43C179.9 71.836 180.563 71.3923 181.275 71.099C181.986 70.8057 182.774 70.659 183.64 70.659C184.263 70.659 184.817 70.7617 185.301 70.967C185.785 71.1723 186.192 71.4583 186.522 71.825C186.852 72.1917 187.101 72.6353 187.27 73.156C187.438 73.6767 187.523 74.2487 187.523 74.872V82H186.654C186.463 82 186.316 81.9707 186.214 81.912C186.111 81.846 186.03 81.7213 185.972 81.538L185.752 80.482C185.458 80.7533 185.172 80.9953 184.894 81.208C184.615 81.4133 184.322 81.5893 184.014 81.736C183.706 81.8753 183.376 81.9817 183.024 82.055C182.679 82.1357 182.294 82.176 181.869 82.176C181.436 82.176 181.029 82.1173 180.648 82C180.266 81.8753 179.933 81.692 179.647 81.45C179.368 81.208 179.144 80.9037 178.976 80.537C178.814 80.163 178.734 79.723 178.734 79.217C178.734 78.777 178.855 78.3553 179.097 77.952C179.339 77.5413 179.731 77.1783 180.274 76.863C180.816 76.5477 181.524 76.291 182.397 76.093C183.269 75.8877 184.34 75.7703 185.609 75.741V74.872C185.609 74.0067 185.422 73.354 185.048 72.914C184.674 72.4667 184.127 72.243 183.409 72.243C182.925 72.243 182.518 72.3053 182.188 72.43C181.865 72.5473 181.583 72.683 181.341 72.837C181.106 72.9837 180.901 73.1193 180.725 73.244C180.556 73.3613 180.387 73.42 180.219 73.42C180.087 73.42 179.973 73.387 179.878 73.321C179.782 73.2477 179.702 73.1597 179.636 73.057L179.284 72.43ZM200.695 82H198.737V72.496H192.995V79.184C192.995 79.6533 193.108 80.0017 193.336 80.229C193.563 80.4563 193.856 80.57 194.216 80.57C194.421 80.57 194.597 80.5443 194.744 80.493C194.898 80.4343 195.03 80.372 195.14 80.306C195.25 80.24 195.341 80.1813 195.415 80.13C195.495 80.0713 195.565 80.042 195.624 80.042C195.726 80.042 195.818 80.1043 195.899 80.229L196.471 81.164C196.133 81.4793 195.726 81.7287 195.25 81.912C194.773 82.088 194.282 82.176 193.776 82.176C192.896 82.176 192.217 81.9303 191.741 81.439C191.271 80.9477 191.037 80.24 191.037 79.316V72.496H189.695C189.577 72.496 189.478 72.463 189.398 72.397C189.317 72.3237 189.277 72.2137 189.277 72.067V71.286L191.103 71.044L191.554 67.612C191.576 67.502 191.623 67.414 191.697 67.348C191.777 67.2747 191.88 67.238 192.005 67.238H192.995V71.077H200.695V82ZM201.179 67.282C201.179 67.4727 201.138 67.6523 201.058 67.821C200.984 67.9823 200.882 68.1253 200.75 68.25C200.625 68.3747 200.478 68.4737 200.31 68.547C200.141 68.6203 199.961 68.657 199.771 68.657C199.58 68.657 199.4 68.6203 199.232 68.547C199.07 68.4737 198.927 68.3747 198.803 68.25C198.678 68.1253 198.579 67.9823 198.506 67.821C198.432 67.6523 198.396 67.4727 198.396 67.282C198.396 67.0913 198.432 66.9117 198.506 66.743C198.579 66.567 198.678 66.4167 198.803 66.292C198.927 66.16 199.07 66.0573 199.232 65.984C199.4 65.9107 199.58 65.874 199.771 65.874C199.961 65.874 200.141 65.9107 200.31 65.984C200.478 66.0573 200.625 66.16 200.75 66.292C200.882 66.4167 200.984 66.567 201.058 66.743C201.138 66.9117 201.179 67.0913 201.179 67.282ZM208.608 70.681C209.422 70.681 210.156 70.8167 210.808 71.088C211.461 71.3593 212.018 71.7443 212.48 72.243C212.942 72.7417 213.294 73.3467 213.536 74.058C213.786 74.762 213.91 75.5503 213.91 76.423C213.91 77.303 213.786 78.095 213.536 78.799C213.294 79.503 212.942 80.1043 212.48 80.603C212.018 81.1017 211.461 81.4867 210.808 81.758C210.156 82.022 209.422 82.154 208.608 82.154C207.787 82.154 207.046 82.022 206.386 81.758C205.734 81.4867 205.176 81.1017 204.714 80.603C204.252 80.1043 203.897 79.503 203.647 78.799C203.405 78.095 203.284 77.303 203.284 76.423C203.284 75.5503 203.405 74.762 203.647 74.058C203.897 73.3467 204.252 72.7417 204.714 72.243C205.176 71.7443 205.734 71.3593 206.386 71.088C207.046 70.8167 207.787 70.681 208.608 70.681ZM208.608 80.625C209.708 80.625 210.53 80.2583 211.072 79.525C211.615 78.7843 211.886 77.754 211.886 76.434C211.886 75.1067 211.615 74.0727 211.072 73.332C210.53 72.5913 209.708 72.221 208.608 72.221C208.051 72.221 207.563 72.3163 207.145 72.507C206.735 72.6977 206.39 72.9727 206.111 73.332C205.84 73.6913 205.635 74.135 205.495 74.663C205.363 75.1837 205.297 75.774 205.297 76.434C205.297 77.754 205.569 78.7843 206.111 79.525C206.661 80.2583 207.494 80.625 208.608 80.625ZM218.242 72.474C218.484 72.2027 218.74 71.957 219.012 71.737C219.283 71.517 219.569 71.33 219.87 71.176C220.178 71.0147 220.5 70.8937 220.838 70.813C221.182 70.725 221.553 70.681 221.949 70.681C222.557 70.681 223.093 70.7837 223.555 70.989C224.024 71.187 224.413 71.473 224.721 71.847C225.036 72.2137 225.274 72.6573 225.436 73.178C225.597 73.6987 225.678 74.2743 225.678 74.905V82H223.709V74.905C223.709 74.0617 223.514 73.409 223.126 72.947C222.744 72.4777 222.161 72.243 221.377 72.243C220.797 72.243 220.255 72.3823 219.749 72.661C219.25 72.9397 218.788 73.3173 218.363 73.794V82H216.394V70.857H217.571C217.849 70.857 218.022 70.9927 218.088 71.264L218.242 72.474ZM234.114 74.575H239.548V76.236H234.114V74.575ZM261.349 74.421V80.471C260.557 81.043 259.71 81.472 258.808 81.758C257.914 82.0367 256.931 82.176 255.86 82.176C254.592 82.176 253.448 81.9817 252.428 81.593C251.409 81.197 250.536 80.647 249.81 79.943C249.092 79.2317 248.538 78.381 248.149 77.391C247.761 76.401 247.566 75.312 247.566 74.124C247.566 72.9213 247.753 71.825 248.127 70.835C248.509 69.845 249.048 68.998 249.744 68.294C250.441 67.5827 251.288 67.0327 252.285 66.644C253.283 66.2553 254.397 66.061 255.629 66.061C256.253 66.061 256.832 66.1087 257.367 66.204C257.903 66.292 258.398 66.424 258.852 66.6C259.307 66.7687 259.729 66.9777 260.117 67.227C260.506 67.469 260.869 67.744 261.206 68.052L260.601 69.02C260.506 69.1667 260.381 69.262 260.227 69.306C260.081 69.3427 259.916 69.306 259.732 69.196C259.556 69.0933 259.355 68.9687 259.127 68.822C258.9 68.6753 258.621 68.536 258.291 68.404C257.969 68.2647 257.584 68.1473 257.136 68.052C256.696 67.9567 256.172 67.909 255.563 67.909C254.676 67.909 253.873 68.0557 253.154 68.349C252.436 68.635 251.823 69.0493 251.317 69.592C250.811 70.1273 250.423 70.78 250.151 71.55C249.88 72.3127 249.744 73.1707 249.744 74.124C249.744 75.114 249.884 76.0013 250.162 76.786C250.448 77.5633 250.852 78.227 251.372 78.777C251.9 79.3197 252.538 79.734 253.286 80.02C254.034 80.306 254.874 80.449 255.805 80.449C256.539 80.449 257.188 80.3683 257.752 80.207C258.324 80.0383 258.882 79.8073 259.424 79.514V76.049H256.971C256.832 76.049 256.718 76.0087 256.63 75.928C256.55 75.8473 256.509 75.7483 256.509 75.631V74.421H261.349ZM265.841 73.09C266.193 72.3273 266.625 71.7333 267.139 71.308C267.652 70.8753 268.279 70.659 269.02 70.659C269.254 70.659 269.478 70.6847 269.691 70.736C269.911 70.7873 270.105 70.868 270.274 70.978L270.131 72.441C270.087 72.6243 269.977 72.716 269.801 72.716C269.698 72.716 269.548 72.694 269.35 72.65C269.152 72.606 268.928 72.584 268.679 72.584C268.327 72.584 268.011 72.6353 267.733 72.738C267.461 72.8407 267.216 72.9947 266.996 73.2C266.783 73.398 266.589 73.6473 266.413 73.948C266.244 74.2413 266.09 74.5787 265.951 74.96V82H263.982V70.857H265.104C265.316 70.857 265.463 70.8973 265.544 70.978C265.624 71.0587 265.679 71.198 265.709 71.396L265.841 73.09ZM276.241 70.681C277.055 70.681 277.788 70.8167 278.441 71.088C279.094 71.3593 279.651 71.7443 280.113 72.243C280.575 72.7417 280.927 73.3467 281.169 74.058C281.418 74.762 281.543 75.5503 281.543 76.423C281.543 77.303 281.418 78.095 281.169 78.799C280.927 79.503 280.575 80.1043 280.113 80.603C279.651 81.1017 279.094 81.4867 278.441 81.758C277.788 82.022 277.055 82.154 276.241 82.154C275.42 82.154 274.679 82.022 274.019 81.758C273.366 81.4867 272.809 81.1017 272.347 80.603C271.885 80.1043 271.529 79.503 271.28 78.799C271.038 78.095 270.917 77.303 270.917 76.423C270.917 75.5503 271.038 74.762 271.28 74.058C271.529 73.3467 271.885 72.7417 272.347 72.243C272.809 71.7443 273.366 71.3593 274.019 71.088C274.679 70.8167 275.42 70.681 276.241 70.681ZM276.241 80.625C277.341 80.625 278.162 80.2583 278.705 79.525C279.248 78.7843 279.519 77.754 279.519 76.434C279.519 75.1067 279.248 74.0727 278.705 73.332C278.162 72.5913 277.341 72.221 276.241 72.221C275.684 72.221 275.196 72.3163 274.778 72.507C274.367 72.6977 274.023 72.9727 273.744 73.332C273.473 73.6913 273.267 74.135 273.128 74.663C272.996 75.1837 272.93 75.774 272.93 76.434C272.93 77.754 273.201 78.7843 273.744 79.525C274.294 80.2583 275.126 80.625 276.241 80.625ZM293.19 70.857V82H292.024C291.745 82 291.569 81.8643 291.496 81.593L291.342 80.394C290.858 80.9293 290.315 81.362 289.714 81.692C289.112 82.0147 288.423 82.176 287.646 82.176C287.037 82.176 286.498 82.077 286.029 81.879C285.567 81.6737 285.178 81.3877 284.863 81.021C284.547 80.6543 284.309 80.2107 284.148 79.69C283.994 79.1693 283.917 78.5937 283.917 77.963V70.857H285.875V77.963C285.875 78.8063 286.065 79.459 286.447 79.921C286.835 80.383 287.426 80.614 288.218 80.614C288.797 80.614 289.336 80.4783 289.835 80.207C290.341 79.9283 290.806 79.547 291.232 79.063V70.857H293.19ZM298.263 79.316C298.622 79.8 299.015 80.141 299.44 80.339C299.865 80.537 300.342 80.636 300.87 80.636C301.911 80.636 302.711 80.2657 303.268 79.525C303.825 78.7843 304.104 77.7283 304.104 76.357C304.104 75.631 304.038 75.0077 303.906 74.487C303.781 73.9663 303.598 73.541 303.356 73.211C303.114 72.8737 302.817 72.628 302.465 72.474C302.113 72.32 301.713 72.243 301.266 72.243C300.628 72.243 300.067 72.3897 299.583 72.683C299.106 72.9763 298.666 73.3907 298.263 73.926V79.316ZM298.164 72.584C298.633 72.0047 299.176 71.539 299.792 71.187C300.408 70.835 301.112 70.659 301.904 70.659C302.549 70.659 303.132 70.7837 303.653 71.033C304.174 71.275 304.617 71.638 304.984 72.122C305.351 72.5987 305.633 73.1927 305.831 73.904C306.029 74.6153 306.128 75.433 306.128 76.357C306.128 77.1783 306.018 77.9447 305.798 78.656C305.578 79.36 305.259 79.9723 304.841 80.493C304.43 81.0063 303.924 81.4133 303.323 81.714C302.729 82.0073 302.058 82.154 301.31 82.154C300.628 82.154 300.041 82.0403 299.55 81.813C299.066 81.5783 298.637 81.2557 298.263 80.845V85.773H296.294V70.857H297.471C297.75 70.857 297.922 70.9927 297.988 71.264L298.164 72.584ZM323.561 80.141C323.774 80.141 323.942 80.2033 324.067 80.328C324.192 80.4527 324.254 80.614 324.254 80.812V82H313.738V81.329C313.738 81.1897 313.767 81.0467 313.826 80.9C313.885 80.7533 313.976 80.6177 314.101 80.493L319.15 75.422C319.568 74.9967 319.949 74.5897 320.294 74.201C320.639 73.805 320.932 73.409 321.174 73.013C321.416 72.617 321.603 72.2173 321.735 71.814C321.867 71.4033 321.933 70.967 321.933 70.505C321.933 70.043 321.86 69.6397 321.713 69.295C321.566 68.943 321.365 68.6533 321.108 68.426C320.859 68.1987 320.562 68.03 320.217 67.92C319.872 67.8027 319.502 67.744 319.106 67.744C318.703 67.744 318.332 67.8027 317.995 67.92C317.658 68.0373 317.357 68.2023 317.093 68.415C316.836 68.6203 316.62 68.866 316.444 69.152C316.268 69.438 316.143 69.7533 316.07 70.098C315.982 70.3547 315.861 70.527 315.707 70.615C315.56 70.6957 315.351 70.7177 315.08 70.681L314.057 70.505C314.16 69.7863 314.358 69.152 314.651 68.602C314.952 68.0447 315.326 67.579 315.773 67.205C316.228 66.831 316.745 66.5487 317.324 66.358C317.903 66.16 318.53 66.061 319.205 66.061C319.872 66.061 320.496 66.16 321.075 66.358C321.654 66.556 322.157 66.8457 322.582 67.227C323.007 67.601 323.341 68.0593 323.583 68.602C323.825 69.1447 323.946 69.7607 323.946 70.45C323.946 71.0367 323.858 71.583 323.682 72.089C323.506 72.5877 323.268 73.0643 322.967 73.519C322.666 73.9737 322.318 74.4173 321.922 74.85C321.533 75.2827 321.119 75.719 320.679 76.159L316.521 80.405C316.814 80.3243 317.111 80.262 317.412 80.218C317.713 80.1667 318.002 80.141 318.281 80.141H323.561ZM331.846 80.614C332.359 80.614 332.817 80.5443 333.221 80.405C333.631 80.2583 333.976 80.0567 334.255 79.8C334.541 79.536 334.757 79.2243 334.904 78.865C335.058 78.4983 335.135 78.095 335.135 77.655C335.135 77.1123 335.043 76.6503 334.86 76.269C334.684 75.8803 334.442 75.565 334.134 75.323C333.833 75.081 333.485 74.905 333.089 74.795C332.693 74.6777 332.278 74.619 331.846 74.619C331.413 74.619 330.999 74.6777 330.603 74.795C330.207 74.905 329.855 75.081 329.547 75.323C329.246 75.565 329.004 75.8803 328.821 76.269C328.645 76.6503 328.557 77.1123 328.557 77.655C328.557 78.095 328.63 78.4983 328.777 78.865C328.931 79.2243 329.147 79.536 329.426 79.8C329.712 80.0567 330.056 80.2583 330.46 80.405C330.87 80.5443 331.332 80.614 331.846 80.614ZM331.846 67.579C331.376 67.579 330.962 67.6487 330.603 67.788C330.251 67.9273 329.954 68.118 329.712 68.36C329.477 68.602 329.297 68.8843 329.173 69.207C329.055 69.5297 328.997 69.8743 328.997 70.241C328.997 70.6003 329.048 70.9487 329.151 71.286C329.253 71.6233 329.418 71.924 329.646 72.188C329.873 72.4447 330.166 72.6537 330.526 72.815C330.892 72.969 331.332 73.046 331.846 73.046C332.359 73.046 332.795 72.969 333.155 72.815C333.521 72.6537 333.818 72.4447 334.046 72.188C334.273 71.924 334.438 71.6233 334.541 71.286C334.643 70.9487 334.695 70.6003 334.695 70.241C334.695 69.8743 334.632 69.5297 334.508 69.207C334.39 68.8843 334.211 68.602 333.969 68.36C333.734 68.118 333.437 67.9273 333.078 67.788C332.726 67.6487 332.315 67.579 331.846 67.579ZM334.101 73.783C335.083 74.0617 335.839 74.5273 336.367 75.18C336.895 75.8327 337.159 76.6687 337.159 77.688C337.159 78.3773 337.027 79.0007 336.763 79.558C336.506 80.108 336.143 80.5773 335.674 80.966C335.212 81.3547 334.654 81.6553 334.002 81.868C333.349 82.0733 332.63 82.176 331.846 82.176C331.061 82.176 330.342 82.0733 329.69 81.868C329.037 81.6553 328.476 81.3547 328.007 80.966C327.537 80.5773 327.174 80.108 326.918 79.558C326.661 79.0007 326.533 78.3773 326.533 77.688C326.533 76.6687 326.797 75.8327 327.325 75.18C327.853 74.5273 328.608 74.0617 329.591 73.783C328.762 73.475 328.135 73.0167 327.71 72.408C327.292 71.792 327.083 71.0587 327.083 70.208C327.083 69.6287 327.196 69.086 327.424 68.58C327.651 68.074 327.974 67.634 328.392 67.26C328.81 66.886 329.308 66.5927 329.888 66.38C330.474 66.1673 331.127 66.061 331.846 66.061C332.557 66.061 333.206 66.1673 333.793 66.38C334.379 66.5927 334.882 66.886 335.3 67.26C335.718 67.634 336.04 68.074 336.268 68.58C336.495 69.086 336.609 69.6287 336.609 70.208C336.609 71.0587 336.396 71.792 335.971 72.408C335.553 73.0167 334.929 73.475 334.101 73.783ZM345.231 74.575H350.665V76.236H345.231V74.575ZM87.3817 104.744C87.4991 104.744 87.6017 104.792 87.6897 104.887L88.5367 105.8C87.8914 106.548 87.1067 107.131 86.1827 107.549C85.2661 107.967 84.1551 108.176 82.8497 108.176C81.7204 108.176 80.6937 107.982 79.7697 107.593C78.8457 107.197 78.0574 106.647 77.4047 105.943C76.7521 105.232 76.2461 104.381 75.8867 103.391C75.5274 102.401 75.3477 101.312 75.3477 100.124C75.3477 98.936 75.5347 97.847 75.9087 96.857C76.2827 95.867 76.8071 95.0163 77.4817 94.305C78.1637 93.5937 78.9777 93.0437 79.9237 92.655C80.8697 92.259 81.9147 92.061 83.0587 92.061C84.1807 92.061 85.1707 92.2407 86.0287 92.6C86.8867 92.9593 87.6421 93.447 88.2947 94.063L87.5907 95.042C87.5467 95.1153 87.4881 95.1777 87.4147 95.229C87.3487 95.273 87.2571 95.295 87.1397 95.295C87.0077 95.295 86.8464 95.2253 86.6557 95.086C86.4651 94.9393 86.2157 94.778 85.9077 94.602C85.5997 94.426 85.2147 94.2683 84.7527 94.129C84.2907 93.9823 83.7224 93.909 83.0477 93.909C82.2337 93.909 81.4894 94.052 80.8147 94.338C80.1401 94.6167 79.5571 95.0237 79.0657 95.559C78.5817 96.0943 78.2041 96.747 77.9327 97.517C77.6614 98.287 77.5257 99.156 77.5257 100.124C77.5257 101.107 77.6651 101.983 77.9437 102.753C78.2297 103.523 78.6147 104.176 79.0987 104.711C79.5901 105.239 80.1657 105.642 80.8257 105.921C81.4931 106.2 82.2117 106.339 82.9817 106.339C83.4511 106.339 83.8727 106.313 84.2467 106.262C84.6281 106.203 84.9764 106.115 85.2917 105.998C85.6144 105.881 85.9114 105.734 86.1827 105.558C86.4614 105.375 86.7364 105.158 87.0077 104.909C87.1324 104.799 87.2571 104.744 87.3817 104.744ZM95.0312 96.681C95.8452 96.681 96.5785 96.8167 97.2312 97.088C97.8839 97.3593 98.4412 97.7443 98.9032 98.243C99.3652 98.7417 99.7172 99.3467 99.9592 100.058C100.209 100.762 100.333 101.55 100.333 102.423C100.333 103.303 100.209 104.095 99.9592 104.799C99.7172 105.503 99.3652 106.104 98.9032 106.603C98.4412 107.102 97.8839 107.487 97.2312 107.758C96.5785 108.022 95.8452 108.154 95.0312 108.154C94.2099 108.154 93.4692 108.022 92.8092 107.758C92.1565 107.487 91.5992 107.102 91.1372 106.603C90.6752 106.104 90.3195 105.503 90.0702 104.799C89.8282 104.095 89.7072 103.303 89.7072 102.423C89.7072 101.55 89.8282 100.762 90.0702 100.058C90.3195 99.3467 90.6752 98.7417 91.1372 98.243C91.5992 97.7443 92.1565 97.3593 92.8092 97.088C93.4692 96.8167 94.2099 96.681 95.0312 96.681ZM95.0312 106.625C96.1312 106.625 96.9525 106.258 97.4952 105.525C98.0379 104.784 98.3092 103.754 98.3092 102.434C98.3092 101.107 98.0379 100.073 97.4952 99.332C96.9525 98.5913 96.1312 98.221 95.0312 98.221C94.4739 98.221 93.9862 98.3163 93.5682 98.507C93.1575 98.6977 92.8129 98.9727 92.5342 99.332C92.2629 99.6913 92.0575 100.135 91.9182 100.663C91.7862 101.184 91.7202 101.774 91.7202 102.434C91.7202 103.754 91.9915 104.784 92.5342 105.525C93.0842 106.258 93.9165 106.625 95.0312 106.625ZM104.665 98.474C104.907 98.2027 105.163 97.957 105.435 97.737C105.706 97.517 105.992 97.33 106.293 97.176C106.601 97.0147 106.923 96.8937 107.261 96.813C107.605 96.725 107.976 96.681 108.372 96.681C108.98 96.681 109.516 96.7837 109.978 96.989C110.447 97.187 110.836 97.473 111.144 97.847C111.459 98.2137 111.697 98.6573 111.859 99.178C112.02 99.6987 112.101 100.274 112.101 100.905V108H110.132V100.905C110.132 100.062 109.937 99.409 109.549 98.947C109.167 98.4777 108.584 98.243 107.8 98.243C107.22 98.243 106.678 98.3823 106.172 98.661C105.673 98.9397 105.211 99.3173 104.786 99.794V108H102.817V96.857H103.994C104.272 96.857 104.445 96.9927 104.511 97.264L104.665 98.474ZM115.66 108V98.529L114.428 98.386C114.267 98.3493 114.139 98.2943 114.043 98.221C113.948 98.1403 113.9 98.0267 113.9 97.88V97.077H115.66V96.483C115.66 95.867 115.752 95.284 115.935 94.734C116.126 94.1767 116.412 93.6927 116.793 93.282C117.175 92.8713 117.651 92.545 118.223 92.303C118.795 92.061 119.463 91.94 120.225 91.94C120.79 91.94 121.333 91.962 121.853 92.006C122.381 92.05 122.891 92.0757 123.382 92.083H124.713V108H122.766V93.458C122.37 93.4433 121.971 93.425 121.567 93.403C121.171 93.381 120.823 93.37 120.522 93.37C119.569 93.37 118.836 93.645 118.322 94.195C117.816 94.7377 117.563 95.5003 117.563 96.483V97.077H120.456V98.496H117.618V108H115.66ZM137.052 96.857V108H135.886C135.607 108 135.431 107.864 135.358 107.593L135.204 106.394C134.72 106.929 134.177 107.362 133.576 107.692C132.975 108.015 132.285 108.176 131.508 108.176C130.899 108.176 130.36 108.077 129.891 107.879C129.429 107.674 129.04 107.388 128.725 107.021C128.41 106.654 128.171 106.211 128.01 105.69C127.856 105.169 127.779 104.594 127.779 103.963V96.857H129.737V103.963C129.737 104.806 129.928 105.459 130.309 105.921C130.698 106.383 131.288 106.614 132.08 106.614C132.659 106.614 133.198 106.478 133.697 106.207C134.203 105.928 134.669 105.547 135.094 105.063V96.857H137.052ZM149.308 108H147.427C147.266 108 147.138 107.96 147.042 107.879C146.954 107.791 146.881 107.696 146.822 107.593L144.017 103.226C143.988 103.329 143.955 103.431 143.918 103.534C143.889 103.629 143.845 103.717 143.786 103.798L141.19 107.593C141.117 107.696 141.036 107.791 140.948 107.879C140.868 107.96 140.754 108 140.607 108H138.858L142.763 102.28L139.012 96.857H140.893C141.055 96.857 141.172 96.8827 141.245 96.934C141.319 96.9853 141.385 97.0587 141.443 97.154L144.182 101.334C144.241 101.121 144.333 100.916 144.457 100.718L146.855 97.198C146.921 97.0953 146.991 97.0147 147.064 96.956C147.145 96.89 147.24 96.857 147.35 96.857H149.154L145.403 102.181L149.308 108ZM168.27 104.744C168.388 104.744 168.49 104.792 168.578 104.887L169.425 105.8C168.78 106.548 167.995 107.131 167.071 107.549C166.155 107.967 165.044 108.176 163.738 108.176C162.609 108.176 161.582 107.982 160.658 107.593C159.734 107.197 158.946 106.647 158.293 105.943C157.641 105.232 157.135 104.381 156.775 103.391C156.416 102.401 156.236 101.312 156.236 100.124C156.236 98.936 156.423 97.847 156.797 96.857C157.171 95.867 157.696 95.0163 158.37 94.305C159.052 93.5937 159.866 93.0437 160.812 92.655C161.758 92.259 162.803 92.061 163.947 92.061C165.069 92.061 166.059 92.2407 166.917 92.6C167.775 92.9593 168.531 93.447 169.183 94.063L168.479 95.042C168.435 95.1153 168.377 95.1777 168.303 95.229C168.237 95.273 168.146 95.295 168.028 95.295C167.896 95.295 167.735 95.2253 167.544 95.086C167.354 94.9393 167.104 94.778 166.796 94.602C166.488 94.426 166.103 94.2683 165.641 94.129C165.179 93.9823 164.611 93.909 163.936 93.909C163.122 93.909 162.378 94.052 161.703 94.338C161.029 94.6167 160.446 95.0237 159.954 95.559C159.47 96.0943 159.093 96.747 158.821 97.517C158.55 98.287 158.414 99.156 158.414 100.124C158.414 101.107 158.554 101.983 158.832 102.753C159.118 103.523 159.503 104.176 159.987 104.711C160.479 105.239 161.054 105.642 161.714 105.921C162.382 106.2 163.1 106.339 163.87 106.339C164.34 106.339 164.761 106.313 165.135 106.262C165.517 106.203 165.865 106.115 166.18 105.998C166.503 105.881 166.8 105.734 167.071 105.558C167.35 105.375 167.625 105.158 167.896 104.909C168.021 104.799 168.146 104.744 168.27 104.744ZM173.407 98.342C173.883 97.836 174.411 97.4327 174.991 97.132C175.57 96.8313 176.237 96.681 176.993 96.681C177.601 96.681 178.137 96.7837 178.599 96.989C179.068 97.187 179.457 97.473 179.765 97.847C180.08 98.2137 180.318 98.6573 180.48 99.178C180.641 99.6987 180.722 100.274 180.722 100.905V108H178.753V100.905C178.753 100.062 178.558 99.409 178.17 98.947C177.788 98.4777 177.205 98.243 176.421 98.243C175.841 98.243 175.299 98.3823 174.793 98.661C174.294 98.9397 173.832 99.3173 173.407 99.794V108H171.438V91.797H173.407V98.342ZM189.744 102.984C188.842 103.013 188.072 103.087 187.434 103.204C186.804 103.314 186.287 103.461 185.883 103.644C185.487 103.827 185.198 104.044 185.014 104.293C184.838 104.542 184.75 104.821 184.75 105.129C184.75 105.422 184.798 105.675 184.893 105.888C184.989 106.101 185.117 106.277 185.278 106.416C185.447 106.548 185.641 106.647 185.861 106.713C186.089 106.772 186.331 106.801 186.587 106.801C186.932 106.801 187.247 106.768 187.533 106.702C187.819 106.629 188.087 106.526 188.336 106.394C188.593 106.262 188.835 106.104 189.062 105.921C189.297 105.738 189.524 105.529 189.744 105.294V102.984ZM183.419 98.43C184.035 97.836 184.699 97.3923 185.41 97.099C186.122 96.8057 186.91 96.659 187.775 96.659C188.399 96.659 188.952 96.7617 189.436 96.967C189.92 97.1723 190.327 97.4583 190.657 97.825C190.987 98.1917 191.237 98.6353 191.405 99.156C191.574 99.6767 191.658 100.249 191.658 100.872V108H190.789C190.599 108 190.452 107.971 190.349 107.912C190.247 107.846 190.166 107.721 190.107 107.538L189.887 106.482C189.594 106.753 189.308 106.995 189.029 107.208C188.751 107.413 188.457 107.589 188.149 107.736C187.841 107.875 187.511 107.982 187.159 108.055C186.815 108.136 186.43 108.176 186.004 108.176C185.572 108.176 185.165 108.117 184.783 108C184.402 107.875 184.068 107.692 183.782 107.45C183.504 107.208 183.28 106.904 183.111 106.537C182.95 106.163 182.869 105.723 182.869 105.217C182.869 104.777 182.99 104.355 183.232 103.952C183.474 103.541 183.867 103.178 184.409 102.863C184.952 102.548 185.66 102.291 186.532 102.093C187.405 101.888 188.476 101.77 189.744 101.741V100.872C189.744 100.007 189.557 99.354 189.183 98.914C188.809 98.4667 188.263 98.243 187.544 98.243C187.06 98.243 186.653 98.3053 186.323 98.43C186.001 98.5473 185.718 98.683 185.476 98.837C185.242 98.9837 185.036 99.1193 184.86 99.244C184.692 99.3613 184.523 99.42 184.354 99.42C184.222 99.42 184.109 99.387 184.013 99.321C183.918 99.2477 183.837 99.1597 183.771 99.057L183.419 98.43ZM196.5 99.09C196.852 98.3273 197.285 97.7333 197.798 97.308C198.311 96.8753 198.938 96.659 199.679 96.659C199.914 96.659 200.137 96.6847 200.35 96.736C200.57 96.7873 200.764 96.868 200.933 96.978L200.79 98.441C200.746 98.6243 200.636 98.716 200.46 98.716C200.357 98.716 200.207 98.694 200.009 98.65C199.811 98.606 199.587 98.584 199.338 98.584C198.986 98.584 198.671 98.6353 198.392 98.738C198.121 98.8407 197.875 98.9947 197.655 99.2C197.442 99.398 197.248 99.6473 197.072 99.948C196.903 100.241 196.749 100.579 196.61 100.96V108H194.641V96.857H195.763C195.976 96.857 196.122 96.8973 196.203 96.978C196.284 97.0587 196.339 97.198 196.368 97.396L196.5 99.09ZM204.723 96.857V108H202.765V96.857H204.723ZM205.141 93.359C205.141 93.5497 205.1 93.7293 205.02 93.898C204.946 94.0593 204.844 94.206 204.712 94.338C204.587 94.4627 204.437 94.5617 204.261 94.635C204.092 94.7083 203.912 94.745 203.722 94.745C203.531 94.745 203.351 94.7083 203.183 94.635C203.021 94.5617 202.878 94.4627 202.754 94.338C202.629 94.206 202.53 94.0593 202.457 93.898C202.383 93.7293 202.347 93.5497 202.347 93.359C202.347 93.1683 202.383 92.9887 202.457 92.82C202.53 92.644 202.629 92.4937 202.754 92.369C202.878 92.237 203.021 92.1343 203.183 92.061C203.351 91.9877 203.531 91.951 203.722 91.951C203.912 91.951 204.092 91.9877 204.261 92.061C204.437 92.1343 204.587 92.237 204.712 92.369C204.844 92.4937 204.946 92.644 205.02 92.82C205.1 92.9887 205.141 93.1683 205.141 93.359ZM211.361 108.176C210.481 108.176 209.802 107.93 209.326 107.439C208.856 106.948 208.622 106.24 208.622 105.316V98.496H207.28C207.162 98.496 207.063 98.463 206.983 98.397C206.902 98.3237 206.862 98.2137 206.862 98.067V97.286L208.688 97.055L209.139 93.612C209.161 93.502 209.208 93.414 209.282 93.348C209.362 93.2747 209.465 93.238 209.59 93.238H210.58V97.077H213.803V98.496H210.58V105.184C210.58 105.653 210.693 106.002 210.921 106.229C211.148 106.456 211.441 106.57 211.801 106.57C212.006 106.57 212.182 106.544 212.329 106.493C212.483 106.434 212.615 106.372 212.725 106.306C212.835 106.24 212.926 106.181 213 106.13C213.08 106.071 213.15 106.042 213.209 106.042C213.311 106.042 213.403 106.104 213.484 106.229L214.056 107.164C213.718 107.479 213.311 107.729 212.835 107.912C212.358 108.088 211.867 108.176 211.361 108.176ZM225.438 96.857L219.223 111.289C219.157 111.436 219.073 111.553 218.97 111.641C218.875 111.729 218.725 111.773 218.519 111.773H217.067L219.102 107.351L214.504 96.857H216.198C216.367 96.857 216.499 96.901 216.594 96.989C216.697 97.0697 216.767 97.1613 216.803 97.264L219.784 104.282C219.902 104.59 220.001 104.913 220.081 105.25C220.184 104.905 220.294 104.579 220.411 104.271L223.304 97.264C223.348 97.1467 223.422 97.0513 223.524 96.978C223.634 96.8973 223.755 96.857 223.887 96.857H225.438ZM233.404 101.081C233.404 102.65 233.602 104.176 233.998 105.657C234.401 107.138 234.988 108.546 235.758 109.881C235.875 110.108 235.905 110.281 235.846 110.398C235.787 110.523 235.703 110.622 235.593 110.695L234.724 111.223C234.174 110.38 233.705 109.544 233.316 108.715C232.935 107.886 232.623 107.054 232.381 106.218C232.146 105.382 231.974 104.542 231.864 103.699C231.754 102.848 231.699 101.976 231.699 101.081C231.699 100.194 231.754 99.3247 231.864 98.474C231.974 97.6233 232.146 96.7837 232.381 95.955C232.623 95.119 232.935 94.2867 233.316 93.458C233.705 92.6293 234.174 91.7897 234.724 90.939L235.593 91.478C235.703 91.5513 235.787 91.6503 235.846 91.775C235.905 91.8923 235.875 92.061 235.758 92.281C234.988 93.6157 234.401 95.0237 233.998 96.505C233.602 97.9863 233.404 99.5117 233.404 101.081ZM243.24 100.41C243.849 100.41 244.384 100.329 244.846 100.168C245.316 100.007 245.708 99.783 246.023 99.497C246.346 99.2037 246.588 98.8553 246.749 98.452C246.911 98.0487 246.991 97.605 246.991 97.121C246.991 96.1163 246.68 95.3317 246.056 94.767C245.44 94.2023 244.502 93.92 243.24 93.92H240.71V100.41H243.24ZM243.24 92.237C244.238 92.237 245.103 92.3543 245.836 92.589C246.577 92.8163 247.189 93.1427 247.673 93.568C248.157 93.9933 248.517 94.5067 248.751 95.108C248.993 95.7093 249.114 96.3803 249.114 97.121C249.114 97.8543 248.986 98.5253 248.729 99.134C248.473 99.7427 248.095 100.267 247.596 100.707C247.105 101.147 246.493 101.492 245.759 101.741C245.033 101.983 244.194 102.104 243.24 102.104H240.71V108H238.587V92.237H243.24ZM252.982 99.09C253.334 98.3273 253.767 97.7333 254.28 97.308C254.794 96.8753 255.421 96.659 256.161 96.659C256.396 96.659 256.62 96.6847 256.832 96.736C257.052 96.7873 257.247 96.868 257.415 96.978L257.272 98.441C257.228 98.6243 257.118 98.716 256.942 98.716C256.84 98.716 256.689 98.694 256.491 98.65C256.293 98.606 256.07 98.584 255.82 98.584C255.468 98.584 255.153 98.6353 254.874 98.738C254.603 98.8407 254.357 98.9947 254.137 99.2C253.925 99.398 253.73 99.6473 253.554 99.948C253.386 100.241 253.232 100.579 253.092 100.96V108H251.123V96.857H252.245C252.458 96.857 252.605 96.8973 252.685 96.978C252.766 97.0587 252.821 97.198 252.85 97.396L252.982 99.09ZM263.383 96.681C264.197 96.681 264.93 96.8167 265.583 97.088C266.235 97.3593 266.793 97.7443 267.255 98.243C267.717 98.7417 268.069 99.3467 268.311 100.058C268.56 100.762 268.685 101.55 268.685 102.423C268.685 103.303 268.56 104.095 268.311 104.799C268.069 105.503 267.717 106.104 267.255 106.603C266.793 107.102 266.235 107.487 265.583 107.758C264.93 108.022 264.197 108.154 263.383 108.154C262.561 108.154 261.821 108.022 261.161 107.758C260.508 107.487 259.951 107.102 259.489 106.603C259.027 106.104 258.671 105.503 258.422 104.799C258.18 104.095 258.059 103.303 258.059 102.423C258.059 101.55 258.18 100.762 258.422 100.058C258.671 99.3467 259.027 98.7417 259.489 98.243C259.951 97.7443 260.508 97.3593 261.161 97.088C261.821 96.8167 262.561 96.681 263.383 96.681ZM263.383 106.625C264.483 106.625 265.304 106.258 265.847 105.525C266.389 104.784 266.661 103.754 266.661 102.434C266.661 101.107 266.389 100.073 265.847 99.332C265.304 98.5913 264.483 98.221 263.383 98.221C262.825 98.221 262.338 98.3163 261.92 98.507C261.509 98.6977 261.164 98.9727 260.886 99.332C260.614 99.6913 260.409 100.135 260.27 100.663C260.138 101.184 260.072 101.774 260.072 102.434C260.072 103.754 260.343 104.784 260.886 105.525C261.436 106.258 262.268 106.625 263.383 106.625ZM273.236 96.857V108.825C273.236 109.272 273.178 109.687 273.06 110.068C272.943 110.457 272.756 110.794 272.499 111.08C272.243 111.366 271.913 111.59 271.509 111.751C271.113 111.92 270.637 112.004 270.079 112.004C269.845 112.004 269.628 111.986 269.43 111.949C269.232 111.912 269.034 111.857 268.836 111.784L268.913 110.728C268.928 110.662 268.954 110.611 268.99 110.574C269.02 110.545 269.064 110.526 269.122 110.519C269.181 110.512 269.258 110.508 269.353 110.508C269.441 110.515 269.555 110.519 269.694 110.519C270.266 110.519 270.673 110.383 270.915 110.112C271.157 109.848 271.278 109.419 271.278 108.825V96.857H273.236ZM273.643 93.359C273.643 93.5497 273.603 93.7293 273.522 93.898C273.449 94.0593 273.346 94.206 273.214 94.338C273.09 94.4627 272.943 94.5617 272.774 94.635C272.606 94.7083 272.426 94.745 272.235 94.745C272.045 94.745 271.865 94.7083 271.696 94.635C271.535 94.5617 271.392 94.4627 271.267 94.338C271.143 94.206 271.044 94.0593 270.97 93.898C270.897 93.7293 270.86 93.5497 270.86 93.359C270.86 93.1683 270.897 92.9887 270.97 92.82C271.044 92.644 271.143 92.4937 271.267 92.369C271.392 92.237 271.535 92.1343 271.696 92.061C271.865 91.9877 272.045 91.951 272.235 91.951C272.426 91.951 272.606 91.9877 272.774 92.061C272.943 92.1343 273.09 92.237 273.214 92.369C273.346 92.4937 273.449 92.644 273.522 92.82C273.603 92.9887 273.643 93.1683 273.643 93.359ZM283.911 101.213C283.911 100.758 283.845 100.344 283.713 99.97C283.589 99.5887 283.402 99.2623 283.152 98.991C282.91 98.7123 282.613 98.4997 282.261 98.353C281.909 98.199 281.51 98.122 281.062 98.122C280.124 98.122 279.379 98.397 278.829 98.947C278.287 99.4897 277.949 100.245 277.817 101.213H283.911ZM285.495 106.438C285.253 106.731 284.964 106.988 284.626 107.208C284.289 107.421 283.926 107.597 283.537 107.736C283.156 107.875 282.76 107.978 282.349 108.044C281.939 108.117 281.532 108.154 281.128 108.154C280.358 108.154 279.647 108.026 278.994 107.769C278.349 107.505 277.788 107.124 277.311 106.625C276.842 106.119 276.475 105.496 276.211 104.755C275.947 104.014 275.815 103.164 275.815 102.203C275.815 101.426 275.933 100.7 276.167 100.025C276.409 99.3503 276.754 98.7673 277.201 98.276C277.649 97.7773 278.195 97.3887 278.84 97.11C279.486 96.824 280.212 96.681 281.018 96.681C281.686 96.681 282.302 96.7947 282.866 97.022C283.438 97.242 283.93 97.5647 284.34 97.99C284.758 98.408 285.085 98.9287 285.319 99.552C285.554 100.168 285.671 100.872 285.671 101.664C285.671 101.972 285.638 102.177 285.572 102.28C285.506 102.383 285.382 102.434 285.198 102.434H277.751C277.773 103.138 277.869 103.75 278.037 104.271C278.213 104.792 278.455 105.228 278.763 105.58C279.071 105.925 279.438 106.185 279.863 106.361C280.289 106.53 280.765 106.614 281.293 106.614C281.785 106.614 282.206 106.559 282.558 106.449C282.918 106.332 283.226 106.207 283.482 106.075C283.739 105.943 283.952 105.822 284.12 105.712C284.296 105.595 284.447 105.536 284.571 105.536C284.733 105.536 284.857 105.598 284.945 105.723L285.495 106.438ZM295.831 98.837C295.773 98.9177 295.714 98.98 295.655 99.024C295.597 99.068 295.516 99.09 295.413 99.09C295.303 99.09 295.182 99.046 295.05 98.958C294.918 98.8627 294.753 98.76 294.555 98.65C294.365 98.54 294.126 98.441 293.84 98.353C293.562 98.2577 293.217 98.21 292.806 98.21C292.256 98.21 291.772 98.309 291.354 98.507C290.936 98.6977 290.584 98.9763 290.298 99.343C290.02 99.7097 289.807 100.153 289.66 100.674C289.521 101.195 289.451 101.778 289.451 102.423C289.451 103.098 289.528 103.699 289.682 104.227C289.836 104.748 290.053 105.188 290.331 105.547C290.617 105.899 290.958 106.17 291.354 106.361C291.758 106.544 292.209 106.636 292.707 106.636C293.184 106.636 293.576 106.581 293.884 106.471C294.192 106.354 294.445 106.225 294.643 106.086C294.849 105.947 295.017 105.822 295.149 105.712C295.289 105.595 295.424 105.536 295.556 105.536C295.718 105.536 295.842 105.598 295.93 105.723L296.48 106.438C296.238 106.739 295.963 106.995 295.655 107.208C295.347 107.421 295.014 107.6 294.654 107.747C294.302 107.886 293.932 107.989 293.543 108.055C293.155 108.121 292.759 108.154 292.355 108.154C291.659 108.154 291.01 108.026 290.408 107.769C289.814 107.512 289.297 107.142 288.857 106.658C288.417 106.167 288.073 105.565 287.823 104.854C287.574 104.143 287.449 103.332 287.449 102.423C287.449 101.594 287.563 100.828 287.79 100.124C288.025 99.42 288.362 98.815 288.802 98.309C289.25 97.7957 289.796 97.396 290.441 97.11C291.094 96.824 291.842 96.681 292.685 96.681C293.47 96.681 294.159 96.8093 294.753 97.066C295.355 97.3153 295.886 97.671 296.348 98.133L295.831 98.837ZM302.003 108.176C301.123 108.176 300.445 107.93 299.968 107.439C299.499 106.948 299.264 106.24 299.264 105.316V98.496H297.922C297.805 98.496 297.706 98.463 297.625 98.397C297.545 98.3237 297.504 98.2137 297.504 98.067V97.286L299.33 97.055L299.781 93.612C299.803 93.502 299.851 93.414 299.924 93.348C300.005 93.2747 300.108 93.238 300.232 93.238H301.222V97.077H304.445V98.496H301.222V105.184C301.222 105.653 301.336 106.002 301.563 106.229C301.791 106.456 302.084 106.57 302.443 106.57C302.649 106.57 302.825 106.544 302.971 106.493C303.125 106.434 303.257 106.372 303.367 106.306C303.477 106.24 303.569 106.181 303.642 106.13C303.723 106.071 303.793 106.042 303.851 106.042C303.954 106.042 304.046 106.104 304.126 106.229L304.698 107.164C304.361 107.479 303.954 107.729 303.477 107.912C303.001 108.088 302.509 108.176 302.003 108.176ZM324.581 108H322.469C322.308 108 322.179 107.96 322.084 107.879C321.996 107.791 321.923 107.696 321.864 107.593L317.64 100.971C317.581 101.147 317.515 101.297 317.442 101.422L313.328 107.593C313.255 107.696 313.174 107.791 313.086 107.879C313.005 107.96 312.892 108 312.745 108H310.765L316.188 99.904L310.985 92.237H313.108C313.262 92.237 313.376 92.2627 313.449 92.314C313.522 92.3653 313.588 92.4387 313.647 92.534L317.761 98.848C317.812 98.694 317.889 98.5253 317.992 98.342L321.875 92.578C321.934 92.4753 322.003 92.3947 322.084 92.336C322.165 92.27 322.26 92.237 322.37 92.237H324.405L319.18 99.805L324.581 108ZM328.011 101.081C328.011 99.5117 327.809 97.9863 327.406 96.505C327.01 95.0237 326.427 93.6157 325.657 92.281C325.598 92.171 325.562 92.0757 325.547 91.995C325.532 91.907 325.536 91.8337 325.558 91.775C325.58 91.709 325.613 91.654 325.657 91.61C325.708 91.5587 325.763 91.5147 325.822 91.478L326.691 90.939C327.241 91.7897 327.707 92.6293 328.088 93.458C328.477 94.2867 328.788 95.119 329.023 95.955C329.265 96.7837 329.441 97.6233 329.551 98.474C329.661 99.3247 329.716 100.194 329.716 101.081C329.716 101.976 329.661 102.848 329.551 103.699C329.441 104.542 329.265 105.382 329.023 106.218C328.788 107.054 328.477 107.886 328.088 108.715C327.707 109.544 327.241 110.38 326.691 111.223L325.822 110.695C325.763 110.658 325.708 110.614 325.657 110.563C325.613 110.519 325.58 110.464 325.558 110.398C325.536 110.339 325.532 110.266 325.547 110.178C325.562 110.09 325.598 109.991 325.657 109.881C326.427 108.546 327.01 107.138 327.406 105.657C327.809 104.176 328.011 102.65 328.011 101.081Z" fill="white"/>
</svg>
