<svg width="406" height="228" viewBox="0 0 406 228" fill="none" xmlns="http://www.w3.org/2000/svg">
<rect width="406" height="228" fill="black"/>
<path d="M57.1265 47.975V53.486H63.6055V55.224H57.1265V62H54.9925V46.237H64.7055V47.975H57.1265ZM68.995 50.857V62H67.037V50.857H68.995ZM69.413 47.359C69.413 47.5497 69.3726 47.7293 69.292 47.898C69.2186 48.0593 69.116 48.206 68.984 48.338C68.8593 48.4627 68.709 48.5617 68.533 48.635C68.3643 48.7083 68.1846 48.745 67.994 48.745C67.8033 48.745 67.6236 48.7083 67.455 48.635C67.2936 48.5617 67.1506 48.4627 67.026 48.338C66.9013 48.206 66.8023 48.0593 66.729 47.898C66.6556 47.7293 66.619 47.5497 66.619 47.359C66.619 47.1683 66.6556 46.9887 66.729 46.82C66.8023 46.644 66.9013 46.4937 67.026 46.369C67.1506 46.237 67.2936 46.1343 67.455 46.061C67.6236 45.9877 67.8033 45.951 67.994 45.951C68.1846 45.951 68.3643 45.9877 68.533 46.061C68.709 46.1343 68.8593 46.237 68.984 46.369C69.116 46.4937 69.2186 46.644 69.292 46.82C69.3726 46.9887 69.413 47.1683 69.413 47.359ZM74.0601 52.474C74.3021 52.2027 74.5588 51.957 74.8301 51.737C75.1015 51.517 75.3875 51.33 75.6881 51.176C75.9961 51.0147 76.3188 50.8937 76.6561 50.813C77.0008 50.725 77.3711 50.681 77.7671 50.681C78.3758 50.681 78.9111 50.7837 79.3731 50.989C79.8425 51.187 80.2311 51.473 80.5391 51.847C80.8545 52.2137 81.0928 52.6573 81.2541 53.178C81.4155 53.6987 81.4961 54.2743 81.4961 54.905V62H79.5271V54.905C79.5271 54.0617 79.3328 53.409 78.9441 52.947C78.5628 52.4777 77.9798 52.243 77.1951 52.243C76.6158 52.243 76.0731 52.3823 75.5671 52.661C75.0685 52.9397 74.6065 53.3173 74.1811 53.794V62H72.2121V50.857H73.3891C73.6678 50.857 73.8401 50.9927 73.9061 51.264L74.0601 52.474ZM90.5187 56.984C89.6167 57.0133 88.8467 57.0867 88.2087 57.204C87.578 57.314 87.061 57.4607 86.6577 57.644C86.2617 57.8273 85.972 58.0437 85.7887 58.293C85.6127 58.5423 85.5247 58.821 85.5247 59.129C85.5247 59.4223 85.5724 59.6753 85.6677 59.888C85.763 60.1007 85.8914 60.2767 86.0527 60.416C86.2214 60.548 86.4157 60.647 86.6357 60.713C86.863 60.7717 87.105 60.801 87.3617 60.801C87.7064 60.801 88.0217 60.768 88.3077 60.702C88.5937 60.6287 88.8614 60.526 89.1107 60.394C89.3674 60.262 89.6094 60.1043 89.8367 59.921C90.0714 59.7377 90.2987 59.5287 90.5187 59.294V56.984ZM84.1937 52.43C84.8097 51.836 85.4734 51.3923 86.1847 51.099C86.896 50.8057 87.6844 50.659 88.5497 50.659C89.173 50.659 89.7267 50.7617 90.2107 50.967C90.6947 51.1723 91.1017 51.4583 91.4317 51.825C91.7617 52.1917 92.011 52.6353 92.1797 53.156C92.3484 53.6767 92.4327 54.2487 92.4327 54.872V62H91.5637C91.373 62 91.2264 61.9707 91.1237 61.912C91.021 61.846 90.9404 61.7213 90.8817 61.538L90.6617 60.482C90.3684 60.7533 90.0824 60.9953 89.8037 61.208C89.525 61.4133 89.2317 61.5893 88.9237 61.736C88.6157 61.8753 88.2857 61.9817 87.9337 62.055C87.589 62.1357 87.204 62.176 86.7787 62.176C86.346 62.176 85.939 62.1173 85.5577 62C85.1764 61.8753 84.8427 61.692 84.5567 61.45C84.278 61.208 84.0544 60.9037 83.8857 60.537C83.7244 60.163 83.6437 59.723 83.6437 59.217C83.6437 58.777 83.7647 58.3553 84.0067 57.952C84.2487 57.5413 84.641 57.1783 85.1837 56.863C85.7264 56.5477 86.434 56.291 87.3067 56.093C88.1794 55.8877 89.25 55.7703 90.5187 55.741V54.872C90.5187 54.0067 90.3317 53.354 89.9577 52.914C89.5837 52.4667 89.0374 52.243 88.3187 52.243C87.8347 52.243 87.4277 52.3053 87.0977 52.43C86.775 52.5473 86.4927 52.683 86.2507 52.837C86.016 52.9837 85.8107 53.1193 85.6347 53.244C85.466 53.3613 85.2974 53.42 85.1287 53.42C84.9967 53.42 84.883 53.387 84.7877 53.321C84.6924 53.2477 84.6117 53.1597 84.5457 53.057L84.1937 52.43ZM97.4393 45.797V62H95.4813V45.797H97.4393ZM111.358 54.41C111.967 54.41 112.502 54.3293 112.964 54.168C113.434 54.0067 113.826 53.783 114.141 53.497C114.464 53.2037 114.706 52.8553 114.867 52.452C115.029 52.0487 115.109 51.605 115.109 51.121C115.109 50.1163 114.798 49.3317 114.174 48.767C113.558 48.2023 112.62 47.92 111.358 47.92H108.828V54.41H111.358ZM111.358 46.237C112.356 46.237 113.221 46.3543 113.954 46.589C114.695 46.8163 115.307 47.1427 115.791 47.568C116.275 47.9933 116.635 48.5067 116.869 49.108C117.111 49.7093 117.232 50.3803 117.232 51.121C117.232 51.8543 117.104 52.5253 116.847 53.134C116.591 53.7427 116.213 54.267 115.714 54.707C115.223 55.147 114.611 55.4917 113.877 55.741C113.151 55.983 112.312 56.104 111.358 56.104H108.828V62H106.705V46.237H111.358ZM121.1 53.09C121.452 52.3273 121.885 51.7333 122.398 51.308C122.912 50.8753 123.539 50.659 124.279 50.659C124.514 50.659 124.738 50.6847 124.95 50.736C125.17 50.7873 125.365 50.868 125.533 50.978L125.39 52.441C125.346 52.6243 125.236 52.716 125.06 52.716C124.958 52.716 124.807 52.694 124.609 52.65C124.411 52.606 124.188 52.584 123.938 52.584C123.586 52.584 123.271 52.6353 122.992 52.738C122.721 52.8407 122.475 52.9947 122.255 53.2C122.043 53.398 121.848 53.6473 121.672 53.948C121.504 54.2413 121.35 54.5787 121.21 54.96V62H119.241V50.857H120.363C120.576 50.857 120.723 50.8973 120.803 50.978C120.884 51.0587 120.939 51.198 120.968 51.396L121.1 53.09ZM134.262 55.213C134.262 54.7583 134.196 54.344 134.064 53.97C133.939 53.5887 133.752 53.2623 133.503 52.991C133.261 52.7123 132.964 52.4997 132.612 52.353C132.26 52.199 131.86 52.122 131.413 52.122C130.474 52.122 129.73 52.397 129.18 52.947C128.637 53.4897 128.3 54.245 128.168 55.213H134.262ZM135.846 60.438C135.604 60.7313 135.314 60.988 134.977 61.208C134.64 61.4207 134.277 61.5967 133.888 61.736C133.507 61.8753 133.111 61.978 132.7 62.044C132.289 62.1173 131.882 62.154 131.479 62.154C130.709 62.154 129.998 62.0257 129.345 61.769C128.7 61.505 128.139 61.1237 127.662 60.625C127.193 60.119 126.826 59.4957 126.562 58.755C126.298 58.0143 126.166 57.1637 126.166 56.203C126.166 55.4257 126.283 54.6997 126.518 54.025C126.76 53.3503 127.105 52.7673 127.552 52.276C127.999 51.7773 128.546 51.3887 129.191 51.11C129.836 50.824 130.562 50.681 131.369 50.681C132.036 50.681 132.652 50.7947 133.217 51.022C133.789 51.242 134.28 51.5647 134.691 51.99C135.109 52.408 135.435 52.9287 135.67 53.552C135.905 54.168 136.022 54.872 136.022 55.664C136.022 55.972 135.989 56.1773 135.923 56.28C135.857 56.3827 135.732 56.434 135.549 56.434H128.102C128.124 57.138 128.219 57.7503 128.388 58.271C128.564 58.7917 128.806 59.228 129.114 59.58C129.422 59.9247 129.789 60.185 130.214 60.361C130.639 60.5297 131.116 60.614 131.644 60.614C132.135 60.614 132.557 60.559 132.909 60.449C133.268 60.3317 133.576 60.207 133.833 60.075C134.09 59.943 134.302 59.822 134.471 59.712C134.647 59.5947 134.797 59.536 134.922 59.536C135.083 59.536 135.208 59.5983 135.296 59.723L135.846 60.438ZM144.917 52.694C144.829 52.8553 144.693 52.936 144.51 52.936C144.4 52.936 144.275 52.8957 144.136 52.815C143.997 52.7343 143.824 52.6463 143.619 52.551C143.421 52.4483 143.183 52.3567 142.904 52.276C142.625 52.188 142.295 52.144 141.914 52.144C141.584 52.144 141.287 52.188 141.023 52.276C140.759 52.3567 140.532 52.4703 140.341 52.617C140.158 52.7637 140.015 52.936 139.912 53.134C139.817 53.3247 139.769 53.5337 139.769 53.761C139.769 54.047 139.85 54.2853 140.011 54.476C140.18 54.6667 140.4 54.8317 140.671 54.971C140.942 55.1103 141.25 55.235 141.595 55.345C141.94 55.4477 142.292 55.5613 142.651 55.686C143.018 55.8033 143.373 55.9353 143.718 56.082C144.063 56.2287 144.371 56.412 144.642 56.632C144.913 56.852 145.13 57.1233 145.291 57.446C145.46 57.7613 145.544 58.1427 145.544 58.59C145.544 59.1033 145.452 59.58 145.269 60.02C145.086 60.4527 144.814 60.8303 144.455 61.153C144.096 61.4683 143.656 61.7177 143.135 61.901C142.614 62.0843 142.013 62.176 141.331 62.176C140.554 62.176 139.85 62.0513 139.219 61.802C138.588 61.5453 138.053 61.219 137.613 60.823L138.075 60.075C138.134 59.9797 138.203 59.9063 138.284 59.855C138.365 59.8037 138.467 59.778 138.592 59.778C138.724 59.778 138.863 59.8293 139.01 59.932C139.157 60.0347 139.333 60.1483 139.538 60.273C139.751 60.3977 140.007 60.5113 140.308 60.614C140.609 60.7167 140.983 60.768 141.43 60.768C141.811 60.768 142.145 60.7203 142.431 60.625C142.717 60.5223 142.955 60.3867 143.146 60.218C143.337 60.0493 143.476 59.855 143.564 59.635C143.659 59.415 143.707 59.1803 143.707 58.931C143.707 58.623 143.623 58.37 143.454 58.172C143.293 57.9667 143.076 57.7943 142.805 57.655C142.534 57.5083 142.222 57.3837 141.87 57.281C141.525 57.171 141.17 57.0573 140.803 56.94C140.444 56.8227 140.088 56.6907 139.736 56.544C139.391 56.39 139.083 56.1993 138.812 55.972C138.541 55.7447 138.321 55.466 138.152 55.136C137.991 54.7987 137.91 54.3917 137.91 53.915C137.91 53.4897 137.998 53.0827 138.174 52.694C138.35 52.298 138.607 51.9533 138.944 51.66C139.281 51.3593 139.696 51.121 140.187 50.945C140.678 50.769 141.239 50.681 141.87 50.681C142.603 50.681 143.26 50.7983 143.839 51.033C144.426 51.2603 144.932 51.5757 145.357 51.979L144.917 52.694ZM155.403 55.213C155.403 54.7583 155.337 54.344 155.205 53.97C155.08 53.5887 154.893 53.2623 154.644 52.991C154.402 52.7123 154.105 52.4997 153.753 52.353C153.401 52.199 153.001 52.122 152.554 52.122C151.615 52.122 150.871 52.397 150.321 52.947C149.778 53.4897 149.441 54.245 149.309 55.213H155.403ZM156.987 60.438C156.745 60.7313 156.455 60.988 156.118 61.208C155.78 61.4207 155.417 61.5967 155.029 61.736C154.647 61.8753 154.251 61.978 153.841 62.044C153.43 62.1173 153.023 62.154 152.62 62.154C151.85 62.154 151.138 62.0257 150.486 61.769C149.84 61.505 149.279 61.1237 148.803 60.625C148.333 60.119 147.967 59.4957 147.703 58.755C147.439 58.0143 147.307 57.1637 147.307 56.203C147.307 55.4257 147.424 54.6997 147.659 54.025C147.901 53.3503 148.245 52.7673 148.693 52.276C149.14 51.7773 149.686 51.3887 150.332 51.11C150.977 50.824 151.703 50.681 152.51 50.681C153.177 50.681 153.793 50.7947 154.358 51.022C154.93 51.242 155.421 51.5647 155.832 51.99C156.25 52.408 156.576 52.9287 156.811 53.552C157.045 54.168 157.163 54.872 157.163 55.664C157.163 55.972 157.13 56.1773 157.064 56.28C156.998 56.3827 156.873 56.434 156.69 56.434H149.243C149.265 57.138 149.36 57.7503 149.529 58.271C149.705 58.7917 149.947 59.228 150.255 59.58C150.563 59.9247 150.929 60.185 151.355 60.361C151.78 60.5297 152.257 60.614 152.785 60.614C153.276 60.614 153.698 60.559 154.05 60.449C154.409 60.3317 154.717 60.207 154.974 60.075C155.23 59.943 155.443 59.822 155.612 59.712C155.788 59.5947 155.938 59.536 156.063 59.536C156.224 59.536 156.349 59.5983 156.437 59.723L156.987 60.438ZM161.416 52.474C161.658 52.2027 161.914 51.957 162.186 51.737C162.457 51.517 162.743 51.33 163.044 51.176C163.352 51.0147 163.674 50.8937 164.012 50.813C164.356 50.725 164.727 50.681 165.123 50.681C165.731 50.681 166.267 50.7837 166.729 50.989C167.198 51.187 167.587 51.473 167.895 51.847C168.21 52.2137 168.448 52.6573 168.61 53.178C168.771 53.6987 168.852 54.2743 168.852 54.905V62H166.883V54.905C166.883 54.0617 166.688 53.409 166.3 52.947C165.918 52.4777 165.335 52.243 164.551 52.243C163.971 52.243 163.429 52.3823 162.923 52.661C162.424 52.9397 161.962 53.3173 161.537 53.794V62H159.568V50.857H160.745C161.023 50.857 161.196 50.9927 161.262 51.264L161.416 52.474ZM175.106 62.176C174.226 62.176 173.547 61.9303 173.071 61.439C172.601 60.9477 172.367 60.24 172.367 59.316V52.496H171.025C170.907 52.496 170.808 52.463 170.728 52.397C170.647 52.3237 170.607 52.2137 170.607 52.067V51.286L172.433 51.055L172.884 47.612C172.906 47.502 172.953 47.414 173.027 47.348C173.107 47.2747 173.21 47.238 173.335 47.238H174.325V51.077H177.548V52.496H174.325V59.184C174.325 59.6533 174.438 60.0017 174.666 60.229C174.893 60.4563 175.186 60.57 175.546 60.57C175.751 60.57 175.927 60.5443 176.074 60.493C176.228 60.4343 176.36 60.372 176.47 60.306C176.58 60.24 176.671 60.1813 176.745 60.13C176.825 60.0713 176.895 60.042 176.954 60.042C177.056 60.042 177.148 60.1043 177.229 60.229L177.801 61.164C177.463 61.4793 177.056 61.7287 176.58 61.912C176.103 62.088 175.612 62.176 175.106 62.176ZM185.609 56.984C184.707 57.0133 183.937 57.0867 183.299 57.204C182.668 57.314 182.151 57.4607 181.748 57.644C181.352 57.8273 181.062 58.0437 180.879 58.293C180.703 58.5423 180.615 58.821 180.615 59.129C180.615 59.4223 180.662 59.6753 180.758 59.888C180.853 60.1007 180.981 60.2767 181.143 60.416C181.311 60.548 181.506 60.647 181.726 60.713C181.953 60.7717 182.195 60.801 182.452 60.801C182.796 60.801 183.112 60.768 183.398 60.702C183.684 60.6287 183.951 60.526 184.201 60.394C184.457 60.262 184.699 60.1043 184.927 59.921C185.161 59.7377 185.389 59.5287 185.609 59.294V56.984ZM179.284 52.43C179.9 51.836 180.563 51.3923 181.275 51.099C181.986 50.8057 182.774 50.659 183.64 50.659C184.263 50.659 184.817 50.7617 185.301 50.967C185.785 51.1723 186.192 51.4583 186.522 51.825C186.852 52.1917 187.101 52.6353 187.27 53.156C187.438 53.6767 187.523 54.2487 187.523 54.872V62H186.654C186.463 62 186.316 61.9707 186.214 61.912C186.111 61.846 186.03 61.7213 185.972 61.538L185.752 60.482C185.458 60.7533 185.172 60.9953 184.894 61.208C184.615 61.4133 184.322 61.5893 184.014 61.736C183.706 61.8753 183.376 61.9817 183.024 62.055C182.679 62.1357 182.294 62.176 181.869 62.176C181.436 62.176 181.029 62.1173 180.648 62C180.266 61.8753 179.933 61.692 179.647 61.45C179.368 61.208 179.144 60.9037 178.976 60.537C178.814 60.163 178.734 59.723 178.734 59.217C178.734 58.777 178.855 58.3553 179.097 57.952C179.339 57.5413 179.731 57.1783 180.274 56.863C180.816 56.5477 181.524 56.291 182.397 56.093C183.269 55.8877 184.34 55.7703 185.609 55.741V54.872C185.609 54.0067 185.422 53.354 185.048 52.914C184.674 52.4667 184.127 52.243 183.409 52.243C182.925 52.243 182.518 52.3053 182.188 52.43C181.865 52.5473 181.583 52.683 181.341 52.837C181.106 52.9837 180.901 53.1193 180.725 53.244C180.556 53.3613 180.387 53.42 180.219 53.42C180.087 53.42 179.973 53.387 179.878 53.321C179.782 53.2477 179.702 53.1597 179.636 53.057L179.284 52.43ZM200.695 62H198.737V52.496H192.995V59.184C192.995 59.6533 193.108 60.0017 193.336 60.229C193.563 60.4563 193.856 60.57 194.216 60.57C194.421 60.57 194.597 60.5443 194.744 60.493C194.898 60.4343 195.03 60.372 195.14 60.306C195.25 60.24 195.341 60.1813 195.415 60.13C195.495 60.0713 195.565 60.042 195.624 60.042C195.726 60.042 195.818 60.1043 195.899 60.229L196.471 61.164C196.133 61.4793 195.726 61.7287 195.25 61.912C194.773 62.088 194.282 62.176 193.776 62.176C192.896 62.176 192.217 61.9303 191.741 61.439C191.271 60.9477 191.037 60.24 191.037 59.316V52.496H189.695C189.577 52.496 189.478 52.463 189.398 52.397C189.317 52.3237 189.277 52.2137 189.277 52.067V51.286L191.103 51.044L191.554 47.612C191.576 47.502 191.623 47.414 191.697 47.348C191.777 47.2747 191.88 47.238 192.005 47.238H192.995V51.077H200.695V62ZM201.179 47.282C201.179 47.4727 201.138 47.6523 201.058 47.821C200.984 47.9823 200.882 48.1253 200.75 48.25C200.625 48.3747 200.478 48.4737 200.31 48.547C200.141 48.6203 199.961 48.657 199.771 48.657C199.58 48.657 199.4 48.6203 199.232 48.547C199.07 48.4737 198.927 48.3747 198.803 48.25C198.678 48.1253 198.579 47.9823 198.506 47.821C198.432 47.6523 198.396 47.4727 198.396 47.282C198.396 47.0913 198.432 46.9117 198.506 46.743C198.579 46.567 198.678 46.4167 198.803 46.292C198.927 46.16 199.07 46.0573 199.232 45.984C199.4 45.9107 199.58 45.874 199.771 45.874C199.961 45.874 200.141 45.9107 200.31 45.984C200.478 46.0573 200.625 46.16 200.75 46.292C200.882 46.4167 200.984 46.567 201.058 46.743C201.138 46.9117 201.179 47.0913 201.179 47.282ZM208.608 50.681C209.422 50.681 210.156 50.8167 210.808 51.088C211.461 51.3593 212.018 51.7443 212.48 52.243C212.942 52.7417 213.294 53.3467 213.536 54.058C213.786 54.762 213.91 55.5503 213.91 56.423C213.91 57.303 213.786 58.095 213.536 58.799C213.294 59.503 212.942 60.1043 212.48 60.603C212.018 61.1017 211.461 61.4867 210.808 61.758C210.156 62.022 209.422 62.154 208.608 62.154C207.787 62.154 207.046 62.022 206.386 61.758C205.734 61.4867 205.176 61.1017 204.714 60.603C204.252 60.1043 203.897 59.503 203.647 58.799C203.405 58.095 203.284 57.303 203.284 56.423C203.284 55.5503 203.405 54.762 203.647 54.058C203.897 53.3467 204.252 52.7417 204.714 52.243C205.176 51.7443 205.734 51.3593 206.386 51.088C207.046 50.8167 207.787 50.681 208.608 50.681ZM208.608 60.625C209.708 60.625 210.53 60.2583 211.072 59.525C211.615 58.7843 211.886 57.754 211.886 56.434C211.886 55.1067 211.615 54.0727 211.072 53.332C210.53 52.5913 209.708 52.221 208.608 52.221C208.051 52.221 207.563 52.3163 207.145 52.507C206.735 52.6977 206.39 52.9727 206.111 53.332C205.84 53.6913 205.635 54.135 205.495 54.663C205.363 55.1837 205.297 55.774 205.297 56.434C205.297 57.754 205.569 58.7843 206.111 59.525C206.661 60.2583 207.494 60.625 208.608 60.625ZM218.242 52.474C218.484 52.2027 218.74 51.957 219.012 51.737C219.283 51.517 219.569 51.33 219.87 51.176C220.178 51.0147 220.5 50.8937 220.838 50.813C221.182 50.725 221.553 50.681 221.949 50.681C222.557 50.681 223.093 50.7837 223.555 50.989C224.024 51.187 224.413 51.473 224.721 51.847C225.036 52.2137 225.274 52.6573 225.436 53.178C225.597 53.6987 225.678 54.2743 225.678 54.905V62H223.709V54.905C223.709 54.0617 223.514 53.409 223.126 52.947C222.744 52.4777 222.161 52.243 221.377 52.243C220.797 52.243 220.255 52.3823 219.749 52.661C219.25 52.9397 218.788 53.3173 218.363 53.794V62H216.394V50.857H217.571C217.849 50.857 218.022 50.9927 218.088 51.264L218.242 52.474ZM234.114 54.575H239.548V56.236H234.114V54.575ZM261.349 54.421V60.471C260.557 61.043 259.71 61.472 258.808 61.758C257.914 62.0367 256.931 62.176 255.86 62.176C254.592 62.176 253.448 61.9817 252.428 61.593C251.409 61.197 250.536 60.647 249.81 59.943C249.092 59.2317 248.538 58.381 248.149 57.391C247.761 56.401 247.566 55.312 247.566 54.124C247.566 52.9213 247.753 51.825 248.127 50.835C248.509 49.845 249.048 48.998 249.744 48.294C250.441 47.5827 251.288 47.0327 252.285 46.644C253.283 46.2553 254.397 46.061 255.629 46.061C256.253 46.061 256.832 46.1087 257.367 46.204C257.903 46.292 258.398 46.424 258.852 46.6C259.307 46.7687 259.729 46.9777 260.117 47.227C260.506 47.469 260.869 47.744 261.206 48.052L260.601 49.02C260.506 49.1667 260.381 49.262 260.227 49.306C260.081 49.3427 259.916 49.306 259.732 49.196C259.556 49.0933 259.355 48.9687 259.127 48.822C258.9 48.6753 258.621 48.536 258.291 48.404C257.969 48.2647 257.584 48.1473 257.136 48.052C256.696 47.9567 256.172 47.909 255.563 47.909C254.676 47.909 253.873 48.0557 253.154 48.349C252.436 48.635 251.823 49.0493 251.317 49.592C250.811 50.1273 250.423 50.78 250.151 51.55C249.88 52.3127 249.744 53.1707 249.744 54.124C249.744 55.114 249.884 56.0013 250.162 56.786C250.448 57.5633 250.852 58.227 251.372 58.777C251.9 59.3197 252.538 59.734 253.286 60.02C254.034 60.306 254.874 60.449 255.805 60.449C256.539 60.449 257.188 60.3683 257.752 60.207C258.324 60.0383 258.882 59.8073 259.424 59.514V56.049H256.971C256.832 56.049 256.718 56.0087 256.63 55.928C256.55 55.8473 256.509 55.7483 256.509 55.631V54.421H261.349ZM265.841 53.09C266.193 52.3273 266.625 51.7333 267.139 51.308C267.652 50.8753 268.279 50.659 269.02 50.659C269.254 50.659 269.478 50.6847 269.691 50.736C269.911 50.7873 270.105 50.868 270.274 50.978L270.131 52.441C270.087 52.6243 269.977 52.716 269.801 52.716C269.698 52.716 269.548 52.694 269.35 52.65C269.152 52.606 268.928 52.584 268.679 52.584C268.327 52.584 268.011 52.6353 267.733 52.738C267.461 52.8407 267.216 52.9947 266.996 53.2C266.783 53.398 266.589 53.6473 266.413 53.948C266.244 54.2413 266.09 54.5787 265.951 54.96V62H263.982V50.857H265.104C265.316 50.857 265.463 50.8973 265.544 50.978C265.624 51.0587 265.679 51.198 265.709 51.396L265.841 53.09ZM276.241 50.681C277.055 50.681 277.788 50.8167 278.441 51.088C279.094 51.3593 279.651 51.7443 280.113 52.243C280.575 52.7417 280.927 53.3467 281.169 54.058C281.418 54.762 281.543 55.5503 281.543 56.423C281.543 57.303 281.418 58.095 281.169 58.799C280.927 59.503 280.575 60.1043 280.113 60.603C279.651 61.1017 279.094 61.4867 278.441 61.758C277.788 62.022 277.055 62.154 276.241 62.154C275.42 62.154 274.679 62.022 274.019 61.758C273.366 61.4867 272.809 61.1017 272.347 60.603C271.885 60.1043 271.529 59.503 271.28 58.799C271.038 58.095 270.917 57.303 270.917 56.423C270.917 55.5503 271.038 54.762 271.28 54.058C271.529 53.3467 271.885 52.7417 272.347 52.243C272.809 51.7443 273.366 51.3593 274.019 51.088C274.679 50.8167 275.42 50.681 276.241 50.681ZM276.241 60.625C277.341 60.625 278.162 60.2583 278.705 59.525C279.248 58.7843 279.519 57.754 279.519 56.434C279.519 55.1067 279.248 54.0727 278.705 53.332C278.162 52.5913 277.341 52.221 276.241 52.221C275.684 52.221 275.196 52.3163 274.778 52.507C274.367 52.6977 274.023 52.9727 273.744 53.332C273.473 53.6913 273.267 54.135 273.128 54.663C272.996 55.1837 272.93 55.774 272.93 56.434C272.93 57.754 273.201 58.7843 273.744 59.525C274.294 60.2583 275.126 60.625 276.241 60.625ZM293.19 50.857V62H292.024C291.745 62 291.569 61.8643 291.496 61.593L291.342 60.394C290.858 60.9293 290.315 61.362 289.714 61.692C289.112 62.0147 288.423 62.176 287.646 62.176C287.037 62.176 286.498 62.077 286.029 61.879C285.567 61.6737 285.178 61.3877 284.863 61.021C284.547 60.6543 284.309 60.2107 284.148 59.69C283.994 59.1693 283.917 58.5937 283.917 57.963V50.857H285.875V57.963C285.875 58.8063 286.065 59.459 286.447 59.921C286.835 60.383 287.426 60.614 288.218 60.614C288.797 60.614 289.336 60.4783 289.835 60.207C290.341 59.9283 290.806 59.547 291.232 59.063V50.857H293.19ZM298.263 59.316C298.622 59.8 299.015 60.141 299.44 60.339C299.865 60.537 300.342 60.636 300.87 60.636C301.911 60.636 302.711 60.2657 303.268 59.525C303.825 58.7843 304.104 57.7283 304.104 56.357C304.104 55.631 304.038 55.0077 303.906 54.487C303.781 53.9663 303.598 53.541 303.356 53.211C303.114 52.8737 302.817 52.628 302.465 52.474C302.113 52.32 301.713 52.243 301.266 52.243C300.628 52.243 300.067 52.3897 299.583 52.683C299.106 52.9763 298.666 53.3907 298.263 53.926V59.316ZM298.164 52.584C298.633 52.0047 299.176 51.539 299.792 51.187C300.408 50.835 301.112 50.659 301.904 50.659C302.549 50.659 303.132 50.7837 303.653 51.033C304.174 51.275 304.617 51.638 304.984 52.122C305.351 52.5987 305.633 53.1927 305.831 53.904C306.029 54.6153 306.128 55.433 306.128 56.357C306.128 57.1783 306.018 57.9447 305.798 58.656C305.578 59.36 305.259 59.9723 304.841 60.493C304.43 61.0063 303.924 61.4133 303.323 61.714C302.729 62.0073 302.058 62.154 301.31 62.154C300.628 62.154 300.041 62.0403 299.55 61.813C299.066 61.5783 298.637 61.2557 298.263 60.845V65.773H296.294V50.857H297.471C297.75 50.857 297.922 50.9927 297.988 51.264L298.164 52.584ZM323.561 60.141C323.774 60.141 323.942 60.2033 324.067 60.328C324.192 60.4527 324.254 60.614 324.254 60.812V62H313.738V61.329C313.738 61.1897 313.767 61.0467 313.826 60.9C313.885 60.7533 313.976 60.6177 314.101 60.493L319.15 55.422C319.568 54.9967 319.949 54.5897 320.294 54.201C320.639 53.805 320.932 53.409 321.174 53.013C321.416 52.617 321.603 52.2173 321.735 51.814C321.867 51.4033 321.933 50.967 321.933 50.505C321.933 50.043 321.86 49.6397 321.713 49.295C321.566 48.943 321.365 48.6533 321.108 48.426C320.859 48.1987 320.562 48.03 320.217 47.92C319.872 47.8027 319.502 47.744 319.106 47.744C318.703 47.744 318.332 47.8027 317.995 47.92C317.658 48.0373 317.357 48.2023 317.093 48.415C316.836 48.6203 316.62 48.866 316.444 49.152C316.268 49.438 316.143 49.7533 316.07 50.098C315.982 50.3547 315.861 50.527 315.707 50.615C315.56 50.6957 315.351 50.7177 315.08 50.681L314.057 50.505C314.16 49.7863 314.358 49.152 314.651 48.602C314.952 48.0447 315.326 47.579 315.773 47.205C316.228 46.831 316.745 46.5487 317.324 46.358C317.903 46.16 318.53 46.061 319.205 46.061C319.872 46.061 320.496 46.16 321.075 46.358C321.654 46.556 322.157 46.8457 322.582 47.227C323.007 47.601 323.341 48.0593 323.583 48.602C323.825 49.1447 323.946 49.7607 323.946 50.45C323.946 51.0367 323.858 51.583 323.682 52.089C323.506 52.5877 323.268 53.0643 322.967 53.519C322.666 53.9737 322.318 54.4173 321.922 54.85C321.533 55.2827 321.119 55.719 320.679 56.159L316.521 60.405C316.814 60.3243 317.111 60.262 317.412 60.218C317.713 60.1667 318.002 60.141 318.281 60.141H323.561ZM337.357 46.237V47.117C337.357 47.3663 337.327 47.5717 337.269 47.733C337.217 47.8943 337.166 48.03 337.115 48.14L330.581 61.307C330.485 61.4977 330.353 61.6627 330.185 61.802C330.016 61.934 329.792 62 329.514 62H328.106L334.728 48.998C334.823 48.8147 334.922 48.646 335.025 48.492C335.127 48.338 335.237 48.1913 335.355 48.052H327.127C327.002 48.052 326.892 48.0043 326.797 47.909C326.701 47.8063 326.654 47.6927 326.654 47.568V46.237H337.357ZM345.231 54.575H350.665V56.236H345.231V54.575ZM71.0906 74.701C71.0246 74.811 70.9513 74.8953 70.8706 74.954C70.7973 75.0053 70.7056 75.031 70.5956 75.031C70.471 75.031 70.3243 74.9687 70.1556 74.844C69.987 74.7193 69.7743 74.5837 69.5176 74.437C69.2683 74.283 68.964 74.1437 68.6046 74.019C68.2526 73.8943 67.8236 73.832 67.3176 73.832C66.841 73.832 66.4193 73.898 66.0526 74.03C65.6933 74.1547 65.389 74.327 65.1396 74.547C64.8976 74.767 64.7143 75.0273 64.5896 75.328C64.465 75.6213 64.4026 75.9403 64.4026 76.285C64.4026 76.725 64.509 77.0917 64.7216 77.385C64.9416 77.671 65.2276 77.9167 65.5796 78.122C65.939 78.3273 66.3423 78.507 66.7896 78.661C67.2443 78.8077 67.7063 78.9617 68.1756 79.123C68.6523 79.2843 69.1143 79.4677 69.5616 79.673C70.0163 79.871 70.4196 80.124 70.7716 80.432C71.131 80.74 71.417 81.1177 71.6296 81.565C71.8496 82.0123 71.9596 82.5623 71.9596 83.215C71.9596 83.9043 71.8423 84.5533 71.6076 85.162C71.373 85.7633 71.0283 86.2877 70.5736 86.735C70.1263 87.1823 69.5726 87.5343 68.9126 87.791C68.26 88.0477 67.5156 88.176 66.6796 88.176C65.653 88.176 64.7216 87.9927 63.8856 87.626C63.0496 87.252 62.3346 86.7497 61.7406 86.119L62.3566 85.107C62.4153 85.0263 62.485 84.9603 62.5656 84.909C62.6536 84.8503 62.749 84.821 62.8516 84.821C62.947 84.821 63.0533 84.8613 63.1706 84.942C63.2953 85.0153 63.4346 85.1107 63.5886 85.228C63.7426 85.3453 63.9186 85.4737 64.1166 85.613C64.3146 85.7523 64.5383 85.8807 64.7876 85.998C65.0443 86.1153 65.334 86.2143 65.6566 86.295C65.9793 86.3683 66.3423 86.405 66.7456 86.405C67.2516 86.405 67.7026 86.3353 68.0986 86.196C68.4946 86.0567 68.8283 85.8623 69.0996 85.613C69.3783 85.3563 69.591 85.052 69.7376 84.7C69.8843 84.348 69.9576 83.9557 69.9576 83.523C69.9576 83.0463 69.8476 82.6577 69.6276 82.357C69.415 82.049 69.1326 81.7923 68.7806 81.587C68.4286 81.3817 68.0253 81.2093 67.5706 81.07C67.116 80.9233 66.654 80.7767 66.1846 80.63C65.7153 80.476 65.2533 80.3 64.7986 80.102C64.344 79.904 63.9406 79.6473 63.5886 79.332C63.2366 79.0167 62.9506 78.6243 62.7306 78.155C62.518 77.6783 62.4116 77.0917 62.4116 76.395C62.4116 75.8377 62.518 75.2987 62.7306 74.778C62.9506 74.2573 63.266 73.7953 63.6766 73.392C64.0946 72.9887 64.6043 72.666 65.2056 72.424C65.8143 72.182 66.511 72.061 67.2956 72.061C68.1756 72.061 68.975 72.2003 69.6936 72.479C70.4196 72.7577 71.0576 73.161 71.6076 73.689L71.0906 74.701ZM77.4378 88.176C76.5578 88.176 75.8795 87.9303 75.4028 87.439C74.9335 86.9477 74.6988 86.24 74.6988 85.316V78.496H73.3568C73.2395 78.496 73.1405 78.463 73.0598 78.397C72.9792 78.3237 72.9388 78.2137 72.9388 78.067V77.286L74.7648 77.055L75.2158 73.612C75.2378 73.502 75.2855 73.414 75.3588 73.348C75.4395 73.2747 75.5422 73.238 75.6668 73.238H76.6568V77.077H79.8798V78.496H76.6568V85.184C76.6568 85.6533 76.7705 86.0017 76.9978 86.229C77.2252 86.4563 77.5185 86.57 77.8778 86.57C78.0832 86.57 78.2592 86.5443 78.4058 86.493C78.5598 86.4343 78.6918 86.372 78.8018 86.306C78.9118 86.24 79.0035 86.1813 79.0768 86.13C79.1575 86.0713 79.2272 86.042 79.2858 86.042C79.3885 86.042 79.4802 86.1043 79.5608 86.229L80.1328 87.164C79.7955 87.4793 79.3885 87.7287 78.9118 87.912C78.4352 88.088 77.9438 88.176 77.4378 88.176ZM87.9406 82.984C87.0386 83.0133 86.2686 83.0867 85.6306 83.204C84.9999 83.314 84.4829 83.4607 84.0796 83.644C83.6836 83.8273 83.3939 84.0437 83.2106 84.293C83.0346 84.5423 82.9466 84.821 82.9466 85.129C82.9466 85.4223 82.9943 85.6753 83.0896 85.888C83.1849 86.1007 83.3133 86.2767 83.4746 86.416C83.6433 86.548 83.8376 86.647 84.0576 86.713C84.2849 86.7717 84.5269 86.801 84.7836 86.801C85.1283 86.801 85.4436 86.768 85.7296 86.702C86.0156 86.6287 86.2833 86.526 86.5326 86.394C86.7893 86.262 87.0313 86.1043 87.2586 85.921C87.4933 85.7377 87.7206 85.5287 87.9406 85.294V82.984ZM81.6156 78.43C82.2316 77.836 82.8953 77.3923 83.6066 77.099C84.3179 76.8057 85.1063 76.659 85.9716 76.659C86.5949 76.659 87.1486 76.7617 87.6326 76.967C88.1166 77.1723 88.5236 77.4583 88.8536 77.825C89.1836 78.1917 89.4329 78.6353 89.6016 79.156C89.7703 79.6767 89.8546 80.2487 89.8546 80.872V88H88.9856C88.7949 88 88.6483 87.9707 88.5456 87.912C88.4429 87.846 88.3623 87.7213 88.3036 87.538L88.0836 86.482C87.7903 86.7533 87.5043 86.9953 87.2256 87.208C86.9469 87.4133 86.6536 87.5893 86.3456 87.736C86.0376 87.8753 85.7076 87.9817 85.3556 88.055C85.0109 88.1357 84.6259 88.176 84.2006 88.176C83.7679 88.176 83.3609 88.1173 82.9796 88C82.5983 87.8753 82.2646 87.692 81.9786 87.45C81.6999 87.208 81.4763 86.9037 81.3076 86.537C81.1463 86.163 81.0656 85.723 81.0656 85.217C81.0656 84.777 81.1866 84.3553 81.4286 83.952C81.6706 83.5413 82.0629 83.1783 82.6056 82.863C83.1483 82.5477 83.8559 82.291 84.7286 82.093C85.6013 81.8877 86.6719 81.7703 87.9406 81.741V80.872C87.9406 80.0067 87.7536 79.354 87.3796 78.914C87.0056 78.4667 86.4593 78.243 85.7406 78.243C85.2566 78.243 84.8496 78.3053 84.5196 78.43C84.1969 78.5473 83.9146 78.683 83.6726 78.837C83.4379 78.9837 83.2326 79.1193 83.0566 79.244C82.8879 79.3613 82.7193 79.42 82.5506 79.42C82.4186 79.42 82.3049 79.387 82.2096 79.321C82.1143 79.2477 82.0336 79.1597 81.9676 79.057L81.6156 78.43ZM94.6851 78.474C94.9271 78.2027 95.1838 77.957 95.4551 77.737C95.7265 77.517 96.0125 77.33 96.3131 77.176C96.6211 77.0147 96.9438 76.8937 97.2811 76.813C97.6258 76.725 97.9961 76.681 98.3921 76.681C99.0008 76.681 99.5361 76.7837 99.9981 76.989C100.467 77.187 100.856 77.473 101.164 77.847C101.479 78.2137 101.718 78.6573 101.879 79.178C102.04 79.6987 102.121 80.2743 102.121 80.905V88H100.152V80.905C100.152 80.0617 99.9578 79.409 99.5691 78.947C99.1878 78.4777 98.6048 78.243 97.8201 78.243C97.2408 78.243 96.6981 78.3823 96.1921 78.661C95.6935 78.9397 95.2315 79.3173 94.8061 79.794V88H92.8371V76.857H94.0141C94.2928 76.857 94.4651 76.9927 94.5311 77.264L94.6851 78.474ZM112.365 79.508C111.998 79.0167 111.602 78.6757 111.177 78.485C110.751 78.287 110.275 78.188 109.747 78.188C108.713 78.188 107.917 78.5583 107.36 79.299C106.802 80.0397 106.524 81.0957 106.524 82.467C106.524 83.193 106.586 83.8163 106.711 84.337C106.835 84.8503 107.019 85.2757 107.261 85.613C107.503 85.943 107.8 86.185 108.152 86.339C108.504 86.493 108.903 86.57 109.351 86.57C109.996 86.57 110.557 86.4233 111.034 86.13C111.518 85.8367 111.961 85.4223 112.365 84.887V79.508ZM114.323 71.797V88H113.157C112.878 88 112.702 87.8643 112.629 87.593L112.453 86.24C111.976 86.812 111.433 87.274 110.825 87.626C110.216 87.978 109.512 88.154 108.713 88.154C108.075 88.154 107.495 88.033 106.975 87.791C106.454 87.5417 106.01 87.1787 105.644 86.702C105.277 86.2253 104.995 85.6313 104.797 84.92C104.599 84.2087 104.5 83.391 104.5 82.467C104.5 81.6457 104.61 80.883 104.83 80.179C105.05 79.4677 105.365 78.8517 105.776 78.331C106.186 77.8103 106.689 77.4033 107.283 77.11C107.884 76.8093 108.559 76.659 109.307 76.659C109.989 76.659 110.572 76.7763 111.056 77.011C111.547 77.2383 111.983 77.5573 112.365 77.968V71.797H114.323ZM123.454 82.984C122.552 83.0133 121.782 83.0867 121.144 83.204C120.514 83.314 119.997 83.4607 119.593 83.644C119.197 83.8273 118.908 84.0437 118.724 84.293C118.548 84.5423 118.46 84.821 118.46 85.129C118.46 85.4223 118.508 85.6753 118.603 85.888C118.699 86.1007 118.827 86.2767 118.988 86.416C119.157 86.548 119.351 86.647 119.571 86.713C119.799 86.7717 120.041 86.801 120.297 86.801C120.642 86.801 120.957 86.768 121.243 86.702C121.529 86.6287 121.797 86.526 122.046 86.394C122.303 86.262 122.545 86.1043 122.772 85.921C123.007 85.7377 123.234 85.5287 123.454 85.294V82.984ZM117.129 78.43C117.745 77.836 118.409 77.3923 119.12 77.099C119.832 76.8057 120.62 76.659 121.485 76.659C122.109 76.659 122.662 76.7617 123.146 76.967C123.63 77.1723 124.037 77.4583 124.367 77.825C124.697 78.1917 124.947 78.6353 125.115 79.156C125.284 79.6767 125.368 80.2487 125.368 80.872V88H124.499C124.309 88 124.162 87.9707 124.059 87.912C123.957 87.846 123.876 87.7213 123.817 87.538L123.597 86.482C123.304 86.7533 123.018 86.9953 122.739 87.208C122.461 87.4133 122.167 87.5893 121.859 87.736C121.551 87.8753 121.221 87.9817 120.869 88.055C120.525 88.1357 120.14 88.176 119.714 88.176C119.282 88.176 118.875 88.1173 118.493 88C118.112 87.8753 117.778 87.692 117.492 87.45C117.214 87.208 116.99 86.9037 116.821 86.537C116.66 86.163 116.579 85.723 116.579 85.217C116.579 84.777 116.7 84.3553 116.942 83.952C117.184 83.5413 117.577 83.1783 118.119 82.863C118.662 82.5477 119.37 82.291 120.242 82.093C121.115 81.8877 122.186 81.7703 123.454 81.741V80.872C123.454 80.0067 123.267 79.354 122.893 78.914C122.519 78.4667 121.973 78.243 121.254 78.243C120.77 78.243 120.363 78.3053 120.033 78.43C119.711 78.5473 119.428 78.683 119.186 78.837C118.952 78.9837 118.746 79.1193 118.57 79.244C118.402 79.3613 118.233 79.42 118.064 79.42C117.932 79.42 117.819 79.387 117.723 79.321C117.628 79.2477 117.547 79.1597 117.481 79.057L117.129 78.43ZM130.21 79.09C130.562 78.3273 130.994 77.7333 131.508 77.308C132.021 76.8753 132.648 76.659 133.389 76.659C133.623 76.659 133.847 76.6847 134.06 76.736C134.28 76.7873 134.474 76.868 134.643 76.978L134.5 78.441C134.456 78.6243 134.346 78.716 134.17 78.716C134.067 78.716 133.917 78.694 133.719 78.65C133.521 78.606 133.297 78.584 133.048 78.584C132.696 78.584 132.38 78.6353 132.102 78.738C131.83 78.8407 131.585 78.9947 131.365 79.2C131.152 79.398 130.958 79.6473 130.782 79.948C130.613 80.2413 130.459 80.5787 130.32 80.96V88H128.351V76.857H129.473C129.685 76.857 129.832 76.8973 129.913 76.978C129.993 77.0587 130.048 77.198 130.078 77.396L130.21 79.09ZM143.195 79.508C142.828 79.0167 142.432 78.6757 142.007 78.485C141.581 78.287 141.105 78.188 140.577 78.188C139.543 78.188 138.747 78.5583 138.19 79.299C137.632 80.0397 137.354 81.0957 137.354 82.467C137.354 83.193 137.416 83.8163 137.541 84.337C137.665 84.8503 137.849 85.2757 138.091 85.613C138.333 85.943 138.63 86.185 138.982 86.339C139.334 86.493 139.733 86.57 140.181 86.57C140.826 86.57 141.387 86.4233 141.864 86.13C142.348 85.8367 142.791 85.4223 143.195 84.887V79.508ZM145.153 71.797V88H143.987C143.708 88 143.532 87.8643 143.459 87.593L143.283 86.24C142.806 86.812 142.263 87.274 141.655 87.626C141.046 87.978 140.342 88.154 139.543 88.154C138.905 88.154 138.325 88.033 137.805 87.791C137.284 87.5417 136.84 87.1787 136.474 86.702C136.107 86.2253 135.825 85.6313 135.627 84.92C135.429 84.2087 135.33 83.391 135.33 82.467C135.33 81.6457 135.44 80.883 135.66 80.179C135.88 79.4677 136.195 78.8517 136.606 78.331C137.016 77.8103 137.519 77.4033 138.113 77.11C138.714 76.8093 139.389 76.659 140.137 76.659C140.819 76.659 141.402 76.7763 141.886 77.011C142.377 77.2383 142.813 77.5573 143.195 77.968V71.797H145.153ZM165.402 84.744C165.52 84.744 165.622 84.7917 165.71 84.887L166.557 85.8C165.912 86.548 165.127 87.131 164.203 87.549C163.287 87.967 162.176 88.176 160.87 88.176C159.741 88.176 158.714 87.9817 157.79 87.593C156.866 87.197 156.078 86.647 155.425 85.943C154.773 85.2317 154.267 84.381 153.907 83.391C153.548 82.401 153.368 81.312 153.368 80.124C153.368 78.936 153.555 77.847 153.929 76.857C154.303 75.867 154.828 75.0163 155.502 74.305C156.184 73.5937 156.998 73.0437 157.944 72.655C158.89 72.259 159.935 72.061 161.079 72.061C162.201 72.061 163.191 72.2407 164.049 72.6C164.907 72.9593 165.663 73.447 166.315 74.063L165.611 75.042C165.567 75.1153 165.509 75.1777 165.435 75.229C165.369 75.273 165.278 75.295 165.16 75.295C165.028 75.295 164.867 75.2253 164.676 75.086C164.486 74.9393 164.236 74.778 163.928 74.602C163.62 74.426 163.235 74.2683 162.773 74.129C162.311 73.9823 161.743 73.909 161.068 73.909C160.254 73.909 159.51 74.052 158.835 74.338C158.161 74.6167 157.578 75.0237 157.086 75.559C156.602 76.0943 156.225 76.747 155.953 77.517C155.682 78.287 155.546 79.156 155.546 80.124C155.546 81.1067 155.686 81.983 155.964 82.753C156.25 83.523 156.635 84.1757 157.119 84.711C157.611 85.239 158.186 85.6423 158.846 85.921C159.514 86.1997 160.232 86.339 161.002 86.339C161.472 86.339 161.893 86.3133 162.267 86.262C162.649 86.2033 162.997 86.1153 163.312 85.998C163.635 85.8807 163.932 85.734 164.203 85.558C164.482 85.3747 164.757 85.1583 165.028 84.909C165.153 84.799 165.278 84.744 165.402 84.744ZM173.052 76.681C173.866 76.681 174.599 76.8167 175.252 77.088C175.904 77.3593 176.462 77.7443 176.924 78.243C177.386 78.7417 177.738 79.3467 177.98 80.058C178.229 80.762 178.354 81.5503 178.354 82.423C178.354 83.303 178.229 84.095 177.98 84.799C177.738 85.503 177.386 86.1043 176.924 86.603C176.462 87.1017 175.904 87.4867 175.252 87.758C174.599 88.022 173.866 88.154 173.052 88.154C172.23 88.154 171.49 88.022 170.83 87.758C170.177 87.4867 169.62 87.1017 169.158 86.603C168.696 86.1043 168.34 85.503 168.091 84.799C167.849 84.095 167.728 83.303 167.728 82.423C167.728 81.5503 167.849 80.762 168.091 80.058C168.34 79.3467 168.696 78.7417 169.158 78.243C169.62 77.7443 170.177 77.3593 170.83 77.088C171.49 76.8167 172.23 76.681 173.052 76.681ZM173.052 86.625C174.152 86.625 174.973 86.2583 175.516 85.525C176.058 84.7843 176.33 83.754 176.33 82.434C176.33 81.1067 176.058 80.0727 175.516 79.332C174.973 78.5913 174.152 78.221 173.052 78.221C172.494 78.221 172.007 78.3163 171.589 78.507C171.178 78.6977 170.833 78.9727 170.555 79.332C170.283 79.6913 170.078 80.135 169.939 80.663C169.807 81.1837 169.741 81.774 169.741 82.434C169.741 83.754 170.012 84.7843 170.555 85.525C171.105 86.2583 171.937 86.625 173.052 86.625ZM180.837 88V76.857H182.014C182.293 76.857 182.465 76.9927 182.531 77.264L182.674 78.408C183.085 77.902 183.547 77.4877 184.06 77.165C184.573 76.8423 185.167 76.681 185.842 76.681C186.59 76.681 187.195 76.89 187.657 77.308C188.126 77.726 188.464 78.2907 188.669 79.002C188.83 78.5987 189.036 78.2503 189.285 77.957C189.542 77.6637 189.828 77.4217 190.143 77.231C190.458 77.0403 190.792 76.901 191.144 76.813C191.503 76.725 191.866 76.681 192.233 76.681C192.82 76.681 193.34 76.7763 193.795 76.967C194.257 77.1503 194.646 77.4217 194.961 77.781C195.284 78.1403 195.529 78.584 195.698 79.112C195.867 79.6327 195.951 80.2303 195.951 80.905V88H193.982V80.905C193.982 80.0323 193.791 79.3723 193.41 78.925C193.029 78.4703 192.479 78.243 191.76 78.243C191.437 78.243 191.129 78.3017 190.836 78.419C190.55 78.529 190.297 78.694 190.077 78.914C189.857 79.134 189.681 79.4127 189.549 79.75C189.424 80.08 189.362 80.465 189.362 80.905V88H187.393V80.905C187.393 80.0103 187.213 79.343 186.854 78.903C186.495 78.463 185.97 78.243 185.281 78.243C184.797 78.243 184.35 78.375 183.939 78.639C183.528 78.8957 183.151 79.2477 182.806 79.695V88H180.837ZM198.927 88V76.857H200.104C200.383 76.857 200.555 76.9927 200.621 77.264L200.764 78.408C201.175 77.902 201.637 77.4877 202.15 77.165C202.663 76.8423 203.257 76.681 203.932 76.681C204.68 76.681 205.285 76.89 205.747 77.308C206.216 77.726 206.554 78.2907 206.759 79.002C206.92 78.5987 207.126 78.2503 207.375 77.957C207.632 77.6637 207.918 77.4217 208.233 77.231C208.548 77.0403 208.882 76.901 209.234 76.813C209.593 76.725 209.956 76.681 210.323 76.681C210.91 76.681 211.43 76.7763 211.885 76.967C212.347 77.1503 212.736 77.4217 213.051 77.781C213.374 78.1403 213.619 78.584 213.788 79.112C213.957 79.6327 214.041 80.2303 214.041 80.905V88H212.072V80.905C212.072 80.0323 211.881 79.3723 211.5 78.925C211.119 78.4703 210.569 78.243 209.85 78.243C209.527 78.243 209.219 78.3017 208.926 78.419C208.64 78.529 208.387 78.694 208.167 78.914C207.947 79.134 207.771 79.4127 207.639 79.75C207.514 80.08 207.452 80.465 207.452 80.905V88H205.483V80.905C205.483 80.0103 205.303 79.343 204.944 78.903C204.585 78.463 204.06 78.243 203.371 78.243C202.887 78.243 202.44 78.375 202.029 78.639C201.618 78.8957 201.241 79.2477 200.896 79.695V88H198.927ZM221.714 76.681C222.528 76.681 223.261 76.8167 223.914 77.088C224.566 77.3593 225.124 77.7443 225.586 78.243C226.048 78.7417 226.4 79.3467 226.642 80.058C226.891 80.762 227.016 81.5503 227.016 82.423C227.016 83.303 226.891 84.095 226.642 84.799C226.4 85.503 226.048 86.1043 225.586 86.603C225.124 87.1017 224.566 87.4867 223.914 87.758C223.261 88.022 222.528 88.154 221.714 88.154C220.892 88.154 220.152 88.022 219.492 87.758C218.839 87.4867 218.282 87.1017 217.82 86.603C217.358 86.1043 217.002 85.503 216.753 84.799C216.511 84.095 216.39 83.303 216.39 82.423C216.39 81.5503 216.511 80.762 216.753 80.058C217.002 79.3467 217.358 78.7417 217.82 78.243C218.282 77.7443 218.839 77.3593 219.492 77.088C220.152 76.8167 220.892 76.681 221.714 76.681ZM221.714 86.625C222.814 86.625 223.635 86.2583 224.178 85.525C224.72 84.7843 224.992 83.754 224.992 82.434C224.992 81.1067 224.72 80.0727 224.178 79.332C223.635 78.5913 222.814 78.221 221.714 78.221C221.156 78.221 220.669 78.3163 220.251 78.507C219.84 78.6977 219.495 78.9727 219.217 79.332C218.945 79.6913 218.74 80.135 218.601 80.663C218.469 81.1837 218.403 81.774 218.403 82.434C218.403 83.754 218.674 84.7843 219.217 85.525C219.767 86.2583 220.599 86.625 221.714 86.625ZM236.759 79.508C236.393 79.0167 235.997 78.6757 235.571 78.485C235.146 78.287 234.669 78.188 234.141 78.188C233.107 78.188 232.312 78.5583 231.754 79.299C231.197 80.0397 230.918 81.0957 230.918 82.467C230.918 83.193 230.981 83.8163 231.105 84.337C231.23 84.8503 231.413 85.2757 231.655 85.613C231.897 85.943 232.194 86.185 232.546 86.339C232.898 86.493 233.298 86.57 233.745 86.57C234.391 86.57 234.952 86.4233 235.428 86.13C235.912 85.8367 236.356 85.4223 236.759 84.887V79.508ZM238.717 71.797V88H237.551C237.273 88 237.097 87.8643 237.023 87.593L236.847 86.24C236.371 86.812 235.828 87.274 235.219 87.626C234.611 87.978 233.907 88.154 233.107 88.154C232.469 88.154 231.89 88.033 231.369 87.791C230.849 87.5417 230.405 87.1787 230.038 86.702C229.672 86.2253 229.389 85.6313 229.191 84.92C228.993 84.2087 228.894 83.391 228.894 82.467C228.894 81.6457 229.004 80.883 229.224 80.179C229.444 79.4677 229.76 78.8517 230.17 78.331C230.581 77.8103 231.083 77.4033 231.677 77.11C232.279 76.8093 232.953 76.659 233.701 76.659C234.383 76.659 234.966 76.7763 235.45 77.011C235.942 77.2383 236.378 77.5573 236.759 77.968V71.797H238.717ZM243.878 76.857V88H241.92V76.857H243.878ZM244.296 73.359C244.296 73.5497 244.255 73.7293 244.175 73.898C244.101 74.0593 243.999 74.206 243.867 74.338C243.742 74.4627 243.592 74.5617 243.416 74.635C243.247 74.7083 243.067 74.745 242.877 74.745C242.686 74.745 242.506 74.7083 242.338 74.635C242.176 74.5617 242.033 74.4627 241.909 74.338C241.784 74.206 241.685 74.0593 241.612 73.898C241.538 73.7293 241.502 73.5497 241.502 73.359C241.502 73.1683 241.538 72.9887 241.612 72.82C241.685 72.644 241.784 72.4937 241.909 72.369C242.033 72.237 242.176 72.1343 242.338 72.061C242.506 71.9877 242.686 71.951 242.877 71.951C243.067 71.951 243.247 71.9877 243.416 72.061C243.592 72.1343 243.742 72.237 243.867 72.369C243.999 72.4937 244.101 72.644 244.175 72.82C244.255 72.9887 244.296 73.1683 244.296 73.359ZM250.516 88.176C249.636 88.176 248.958 87.9303 248.481 87.439C248.012 86.9477 247.777 86.24 247.777 85.316V78.496H246.435C246.318 78.496 246.219 78.463 246.138 78.397C246.057 78.3237 246.017 78.2137 246.017 78.067V77.286L247.843 77.055L248.294 73.612C248.316 73.502 248.364 73.414 248.437 73.348C248.518 73.2747 248.62 73.238 248.745 73.238H249.735V77.077H252.958V78.496H249.735V85.184C249.735 85.6533 249.849 86.0017 250.076 86.229C250.303 86.4563 250.597 86.57 250.956 86.57C251.161 86.57 251.337 86.5443 251.484 86.493C251.638 86.4343 251.77 86.372 251.88 86.306C251.99 86.24 252.082 86.1813 252.155 86.13C252.236 86.0713 252.305 86.042 252.364 86.042C252.467 86.042 252.558 86.1043 252.639 86.229L253.211 87.164C252.874 87.4793 252.467 87.7287 251.99 87.912C251.513 88.088 251.022 88.176 250.516 88.176ZM264.594 76.857L258.379 91.289C258.313 91.4357 258.228 91.553 258.126 91.641C258.03 91.729 257.88 91.773 257.675 91.773H256.223L258.258 87.351L253.66 76.857H255.354C255.522 76.857 255.654 76.901 255.75 76.989C255.852 77.0697 255.922 77.1613 255.959 77.264L258.94 84.282C259.057 84.59 259.156 84.9127 259.237 85.25C259.339 84.9053 259.449 84.579 259.567 84.271L262.46 77.264C262.504 77.1467 262.577 77.0513 262.68 76.978C262.79 76.8973 262.911 76.857 263.043 76.857H264.594ZM266.585 88.231C266.49 88.4877 266.339 88.6783 266.134 88.803C265.936 88.9277 265.731 88.99 265.518 88.99H264.693L271.304 72.523C271.392 72.2883 271.524 72.1087 271.7 71.984C271.883 71.8593 272.092 71.797 272.327 71.797H273.163L266.585 88.231ZM283.979 74.701C283.913 74.811 283.84 74.8953 283.759 74.954C283.686 75.0053 283.594 75.031 283.484 75.031C283.36 75.031 283.213 74.9687 283.044 74.844C282.876 74.7193 282.663 74.5837 282.406 74.437C282.157 74.283 281.853 74.1437 281.493 74.019C281.141 73.8943 280.712 73.832 280.206 73.832C279.73 73.832 279.308 73.898 278.941 74.03C278.582 74.1547 278.278 74.327 278.028 74.547C277.786 74.767 277.603 75.0273 277.478 75.328C277.354 75.6213 277.291 75.9403 277.291 76.285C277.291 76.725 277.398 77.0917 277.61 77.385C277.83 77.671 278.116 77.9167 278.468 78.122C278.828 78.3273 279.231 78.507 279.678 78.661C280.133 78.8077 280.595 78.9617 281.064 79.123C281.541 79.2843 282.003 79.4677 282.45 79.673C282.905 79.871 283.308 80.124 283.66 80.432C284.02 80.74 284.306 81.1177 284.518 81.565C284.738 82.0123 284.848 82.5623 284.848 83.215C284.848 83.9043 284.731 84.5533 284.496 85.162C284.262 85.7633 283.917 86.2877 283.462 86.735C283.015 87.1823 282.461 87.5343 281.801 87.791C281.149 88.0477 280.404 88.176 279.568 88.176C278.542 88.176 277.61 87.9927 276.774 87.626C275.938 87.252 275.223 86.7497 274.629 86.119L275.245 85.107C275.304 85.0263 275.374 84.9603 275.454 84.909C275.542 84.8503 275.638 84.821 275.74 84.821C275.836 84.821 275.942 84.8613 276.059 84.942C276.184 85.0153 276.323 85.1107 276.477 85.228C276.631 85.3453 276.807 85.4737 277.005 85.613C277.203 85.7523 277.427 85.8807 277.676 85.998C277.933 86.1153 278.223 86.2143 278.545 86.295C278.868 86.3683 279.231 86.405 279.634 86.405C280.14 86.405 280.591 86.3353 280.987 86.196C281.383 86.0567 281.717 85.8623 281.988 85.613C282.267 85.3563 282.48 85.052 282.626 84.7C282.773 84.348 282.846 83.9557 282.846 83.523C282.846 83.0463 282.736 82.6577 282.516 82.357C282.304 82.049 282.021 81.7923 281.669 81.587C281.317 81.3817 280.914 81.2093 280.459 81.07C280.005 80.9233 279.543 80.7767 279.073 80.63C278.604 80.476 278.142 80.3 277.687 80.102C277.233 79.904 276.829 79.6473 276.477 79.332C276.125 79.0167 275.839 78.6243 275.619 78.155C275.407 77.6783 275.3 77.0917 275.3 76.395C275.3 75.8377 275.407 75.2987 275.619 74.778C275.839 74.2573 276.155 73.7953 276.565 73.392C276.983 72.9887 277.493 72.666 278.094 72.424C278.703 72.182 279.4 72.061 280.184 72.061C281.064 72.061 281.864 72.2003 282.582 72.479C283.308 72.7577 283.946 73.161 284.496 73.689L283.979 74.701ZM294.793 81.213C294.793 80.7583 294.727 80.344 294.595 79.97C294.471 79.5887 294.284 79.2623 294.034 78.991C293.792 78.7123 293.495 78.4997 293.143 78.353C292.791 78.199 292.392 78.122 291.944 78.122C291.006 78.122 290.261 78.397 289.711 78.947C289.169 79.4897 288.831 80.245 288.699 81.213H294.793ZM296.377 86.438C296.135 86.7313 295.846 86.988 295.508 87.208C295.171 87.4207 294.808 87.5967 294.419 87.736C294.038 87.8753 293.642 87.978 293.231 88.044C292.821 88.1173 292.414 88.154 292.01 88.154C291.24 88.154 290.529 88.0257 289.876 87.769C289.231 87.505 288.67 87.1237 288.193 86.625C287.724 86.119 287.357 85.4957 287.093 84.755C286.829 84.0143 286.697 83.1637 286.697 82.203C286.697 81.4257 286.815 80.6997 287.049 80.025C287.291 79.3503 287.636 78.7673 288.083 78.276C288.531 77.7773 289.077 77.3887 289.722 77.11C290.368 76.824 291.094 76.681 291.9 76.681C292.568 76.681 293.184 76.7947 293.748 77.022C294.32 77.242 294.812 77.5647 295.222 77.99C295.64 78.408 295.967 78.9287 296.201 79.552C296.436 80.168 296.553 80.872 296.553 81.664C296.553 81.972 296.52 82.1773 296.454 82.28C296.388 82.3827 296.264 82.434 296.08 82.434H288.633C288.655 83.138 288.751 83.7503 288.919 84.271C289.095 84.7917 289.337 85.228 289.645 85.58C289.953 85.9247 290.32 86.185 290.745 86.361C291.171 86.5297 291.647 86.614 292.175 86.614C292.667 86.614 293.088 86.559 293.44 86.449C293.8 86.3317 294.108 86.207 294.364 86.075C294.621 85.943 294.834 85.822 295.002 85.712C295.178 85.5947 295.329 85.536 295.453 85.536C295.615 85.536 295.739 85.5983 295.827 85.723L296.377 86.438ZM300.817 79.09C301.169 78.3273 301.602 77.7333 302.115 77.308C302.629 76.8753 303.256 76.659 303.996 76.659C304.231 76.659 304.455 76.6847 304.667 76.736C304.887 76.7873 305.082 76.868 305.25 76.978L305.107 78.441C305.063 78.6243 304.953 78.716 304.777 78.716C304.675 78.716 304.524 78.694 304.326 78.65C304.128 78.606 303.905 78.584 303.655 78.584C303.303 78.584 302.988 78.6353 302.709 78.738C302.438 78.8407 302.192 78.9947 301.972 79.2C301.76 79.398 301.565 79.6473 301.389 79.948C301.221 80.2413 301.067 80.5787 300.927 80.96V88H298.958V76.857H300.08C300.293 76.857 300.44 76.8973 300.52 76.978C300.601 77.0587 300.656 77.198 300.685 77.396L300.817 79.09ZM316.52 76.857L311.977 88H310.217L305.674 76.857H307.269C307.43 76.857 307.562 76.8973 307.665 76.978C307.768 77.0587 307.837 77.154 307.874 77.264L310.701 84.436C310.789 84.7073 310.866 84.9713 310.932 85.228C310.998 85.4847 311.06 85.7413 311.119 85.998C311.178 85.7413 311.24 85.4847 311.306 85.228C311.372 84.9713 311.453 84.7073 311.548 84.436L314.408 77.264C314.452 77.1467 314.525 77.0513 314.628 76.978C314.731 76.8973 314.852 76.857 314.991 76.857H316.52ZM320.384 76.857V88H318.426V76.857H320.384ZM320.802 73.359C320.802 73.5497 320.761 73.7293 320.681 73.898C320.607 74.0593 320.505 74.206 320.373 74.338C320.248 74.4627 320.098 74.5617 319.922 74.635C319.753 74.7083 319.573 74.745 319.383 74.745C319.192 74.745 319.012 74.7083 318.844 74.635C318.682 74.5617 318.539 74.4627 318.415 74.338C318.29 74.206 318.191 74.0593 318.118 73.898C318.044 73.7293 318.008 73.5497 318.008 73.359C318.008 73.1683 318.044 72.9887 318.118 72.82C318.191 72.644 318.29 72.4937 318.415 72.369C318.539 72.237 318.682 72.1343 318.844 72.061C319.012 71.9877 319.192 71.951 319.383 71.951C319.573 71.951 319.753 71.9877 319.922 72.061C320.098 72.1343 320.248 72.237 320.373 72.369C320.505 72.4937 320.607 72.644 320.681 72.82C320.761 72.9887 320.802 73.1683 320.802 73.359ZM331.356 78.837C331.297 78.9177 331.238 78.98 331.18 79.024C331.121 79.068 331.04 79.09 330.938 79.09C330.828 79.09 330.707 79.046 330.575 78.958C330.443 78.8627 330.278 78.76 330.08 78.65C329.889 78.54 329.651 78.441 329.365 78.353C329.086 78.2577 328.741 78.21 328.331 78.21C327.781 78.21 327.297 78.309 326.879 78.507C326.461 78.6977 326.109 78.9763 325.823 79.343C325.544 79.7097 325.331 80.1533 325.185 80.674C325.045 81.1947 324.976 81.7777 324.976 82.423C324.976 83.0977 325.053 83.699 325.207 84.227C325.361 84.7477 325.577 85.1877 325.856 85.547C326.142 85.899 326.483 86.1703 326.879 86.361C327.282 86.5443 327.733 86.636 328.232 86.636C328.708 86.636 329.101 86.581 329.409 86.471C329.717 86.3537 329.97 86.2253 330.168 86.086C330.373 85.9467 330.542 85.822 330.674 85.712C330.813 85.5947 330.949 85.536 331.081 85.536C331.242 85.536 331.367 85.5983 331.455 85.723L332.005 86.438C331.763 86.7387 331.488 86.9953 331.18 87.208C330.872 87.4207 330.538 87.6003 330.179 87.747C329.827 87.8863 329.456 87.989 329.068 88.055C328.679 88.121 328.283 88.154 327.88 88.154C327.183 88.154 326.534 88.0257 325.933 87.769C325.339 87.5123 324.822 87.142 324.382 86.658C323.942 86.1667 323.597 85.5653 323.348 84.854C323.098 84.1427 322.974 83.3323 322.974 82.423C322.974 81.5943 323.087 80.828 323.315 80.124C323.549 79.42 323.887 78.815 324.327 78.309C324.774 77.7957 325.32 77.396 325.966 77.11C326.618 76.824 327.366 76.681 328.21 76.681C328.994 76.681 329.684 76.8093 330.278 77.066C330.879 77.3153 331.411 77.671 331.873 78.133L331.356 78.837ZM341.371 81.213C341.371 80.7583 341.305 80.344 341.173 79.97C341.049 79.5887 340.862 79.2623 340.612 78.991C340.37 78.7123 340.073 78.4997 339.721 78.353C339.369 78.199 338.97 78.122 338.522 78.122C337.584 78.122 336.839 78.397 336.289 78.947C335.747 79.4897 335.409 80.245 335.277 81.213H341.371ZM342.955 86.438C342.713 86.7313 342.424 86.988 342.086 87.208C341.749 87.4207 341.386 87.5967 340.997 87.736C340.616 87.8753 340.22 87.978 339.809 88.044C339.399 88.1173 338.992 88.154 338.588 88.154C337.818 88.154 337.107 88.0257 336.454 87.769C335.809 87.505 335.248 87.1237 334.771 86.625C334.302 86.119 333.935 85.4957 333.671 84.755C333.407 84.0143 333.275 83.1637 333.275 82.203C333.275 81.4257 333.393 80.6997 333.627 80.025C333.869 79.3503 334.214 78.7673 334.661 78.276C335.109 77.7773 335.655 77.3887 336.3 77.11C336.946 76.824 337.672 76.681 338.478 76.681C339.146 76.681 339.762 76.7947 340.326 77.022C340.898 77.242 341.39 77.5647 341.8 77.99C342.218 78.408 342.545 78.9287 342.779 79.552C343.014 80.168 343.131 80.872 343.131 81.664C343.131 81.972 343.098 82.1773 343.032 82.28C342.966 82.3827 342.842 82.434 342.658 82.434H335.211C335.233 83.138 335.329 83.7503 335.497 84.271C335.673 84.7917 335.915 85.228 336.223 85.58C336.531 85.9247 336.898 86.185 337.323 86.361C337.749 86.5297 338.225 86.614 338.753 86.614C339.245 86.614 339.666 86.559 340.018 86.449C340.378 86.3317 340.686 86.207 340.942 86.075C341.199 85.943 341.412 85.822 341.58 85.712C341.756 85.5947 341.907 85.536 342.031 85.536C342.193 85.536 342.317 85.5983 342.405 85.723L342.955 86.438ZM100.924 106.124C100.924 107.305 100.737 108.39 100.363 109.38C99.9887 110.363 99.4607 111.21 98.7787 111.921C98.0967 112.632 97.2753 113.186 96.3147 113.582C95.3613 113.971 94.3053 114.165 93.1467 114.165C91.988 114.165 90.932 113.971 89.9787 113.582C89.0253 113.186 88.2077 112.632 87.5257 111.921C86.8437 111.21 86.3157 110.363 85.9417 109.38C85.5677 108.39 85.3807 107.305 85.3807 106.124C85.3807 104.943 85.5677 103.862 85.9417 102.879C86.3157 101.889 86.8437 101.038 87.5257 100.327C88.2077 99.6083 89.0253 99.051 89.9787 98.655C90.932 98.259 91.988 98.061 93.1467 98.061C94.3053 98.061 95.3613 98.259 96.3147 98.655C97.2753 99.051 98.0967 99.6083 98.7787 100.327C99.4607 101.038 99.9887 101.889 100.363 102.879C100.737 103.862 100.924 104.943 100.924 106.124ZM98.7347 106.124C98.7347 105.156 98.6027 104.287 98.3387 103.517C98.0747 102.747 97.7007 102.098 97.2167 101.57C96.7327 101.035 96.146 100.624 95.4567 100.338C94.7673 100.052 93.9973 99.909 93.1467 99.909C92.3033 99.909 91.537 100.052 90.8477 100.338C90.1583 100.624 89.568 101.035 89.0767 101.57C88.5927 102.098 88.2187 102.747 87.9547 103.517C87.6907 104.287 87.5587 105.156 87.5587 106.124C87.5587 107.092 87.6907 107.961 87.9547 108.731C88.2187 109.494 88.5927 110.143 89.0767 110.678C89.568 111.206 90.1583 111.613 90.8477 111.899C91.537 112.178 92.3033 112.317 93.1467 112.317C93.9973 112.317 94.7673 112.178 95.4567 111.899C96.146 111.613 96.7327 111.206 97.2167 110.678C97.7007 110.143 98.0747 109.494 98.3387 108.731C98.6027 107.961 98.7347 107.092 98.7347 106.124ZM105.269 111.316C105.628 111.8 106.021 112.141 106.446 112.339C106.871 112.537 107.348 112.636 107.876 112.636C108.917 112.636 109.717 112.266 110.274 111.525C110.831 110.784 111.11 109.728 111.11 108.357C111.11 107.631 111.044 107.008 110.912 106.487C110.787 105.966 110.604 105.541 110.362 105.211C110.12 104.874 109.823 104.628 109.471 104.474C109.119 104.32 108.719 104.243 108.272 104.243C107.634 104.243 107.073 104.39 106.589 104.683C106.112 104.976 105.672 105.391 105.269 105.926V111.316ZM105.17 104.584C105.639 104.005 106.182 103.539 106.798 103.187C107.414 102.835 108.118 102.659 108.91 102.659C109.555 102.659 110.138 102.784 110.659 103.033C111.18 103.275 111.623 103.638 111.99 104.122C112.357 104.599 112.639 105.193 112.837 105.904C113.035 106.615 113.134 107.433 113.134 108.357C113.134 109.178 113.024 109.945 112.804 110.656C112.584 111.36 112.265 111.972 111.847 112.493C111.436 113.006 110.93 113.413 110.329 113.714C109.735 114.007 109.064 114.154 108.316 114.154C107.634 114.154 107.047 114.04 106.556 113.813C106.072 113.578 105.643 113.256 105.269 112.845V117.773H103.3V102.857H104.477C104.756 102.857 104.928 102.993 104.994 103.264L105.17 104.584ZM123.09 107.213C123.09 106.758 123.024 106.344 122.892 105.97C122.767 105.589 122.58 105.262 122.331 104.991C122.089 104.712 121.792 104.5 121.44 104.353C121.088 104.199 120.688 104.122 120.241 104.122C119.302 104.122 118.558 104.397 118.008 104.947C117.465 105.49 117.128 106.245 116.996 107.213H123.09ZM124.674 112.438C124.432 112.731 124.142 112.988 123.805 113.208C123.468 113.421 123.105 113.597 122.716 113.736C122.335 113.875 121.939 113.978 121.528 114.044C121.117 114.117 120.71 114.154 120.307 114.154C119.537 114.154 118.826 114.026 118.173 113.769C117.528 113.505 116.967 113.124 116.49 112.625C116.021 112.119 115.654 111.496 115.39 110.755C115.126 110.014 114.994 109.164 114.994 108.203C114.994 107.426 115.111 106.7 115.346 106.025C115.588 105.35 115.933 104.767 116.38 104.276C116.827 103.777 117.374 103.389 118.019 103.11C118.664 102.824 119.39 102.681 120.197 102.681C120.864 102.681 121.48 102.795 122.045 103.022C122.617 103.242 123.108 103.565 123.519 103.99C123.937 104.408 124.263 104.929 124.498 105.552C124.733 106.168 124.85 106.872 124.85 107.664C124.85 107.972 124.817 108.177 124.751 108.28C124.685 108.383 124.56 108.434 124.377 108.434H116.93C116.952 109.138 117.047 109.75 117.216 110.271C117.392 110.792 117.634 111.228 117.942 111.58C118.25 111.925 118.617 112.185 119.042 112.361C119.467 112.53 119.944 112.614 120.472 112.614C120.963 112.614 121.385 112.559 121.737 112.449C122.096 112.332 122.404 112.207 122.661 112.075C122.918 111.943 123.13 111.822 123.299 111.712C123.475 111.595 123.625 111.536 123.75 111.536C123.911 111.536 124.036 111.598 124.124 111.723L124.674 112.438ZM129.103 104.474C129.345 104.203 129.602 103.957 129.873 103.737C130.144 103.517 130.43 103.33 130.731 103.176C131.039 103.015 131.362 102.894 131.699 102.813C132.044 102.725 132.414 102.681 132.81 102.681C133.419 102.681 133.954 102.784 134.416 102.989C134.885 103.187 135.274 103.473 135.582 103.847C135.897 104.214 136.136 104.657 136.297 105.178C136.458 105.699 136.539 106.274 136.539 106.905V114H134.57V106.905C134.57 106.062 134.376 105.409 133.987 104.947C133.606 104.478 133.023 104.243 132.238 104.243C131.659 104.243 131.116 104.382 130.61 104.661C130.111 104.94 129.649 105.317 129.224 105.794V114H127.255V102.857H128.432C128.711 102.857 128.883 102.993 128.949 103.264L129.103 104.474ZM141.591 102.857V114H139.633V102.857H141.591ZM142.009 99.359C142.009 99.5497 141.968 99.7293 141.888 99.898C141.814 100.059 141.712 100.206 141.58 100.338C141.455 100.463 141.305 100.562 141.129 100.635C140.96 100.708 140.78 100.745 140.59 100.745C140.399 100.745 140.219 100.708 140.051 100.635C139.889 100.562 139.746 100.463 139.622 100.338C139.497 100.206 139.398 100.059 139.325 99.898C139.251 99.7293 139.215 99.5497 139.215 99.359C139.215 99.1683 139.251 98.9887 139.325 98.82C139.398 98.644 139.497 98.4937 139.622 98.369C139.746 98.237 139.889 98.1343 140.051 98.061C140.219 97.9877 140.399 97.951 140.59 97.951C140.78 97.951 140.96 97.9877 141.129 98.061C141.305 98.1343 141.455 98.237 141.58 98.369C141.712 98.4937 141.814 98.644 141.888 98.82C141.968 98.9887 142.009 99.1683 142.009 99.359ZM146.656 104.474C146.898 104.203 147.155 103.957 147.426 103.737C147.697 103.517 147.983 103.33 148.284 103.176C148.592 103.015 148.915 102.894 149.252 102.813C149.597 102.725 149.967 102.681 150.363 102.681C150.972 102.681 151.507 102.784 151.969 102.989C152.438 103.187 152.827 103.473 153.135 103.847C153.45 104.214 153.689 104.657 153.85 105.178C154.011 105.699 154.092 106.274 154.092 106.905V114H152.123V106.905C152.123 106.062 151.929 105.409 151.54 104.947C151.159 104.478 150.576 104.243 149.791 104.243C149.212 104.243 148.669 104.382 148.163 104.661C147.664 104.94 147.202 105.317 146.777 105.794V114H144.808V102.857H145.985C146.264 102.857 146.436 102.993 146.502 103.264L146.656 104.474ZM160.958 108.555C161.354 108.555 161.703 108.5 162.003 108.39C162.304 108.28 162.557 108.126 162.762 107.928C162.968 107.73 163.122 107.495 163.224 107.224C163.327 106.945 163.378 106.641 163.378 106.311C163.378 105.629 163.169 105.086 162.751 104.683C162.341 104.28 161.743 104.078 160.958 104.078C160.166 104.078 159.561 104.28 159.143 104.683C158.733 105.086 158.527 105.629 158.527 106.311C158.527 106.641 158.579 106.945 158.681 107.224C158.791 107.495 158.949 107.73 159.154 107.928C159.36 108.126 159.613 108.28 159.913 108.39C160.214 108.5 160.562 108.555 160.958 108.555ZM164.489 114.605C164.489 114.334 164.412 114.114 164.258 113.945C164.104 113.776 163.895 113.644 163.631 113.549C163.375 113.454 163.074 113.388 162.729 113.351C162.385 113.307 162.018 113.274 161.629 113.252C161.248 113.23 160.859 113.208 160.463 113.186C160.067 113.164 159.686 113.127 159.319 113.076C158.909 113.267 158.571 113.509 158.307 113.802C158.051 114.088 157.922 114.425 157.922 114.814C157.922 115.063 157.985 115.294 158.109 115.507C158.241 115.727 158.439 115.914 158.703 116.068C158.967 116.229 159.297 116.354 159.693 116.442C160.097 116.537 160.57 116.585 161.112 116.585C161.64 116.585 162.113 116.537 162.531 116.442C162.949 116.347 163.301 116.211 163.587 116.035C163.881 115.859 164.104 115.65 164.258 115.408C164.412 115.166 164.489 114.898 164.489 114.605ZM166.48 103.297V104.023C166.48 104.265 166.326 104.419 166.018 104.485L164.753 104.65C165.003 105.134 165.127 105.669 165.127 106.256C165.127 106.799 165.021 107.294 164.808 107.741C164.603 108.181 164.317 108.559 163.95 108.874C163.584 109.189 163.144 109.431 162.63 109.6C162.117 109.769 161.56 109.853 160.958 109.853C160.438 109.853 159.946 109.791 159.484 109.666C159.25 109.813 159.07 109.97 158.945 110.139C158.821 110.3 158.758 110.465 158.758 110.634C158.758 110.898 158.865 111.1 159.077 111.239C159.297 111.371 159.583 111.466 159.935 111.525C160.287 111.584 160.687 111.62 161.134 111.635C161.589 111.65 162.051 111.675 162.52 111.712C162.997 111.741 163.459 111.796 163.906 111.877C164.361 111.958 164.764 112.09 165.116 112.273C165.468 112.456 165.751 112.709 165.963 113.032C166.183 113.355 166.293 113.773 166.293 114.286C166.293 114.763 166.172 115.225 165.93 115.672C165.696 116.119 165.355 116.515 164.907 116.86C164.46 117.212 163.91 117.491 163.257 117.696C162.612 117.909 161.882 118.015 161.068 118.015C160.254 118.015 159.543 117.934 158.934 117.773C158.326 117.612 157.82 117.395 157.416 117.124C157.013 116.853 156.709 116.537 156.503 116.178C156.305 115.826 156.206 115.456 156.206 115.067C156.206 114.517 156.379 114.051 156.723 113.67C157.068 113.289 157.541 112.984 158.142 112.757C157.812 112.61 157.548 112.416 157.35 112.174C157.16 111.925 157.064 111.591 157.064 111.173C157.064 111.012 157.094 110.847 157.152 110.678C157.211 110.502 157.299 110.33 157.416 110.161C157.541 109.985 157.691 109.82 157.867 109.666C158.043 109.512 158.249 109.376 158.483 109.259C157.933 108.951 157.504 108.544 157.196 108.038C156.888 107.525 156.734 106.931 156.734 106.256C156.734 105.713 156.837 105.222 157.042 104.782C157.255 104.335 157.548 103.957 157.922 103.649C158.296 103.334 158.74 103.092 159.253 102.923C159.774 102.754 160.342 102.67 160.958 102.67C161.442 102.67 161.893 102.725 162.311 102.835C162.729 102.938 163.111 103.092 163.455 103.297H166.48ZM180.129 112.306C180.738 112.306 181.262 112.236 181.702 112.097C182.142 111.958 182.501 111.763 182.78 111.514C183.066 111.257 183.275 110.957 183.407 110.612C183.539 110.26 183.605 109.875 183.605 109.457C183.605 108.643 183.315 108.001 182.736 107.532C182.157 107.055 181.288 106.817 180.129 106.817H176.719V112.306H180.129ZM176.719 99.92V105.299H179.535C180.136 105.299 180.657 105.233 181.097 105.101C181.544 104.969 181.911 104.786 182.197 104.551C182.49 104.316 182.707 104.034 182.846 103.704C182.985 103.367 183.055 103 183.055 102.604C183.055 101.673 182.776 100.994 182.219 100.569C181.662 100.136 180.796 99.92 179.623 99.92H176.719ZM179.623 98.237C180.591 98.237 181.423 98.3323 182.12 98.523C182.824 98.7137 183.4 98.985 183.847 99.337C184.302 99.689 184.635 100.122 184.848 100.635C185.061 101.141 185.167 101.713 185.167 102.351C185.167 102.74 185.105 103.114 184.98 103.473C184.863 103.825 184.683 104.155 184.441 104.463C184.199 104.771 183.891 105.05 183.517 105.299C183.15 105.541 182.718 105.739 182.219 105.893C183.378 106.113 184.247 106.527 184.826 107.136C185.413 107.737 185.706 108.529 185.706 109.512C185.706 110.179 185.581 110.788 185.332 111.338C185.09 111.888 184.731 112.361 184.254 112.757C183.785 113.153 183.205 113.461 182.516 113.681C181.827 113.894 181.042 114 180.162 114H174.596V98.237H179.623ZM190.188 102.857V114H188.23V102.857H190.188ZM190.606 99.359C190.606 99.5497 190.566 99.7293 190.485 99.898C190.412 100.059 190.309 100.206 190.177 100.338C190.053 100.463 189.902 100.562 189.726 100.635C189.558 100.708 189.378 100.745 189.187 100.745C188.997 100.745 188.817 100.708 188.648 100.635C188.487 100.562 188.344 100.463 188.219 100.338C188.095 100.206 187.996 100.059 187.922 99.898C187.849 99.7293 187.812 99.5497 187.812 99.359C187.812 99.1683 187.849 98.9887 187.922 98.82C187.996 98.644 188.095 98.4937 188.219 98.369C188.344 98.237 188.487 98.1343 188.648 98.061C188.817 97.9877 188.997 97.951 189.187 97.951C189.378 97.951 189.558 97.9877 189.726 98.061C189.902 98.1343 190.053 98.237 190.177 98.369C190.309 98.4937 190.412 98.644 190.485 98.82C190.566 98.9887 190.606 99.1683 190.606 99.359ZM200.665 105.508C200.299 105.017 199.903 104.676 199.477 104.485C199.052 104.287 198.575 104.188 198.047 104.188C197.013 104.188 196.218 104.558 195.66 105.299C195.103 106.04 194.824 107.096 194.824 108.467C194.824 109.193 194.887 109.816 195.011 110.337C195.136 110.85 195.319 111.276 195.561 111.613C195.803 111.943 196.1 112.185 196.452 112.339C196.804 112.493 197.204 112.57 197.651 112.57C198.297 112.57 198.858 112.423 199.334 112.13C199.818 111.837 200.262 111.422 200.665 110.887V105.508ZM202.623 97.797V114H201.457C201.179 114 201.003 113.864 200.929 113.593L200.753 112.24C200.277 112.812 199.734 113.274 199.125 113.626C198.517 113.978 197.813 114.154 197.013 114.154C196.375 114.154 195.796 114.033 195.275 113.791C194.755 113.542 194.311 113.179 193.944 112.702C193.578 112.225 193.295 111.631 193.097 110.92C192.899 110.209 192.8 109.391 192.8 108.467C192.8 107.646 192.91 106.883 193.13 106.179C193.35 105.468 193.666 104.852 194.076 104.331C194.487 103.81 194.989 103.403 195.583 103.11C196.185 102.809 196.859 102.659 197.607 102.659C198.289 102.659 198.872 102.776 199.356 103.011C199.848 103.238 200.284 103.557 200.665 103.968V97.797H202.623ZM212.976 105.508C212.609 105.017 212.213 104.676 211.788 104.485C211.363 104.287 210.886 104.188 210.358 104.188C209.324 104.188 208.528 104.558 207.971 105.299C207.414 106.04 207.135 107.096 207.135 108.467C207.135 109.193 207.197 109.816 207.322 110.337C207.447 110.85 207.63 111.276 207.872 111.613C208.114 111.943 208.411 112.185 208.763 112.339C209.115 112.493 209.515 112.57 209.962 112.57C210.607 112.57 211.168 112.423 211.645 112.13C212.129 111.837 212.573 111.422 212.976 110.887V105.508ZM214.934 97.797V114H213.768C213.489 114 213.313 113.864 213.24 113.593L213.064 112.24C212.587 112.812 212.045 113.274 211.436 113.626C210.827 113.978 210.123 114.154 209.324 114.154C208.686 114.154 208.107 114.033 207.586 113.791C207.065 113.542 206.622 113.179 206.255 112.702C205.888 112.225 205.606 111.631 205.408 110.92C205.21 110.209 205.111 109.391 205.111 108.467C205.111 107.646 205.221 106.883 205.441 106.179C205.661 105.468 205.976 104.852 206.387 104.331C206.798 103.81 207.3 103.403 207.894 103.11C208.495 102.809 209.17 102.659 209.918 102.659C210.6 102.659 211.183 102.776 211.667 103.011C212.158 103.238 212.595 103.557 212.976 103.968V97.797H214.934ZM220.095 102.857V114H218.137V102.857H220.095ZM220.513 99.359C220.513 99.5497 220.472 99.7293 220.392 99.898C220.318 100.059 220.216 100.206 220.084 100.338C219.959 100.463 219.809 100.562 219.633 100.635C219.464 100.708 219.284 100.745 219.094 100.745C218.903 100.745 218.723 100.708 218.555 100.635C218.393 100.562 218.25 100.463 218.126 100.338C218.001 100.206 217.902 100.059 217.829 99.898C217.755 99.7293 217.719 99.5497 217.719 99.359C217.719 99.1683 217.755 98.9887 217.829 98.82C217.902 98.644 218.001 98.4937 218.126 98.369C218.25 98.237 218.393 98.1343 218.555 98.061C218.723 97.9877 218.903 97.951 219.094 97.951C219.284 97.951 219.464 97.9877 219.633 98.061C219.809 98.1343 219.959 98.237 220.084 98.369C220.216 98.4937 220.318 98.644 220.392 98.82C220.472 98.9887 220.513 99.1683 220.513 99.359ZM225.16 104.474C225.402 104.203 225.658 103.957 225.93 103.737C226.201 103.517 226.487 103.33 226.788 103.176C227.096 103.015 227.418 102.894 227.756 102.813C228.1 102.725 228.471 102.681 228.867 102.681C229.475 102.681 230.011 102.784 230.473 102.989C230.942 103.187 231.331 103.473 231.639 103.847C231.954 104.214 232.192 104.657 232.354 105.178C232.515 105.699 232.596 106.274 232.596 106.905V114H230.627V106.905C230.627 106.062 230.432 105.409 230.044 104.947C229.662 104.478 229.079 104.243 228.295 104.243C227.715 104.243 227.173 104.382 226.667 104.661C226.168 104.94 225.706 105.317 225.281 105.794V114H223.312V102.857H224.489C224.767 102.857 224.94 102.993 225.006 103.264L225.16 104.474ZM239.462 108.555C239.858 108.555 240.207 108.5 240.507 108.39C240.808 108.28 241.061 108.126 241.266 107.928C241.472 107.73 241.626 107.495 241.728 107.224C241.831 106.945 241.882 106.641 241.882 106.311C241.882 105.629 241.673 105.086 241.255 104.683C240.845 104.28 240.247 104.078 239.462 104.078C238.67 104.078 238.065 104.28 237.647 104.683C237.237 105.086 237.031 105.629 237.031 106.311C237.031 106.641 237.083 106.945 237.185 107.224C237.295 107.495 237.453 107.73 237.658 107.928C237.864 108.126 238.117 108.28 238.417 108.39C238.718 108.5 239.066 108.555 239.462 108.555ZM242.993 114.605C242.993 114.334 242.916 114.114 242.762 113.945C242.608 113.776 242.399 113.644 242.135 113.549C241.879 113.454 241.578 113.388 241.233 113.351C240.889 113.307 240.522 113.274 240.133 113.252C239.752 113.23 239.363 113.208 238.967 113.186C238.571 113.164 238.19 113.127 237.823 113.076C237.413 113.267 237.075 113.509 236.811 113.802C236.555 114.088 236.426 114.425 236.426 114.814C236.426 115.063 236.489 115.294 236.613 115.507C236.745 115.727 236.943 115.914 237.207 116.068C237.471 116.229 237.801 116.354 238.197 116.442C238.601 116.537 239.074 116.585 239.616 116.585C240.144 116.585 240.617 116.537 241.035 116.442C241.453 116.347 241.805 116.211 242.091 116.035C242.385 115.859 242.608 115.65 242.762 115.408C242.916 115.166 242.993 114.898 242.993 114.605ZM244.984 103.297V104.023C244.984 104.265 244.83 104.419 244.522 104.485L243.257 104.65C243.507 105.134 243.631 105.669 243.631 106.256C243.631 106.799 243.525 107.294 243.312 107.741C243.107 108.181 242.821 108.559 242.454 108.874C242.088 109.189 241.648 109.431 241.134 109.6C240.621 109.769 240.064 109.853 239.462 109.853C238.942 109.853 238.45 109.791 237.988 109.666C237.754 109.813 237.574 109.97 237.449 110.139C237.325 110.3 237.262 110.465 237.262 110.634C237.262 110.898 237.369 111.1 237.581 111.239C237.801 111.371 238.087 111.466 238.439 111.525C238.791 111.584 239.191 111.62 239.638 111.635C240.093 111.65 240.555 111.675 241.024 111.712C241.501 111.741 241.963 111.796 242.41 111.877C242.865 111.958 243.268 112.09 243.62 112.273C243.972 112.456 244.255 112.709 244.467 113.032C244.687 113.355 244.797 113.773 244.797 114.286C244.797 114.763 244.676 115.225 244.434 115.672C244.2 116.119 243.859 116.515 243.411 116.86C242.964 117.212 242.414 117.491 241.761 117.696C241.116 117.909 240.386 118.015 239.572 118.015C238.758 118.015 238.047 117.934 237.438 117.773C236.83 117.612 236.324 117.395 235.92 117.124C235.517 116.853 235.213 116.537 235.007 116.178C234.809 115.826 234.71 115.456 234.71 115.067C234.71 114.517 234.883 114.051 235.227 113.67C235.572 113.289 236.045 112.984 236.646 112.757C236.316 112.61 236.052 112.416 235.854 112.174C235.664 111.925 235.568 111.591 235.568 111.173C235.568 111.012 235.598 110.847 235.656 110.678C235.715 110.502 235.803 110.33 235.92 110.161C236.045 109.985 236.195 109.82 236.371 109.666C236.547 109.512 236.753 109.376 236.987 109.259C236.437 108.951 236.008 108.544 235.7 108.038C235.392 107.525 235.238 106.931 235.238 106.256C235.238 105.713 235.341 105.222 235.546 104.782C235.759 104.335 236.052 103.957 236.426 103.649C236.8 103.334 237.244 103.092 237.757 102.923C238.278 102.754 238.846 102.67 239.462 102.67C239.946 102.67 240.397 102.725 240.815 102.835C241.233 102.938 241.615 103.092 241.959 103.297H244.984ZM261.163 100.701C261.097 100.811 261.024 100.895 260.943 100.954C260.87 101.005 260.778 101.031 260.668 101.031C260.543 101.031 260.397 100.969 260.228 100.844C260.059 100.719 259.847 100.584 259.59 100.437C259.341 100.283 259.036 100.144 258.677 100.019C258.325 99.8943 257.896 99.832 257.39 99.832C256.913 99.832 256.492 99.898 256.125 100.03C255.766 100.155 255.461 100.327 255.212 100.547C254.97 100.767 254.787 101.027 254.662 101.328C254.537 101.621 254.475 101.94 254.475 102.285C254.475 102.725 254.581 103.092 254.794 103.385C255.014 103.671 255.3 103.917 255.652 104.122C256.011 104.327 256.415 104.507 256.862 104.661C257.317 104.808 257.779 104.962 258.248 105.123C258.725 105.284 259.187 105.468 259.634 105.673C260.089 105.871 260.492 106.124 260.844 106.432C261.203 106.74 261.489 107.118 261.702 107.565C261.922 108.012 262.032 108.562 262.032 109.215C262.032 109.904 261.915 110.553 261.68 111.162C261.445 111.763 261.101 112.288 260.646 112.735C260.199 113.182 259.645 113.534 258.985 113.791C258.332 114.048 257.588 114.176 256.752 114.176C255.725 114.176 254.794 113.993 253.958 113.626C253.122 113.252 252.407 112.75 251.813 112.119L252.429 111.107C252.488 111.026 252.557 110.96 252.638 110.909C252.726 110.85 252.821 110.821 252.924 110.821C253.019 110.821 253.126 110.861 253.243 110.942C253.368 111.015 253.507 111.111 253.661 111.228C253.815 111.345 253.991 111.474 254.189 111.613C254.387 111.752 254.611 111.881 254.86 111.998C255.117 112.115 255.406 112.214 255.729 112.295C256.052 112.368 256.415 112.405 256.818 112.405C257.324 112.405 257.775 112.335 258.171 112.196C258.567 112.057 258.901 111.862 259.172 111.613C259.451 111.356 259.663 111.052 259.81 110.7C259.957 110.348 260.03 109.956 260.03 109.523C260.03 109.046 259.92 108.658 259.7 108.357C259.487 108.049 259.205 107.792 258.853 107.587C258.501 107.382 258.098 107.209 257.643 107.07C257.188 106.923 256.726 106.777 256.257 106.63C255.788 106.476 255.326 106.3 254.871 106.102C254.416 105.904 254.013 105.647 253.661 105.332C253.309 105.017 253.023 104.624 252.803 104.155C252.59 103.678 252.484 103.092 252.484 102.395C252.484 101.838 252.59 101.299 252.803 100.778C253.023 100.257 253.338 99.7953 253.749 99.392C254.167 98.9887 254.677 98.666 255.278 98.424C255.887 98.182 256.583 98.061 257.368 98.061C258.248 98.061 259.047 98.2003 259.766 98.479C260.492 98.7577 261.13 99.161 261.68 99.689L261.163 100.701ZM273.617 102.857L267.402 117.289C267.336 117.436 267.252 117.553 267.149 117.641C267.054 117.729 266.903 117.773 266.698 117.773H265.246L267.281 113.351L262.683 102.857H264.377C264.546 102.857 264.678 102.901 264.773 102.989C264.876 103.07 264.945 103.161 264.982 103.264L267.963 110.282C268.08 110.59 268.179 110.913 268.26 111.25C268.363 110.905 268.473 110.579 268.59 110.271L271.483 103.264C271.527 103.147 271.6 103.051 271.703 102.978C271.813 102.897 271.934 102.857 272.066 102.857H273.617ZM281.644 104.694C281.556 104.855 281.42 104.936 281.237 104.936C281.127 104.936 281.002 104.896 280.863 104.815C280.723 104.734 280.551 104.646 280.346 104.551C280.148 104.448 279.909 104.357 279.631 104.276C279.352 104.188 279.022 104.144 278.641 104.144C278.311 104.144 278.014 104.188 277.75 104.276C277.486 104.357 277.258 104.47 277.068 104.617C276.884 104.764 276.741 104.936 276.639 105.134C276.543 105.325 276.496 105.534 276.496 105.761C276.496 106.047 276.576 106.285 276.738 106.476C276.906 106.667 277.126 106.832 277.398 106.971C277.669 107.11 277.977 107.235 278.322 107.345C278.666 107.448 279.018 107.561 279.378 107.686C279.744 107.803 280.1 107.935 280.445 108.082C280.789 108.229 281.097 108.412 281.369 108.632C281.64 108.852 281.856 109.123 282.018 109.446C282.186 109.761 282.271 110.143 282.271 110.59C282.271 111.103 282.179 111.58 281.996 112.02C281.812 112.453 281.541 112.83 281.182 113.153C280.822 113.468 280.382 113.718 279.862 113.901C279.341 114.084 278.74 114.176 278.058 114.176C277.28 114.176 276.576 114.051 275.946 113.802C275.315 113.545 274.78 113.219 274.34 112.823L274.802 112.075C274.86 111.98 274.93 111.906 275.011 111.855C275.091 111.804 275.194 111.778 275.319 111.778C275.451 111.778 275.59 111.829 275.737 111.932C275.883 112.035 276.059 112.148 276.265 112.273C276.477 112.398 276.734 112.511 277.035 112.614C277.335 112.717 277.709 112.768 278.157 112.768C278.538 112.768 278.872 112.72 279.158 112.625C279.444 112.522 279.682 112.387 279.873 112.218C280.063 112.049 280.203 111.855 280.291 111.635C280.386 111.415 280.434 111.18 280.434 110.931C280.434 110.623 280.349 110.37 280.181 110.172C280.019 109.967 279.803 109.794 279.532 109.655C279.26 109.508 278.949 109.384 278.597 109.281C278.252 109.171 277.896 109.057 277.53 108.94C277.17 108.823 276.815 108.691 276.463 108.544C276.118 108.39 275.81 108.199 275.539 107.972C275.267 107.745 275.047 107.466 274.879 107.136C274.717 106.799 274.637 106.392 274.637 105.915C274.637 105.49 274.725 105.083 274.901 104.694C275.077 104.298 275.333 103.953 275.671 103.66C276.008 103.359 276.422 103.121 276.914 102.945C277.405 102.769 277.966 102.681 278.597 102.681C279.33 102.681 279.986 102.798 280.566 103.033C281.152 103.26 281.658 103.576 282.084 103.979L281.644 104.694ZM288.092 114.176C287.212 114.176 286.534 113.93 286.057 113.439C285.588 112.948 285.353 112.24 285.353 111.316V104.496H284.011C283.894 104.496 283.795 104.463 283.714 104.397C283.633 104.324 283.593 104.214 283.593 104.067V103.286L285.419 103.055L285.87 99.612C285.892 99.502 285.94 99.414 286.013 99.348C286.094 99.2747 286.196 99.238 286.321 99.238H287.311V103.077H290.534V104.496H287.311V111.184C287.311 111.653 287.425 112.002 287.652 112.229C287.879 112.456 288.173 112.57 288.532 112.57C288.737 112.57 288.913 112.544 289.06 112.493C289.214 112.434 289.346 112.372 289.456 112.306C289.566 112.24 289.658 112.181 289.731 112.13C289.812 112.071 289.881 112.042 289.94 112.042C290.043 112.042 290.134 112.104 290.215 112.229L290.787 113.164C290.45 113.479 290.043 113.729 289.566 113.912C289.089 114.088 288.598 114.176 288.092 114.176ZM299.949 107.213C299.949 106.758 299.883 106.344 299.751 105.97C299.627 105.589 299.44 105.262 299.19 104.991C298.948 104.712 298.651 104.5 298.299 104.353C297.947 104.199 297.548 104.122 297.1 104.122C296.162 104.122 295.417 104.397 294.867 104.947C294.325 105.49 293.987 106.245 293.855 107.213H299.949ZM301.533 112.438C301.291 112.731 301.002 112.988 300.664 113.208C300.327 113.421 299.964 113.597 299.575 113.736C299.194 113.875 298.798 113.978 298.387 114.044C297.977 114.117 297.57 114.154 297.166 114.154C296.396 114.154 295.685 114.026 295.032 113.769C294.387 113.505 293.826 113.124 293.349 112.625C292.88 112.119 292.513 111.496 292.249 110.755C291.985 110.014 291.853 109.164 291.853 108.203C291.853 107.426 291.971 106.7 292.205 106.025C292.447 105.35 292.792 104.767 293.239 104.276C293.687 103.777 294.233 103.389 294.878 103.11C295.524 102.824 296.25 102.681 297.056 102.681C297.724 102.681 298.34 102.795 298.904 103.022C299.476 103.242 299.968 103.565 300.378 103.99C300.796 104.408 301.123 104.929 301.357 105.552C301.592 106.168 301.709 106.872 301.709 107.664C301.709 107.972 301.676 108.177 301.61 108.28C301.544 108.383 301.42 108.434 301.236 108.434H293.789C293.811 109.138 293.907 109.75 294.075 110.271C294.251 110.792 294.493 111.228 294.801 111.58C295.109 111.925 295.476 112.185 295.901 112.361C296.327 112.53 296.803 112.614 297.331 112.614C297.823 112.614 298.244 112.559 298.596 112.449C298.956 112.332 299.264 112.207 299.52 112.075C299.777 111.943 299.99 111.822 300.158 111.712C300.334 111.595 300.485 111.536 300.609 111.536C300.771 111.536 300.895 111.598 300.983 111.723L301.533 112.438ZM304.114 114V102.857H305.291C305.57 102.857 305.742 102.993 305.808 103.264L305.951 104.408C306.362 103.902 306.824 103.488 307.337 103.165C307.851 102.842 308.445 102.681 309.119 102.681C309.867 102.681 310.472 102.89 310.934 103.308C311.404 103.726 311.741 104.291 311.946 105.002C312.108 104.599 312.313 104.25 312.562 103.957C312.819 103.664 313.105 103.422 313.42 103.231C313.736 103.04 314.069 102.901 314.421 102.813C314.781 102.725 315.144 102.681 315.51 102.681C316.097 102.681 316.618 102.776 317.072 102.967C317.534 103.15 317.923 103.422 318.238 103.781C318.561 104.14 318.807 104.584 318.975 105.112C319.144 105.633 319.228 106.23 319.228 106.905V114H317.259V106.905C317.259 106.032 317.069 105.372 316.687 104.925C316.306 104.47 315.756 104.243 315.037 104.243C314.715 104.243 314.407 104.302 314.113 104.419C313.827 104.529 313.574 104.694 313.354 104.914C313.134 105.134 312.958 105.413 312.826 105.75C312.702 106.08 312.639 106.465 312.639 106.905V114H310.67V106.905C310.67 106.01 310.491 105.343 310.131 104.903C309.772 104.463 309.248 104.243 308.558 104.243C308.074 104.243 307.627 104.375 307.216 104.639C306.806 104.896 306.428 105.248 306.083 105.695V114H304.114Z" fill="white"/>
</svg>
