<svg width="406" height="228" viewBox="0 0 406 228" fill="none" xmlns="http://www.w3.org/2000/svg">
<rect width="406" height="228" fill="black"/>
<path d="M57.1265 47.975V53.486H63.6055V55.224H57.1265V62H54.9925V46.237H64.7055V47.975H57.1265ZM68.995 50.857V62H67.037V50.857H68.995ZM69.413 47.359C69.413 47.5497 69.3726 47.7293 69.292 47.898C69.2186 48.0593 69.116 48.206 68.984 48.338C68.8593 48.4627 68.709 48.5617 68.533 48.635C68.3643 48.7083 68.1846 48.745 67.994 48.745C67.8033 48.745 67.6236 48.7083 67.455 48.635C67.2936 48.5617 67.1506 48.4627 67.026 48.338C66.9013 48.206 66.8023 48.0593 66.729 47.898C66.6556 47.7293 66.619 47.5497 66.619 47.359C66.619 47.1683 66.6556 46.9887 66.729 46.82C66.8023 46.644 66.9013 46.4937 67.026 46.369C67.1506 46.237 67.2936 46.1343 67.455 46.061C67.6236 45.9877 67.8033 45.951 67.994 45.951C68.1846 45.951 68.3643 45.9877 68.533 46.061C68.709 46.1343 68.8593 46.237 68.984 46.369C69.116 46.4937 69.2186 46.644 69.292 46.82C69.3726 46.9887 69.413 47.1683 69.413 47.359ZM74.0601 52.474C74.3021 52.2027 74.5588 51.957 74.8301 51.737C75.1015 51.517 75.3875 51.33 75.6881 51.176C75.9961 51.0147 76.3188 50.8937 76.6561 50.813C77.0008 50.725 77.3711 50.681 77.7671 50.681C78.3758 50.681 78.9111 50.7837 79.3731 50.989C79.8425 51.187 80.2311 51.473 80.5391 51.847C80.8545 52.2137 81.0928 52.6573 81.2541 53.178C81.4155 53.6987 81.4961 54.2743 81.4961 54.905V62H79.5271V54.905C79.5271 54.0617 79.3328 53.409 78.9441 52.947C78.5628 52.4777 77.9798 52.243 77.1951 52.243C76.6158 52.243 76.0731 52.3823 75.5671 52.661C75.0685 52.9397 74.6065 53.3173 74.1811 53.794V62H72.2121V50.857H73.3891C73.6678 50.857 73.8401 50.9927 73.9061 51.264L74.0601 52.474ZM90.5187 56.984C89.6167 57.0133 88.8467 57.0867 88.2087 57.204C87.578 57.314 87.061 57.4607 86.6577 57.644C86.2617 57.8273 85.972 58.0437 85.7887 58.293C85.6127 58.5423 85.5247 58.821 85.5247 59.129C85.5247 59.4223 85.5724 59.6753 85.6677 59.888C85.763 60.1007 85.8914 60.2767 86.0527 60.416C86.2214 60.548 86.4157 60.647 86.6357 60.713C86.863 60.7717 87.105 60.801 87.3617 60.801C87.7064 60.801 88.0217 60.768 88.3077 60.702C88.5937 60.6287 88.8614 60.526 89.1107 60.394C89.3674 60.262 89.6094 60.1043 89.8367 59.921C90.0714 59.7377 90.2987 59.5287 90.5187 59.294V56.984ZM84.1937 52.43C84.8097 51.836 85.4734 51.3923 86.1847 51.099C86.896 50.8057 87.6844 50.659 88.5497 50.659C89.173 50.659 89.7267 50.7617 90.2107 50.967C90.6947 51.1723 91.1017 51.4583 91.4317 51.825C91.7617 52.1917 92.011 52.6353 92.1797 53.156C92.3484 53.6767 92.4327 54.2487 92.4327 54.872V62H91.5637C91.373 62 91.2264 61.9707 91.1237 61.912C91.021 61.846 90.9404 61.7213 90.8817 61.538L90.6617 60.482C90.3684 60.7533 90.0824 60.9953 89.8037 61.208C89.525 61.4133 89.2317 61.5893 88.9237 61.736C88.6157 61.8753 88.2857 61.9817 87.9337 62.055C87.589 62.1357 87.204 62.176 86.7787 62.176C86.346 62.176 85.939 62.1173 85.5577 62C85.1764 61.8753 84.8427 61.692 84.5567 61.45C84.278 61.208 84.0544 60.9037 83.8857 60.537C83.7244 60.163 83.6437 59.723 83.6437 59.217C83.6437 58.777 83.7647 58.3553 84.0067 57.952C84.2487 57.5413 84.641 57.1783 85.1837 56.863C85.7264 56.5477 86.434 56.291 87.3067 56.093C88.1794 55.8877 89.25 55.7703 90.5187 55.741V54.872C90.5187 54.0067 90.3317 53.354 89.9577 52.914C89.5837 52.4667 89.0374 52.243 88.3187 52.243C87.8347 52.243 87.4277 52.3053 87.0977 52.43C86.775 52.5473 86.4927 52.683 86.2507 52.837C86.016 52.9837 85.8107 53.1193 85.6347 53.244C85.466 53.3613 85.2974 53.42 85.1287 53.42C84.9967 53.42 84.883 53.387 84.7877 53.321C84.6924 53.2477 84.6117 53.1597 84.5457 53.057L84.1937 52.43ZM97.4393 45.797V62H95.4813V45.797H97.4393ZM111.358 54.41C111.967 54.41 112.502 54.3293 112.964 54.168C113.434 54.0067 113.826 53.783 114.141 53.497C114.464 53.2037 114.706 52.8553 114.867 52.452C115.029 52.0487 115.109 51.605 115.109 51.121C115.109 50.1163 114.798 49.3317 114.174 48.767C113.558 48.2023 112.62 47.92 111.358 47.92H108.828V54.41H111.358ZM111.358 46.237C112.356 46.237 113.221 46.3543 113.954 46.589C114.695 46.8163 115.307 47.1427 115.791 47.568C116.275 47.9933 116.635 48.5067 116.869 49.108C117.111 49.7093 117.232 50.3803 117.232 51.121C117.232 51.8543 117.104 52.5253 116.847 53.134C116.591 53.7427 116.213 54.267 115.714 54.707C115.223 55.147 114.611 55.4917 113.877 55.741C113.151 55.983 112.312 56.104 111.358 56.104H108.828V62H106.705V46.237H111.358ZM121.1 53.09C121.452 52.3273 121.885 51.7333 122.398 51.308C122.912 50.8753 123.539 50.659 124.279 50.659C124.514 50.659 124.738 50.6847 124.95 50.736C125.17 50.7873 125.365 50.868 125.533 50.978L125.39 52.441C125.346 52.6243 125.236 52.716 125.06 52.716C124.958 52.716 124.807 52.694 124.609 52.65C124.411 52.606 124.188 52.584 123.938 52.584C123.586 52.584 123.271 52.6353 122.992 52.738C122.721 52.8407 122.475 52.9947 122.255 53.2C122.043 53.398 121.848 53.6473 121.672 53.948C121.504 54.2413 121.35 54.5787 121.21 54.96V62H119.241V50.857H120.363C120.576 50.857 120.723 50.8973 120.803 50.978C120.884 51.0587 120.939 51.198 120.968 51.396L121.1 53.09ZM134.262 55.213C134.262 54.7583 134.196 54.344 134.064 53.97C133.939 53.5887 133.752 53.2623 133.503 52.991C133.261 52.7123 132.964 52.4997 132.612 52.353C132.26 52.199 131.86 52.122 131.413 52.122C130.474 52.122 129.73 52.397 129.18 52.947C128.637 53.4897 128.3 54.245 128.168 55.213H134.262ZM135.846 60.438C135.604 60.7313 135.314 60.988 134.977 61.208C134.64 61.4207 134.277 61.5967 133.888 61.736C133.507 61.8753 133.111 61.978 132.7 62.044C132.289 62.1173 131.882 62.154 131.479 62.154C130.709 62.154 129.998 62.0257 129.345 61.769C128.7 61.505 128.139 61.1237 127.662 60.625C127.193 60.119 126.826 59.4957 126.562 58.755C126.298 58.0143 126.166 57.1637 126.166 56.203C126.166 55.4257 126.283 54.6997 126.518 54.025C126.76 53.3503 127.105 52.7673 127.552 52.276C127.999 51.7773 128.546 51.3887 129.191 51.11C129.836 50.824 130.562 50.681 131.369 50.681C132.036 50.681 132.652 50.7947 133.217 51.022C133.789 51.242 134.28 51.5647 134.691 51.99C135.109 52.408 135.435 52.9287 135.67 53.552C135.905 54.168 136.022 54.872 136.022 55.664C136.022 55.972 135.989 56.1773 135.923 56.28C135.857 56.3827 135.732 56.434 135.549 56.434H128.102C128.124 57.138 128.219 57.7503 128.388 58.271C128.564 58.7917 128.806 59.228 129.114 59.58C129.422 59.9247 129.789 60.185 130.214 60.361C130.639 60.5297 131.116 60.614 131.644 60.614C132.135 60.614 132.557 60.559 132.909 60.449C133.268 60.3317 133.576 60.207 133.833 60.075C134.09 59.943 134.302 59.822 134.471 59.712C134.647 59.5947 134.797 59.536 134.922 59.536C135.083 59.536 135.208 59.5983 135.296 59.723L135.846 60.438ZM144.917 52.694C144.829 52.8553 144.693 52.936 144.51 52.936C144.4 52.936 144.275 52.8957 144.136 52.815C143.997 52.7343 143.824 52.6463 143.619 52.551C143.421 52.4483 143.183 52.3567 142.904 52.276C142.625 52.188 142.295 52.144 141.914 52.144C141.584 52.144 141.287 52.188 141.023 52.276C140.759 52.3567 140.532 52.4703 140.341 52.617C140.158 52.7637 140.015 52.936 139.912 53.134C139.817 53.3247 139.769 53.5337 139.769 53.761C139.769 54.047 139.85 54.2853 140.011 54.476C140.18 54.6667 140.4 54.8317 140.671 54.971C140.942 55.1103 141.25 55.235 141.595 55.345C141.94 55.4477 142.292 55.5613 142.651 55.686C143.018 55.8033 143.373 55.9353 143.718 56.082C144.063 56.2287 144.371 56.412 144.642 56.632C144.913 56.852 145.13 57.1233 145.291 57.446C145.46 57.7613 145.544 58.1427 145.544 58.59C145.544 59.1033 145.452 59.58 145.269 60.02C145.086 60.4527 144.814 60.8303 144.455 61.153C144.096 61.4683 143.656 61.7177 143.135 61.901C142.614 62.0843 142.013 62.176 141.331 62.176C140.554 62.176 139.85 62.0513 139.219 61.802C138.588 61.5453 138.053 61.219 137.613 60.823L138.075 60.075C138.134 59.9797 138.203 59.9063 138.284 59.855C138.365 59.8037 138.467 59.778 138.592 59.778C138.724 59.778 138.863 59.8293 139.01 59.932C139.157 60.0347 139.333 60.1483 139.538 60.273C139.751 60.3977 140.007 60.5113 140.308 60.614C140.609 60.7167 140.983 60.768 141.43 60.768C141.811 60.768 142.145 60.7203 142.431 60.625C142.717 60.5223 142.955 60.3867 143.146 60.218C143.337 60.0493 143.476 59.855 143.564 59.635C143.659 59.415 143.707 59.1803 143.707 58.931C143.707 58.623 143.623 58.37 143.454 58.172C143.293 57.9667 143.076 57.7943 142.805 57.655C142.534 57.5083 142.222 57.3837 141.87 57.281C141.525 57.171 141.17 57.0573 140.803 56.94C140.444 56.8227 140.088 56.6907 139.736 56.544C139.391 56.39 139.083 56.1993 138.812 55.972C138.541 55.7447 138.321 55.466 138.152 55.136C137.991 54.7987 137.91 54.3917 137.91 53.915C137.91 53.4897 137.998 53.0827 138.174 52.694C138.35 52.298 138.607 51.9533 138.944 51.66C139.281 51.3593 139.696 51.121 140.187 50.945C140.678 50.769 141.239 50.681 141.87 50.681C142.603 50.681 143.26 50.7983 143.839 51.033C144.426 51.2603 144.932 51.5757 145.357 51.979L144.917 52.694ZM155.403 55.213C155.403 54.7583 155.337 54.344 155.205 53.97C155.08 53.5887 154.893 53.2623 154.644 52.991C154.402 52.7123 154.105 52.4997 153.753 52.353C153.401 52.199 153.001 52.122 152.554 52.122C151.615 52.122 150.871 52.397 150.321 52.947C149.778 53.4897 149.441 54.245 149.309 55.213H155.403ZM156.987 60.438C156.745 60.7313 156.455 60.988 156.118 61.208C155.78 61.4207 155.417 61.5967 155.029 61.736C154.647 61.8753 154.251 61.978 153.841 62.044C153.43 62.1173 153.023 62.154 152.62 62.154C151.85 62.154 151.138 62.0257 150.486 61.769C149.84 61.505 149.279 61.1237 148.803 60.625C148.333 60.119 147.967 59.4957 147.703 58.755C147.439 58.0143 147.307 57.1637 147.307 56.203C147.307 55.4257 147.424 54.6997 147.659 54.025C147.901 53.3503 148.245 52.7673 148.693 52.276C149.14 51.7773 149.686 51.3887 150.332 51.11C150.977 50.824 151.703 50.681 152.51 50.681C153.177 50.681 153.793 50.7947 154.358 51.022C154.93 51.242 155.421 51.5647 155.832 51.99C156.25 52.408 156.576 52.9287 156.811 53.552C157.045 54.168 157.163 54.872 157.163 55.664C157.163 55.972 157.13 56.1773 157.064 56.28C156.998 56.3827 156.873 56.434 156.69 56.434H149.243C149.265 57.138 149.36 57.7503 149.529 58.271C149.705 58.7917 149.947 59.228 150.255 59.58C150.563 59.9247 150.929 60.185 151.355 60.361C151.78 60.5297 152.257 60.614 152.785 60.614C153.276 60.614 153.698 60.559 154.05 60.449C154.409 60.3317 154.717 60.207 154.974 60.075C155.23 59.943 155.443 59.822 155.612 59.712C155.788 59.5947 155.938 59.536 156.063 59.536C156.224 59.536 156.349 59.5983 156.437 59.723L156.987 60.438ZM161.416 52.474C161.658 52.2027 161.914 51.957 162.186 51.737C162.457 51.517 162.743 51.33 163.044 51.176C163.352 51.0147 163.674 50.8937 164.012 50.813C164.356 50.725 164.727 50.681 165.123 50.681C165.731 50.681 166.267 50.7837 166.729 50.989C167.198 51.187 167.587 51.473 167.895 51.847C168.21 52.2137 168.448 52.6573 168.61 53.178C168.771 53.6987 168.852 54.2743 168.852 54.905V62H166.883V54.905C166.883 54.0617 166.688 53.409 166.3 52.947C165.918 52.4777 165.335 52.243 164.551 52.243C163.971 52.243 163.429 52.3823 162.923 52.661C162.424 52.9397 161.962 53.3173 161.537 53.794V62H159.568V50.857H160.745C161.023 50.857 161.196 50.9927 161.262 51.264L161.416 52.474ZM175.106 62.176C174.226 62.176 173.547 61.9303 173.071 61.439C172.601 60.9477 172.367 60.24 172.367 59.316V52.496H171.025C170.907 52.496 170.808 52.463 170.728 52.397C170.647 52.3237 170.607 52.2137 170.607 52.067V51.286L172.433 51.055L172.884 47.612C172.906 47.502 172.953 47.414 173.027 47.348C173.107 47.2747 173.21 47.238 173.335 47.238H174.325V51.077H177.548V52.496H174.325V59.184C174.325 59.6533 174.438 60.0017 174.666 60.229C174.893 60.4563 175.186 60.57 175.546 60.57C175.751 60.57 175.927 60.5443 176.074 60.493C176.228 60.4343 176.36 60.372 176.47 60.306C176.58 60.24 176.671 60.1813 176.745 60.13C176.825 60.0713 176.895 60.042 176.954 60.042C177.056 60.042 177.148 60.1043 177.229 60.229L177.801 61.164C177.463 61.4793 177.056 61.7287 176.58 61.912C176.103 62.088 175.612 62.176 175.106 62.176ZM185.609 56.984C184.707 57.0133 183.937 57.0867 183.299 57.204C182.668 57.314 182.151 57.4607 181.748 57.644C181.352 57.8273 181.062 58.0437 180.879 58.293C180.703 58.5423 180.615 58.821 180.615 59.129C180.615 59.4223 180.662 59.6753 180.758 59.888C180.853 60.1007 180.981 60.2767 181.143 60.416C181.311 60.548 181.506 60.647 181.726 60.713C181.953 60.7717 182.195 60.801 182.452 60.801C182.796 60.801 183.112 60.768 183.398 60.702C183.684 60.6287 183.951 60.526 184.201 60.394C184.457 60.262 184.699 60.1043 184.927 59.921C185.161 59.7377 185.389 59.5287 185.609 59.294V56.984ZM179.284 52.43C179.9 51.836 180.563 51.3923 181.275 51.099C181.986 50.8057 182.774 50.659 183.64 50.659C184.263 50.659 184.817 50.7617 185.301 50.967C185.785 51.1723 186.192 51.4583 186.522 51.825C186.852 52.1917 187.101 52.6353 187.27 53.156C187.438 53.6767 187.523 54.2487 187.523 54.872V62H186.654C186.463 62 186.316 61.9707 186.214 61.912C186.111 61.846 186.03 61.7213 185.972 61.538L185.752 60.482C185.458 60.7533 185.172 60.9953 184.894 61.208C184.615 61.4133 184.322 61.5893 184.014 61.736C183.706 61.8753 183.376 61.9817 183.024 62.055C182.679 62.1357 182.294 62.176 181.869 62.176C181.436 62.176 181.029 62.1173 180.648 62C180.266 61.8753 179.933 61.692 179.647 61.45C179.368 61.208 179.144 60.9037 178.976 60.537C178.814 60.163 178.734 59.723 178.734 59.217C178.734 58.777 178.855 58.3553 179.097 57.952C179.339 57.5413 179.731 57.1783 180.274 56.863C180.816 56.5477 181.524 56.291 182.397 56.093C183.269 55.8877 184.34 55.7703 185.609 55.741V54.872C185.609 54.0067 185.422 53.354 185.048 52.914C184.674 52.4667 184.127 52.243 183.409 52.243C182.925 52.243 182.518 52.3053 182.188 52.43C181.865 52.5473 181.583 52.683 181.341 52.837C181.106 52.9837 180.901 53.1193 180.725 53.244C180.556 53.3613 180.387 53.42 180.219 53.42C180.087 53.42 179.973 53.387 179.878 53.321C179.782 53.2477 179.702 53.1597 179.636 53.057L179.284 52.43ZM200.695 62H198.737V52.496H192.995V59.184C192.995 59.6533 193.108 60.0017 193.336 60.229C193.563 60.4563 193.856 60.57 194.216 60.57C194.421 60.57 194.597 60.5443 194.744 60.493C194.898 60.4343 195.03 60.372 195.14 60.306C195.25 60.24 195.341 60.1813 195.415 60.13C195.495 60.0713 195.565 60.042 195.624 60.042C195.726 60.042 195.818 60.1043 195.899 60.229L196.471 61.164C196.133 61.4793 195.726 61.7287 195.25 61.912C194.773 62.088 194.282 62.176 193.776 62.176C192.896 62.176 192.217 61.9303 191.741 61.439C191.271 60.9477 191.037 60.24 191.037 59.316V52.496H189.695C189.577 52.496 189.478 52.463 189.398 52.397C189.317 52.3237 189.277 52.2137 189.277 52.067V51.286L191.103 51.044L191.554 47.612C191.576 47.502 191.623 47.414 191.697 47.348C191.777 47.2747 191.88 47.238 192.005 47.238H192.995V51.077H200.695V62ZM201.179 47.282C201.179 47.4727 201.138 47.6523 201.058 47.821C200.984 47.9823 200.882 48.1253 200.75 48.25C200.625 48.3747 200.478 48.4737 200.31 48.547C200.141 48.6203 199.961 48.657 199.771 48.657C199.58 48.657 199.4 48.6203 199.232 48.547C199.07 48.4737 198.927 48.3747 198.803 48.25C198.678 48.1253 198.579 47.9823 198.506 47.821C198.432 47.6523 198.396 47.4727 198.396 47.282C198.396 47.0913 198.432 46.9117 198.506 46.743C198.579 46.567 198.678 46.4167 198.803 46.292C198.927 46.16 199.07 46.0573 199.232 45.984C199.4 45.9107 199.58 45.874 199.771 45.874C199.961 45.874 200.141 45.9107 200.31 45.984C200.478 46.0573 200.625 46.16 200.75 46.292C200.882 46.4167 200.984 46.567 201.058 46.743C201.138 46.9117 201.179 47.0913 201.179 47.282ZM208.608 50.681C209.422 50.681 210.156 50.8167 210.808 51.088C211.461 51.3593 212.018 51.7443 212.48 52.243C212.942 52.7417 213.294 53.3467 213.536 54.058C213.786 54.762 213.91 55.5503 213.91 56.423C213.91 57.303 213.786 58.095 213.536 58.799C213.294 59.503 212.942 60.1043 212.48 60.603C212.018 61.1017 211.461 61.4867 210.808 61.758C210.156 62.022 209.422 62.154 208.608 62.154C207.787 62.154 207.046 62.022 206.386 61.758C205.734 61.4867 205.176 61.1017 204.714 60.603C204.252 60.1043 203.897 59.503 203.647 58.799C203.405 58.095 203.284 57.303 203.284 56.423C203.284 55.5503 203.405 54.762 203.647 54.058C203.897 53.3467 204.252 52.7417 204.714 52.243C205.176 51.7443 205.734 51.3593 206.386 51.088C207.046 50.8167 207.787 50.681 208.608 50.681ZM208.608 60.625C209.708 60.625 210.53 60.2583 211.072 59.525C211.615 58.7843 211.886 57.754 211.886 56.434C211.886 55.1067 211.615 54.0727 211.072 53.332C210.53 52.5913 209.708 52.221 208.608 52.221C208.051 52.221 207.563 52.3163 207.145 52.507C206.735 52.6977 206.39 52.9727 206.111 53.332C205.84 53.6913 205.635 54.135 205.495 54.663C205.363 55.1837 205.297 55.774 205.297 56.434C205.297 57.754 205.569 58.7843 206.111 59.525C206.661 60.2583 207.494 60.625 208.608 60.625ZM218.242 52.474C218.484 52.2027 218.74 51.957 219.012 51.737C219.283 51.517 219.569 51.33 219.87 51.176C220.178 51.0147 220.5 50.8937 220.838 50.813C221.182 50.725 221.553 50.681 221.949 50.681C222.557 50.681 223.093 50.7837 223.555 50.989C224.024 51.187 224.413 51.473 224.721 51.847C225.036 52.2137 225.274 52.6573 225.436 53.178C225.597 53.6987 225.678 54.2743 225.678 54.905V62H223.709V54.905C223.709 54.0617 223.514 53.409 223.126 52.947C222.744 52.4777 222.161 52.243 221.377 52.243C220.797 52.243 220.255 52.3823 219.749 52.661C219.25 52.9397 218.788 53.3173 218.363 53.794V62H216.394V50.857H217.571C217.849 50.857 218.022 50.9927 218.088 51.264L218.242 52.474ZM234.114 54.575H239.548V56.236H234.114V54.575ZM261.349 54.421V60.471C260.557 61.043 259.71 61.472 258.808 61.758C257.914 62.0367 256.931 62.176 255.86 62.176C254.592 62.176 253.448 61.9817 252.428 61.593C251.409 61.197 250.536 60.647 249.81 59.943C249.092 59.2317 248.538 58.381 248.149 57.391C247.761 56.401 247.566 55.312 247.566 54.124C247.566 52.9213 247.753 51.825 248.127 50.835C248.509 49.845 249.048 48.998 249.744 48.294C250.441 47.5827 251.288 47.0327 252.285 46.644C253.283 46.2553 254.397 46.061 255.629 46.061C256.253 46.061 256.832 46.1087 257.367 46.204C257.903 46.292 258.398 46.424 258.852 46.6C259.307 46.7687 259.729 46.9777 260.117 47.227C260.506 47.469 260.869 47.744 261.206 48.052L260.601 49.02C260.506 49.1667 260.381 49.262 260.227 49.306C260.081 49.3427 259.916 49.306 259.732 49.196C259.556 49.0933 259.355 48.9687 259.127 48.822C258.9 48.6753 258.621 48.536 258.291 48.404C257.969 48.2647 257.584 48.1473 257.136 48.052C256.696 47.9567 256.172 47.909 255.563 47.909C254.676 47.909 253.873 48.0557 253.154 48.349C252.436 48.635 251.823 49.0493 251.317 49.592C250.811 50.1273 250.423 50.78 250.151 51.55C249.88 52.3127 249.744 53.1707 249.744 54.124C249.744 55.114 249.884 56.0013 250.162 56.786C250.448 57.5633 250.852 58.227 251.372 58.777C251.9 59.3197 252.538 59.734 253.286 60.02C254.034 60.306 254.874 60.449 255.805 60.449C256.539 60.449 257.188 60.3683 257.752 60.207C258.324 60.0383 258.882 59.8073 259.424 59.514V56.049H256.971C256.832 56.049 256.718 56.0087 256.63 55.928C256.55 55.8473 256.509 55.7483 256.509 55.631V54.421H261.349ZM265.841 53.09C266.193 52.3273 266.625 51.7333 267.139 51.308C267.652 50.8753 268.279 50.659 269.02 50.659C269.254 50.659 269.478 50.6847 269.691 50.736C269.911 50.7873 270.105 50.868 270.274 50.978L270.131 52.441C270.087 52.6243 269.977 52.716 269.801 52.716C269.698 52.716 269.548 52.694 269.35 52.65C269.152 52.606 268.928 52.584 268.679 52.584C268.327 52.584 268.011 52.6353 267.733 52.738C267.461 52.8407 267.216 52.9947 266.996 53.2C266.783 53.398 266.589 53.6473 266.413 53.948C266.244 54.2413 266.09 54.5787 265.951 54.96V62H263.982V50.857H265.104C265.316 50.857 265.463 50.8973 265.544 50.978C265.624 51.0587 265.679 51.198 265.709 51.396L265.841 53.09ZM276.241 50.681C277.055 50.681 277.788 50.8167 278.441 51.088C279.094 51.3593 279.651 51.7443 280.113 52.243C280.575 52.7417 280.927 53.3467 281.169 54.058C281.418 54.762 281.543 55.5503 281.543 56.423C281.543 57.303 281.418 58.095 281.169 58.799C280.927 59.503 280.575 60.1043 280.113 60.603C279.651 61.1017 279.094 61.4867 278.441 61.758C277.788 62.022 277.055 62.154 276.241 62.154C275.42 62.154 274.679 62.022 274.019 61.758C273.366 61.4867 272.809 61.1017 272.347 60.603C271.885 60.1043 271.529 59.503 271.28 58.799C271.038 58.095 270.917 57.303 270.917 56.423C270.917 55.5503 271.038 54.762 271.28 54.058C271.529 53.3467 271.885 52.7417 272.347 52.243C272.809 51.7443 273.366 51.3593 274.019 51.088C274.679 50.8167 275.42 50.681 276.241 50.681ZM276.241 60.625C277.341 60.625 278.162 60.2583 278.705 59.525C279.248 58.7843 279.519 57.754 279.519 56.434C279.519 55.1067 279.248 54.0727 278.705 53.332C278.162 52.5913 277.341 52.221 276.241 52.221C275.684 52.221 275.196 52.3163 274.778 52.507C274.367 52.6977 274.023 52.9727 273.744 53.332C273.473 53.6913 273.267 54.135 273.128 54.663C272.996 55.1837 272.93 55.774 272.93 56.434C272.93 57.754 273.201 58.7843 273.744 59.525C274.294 60.2583 275.126 60.625 276.241 60.625ZM293.19 50.857V62H292.024C291.745 62 291.569 61.8643 291.496 61.593L291.342 60.394C290.858 60.9293 290.315 61.362 289.714 61.692C289.112 62.0147 288.423 62.176 287.646 62.176C287.037 62.176 286.498 62.077 286.029 61.879C285.567 61.6737 285.178 61.3877 284.863 61.021C284.547 60.6543 284.309 60.2107 284.148 59.69C283.994 59.1693 283.917 58.5937 283.917 57.963V50.857H285.875V57.963C285.875 58.8063 286.065 59.459 286.447 59.921C286.835 60.383 287.426 60.614 288.218 60.614C288.797 60.614 289.336 60.4783 289.835 60.207C290.341 59.9283 290.806 59.547 291.232 59.063V50.857H293.19ZM298.263 59.316C298.622 59.8 299.015 60.141 299.44 60.339C299.865 60.537 300.342 60.636 300.87 60.636C301.911 60.636 302.711 60.2657 303.268 59.525C303.825 58.7843 304.104 57.7283 304.104 56.357C304.104 55.631 304.038 55.0077 303.906 54.487C303.781 53.9663 303.598 53.541 303.356 53.211C303.114 52.8737 302.817 52.628 302.465 52.474C302.113 52.32 301.713 52.243 301.266 52.243C300.628 52.243 300.067 52.3897 299.583 52.683C299.106 52.9763 298.666 53.3907 298.263 53.926V59.316ZM298.164 52.584C298.633 52.0047 299.176 51.539 299.792 51.187C300.408 50.835 301.112 50.659 301.904 50.659C302.549 50.659 303.132 50.7837 303.653 51.033C304.174 51.275 304.617 51.638 304.984 52.122C305.351 52.5987 305.633 53.1927 305.831 53.904C306.029 54.6153 306.128 55.433 306.128 56.357C306.128 57.1783 306.018 57.9447 305.798 58.656C305.578 59.36 305.259 59.9723 304.841 60.493C304.43 61.0063 303.924 61.4133 303.323 61.714C302.729 62.0073 302.058 62.154 301.31 62.154C300.628 62.154 300.041 62.0403 299.55 61.813C299.066 61.5783 298.637 61.2557 298.263 60.845V65.773H296.294V50.857H297.471C297.75 50.857 297.922 50.9927 297.988 51.264L298.164 52.584ZM323.902 60.504V62H315.454V60.504H318.831V49.757C318.831 49.4343 318.842 49.108 318.864 48.778L316.059 51.187C315.964 51.2677 315.868 51.319 315.773 51.341C315.678 51.3557 315.59 51.3557 315.509 51.341C315.428 51.3263 315.351 51.297 315.278 51.253C315.212 51.209 315.161 51.1613 315.124 51.11L314.508 50.263L319.205 46.204H320.8V60.504H323.902ZM333.496 56.313V49.812C333.496 49.6213 333.503 49.4123 333.518 49.185C333.532 48.9577 333.554 48.7267 333.584 48.492L327.842 56.313H333.496ZM337.599 56.313V57.435C337.599 57.5523 337.562 57.6513 337.489 57.732C337.423 57.8127 337.316 57.853 337.17 57.853H335.212V62H333.496V57.853H326.5C326.353 57.853 326.225 57.8127 326.115 57.732C326.012 57.644 325.946 57.5377 325.917 57.413L325.719 56.412L333.386 46.237H335.212V56.313H337.599ZM345.231 54.575H350.665V56.236H345.231V54.575ZM53.0214 86.207V88H44.0784V72.237H46.2014V86.207H53.0214ZM61.5803 81.213C61.5803 80.7583 61.5143 80.344 61.3823 79.97C61.2576 79.5887 61.0706 79.2623 60.8213 78.991C60.5793 78.7123 60.2823 78.4997 59.9303 78.353C59.5783 78.199 59.1786 78.122 58.7313 78.122C57.7926 78.122 57.0483 78.397 56.4983 78.947C55.9556 79.4897 55.6183 80.245 55.4863 81.213H61.5803ZM63.1643 86.438C62.9223 86.7313 62.6326 86.988 62.2953 87.208C61.958 87.4207 61.595 87.5967 61.2063 87.736C60.825 87.8753 60.429 87.978 60.0183 88.044C59.6076 88.1173 59.2006 88.154 58.7973 88.154C58.0273 88.154 57.316 88.0257 56.6633 87.769C56.018 87.505 55.457 87.1237 54.9803 86.625C54.511 86.119 54.1443 85.4957 53.8803 84.755C53.6163 84.0143 53.4843 83.1637 53.4843 82.203C53.4843 81.4257 53.6016 80.6997 53.8363 80.025C54.0783 79.3503 54.423 78.7673 54.8703 78.276C55.3176 77.7773 55.864 77.3887 56.5093 77.11C57.1546 76.824 57.8806 76.681 58.6873 76.681C59.3546 76.681 59.9706 76.7947 60.5353 77.022C61.1073 77.242 61.5986 77.5647 62.0093 77.99C62.4273 78.408 62.7536 78.9287 62.9883 79.552C63.223 80.168 63.3403 80.872 63.3403 81.664C63.3403 81.972 63.3073 82.1773 63.2413 82.28C63.1753 82.3827 63.0506 82.434 62.8673 82.434H55.4203C55.4423 83.138 55.5376 83.7503 55.7063 84.271C55.8823 84.7917 56.1243 85.228 56.4323 85.58C56.7403 85.9247 57.107 86.185 57.5323 86.361C57.9576 86.5297 58.4343 86.614 58.9623 86.614C59.4536 86.614 59.8753 86.559 60.2273 86.449C60.5866 86.3317 60.8946 86.207 61.1513 86.075C61.408 85.943 61.6206 85.822 61.7893 85.712C61.9653 85.5947 62.1156 85.536 62.2403 85.536C62.4016 85.536 62.5263 85.5983 62.6143 85.723L63.1643 86.438ZM71.7843 82.984C70.8823 83.0133 70.1123 83.0867 69.4743 83.204C68.8437 83.314 68.3267 83.4607 67.9233 83.644C67.5273 83.8273 67.2377 84.0437 67.0543 84.293C66.8783 84.5423 66.7903 84.821 66.7903 85.129C66.7903 85.4223 66.838 85.6753 66.9333 85.888C67.0287 86.1007 67.157 86.2767 67.3183 86.416C67.487 86.548 67.6813 86.647 67.9013 86.713C68.1287 86.7717 68.3707 86.801 68.6273 86.801C68.972 86.801 69.2873 86.768 69.5733 86.702C69.8593 86.6287 70.127 86.526 70.3763 86.394C70.633 86.262 70.875 86.1043 71.1023 85.921C71.337 85.7377 71.5643 85.5287 71.7843 85.294V82.984ZM65.4593 78.43C66.0753 77.836 66.739 77.3923 67.4503 77.099C68.1617 76.8057 68.95 76.659 69.8153 76.659C70.4387 76.659 70.9923 76.7617 71.4763 76.967C71.9603 77.1723 72.3673 77.4583 72.6973 77.825C73.0273 78.1917 73.2767 78.6353 73.4453 79.156C73.614 79.6767 73.6983 80.2487 73.6983 80.872V88H72.8293C72.6387 88 72.492 87.9707 72.3893 87.912C72.2867 87.846 72.206 87.7213 72.1473 87.538L71.9273 86.482C71.634 86.7533 71.348 86.9953 71.0693 87.208C70.7907 87.4133 70.4973 87.5893 70.1893 87.736C69.8813 87.8753 69.5513 87.9817 69.1993 88.055C68.8547 88.1357 68.4697 88.176 68.0443 88.176C67.6117 88.176 67.2047 88.1173 66.8233 88C66.442 87.8753 66.1083 87.692 65.8223 87.45C65.5437 87.208 65.32 86.9037 65.1513 86.537C64.99 86.163 64.9093 85.723 64.9093 85.217C64.9093 84.777 65.0303 84.3553 65.2723 83.952C65.5143 83.5413 65.9067 83.1783 66.4493 82.863C66.992 82.5477 67.6997 82.291 68.5723 82.093C69.445 81.8877 70.5157 81.7703 71.7843 81.741V80.872C71.7843 80.0067 71.5973 79.354 71.2233 78.914C70.8493 78.4667 70.303 78.243 69.5843 78.243C69.1003 78.243 68.6933 78.3053 68.3633 78.43C68.0407 78.5473 67.7583 78.683 67.5163 78.837C67.2817 78.9837 67.0763 79.1193 66.9003 79.244C66.7317 79.3613 66.563 79.42 66.3943 79.42C66.2623 79.42 66.1487 79.387 66.0533 79.321C65.958 79.2477 65.8773 79.1597 65.8113 79.057L65.4593 78.43ZM83.1709 78.694C83.0829 78.8553 82.9472 78.936 82.7639 78.936C82.6539 78.936 82.5292 78.8957 82.3899 78.815C82.2505 78.7343 82.0782 78.6463 81.8729 78.551C81.6749 78.4483 81.4365 78.3567 81.1579 78.276C80.8792 78.188 80.5492 78.144 80.1679 78.144C79.8379 78.144 79.5409 78.188 79.2769 78.276C79.0129 78.3567 78.7855 78.4703 78.5949 78.617C78.4115 78.7637 78.2685 78.936 78.1659 79.134C78.0705 79.3247 78.0229 79.5337 78.0229 79.761C78.0229 80.047 78.1035 80.2853 78.2649 80.476C78.4335 80.6667 78.6535 80.8317 78.9249 80.971C79.1962 81.1103 79.5042 81.235 79.8489 81.345C80.1935 81.4477 80.5455 81.5613 80.9049 81.686C81.2715 81.8033 81.6272 81.9353 81.9719 82.082C82.3165 82.2287 82.6245 82.412 82.8959 82.632C83.1672 82.852 83.3835 83.1233 83.5449 83.446C83.7135 83.7613 83.7979 84.1427 83.7979 84.59C83.7979 85.1033 83.7062 85.58 83.5229 86.02C83.3395 86.4527 83.0682 86.8303 82.7089 87.153C82.3495 87.4683 81.9095 87.7177 81.3889 87.901C80.8682 88.0843 80.2669 88.176 79.5849 88.176C78.8075 88.176 78.1035 88.0513 77.4729 87.802C76.8422 87.5453 76.3069 87.219 75.8669 86.823L76.3289 86.075C76.3875 85.9797 76.4572 85.9063 76.5379 85.855C76.6185 85.8037 76.7212 85.778 76.8459 85.778C76.9779 85.778 77.1172 85.8293 77.2639 85.932C77.4105 86.0347 77.5865 86.1483 77.7919 86.273C78.0045 86.3977 78.2612 86.5113 78.5619 86.614C78.8625 86.7167 79.2365 86.768 79.6839 86.768C80.0652 86.768 80.3989 86.7203 80.6849 86.625C80.9709 86.5223 81.2092 86.3867 81.3999 86.218C81.5905 86.0493 81.7299 85.855 81.8179 85.635C81.9132 85.415 81.9609 85.1803 81.9609 84.931C81.9609 84.623 81.8766 84.37 81.7079 84.172C81.5465 83.9667 81.3302 83.7943 81.0589 83.655C80.7875 83.5083 80.4759 83.3837 80.1239 83.281C79.7792 83.171 79.4235 83.0573 79.0569 82.94C78.6975 82.8227 78.3419 82.6907 77.9899 82.544C77.6452 82.39 77.3372 82.1993 77.0659 81.972C76.7945 81.7447 76.5745 81.466 76.4059 81.136C76.2445 80.7987 76.1639 80.3917 76.1639 79.915C76.1639 79.4897 76.2519 79.0827 76.4279 78.694C76.6039 78.298 76.8605 77.9533 77.1979 77.66C77.5352 77.3593 77.9495 77.121 78.4409 76.945C78.9322 76.769 79.4932 76.681 80.1239 76.681C80.8572 76.681 81.5135 76.7983 82.0929 77.033C82.6795 77.2603 83.1856 77.5757 83.6109 77.979L83.1709 78.694ZM88.2665 76.857V88H86.3085V76.857H88.2665ZM88.6845 73.359C88.6845 73.5497 88.6441 73.7293 88.5635 73.898C88.4901 74.0593 88.3875 74.206 88.2555 74.338C88.1308 74.4627 87.9805 74.5617 87.8045 74.635C87.6358 74.7083 87.4561 74.745 87.2655 74.745C87.0748 74.745 86.8951 74.7083 86.7265 74.635C86.5651 74.5617 86.4221 74.4627 86.2975 74.338C86.1728 74.206 86.0738 74.0593 86.0005 73.898C85.9271 73.7293 85.8905 73.5497 85.8905 73.359C85.8905 73.1683 85.9271 72.9887 86.0005 72.82C86.0738 72.644 86.1728 72.4937 86.2975 72.369C86.4221 72.237 86.5651 72.1343 86.7265 72.061C86.8951 71.9877 87.0748 71.951 87.2655 71.951C87.4561 71.951 87.6358 71.9877 87.8045 72.061C87.9805 72.1343 88.1308 72.237 88.2555 72.369C88.3875 72.4937 88.4901 72.644 88.5635 72.82C88.6441 72.9887 88.6845 73.1683 88.6845 73.359ZM93.3316 78.474C93.5736 78.2027 93.8303 77.957 94.1016 77.737C94.373 77.517 94.659 77.33 94.9596 77.176C95.2676 77.0147 95.5903 76.8937 95.9276 76.813C96.2723 76.725 96.6426 76.681 97.0386 76.681C97.6473 76.681 98.1826 76.7837 98.6446 76.989C99.114 77.187 99.5026 77.473 99.8106 77.847C100.126 78.2137 100.364 78.6573 100.526 79.178C100.687 79.6987 100.768 80.2743 100.768 80.905V88H98.7986V80.905C98.7986 80.0617 98.6043 79.409 98.2156 78.947C97.8343 78.4777 97.2513 78.243 96.4666 78.243C95.8873 78.243 95.3446 78.3823 94.8386 78.661C94.34 78.9397 93.878 79.3173 93.4526 79.794V88H91.4836V76.857H92.6606C92.9393 76.857 93.1116 76.9927 93.1776 77.264L93.3316 78.474ZM107.634 82.555C108.03 82.555 108.379 82.5 108.679 82.39C108.98 82.28 109.233 82.126 109.438 81.928C109.644 81.73 109.798 81.4953 109.9 81.224C110.003 80.9453 110.054 80.641 110.054 80.311C110.054 79.629 109.845 79.0863 109.427 78.683C109.017 78.2797 108.419 78.078 107.634 78.078C106.842 78.078 106.237 78.2797 105.819 78.683C105.409 79.0863 105.203 79.629 105.203 80.311C105.203 80.641 105.255 80.9453 105.357 81.224C105.467 81.4953 105.625 81.73 105.83 81.928C106.036 82.126 106.289 82.28 106.589 82.39C106.89 82.5 107.238 82.555 107.634 82.555ZM111.165 88.605C111.165 88.3337 111.088 88.1137 110.934 87.945C110.78 87.7763 110.571 87.6443 110.307 87.549C110.051 87.4537 109.75 87.3877 109.405 87.351C109.061 87.307 108.694 87.274 108.305 87.252C107.924 87.23 107.535 87.208 107.139 87.186C106.743 87.164 106.362 87.1273 105.995 87.076C105.585 87.2667 105.247 87.5087 104.983 87.802C104.727 88.088 104.598 88.4253 104.598 88.814C104.598 89.0633 104.661 89.2943 104.785 89.507C104.917 89.727 105.115 89.914 105.379 90.068C105.643 90.2293 105.973 90.354 106.369 90.442C106.773 90.5373 107.246 90.585 107.788 90.585C108.316 90.585 108.789 90.5373 109.207 90.442C109.625 90.3467 109.977 90.211 110.263 90.035C110.557 89.859 110.78 89.65 110.934 89.408C111.088 89.166 111.165 88.8983 111.165 88.605ZM113.156 77.297V78.023C113.156 78.265 113.002 78.419 112.694 78.485L111.429 78.65C111.679 79.134 111.803 79.6693 111.803 80.256C111.803 80.7987 111.697 81.2937 111.484 81.741C111.279 82.181 110.993 82.5587 110.626 82.874C110.26 83.1893 109.82 83.4313 109.306 83.6C108.793 83.7687 108.236 83.853 107.634 83.853C107.114 83.853 106.622 83.7907 106.16 83.666C105.926 83.8127 105.746 83.9703 105.621 84.139C105.497 84.3003 105.434 84.4653 105.434 84.634C105.434 84.898 105.541 85.0997 105.753 85.239C105.973 85.371 106.259 85.4663 106.611 85.525C106.963 85.5837 107.363 85.6203 107.81 85.635C108.265 85.6497 108.727 85.6753 109.196 85.712C109.673 85.7413 110.135 85.7963 110.582 85.877C111.037 85.9577 111.44 86.0897 111.792 86.273C112.144 86.4563 112.427 86.7093 112.639 87.032C112.859 87.3547 112.969 87.7727 112.969 88.286C112.969 88.7627 112.848 89.2247 112.606 89.672C112.372 90.1193 112.031 90.5153 111.583 90.86C111.136 91.212 110.586 91.4907 109.933 91.696C109.288 91.9087 108.558 92.015 107.744 92.015C106.93 92.015 106.219 91.9343 105.61 91.773C105.002 91.6117 104.496 91.3953 104.092 91.124C103.689 90.8527 103.385 90.5373 103.179 90.178C102.981 89.826 102.882 89.4557 102.882 89.067C102.882 88.517 103.055 88.0513 103.399 87.67C103.744 87.2887 104.217 86.9843 104.818 86.757C104.488 86.6103 104.224 86.416 104.026 86.174C103.836 85.9247 103.74 85.591 103.74 85.173C103.74 85.0117 103.77 84.8467 103.828 84.678C103.887 84.502 103.975 84.3297 104.092 84.161C104.217 83.985 104.367 83.82 104.543 83.666C104.719 83.512 104.925 83.3763 105.159 83.259C104.609 82.951 104.18 82.544 103.872 82.038C103.564 81.5247 103.41 80.9307 103.41 80.256C103.41 79.7133 103.513 79.222 103.718 78.782C103.931 78.3347 104.224 77.957 104.598 77.649C104.972 77.3337 105.416 77.0917 105.929 76.923C106.45 76.7543 107.018 76.67 107.634 76.67C108.118 76.67 108.569 76.725 108.987 76.835C109.405 76.9377 109.787 77.0917 110.131 77.297H113.156ZM125.925 80.41C126.533 80.41 127.069 80.3293 127.531 80.168C128 80.0067 128.392 79.783 128.708 79.497C129.03 79.2037 129.272 78.8553 129.434 78.452C129.595 78.0487 129.676 77.605 129.676 77.121C129.676 76.1163 129.364 75.3317 128.741 74.767C128.125 74.2023 127.186 73.92 125.925 73.92H123.395V80.41H125.925ZM125.925 72.237C126.922 72.237 127.787 72.3543 128.521 72.589C129.261 72.8163 129.874 73.1427 130.358 73.568C130.842 73.9933 131.201 74.5067 131.436 75.108C131.678 75.7093 131.799 76.3803 131.799 77.121C131.799 77.8543 131.67 78.5253 131.414 79.134C131.157 79.7427 130.779 80.267 130.281 80.707C129.789 81.147 129.177 81.4917 128.444 81.741C127.718 81.983 126.878 82.104 125.925 82.104H123.395V88H121.272V72.237H125.925ZM135.667 79.09C136.019 78.3273 136.452 77.7333 136.965 77.308C137.478 76.8753 138.105 76.659 138.846 76.659C139.081 76.659 139.304 76.6847 139.517 76.736C139.737 76.7873 139.931 76.868 140.1 76.978L139.957 78.441C139.913 78.6243 139.803 78.716 139.627 78.716C139.524 78.716 139.374 78.694 139.176 78.65C138.978 78.606 138.754 78.584 138.505 78.584C138.153 78.584 137.838 78.6353 137.559 78.738C137.288 78.8407 137.042 78.9947 136.822 79.2C136.609 79.398 136.415 79.6473 136.239 79.948C136.07 80.2413 135.916 80.5787 135.777 80.96V88H133.808V76.857H134.93C135.143 76.857 135.289 76.8973 135.37 76.978C135.451 77.0587 135.506 77.198 135.535 77.396L135.667 79.09ZM146.067 76.681C146.881 76.681 147.615 76.8167 148.267 77.088C148.92 77.3593 149.477 77.7443 149.939 78.243C150.401 78.7417 150.753 79.3467 150.995 80.058C151.245 80.762 151.369 81.5503 151.369 82.423C151.369 83.303 151.245 84.095 150.995 84.799C150.753 85.503 150.401 86.1043 149.939 86.603C149.477 87.1017 148.92 87.4867 148.267 87.758C147.615 88.022 146.881 88.154 146.067 88.154C145.246 88.154 144.505 88.022 143.845 87.758C143.193 87.4867 142.635 87.1017 142.173 86.603C141.711 86.1043 141.356 85.503 141.106 84.799C140.864 84.095 140.743 83.303 140.743 82.423C140.743 81.5503 140.864 80.762 141.106 80.058C141.356 79.3467 141.711 78.7417 142.173 78.243C142.635 77.7443 143.193 77.3593 143.845 77.088C144.505 76.8167 145.246 76.681 146.067 76.681ZM146.067 86.625C147.167 86.625 147.989 86.2583 148.531 85.525C149.074 84.7843 149.345 83.754 149.345 82.434C149.345 81.1067 149.074 80.0727 148.531 79.332C147.989 78.5913 147.167 78.221 146.067 78.221C145.51 78.221 145.022 78.3163 144.604 78.507C144.194 78.6977 143.849 78.9727 143.57 79.332C143.299 79.6913 143.094 80.135 142.954 80.663C142.822 81.1837 142.756 81.774 142.756 82.434C142.756 83.754 143.028 84.7843 143.57 85.525C144.12 86.2583 144.953 86.625 146.067 86.625ZM155.921 76.857V88.825C155.921 89.2723 155.862 89.6867 155.745 90.068C155.627 90.4567 155.44 90.794 155.184 91.08C154.927 91.366 154.597 91.5897 154.194 91.751C153.798 91.9197 153.321 92.004 152.764 92.004C152.529 92.004 152.313 91.9857 152.115 91.949C151.917 91.9123 151.719 91.8573 151.521 91.784L151.598 90.728C151.612 90.662 151.638 90.6107 151.675 90.574C151.704 90.5447 151.748 90.5263 151.807 90.519C151.865 90.5117 151.942 90.508 152.038 90.508C152.126 90.5153 152.239 90.519 152.379 90.519C152.951 90.519 153.358 90.3833 153.6 90.112C153.842 89.848 153.963 89.419 153.963 88.825V76.857H155.921ZM156.328 73.359C156.328 73.5497 156.287 73.7293 156.207 73.898C156.133 74.0593 156.031 74.206 155.899 74.338C155.774 74.4627 155.627 74.5617 155.459 74.635C155.29 74.7083 155.11 74.745 154.92 74.745C154.729 74.745 154.549 74.7083 154.381 74.635C154.219 74.5617 154.076 74.4627 153.952 74.338C153.827 74.206 153.728 74.0593 153.655 73.898C153.581 73.7293 153.545 73.5497 153.545 73.359C153.545 73.1683 153.581 72.9887 153.655 72.82C153.728 72.644 153.827 72.4937 153.952 72.369C154.076 72.237 154.219 72.1343 154.381 72.061C154.549 71.9877 154.729 71.951 154.92 71.951C155.11 71.951 155.29 71.9877 155.459 72.061C155.627 72.1343 155.774 72.237 155.899 72.369C156.031 72.4937 156.133 72.644 156.207 72.82C156.287 72.9887 156.328 73.1683 156.328 73.359ZM166.596 81.213C166.596 80.7583 166.53 80.344 166.398 79.97C166.273 79.5887 166.086 79.2623 165.837 78.991C165.595 78.7123 165.298 78.4997 164.946 78.353C164.594 78.199 164.194 78.122 163.747 78.122C162.808 78.122 162.064 78.397 161.514 78.947C160.971 79.4897 160.634 80.245 160.502 81.213H166.596ZM168.18 86.438C167.938 86.7313 167.648 86.988 167.311 87.208C166.974 87.4207 166.611 87.5967 166.222 87.736C165.841 87.8753 165.445 87.978 165.034 88.044C164.623 88.1173 164.216 88.154 163.813 88.154C163.043 88.154 162.332 88.0257 161.679 87.769C161.034 87.505 160.473 87.1237 159.996 86.625C159.527 86.119 159.16 85.4957 158.896 84.755C158.632 84.0143 158.5 83.1637 158.5 82.203C158.5 81.4257 158.617 80.6997 158.852 80.025C159.094 79.3503 159.439 78.7673 159.886 78.276C160.333 77.7773 160.88 77.3887 161.525 77.11C162.17 76.824 162.896 76.681 163.703 76.681C164.37 76.681 164.986 76.7947 165.551 77.022C166.123 77.242 166.614 77.5647 167.025 77.99C167.443 78.408 167.769 78.9287 168.004 79.552C168.239 80.168 168.356 80.872 168.356 81.664C168.356 81.972 168.323 82.1773 168.257 82.28C168.191 82.3827 168.066 82.434 167.883 82.434H160.436C160.458 83.138 160.553 83.7503 160.722 84.271C160.898 84.7917 161.14 85.228 161.448 85.58C161.756 85.9247 162.123 86.185 162.548 86.361C162.973 86.5297 163.45 86.614 163.978 86.614C164.469 86.614 164.891 86.559 165.243 86.449C165.602 86.3317 165.91 86.207 166.167 86.075C166.424 85.943 166.636 85.822 166.805 85.712C166.981 85.5947 167.131 85.536 167.256 85.536C167.417 85.536 167.542 85.5983 167.63 85.723L168.18 86.438ZM178.516 78.837C178.457 78.9177 178.399 78.98 178.34 79.024C178.281 79.068 178.201 79.09 178.098 79.09C177.988 79.09 177.867 79.046 177.735 78.958C177.603 78.8627 177.438 78.76 177.24 78.65C177.049 78.54 176.811 78.441 176.525 78.353C176.246 78.2577 175.902 78.21 175.491 78.21C174.941 78.21 174.457 78.309 174.039 78.507C173.621 78.6977 173.269 78.9763 172.983 79.343C172.704 79.7097 172.492 80.1533 172.345 80.674C172.206 81.1947 172.136 81.7777 172.136 82.423C172.136 83.0977 172.213 83.699 172.367 84.227C172.521 84.7477 172.737 85.1877 173.016 85.547C173.302 85.899 173.643 86.1703 174.039 86.361C174.442 86.5443 174.893 86.636 175.392 86.636C175.869 86.636 176.261 86.581 176.569 86.471C176.877 86.3537 177.13 86.2253 177.328 86.086C177.533 85.9467 177.702 85.822 177.834 85.712C177.973 85.5947 178.109 85.536 178.241 85.536C178.402 85.536 178.527 85.5983 178.615 85.723L179.165 86.438C178.923 86.7387 178.648 86.9953 178.34 87.208C178.032 87.4207 177.698 87.6003 177.339 87.747C176.987 87.8863 176.617 87.989 176.228 88.055C175.839 88.121 175.443 88.154 175.04 88.154C174.343 88.154 173.694 88.0257 173.093 87.769C172.499 87.5123 171.982 87.142 171.542 86.658C171.102 86.1667 170.757 85.5653 170.508 84.854C170.259 84.1427 170.134 83.3323 170.134 82.423C170.134 81.5943 170.248 80.828 170.475 80.124C170.71 79.42 171.047 78.815 171.487 78.309C171.934 77.7957 172.481 77.396 173.126 77.11C173.779 76.824 174.527 76.681 175.37 76.681C176.155 76.681 176.844 76.8093 177.438 77.066C178.039 77.3153 178.571 77.671 179.033 78.133L178.516 78.837ZM184.688 88.176C183.808 88.176 183.129 87.9303 182.653 87.439C182.183 86.9477 181.949 86.24 181.949 85.316V78.496H180.607C180.489 78.496 180.39 78.463 180.31 78.397C180.229 78.3237 180.189 78.2137 180.189 78.067V77.286L182.015 77.055L182.466 73.612C182.488 73.502 182.535 73.414 182.609 73.348C182.689 73.2747 182.792 73.238 182.917 73.238H183.907V77.077H187.13V78.496H183.907V85.184C183.907 85.6533 184.02 86.0017 184.248 86.229C184.475 86.4563 184.768 86.57 185.128 86.57C185.333 86.57 185.509 86.5443 185.656 86.493C185.81 86.4343 185.942 86.372 186.052 86.306C186.162 86.24 186.253 86.1813 186.327 86.13C186.407 86.0713 186.477 86.042 186.536 86.042C186.638 86.042 186.73 86.1043 186.811 86.229L187.383 87.164C187.045 87.4793 186.638 87.7287 186.162 87.912C185.685 88.088 185.194 88.176 184.688 88.176ZM200.775 86.306C201.384 86.306 201.908 86.2363 202.348 86.097C202.788 85.9577 203.148 85.7633 203.426 85.514C203.712 85.2573 203.921 84.9567 204.053 84.612C204.185 84.26 204.251 83.875 204.251 83.457C204.251 82.643 203.962 82.0013 203.382 81.532C202.803 81.0553 201.934 80.817 200.775 80.817H197.365V86.306H200.775ZM197.365 73.92V79.299H200.181C200.783 79.299 201.303 79.233 201.743 79.101C202.191 78.969 202.557 78.7857 202.843 78.551C203.137 78.3163 203.353 78.034 203.492 77.704C203.632 77.3667 203.701 77 203.701 76.604C203.701 75.6727 203.423 74.9943 202.865 74.569C202.308 74.1363 201.443 73.92 200.269 73.92H197.365ZM200.269 72.237C201.237 72.237 202.07 72.3323 202.766 72.523C203.47 72.7137 204.046 72.985 204.493 73.337C204.948 73.689 205.282 74.1217 205.494 74.635C205.707 75.141 205.813 75.713 205.813 76.351C205.813 76.7397 205.751 77.1137 205.626 77.473C205.509 77.825 205.329 78.155 205.087 78.463C204.845 78.771 204.537 79.0497 204.163 79.299C203.797 79.541 203.364 79.739 202.865 79.893C204.024 80.113 204.893 80.5273 205.472 81.136C206.059 81.7373 206.352 82.5293 206.352 83.512C206.352 84.1793 206.228 84.788 205.978 85.338C205.736 85.888 205.377 86.361 204.9 86.757C204.431 87.153 203.852 87.461 203.162 87.681C202.473 87.8937 201.688 88 200.808 88H195.242V72.237H200.269ZM214.87 82.984C213.968 83.0133 213.198 83.0867 212.56 83.204C211.93 83.314 211.413 83.4607 211.009 83.644C210.613 83.8273 210.324 84.0437 210.14 84.293C209.964 84.5423 209.876 84.821 209.876 85.129C209.876 85.4223 209.924 85.6753 210.019 85.888C210.115 86.1007 210.243 86.2767 210.404 86.416C210.573 86.548 210.767 86.647 210.987 86.713C211.215 86.7717 211.457 86.801 211.713 86.801C212.058 86.801 212.373 86.768 212.659 86.702C212.945 86.6287 213.213 86.526 213.462 86.394C213.719 86.262 213.961 86.1043 214.188 85.921C214.423 85.7377 214.65 85.5287 214.87 85.294V82.984ZM208.545 78.43C209.161 77.836 209.825 77.3923 210.536 77.099C211.248 76.8057 212.036 76.659 212.901 76.659C213.525 76.659 214.078 76.7617 214.562 76.967C215.046 77.1723 215.453 77.4583 215.783 77.825C216.113 78.1917 216.363 78.6353 216.531 79.156C216.7 79.6767 216.784 80.2487 216.784 80.872V88H215.915C215.725 88 215.578 87.9707 215.475 87.912C215.373 87.846 215.292 87.7213 215.233 87.538L215.013 86.482C214.72 86.7533 214.434 86.9953 214.155 87.208C213.877 87.4133 213.583 87.5893 213.275 87.736C212.967 87.8753 212.637 87.9817 212.285 88.055C211.941 88.1357 211.556 88.176 211.13 88.176C210.698 88.176 210.291 88.1173 209.909 88C209.528 87.8753 209.194 87.692 208.908 87.45C208.63 87.208 208.406 86.9037 208.237 86.537C208.076 86.163 207.995 85.723 207.995 85.217C207.995 84.777 208.116 84.3553 208.358 83.952C208.6 83.5413 208.993 83.1783 209.535 82.863C210.078 82.5477 210.786 82.291 211.658 82.093C212.531 81.8877 213.602 81.7703 214.87 81.741V80.872C214.87 80.0067 214.683 79.354 214.309 78.914C213.935 78.4667 213.389 78.243 212.67 78.243C212.186 78.243 211.779 78.3053 211.449 78.43C211.127 78.5473 210.844 78.683 210.602 78.837C210.368 78.9837 210.162 79.1193 209.986 79.244C209.818 79.3613 209.649 79.42 209.48 79.42C209.348 79.42 209.235 79.387 209.139 79.321C209.044 79.2477 208.963 79.1597 208.897 79.057L208.545 78.43ZM226.257 78.694C226.169 78.8553 226.033 78.936 225.85 78.936C225.74 78.936 225.615 78.8957 225.476 78.815C225.336 78.7343 225.164 78.6463 224.959 78.551C224.761 78.4483 224.522 78.3567 224.244 78.276C223.965 78.188 223.635 78.144 223.254 78.144C222.924 78.144 222.627 78.188 222.363 78.276C222.099 78.3567 221.871 78.4703 221.681 78.617C221.497 78.7637 221.354 78.936 221.252 79.134C221.156 79.3247 221.109 79.5337 221.109 79.761C221.109 80.047 221.189 80.2853 221.351 80.476C221.519 80.6667 221.739 80.8317 222.011 80.971C222.282 81.1103 222.59 81.235 222.935 81.345C223.279 81.4477 223.631 81.5613 223.991 81.686C224.357 81.8033 224.713 81.9353 225.058 82.082C225.402 82.2287 225.71 82.412 225.982 82.632C226.253 82.852 226.469 83.1233 226.631 83.446C226.799 83.7613 226.884 84.1427 226.884 84.59C226.884 85.1033 226.792 85.58 226.609 86.02C226.425 86.4527 226.154 86.8303 225.795 87.153C225.435 87.4683 224.995 87.7177 224.475 87.901C223.954 88.0843 223.353 88.176 222.671 88.176C221.893 88.176 221.189 88.0513 220.559 87.802C219.928 87.5453 219.393 87.219 218.953 86.823L219.415 86.075C219.473 85.9797 219.543 85.9063 219.624 85.855C219.704 85.8037 219.807 85.778 219.932 85.778C220.064 85.778 220.203 85.8293 220.35 85.932C220.496 86.0347 220.672 86.1483 220.878 86.273C221.09 86.3977 221.347 86.5113 221.648 86.614C221.948 86.7167 222.322 86.768 222.77 86.768C223.151 86.768 223.485 86.7203 223.771 86.625C224.057 86.5223 224.295 86.3867 224.486 86.218C224.676 86.0493 224.816 85.855 224.904 85.635C224.999 85.415 225.047 85.1803 225.047 84.931C225.047 84.623 224.962 84.37 224.794 84.172C224.632 83.9667 224.416 83.7943 224.145 83.655C223.873 83.5083 223.562 83.3837 223.21 83.281C222.865 83.171 222.509 83.0573 222.143 82.94C221.783 82.8227 221.428 82.6907 221.076 82.544C220.731 82.39 220.423 82.1993 220.152 81.972C219.88 81.7447 219.66 81.466 219.492 81.136C219.33 80.7987 219.25 80.3917 219.25 79.915C219.25 79.4897 219.338 79.0827 219.514 78.694C219.69 78.298 219.946 77.9533 220.284 77.66C220.621 77.3593 221.035 77.121 221.527 76.945C222.018 76.769 222.579 76.681 223.21 76.681C223.943 76.681 224.599 76.7983 225.179 77.033C225.765 77.2603 226.271 77.5757 226.697 77.979L226.257 78.694ZM236.742 81.213C236.742 80.7583 236.676 80.344 236.544 79.97C236.42 79.5887 236.233 79.2623 235.983 78.991C235.741 78.7123 235.444 78.4997 235.092 78.353C234.74 78.199 234.341 78.122 233.893 78.122C232.955 78.122 232.21 78.397 231.66 78.947C231.118 79.4897 230.78 80.245 230.648 81.213H236.742ZM238.326 86.438C238.084 86.7313 237.795 86.988 237.457 87.208C237.12 87.4207 236.757 87.5967 236.368 87.736C235.987 87.8753 235.591 87.978 235.18 88.044C234.77 88.1173 234.363 88.154 233.959 88.154C233.189 88.154 232.478 88.0257 231.825 87.769C231.18 87.505 230.619 87.1237 230.142 86.625C229.673 86.119 229.306 85.4957 229.042 84.755C228.778 84.0143 228.646 83.1637 228.646 82.203C228.646 81.4257 228.764 80.6997 228.998 80.025C229.24 79.3503 229.585 78.7673 230.032 78.276C230.48 77.7773 231.026 77.3887 231.671 77.11C232.317 76.824 233.043 76.681 233.849 76.681C234.517 76.681 235.133 76.7947 235.697 77.022C236.269 77.242 236.761 77.5647 237.171 77.99C237.589 78.408 237.916 78.9287 238.15 79.552C238.385 80.168 238.502 80.872 238.502 81.664C238.502 81.972 238.469 82.1773 238.403 82.28C238.337 82.3827 238.213 82.434 238.029 82.434H230.582C230.604 83.138 230.7 83.7503 230.868 84.271C231.044 84.7917 231.286 85.228 231.594 85.58C231.902 85.9247 232.269 86.185 232.694 86.361C233.12 86.5297 233.596 86.614 234.124 86.614C234.616 86.614 235.037 86.559 235.389 86.449C235.749 86.3317 236.057 86.207 236.313 86.075C236.57 85.943 236.783 85.822 236.951 85.712C237.127 85.5947 237.278 85.536 237.402 85.536C237.564 85.536 237.688 85.5983 237.776 85.723L238.326 86.438ZM248.167 79.508C247.801 79.0167 247.405 78.6757 246.979 78.485C246.554 78.287 246.077 78.188 245.549 78.188C244.515 78.188 243.72 78.5583 243.162 79.299C242.605 80.0397 242.326 81.0957 242.326 82.467C242.326 83.193 242.389 83.8163 242.513 84.337C242.638 84.8503 242.821 85.2757 243.063 85.613C243.305 85.943 243.602 86.185 243.954 86.339C244.306 86.493 244.706 86.57 245.153 86.57C245.799 86.57 246.36 86.4233 246.836 86.13C247.32 85.8367 247.764 85.4223 248.167 84.887V79.508ZM250.125 71.797V88H248.959C248.681 88 248.505 87.8643 248.431 87.593L248.255 86.24C247.779 86.812 247.236 87.274 246.627 87.626C246.019 87.978 245.315 88.154 244.515 88.154C243.877 88.154 243.298 88.033 242.777 87.791C242.257 87.5417 241.813 87.1787 241.446 86.702C241.08 86.2253 240.797 85.6313 240.599 84.92C240.401 84.2087 240.302 83.391 240.302 82.467C240.302 81.6457 240.412 80.883 240.632 80.179C240.852 79.4677 241.168 78.8517 241.578 78.331C241.989 77.8103 242.491 77.4033 243.085 77.11C243.687 76.8093 244.361 76.659 245.109 76.659C245.791 76.659 246.374 76.7763 246.858 77.011C247.35 77.2383 247.786 77.5573 248.167 77.968V71.797H250.125ZM263.544 76.681C264.358 76.681 265.091 76.8167 265.744 77.088C266.397 77.3593 266.954 77.7443 267.416 78.243C267.878 78.7417 268.23 79.3467 268.472 80.058C268.721 80.762 268.846 81.5503 268.846 82.423C268.846 83.303 268.721 84.095 268.472 84.799C268.23 85.503 267.878 86.1043 267.416 86.603C266.954 87.1017 266.397 87.4867 265.744 87.758C265.091 88.022 264.358 88.154 263.544 88.154C262.723 88.154 261.982 88.022 261.322 87.758C260.669 87.4867 260.112 87.1017 259.65 86.603C259.188 86.1043 258.832 85.503 258.583 84.799C258.341 84.095 258.22 83.303 258.22 82.423C258.22 81.5503 258.341 80.762 258.583 80.058C258.832 79.3467 259.188 78.7417 259.65 78.243C260.112 77.7443 260.669 77.3593 261.322 77.088C261.982 76.8167 262.723 76.681 263.544 76.681ZM263.544 86.625C264.644 86.625 265.465 86.2583 266.008 85.525C266.551 84.7843 266.822 83.754 266.822 82.434C266.822 81.1067 266.551 80.0727 266.008 79.332C265.465 78.5913 264.644 78.221 263.544 78.221C262.987 78.221 262.499 78.3163 262.081 78.507C261.67 78.6977 261.326 78.9727 261.047 79.332C260.776 79.6913 260.57 80.135 260.431 80.663C260.299 81.1837 260.233 81.774 260.233 82.434C260.233 83.754 260.504 84.7843 261.047 85.525C261.597 86.2583 262.429 86.625 263.544 86.625ZM273.177 78.474C273.419 78.2027 273.676 77.957 273.947 77.737C274.219 77.517 274.505 77.33 274.805 77.176C275.113 77.0147 275.436 76.8937 275.773 76.813C276.118 76.725 276.488 76.681 276.884 76.681C277.493 76.681 278.028 76.7837 278.49 76.989C278.96 77.187 279.348 77.473 279.656 77.847C279.972 78.2137 280.21 78.6573 280.371 79.178C280.533 79.6987 280.613 80.2743 280.613 80.905V88H278.644V80.905C278.644 80.0617 278.45 79.409 278.061 78.947C277.68 78.4777 277.097 78.243 276.312 78.243C275.733 78.243 275.19 78.3823 274.684 78.661C274.186 78.9397 273.724 79.3173 273.298 79.794V88H271.329V76.857H272.506C272.785 76.857 272.957 76.9927 273.023 77.264L273.177 78.474ZM300.754 84.744C300.871 84.744 300.974 84.7917 301.062 84.887L301.909 85.8C301.263 86.548 300.479 87.131 299.555 87.549C298.638 87.967 297.527 88.176 296.222 88.176C295.092 88.176 294.066 87.9817 293.142 87.593C292.218 87.197 291.429 86.647 290.777 85.943C290.124 85.2317 289.618 84.381 289.259 83.391C288.899 82.401 288.72 81.312 288.72 80.124C288.72 78.936 288.907 77.847 289.281 76.857C289.655 75.867 290.179 75.0163 290.854 74.305C291.536 73.5937 292.35 73.0437 293.296 72.655C294.242 72.259 295.287 72.061 296.431 72.061C297.553 72.061 298.543 72.2407 299.401 72.6C300.259 72.9593 301.014 73.447 301.667 74.063L300.963 75.042C300.919 75.1153 300.86 75.1777 300.787 75.229C300.721 75.273 300.629 75.295 300.512 75.295C300.38 75.295 300.218 75.2253 300.028 75.086C299.837 74.9393 299.588 74.778 299.28 74.602C298.972 74.426 298.587 74.2683 298.125 74.129C297.663 73.9823 297.094 73.909 296.42 73.909C295.606 73.909 294.861 74.052 294.187 74.338C293.512 74.6167 292.929 75.0237 292.438 75.559C291.954 76.0943 291.576 76.747 291.305 77.517C291.033 78.287 290.898 79.156 290.898 80.124C290.898 81.1067 291.037 81.983 291.316 82.753C291.602 83.523 291.987 84.1757 292.471 84.711C292.962 85.239 293.538 85.6423 294.198 85.921C294.865 86.1997 295.584 86.339 296.354 86.339C296.823 86.339 297.245 86.3133 297.619 86.262C298 86.2033 298.348 86.1153 298.664 85.998C298.986 85.8807 299.283 85.734 299.555 85.558C299.833 85.3747 300.108 85.1583 300.38 84.909C300.504 84.799 300.629 84.744 300.754 84.744ZM308.403 76.681C309.217 76.681 309.951 76.8167 310.603 77.088C311.256 77.3593 311.813 77.7443 312.275 78.243C312.737 78.7417 313.089 79.3467 313.331 80.058C313.581 80.762 313.705 81.5503 313.705 82.423C313.705 83.303 313.581 84.095 313.331 84.799C313.089 85.503 312.737 86.1043 312.275 86.603C311.813 87.1017 311.256 87.4867 310.603 87.758C309.951 88.022 309.217 88.154 308.403 88.154C307.582 88.154 306.841 88.022 306.181 87.758C305.529 87.4867 304.971 87.1017 304.509 86.603C304.047 86.1043 303.692 85.503 303.442 84.799C303.2 84.095 303.079 83.303 303.079 82.423C303.079 81.5503 303.2 80.762 303.442 80.058C303.692 79.3467 304.047 78.7417 304.509 78.243C304.971 77.7443 305.529 77.3593 306.181 77.088C306.841 76.8167 307.582 76.681 308.403 76.681ZM308.403 86.625C309.503 86.625 310.325 86.2583 310.867 85.525C311.41 84.7843 311.681 83.754 311.681 82.434C311.681 81.1067 311.41 80.0727 310.867 79.332C310.325 78.5913 309.503 78.221 308.403 78.221C307.846 78.221 307.358 78.3163 306.94 78.507C306.53 78.6977 306.185 78.9727 305.906 79.332C305.635 79.6913 305.43 80.135 305.29 80.663C305.158 81.1837 305.092 81.774 305.092 82.434C305.092 83.754 305.364 84.7843 305.906 85.525C306.456 86.2583 307.289 86.625 308.403 86.625ZM318.037 78.474C318.279 78.2027 318.535 77.957 318.807 77.737C319.078 77.517 319.364 77.33 319.665 77.176C319.973 77.0147 320.295 76.8937 320.633 76.813C320.977 76.725 321.348 76.681 321.744 76.681C322.352 76.681 322.888 76.7837 323.35 76.989C323.819 77.187 324.208 77.473 324.516 77.847C324.831 78.2137 325.069 78.6573 325.231 79.178C325.392 79.6987 325.473 80.2743 325.473 80.905V88H323.504V80.905C323.504 80.0617 323.309 79.409 322.921 78.947C322.539 78.4777 321.956 78.243 321.172 78.243C320.592 78.243 320.05 78.3823 319.544 78.661C319.045 78.9397 318.583 79.3173 318.158 79.794V88H316.189V76.857H317.366C317.644 76.857 317.817 76.9927 317.883 77.264L318.037 78.474ZM329.032 88V78.529L327.8 78.386C327.639 78.3493 327.511 78.2943 327.415 78.221C327.32 78.1403 327.272 78.0267 327.272 77.88V77.077H329.032V76.483C329.032 75.867 329.124 75.284 329.307 74.734C329.498 74.1767 329.784 73.6927 330.165 73.282C330.547 72.8713 331.023 72.545 331.595 72.303C332.167 72.061 332.835 71.94 333.597 71.94C334.162 71.94 334.705 71.962 335.225 72.006C335.753 72.05 336.263 72.0757 336.754 72.083H338.085V88H336.138V73.458C335.742 73.4433 335.343 73.425 334.939 73.403C334.543 73.381 334.195 73.37 333.894 73.37C332.941 73.37 332.208 73.645 331.694 74.195C331.188 74.7377 330.935 75.5003 330.935 76.483V77.077H333.828V78.496H330.99V88H329.032ZM350.424 76.857V88H349.258C348.979 88 348.803 87.8643 348.73 87.593L348.576 86.394C348.092 86.9293 347.549 87.362 346.948 87.692C346.347 88.0147 345.657 88.176 344.88 88.176C344.271 88.176 343.732 88.077 343.263 87.879C342.801 87.6737 342.412 87.3877 342.097 87.021C341.782 86.6543 341.543 86.2107 341.382 85.69C341.228 85.1693 341.151 84.5937 341.151 83.963V76.857H343.109V83.963C343.109 84.8063 343.3 85.459 343.681 85.921C344.07 86.383 344.66 86.614 345.452 86.614C346.031 86.614 346.57 86.4783 347.069 86.207C347.575 85.9283 348.041 85.547 348.466 85.063V76.857H350.424ZM362.681 88H360.8C360.638 88 360.51 87.9597 360.415 87.879C360.327 87.791 360.253 87.6957 360.195 87.593L357.39 83.226C357.36 83.3287 357.327 83.4313 357.291 83.534C357.261 83.6293 357.217 83.7173 357.159 83.798L354.563 87.593C354.489 87.6957 354.409 87.791 354.321 87.879C354.24 87.9597 354.126 88 353.98 88H352.231L356.136 82.28L352.385 76.857H354.266C354.427 76.857 354.544 76.8827 354.618 76.934C354.691 76.9853 354.757 77.0587 354.816 77.154L357.555 81.334C357.613 81.1213 357.705 80.916 357.83 80.718L360.228 77.198C360.294 77.0953 360.363 77.0147 360.437 76.956C360.517 76.89 360.613 76.857 360.723 76.857H362.527L358.776 82.181L362.681 88ZM160.247 100.03H155.143V114H153.02V100.03H147.905V98.237H160.247V100.03ZM166.897 107.213C166.897 106.758 166.831 106.344 166.699 105.97C166.574 105.589 166.387 105.262 166.138 104.991C165.896 104.712 165.599 104.5 165.247 104.353C164.895 104.199 164.495 104.122 164.048 104.122C163.109 104.122 162.365 104.397 161.815 104.947C161.272 105.49 160.935 106.245 160.803 107.213H166.897ZM168.481 112.438C168.239 112.731 167.949 112.988 167.612 113.208C167.274 113.421 166.911 113.597 166.523 113.736C166.141 113.875 165.745 113.978 165.335 114.044C164.924 114.117 164.517 114.154 164.114 114.154C163.344 114.154 162.632 114.026 161.98 113.769C161.334 113.505 160.773 113.124 160.297 112.625C159.827 112.119 159.461 111.496 159.197 110.755C158.933 110.014 158.801 109.164 158.801 108.203C158.801 107.426 158.918 106.7 159.153 106.025C159.395 105.35 159.739 104.767 160.187 104.276C160.634 103.777 161.18 103.389 161.826 103.11C162.471 102.824 163.197 102.681 164.004 102.681C164.671 102.681 165.287 102.795 165.852 103.022C166.424 103.242 166.915 103.565 167.326 103.99C167.744 104.408 168.07 104.929 168.305 105.552C168.539 106.168 168.657 106.872 168.657 107.664C168.657 107.972 168.624 108.177 168.558 108.28C168.492 108.383 168.367 108.434 168.184 108.434H160.737C160.759 109.138 160.854 109.75 161.023 110.271C161.199 110.792 161.441 111.228 161.749 111.58C162.057 111.925 162.423 112.185 162.849 112.361C163.274 112.53 163.751 112.614 164.279 112.614C164.77 112.614 165.192 112.559 165.544 112.449C165.903 112.332 166.211 112.207 166.468 112.075C166.724 111.943 166.937 111.822 167.106 111.712C167.282 111.595 167.432 111.536 167.557 111.536C167.718 111.536 167.843 111.598 167.931 111.723L168.481 112.438ZM178.817 104.837C178.758 104.918 178.699 104.98 178.641 105.024C178.582 105.068 178.501 105.09 178.399 105.09C178.289 105.09 178.168 105.046 178.036 104.958C177.904 104.863 177.739 104.76 177.541 104.65C177.35 104.54 177.112 104.441 176.826 104.353C176.547 104.258 176.202 104.21 175.792 104.21C175.242 104.21 174.758 104.309 174.34 104.507C173.922 104.698 173.57 104.976 173.284 105.343C173.005 105.71 172.792 106.153 172.646 106.674C172.506 107.195 172.437 107.778 172.437 108.423C172.437 109.098 172.514 109.699 172.668 110.227C172.822 110.748 173.038 111.188 173.317 111.547C173.603 111.899 173.944 112.17 174.34 112.361C174.743 112.544 175.194 112.636 175.693 112.636C176.169 112.636 176.562 112.581 176.87 112.471C177.178 112.354 177.431 112.225 177.629 112.086C177.834 111.947 178.003 111.822 178.135 111.712C178.274 111.595 178.41 111.536 178.542 111.536C178.703 111.536 178.828 111.598 178.916 111.723L179.466 112.438C179.224 112.739 178.949 112.995 178.641 113.208C178.333 113.421 177.999 113.6 177.64 113.747C177.288 113.886 176.917 113.989 176.529 114.055C176.14 114.121 175.744 114.154 175.341 114.154C174.644 114.154 173.995 114.026 173.394 113.769C172.8 113.512 172.283 113.142 171.843 112.658C171.403 112.167 171.058 111.565 170.809 110.854C170.559 110.143 170.435 109.332 170.435 108.423C170.435 107.594 170.548 106.828 170.776 106.124C171.01 105.42 171.348 104.815 171.788 104.309C172.235 103.796 172.781 103.396 173.427 103.11C174.079 102.824 174.827 102.681 175.671 102.681C176.455 102.681 177.145 102.809 177.739 103.066C178.34 103.315 178.872 103.671 179.334 104.133L178.817 104.837ZM183.537 104.342C184.013 103.836 184.541 103.433 185.121 103.132C185.7 102.831 186.367 102.681 187.123 102.681C187.731 102.681 188.267 102.784 188.729 102.989C189.198 103.187 189.587 103.473 189.895 103.847C190.21 104.214 190.448 104.657 190.61 105.178C190.771 105.699 190.852 106.274 190.852 106.905V114H188.883V106.905C188.883 106.062 188.688 105.409 188.3 104.947C187.918 104.478 187.335 104.243 186.551 104.243C185.971 104.243 185.429 104.382 184.923 104.661C184.424 104.94 183.962 105.317 183.537 105.794V114H181.568V97.797H183.537V104.342ZM195.683 104.474C195.925 104.203 196.182 103.957 196.453 103.737C196.725 103.517 197.011 103.33 197.311 103.176C197.619 103.015 197.942 102.894 198.279 102.813C198.624 102.725 198.994 102.681 199.39 102.681C199.999 102.681 200.534 102.784 200.996 102.989C201.466 103.187 201.854 103.473 202.162 103.847C202.478 104.214 202.716 104.657 202.877 105.178C203.039 105.699 203.119 106.274 203.119 106.905V114H201.15V106.905C201.15 106.062 200.956 105.409 200.567 104.947C200.186 104.478 199.603 104.243 198.818 104.243C198.239 104.243 197.696 104.382 197.19 104.661C196.692 104.94 196.23 105.317 195.804 105.794V114H193.835V102.857H195.012C195.291 102.857 195.463 102.993 195.529 103.264L195.683 104.474ZM210.8 102.681C211.614 102.681 212.347 102.817 213 103.088C213.652 103.359 214.21 103.744 214.672 104.243C215.134 104.742 215.486 105.347 215.728 106.058C215.977 106.762 216.102 107.55 216.102 108.423C216.102 109.303 215.977 110.095 215.728 110.799C215.486 111.503 215.134 112.104 214.672 112.603C214.21 113.102 213.652 113.487 213 113.758C212.347 114.022 211.614 114.154 210.8 114.154C209.978 114.154 209.238 114.022 208.578 113.758C207.925 113.487 207.368 113.102 206.906 112.603C206.444 112.104 206.088 111.503 205.839 110.799C205.597 110.095 205.476 109.303 205.476 108.423C205.476 107.55 205.597 106.762 205.839 106.058C206.088 105.347 206.444 104.742 206.906 104.243C207.368 103.744 207.925 103.359 208.578 103.088C209.238 102.817 209.978 102.681 210.8 102.681ZM210.8 112.625C211.9 112.625 212.721 112.258 213.264 111.525C213.806 110.784 214.078 109.754 214.078 108.434C214.078 107.107 213.806 106.073 213.264 105.332C212.721 104.591 211.9 104.221 210.8 104.221C210.242 104.221 209.755 104.316 209.337 104.507C208.926 104.698 208.581 104.973 208.303 105.332C208.031 105.691 207.826 106.135 207.687 106.663C207.555 107.184 207.489 107.774 207.489 108.434C207.489 109.754 207.76 110.784 208.303 111.525C208.853 112.258 209.685 112.625 210.8 112.625ZM220.609 97.797V114H218.651V97.797H220.609ZM228.481 102.681C229.295 102.681 230.029 102.817 230.681 103.088C231.334 103.359 231.891 103.744 232.353 104.243C232.815 104.742 233.167 105.347 233.409 106.058C233.659 106.762 233.783 107.55 233.783 108.423C233.783 109.303 233.659 110.095 233.409 110.799C233.167 111.503 232.815 112.104 232.353 112.603C231.891 113.102 231.334 113.487 230.681 113.758C230.029 114.022 229.295 114.154 228.481 114.154C227.66 114.154 226.919 114.022 226.259 113.758C225.607 113.487 225.049 113.102 224.587 112.603C224.125 112.104 223.77 111.503 223.52 110.799C223.278 110.095 223.157 109.303 223.157 108.423C223.157 107.55 223.278 106.762 223.52 106.058C223.77 105.347 224.125 104.742 224.587 104.243C225.049 103.744 225.607 103.359 226.259 103.088C226.919 102.817 227.66 102.681 228.481 102.681ZM228.481 112.625C229.581 112.625 230.403 112.258 230.945 111.525C231.488 110.784 231.759 109.754 231.759 108.434C231.759 107.107 231.488 106.073 230.945 105.332C230.403 104.591 229.581 104.221 228.481 104.221C227.924 104.221 227.436 104.316 227.018 104.507C226.608 104.698 226.263 104.973 225.984 105.332C225.713 105.691 225.508 106.135 225.368 106.663C225.236 107.184 225.17 107.774 225.17 108.434C225.17 109.754 225.442 110.784 225.984 111.525C226.534 112.258 227.367 112.625 228.481 112.625ZM240.085 108.555C240.481 108.555 240.83 108.5 241.13 108.39C241.431 108.28 241.684 108.126 241.889 107.928C242.095 107.73 242.249 107.495 242.351 107.224C242.454 106.945 242.505 106.641 242.505 106.311C242.505 105.629 242.296 105.086 241.878 104.683C241.468 104.28 240.87 104.078 240.085 104.078C239.293 104.078 238.688 104.28 238.27 104.683C237.86 105.086 237.654 105.629 237.654 106.311C237.654 106.641 237.706 106.945 237.808 107.224C237.918 107.495 238.076 107.73 238.281 107.928C238.487 108.126 238.74 108.28 239.04 108.39C239.341 108.5 239.689 108.555 240.085 108.555ZM243.616 114.605C243.616 114.334 243.539 114.114 243.385 113.945C243.231 113.776 243.022 113.644 242.758 113.549C242.502 113.454 242.201 113.388 241.856 113.351C241.512 113.307 241.145 113.274 240.756 113.252C240.375 113.23 239.986 113.208 239.59 113.186C239.194 113.164 238.813 113.127 238.446 113.076C238.036 113.267 237.698 113.509 237.434 113.802C237.178 114.088 237.049 114.425 237.049 114.814C237.049 115.063 237.112 115.294 237.236 115.507C237.368 115.727 237.566 115.914 237.83 116.068C238.094 116.229 238.424 116.354 238.82 116.442C239.224 116.537 239.697 116.585 240.239 116.585C240.767 116.585 241.24 116.537 241.658 116.442C242.076 116.347 242.428 116.211 242.714 116.035C243.008 115.859 243.231 115.65 243.385 115.408C243.539 115.166 243.616 114.898 243.616 114.605ZM245.607 103.297V104.023C245.607 104.265 245.453 104.419 245.145 104.485L243.88 104.65C244.13 105.134 244.254 105.669 244.254 106.256C244.254 106.799 244.148 107.294 243.935 107.741C243.73 108.181 243.444 108.559 243.077 108.874C242.711 109.189 242.271 109.431 241.757 109.6C241.244 109.769 240.687 109.853 240.085 109.853C239.565 109.853 239.073 109.791 238.611 109.666C238.377 109.813 238.197 109.97 238.072 110.139C237.948 110.3 237.885 110.465 237.885 110.634C237.885 110.898 237.992 111.1 238.204 111.239C238.424 111.371 238.71 111.466 239.062 111.525C239.414 111.584 239.814 111.62 240.261 111.635C240.716 111.65 241.178 111.675 241.647 111.712C242.124 111.741 242.586 111.796 243.033 111.877C243.488 111.958 243.891 112.09 244.243 112.273C244.595 112.456 244.878 112.709 245.09 113.032C245.31 113.355 245.42 113.773 245.42 114.286C245.42 114.763 245.299 115.225 245.057 115.672C244.823 116.119 244.482 116.515 244.034 116.86C243.587 117.212 243.037 117.491 242.384 117.696C241.739 117.909 241.009 118.015 240.195 118.015C239.381 118.015 238.67 117.934 238.061 117.773C237.453 117.612 236.947 117.395 236.543 117.124C236.14 116.853 235.836 116.537 235.63 116.178C235.432 115.826 235.333 115.456 235.333 115.067C235.333 114.517 235.506 114.051 235.85 113.67C236.195 113.289 236.668 112.984 237.269 112.757C236.939 112.61 236.675 112.416 236.477 112.174C236.287 111.925 236.191 111.591 236.191 111.173C236.191 111.012 236.221 110.847 236.279 110.678C236.338 110.502 236.426 110.33 236.543 110.161C236.668 109.985 236.818 109.82 236.994 109.666C237.17 109.512 237.376 109.376 237.61 109.259C237.06 108.951 236.631 108.544 236.323 108.038C236.015 107.525 235.861 106.931 235.861 106.256C235.861 105.713 235.964 105.222 236.169 104.782C236.382 104.335 236.675 103.957 237.049 103.649C237.423 103.334 237.867 103.092 238.38 102.923C238.901 102.754 239.469 102.67 240.085 102.67C240.569 102.67 241.02 102.725 241.438 102.835C241.856 102.938 242.238 103.092 242.582 103.297H245.607ZM257.246 102.857L251.031 117.289C250.965 117.436 250.881 117.553 250.778 117.641C250.683 117.729 250.532 117.773 250.327 117.773H248.875L250.91 113.351L246.312 102.857H248.006C248.175 102.857 248.307 102.901 248.402 102.989C248.505 103.07 248.574 103.161 248.611 103.264L251.592 110.282C251.709 110.59 251.808 110.913 251.889 111.25C251.992 110.905 252.102 110.579 252.219 110.271L255.112 103.264C255.156 103.147 255.229 103.051 255.332 102.978C255.442 102.897 255.563 102.857 255.695 102.857H257.246Z" fill="white"/>
</svg>
