<svg width="406" height="228" viewBox="0 0 406 228" fill="none" xmlns="http://www.w3.org/2000/svg">
<rect width="406" height="228" fill="black"/>
<path d="M83.6152 80.207V82H74.6722V66.237H76.7952V80.207H83.6152ZM92.174 75.213C92.174 74.7583 92.108 74.344 91.976 73.97C91.8514 73.5887 91.6644 73.2623 91.415 72.991C91.173 72.7123 90.876 72.4997 90.524 72.353C90.172 72.199 89.7724 72.122 89.325 72.122C88.3864 72.122 87.642 72.397 87.092 72.947C86.5494 73.4897 86.212 74.245 86.08 75.213H92.174ZM93.758 80.438C93.516 80.7313 93.2264 80.988 92.889 81.208C92.5517 81.4207 92.1887 81.5967 91.8 81.736C91.4187 81.8753 91.0227 81.978 90.612 82.044C90.2014 82.1173 89.7944 82.154 89.391 82.154C88.621 82.154 87.9097 82.0257 87.257 81.769C86.6117 81.505 86.0507 81.1237 85.574 80.625C85.1047 80.119 84.738 79.4957 84.474 78.755C84.21 78.0143 84.078 77.1637 84.078 76.203C84.078 75.4257 84.1954 74.6997 84.43 74.025C84.672 73.3503 85.0167 72.7673 85.464 72.276C85.9114 71.7773 86.4577 71.3887 87.103 71.11C87.7484 70.824 88.4744 70.681 89.281 70.681C89.9484 70.681 90.5644 70.7947 91.129 71.022C91.701 71.242 92.1924 71.5647 92.603 71.99C93.021 72.408 93.3474 72.9287 93.582 73.552C93.8167 74.168 93.934 74.872 93.934 75.664C93.934 75.972 93.901 76.1773 93.835 76.28C93.769 76.3827 93.6444 76.434 93.461 76.434H86.014C86.036 77.138 86.1314 77.7503 86.3 78.271C86.476 78.7917 86.718 79.228 87.026 79.58C87.334 79.9247 87.7007 80.185 88.126 80.361C88.5514 80.5297 89.028 80.614 89.556 80.614C90.0474 80.614 90.469 80.559 90.821 80.449C91.1804 80.3317 91.4884 80.207 91.745 80.075C92.0017 79.943 92.2144 79.822 92.383 79.712C92.559 79.5947 92.7094 79.536 92.834 79.536C92.9954 79.536 93.12 79.5983 93.208 79.723L93.758 80.438ZM104.094 72.837C104.035 72.9177 103.977 72.98 103.918 73.024C103.859 73.068 103.779 73.09 103.676 73.09C103.566 73.09 103.445 73.046 103.313 72.958C103.181 72.8627 103.016 72.76 102.818 72.65C102.627 72.54 102.389 72.441 102.103 72.353C101.824 72.2577 101.48 72.21 101.069 72.21C100.519 72.21 100.035 72.309 99.6171 72.507C99.1991 72.6977 98.8471 72.9763 98.5611 73.343C98.2824 73.7097 98.0698 74.1533 97.9231 74.674C97.7838 75.1947 97.7141 75.7777 97.7141 76.423C97.7141 77.0977 97.7911 77.699 97.9451 78.227C98.0991 78.7477 98.3154 79.1877 98.5941 79.547C98.8801 79.899 99.2211 80.1703 99.6171 80.361C100.02 80.5443 100.471 80.636 100.97 80.636C101.447 80.636 101.839 80.581 102.147 80.471C102.455 80.3537 102.708 80.2253 102.906 80.086C103.111 79.9467 103.28 79.822 103.412 79.712C103.551 79.5947 103.687 79.536 103.819 79.536C103.98 79.536 104.105 79.5983 104.193 79.723L104.743 80.438C104.501 80.7387 104.226 80.9953 103.918 81.208C103.61 81.4207 103.276 81.6003 102.917 81.747C102.565 81.8863 102.195 81.989 101.806 82.055C101.417 82.121 101.021 82.154 100.618 82.154C99.9214 82.154 99.2724 82.0257 98.6711 81.769C98.0771 81.5123 97.5601 81.142 97.1201 80.658C96.6801 80.1667 96.3354 79.5653 96.0861 78.854C95.8368 78.1427 95.7121 77.3323 95.7121 76.423C95.7121 75.5943 95.8258 74.828 96.0531 74.124C96.2878 73.42 96.6251 72.815 97.0651 72.309C97.5124 71.7957 98.0588 71.396 98.7041 71.11C99.3568 70.824 100.105 70.681 100.948 70.681C101.733 70.681 102.422 70.8093 103.016 71.066C103.617 71.3153 104.149 71.671 104.611 72.133L104.094 72.837ZM110.266 82.176C109.386 82.176 108.708 81.9303 108.231 81.439C107.762 80.9477 107.527 80.24 107.527 79.316V72.496H106.185C106.068 72.496 105.969 72.463 105.888 72.397C105.807 72.3237 105.767 72.2137 105.767 72.067V71.286L107.593 71.055L108.044 67.612C108.066 67.502 108.114 67.414 108.187 67.348C108.268 67.2747 108.37 67.238 108.495 67.238H109.485V71.077H112.708V72.496H109.485V79.184C109.485 79.6533 109.599 80.0017 109.826 80.229C110.053 80.4563 110.347 80.57 110.706 80.57C110.911 80.57 111.087 80.5443 111.234 80.493C111.388 80.4343 111.52 80.372 111.63 80.306C111.74 80.24 111.832 80.1813 111.905 80.13C111.986 80.0713 112.055 80.042 112.114 80.042C112.217 80.042 112.308 80.1043 112.389 80.229L112.961 81.164C112.624 81.4793 112.217 81.7287 111.74 81.912C111.263 82.088 110.772 82.176 110.266 82.176ZM123.893 70.857V82H122.727C122.448 82 122.272 81.8643 122.199 81.593L122.045 80.394C121.561 80.9293 121.018 81.362 120.417 81.692C119.815 82.0147 119.126 82.176 118.349 82.176C117.74 82.176 117.201 82.077 116.732 81.879C116.27 81.6737 115.881 81.3877 115.566 81.021C115.25 80.6543 115.012 80.2107 114.851 79.69C114.697 79.1693 114.62 78.5937 114.62 77.963V70.857H116.578V77.963C116.578 78.8063 116.768 79.459 117.15 79.921C117.538 80.383 118.129 80.614 118.921 80.614C119.5 80.614 120.039 80.4783 120.538 80.207C121.044 79.9283 121.509 79.547 121.935 79.063V70.857H123.893ZM128.856 73.09C129.208 72.3273 129.641 71.7333 130.154 71.308C130.668 70.8753 131.295 70.659 132.035 70.659C132.27 70.659 132.494 70.6847 132.706 70.736C132.926 70.7873 133.121 70.868 133.289 70.978L133.146 72.441C133.102 72.6243 132.992 72.716 132.816 72.716C132.714 72.716 132.563 72.694 132.365 72.65C132.167 72.606 131.944 72.584 131.694 72.584C131.342 72.584 131.027 72.6353 130.748 72.738C130.477 72.8407 130.231 72.9947 130.011 73.2C129.799 73.398 129.604 73.6473 129.428 73.948C129.26 74.2413 129.106 74.5787 128.966 74.96V82H126.997V70.857H128.119C128.332 70.857 128.479 70.8973 128.559 70.978C128.64 71.0587 128.695 71.198 128.724 71.396L128.856 73.09ZM142.018 75.213C142.018 74.7583 141.952 74.344 141.82 73.97C141.695 73.5887 141.508 73.2623 141.259 72.991C141.017 72.7123 140.72 72.4997 140.368 72.353C140.016 72.199 139.616 72.122 139.169 72.122C138.23 72.122 137.486 72.397 136.936 72.947C136.393 73.4897 136.056 74.245 135.924 75.213H142.018ZM143.602 80.438C143.36 80.7313 143.07 80.988 142.733 81.208C142.395 81.4207 142.032 81.5967 141.644 81.736C141.262 81.8753 140.866 81.978 140.456 82.044C140.045 82.1173 139.638 82.154 139.235 82.154C138.465 82.154 137.753 82.0257 137.101 81.769C136.455 81.505 135.894 81.1237 135.418 80.625C134.948 80.119 134.582 79.4957 134.318 78.755C134.054 78.0143 133.922 77.1637 133.922 76.203C133.922 75.4257 134.039 74.6997 134.274 74.025C134.516 73.3503 134.86 72.7673 135.308 72.276C135.755 71.7773 136.301 71.3887 136.947 71.11C137.592 70.824 138.318 70.681 139.125 70.681C139.792 70.681 140.408 70.7947 140.973 71.022C141.545 71.242 142.036 71.5647 142.447 71.99C142.865 72.408 143.191 72.9287 143.426 73.552C143.66 74.168 143.778 74.872 143.778 75.664C143.778 75.972 143.745 76.1773 143.679 76.28C143.613 76.3827 143.488 76.434 143.305 76.434H135.858C135.88 77.138 135.975 77.7503 136.144 78.271C136.32 78.7917 136.562 79.228 136.87 79.58C137.178 79.9247 137.544 80.185 137.97 80.361C138.395 80.5297 138.872 80.614 139.4 80.614C139.891 80.614 140.313 80.559 140.665 80.449C141.024 80.3317 141.332 80.207 141.589 80.075C141.845 79.943 142.058 79.822 142.227 79.712C142.403 79.5947 142.553 79.536 142.678 79.536C142.839 79.536 142.964 79.5983 143.052 79.723L143.602 80.438ZM161.459 80.504V82H153.011V80.504H156.388V69.757C156.388 69.4343 156.399 69.108 156.421 68.778L153.616 71.187C153.52 71.2677 153.425 71.319 153.33 71.341C153.234 71.3557 153.146 71.3557 153.066 71.341C152.985 71.3263 152.908 71.297 152.835 71.253C152.769 71.209 152.717 71.1613 152.681 71.11L152.065 70.263L156.762 66.204H158.357V80.504H161.459ZM170.026 74.575H175.46V76.236H170.026V74.575ZM186.591 82H184.457V66.237H186.591V82ZM191.837 72.474C192.079 72.2027 192.336 71.957 192.607 71.737C192.879 71.517 193.165 71.33 193.465 71.176C193.773 71.0147 194.096 70.8937 194.433 70.813C194.778 70.725 195.148 70.681 195.544 70.681C196.153 70.681 196.688 70.7837 197.15 70.989C197.62 71.187 198.008 71.473 198.316 71.847C198.632 72.2137 198.87 72.6573 199.031 73.178C199.193 73.6987 199.273 74.2743 199.273 74.905V82H197.304V74.905C197.304 74.0617 197.11 73.409 196.721 72.947C196.34 72.4777 195.757 72.243 194.972 72.243C194.393 72.243 193.85 72.3823 193.344 72.661C192.846 72.9397 192.384 73.3173 191.958 73.794V82H189.989V70.857H191.166C191.445 70.857 191.617 70.9927 191.683 71.264L191.837 72.474ZM205.528 82.176C204.648 82.176 203.969 81.9303 203.493 81.439C203.023 80.9477 202.789 80.24 202.789 79.316V72.496H201.447C201.329 72.496 201.23 72.463 201.15 72.397C201.069 72.3237 201.029 72.2137 201.029 72.067V71.286L202.855 71.055L203.306 67.612C203.328 67.502 203.375 67.414 203.449 67.348C203.529 67.2747 203.632 67.238 203.757 67.238H204.747V71.077H207.97V72.496H204.747V79.184C204.747 79.6533 204.86 80.0017 205.088 80.229C205.315 80.4563 205.608 80.57 205.968 80.57C206.173 80.57 206.349 80.5443 206.496 80.493C206.65 80.4343 206.782 80.372 206.892 80.306C207.002 80.24 207.093 80.1813 207.167 80.13C207.247 80.0713 207.317 80.042 207.376 80.042C207.478 80.042 207.57 80.1043 207.651 80.229L208.223 81.164C207.885 81.4793 207.478 81.7287 207.002 81.912C206.525 82.088 206.034 82.176 205.528 82.176ZM211.85 73.09C212.202 72.3273 212.635 71.7333 213.148 71.308C213.662 70.8753 214.289 70.659 215.029 70.659C215.264 70.659 215.488 70.6847 215.7 70.736C215.92 70.7873 216.115 70.868 216.283 70.978L216.14 72.441C216.096 72.6243 215.986 72.716 215.81 72.716C215.708 72.716 215.557 72.694 215.359 72.65C215.161 72.606 214.938 72.584 214.688 72.584C214.336 72.584 214.021 72.6353 213.742 72.738C213.471 72.8407 213.225 72.9947 213.005 73.2C212.793 73.398 212.598 73.6473 212.422 73.948C212.254 74.2413 212.1 74.5787 211.96 74.96V82H209.991V70.857H211.113C211.326 70.857 211.473 70.8973 211.553 70.978C211.634 71.0587 211.689 71.198 211.718 71.396L211.85 73.09ZM222.251 70.681C223.065 70.681 223.798 70.8167 224.451 71.088C225.104 71.3593 225.661 71.7443 226.123 72.243C226.585 72.7417 226.937 73.3467 227.179 74.058C227.428 74.762 227.553 75.5503 227.553 76.423C227.553 77.303 227.428 78.095 227.179 78.799C226.937 79.503 226.585 80.1043 226.123 80.603C225.661 81.1017 225.104 81.4867 224.451 81.758C223.798 82.022 223.065 82.154 222.251 82.154C221.43 82.154 220.689 82.022 220.029 81.758C219.376 81.4867 218.819 81.1017 218.357 80.603C217.895 80.1043 217.539 79.503 217.29 78.799C217.048 78.095 216.927 77.303 216.927 76.423C216.927 75.5503 217.048 74.762 217.29 74.058C217.539 73.3467 217.895 72.7417 218.357 72.243C218.819 71.7443 219.376 71.3593 220.029 71.088C220.689 70.8167 221.43 70.681 222.251 70.681ZM222.251 80.625C223.351 80.625 224.172 80.2583 224.715 79.525C225.258 78.7843 225.529 77.754 225.529 76.434C225.529 75.1067 225.258 74.0727 224.715 73.332C224.172 72.5913 223.351 72.221 222.251 72.221C221.694 72.221 221.206 72.3163 220.788 72.507C220.377 72.6977 220.033 72.9727 219.754 73.332C219.483 73.6913 219.277 74.135 219.138 74.663C219.006 75.1837 218.94 75.774 218.94 76.434C218.94 77.754 219.211 78.7843 219.754 79.525C220.304 80.2583 221.136 80.625 222.251 80.625ZM237.296 73.508C236.93 73.0167 236.534 72.6757 236.108 72.485C235.683 72.287 235.206 72.188 234.678 72.188C233.644 72.188 232.849 72.5583 232.291 73.299C231.734 74.0397 231.455 75.0957 231.455 76.467C231.455 77.193 231.518 77.8163 231.642 78.337C231.767 78.8503 231.95 79.2757 232.192 79.613C232.434 79.943 232.731 80.185 233.083 80.339C233.435 80.493 233.835 80.57 234.282 80.57C234.928 80.57 235.489 80.4233 235.965 80.13C236.449 79.8367 236.893 79.4223 237.296 78.887V73.508ZM239.254 65.797V82H238.088C237.81 82 237.634 81.8643 237.56 81.593L237.384 80.24C236.908 80.812 236.365 81.274 235.756 81.626C235.148 81.978 234.444 82.154 233.644 82.154C233.006 82.154 232.427 82.033 231.906 81.791C231.386 81.5417 230.942 81.1787 230.575 80.702C230.209 80.2253 229.926 79.6313 229.728 78.92C229.53 78.2087 229.431 77.391 229.431 76.467C229.431 75.6457 229.541 74.883 229.761 74.179C229.981 73.4677 230.297 72.8517 230.707 72.331C231.118 71.8103 231.62 71.4033 232.214 71.11C232.816 70.8093 233.49 70.659 234.238 70.659C234.92 70.659 235.503 70.7763 235.987 71.011C236.479 71.2383 236.915 71.5573 237.296 71.968V65.797H239.254ZM251.51 70.857V82H250.344C250.065 82 249.889 81.8643 249.816 81.593L249.662 80.394C249.178 80.9293 248.635 81.362 248.034 81.692C247.433 82.0147 246.743 82.176 245.966 82.176C245.357 82.176 244.818 82.077 244.349 81.879C243.887 81.6737 243.498 81.3877 243.183 81.021C242.868 80.6543 242.629 80.2107 242.468 79.69C242.314 79.1693 242.237 78.5937 242.237 77.963V70.857H244.195V77.963C244.195 78.8063 244.386 79.459 244.767 79.921C245.156 80.383 245.746 80.614 246.538 80.614C247.117 80.614 247.656 80.4783 248.155 80.207C248.661 79.9283 249.127 79.547 249.552 79.063V70.857H251.51ZM262.369 72.837C262.311 72.9177 262.252 72.98 262.193 73.024C262.135 73.068 262.054 73.09 261.951 73.09C261.841 73.09 261.72 73.046 261.588 72.958C261.456 72.8627 261.291 72.76 261.093 72.65C260.903 72.54 260.664 72.441 260.378 72.353C260.1 72.2577 259.755 72.21 259.344 72.21C258.794 72.21 258.31 72.309 257.892 72.507C257.474 72.6977 257.122 72.9763 256.836 73.343C256.558 73.7097 256.345 74.1533 256.198 74.674C256.059 75.1947 255.989 75.7777 255.989 76.423C255.989 77.0977 256.066 77.699 256.22 78.227C256.374 78.7477 256.591 79.1877 256.869 79.547C257.155 79.899 257.496 80.1703 257.892 80.361C258.296 80.5443 258.747 80.636 259.245 80.636C259.722 80.636 260.114 80.581 260.422 80.471C260.73 80.3537 260.983 80.2253 261.181 80.086C261.387 79.9467 261.555 79.822 261.687 79.712C261.827 79.5947 261.962 79.536 262.094 79.536C262.256 79.536 262.38 79.5983 262.468 79.723L263.018 80.438C262.776 80.7387 262.501 80.9953 262.193 81.208C261.885 81.4207 261.552 81.6003 261.192 81.747C260.84 81.8863 260.47 81.989 260.081 82.055C259.693 82.121 259.297 82.154 258.893 82.154C258.197 82.154 257.548 82.0257 256.946 81.769C256.352 81.5123 255.835 81.142 255.395 80.658C254.955 80.1667 254.611 79.5653 254.361 78.854C254.112 78.1427 253.987 77.3323 253.987 76.423C253.987 75.5943 254.101 74.828 254.328 74.124C254.563 73.42 254.9 72.815 255.34 72.309C255.788 71.7957 256.334 71.396 256.979 71.11C257.632 70.824 258.38 70.681 259.223 70.681C260.008 70.681 260.697 70.8093 261.291 71.066C261.893 71.3153 262.424 71.671 262.886 72.133L262.369 72.837ZM275.46 82H273.502V72.496H267.76V79.184C267.76 79.6533 267.874 80.0017 268.101 80.229C268.329 80.4563 268.622 80.57 268.981 80.57C269.187 80.57 269.363 80.5443 269.509 80.493C269.663 80.4343 269.795 80.372 269.905 80.306C270.015 80.24 270.107 80.1813 270.18 80.13C270.261 80.0713 270.331 80.042 270.389 80.042C270.492 80.042 270.584 80.1043 270.664 80.229L271.236 81.164C270.899 81.4793 270.492 81.7287 270.015 81.912C269.539 82.088 269.047 82.176 268.541 82.176C267.661 82.176 266.983 81.9303 266.506 81.439C266.037 80.9477 265.802 80.24 265.802 79.316V72.496H264.46C264.343 72.496 264.244 72.463 264.163 72.397C264.083 72.3237 264.042 72.2137 264.042 72.067V71.286L265.868 71.044L266.319 67.612C266.341 67.502 266.389 67.414 266.462 67.348C266.543 67.2747 266.646 67.238 266.77 67.238H267.76V71.077H275.46V82ZM275.944 67.282C275.944 67.4727 275.904 67.6523 275.823 67.821C275.75 67.9823 275.647 68.1253 275.515 68.25C275.391 68.3747 275.244 68.4737 275.075 68.547C274.907 68.6203 274.727 68.657 274.536 68.657C274.346 68.657 274.166 68.6203 273.997 68.547C273.836 68.4737 273.693 68.3747 273.568 68.25C273.444 68.1253 273.345 67.9823 273.271 67.821C273.198 67.6523 273.161 67.4727 273.161 67.282C273.161 67.0913 273.198 66.9117 273.271 66.743C273.345 66.567 273.444 66.4167 273.568 66.292C273.693 66.16 273.836 66.0573 273.997 65.984C274.166 65.9107 274.346 65.874 274.536 65.874C274.727 65.874 274.907 65.9107 275.075 65.984C275.244 66.0573 275.391 66.16 275.515 66.292C275.647 66.4167 275.75 66.567 275.823 66.743C275.904 66.9117 275.944 67.0913 275.944 67.282ZM283.374 70.681C284.188 70.681 284.921 70.8167 285.574 71.088C286.227 71.3593 286.784 71.7443 287.246 72.243C287.708 72.7417 288.06 73.3467 288.302 74.058C288.551 74.762 288.676 75.5503 288.676 76.423C288.676 77.303 288.551 78.095 288.302 78.799C288.06 79.503 287.708 80.1043 287.246 80.603C286.784 81.1017 286.227 81.4867 285.574 81.758C284.921 82.022 284.188 82.154 283.374 82.154C282.553 82.154 281.812 82.022 281.152 81.758C280.499 81.4867 279.942 81.1017 279.48 80.603C279.018 80.1043 278.662 79.503 278.413 78.799C278.171 78.095 278.05 77.303 278.05 76.423C278.05 75.5503 278.171 74.762 278.413 74.058C278.662 73.3467 279.018 72.7417 279.48 72.243C279.942 71.7443 280.499 71.3593 281.152 71.088C281.812 70.8167 282.553 70.681 283.374 70.681ZM283.374 80.625C284.474 80.625 285.295 80.2583 285.838 79.525C286.381 78.7843 286.652 77.754 286.652 76.434C286.652 75.1067 286.381 74.0727 285.838 73.332C285.295 72.5913 284.474 72.221 283.374 72.221C282.817 72.221 282.329 72.3163 281.911 72.507C281.5 72.6977 281.156 72.9727 280.877 73.332C280.606 73.6913 280.4 74.135 280.261 74.663C280.129 75.1837 280.063 75.774 280.063 76.434C280.063 77.754 280.334 78.7843 280.877 79.525C281.427 80.2583 282.259 80.625 283.374 80.625ZM293.007 72.474C293.249 72.2027 293.506 71.957 293.777 71.737C294.049 71.517 294.335 71.33 294.635 71.176C294.943 71.0147 295.266 70.8937 295.603 70.813C295.948 70.725 296.318 70.681 296.714 70.681C297.323 70.681 297.858 70.7837 298.32 70.989C298.79 71.187 299.178 71.473 299.486 71.847C299.802 72.2137 300.04 72.6573 300.201 73.178C300.363 73.6987 300.443 74.2743 300.443 74.905V82H298.474V74.905C298.474 74.0617 298.28 73.409 297.891 72.947C297.51 72.4777 296.927 72.243 296.142 72.243C295.563 72.243 295.02 72.3823 294.514 72.661C294.016 72.9397 293.554 73.3173 293.128 73.794V82H291.159V70.857H292.336C292.615 70.857 292.787 70.9927 292.853 71.264L293.007 72.474ZM324.082 74.124C324.082 75.3047 323.895 76.39 323.521 77.38C323.147 78.3627 322.619 79.2097 321.937 79.921C321.255 80.6323 320.434 81.186 319.473 81.582C318.52 81.9707 317.464 82.165 316.305 82.165C315.146 82.165 314.09 81.9707 313.137 81.582C312.184 81.186 311.366 80.6323 310.684 79.921C310.002 79.2097 309.474 78.3627 309.1 77.38C308.726 76.39 308.539 75.3047 308.539 74.124C308.539 72.9433 308.726 71.8617 309.1 70.879C309.474 69.889 310.002 69.0383 310.684 68.327C311.366 67.6083 312.184 67.051 313.137 66.655C314.09 66.259 315.146 66.061 316.305 66.061C317.464 66.061 318.52 66.259 319.473 66.655C320.434 67.051 321.255 67.6083 321.937 68.327C322.619 69.0383 323.147 69.889 323.521 70.879C323.895 71.8617 324.082 72.9433 324.082 74.124ZM321.893 74.124C321.893 73.156 321.761 72.287 321.497 71.517C321.233 70.747 320.859 70.098 320.375 69.57C319.891 69.0347 319.304 68.624 318.615 68.338C317.926 68.052 317.156 67.909 316.305 67.909C315.462 67.909 314.695 68.052 314.006 68.338C313.317 68.624 312.726 69.0347 312.235 69.57C311.751 70.098 311.377 70.747 311.113 71.517C310.849 72.287 310.717 73.156 310.717 74.124C310.717 75.092 310.849 75.961 311.113 76.731C311.377 77.4937 311.751 78.1427 312.235 78.678C312.726 79.206 313.317 79.613 314.006 79.899C314.695 80.1777 315.462 80.317 316.305 80.317C317.156 80.317 317.926 80.1777 318.615 79.899C319.304 79.613 319.891 79.206 320.375 78.678C320.859 78.1427 321.233 77.4937 321.497 76.731C321.761 75.961 321.893 75.092 321.893 74.124ZM327.313 82V72.529L326.081 72.386C325.927 72.3493 325.799 72.2943 325.696 72.221C325.601 72.1403 325.553 72.0267 325.553 71.88V71.077H327.313V69.999C327.313 69.361 327.401 68.7963 327.577 68.305C327.76 67.8063 328.017 67.3883 328.347 67.051C328.684 66.7063 329.088 66.446 329.557 66.27C330.026 66.094 330.554 66.006 331.141 66.006C331.64 66.006 332.098 66.0793 332.516 66.226L332.472 67.205C332.457 67.381 332.358 67.4763 332.175 67.491C331.999 67.5057 331.761 67.513 331.46 67.513C331.123 67.513 330.815 67.557 330.536 67.645C330.265 67.733 330.03 67.876 329.832 68.074C329.634 68.272 329.48 68.5323 329.37 68.855C329.267 69.1777 329.216 69.5773 329.216 70.054V71.077H332.428V72.496H329.282V82H327.313ZM158.043 106.306C158.652 106.306 159.176 106.236 159.616 106.097C160.056 105.958 160.415 105.763 160.694 105.514C160.98 105.257 161.189 104.957 161.321 104.612C161.453 104.26 161.519 103.875 161.519 103.457C161.519 102.643 161.229 102.001 160.65 101.532C160.071 101.055 159.202 100.817 158.043 100.817H154.633V106.306H158.043ZM154.633 93.92V99.299H157.449C158.05 99.299 158.571 99.233 159.011 99.101C159.458 98.969 159.825 98.7857 160.111 98.551C160.404 98.3163 160.621 98.034 160.76 97.704C160.899 97.3667 160.969 97 160.969 96.604C160.969 95.6727 160.69 94.9943 160.133 94.569C159.576 94.1363 158.71 93.92 157.537 93.92H154.633ZM157.537 92.237C158.505 92.237 159.337 92.3323 160.034 92.523C160.738 92.7137 161.314 92.985 161.761 93.337C162.216 93.689 162.549 94.1217 162.762 94.635C162.975 95.141 163.081 95.713 163.081 96.351C163.081 96.7397 163.019 97.1137 162.894 97.473C162.777 97.825 162.597 98.155 162.355 98.463C162.113 98.771 161.805 99.0497 161.431 99.299C161.064 99.541 160.632 99.739 160.133 99.893C161.292 100.113 162.161 100.527 162.74 101.136C163.327 101.737 163.62 102.529 163.62 103.512C163.62 104.179 163.495 104.788 163.246 105.338C163.004 105.888 162.645 106.361 162.168 106.757C161.699 107.153 161.119 107.461 160.43 107.681C159.741 107.894 158.956 108 158.076 108H152.51V92.237H157.537ZM168.08 91.797V108H166.122V91.797H168.08ZM175.952 96.681C176.766 96.681 177.499 96.8167 178.152 97.088C178.805 97.3593 179.362 97.7443 179.824 98.243C180.286 98.7417 180.638 99.3467 180.88 100.058C181.129 100.762 181.254 101.55 181.254 102.423C181.254 103.303 181.129 104.095 180.88 104.799C180.638 105.503 180.286 106.104 179.824 106.603C179.362 107.102 178.805 107.487 178.152 107.758C177.499 108.022 176.766 108.154 175.952 108.154C175.131 108.154 174.39 108.022 173.73 107.758C173.077 107.487 172.52 107.102 172.058 106.603C171.596 106.104 171.24 105.503 170.991 104.799C170.749 104.095 170.628 103.303 170.628 102.423C170.628 101.55 170.749 100.762 170.991 100.058C171.24 99.3467 171.596 98.7417 172.058 98.243C172.52 97.7443 173.077 97.3593 173.73 97.088C174.39 96.8167 175.131 96.681 175.952 96.681ZM175.952 106.625C177.052 106.625 177.873 106.258 178.416 105.525C178.959 104.784 179.23 103.754 179.23 102.434C179.23 101.107 178.959 100.073 178.416 99.332C177.873 98.5913 177.052 98.221 175.952 98.221C175.395 98.221 174.907 98.3163 174.489 98.507C174.078 98.6977 173.734 98.9727 173.455 99.332C173.184 99.6913 172.978 100.135 172.839 100.663C172.707 101.184 172.641 101.774 172.641 102.434C172.641 103.754 172.912 104.784 173.455 105.525C174.005 106.258 174.837 106.625 175.952 106.625ZM191.493 98.837C191.434 98.9177 191.375 98.98 191.317 99.024C191.258 99.068 191.177 99.09 191.075 99.09C190.965 99.09 190.844 99.046 190.712 98.958C190.58 98.8627 190.415 98.76 190.217 98.65C190.026 98.54 189.788 98.441 189.502 98.353C189.223 98.2577 188.878 98.21 188.468 98.21C187.918 98.21 187.434 98.309 187.016 98.507C186.598 98.6977 186.246 98.9763 185.96 99.343C185.681 99.7097 185.468 100.153 185.322 100.674C185.182 101.195 185.113 101.778 185.113 102.423C185.113 103.098 185.19 103.699 185.344 104.227C185.498 104.748 185.714 105.188 185.993 105.547C186.279 105.899 186.62 106.17 187.016 106.361C187.419 106.544 187.87 106.636 188.369 106.636C188.845 106.636 189.238 106.581 189.546 106.471C189.854 106.354 190.107 106.225 190.305 106.086C190.51 105.947 190.679 105.822 190.811 105.712C190.95 105.595 191.086 105.536 191.218 105.536C191.379 105.536 191.504 105.598 191.592 105.723L192.142 106.438C191.9 106.739 191.625 106.995 191.317 107.208C191.009 107.421 190.675 107.6 190.316 107.747C189.964 107.886 189.593 107.989 189.205 108.055C188.816 108.121 188.42 108.154 188.017 108.154C187.32 108.154 186.671 108.026 186.07 107.769C185.476 107.512 184.959 107.142 184.519 106.658C184.079 106.167 183.734 105.565 183.485 104.854C183.235 104.143 183.111 103.332 183.111 102.423C183.111 101.594 183.224 100.828 183.452 100.124C183.686 99.42 184.024 98.815 184.464 98.309C184.911 97.7957 185.457 97.396 186.103 97.11C186.755 96.824 187.503 96.681 188.347 96.681C189.131 96.681 189.821 96.8093 190.415 97.066C191.016 97.3153 191.548 97.671 192.01 98.133L191.493 98.837ZM196.212 91.797V101.334H196.718C196.865 101.334 196.986 101.316 197.081 101.279C197.184 101.235 197.29 101.151 197.4 101.026L200.92 97.253C201.023 97.1283 201.129 97.033 201.239 96.967C201.357 96.8937 201.511 96.857 201.701 96.857H203.472L199.369 101.224C199.171 101.473 198.959 101.668 198.731 101.807C198.863 101.895 198.981 101.998 199.083 102.115C199.193 102.225 199.296 102.353 199.391 102.5L203.747 108H201.998C201.83 108 201.683 107.974 201.558 107.923C201.441 107.864 201.338 107.762 201.25 107.615L197.587 103.05C197.477 102.896 197.367 102.797 197.257 102.753C197.155 102.702 196.993 102.676 196.773 102.676H196.212V108H194.243V91.797H196.212ZM212.547 98.837C212.489 98.9177 212.43 98.98 212.371 99.024C212.313 99.068 212.232 99.09 212.129 99.09C212.019 99.09 211.898 99.046 211.766 98.958C211.634 98.8627 211.469 98.76 211.271 98.65C211.081 98.54 210.842 98.441 210.556 98.353C210.278 98.2577 209.933 98.21 209.522 98.21C208.972 98.21 208.488 98.309 208.07 98.507C207.652 98.6977 207.3 98.9763 207.014 99.343C206.736 99.7097 206.523 100.153 206.376 100.674C206.237 101.195 206.167 101.778 206.167 102.423C206.167 103.098 206.244 103.699 206.398 104.227C206.552 104.748 206.769 105.188 207.047 105.547C207.333 105.899 207.674 106.17 208.07 106.361C208.474 106.544 208.925 106.636 209.423 106.636C209.9 106.636 210.292 106.581 210.6 106.471C210.908 106.354 211.161 106.225 211.359 106.086C211.565 105.947 211.733 105.822 211.865 105.712C212.005 105.595 212.14 105.536 212.272 105.536C212.434 105.536 212.558 105.598 212.646 105.723L213.196 106.438C212.954 106.739 212.679 106.995 212.371 107.208C212.063 107.421 211.73 107.6 211.37 107.747C211.018 107.886 210.648 107.989 210.259 108.055C209.871 108.121 209.475 108.154 209.071 108.154C208.375 108.154 207.726 108.026 207.124 107.769C206.53 107.512 206.013 107.142 205.573 106.658C205.133 106.167 204.789 105.565 204.539 104.854C204.29 104.143 204.165 103.332 204.165 102.423C204.165 101.594 204.279 100.828 204.506 100.124C204.741 99.42 205.078 98.815 205.518 98.309C205.966 97.7957 206.512 97.396 207.157 97.11C207.81 96.824 208.558 96.681 209.401 96.681C210.186 96.681 210.875 96.8093 211.469 97.066C212.071 97.3153 212.602 97.671 213.064 98.133L212.547 98.837ZM217.267 98.342C217.744 97.836 218.272 97.4327 218.851 97.132C219.43 96.8313 220.098 96.681 220.853 96.681C221.462 96.681 221.997 96.7837 222.459 96.989C222.928 97.187 223.317 97.473 223.625 97.847C223.94 98.2137 224.179 98.6573 224.34 99.178C224.501 99.6987 224.582 100.274 224.582 100.905V108H222.613V100.905C222.613 100.062 222.419 99.409 222.03 98.947C221.649 98.4777 221.066 98.243 220.281 98.243C219.702 98.243 219.159 98.3823 218.653 98.661C218.154 98.9397 217.692 99.3173 217.267 99.794V108H215.298V91.797H217.267V98.342ZM233.605 102.984C232.703 103.013 231.933 103.087 231.295 103.204C230.664 103.314 230.147 103.461 229.744 103.644C229.348 103.827 229.058 104.044 228.875 104.293C228.699 104.542 228.611 104.821 228.611 105.129C228.611 105.422 228.658 105.675 228.754 105.888C228.849 106.101 228.977 106.277 229.139 106.416C229.307 106.548 229.502 106.647 229.722 106.713C229.949 106.772 230.191 106.801 230.448 106.801C230.792 106.801 231.108 106.768 231.394 106.702C231.68 106.629 231.947 106.526 232.197 106.394C232.453 106.262 232.695 106.104 232.923 105.921C233.157 105.738 233.385 105.529 233.605 105.294V102.984ZM227.28 98.43C227.896 97.836 228.559 97.3923 229.271 97.099C229.982 96.8057 230.77 96.659 231.636 96.659C232.259 96.659 232.813 96.7617 233.297 96.967C233.781 97.1723 234.188 97.4583 234.518 97.825C234.848 98.1917 235.097 98.6353 235.266 99.156C235.434 99.6767 235.519 100.249 235.519 100.872V108H234.65C234.459 108 234.312 107.971 234.21 107.912C234.107 107.846 234.026 107.721 233.968 107.538L233.748 106.482C233.454 106.753 233.168 106.995 232.89 107.208C232.611 107.413 232.318 107.589 232.01 107.736C231.702 107.875 231.372 107.982 231.02 108.055C230.675 108.136 230.29 108.176 229.865 108.176C229.432 108.176 229.025 108.117 228.644 108C228.262 107.875 227.929 107.692 227.643 107.45C227.364 107.208 227.14 106.904 226.972 106.537C226.81 106.163 226.73 105.723 226.73 105.217C226.73 104.777 226.851 104.355 227.093 103.952C227.335 103.541 227.727 103.178 228.27 102.863C228.812 102.548 229.52 102.291 230.393 102.093C231.265 101.888 232.336 101.77 233.605 101.741V100.872C233.605 100.007 233.418 99.354 233.044 98.914C232.67 98.4667 232.123 98.243 231.405 98.243C230.921 98.243 230.514 98.3053 230.184 98.43C229.861 98.5473 229.579 98.683 229.337 98.837C229.102 98.9837 228.897 99.1193 228.721 99.244C228.552 99.3613 228.383 99.42 228.215 99.42C228.083 99.42 227.969 99.387 227.874 99.321C227.778 99.2477 227.698 99.1597 227.632 99.057L227.28 98.43ZM240.569 96.857V108H238.611V96.857H240.569ZM240.987 93.359C240.987 93.5497 240.947 93.7293 240.866 93.898C240.793 94.0593 240.69 94.206 240.558 94.338C240.434 94.4627 240.283 94.5617 240.107 94.635C239.939 94.7083 239.759 94.745 239.568 94.745C239.378 94.745 239.198 94.7083 239.029 94.635C238.868 94.5617 238.725 94.4627 238.6 94.338C238.476 94.206 238.377 94.0593 238.303 93.898C238.23 93.7293 238.193 93.5497 238.193 93.359C238.193 93.1683 238.23 92.9887 238.303 92.82C238.377 92.644 238.476 92.4937 238.6 92.369C238.725 92.237 238.868 92.1343 239.029 92.061C239.198 91.9877 239.378 91.951 239.568 91.951C239.759 91.951 239.939 91.9877 240.107 92.061C240.283 92.1343 240.434 92.237 240.558 92.369C240.69 92.4937 240.793 92.644 240.866 92.82C240.947 92.9887 240.987 93.1683 240.987 93.359ZM245.634 98.474C245.876 98.2027 246.133 97.957 246.404 97.737C246.676 97.517 246.962 97.33 247.262 97.176C247.57 97.0147 247.893 96.8937 248.23 96.813C248.575 96.725 248.945 96.681 249.341 96.681C249.95 96.681 250.485 96.7837 250.947 96.989C251.417 97.187 251.805 97.473 252.113 97.847C252.429 98.2137 252.667 98.6573 252.828 99.178C252.99 99.6987 253.07 100.274 253.07 100.905V108H251.101V100.905C251.101 100.062 250.907 99.409 250.518 98.947C250.137 98.4777 249.554 98.243 248.769 98.243C248.19 98.243 247.647 98.3823 247.141 98.661C246.643 98.9397 246.181 99.3173 245.755 99.794V108H243.786V96.857H244.963C245.242 96.857 245.414 96.9927 245.48 97.264L245.634 98.474Z" fill="white"/>
</svg>
