<svg width="406" height="228" viewBox="0 0 406 228" fill="none" xmlns="http://www.w3.org/2000/svg">
<rect width="406" height="228" fill="black"/>
<path d="M67.1474 80.207V82H58.2044V66.237H60.3274V80.207H67.1474ZM75.7063 75.213C75.7063 74.7583 75.6403 74.344 75.5083 73.97C75.3836 73.5887 75.1966 73.2623 74.9473 72.991C74.7053 72.7123 74.4083 72.4997 74.0563 72.353C73.7043 72.199 73.3046 72.122 72.8573 72.122C71.9186 72.122 71.1743 72.397 70.6243 72.947C70.0816 73.4897 69.7443 74.245 69.6123 75.213H75.7063ZM77.2903 80.438C77.0483 80.7313 76.7586 80.988 76.4213 81.208C76.0839 81.4207 75.7209 81.5967 75.3323 81.736C74.9509 81.8753 74.5549 81.978 74.1443 82.044C73.7336 82.1173 73.3266 82.154 72.9233 82.154C72.1533 82.154 71.4419 82.0257 70.7893 81.769C70.1439 81.505 69.5829 81.1237 69.1063 80.625C68.6369 80.119 68.2703 79.4957 68.0063 78.755C67.7423 78.0143 67.6103 77.1637 67.6103 76.203C67.6103 75.4257 67.7276 74.6997 67.9623 74.025C68.2043 73.3503 68.5489 72.7673 68.9963 72.276C69.4436 71.7773 69.9899 71.3887 70.6353 71.11C71.2806 70.824 72.0066 70.681 72.8133 70.681C73.4806 70.681 74.0966 70.7947 74.6613 71.022C75.2333 71.242 75.7246 71.5647 76.1353 71.99C76.5533 72.408 76.8796 72.9287 77.1143 73.552C77.3489 74.168 77.4663 74.872 77.4663 75.664C77.4663 75.972 77.4333 76.1773 77.3673 76.28C77.3013 76.3827 77.1766 76.434 76.9933 76.434H69.5463C69.5683 77.138 69.6636 77.7503 69.8323 78.271C70.0083 78.7917 70.2503 79.228 70.5583 79.58C70.8663 79.9247 71.2329 80.185 71.6583 80.361C72.0836 80.5297 72.5603 80.614 73.0883 80.614C73.5796 80.614 74.0013 80.559 74.3533 80.449C74.7126 80.3317 75.0206 80.207 75.2773 80.075C75.5339 79.943 75.7466 79.822 75.9153 79.712C76.0913 79.5947 76.2416 79.536 76.3663 79.536C76.5276 79.536 76.6523 79.5983 76.7403 79.723L77.2903 80.438ZM87.6263 72.837C87.5676 72.9177 87.509 72.98 87.4503 73.024C87.3916 73.068 87.311 73.09 87.2083 73.09C87.0983 73.09 86.9773 73.046 86.8453 72.958C86.7133 72.8627 86.5483 72.76 86.3503 72.65C86.1596 72.54 85.9213 72.441 85.6353 72.353C85.3566 72.2577 85.012 72.21 84.6013 72.21C84.0513 72.21 83.5673 72.309 83.1493 72.507C82.7313 72.6977 82.3793 72.9763 82.0933 73.343C81.8146 73.7097 81.602 74.1533 81.4553 74.674C81.316 75.1947 81.2463 75.7777 81.2463 76.423C81.2463 77.0977 81.3233 77.699 81.4773 78.227C81.6313 78.7477 81.8476 79.1877 82.1263 79.547C82.4123 79.899 82.7533 80.1703 83.1493 80.361C83.5526 80.5443 84.0036 80.636 84.5023 80.636C84.979 80.636 85.3713 80.581 85.6793 80.471C85.9873 80.3537 86.2403 80.2253 86.4383 80.086C86.6436 79.9467 86.8123 79.822 86.9443 79.712C87.0836 79.5947 87.2193 79.536 87.3513 79.536C87.5126 79.536 87.6373 79.5983 87.7253 79.723L88.2753 80.438C88.0333 80.7387 87.7583 80.9953 87.4503 81.208C87.1423 81.4207 86.8086 81.6003 86.4493 81.747C86.0973 81.8863 85.727 81.989 85.3383 82.055C84.9496 82.121 84.5536 82.154 84.1503 82.154C83.4536 82.154 82.8046 82.0257 82.2033 81.769C81.6093 81.5123 81.0923 81.142 80.6523 80.658C80.2123 80.1667 79.8676 79.5653 79.6183 78.854C79.369 78.1427 79.2443 77.3323 79.2443 76.423C79.2443 75.5943 79.358 74.828 79.5853 74.124C79.82 73.42 80.1573 72.815 80.5973 72.309C81.0446 71.7957 81.591 71.396 82.2363 71.11C82.889 70.824 83.637 70.681 84.4803 70.681C85.265 70.681 85.9543 70.8093 86.5483 71.066C87.1496 71.3153 87.6813 71.671 88.1433 72.133L87.6263 72.837ZM93.7982 82.176C92.9182 82.176 92.2398 81.9303 91.7632 81.439C91.2938 80.9477 91.0592 80.24 91.0592 79.316V72.496H89.7172C89.5998 72.496 89.5008 72.463 89.4202 72.397C89.3395 72.3237 89.2992 72.2137 89.2992 72.067V71.286L91.1252 71.055L91.5762 67.612C91.5982 67.502 91.6458 67.414 91.7192 67.348C91.7998 67.2747 91.9025 67.238 92.0272 67.238H93.0172V71.077H96.2402V72.496H93.0172V79.184C93.0172 79.6533 93.1308 80.0017 93.3582 80.229C93.5855 80.4563 93.8788 80.57 94.2382 80.57C94.4435 80.57 94.6195 80.5443 94.7662 80.493C94.9202 80.4343 95.0522 80.372 95.1622 80.306C95.2722 80.24 95.3638 80.1813 95.4372 80.13C95.5178 80.0713 95.5875 80.042 95.6462 80.042C95.7488 80.042 95.8405 80.1043 95.9212 80.229L96.4932 81.164C96.1558 81.4793 95.7488 81.7287 95.2722 81.912C94.7955 82.088 94.3042 82.176 93.7982 82.176ZM107.425 70.857V82H106.259C105.98 82 105.804 81.8643 105.731 81.593L105.577 80.394C105.093 80.9293 104.55 81.362 103.949 81.692C103.348 82.0147 102.658 82.176 101.881 82.176C101.272 82.176 100.733 82.077 100.264 81.879C99.8019 81.6737 99.4133 81.3877 99.0979 81.021C98.7826 80.6543 98.5443 80.2107 98.3829 79.69C98.2289 79.1693 98.1519 78.5937 98.1519 77.963V70.857H100.11V77.963C100.11 78.8063 100.301 79.459 100.682 79.921C101.071 80.383 101.661 80.614 102.453 80.614C103.032 80.614 103.571 80.4783 104.07 80.207C104.576 79.9283 105.042 79.547 105.467 79.063V70.857H107.425ZM112.389 73.09C112.741 72.3273 113.173 71.7333 113.687 71.308C114.2 70.8753 114.827 70.659 115.568 70.659C115.802 70.659 116.026 70.6847 116.239 70.736C116.459 70.7873 116.653 70.868 116.822 70.978L116.679 72.441C116.635 72.6243 116.525 72.716 116.349 72.716C116.246 72.716 116.096 72.694 115.898 72.65C115.7 72.606 115.476 72.584 115.227 72.584C114.875 72.584 114.559 72.6353 114.281 72.738C114.009 72.8407 113.764 72.9947 113.544 73.2C113.331 73.398 113.137 73.6473 112.961 73.948C112.792 74.2413 112.638 74.5787 112.499 74.96V82H110.53V70.857H111.652C111.864 70.857 112.011 70.8973 112.092 70.978C112.172 71.0587 112.227 71.198 112.257 71.396L112.389 73.09ZM125.55 75.213C125.55 74.7583 125.484 74.344 125.352 73.97C125.227 73.5887 125.04 73.2623 124.791 72.991C124.549 72.7123 124.252 72.4997 123.9 72.353C123.548 72.199 123.148 72.122 122.701 72.122C121.762 72.122 121.018 72.397 120.468 72.947C119.925 73.4897 119.588 74.245 119.456 75.213H125.55ZM127.134 80.438C126.892 80.7313 126.602 80.988 126.265 81.208C125.928 81.4207 125.565 81.5967 125.176 81.736C124.795 81.8753 124.399 81.978 123.988 82.044C123.577 82.1173 123.17 82.154 122.767 82.154C121.997 82.154 121.286 82.0257 120.633 81.769C119.988 81.505 119.427 81.1237 118.95 80.625C118.481 80.119 118.114 79.4957 117.85 78.755C117.586 78.0143 117.454 77.1637 117.454 76.203C117.454 75.4257 117.571 74.6997 117.806 74.025C118.048 73.3503 118.393 72.7673 118.84 72.276C119.287 71.7773 119.834 71.3887 120.479 71.11C121.124 70.824 121.85 70.681 122.657 70.681C123.324 70.681 123.94 70.7947 124.505 71.022C125.077 71.242 125.568 71.5647 125.979 71.99C126.397 72.408 126.723 72.9287 126.958 73.552C127.193 74.168 127.31 74.872 127.31 75.664C127.31 75.972 127.277 76.1773 127.211 76.28C127.145 76.3827 127.02 76.434 126.837 76.434H119.39C119.412 77.138 119.507 77.7503 119.676 78.271C119.852 78.7917 120.094 79.228 120.402 79.58C120.71 79.9247 121.077 80.185 121.502 80.361C121.927 80.5297 122.404 80.614 122.932 80.614C123.423 80.614 123.845 80.559 124.197 80.449C124.556 80.3317 124.864 80.207 125.121 80.075C125.378 79.943 125.59 79.822 125.759 79.712C125.935 79.5947 126.085 79.536 126.21 79.536C126.371 79.536 126.496 79.5983 126.584 79.723L127.134 80.438ZM144.65 80.141C144.863 80.141 145.031 80.2033 145.156 80.328C145.281 80.4527 145.343 80.614 145.343 80.812V82H134.827V81.329C134.827 81.1897 134.856 81.0467 134.915 80.9C134.974 80.7533 135.065 80.6177 135.19 80.493L140.239 75.422C140.657 74.9967 141.038 74.5897 141.383 74.201C141.728 73.805 142.021 73.409 142.263 73.013C142.505 72.617 142.692 72.2173 142.824 71.814C142.956 71.4033 143.022 70.967 143.022 70.505C143.022 70.043 142.949 69.6397 142.802 69.295C142.655 68.943 142.454 68.6533 142.197 68.426C141.948 68.1987 141.651 68.03 141.306 67.92C140.961 67.8027 140.591 67.744 140.195 67.744C139.792 67.744 139.421 67.8027 139.084 67.92C138.747 68.0373 138.446 68.2023 138.182 68.415C137.925 68.6203 137.709 68.866 137.533 69.152C137.357 69.438 137.232 69.7533 137.159 70.098C137.071 70.3547 136.95 70.527 136.796 70.615C136.649 70.6957 136.44 70.7177 136.169 70.681L135.146 70.505C135.249 69.7863 135.447 69.152 135.74 68.602C136.041 68.0447 136.415 67.579 136.862 67.205C137.317 66.831 137.834 66.5487 138.413 66.358C138.992 66.16 139.619 66.061 140.294 66.061C140.961 66.061 141.585 66.16 142.164 66.358C142.743 66.556 143.246 66.8457 143.671 67.227C144.096 67.601 144.43 68.0593 144.672 68.602C144.914 69.1447 145.035 69.7607 145.035 70.45C145.035 71.0367 144.947 71.583 144.771 72.089C144.595 72.5877 144.357 73.0643 144.056 73.519C143.755 73.9737 143.407 74.4173 143.011 74.85C142.622 75.2827 142.208 75.719 141.768 76.159L137.61 80.405C137.903 80.3243 138.2 80.262 138.501 80.218C138.802 80.1667 139.091 80.141 139.37 80.141H144.65ZM153.559 74.575H158.993V76.236H153.559V74.575ZM179.056 78.744C179.173 78.744 179.276 78.7917 179.364 78.887L180.211 79.8C179.565 80.548 178.781 81.131 177.857 81.549C176.94 81.967 175.829 82.176 174.524 82.176C173.394 82.176 172.368 81.9817 171.444 81.593C170.52 81.197 169.731 80.647 169.079 79.943C168.426 79.2317 167.92 78.381 167.561 77.391C167.201 76.401 167.022 75.312 167.022 74.124C167.022 72.936 167.209 71.847 167.583 70.857C167.957 69.867 168.481 69.0163 169.156 68.305C169.838 67.5937 170.652 67.0437 171.598 66.655C172.544 66.259 173.589 66.061 174.733 66.061C175.855 66.061 176.845 66.2407 177.703 66.6C178.561 66.9593 179.316 67.447 179.969 68.063L179.265 69.042C179.221 69.1153 179.162 69.1777 179.089 69.229C179.023 69.273 178.931 69.295 178.814 69.295C178.682 69.295 178.52 69.2253 178.33 69.086C178.139 68.9393 177.89 68.778 177.582 68.602C177.274 68.426 176.889 68.2683 176.427 68.129C175.965 67.9823 175.396 67.909 174.722 67.909C173.908 67.909 173.163 68.052 172.489 68.338C171.814 68.6167 171.231 69.0237 170.74 69.559C170.256 70.0943 169.878 70.747 169.607 71.517C169.335 72.287 169.2 73.156 169.2 74.124C169.2 75.1067 169.339 75.983 169.618 76.753C169.904 77.523 170.289 78.1757 170.773 78.711C171.264 79.239 171.84 79.6423 172.5 79.921C173.167 80.1997 173.886 80.339 174.656 80.339C175.125 80.339 175.547 80.3133 175.921 80.262C176.302 80.2033 176.65 80.1153 176.966 79.998C177.288 79.8807 177.585 79.734 177.857 79.558C178.135 79.3747 178.41 79.1583 178.682 78.909C178.806 78.799 178.931 78.744 179.056 78.744ZM184.017 73.09C184.369 72.3273 184.802 71.7333 185.315 71.308C185.829 70.8753 186.456 70.659 187.196 70.659C187.431 70.659 187.655 70.6847 187.867 70.736C188.087 70.7873 188.282 70.868 188.45 70.978L188.307 72.441C188.263 72.6243 188.153 72.716 187.977 72.716C187.875 72.716 187.724 72.694 187.526 72.65C187.328 72.606 187.105 72.584 186.855 72.584C186.503 72.584 186.188 72.6353 185.909 72.738C185.638 72.8407 185.392 72.9947 185.172 73.2C184.96 73.398 184.765 73.6473 184.589 73.948C184.421 74.2413 184.267 74.5787 184.127 74.96V82H182.158V70.857H183.28C183.493 70.857 183.64 70.8973 183.72 70.978C183.801 71.0587 183.856 71.198 183.885 71.396L184.017 73.09ZM199.786 70.857L193.571 85.289C193.505 85.4357 193.421 85.553 193.318 85.641C193.223 85.729 193.072 85.773 192.867 85.773H191.415L193.45 81.351L188.852 70.857H190.546C190.715 70.857 190.847 70.901 190.942 70.989C191.045 71.0697 191.114 71.1613 191.151 71.264L194.132 78.282C194.249 78.59 194.348 78.9127 194.429 79.25C194.532 78.9053 194.642 78.579 194.759 78.271L197.652 71.264C197.696 71.1467 197.769 71.0513 197.872 70.978C197.982 70.8973 198.103 70.857 198.235 70.857H199.786ZM203.485 79.316C203.844 79.8 204.237 80.141 204.662 80.339C205.087 80.537 205.564 80.636 206.092 80.636C207.133 80.636 207.933 80.2657 208.49 79.525C209.047 78.7843 209.326 77.7283 209.326 76.357C209.326 75.631 209.26 75.0077 209.128 74.487C209.003 73.9663 208.82 73.541 208.578 73.211C208.336 72.8737 208.039 72.628 207.687 72.474C207.335 72.32 206.935 72.243 206.488 72.243C205.85 72.243 205.289 72.3897 204.805 72.683C204.328 72.9763 203.888 73.3907 203.485 73.926V79.316ZM203.386 72.584C203.855 72.0047 204.398 71.539 205.014 71.187C205.63 70.835 206.334 70.659 207.126 70.659C207.771 70.659 208.354 70.7837 208.875 71.033C209.396 71.275 209.839 71.638 210.206 72.122C210.573 72.5987 210.855 73.1927 211.053 73.904C211.251 74.6153 211.35 75.433 211.35 76.357C211.35 77.1783 211.24 77.9447 211.02 78.656C210.8 79.36 210.481 79.9723 210.063 80.493C209.652 81.0063 209.146 81.4133 208.545 81.714C207.951 82.0073 207.28 82.154 206.532 82.154C205.85 82.154 205.263 82.0403 204.772 81.813C204.288 81.5783 203.859 81.2557 203.485 80.845V85.773H201.516V70.857H202.693C202.972 70.857 203.144 70.9927 203.21 71.264L203.386 72.584ZM217.118 82.176C216.238 82.176 215.56 81.9303 215.083 81.439C214.614 80.9477 214.379 80.24 214.379 79.316V72.496H213.037C212.92 72.496 212.821 72.463 212.74 72.397C212.66 72.3237 212.619 72.2137 212.619 72.067V71.286L214.445 71.055L214.896 67.612C214.918 67.502 214.966 67.414 215.039 67.348C215.12 67.2747 215.223 67.238 215.347 67.238H216.337V71.077H219.56V72.496H216.337V79.184C216.337 79.6533 216.451 80.0017 216.678 80.229C216.906 80.4563 217.199 80.57 217.558 80.57C217.764 80.57 217.94 80.5443 218.086 80.493C218.24 80.4343 218.372 80.372 218.482 80.306C218.592 80.24 218.684 80.1813 218.757 80.13C218.838 80.0713 218.908 80.042 218.966 80.042C219.069 80.042 219.161 80.1043 219.241 80.229L219.813 81.164C219.476 81.4793 219.069 81.7287 218.592 81.912C218.116 82.088 217.624 82.176 217.118 82.176ZM226.215 70.681C227.029 70.681 227.762 70.8167 228.415 71.088C229.067 71.3593 229.625 71.7443 230.087 72.243C230.549 72.7417 230.901 73.3467 231.143 74.058C231.392 74.762 231.517 75.5503 231.517 76.423C231.517 77.303 231.392 78.095 231.143 78.799C230.901 79.503 230.549 80.1043 230.087 80.603C229.625 81.1017 229.067 81.4867 228.415 81.758C227.762 82.022 227.029 82.154 226.215 82.154C225.393 82.154 224.653 82.022 223.993 81.758C223.34 81.4867 222.783 81.1017 222.321 80.603C221.859 80.1043 221.503 79.503 221.254 78.799C221.012 78.095 220.891 77.303 220.891 76.423C220.891 75.5503 221.012 74.762 221.254 74.058C221.503 73.3467 221.859 72.7417 222.321 72.243C222.783 71.7443 223.34 71.3593 223.993 71.088C224.653 70.8167 225.393 70.681 226.215 70.681ZM226.215 80.625C227.315 80.625 228.136 80.2583 228.679 79.525C229.221 78.7843 229.493 77.754 229.493 76.434C229.493 75.1067 229.221 74.0727 228.679 73.332C228.136 72.5913 227.315 72.221 226.215 72.221C225.657 72.221 225.17 72.3163 224.752 72.507C224.341 72.6977 223.996 72.9727 223.718 73.332C223.446 73.6913 223.241 74.135 223.102 74.663C222.97 75.1837 222.904 75.774 222.904 76.434C222.904 77.754 223.175 78.7843 223.718 79.525C224.268 80.2583 225.1 80.625 226.215 80.625ZM241.458 75.213C241.458 74.7583 241.392 74.344 241.26 73.97C241.136 73.5887 240.949 73.2623 240.699 72.991C240.457 72.7123 240.16 72.4997 239.808 72.353C239.456 72.199 239.057 72.122 238.609 72.122C237.671 72.122 236.926 72.397 236.376 72.947C235.834 73.4897 235.496 74.245 235.364 75.213H241.458ZM243.042 80.438C242.8 80.7313 242.511 80.988 242.173 81.208C241.836 81.4207 241.473 81.5967 241.084 81.736C240.703 81.8753 240.307 81.978 239.896 82.044C239.486 82.1173 239.079 82.154 238.675 82.154C237.905 82.154 237.194 82.0257 236.541 81.769C235.896 81.505 235.335 81.1237 234.858 80.625C234.389 80.119 234.022 79.4957 233.758 78.755C233.494 78.0143 233.362 77.1637 233.362 76.203C233.362 75.4257 233.48 74.6997 233.714 74.025C233.956 73.3503 234.301 72.7673 234.748 72.276C235.196 71.7773 235.742 71.3887 236.387 71.11C237.033 70.824 237.759 70.681 238.565 70.681C239.233 70.681 239.849 70.7947 240.413 71.022C240.985 71.242 241.477 71.5647 241.887 71.99C242.305 72.408 242.632 72.9287 242.866 73.552C243.101 74.168 243.218 74.872 243.218 75.664C243.218 75.972 243.185 76.1773 243.119 76.28C243.053 76.3827 242.929 76.434 242.745 76.434H235.298C235.32 77.138 235.416 77.7503 235.584 78.271C235.76 78.7917 236.002 79.228 236.31 79.58C236.618 79.9247 236.985 80.185 237.41 80.361C237.836 80.5297 238.312 80.614 238.84 80.614C239.332 80.614 239.753 80.559 240.105 80.449C240.465 80.3317 240.773 80.207 241.029 80.075C241.286 79.943 241.499 79.822 241.667 79.712C241.843 79.5947 241.994 79.536 242.118 79.536C242.28 79.536 242.404 79.5983 242.492 79.723L243.042 80.438ZM253.378 72.837C253.32 72.9177 253.261 72.98 253.202 73.024C253.144 73.068 253.063 73.09 252.96 73.09C252.85 73.09 252.729 73.046 252.597 72.958C252.465 72.8627 252.3 72.76 252.102 72.65C251.912 72.54 251.673 72.441 251.387 72.353C251.109 72.2577 250.764 72.21 250.353 72.21C249.803 72.21 249.319 72.309 248.901 72.507C248.483 72.6977 248.131 72.9763 247.845 73.343C247.567 73.7097 247.354 74.1533 247.207 74.674C247.068 75.1947 246.998 75.7777 246.998 76.423C246.998 77.0977 247.075 77.699 247.229 78.227C247.383 78.7477 247.6 79.1877 247.878 79.547C248.164 79.899 248.505 80.1703 248.901 80.361C249.305 80.5443 249.756 80.636 250.254 80.636C250.731 80.636 251.123 80.581 251.431 80.471C251.739 80.3537 251.992 80.2253 252.19 80.086C252.396 79.9467 252.564 79.822 252.696 79.712C252.836 79.5947 252.971 79.536 253.103 79.536C253.265 79.536 253.389 79.5983 253.477 79.723L254.027 80.438C253.785 80.7387 253.51 80.9953 253.202 81.208C252.894 81.4207 252.561 81.6003 252.201 81.747C251.849 81.8863 251.479 81.989 251.09 82.055C250.702 82.121 250.306 82.154 249.902 82.154C249.206 82.154 248.557 82.0257 247.955 81.769C247.361 81.5123 246.844 81.142 246.404 80.658C245.964 80.1667 245.62 79.5653 245.37 78.854C245.121 78.1427 244.996 77.3323 244.996 76.423C244.996 75.5943 245.11 74.828 245.337 74.124C245.572 73.42 245.909 72.815 246.349 72.309C246.797 71.7957 247.343 71.396 247.988 71.11C248.641 70.824 249.389 70.681 250.232 70.681C251.017 70.681 251.706 70.8093 252.3 71.066C252.902 71.3153 253.433 71.671 253.895 72.133L253.378 72.837ZM260.633 70.681C261.447 70.681 262.18 70.8167 262.833 71.088C263.485 71.3593 264.043 71.7443 264.505 72.243C264.967 72.7417 265.319 73.3467 265.561 74.058C265.81 74.762 265.935 75.5503 265.935 76.423C265.935 77.303 265.81 78.095 265.561 78.799C265.319 79.503 264.967 80.1043 264.505 80.603C264.043 81.1017 263.485 81.4867 262.833 81.758C262.18 82.022 261.447 82.154 260.633 82.154C259.811 82.154 259.071 82.022 258.411 81.758C257.758 81.4867 257.201 81.1017 256.739 80.603C256.277 80.1043 255.921 79.503 255.672 78.799C255.43 78.095 255.309 77.303 255.309 76.423C255.309 75.5503 255.43 74.762 255.672 74.058C255.921 73.3467 256.277 72.7417 256.739 72.243C257.201 71.7443 257.758 71.3593 258.411 71.088C259.071 70.8167 259.811 70.681 260.633 70.681ZM260.633 80.625C261.733 80.625 262.554 80.2583 263.097 79.525C263.639 78.7843 263.911 77.754 263.911 76.434C263.911 75.1067 263.639 74.0727 263.097 73.332C262.554 72.5913 261.733 72.221 260.633 72.221C260.075 72.221 259.588 72.3163 259.17 72.507C258.759 72.6977 258.414 72.9727 258.136 73.332C257.864 73.6913 257.659 74.135 257.52 74.663C257.388 75.1837 257.322 75.774 257.322 76.434C257.322 77.754 257.593 78.7843 258.136 79.525C258.686 80.2583 259.518 80.625 260.633 80.625ZM270.266 72.474C270.508 72.2027 270.765 71.957 271.036 71.737C271.308 71.517 271.594 71.33 271.894 71.176C272.202 71.0147 272.525 70.8937 272.862 70.813C273.207 70.725 273.577 70.681 273.973 70.681C274.582 70.681 275.117 70.7837 275.579 70.989C276.049 71.187 276.437 71.473 276.745 71.847C277.061 72.2137 277.299 72.6573 277.46 73.178C277.622 73.6987 277.702 74.2743 277.702 74.905V82H275.733V74.905C275.733 74.0617 275.539 73.409 275.15 72.947C274.769 72.4777 274.186 72.243 273.401 72.243C272.822 72.243 272.279 72.3823 271.773 72.661C271.275 72.9397 270.813 73.3173 270.387 73.794V82H268.418V70.857H269.595C269.874 70.857 270.046 70.9927 270.112 71.264L270.266 72.474ZM285.383 70.681C286.197 70.681 286.93 70.8167 287.583 71.088C288.235 71.3593 288.793 71.7443 289.255 72.243C289.717 72.7417 290.069 73.3467 290.311 74.058C290.56 74.762 290.685 75.5503 290.685 76.423C290.685 77.303 290.56 78.095 290.311 78.799C290.069 79.503 289.717 80.1043 289.255 80.603C288.793 81.1017 288.235 81.4867 287.583 81.758C286.93 82.022 286.197 82.154 285.383 82.154C284.561 82.154 283.821 82.022 283.161 81.758C282.508 81.4867 281.951 81.1017 281.489 80.603C281.027 80.1043 280.671 79.503 280.422 78.799C280.18 78.095 280.059 77.303 280.059 76.423C280.059 75.5503 280.18 74.762 280.422 74.058C280.671 73.3467 281.027 72.7417 281.489 72.243C281.951 71.7443 282.508 71.3593 283.161 71.088C283.821 70.8167 284.561 70.681 285.383 70.681ZM285.383 80.625C286.483 80.625 287.304 80.2583 287.847 79.525C288.389 78.7843 288.661 77.754 288.661 76.434C288.661 75.1067 288.389 74.0727 287.847 73.332C287.304 72.5913 286.483 72.221 285.383 72.221C284.825 72.221 284.338 72.3163 283.92 72.507C283.509 72.6977 283.164 72.9727 282.886 73.332C282.614 73.6913 282.409 74.135 282.27 74.663C282.138 75.1837 282.072 75.774 282.072 76.434C282.072 77.754 282.343 78.7843 282.886 79.525C283.436 80.2583 284.268 80.625 285.383 80.625ZM293.168 82V70.857H294.345C294.624 70.857 294.796 70.9927 294.862 71.264L295.005 72.408C295.416 71.902 295.878 71.4877 296.391 71.165C296.905 70.8423 297.499 70.681 298.173 70.681C298.921 70.681 299.526 70.89 299.988 71.308C300.458 71.726 300.795 72.2907 301 73.002C301.162 72.5987 301.367 72.2503 301.616 71.957C301.873 71.6637 302.159 71.4217 302.474 71.231C302.79 71.0403 303.123 70.901 303.475 70.813C303.835 70.725 304.198 70.681 304.564 70.681C305.151 70.681 305.672 70.7763 306.126 70.967C306.588 71.1503 306.977 71.4217 307.292 71.781C307.615 72.1403 307.861 72.584 308.029 73.112C308.198 73.6327 308.282 74.2303 308.282 74.905V82H306.313V74.905C306.313 74.0323 306.123 73.3723 305.741 72.925C305.36 72.4703 304.81 72.243 304.091 72.243C303.769 72.243 303.461 72.3017 303.167 72.419C302.881 72.529 302.628 72.694 302.408 72.914C302.188 73.134 302.012 73.4127 301.88 73.75C301.756 74.08 301.693 74.465 301.693 74.905V82H299.724V74.905C299.724 74.0103 299.545 73.343 299.185 72.903C298.826 72.463 298.302 72.243 297.612 72.243C297.128 72.243 296.681 72.375 296.27 72.639C295.86 72.8957 295.482 73.2477 295.137 73.695V82H293.168ZM313.326 70.857V82H311.368V70.857H313.326ZM313.744 67.359C313.744 67.5497 313.704 67.7293 313.623 67.898C313.55 68.0593 313.447 68.206 313.315 68.338C313.19 68.4627 313.04 68.5617 312.864 68.635C312.695 68.7083 312.516 68.745 312.325 68.745C312.134 68.745 311.955 68.7083 311.786 68.635C311.625 68.5617 311.482 68.4627 311.357 68.338C311.232 68.206 311.133 68.0593 311.06 67.898C310.987 67.7293 310.95 67.5497 310.95 67.359C310.95 67.1683 310.987 66.9887 311.06 66.82C311.133 66.644 311.232 66.4937 311.357 66.369C311.482 66.237 311.625 66.1343 311.786 66.061C311.955 65.9877 312.134 65.951 312.325 65.951C312.516 65.951 312.695 65.9877 312.864 66.061C313.04 66.1343 313.19 66.237 313.315 66.369C313.447 66.4937 313.55 66.644 313.623 66.82C313.704 66.9887 313.744 67.1683 313.744 67.359ZM324.298 72.837C324.24 72.9177 324.181 72.98 324.122 73.024C324.064 73.068 323.983 73.09 323.88 73.09C323.77 73.09 323.649 73.046 323.517 72.958C323.385 72.8627 323.22 72.76 323.022 72.65C322.832 72.54 322.593 72.441 322.307 72.353C322.029 72.2577 321.684 72.21 321.273 72.21C320.723 72.21 320.239 72.309 319.821 72.507C319.403 72.6977 319.051 72.9763 318.765 73.343C318.487 73.7097 318.274 74.1533 318.127 74.674C317.988 75.1947 317.918 75.7777 317.918 76.423C317.918 77.0977 317.995 77.699 318.149 78.227C318.303 78.7477 318.52 79.1877 318.798 79.547C319.084 79.899 319.425 80.1703 319.821 80.361C320.225 80.5443 320.676 80.636 321.174 80.636C321.651 80.636 322.043 80.581 322.351 80.471C322.659 80.3537 322.912 80.2253 323.11 80.086C323.316 79.9467 323.484 79.822 323.616 79.712C323.756 79.5947 323.891 79.536 324.023 79.536C324.185 79.536 324.309 79.5983 324.397 79.723L324.947 80.438C324.705 80.7387 324.43 80.9953 324.122 81.208C323.814 81.4207 323.481 81.6003 323.121 81.747C322.769 81.8863 322.399 81.989 322.01 82.055C321.622 82.121 321.226 82.154 320.822 82.154C320.126 82.154 319.477 82.0257 318.875 81.769C318.281 81.5123 317.764 81.142 317.324 80.658C316.884 80.1667 316.54 79.5653 316.29 78.854C316.041 78.1427 315.916 77.3323 315.916 76.423C315.916 75.5943 316.03 74.828 316.257 74.124C316.492 73.42 316.829 72.815 317.269 72.309C317.717 71.7957 318.263 71.396 318.908 71.11C319.561 70.824 320.309 70.681 321.152 70.681C321.937 70.681 322.626 70.8093 323.22 71.066C323.822 71.3153 324.353 71.671 324.815 72.133L324.298 72.837ZM333.539 72.694C333.451 72.8553 333.315 72.936 333.132 72.936C333.022 72.936 332.897 72.8957 332.758 72.815C332.619 72.7343 332.446 72.6463 332.241 72.551C332.043 72.4483 331.805 72.3567 331.526 72.276C331.247 72.188 330.917 72.144 330.536 72.144C330.206 72.144 329.909 72.188 329.645 72.276C329.381 72.3567 329.154 72.4703 328.963 72.617C328.78 72.7637 328.637 72.936 328.534 73.134C328.439 73.3247 328.391 73.5337 328.391 73.761C328.391 74.047 328.472 74.2853 328.633 74.476C328.802 74.6667 329.022 74.8317 329.293 74.971C329.564 75.1103 329.872 75.235 330.217 75.345C330.562 75.4477 330.914 75.5613 331.273 75.686C331.64 75.8033 331.995 75.9353 332.34 76.082C332.685 76.2287 332.993 76.412 333.264 76.632C333.535 76.852 333.752 77.1233 333.913 77.446C334.082 77.7613 334.166 78.1427 334.166 78.59C334.166 79.1033 334.074 79.58 333.891 80.02C333.708 80.4527 333.436 80.8303 333.077 81.153C332.718 81.4683 332.278 81.7177 331.757 81.901C331.236 82.0843 330.635 82.176 329.953 82.176C329.176 82.176 328.472 82.0513 327.841 81.802C327.21 81.5453 326.675 81.219 326.235 80.823L326.697 80.075C326.756 79.9797 326.825 79.9063 326.906 79.855C326.987 79.8037 327.089 79.778 327.214 79.778C327.346 79.778 327.485 79.8293 327.632 79.932C327.779 80.0347 327.955 80.1483 328.16 80.273C328.373 80.3977 328.629 80.5113 328.93 80.614C329.231 80.7167 329.605 80.768 330.052 80.768C330.433 80.768 330.767 80.7203 331.053 80.625C331.339 80.5223 331.577 80.3867 331.768 80.218C331.959 80.0493 332.098 79.855 332.186 79.635C332.281 79.415 332.329 79.1803 332.329 78.931C332.329 78.623 332.245 78.37 332.076 78.172C331.915 77.9667 331.698 77.7943 331.427 77.655C331.156 77.5083 330.844 77.3837 330.492 77.281C330.147 77.171 329.792 77.0573 329.425 76.94C329.066 76.8227 328.71 76.6907 328.358 76.544C328.013 76.39 327.705 76.1993 327.434 75.972C327.163 75.7447 326.943 75.466 326.774 75.136C326.613 74.7987 326.532 74.3917 326.532 73.915C326.532 73.4897 326.62 73.0827 326.796 72.694C326.972 72.298 327.229 71.9533 327.566 71.66C327.903 71.3593 328.318 71.121 328.809 70.945C329.3 70.769 329.861 70.681 330.492 70.681C331.225 70.681 331.882 70.7983 332.461 71.033C333.048 71.2603 333.554 71.5757 333.979 71.979L333.539 72.694ZM342.02 74.575H347.454V76.236H342.02V74.575ZM124.003 94.03H118.899V108H116.776V94.03H111.661V92.237H124.003V94.03ZM127.892 96.681C128.706 96.681 129.439 96.8167 130.092 97.088C130.744 97.3593 131.302 97.7443 131.764 98.243C132.226 98.7417 132.578 99.3467 132.82 100.058C133.069 100.762 133.194 101.55 133.194 102.423C133.194 103.303 133.069 104.095 132.82 104.799C132.578 105.503 132.226 106.104 131.764 106.603C131.302 107.102 130.744 107.487 130.092 107.758C129.439 108.022 128.706 108.154 127.892 108.154C127.07 108.154 126.33 108.022 125.67 107.758C125.017 107.487 124.46 107.102 123.998 106.603C123.536 106.104 123.18 105.503 122.931 104.799C122.689 104.095 122.568 103.303 122.568 102.423C122.568 101.55 122.689 100.762 122.931 100.058C123.18 99.3467 123.536 98.7417 123.998 98.243C124.46 97.7443 125.017 97.3593 125.67 97.088C126.33 96.8167 127.07 96.681 127.892 96.681ZM127.892 106.625C128.992 106.625 129.813 106.258 130.356 105.525C130.898 104.784 131.17 103.754 131.17 102.434C131.17 101.107 130.898 100.073 130.356 99.332C129.813 98.5913 128.992 98.221 127.892 98.221C127.334 98.221 126.847 98.3163 126.429 98.507C126.018 98.6977 125.673 98.9727 125.395 99.332C125.123 99.6913 124.918 100.135 124.779 100.663C124.647 101.184 124.581 101.774 124.581 102.434C124.581 103.754 124.852 104.784 125.395 105.525C125.945 106.258 126.777 106.625 127.892 106.625ZM137.646 91.797V101.334H138.152C138.299 101.334 138.42 101.316 138.515 101.279C138.618 101.235 138.724 101.151 138.834 101.026L142.354 97.253C142.457 97.1283 142.563 97.033 142.673 96.967C142.79 96.8937 142.944 96.857 143.135 96.857H144.906L140.803 101.224C140.605 101.473 140.392 101.668 140.165 101.807C140.297 101.895 140.414 101.998 140.517 102.115C140.627 102.225 140.73 102.353 140.825 102.5L145.181 108H143.432C143.263 108 143.117 107.974 142.992 107.923C142.875 107.864 142.772 107.762 142.684 107.615L139.021 103.05C138.911 102.896 138.801 102.797 138.691 102.753C138.588 102.702 138.427 102.676 138.207 102.676H137.646V108H135.677V91.797H137.646ZM153.684 101.213C153.684 100.758 153.618 100.344 153.486 99.97C153.361 99.5887 153.174 99.2623 152.925 98.991C152.683 98.7123 152.386 98.4997 152.034 98.353C151.682 98.199 151.282 98.122 150.835 98.122C149.896 98.122 149.152 98.397 148.602 98.947C148.059 99.4897 147.722 100.245 147.59 101.213H153.684ZM155.268 106.438C155.026 106.731 154.736 106.988 154.399 107.208C154.061 107.421 153.698 107.597 153.31 107.736C152.928 107.875 152.532 107.978 152.122 108.044C151.711 108.117 151.304 108.154 150.901 108.154C150.131 108.154 149.419 108.026 148.767 107.769C148.121 107.505 147.56 107.124 147.084 106.625C146.614 106.119 146.248 105.496 145.984 104.755C145.72 104.014 145.588 103.164 145.588 102.203C145.588 101.426 145.705 100.7 145.94 100.025C146.182 99.3503 146.526 98.7673 146.974 98.276C147.421 97.7773 147.967 97.3887 148.613 97.11C149.258 96.824 149.984 96.681 150.791 96.681C151.458 96.681 152.074 96.7947 152.639 97.022C153.211 97.242 153.702 97.5647 154.113 97.99C154.531 98.408 154.857 98.9287 155.092 99.552C155.326 100.168 155.444 100.872 155.444 101.664C155.444 101.972 155.411 102.177 155.345 102.28C155.279 102.383 155.154 102.434 154.971 102.434H147.524C147.546 103.138 147.641 103.75 147.81 104.271C147.986 104.792 148.228 105.228 148.536 105.58C148.844 105.925 149.21 106.185 149.636 106.361C150.061 106.53 150.538 106.614 151.066 106.614C151.557 106.614 151.979 106.559 152.331 106.449C152.69 106.332 152.998 106.207 153.255 106.075C153.511 105.943 153.724 105.822 153.893 105.712C154.069 105.595 154.219 105.536 154.344 105.536C154.505 105.536 154.63 105.598 154.718 105.723L155.268 106.438ZM159.697 98.474C159.939 98.2027 160.196 97.957 160.467 97.737C160.738 97.517 161.024 97.33 161.325 97.176C161.633 97.0147 161.956 96.8937 162.293 96.813C162.638 96.725 163.008 96.681 163.404 96.681C164.013 96.681 164.548 96.7837 165.01 96.989C165.479 97.187 165.868 97.473 166.176 97.847C166.491 98.2137 166.73 98.6573 166.891 99.178C167.052 99.6987 167.133 100.274 167.133 100.905V108H165.164V100.905C165.164 100.062 164.97 99.409 164.581 98.947C164.2 98.4777 163.617 98.243 162.832 98.243C162.253 98.243 161.71 98.3823 161.204 98.661C160.705 98.9397 160.243 99.3173 159.818 99.794V108H157.849V96.857H159.026C159.305 96.857 159.477 96.9927 159.543 97.264L159.697 98.474ZM185.931 106.262L185.92 108H176.207V92.237H185.92V93.975H178.341V99.211H184.479V100.883H178.341V106.262H185.931ZM195.66 98.837C195.602 98.9177 195.543 98.98 195.484 99.024C195.426 99.068 195.345 99.09 195.242 99.09C195.132 99.09 195.011 99.046 194.879 98.958C194.747 98.8627 194.582 98.76 194.384 98.65C194.194 98.54 193.955 98.441 193.669 98.353C193.391 98.2577 193.046 98.21 192.635 98.21C192.085 98.21 191.601 98.309 191.183 98.507C190.765 98.6977 190.413 98.9763 190.127 99.343C189.849 99.7097 189.636 100.153 189.489 100.674C189.35 101.195 189.28 101.778 189.28 102.423C189.28 103.098 189.357 103.699 189.511 104.227C189.665 104.748 189.882 105.188 190.16 105.547C190.446 105.899 190.787 106.17 191.183 106.361C191.587 106.544 192.038 106.636 192.536 106.636C193.013 106.636 193.405 106.581 193.713 106.471C194.021 106.354 194.274 106.225 194.472 106.086C194.678 105.947 194.846 105.822 194.978 105.712C195.118 105.595 195.253 105.536 195.385 105.536C195.547 105.536 195.671 105.598 195.759 105.723L196.309 106.438C196.067 106.739 195.792 106.995 195.484 107.208C195.176 107.421 194.843 107.6 194.483 107.747C194.131 107.886 193.761 107.989 193.372 108.055C192.984 108.121 192.588 108.154 192.184 108.154C191.488 108.154 190.839 108.026 190.237 107.769C189.643 107.512 189.126 107.142 188.686 106.658C188.246 106.167 187.902 105.565 187.652 104.854C187.403 104.143 187.278 103.332 187.278 102.423C187.278 101.594 187.392 100.828 187.619 100.124C187.854 99.42 188.191 98.815 188.631 98.309C189.079 97.7957 189.625 97.396 190.27 97.11C190.923 96.824 191.671 96.681 192.514 96.681C193.299 96.681 193.988 96.8093 194.582 97.066C195.184 97.3153 195.715 97.671 196.177 98.133L195.66 98.837ZM202.915 96.681C203.729 96.681 204.462 96.8167 205.115 97.088C205.768 97.3593 206.325 97.7443 206.787 98.243C207.249 98.7417 207.601 99.3467 207.843 100.058C208.092 100.762 208.217 101.55 208.217 102.423C208.217 103.303 208.092 104.095 207.843 104.799C207.601 105.503 207.249 106.104 206.787 106.603C206.325 107.102 205.768 107.487 205.115 107.758C204.462 108.022 203.729 108.154 202.915 108.154C202.094 108.154 201.353 108.022 200.693 107.758C200.04 107.487 199.483 107.102 199.021 106.603C198.559 106.104 198.203 105.503 197.954 104.799C197.712 104.095 197.591 103.303 197.591 102.423C197.591 101.55 197.712 100.762 197.954 100.058C198.203 99.3467 198.559 98.7417 199.021 98.243C199.483 97.7443 200.04 97.3593 200.693 97.088C201.353 96.8167 202.094 96.681 202.915 96.681ZM202.915 106.625C204.015 106.625 204.836 106.258 205.379 105.525C205.922 104.784 206.193 103.754 206.193 102.434C206.193 101.107 205.922 100.073 205.379 99.332C204.836 98.5913 204.015 98.221 202.915 98.221C202.358 98.221 201.87 98.3163 201.452 98.507C201.041 98.6977 200.697 98.9727 200.418 99.332C200.147 99.6913 199.941 100.135 199.802 100.663C199.67 101.184 199.604 101.774 199.604 102.434C199.604 103.754 199.875 104.784 200.418 105.525C200.968 106.258 201.8 106.625 202.915 106.625ZM212.548 98.474C212.79 98.2027 213.047 97.957 213.318 97.737C213.59 97.517 213.876 97.33 214.176 97.176C214.484 97.0147 214.807 96.8937 215.144 96.813C215.489 96.725 215.859 96.681 216.255 96.681C216.864 96.681 217.399 96.7837 217.861 96.989C218.331 97.187 218.719 97.473 219.027 97.847C219.343 98.2137 219.581 98.6573 219.742 99.178C219.904 99.6987 219.984 100.274 219.984 100.905V108H218.015V100.905C218.015 100.062 217.821 99.409 217.432 98.947C217.051 98.4777 216.468 98.243 215.683 98.243C215.104 98.243 214.561 98.3823 214.055 98.661C213.557 98.9397 213.095 99.3173 212.669 99.794V108H210.7V96.857H211.877C212.156 96.857 212.328 96.9927 212.394 97.264L212.548 98.474ZM227.665 96.681C228.479 96.681 229.212 96.8167 229.865 97.088C230.518 97.3593 231.075 97.7443 231.537 98.243C231.999 98.7417 232.351 99.3467 232.593 100.058C232.842 100.762 232.967 101.55 232.967 102.423C232.967 103.303 232.842 104.095 232.593 104.799C232.351 105.503 231.999 106.104 231.537 106.603C231.075 107.102 230.518 107.487 229.865 107.758C229.212 108.022 228.479 108.154 227.665 108.154C226.844 108.154 226.103 108.022 225.443 107.758C224.79 107.487 224.233 107.102 223.771 106.603C223.309 106.104 222.953 105.503 222.704 104.799C222.462 104.095 222.341 103.303 222.341 102.423C222.341 101.55 222.462 100.762 222.704 100.058C222.953 99.3467 223.309 98.7417 223.771 98.243C224.233 97.7443 224.79 97.3593 225.443 97.088C226.103 96.8167 226.844 96.681 227.665 96.681ZM227.665 106.625C228.765 106.625 229.586 106.258 230.129 105.525C230.672 104.784 230.943 103.754 230.943 102.434C230.943 101.107 230.672 100.073 230.129 99.332C229.586 98.5913 228.765 98.221 227.665 98.221C227.108 98.221 226.62 98.3163 226.202 98.507C225.791 98.6977 225.447 98.9727 225.168 99.332C224.897 99.6913 224.691 100.135 224.552 100.663C224.42 101.184 224.354 101.774 224.354 102.434C224.354 103.754 224.625 104.784 225.168 105.525C225.718 106.258 226.55 106.625 227.665 106.625ZM235.45 108V96.857H236.627C236.906 96.857 237.078 96.9927 237.144 97.264L237.287 98.408C237.698 97.902 238.16 97.4877 238.673 97.165C239.187 96.8423 239.781 96.681 240.455 96.681C241.203 96.681 241.808 96.89 242.27 97.308C242.74 97.726 243.077 98.2907 243.282 99.002C243.444 98.5987 243.649 98.2503 243.898 97.957C244.155 97.6637 244.441 97.4217 244.756 97.231C245.072 97.0403 245.405 96.901 245.757 96.813C246.117 96.725 246.48 96.681 246.846 96.681C247.433 96.681 247.954 96.7763 248.408 96.967C248.87 97.1503 249.259 97.4217 249.574 97.781C249.897 98.1403 250.143 98.584 250.311 99.112C250.48 99.6327 250.564 100.23 250.564 100.905V108H248.595V100.905C248.595 100.032 248.405 99.3723 248.023 98.925C247.642 98.4703 247.092 98.243 246.373 98.243C246.051 98.243 245.743 98.3017 245.449 98.419C245.163 98.529 244.91 98.694 244.69 98.914C244.47 99.134 244.294 99.4127 244.162 99.75C244.038 100.08 243.975 100.465 243.975 100.905V108H242.006V100.905C242.006 100.01 241.827 99.343 241.467 98.903C241.108 98.463 240.584 98.243 239.894 98.243C239.41 98.243 238.963 98.375 238.552 98.639C238.142 98.8957 237.764 99.2477 237.419 99.695V108H235.45ZM262.875 96.857L256.66 111.289C256.594 111.436 256.51 111.553 256.407 111.641C256.312 111.729 256.161 111.773 255.956 111.773H254.504L256.539 107.351L251.941 96.857H253.635C253.804 96.857 253.936 96.901 254.031 96.989C254.134 97.0697 254.203 97.1613 254.24 97.264L257.221 104.282C257.338 104.59 257.437 104.913 257.518 105.25C257.621 104.905 257.731 104.579 257.848 104.271L260.741 97.264C260.785 97.1467 260.858 97.0513 260.961 96.978C261.071 96.8973 261.192 96.857 261.324 96.857H262.875ZM280.246 100.124C280.246 101.503 280.095 102.698 279.795 103.71C279.501 104.715 279.098 105.547 278.585 106.207C278.071 106.867 277.463 107.358 276.759 107.681C276.062 108.004 275.314 108.165 274.515 108.165C273.708 108.165 272.956 108.004 272.26 107.681C271.57 107.358 270.969 106.867 270.456 106.207C269.942 105.547 269.539 104.715 269.246 103.71C268.952 102.698 268.806 101.503 268.806 100.124C268.806 98.7453 268.952 97.55 269.246 96.538C269.539 95.526 269.942 94.69 270.456 94.03C270.969 93.3627 271.57 92.8677 272.26 92.545C272.956 92.2223 273.708 92.061 274.515 92.061C275.314 92.061 276.062 92.2223 276.759 92.545C277.463 92.8677 278.071 93.3627 278.585 94.03C279.098 94.69 279.501 95.526 279.795 96.538C280.095 97.55 280.246 98.7453 280.246 100.124ZM278.211 100.124C278.211 98.9213 278.108 97.913 277.903 97.099C277.705 96.2777 277.433 95.6177 277.089 95.119C276.751 94.6203 276.359 94.2647 275.912 94.052C275.464 93.832 274.999 93.722 274.515 93.722C274.031 93.722 273.565 93.832 273.118 94.052C272.67 94.2647 272.278 94.6203 271.941 95.119C271.603 95.6177 271.332 96.2777 271.127 97.099C270.929 97.913 270.83 98.9213 270.83 100.124C270.83 101.327 270.929 102.335 271.127 103.149C271.332 103.963 271.603 104.619 271.941 105.118C272.278 105.617 272.67 105.976 273.118 106.196C273.565 106.409 274.031 106.515 274.515 106.515C274.999 106.515 275.464 106.409 275.912 106.196C276.359 105.976 276.751 105.617 277.089 105.118C277.433 104.619 277.705 103.963 277.903 103.149C278.108 102.335 278.211 101.327 278.211 100.124ZM292.105 106.504V108H283.657V106.504H287.034V95.757C287.034 95.4343 287.045 95.108 287.067 94.778L284.262 97.187C284.167 97.2677 284.072 97.319 283.976 97.341C283.881 97.3557 283.793 97.3557 283.712 97.341C283.632 97.3263 283.555 97.297 283.481 97.253C283.415 97.209 283.364 97.1613 283.327 97.11L282.711 96.263L287.408 92.204H289.003V106.504H292.105Z" fill="white"/>
</svg>
