<svg width="406" height="228" viewBox="0 0 406 228" fill="none" xmlns="http://www.w3.org/2000/svg">
<rect width="406" height="228" fill="black"/>
<path d="M47.747 80.207V82H38.804V66.237H40.927V80.207H47.747ZM56.3059 75.213C56.3059 74.7583 56.2399 74.344 56.1079 73.97C55.9832 73.5887 55.7962 73.2623 55.5469 72.991C55.3049 72.7123 55.0079 72.4997 54.6559 72.353C54.3039 72.199 53.9042 72.122 53.4569 72.122C52.5182 72.122 51.7739 72.397 51.2239 72.947C50.6812 73.4897 50.3439 74.245 50.2119 75.213H56.3059ZM57.8899 80.438C57.6479 80.7313 57.3582 80.988 57.0209 81.208C56.6835 81.4207 56.3205 81.5967 55.9319 81.736C55.5505 81.8753 55.1545 81.978 54.7439 82.044C54.3332 82.1173 53.9262 82.154 53.5229 82.154C52.7529 82.154 52.0415 82.0257 51.3889 81.769C50.7435 81.505 50.1825 81.1237 49.7059 80.625C49.2365 80.119 48.8699 79.4957 48.6059 78.755C48.3419 78.0143 48.2099 77.1637 48.2099 76.203C48.2099 75.4257 48.3272 74.6997 48.5619 74.025C48.8039 73.3503 49.1485 72.7673 49.5959 72.276C50.0432 71.7773 50.5895 71.3887 51.2349 71.11C51.8802 70.824 52.6062 70.681 53.4129 70.681C54.0802 70.681 54.6962 70.7947 55.2609 71.022C55.8329 71.242 56.3242 71.5647 56.7349 71.99C57.1529 72.408 57.4792 72.9287 57.7139 73.552C57.9485 74.168 58.0659 74.872 58.0659 75.664C58.0659 75.972 58.0329 76.1773 57.9669 76.28C57.9009 76.3827 57.7762 76.434 57.5929 76.434H50.1459C50.1679 77.138 50.2632 77.7503 50.4319 78.271C50.6079 78.7917 50.8499 79.228 51.1579 79.58C51.4659 79.9247 51.8325 80.185 52.2579 80.361C52.6832 80.5297 53.1599 80.614 53.6879 80.614C54.1792 80.614 54.6009 80.559 54.9529 80.449C55.3122 80.3317 55.6202 80.207 55.8769 80.075C56.1335 79.943 56.3462 79.822 56.5149 79.712C56.6909 79.5947 56.8412 79.536 56.9659 79.536C57.1272 79.536 57.2519 79.5983 57.3399 79.723L57.8899 80.438ZM68.2259 72.837C68.1673 72.9177 68.1086 72.98 68.0499 73.024C67.9913 73.068 67.9106 73.09 67.8079 73.09C67.6979 73.09 67.5769 73.046 67.4449 72.958C67.3129 72.8627 67.1479 72.76 66.9499 72.65C66.7593 72.54 66.5209 72.441 66.2349 72.353C65.9563 72.2577 65.6116 72.21 65.2009 72.21C64.6509 72.21 64.1669 72.309 63.7489 72.507C63.3309 72.6977 62.9789 72.9763 62.6929 73.343C62.4143 73.7097 62.2016 74.1533 62.0549 74.674C61.9156 75.1947 61.8459 75.7777 61.8459 76.423C61.8459 77.0977 61.9229 77.699 62.0769 78.227C62.2309 78.7477 62.4473 79.1877 62.7259 79.547C63.0119 79.899 63.3529 80.1703 63.7489 80.361C64.1523 80.5443 64.6033 80.636 65.1019 80.636C65.5786 80.636 65.9709 80.581 66.2789 80.471C66.5869 80.3537 66.8399 80.2253 67.0379 80.086C67.2433 79.9467 67.4119 79.822 67.5439 79.712C67.6833 79.5947 67.8189 79.536 67.9509 79.536C68.1123 79.536 68.2369 79.5983 68.3249 79.723L68.8749 80.438C68.6329 80.7387 68.3579 80.9953 68.0499 81.208C67.7419 81.4207 67.4083 81.6003 67.0489 81.747C66.6969 81.8863 66.3266 81.989 65.9379 82.055C65.5493 82.121 65.1533 82.154 64.7499 82.154C64.0533 82.154 63.4043 82.0257 62.8029 81.769C62.2089 81.5123 61.6919 81.142 61.2519 80.658C60.8119 80.1667 60.4673 79.5653 60.2179 78.854C59.9686 78.1427 59.8439 77.3323 59.8439 76.423C59.8439 75.5943 59.9576 74.828 60.1849 74.124C60.4196 73.42 60.7569 72.815 61.1969 72.309C61.6443 71.7957 62.1906 71.396 62.8359 71.11C63.4886 70.824 64.2366 70.681 65.0799 70.681C65.8646 70.681 66.5539 70.8093 67.1479 71.066C67.7493 71.3153 68.2809 71.671 68.7429 72.133L68.2259 72.837ZM74.3978 82.176C73.5178 82.176 72.8394 81.9303 72.3628 81.439C71.8934 80.9477 71.6588 80.24 71.6588 79.316V72.496H70.3168C70.1994 72.496 70.1004 72.463 70.0198 72.397C69.9391 72.3237 69.8988 72.2137 69.8988 72.067V71.286L71.7248 71.055L72.1758 67.612C72.1978 67.502 72.2454 67.414 72.3188 67.348C72.3994 67.2747 72.5021 67.238 72.6268 67.238H73.6168V71.077H76.8398V72.496H73.6168V79.184C73.6168 79.6533 73.7304 80.0017 73.9578 80.229C74.1851 80.4563 74.4784 80.57 74.8378 80.57C75.0431 80.57 75.2191 80.5443 75.3658 80.493C75.5198 80.4343 75.6518 80.372 75.7618 80.306C75.8718 80.24 75.9634 80.1813 76.0368 80.13C76.1174 80.0713 76.1871 80.042 76.2458 80.042C76.3484 80.042 76.4401 80.1043 76.5208 80.229L77.0928 81.164C76.7554 81.4793 76.3484 81.7287 75.8718 81.912C75.3951 82.088 74.9038 82.176 74.3978 82.176ZM88.0245 70.857V82H86.8585C86.5799 82 86.4039 81.8643 86.3305 81.593L86.1765 80.394C85.6925 80.9293 85.1499 81.362 84.5485 81.692C83.9472 82.0147 83.2579 82.176 82.4805 82.176C81.8719 82.176 81.3329 82.077 80.8635 81.879C80.4015 81.6737 80.0129 81.3877 79.6975 81.021C79.3822 80.6543 79.1439 80.2107 78.9825 79.69C78.8285 79.1693 78.7515 78.5937 78.7515 77.963V70.857H80.7095V77.963C80.7095 78.8063 80.9002 79.459 81.2815 79.921C81.6702 80.383 82.2605 80.614 83.0525 80.614C83.6319 80.614 84.1709 80.4783 84.6695 80.207C85.1755 79.9283 85.6412 79.547 86.0665 79.063V70.857H88.0245ZM92.9881 73.09C93.3401 72.3273 93.7728 71.7333 94.2861 71.308C94.7995 70.8753 95.4265 70.659 96.1671 70.659C96.4018 70.659 96.6255 70.6847 96.8381 70.736C97.0581 70.7873 97.2525 70.868 97.4211 70.978L97.2781 72.441C97.2341 72.6243 97.1241 72.716 96.9481 72.716C96.8455 72.716 96.6951 72.694 96.4971 72.65C96.2991 72.606 96.0755 72.584 95.8261 72.584C95.4741 72.584 95.1588 72.6353 94.8801 72.738C94.6088 72.8407 94.3631 72.9947 94.1431 73.2C93.9305 73.398 93.7361 73.6473 93.5601 73.948C93.3915 74.2413 93.2375 74.5787 93.0981 74.96V82H91.1291V70.857H92.2511C92.4638 70.857 92.6105 70.8973 92.6911 70.978C92.7718 71.0587 92.8268 71.198 92.8561 71.396L92.9881 73.09ZM106.15 75.213C106.15 74.7583 106.084 74.344 105.952 73.97C105.827 73.5887 105.64 73.2623 105.391 72.991C105.149 72.7123 104.852 72.4997 104.5 72.353C104.148 72.199 103.748 72.122 103.301 72.122C102.362 72.122 101.618 72.397 101.068 72.947C100.525 73.4897 100.188 74.245 100.056 75.213H106.15ZM107.734 80.438C107.492 80.7313 107.202 80.988 106.865 81.208C106.527 81.4207 106.164 81.5967 105.776 81.736C105.394 81.8753 104.998 81.978 104.588 82.044C104.177 82.1173 103.77 82.154 103.367 82.154C102.597 82.154 101.885 82.0257 101.233 81.769C100.587 81.505 100.026 81.1237 99.5496 80.625C99.0803 80.119 98.7136 79.4957 98.4496 78.755C98.1856 78.0143 98.0536 77.1637 98.0536 76.203C98.0536 75.4257 98.171 74.6997 98.4056 74.025C98.6476 73.3503 98.9923 72.7673 99.4396 72.276C99.887 71.7773 100.433 71.3887 101.079 71.11C101.724 70.824 102.45 70.681 103.257 70.681C103.924 70.681 104.54 70.7947 105.105 71.022C105.677 71.242 106.168 71.5647 106.579 71.99C106.997 72.408 107.323 72.9287 107.558 73.552C107.792 74.168 107.91 74.872 107.91 75.664C107.91 75.972 107.877 76.1773 107.811 76.28C107.745 76.3827 107.62 76.434 107.437 76.434H99.9896C100.012 77.138 100.107 77.7503 100.276 78.271C100.452 78.7917 100.694 79.228 101.002 79.58C101.31 79.9247 101.676 80.185 102.102 80.361C102.527 80.5297 103.004 80.614 103.532 80.614C104.023 80.614 104.445 80.559 104.797 80.449C105.156 80.3317 105.464 80.207 105.721 80.075C105.977 79.943 106.19 79.822 106.359 79.712C106.535 79.5947 106.685 79.536 106.81 79.536C106.971 79.536 107.096 79.5983 107.184 79.723L107.734 80.438ZM115.823 70.505C115.925 69.7863 116.123 69.152 116.417 68.602C116.71 68.0447 117.08 67.579 117.528 67.205C117.982 66.831 118.499 66.5487 119.079 66.358C119.665 66.16 120.296 66.061 120.971 66.061C121.638 66.061 122.254 66.1563 122.819 66.347C123.383 66.5377 123.867 66.809 124.271 67.161C124.681 67.513 125 67.9383 125.228 68.437C125.455 68.9357 125.569 69.4893 125.569 70.098C125.569 70.5967 125.503 71.044 125.371 71.44C125.246 71.8287 125.063 72.1697 124.821 72.463C124.586 72.7563 124.3 73.0057 123.963 73.211C123.625 73.4163 123.248 73.585 122.83 73.717C123.856 73.981 124.626 74.4357 125.14 75.081C125.66 75.719 125.921 76.5183 125.921 77.479C125.921 78.205 125.781 78.8577 125.503 79.437C125.231 80.0163 124.857 80.5113 124.381 80.922C123.904 81.3253 123.347 81.637 122.709 81.857C122.078 82.0697 121.4 82.176 120.674 82.176C119.838 82.176 119.123 82.0733 118.529 81.868C117.935 81.6553 117.432 81.3657 117.022 80.999C116.611 80.6323 116.274 80.1997 116.01 79.701C115.746 79.195 115.522 78.6487 115.339 78.062L116.186 77.71C116.406 77.6147 116.618 77.589 116.824 77.633C117.036 77.677 117.19 77.798 117.286 77.996C117.381 78.2013 117.498 78.447 117.638 78.733C117.784 79.019 117.982 79.294 118.232 79.558C118.481 79.822 118.796 80.0457 119.178 80.229C119.566 80.4123 120.058 80.504 120.652 80.504C121.202 80.504 121.682 80.416 122.093 80.24C122.511 80.0567 122.855 79.822 123.127 79.536C123.405 79.25 123.614 78.931 123.754 78.579C123.893 78.227 123.963 77.8787 123.963 77.534C123.963 77.1087 123.908 76.72 123.798 76.368C123.688 76.016 123.482 75.7117 123.182 75.455C122.881 75.1983 122.467 74.9967 121.939 74.85C121.418 74.7033 120.747 74.63 119.926 74.63V73.211C120.6 73.2037 121.172 73.1303 121.642 72.991C122.118 72.8517 122.503 72.661 122.797 72.419C123.097 72.177 123.314 71.8873 123.446 71.55C123.585 71.2127 123.655 70.8387 123.655 70.428C123.655 69.9733 123.581 69.5773 123.435 69.24C123.295 68.9027 123.101 68.624 122.852 68.404C122.602 68.184 122.305 68.019 121.961 67.909C121.623 67.799 121.257 67.744 120.861 67.744C120.465 67.744 120.094 67.8027 119.75 67.92C119.412 68.0373 119.112 68.2023 118.848 68.415C118.591 68.6203 118.375 68.866 118.199 69.152C118.023 69.438 117.898 69.7533 117.825 70.098C117.729 70.3547 117.608 70.527 117.462 70.615C117.322 70.6957 117.117 70.7177 116.846 70.681L115.823 70.505ZM134.158 74.575H139.592V76.236H134.158V74.575ZM150.723 67.975V73.486H157.202V75.224H150.723V82H148.589V66.237H158.302V67.975H150.723ZM168.913 70.857V82H167.747C167.469 82 167.293 81.8643 167.219 81.593L167.065 80.394C166.581 80.9293 166.039 81.362 165.437 81.692C164.836 82.0147 164.147 82.176 163.369 82.176C162.761 82.176 162.222 82.077 161.752 81.879C161.29 81.6737 160.902 81.3877 160.586 81.021C160.271 80.6543 160.033 80.2107 159.871 79.69C159.717 79.1693 159.64 78.5937 159.64 77.963V70.857H161.598V77.963C161.598 78.8063 161.789 79.459 162.17 79.921C162.559 80.383 163.149 80.614 163.941 80.614C164.521 80.614 165.06 80.4783 165.558 80.207C166.064 79.9283 166.53 79.547 166.955 79.063V70.857H168.913ZM173.866 72.474C174.108 72.2027 174.364 71.957 174.636 71.737C174.907 71.517 175.193 71.33 175.494 71.176C175.802 71.0147 176.124 70.8937 176.462 70.813C176.806 70.725 177.177 70.681 177.573 70.681C178.181 70.681 178.717 70.7837 179.179 70.989C179.648 71.187 180.037 71.473 180.345 71.847C180.66 72.2137 180.898 72.6573 181.06 73.178C181.221 73.6987 181.302 74.2743 181.302 74.905V82H179.333V74.905C179.333 74.0617 179.138 73.409 178.75 72.947C178.368 72.4777 177.785 72.243 177.001 72.243C176.421 72.243 175.879 72.3823 175.373 72.661C174.874 72.9397 174.412 73.3173 173.987 73.794V82H172.018V70.857H173.195C173.473 70.857 173.646 70.9927 173.712 71.264L173.866 72.474ZM191.545 73.508C191.179 73.0167 190.783 72.6757 190.357 72.485C189.932 72.287 189.455 72.188 188.927 72.188C187.893 72.188 187.098 72.5583 186.54 73.299C185.983 74.0397 185.704 75.0957 185.704 76.467C185.704 77.193 185.767 77.8163 185.891 78.337C186.016 78.8503 186.199 79.2757 186.441 79.613C186.683 79.943 186.98 80.185 187.332 80.339C187.684 80.493 188.084 80.57 188.531 80.57C189.177 80.57 189.738 80.4233 190.214 80.13C190.698 79.8367 191.142 79.4223 191.545 78.887V73.508ZM193.503 65.797V82H192.337C192.059 82 191.883 81.8643 191.809 81.593L191.633 80.24C191.157 80.812 190.614 81.274 190.005 81.626C189.397 81.978 188.693 82.154 187.893 82.154C187.255 82.154 186.676 82.033 186.155 81.791C185.635 81.5417 185.191 81.1787 184.824 80.702C184.458 80.2253 184.175 79.6313 183.977 78.92C183.779 78.2087 183.68 77.391 183.68 76.467C183.68 75.6457 183.79 74.883 184.01 74.179C184.23 73.4677 184.546 72.8517 184.956 72.331C185.367 71.8103 185.869 71.4033 186.463 71.11C187.065 70.8093 187.739 70.659 188.487 70.659C189.169 70.659 189.752 70.7763 190.236 71.011C190.728 71.2383 191.164 71.5573 191.545 71.968V65.797H193.503ZM202.635 76.984C201.733 77.0133 200.963 77.0867 200.325 77.204C199.694 77.314 199.177 77.4607 198.774 77.644C198.378 77.8273 198.088 78.0437 197.905 78.293C197.729 78.5423 197.641 78.821 197.641 79.129C197.641 79.4223 197.689 79.6753 197.784 79.888C197.879 80.1007 198.008 80.2767 198.169 80.416C198.338 80.548 198.532 80.647 198.752 80.713C198.979 80.7717 199.221 80.801 199.478 80.801C199.823 80.801 200.138 80.768 200.424 80.702C200.71 80.6287 200.978 80.526 201.227 80.394C201.484 80.262 201.726 80.1043 201.953 79.921C202.188 79.7377 202.415 79.5287 202.635 79.294V76.984ZM196.31 72.43C196.926 71.836 197.59 71.3923 198.301 71.099C199.012 70.8057 199.801 70.659 200.666 70.659C201.289 70.659 201.843 70.7617 202.327 70.967C202.811 71.1723 203.218 71.4583 203.548 71.825C203.878 72.1917 204.127 72.6353 204.296 73.156C204.465 73.6767 204.549 74.2487 204.549 74.872V82H203.68C203.489 82 203.343 81.9707 203.24 81.912C203.137 81.846 203.057 81.7213 202.998 81.538L202.778 80.482C202.485 80.7533 202.199 80.9953 201.92 81.208C201.641 81.4133 201.348 81.5893 201.04 81.736C200.732 81.8753 200.402 81.9817 200.05 82.055C199.705 82.1357 199.32 82.176 198.895 82.176C198.462 82.176 198.055 82.1173 197.674 82C197.293 81.8753 196.959 81.692 196.673 81.45C196.394 81.208 196.171 80.9037 196.002 80.537C195.841 80.163 195.76 79.723 195.76 79.217C195.76 78.777 195.881 78.3553 196.123 77.952C196.365 77.5413 196.757 77.1783 197.3 76.863C197.843 76.5477 198.55 76.291 199.423 76.093C200.296 75.8877 201.366 75.7703 202.635 75.741V74.872C202.635 74.0067 202.448 73.354 202.074 72.914C201.7 72.4667 201.154 72.243 200.435 72.243C199.951 72.243 199.544 72.3053 199.214 72.43C198.891 72.5473 198.609 72.683 198.367 72.837C198.132 72.9837 197.927 73.1193 197.751 73.244C197.582 73.3613 197.414 73.42 197.245 73.42C197.113 73.42 196.999 73.387 196.904 73.321C196.809 73.2477 196.728 73.1597 196.662 73.057L196.31 72.43ZM207.531 82V70.857H208.708C208.987 70.857 209.159 70.9927 209.225 71.264L209.368 72.408C209.779 71.902 210.241 71.4877 210.754 71.165C211.268 70.8423 211.862 70.681 212.536 70.681C213.284 70.681 213.889 70.89 214.351 71.308C214.821 71.726 215.158 72.2907 215.363 73.002C215.525 72.5987 215.73 72.2503 215.979 71.957C216.236 71.6637 216.522 71.4217 216.837 71.231C217.153 71.0403 217.486 70.901 217.838 70.813C218.198 70.725 218.561 70.681 218.927 70.681C219.514 70.681 220.035 70.7763 220.489 70.967C220.951 71.1503 221.34 71.4217 221.655 71.781C221.978 72.1403 222.224 72.584 222.392 73.112C222.561 73.6327 222.645 74.2303 222.645 74.905V82H220.676V74.905C220.676 74.0323 220.486 73.3723 220.104 72.925C219.723 72.4703 219.173 72.243 218.454 72.243C218.132 72.243 217.824 72.3017 217.53 72.419C217.244 72.529 216.991 72.694 216.771 72.914C216.551 73.134 216.375 73.4127 216.243 73.75C216.119 74.08 216.056 74.465 216.056 74.905V82H214.087V74.905C214.087 74.0103 213.908 73.343 213.548 72.903C213.189 72.463 212.665 72.243 211.975 72.243C211.491 72.243 211.044 72.375 210.633 72.639C210.223 72.8957 209.845 73.2477 209.5 73.695V82H207.531ZM233.079 75.213C233.079 74.7583 233.013 74.344 232.881 73.97C232.757 73.5887 232.57 73.2623 232.32 72.991C232.078 72.7123 231.781 72.4997 231.429 72.353C231.077 72.199 230.678 72.122 230.23 72.122C229.292 72.122 228.547 72.397 227.997 72.947C227.455 73.4897 227.117 74.245 226.985 75.213H233.079ZM234.663 80.438C234.421 80.7313 234.132 80.988 233.794 81.208C233.457 81.4207 233.094 81.5967 232.705 81.736C232.324 81.8753 231.928 81.978 231.517 82.044C231.107 82.1173 230.7 82.154 230.296 82.154C229.526 82.154 228.815 82.0257 228.162 81.769C227.517 81.505 226.956 81.1237 226.479 80.625C226.01 80.119 225.643 79.4957 225.379 78.755C225.115 78.0143 224.983 77.1637 224.983 76.203C224.983 75.4257 225.101 74.6997 225.335 74.025C225.577 73.3503 225.922 72.7673 226.369 72.276C226.817 71.7773 227.363 71.3887 228.008 71.11C228.654 70.824 229.38 70.681 230.186 70.681C230.854 70.681 231.47 70.7947 232.034 71.022C232.606 71.242 233.098 71.5647 233.508 71.99C233.926 72.408 234.253 72.9287 234.487 73.552C234.722 74.168 234.839 74.872 234.839 75.664C234.839 75.972 234.806 76.1773 234.74 76.28C234.674 76.3827 234.55 76.434 234.366 76.434H226.919C226.941 77.138 227.037 77.7503 227.205 78.271C227.381 78.7917 227.623 79.228 227.931 79.58C228.239 79.9247 228.606 80.185 229.031 80.361C229.457 80.5297 229.933 80.614 230.461 80.614C230.953 80.614 231.374 80.559 231.726 80.449C232.086 80.3317 232.394 80.207 232.65 80.075C232.907 79.943 233.12 79.822 233.288 79.712C233.464 79.5947 233.615 79.536 233.739 79.536C233.901 79.536 234.025 79.5983 234.113 79.723L234.663 80.438ZM239.092 72.474C239.334 72.2027 239.591 71.957 239.862 71.737C240.134 71.517 240.42 71.33 240.72 71.176C241.028 71.0147 241.351 70.8937 241.688 70.813C242.033 70.725 242.403 70.681 242.799 70.681C243.408 70.681 243.943 70.7837 244.405 70.989C244.875 71.187 245.263 71.473 245.571 71.847C245.887 72.2137 246.125 72.6573 246.286 73.178C246.448 73.6987 246.528 74.2743 246.528 74.905V82H244.559V74.905C244.559 74.0617 244.365 73.409 243.976 72.947C243.595 72.4777 243.012 72.243 242.227 72.243C241.648 72.243 241.105 72.3823 240.599 72.661C240.101 72.9397 239.639 73.3173 239.213 73.794V82H237.244V70.857H238.421C238.7 70.857 238.872 70.9927 238.938 71.264L239.092 72.474ZM252.783 82.176C251.903 82.176 251.224 81.9303 250.748 81.439C250.278 80.9477 250.044 80.24 250.044 79.316V72.496H248.702C248.584 72.496 248.485 72.463 248.405 72.397C248.324 72.3237 248.284 72.2137 248.284 72.067V71.286L250.11 71.055L250.561 67.612C250.583 67.502 250.63 67.414 250.704 67.348C250.784 67.2747 250.887 67.238 251.012 67.238H252.002V71.077H255.225V72.496H252.002V79.184C252.002 79.6533 252.115 80.0017 252.343 80.229C252.57 80.4563 252.863 80.57 253.223 80.57C253.428 80.57 253.604 80.5443 253.751 80.493C253.905 80.4343 254.037 80.372 254.147 80.306C254.257 80.24 254.348 80.1813 254.422 80.13C254.502 80.0713 254.572 80.042 254.631 80.042C254.733 80.042 254.825 80.1043 254.906 80.229L255.478 81.164C255.14 81.4793 254.733 81.7287 254.257 81.912C253.78 82.088 253.289 82.176 252.783 82.176ZM263.285 76.984C262.383 77.0133 261.613 77.0867 260.975 77.204C260.345 77.314 259.828 77.4607 259.424 77.644C259.028 77.8273 258.739 78.0437 258.555 78.293C258.379 78.5423 258.291 78.821 258.291 79.129C258.291 79.4223 258.339 79.6753 258.434 79.888C258.53 80.1007 258.658 80.2767 258.819 80.416C258.988 80.548 259.182 80.647 259.402 80.713C259.63 80.7717 259.872 80.801 260.128 80.801C260.473 80.801 260.788 80.768 261.074 80.702C261.36 80.6287 261.628 80.526 261.877 80.394C262.134 80.262 262.376 80.1043 262.603 79.921C262.838 79.7377 263.065 79.5287 263.285 79.294V76.984ZM256.96 72.43C257.576 71.836 258.24 71.3923 258.951 71.099C259.663 70.8057 260.451 70.659 261.316 70.659C261.94 70.659 262.493 70.7617 262.977 70.967C263.461 71.1723 263.868 71.4583 264.198 71.825C264.528 72.1917 264.778 72.6353 264.946 73.156C265.115 73.6767 265.199 74.2487 265.199 74.872V82H264.33C264.14 82 263.993 81.9707 263.89 81.912C263.788 81.846 263.707 81.7213 263.648 81.538L263.428 80.482C263.135 80.7533 262.849 80.9953 262.57 81.208C262.292 81.4133 261.998 81.5893 261.69 81.736C261.382 81.8753 261.052 81.9817 260.7 82.055C260.356 82.1357 259.971 82.176 259.545 82.176C259.113 82.176 258.706 82.1173 258.324 82C257.943 81.8753 257.609 81.692 257.323 81.45C257.045 81.208 256.821 80.9037 256.652 80.537C256.491 80.163 256.41 79.723 256.41 79.217C256.41 78.777 256.531 78.3553 256.773 77.952C257.015 77.5413 257.408 77.1783 257.95 76.863C258.493 76.5477 259.201 76.291 260.073 76.093C260.946 75.8877 262.017 75.7703 263.285 75.741V74.872C263.285 74.0067 263.098 73.354 262.724 72.914C262.35 72.4667 261.804 72.243 261.085 72.243C260.601 72.243 260.194 72.3053 259.864 72.43C259.542 72.5473 259.259 72.683 259.017 72.837C258.783 72.9837 258.577 73.1193 258.401 73.244C258.233 73.3613 258.064 73.42 257.895 73.42C257.763 73.42 257.65 73.387 257.554 73.321C257.459 73.2477 257.378 73.1597 257.312 73.057L256.96 72.43ZM270.206 65.797V82H268.248V65.797H270.206ZM290.538 78.744C290.655 78.744 290.758 78.7917 290.846 78.887L291.693 79.8C291.048 80.548 290.263 81.131 289.339 81.549C288.422 81.967 287.311 82.176 286.006 82.176C284.877 82.176 283.85 81.9817 282.926 81.593C282.002 81.197 281.214 80.647 280.561 79.943C279.908 79.2317 279.402 78.381 279.043 77.391C278.684 76.401 278.504 75.312 278.504 74.124C278.504 72.936 278.691 71.847 279.065 70.857C279.439 69.867 279.963 69.0163 280.638 68.305C281.32 67.5937 282.134 67.0437 283.08 66.655C284.026 66.259 285.071 66.061 286.215 66.061C287.337 66.061 288.327 66.2407 289.185 66.6C290.043 66.9593 290.798 67.447 291.451 68.063L290.747 69.042C290.703 69.1153 290.644 69.1777 290.571 69.229C290.505 69.273 290.413 69.295 290.296 69.295C290.164 69.295 290.003 69.2253 289.812 69.086C289.621 68.9393 289.372 68.778 289.064 68.602C288.756 68.426 288.371 68.2683 287.909 68.129C287.447 67.9823 286.879 67.909 286.204 67.909C285.39 67.909 284.646 68.052 283.971 68.338C283.296 68.6167 282.713 69.0237 282.222 69.559C281.738 70.0943 281.36 70.747 281.089 71.517C280.818 72.287 280.682 73.156 280.682 74.124C280.682 75.1067 280.821 75.983 281.1 76.753C281.386 77.523 281.771 78.1757 282.255 78.711C282.746 79.239 283.322 79.6423 283.982 79.921C284.649 80.1997 285.368 80.339 286.138 80.339C286.607 80.339 287.029 80.3133 287.403 80.262C287.784 80.2033 288.133 80.1153 288.448 79.998C288.771 79.8807 289.068 79.734 289.339 79.558C289.618 79.3747 289.893 79.1583 290.164 78.909C290.289 78.799 290.413 78.744 290.538 78.744ZM298.187 70.681C299.001 70.681 299.735 70.8167 300.387 71.088C301.04 71.3593 301.597 71.7443 302.059 72.243C302.521 72.7417 302.873 73.3467 303.115 74.058C303.365 74.762 303.489 75.5503 303.489 76.423C303.489 77.303 303.365 78.095 303.115 78.799C302.873 79.503 302.521 80.1043 302.059 80.603C301.597 81.1017 301.04 81.4867 300.387 81.758C299.735 82.022 299.001 82.154 298.187 82.154C297.366 82.154 296.625 82.022 295.965 81.758C295.313 81.4867 294.755 81.1017 294.293 80.603C293.831 80.1043 293.476 79.503 293.226 78.799C292.984 78.095 292.863 77.303 292.863 76.423C292.863 75.5503 292.984 74.762 293.226 74.058C293.476 73.3467 293.831 72.7417 294.293 72.243C294.755 71.7443 295.313 71.3593 295.965 71.088C296.625 70.8167 297.366 70.681 298.187 70.681ZM298.187 80.625C299.287 80.625 300.109 80.2583 300.651 79.525C301.194 78.7843 301.465 77.754 301.465 76.434C301.465 75.1067 301.194 74.0727 300.651 73.332C300.109 72.5913 299.287 72.221 298.187 72.221C297.63 72.221 297.142 72.3163 296.724 72.507C296.314 72.6977 295.969 72.9727 295.69 73.332C295.419 73.6913 295.214 74.135 295.074 74.663C294.942 75.1837 294.876 75.774 294.876 76.434C294.876 77.754 295.148 78.7843 295.69 79.525C296.24 80.2583 297.073 80.625 298.187 80.625ZM307.821 72.474C308.063 72.2027 308.32 71.957 308.591 71.737C308.862 71.517 309.148 71.33 309.449 71.176C309.757 71.0147 310.08 70.8937 310.417 70.813C310.762 70.725 311.132 70.681 311.528 70.681C312.137 70.681 312.672 70.7837 313.134 70.989C313.603 71.187 313.992 71.473 314.3 71.847C314.615 72.2137 314.854 72.6573 315.015 73.178C315.176 73.6987 315.257 74.2743 315.257 74.905V82H313.288V74.905C313.288 74.0617 313.094 73.409 312.705 72.947C312.324 72.4777 311.741 72.243 310.956 72.243C310.377 72.243 309.834 72.3823 309.328 72.661C308.829 72.9397 308.367 73.3173 307.942 73.794V82H305.973V70.857H307.15C307.429 70.857 307.601 70.9927 307.667 71.264L307.821 72.474ZM325.995 72.837C325.937 72.9177 325.878 72.98 325.819 73.024C325.761 73.068 325.68 73.09 325.577 73.09C325.467 73.09 325.346 73.046 325.214 72.958C325.082 72.8627 324.917 72.76 324.719 72.65C324.529 72.54 324.29 72.441 324.004 72.353C323.726 72.2577 323.381 72.21 322.97 72.21C322.42 72.21 321.936 72.309 321.518 72.507C321.1 72.6977 320.748 72.9763 320.462 73.343C320.184 73.7097 319.971 74.1533 319.824 74.674C319.685 75.1947 319.615 75.7777 319.615 76.423C319.615 77.0977 319.692 77.699 319.846 78.227C320 78.7477 320.217 79.1877 320.495 79.547C320.781 79.899 321.122 80.1703 321.518 80.361C321.922 80.5443 322.373 80.636 322.871 80.636C323.348 80.636 323.74 80.581 324.048 80.471C324.356 80.3537 324.609 80.2253 324.807 80.086C325.013 79.9467 325.181 79.822 325.313 79.712C325.453 79.5947 325.588 79.536 325.72 79.536C325.882 79.536 326.006 79.5983 326.094 79.723L326.644 80.438C326.402 80.7387 326.127 80.9953 325.819 81.208C325.511 81.4207 325.178 81.6003 324.818 81.747C324.466 81.8863 324.096 81.989 323.707 82.055C323.319 82.121 322.923 82.154 322.519 82.154C321.823 82.154 321.174 82.0257 320.572 81.769C319.978 81.5123 319.461 81.142 319.021 80.658C318.581 80.1667 318.237 79.5653 317.987 78.854C317.738 78.1427 317.613 77.3323 317.613 76.423C317.613 75.5943 317.727 74.828 317.954 74.124C318.189 73.42 318.526 72.815 318.966 72.309C319.414 71.7957 319.96 71.396 320.605 71.11C321.258 70.824 322.006 70.681 322.849 70.681C323.634 70.681 324.323 70.8093 324.917 71.066C325.519 71.3153 326.05 71.671 326.512 72.133L325.995 72.837ZM336.011 75.213C336.011 74.7583 335.945 74.344 335.813 73.97C335.688 73.5887 335.501 73.2623 335.252 72.991C335.01 72.7123 334.713 72.4997 334.361 72.353C334.009 72.199 333.609 72.122 333.162 72.122C332.223 72.122 331.479 72.397 330.929 72.947C330.386 73.4897 330.049 74.245 329.917 75.213H336.011ZM337.595 80.438C337.353 80.7313 337.063 80.988 336.726 81.208C336.389 81.4207 336.026 81.5967 335.637 81.736C335.256 81.8753 334.86 81.978 334.449 82.044C334.038 82.1173 333.631 82.154 333.228 82.154C332.458 82.154 331.747 82.0257 331.094 81.769C330.449 81.505 329.888 81.1237 329.411 80.625C328.942 80.119 328.575 79.4957 328.311 78.755C328.047 78.0143 327.915 77.1637 327.915 76.203C327.915 75.4257 328.032 74.6997 328.267 74.025C328.509 73.3503 328.854 72.7673 329.301 72.276C329.748 71.7773 330.295 71.3887 330.94 71.11C331.585 70.824 332.311 70.681 333.118 70.681C333.785 70.681 334.401 70.7947 334.966 71.022C335.538 71.242 336.029 71.5647 336.44 71.99C336.858 72.408 337.184 72.9287 337.419 73.552C337.654 74.168 337.771 74.872 337.771 75.664C337.771 75.972 337.738 76.1773 337.672 76.28C337.606 76.3827 337.481 76.434 337.298 76.434H329.851C329.873 77.138 329.968 77.7503 330.137 78.271C330.313 78.7917 330.555 79.228 330.863 79.58C331.171 79.9247 331.538 80.185 331.963 80.361C332.388 80.5297 332.865 80.614 333.393 80.614C333.884 80.614 334.306 80.559 334.658 80.449C335.017 80.3317 335.325 80.207 335.582 80.075C335.839 79.943 336.051 79.822 336.22 79.712C336.396 79.5947 336.546 79.536 336.671 79.536C336.832 79.536 336.957 79.5983 337.045 79.723L337.595 80.438ZM342.145 79.316C342.504 79.8 342.897 80.141 343.322 80.339C343.747 80.537 344.224 80.636 344.752 80.636C345.793 80.636 346.593 80.2657 347.15 79.525C347.707 78.7843 347.986 77.7283 347.986 76.357C347.986 75.631 347.92 75.0077 347.788 74.487C347.663 73.9663 347.48 73.541 347.238 73.211C346.996 72.8737 346.699 72.628 346.347 72.474C345.995 72.32 345.595 72.243 345.148 72.243C344.51 72.243 343.949 72.3897 343.465 72.683C342.988 72.9763 342.548 73.3907 342.145 73.926V79.316ZM342.046 72.584C342.515 72.0047 343.058 71.539 343.674 71.187C344.29 70.835 344.994 70.659 345.786 70.659C346.431 70.659 347.014 70.7837 347.535 71.033C348.056 71.275 348.499 71.638 348.866 72.122C349.233 72.5987 349.515 73.1927 349.713 73.904C349.911 74.6153 350.01 75.433 350.01 76.357C350.01 77.1783 349.9 77.9447 349.68 78.656C349.46 79.36 349.141 79.9723 348.723 80.493C348.312 81.0063 347.806 81.4133 347.205 81.714C346.611 82.0073 345.94 82.154 345.192 82.154C344.51 82.154 343.923 82.0403 343.432 81.813C342.948 81.5783 342.519 81.2557 342.145 80.845V85.773H340.176V70.857H341.353C341.632 70.857 341.804 70.9927 341.87 71.264L342.046 72.584ZM355.779 82.176C354.899 82.176 354.22 81.9303 353.744 81.439C353.274 80.9477 353.04 80.24 353.04 79.316V72.496H351.698C351.58 72.496 351.481 72.463 351.401 72.397C351.32 72.3237 351.28 72.2137 351.28 72.067V71.286L353.106 71.055L353.557 67.612C353.579 67.502 353.626 67.414 353.7 67.348C353.78 67.2747 353.883 67.238 354.008 67.238H354.998V71.077H358.221V72.496H354.998V79.184C354.998 79.6533 355.111 80.0017 355.339 80.229C355.566 80.4563 355.859 80.57 356.219 80.57C356.424 80.57 356.6 80.5443 356.747 80.493C356.901 80.4343 357.033 80.372 357.143 80.306C357.253 80.24 357.344 80.1813 357.418 80.13C357.498 80.0713 357.568 80.042 357.627 80.042C357.729 80.042 357.821 80.1043 357.902 80.229L358.474 81.164C358.136 81.4793 357.729 81.7287 357.253 81.912C356.776 82.088 356.285 82.176 355.779 82.176ZM366.732 72.694C366.644 72.8553 366.509 72.936 366.325 72.936C366.215 72.936 366.091 72.8957 365.951 72.815C365.812 72.7343 365.64 72.6463 365.434 72.551C365.236 72.4483 364.998 72.3567 364.719 72.276C364.441 72.188 364.111 72.144 363.729 72.144C363.399 72.144 363.102 72.188 362.838 72.276C362.574 72.3567 362.347 72.4703 362.156 72.617C361.973 72.7637 361.83 72.936 361.727 73.134C361.632 73.3247 361.584 73.5337 361.584 73.761C361.584 74.047 361.665 74.2853 361.826 74.476C361.995 74.6667 362.215 74.8317 362.486 74.971C362.758 75.1103 363.066 75.235 363.41 75.345C363.755 75.4477 364.107 75.5613 364.466 75.686C364.833 75.8033 365.189 75.9353 365.533 76.082C365.878 76.2287 366.186 76.412 366.457 76.632C366.729 76.852 366.945 77.1233 367.106 77.446C367.275 77.7613 367.359 78.1427 367.359 78.59C367.359 79.1033 367.268 79.58 367.084 80.02C366.901 80.4527 366.63 80.8303 366.27 81.153C365.911 81.4683 365.471 81.7177 364.95 81.901C364.43 82.0843 363.828 82.176 363.146 82.176C362.369 82.176 361.665 82.0513 361.034 81.802C360.404 81.5453 359.868 81.219 359.428 80.823L359.89 80.075C359.949 79.9797 360.019 79.9063 360.099 79.855C360.18 79.8037 360.283 79.778 360.407 79.778C360.539 79.778 360.679 79.8293 360.825 79.932C360.972 80.0347 361.148 80.1483 361.353 80.273C361.566 80.3977 361.823 80.5113 362.123 80.614C362.424 80.7167 362.798 80.768 363.245 80.768C363.627 80.768 363.96 80.7203 364.246 80.625C364.532 80.5223 364.771 80.3867 364.961 80.218C365.152 80.0493 365.291 79.855 365.379 79.635C365.475 79.415 365.522 79.1803 365.522 78.931C365.522 78.623 365.438 78.37 365.269 78.172C365.108 77.9667 364.892 77.7943 364.62 77.655C364.349 77.5083 364.037 77.3837 363.685 77.281C363.341 77.171 362.985 77.0573 362.618 76.94C362.259 76.8227 361.903 76.6907 361.551 76.544C361.207 76.39 360.899 76.1993 360.627 75.972C360.356 75.7447 360.136 75.466 359.967 75.136C359.806 74.7987 359.725 74.3917 359.725 73.915C359.725 73.4897 359.813 73.0827 359.989 72.694C360.165 72.298 360.422 71.9533 360.759 71.66C361.097 71.3593 361.511 71.121 362.002 70.945C362.494 70.769 363.055 70.681 363.685 70.681C364.419 70.681 365.075 70.7983 365.654 71.033C366.241 71.2603 366.747 71.5757 367.172 71.979L366.732 72.694ZM156.927 100.234C156.15 100.645 155.563 101.143 155.167 101.73C154.779 102.317 154.584 102.955 154.584 103.644C154.584 104.121 154.672 104.542 154.848 104.909C155.024 105.268 155.255 105.573 155.541 105.822C155.827 106.071 156.154 106.262 156.52 106.394C156.887 106.519 157.261 106.581 157.642 106.581C158.464 106.581 159.201 106.431 159.853 106.13C160.513 105.829 161.089 105.426 161.58 104.92L156.927 100.234ZM167.091 108H165.188C164.976 108 164.803 107.974 164.671 107.923C164.539 107.872 164.396 107.765 164.242 107.604L162.647 105.998C161.958 106.665 161.162 107.197 160.26 107.593C159.366 107.982 158.379 108.176 157.301 108.176C156.715 108.176 156.139 108.077 155.574 107.879C155.017 107.681 154.515 107.395 154.067 107.021C153.62 106.64 153.261 106.178 152.989 105.635C152.718 105.092 152.582 104.48 152.582 103.798C152.582 103.285 152.667 102.801 152.835 102.346C153.011 101.884 153.253 101.459 153.561 101.07C153.869 100.681 154.232 100.333 154.65 100.025C155.068 99.717 155.527 99.453 156.025 99.233C155.578 98.661 155.248 98.111 155.035 97.583C154.823 97.0477 154.716 96.494 154.716 95.922C154.716 95.3867 154.812 94.8843 155.002 94.415C155.2 93.9457 155.483 93.5387 155.849 93.194C156.216 92.842 156.66 92.567 157.18 92.369C157.708 92.1637 158.299 92.061 158.951 92.061C159.531 92.061 160.059 92.1563 160.535 92.347C161.012 92.5303 161.423 92.776 161.767 93.084C162.112 93.392 162.383 93.7513 162.581 94.162C162.787 94.5653 162.904 94.987 162.933 95.427L161.712 95.669C161.47 95.7277 161.291 95.614 161.173 95.328C161.122 95.1373 161.038 94.9393 160.92 94.734C160.81 94.5287 160.664 94.3417 160.48 94.173C160.304 94.0043 160.088 93.865 159.831 93.755C159.582 93.645 159.289 93.59 158.951 93.59C158.585 93.59 158.251 93.6487 157.95 93.766C157.657 93.8833 157.404 94.0483 157.191 94.261C156.986 94.4663 156.828 94.712 156.718 94.998C156.608 95.2767 156.553 95.581 156.553 95.911C156.553 96.1677 156.583 96.4133 156.641 96.648C156.7 96.8827 156.792 97.121 156.916 97.363C157.048 97.605 157.213 97.8507 157.411 98.1C157.609 98.3493 157.848 98.6133 158.126 98.892L162.658 103.501C162.937 103.002 163.161 102.485 163.329 101.95C163.498 101.407 163.608 100.868 163.659 100.333C163.674 100.194 163.718 100.084 163.791 100.003C163.865 99.9223 163.967 99.882 164.099 99.882H165.298C165.291 100.725 165.159 101.554 164.902 102.368C164.646 103.175 164.275 103.934 163.791 104.645L167.091 108ZM184.911 94.03H179.807V108H177.684V94.03H172.569V92.237H184.911V94.03ZM188.8 96.681C189.614 96.681 190.347 96.8167 191 97.088C191.652 97.3593 192.21 97.7443 192.672 98.243C193.134 98.7417 193.486 99.3467 193.728 100.058C193.977 100.762 194.102 101.55 194.102 102.423C194.102 103.303 193.977 104.095 193.728 104.799C193.486 105.503 193.134 106.104 192.672 106.603C192.21 107.102 191.652 107.487 191 107.758C190.347 108.022 189.614 108.154 188.8 108.154C187.978 108.154 187.238 108.022 186.578 107.758C185.925 107.487 185.368 107.102 184.906 106.603C184.444 106.104 184.088 105.503 183.839 104.799C183.597 104.095 183.476 103.303 183.476 102.423C183.476 101.55 183.597 100.762 183.839 100.058C184.088 99.3467 184.444 98.7417 184.906 98.243C185.368 97.7443 185.925 97.3593 186.578 97.088C187.238 96.8167 187.978 96.681 188.8 96.681ZM188.8 106.625C189.9 106.625 190.721 106.258 191.264 105.525C191.806 104.784 192.078 103.754 192.078 102.434C192.078 101.107 191.806 100.073 191.264 99.332C190.721 98.5913 189.9 98.221 188.8 98.221C188.242 98.221 187.755 98.3163 187.337 98.507C186.926 98.6977 186.581 98.9727 186.303 99.332C186.031 99.6913 185.826 100.135 185.687 100.663C185.555 101.184 185.489 101.774 185.489 102.434C185.489 103.754 185.76 104.784 186.303 105.525C186.853 106.258 187.685 106.625 188.8 106.625ZM201.282 96.681C202.096 96.681 202.83 96.8167 203.482 97.088C204.135 97.3593 204.692 97.7443 205.154 98.243C205.616 98.7417 205.968 99.3467 206.21 100.058C206.46 100.762 206.584 101.55 206.584 102.423C206.584 103.303 206.46 104.095 206.21 104.799C205.968 105.503 205.616 106.104 205.154 106.603C204.692 107.102 204.135 107.487 203.482 107.758C202.83 108.022 202.096 108.154 201.282 108.154C200.461 108.154 199.72 108.022 199.06 107.758C198.408 107.487 197.85 107.102 197.388 106.603C196.926 106.104 196.571 105.503 196.321 104.799C196.079 104.095 195.958 103.303 195.958 102.423C195.958 101.55 196.079 100.762 196.321 100.058C196.571 99.3467 196.926 98.7417 197.388 98.243C197.85 97.7443 198.408 97.3593 199.06 97.088C199.72 96.8167 200.461 96.681 201.282 96.681ZM201.282 106.625C202.382 106.625 203.204 106.258 203.746 105.525C204.289 104.784 204.56 103.754 204.56 102.434C204.56 101.107 204.289 100.073 203.746 99.332C203.204 98.5913 202.382 98.221 201.282 98.221C200.725 98.221 200.237 98.3163 199.819 98.507C199.409 98.6977 199.064 98.9727 198.785 99.332C198.514 99.6913 198.309 100.135 198.169 100.663C198.037 101.184 197.971 101.774 197.971 102.434C197.971 103.754 198.243 104.784 198.785 105.525C199.335 106.258 200.168 106.625 201.282 106.625ZM211.092 91.797V108H209.134V91.797H211.092ZM220.757 98.694C220.669 98.8553 220.533 98.936 220.35 98.936C220.24 98.936 220.115 98.8957 219.976 98.815C219.836 98.7343 219.664 98.6463 219.459 98.551C219.261 98.4483 219.022 98.3567 218.744 98.276C218.465 98.188 218.135 98.144 217.754 98.144C217.424 98.144 217.127 98.188 216.863 98.276C216.599 98.3567 216.371 98.4703 216.181 98.617C215.997 98.7637 215.854 98.936 215.752 99.134C215.656 99.3247 215.609 99.5337 215.609 99.761C215.609 100.047 215.689 100.285 215.851 100.476C216.019 100.667 216.239 100.832 216.511 100.971C216.782 101.11 217.09 101.235 217.435 101.345C217.779 101.448 218.131 101.561 218.491 101.686C218.857 101.803 219.213 101.935 219.558 102.082C219.902 102.229 220.21 102.412 220.482 102.632C220.753 102.852 220.969 103.123 221.131 103.446C221.299 103.761 221.384 104.143 221.384 104.59C221.384 105.103 221.292 105.58 221.109 106.02C220.925 106.453 220.654 106.83 220.295 107.153C219.935 107.468 219.495 107.718 218.975 107.901C218.454 108.084 217.853 108.176 217.171 108.176C216.393 108.176 215.689 108.051 215.059 107.802C214.428 107.545 213.893 107.219 213.453 106.823L213.915 106.075C213.973 105.98 214.043 105.906 214.124 105.855C214.204 105.804 214.307 105.778 214.432 105.778C214.564 105.778 214.703 105.829 214.85 105.932C214.996 106.035 215.172 106.148 215.378 106.273C215.59 106.398 215.847 106.511 216.148 106.614C216.448 106.717 216.822 106.768 217.27 106.768C217.651 106.768 217.985 106.72 218.271 106.625C218.557 106.522 218.795 106.387 218.986 106.218C219.176 106.049 219.316 105.855 219.404 105.635C219.499 105.415 219.547 105.18 219.547 104.931C219.547 104.623 219.462 104.37 219.294 104.172C219.132 103.967 218.916 103.794 218.645 103.655C218.373 103.508 218.062 103.384 217.71 103.281C217.365 103.171 217.009 103.057 216.643 102.94C216.283 102.823 215.928 102.691 215.576 102.544C215.231 102.39 214.923 102.199 214.652 101.972C214.38 101.745 214.16 101.466 213.992 101.136C213.83 100.799 213.75 100.392 213.75 99.915C213.75 99.4897 213.838 99.0827 214.014 98.694C214.19 98.298 214.446 97.9533 214.784 97.66C215.121 97.3593 215.535 97.121 216.027 96.945C216.518 96.769 217.079 96.681 217.71 96.681C218.443 96.681 219.099 96.7983 219.679 97.033C220.265 97.2603 220.771 97.5757 221.197 97.979L220.757 98.694ZM239.962 100.124C239.962 101.503 239.812 102.698 239.511 103.71C239.218 104.715 238.815 105.547 238.301 106.207C237.788 106.867 237.179 107.358 236.475 107.681C235.779 108.004 235.031 108.165 234.231 108.165C233.425 108.165 232.673 108.004 231.976 107.681C231.287 107.358 230.686 106.867 230.172 106.207C229.659 105.547 229.256 104.715 228.962 103.71C228.669 102.698 228.522 101.503 228.522 100.124C228.522 98.7453 228.669 97.55 228.962 96.538C229.256 95.526 229.659 94.69 230.172 94.03C230.686 93.3627 231.287 92.8677 231.976 92.545C232.673 92.2223 233.425 92.061 234.231 92.061C235.031 92.061 235.779 92.2223 236.475 92.545C237.179 92.8677 237.788 93.3627 238.301 94.03C238.815 94.69 239.218 95.526 239.511 96.538C239.812 97.55 239.962 98.7453 239.962 100.124ZM237.927 100.124C237.927 98.9213 237.825 97.913 237.619 97.099C237.421 96.2777 237.15 95.6177 236.805 95.119C236.468 94.6203 236.076 94.2647 235.628 94.052C235.181 93.832 234.715 93.722 234.231 93.722C233.747 93.722 233.282 93.832 232.834 94.052C232.387 94.2647 231.995 94.6203 231.657 95.119C231.32 95.6177 231.049 96.2777 230.843 97.099C230.645 97.913 230.546 98.9213 230.546 100.124C230.546 101.327 230.645 102.335 230.843 103.149C231.049 103.963 231.32 104.619 231.657 105.118C231.995 105.617 232.387 105.976 232.834 106.196C233.282 106.409 233.747 106.515 234.231 106.515C234.715 106.515 235.181 106.409 235.628 106.196C236.076 105.976 236.468 105.617 236.805 105.118C237.15 104.619 237.421 103.963 237.619 103.149C237.825 102.335 237.927 101.327 237.927 100.124ZM251.822 106.504V108H243.374V106.504H246.751V95.757C246.751 95.4343 246.762 95.108 246.784 94.778L243.979 97.187C243.884 97.2677 243.788 97.319 243.693 97.341C243.598 97.3557 243.51 97.3557 243.429 97.341C243.348 97.3263 243.271 97.297 243.198 97.253C243.132 97.209 243.081 97.1613 243.044 97.11L242.428 96.263L247.125 92.204H248.72V106.504H251.822Z" fill="white"/>
</svg>
