<svg width="406" height="228" viewBox="0 0 406 228" fill="none" xmlns="http://www.w3.org/2000/svg">
<rect width="406" height="228" fill="black"/>
<path d="M54.7509 80.207V82H45.8079V66.237H47.9309V80.207H54.7509ZM63.3098 75.213C63.3098 74.7583 63.2438 74.344 63.1118 73.97C62.9871 73.5887 62.8001 73.2623 62.5508 72.991C62.3088 72.7123 62.0118 72.4997 61.6598 72.353C61.3078 72.199 60.9081 72.122 60.4608 72.122C59.5221 72.122 58.7778 72.397 58.2278 72.947C57.6851 73.4897 57.3478 74.245 57.2158 75.213H63.3098ZM64.8938 80.438C64.6518 80.7313 64.3621 80.988 64.0248 81.208C63.6874 81.4207 63.3244 81.5967 62.9358 81.736C62.5544 81.8753 62.1584 81.978 61.7478 82.044C61.3371 82.1173 60.9301 82.154 60.5268 82.154C59.7568 82.154 59.0454 82.0257 58.3928 81.769C57.7474 81.505 57.1864 81.1237 56.7098 80.625C56.2404 80.119 55.8738 79.4957 55.6098 78.755C55.3458 78.0143 55.2138 77.1637 55.2138 76.203C55.2138 75.4257 55.3311 74.6997 55.5658 74.025C55.8078 73.3503 56.1524 72.7673 56.5998 72.276C57.0471 71.7773 57.5934 71.3887 58.2388 71.11C58.8841 70.824 59.6101 70.681 60.4168 70.681C61.0841 70.681 61.7001 70.7947 62.2648 71.022C62.8368 71.242 63.3281 71.5647 63.7388 71.99C64.1568 72.408 64.4831 72.9287 64.7178 73.552C64.9524 74.168 65.0698 74.872 65.0698 75.664C65.0698 75.972 65.0368 76.1773 64.9708 76.28C64.9048 76.3827 64.7801 76.434 64.5968 76.434H57.1498C57.1718 77.138 57.2671 77.7503 57.4358 78.271C57.6118 78.7917 57.8538 79.228 58.1618 79.58C58.4698 79.9247 58.8364 80.185 59.2618 80.361C59.6871 80.5297 60.1638 80.614 60.6918 80.614C61.1831 80.614 61.6048 80.559 61.9568 80.449C62.3161 80.3317 62.6241 80.207 62.8808 80.075C63.1374 79.943 63.3501 79.822 63.5188 79.712C63.6948 79.5947 63.8451 79.536 63.9698 79.536C64.1311 79.536 64.2558 79.5983 64.3438 79.723L64.8938 80.438ZM75.2298 72.837C75.1712 72.9177 75.1125 72.98 75.0538 73.024C74.9952 73.068 74.9145 73.09 74.8118 73.09C74.7018 73.09 74.5808 73.046 74.4488 72.958C74.3168 72.8627 74.1518 72.76 73.9538 72.65C73.7632 72.54 73.5248 72.441 73.2388 72.353C72.9602 72.2577 72.6155 72.21 72.2048 72.21C71.6548 72.21 71.1708 72.309 70.7528 72.507C70.3348 72.6977 69.9828 72.9763 69.6968 73.343C69.4182 73.7097 69.2055 74.1533 69.0588 74.674C68.9195 75.1947 68.8498 75.7777 68.8498 76.423C68.8498 77.0977 68.9268 77.699 69.0808 78.227C69.2348 78.7477 69.4512 79.1877 69.7298 79.547C70.0158 79.899 70.3568 80.1703 70.7528 80.361C71.1562 80.5443 71.6072 80.636 72.1058 80.636C72.5825 80.636 72.9748 80.581 73.2828 80.471C73.5908 80.3537 73.8438 80.2253 74.0418 80.086C74.2472 79.9467 74.4158 79.822 74.5478 79.712C74.6872 79.5947 74.8228 79.536 74.9548 79.536C75.1162 79.536 75.2408 79.5983 75.3288 79.723L75.8788 80.438C75.6368 80.7387 75.3618 80.9953 75.0538 81.208C74.7458 81.4207 74.4122 81.6003 74.0528 81.747C73.7008 81.8863 73.3305 81.989 72.9418 82.055C72.5532 82.121 72.1572 82.154 71.7538 82.154C71.0572 82.154 70.4082 82.0257 69.8068 81.769C69.2128 81.5123 68.6958 81.142 68.2558 80.658C67.8158 80.1667 67.4712 79.5653 67.2218 78.854C66.9725 78.1427 66.8478 77.3323 66.8478 76.423C66.8478 75.5943 66.9615 74.828 67.1888 74.124C67.4235 73.42 67.7608 72.815 68.2008 72.309C68.6482 71.7957 69.1945 71.396 69.8398 71.11C70.4925 70.824 71.2405 70.681 72.0838 70.681C72.8685 70.681 73.5578 70.8093 74.1518 71.066C74.7532 71.3153 75.2848 71.671 75.7468 72.133L75.2298 72.837ZM81.4017 82.176C80.5217 82.176 79.8434 81.9303 79.3667 81.439C78.8974 80.9477 78.6627 80.24 78.6627 79.316V72.496H77.3207C77.2034 72.496 77.1044 72.463 77.0237 72.397C76.943 72.3237 76.9027 72.2137 76.9027 72.067V71.286L78.7287 71.055L79.1797 67.612C79.2017 67.502 79.2494 67.414 79.3227 67.348C79.4034 67.2747 79.506 67.238 79.6307 67.238H80.6207V71.077H83.8437V72.496H80.6207V79.184C80.6207 79.6533 80.7344 80.0017 80.9617 80.229C81.189 80.4563 81.4824 80.57 81.8417 80.57C82.047 80.57 82.223 80.5443 82.3697 80.493C82.5237 80.4343 82.6557 80.372 82.7657 80.306C82.8757 80.24 82.9674 80.1813 83.0407 80.13C83.1214 80.0713 83.191 80.042 83.2497 80.042C83.3524 80.042 83.444 80.1043 83.5247 80.229L84.0967 81.164C83.7594 81.4793 83.3524 81.7287 82.8757 81.912C82.399 82.088 81.9077 82.176 81.4017 82.176ZM95.0285 70.857V82H93.8625C93.5838 82 93.4078 81.8643 93.3345 81.593L93.1805 80.394C92.6965 80.9293 92.1538 81.362 91.5525 81.692C90.9511 82.0147 90.2618 82.176 89.4845 82.176C88.8758 82.176 88.3368 82.077 87.8675 81.879C87.4055 81.6737 87.0168 81.3877 86.7015 81.021C86.3861 80.6543 86.1478 80.2107 85.9865 79.69C85.8325 79.1693 85.7555 78.5937 85.7555 77.963V70.857H87.7135V77.963C87.7135 78.8063 87.9041 79.459 88.2855 79.921C88.6741 80.383 89.2645 80.614 90.0565 80.614C90.6358 80.614 91.1748 80.4783 91.6735 80.207C92.1795 79.9283 92.6451 79.547 93.0705 79.063V70.857H95.0285ZM99.992 73.09C100.344 72.3273 100.777 71.7333 101.29 71.308C101.803 70.8753 102.43 70.659 103.171 70.659C103.406 70.659 103.629 70.6847 103.842 70.736C104.062 70.7873 104.256 70.868 104.425 70.978L104.282 72.441C104.238 72.6243 104.128 72.716 103.952 72.716C103.849 72.716 103.699 72.694 103.501 72.65C103.303 72.606 103.079 72.584 102.83 72.584C102.478 72.584 102.163 72.6353 101.884 72.738C101.613 72.8407 101.367 72.9947 101.147 73.2C100.934 73.398 100.74 73.6473 100.564 73.948C100.395 74.2413 100.241 74.5787 100.102 74.96V82H98.133V70.857H99.255C99.4677 70.857 99.6144 70.8973 99.695 70.978C99.7757 71.0587 99.8307 71.198 99.86 71.396L99.992 73.09ZM113.154 75.213C113.154 74.7583 113.088 74.344 112.956 73.97C112.831 73.5887 112.644 73.2623 112.395 72.991C112.153 72.7123 111.856 72.4997 111.504 72.353C111.152 72.199 110.752 72.122 110.305 72.122C109.366 72.122 108.622 72.397 108.072 72.947C107.529 73.4897 107.192 74.245 107.06 75.213H113.154ZM114.738 80.438C114.496 80.7313 114.206 80.988 113.869 81.208C113.531 81.4207 113.168 81.5967 112.78 81.736C112.398 81.8753 112.002 81.978 111.592 82.044C111.181 82.1173 110.774 82.154 110.371 82.154C109.601 82.154 108.889 82.0257 108.237 81.769C107.591 81.505 107.03 81.1237 106.554 80.625C106.084 80.119 105.718 79.4957 105.454 78.755C105.19 78.0143 105.058 77.1637 105.058 76.203C105.058 75.4257 105.175 74.6997 105.41 74.025C105.652 73.3503 105.996 72.7673 106.444 72.276C106.891 71.7773 107.437 71.3887 108.083 71.11C108.728 70.824 109.454 70.681 110.261 70.681C110.928 70.681 111.544 70.7947 112.109 71.022C112.681 71.242 113.172 71.5647 113.583 71.99C114.001 72.408 114.327 72.9287 114.562 73.552C114.796 74.168 114.914 74.872 114.914 75.664C114.914 75.972 114.881 76.1773 114.815 76.28C114.749 76.3827 114.624 76.434 114.441 76.434H106.994C107.016 77.138 107.111 77.7503 107.28 78.271C107.456 78.7917 107.698 79.228 108.006 79.58C108.314 79.9247 108.68 80.185 109.106 80.361C109.531 80.5297 110.008 80.614 110.536 80.614C111.027 80.614 111.449 80.559 111.801 80.449C112.16 80.3317 112.468 80.207 112.725 80.075C112.981 79.943 113.194 79.822 113.363 79.712C113.539 79.5947 113.689 79.536 113.814 79.536C113.975 79.536 114.1 79.5983 114.188 79.723L114.738 80.438ZM125.378 72.188C126.2 72.012 126.955 71.924 127.644 71.924C128.466 71.924 129.192 72.045 129.822 72.287C130.453 72.529 130.977 72.8627 131.395 73.288C131.821 73.7133 132.14 74.2157 132.352 74.795C132.572 75.3743 132.682 76.005 132.682 76.687C132.682 77.523 132.536 78.2783 132.242 78.953C131.956 79.6277 131.557 80.207 131.043 80.691C130.537 81.1677 129.94 81.5343 129.25 81.791C128.561 82.0477 127.817 82.176 127.017 82.176C126.555 82.176 126.112 82.1283 125.686 82.033C125.261 81.945 124.861 81.824 124.487 81.67C124.121 81.516 123.78 81.34 123.464 81.142C123.149 80.944 122.87 80.735 122.628 80.515L123.233 79.679C123.365 79.4883 123.538 79.393 123.75 79.393C123.897 79.393 124.062 79.4517 124.245 79.569C124.429 79.679 124.652 79.8037 124.916 79.943C125.18 80.0823 125.488 80.2107 125.84 80.328C126.2 80.438 126.625 80.493 127.116 80.493C127.666 80.493 128.161 80.405 128.601 80.229C129.041 80.053 129.419 79.8037 129.734 79.481C130.05 79.151 130.292 78.7587 130.46 78.304C130.629 77.8493 130.713 77.3397 130.713 76.775C130.713 76.2837 130.64 75.84 130.493 75.444C130.354 75.048 130.138 74.7107 129.844 74.432C129.558 74.1533 129.199 73.937 128.766 73.783C128.334 73.629 127.828 73.552 127.248 73.552C126.852 73.552 126.438 73.585 126.005 73.651C125.58 73.717 125.144 73.8233 124.696 73.97L123.464 73.607L124.729 66.237H132.198V67.095C132.198 67.3737 132.11 67.6047 131.934 67.788C131.766 67.964 131.472 68.052 131.054 68.052H126.104L125.378 72.188ZM141.162 74.575H146.596V76.236H141.162V74.575ZM157.727 82H155.593V66.237H157.727V82ZM162.973 72.474C163.215 72.2027 163.472 71.957 163.743 71.737C164.015 71.517 164.301 71.33 164.601 71.176C164.909 71.0147 165.232 70.8937 165.569 70.813C165.914 70.725 166.284 70.681 166.68 70.681C167.289 70.681 167.824 70.7837 168.286 70.989C168.756 71.187 169.144 71.473 169.452 71.847C169.768 72.2137 170.006 72.6573 170.167 73.178C170.329 73.6987 170.409 74.2743 170.409 74.905V82H168.44V74.905C168.44 74.0617 168.246 73.409 167.857 72.947C167.476 72.4777 166.893 72.243 166.108 72.243C165.529 72.243 164.986 72.3823 164.48 72.661C163.982 72.9397 163.52 73.3173 163.094 73.794V82H161.125V70.857H162.302C162.581 70.857 162.753 70.9927 162.819 71.264L162.973 72.474ZM176.663 82.176C175.783 82.176 175.105 81.9303 174.628 81.439C174.159 80.9477 173.924 80.24 173.924 79.316V72.496H172.582C172.465 72.496 172.366 72.463 172.285 72.397C172.205 72.3237 172.164 72.2137 172.164 72.067V71.286L173.99 71.055L174.441 67.612C174.463 67.502 174.511 67.414 174.584 67.348C174.665 67.2747 174.768 67.238 174.892 67.238H175.882V71.077H179.105V72.496H175.882V79.184C175.882 79.6533 175.996 80.0017 176.223 80.229C176.451 80.4563 176.744 80.57 177.103 80.57C177.309 80.57 177.485 80.5443 177.631 80.493C177.785 80.4343 177.917 80.372 178.027 80.306C178.137 80.24 178.229 80.1813 178.302 80.13C178.383 80.0713 178.453 80.042 178.511 80.042C178.614 80.042 178.706 80.1043 178.786 80.229L179.358 81.164C179.021 81.4793 178.614 81.7287 178.137 81.912C177.661 82.088 177.169 82.176 176.663 82.176ZM182.986 73.09C183.338 72.3273 183.771 71.7333 184.284 71.308C184.798 70.8753 185.425 70.659 186.165 70.659C186.4 70.659 186.624 70.6847 186.836 70.736C187.056 70.7873 187.251 70.868 187.419 70.978L187.276 72.441C187.232 72.6243 187.122 72.716 186.946 72.716C186.844 72.716 186.693 72.694 186.495 72.65C186.297 72.606 186.074 72.584 185.824 72.584C185.472 72.584 185.157 72.6353 184.878 72.738C184.607 72.8407 184.361 72.9947 184.141 73.2C183.929 73.398 183.734 73.6473 183.558 73.948C183.39 74.2413 183.236 74.5787 183.096 74.96V82H181.127V70.857H182.249C182.462 70.857 182.609 70.8973 182.689 70.978C182.77 71.0587 182.825 71.198 182.854 71.396L182.986 73.09ZM193.387 70.681C194.201 70.681 194.934 70.8167 195.587 71.088C196.239 71.3593 196.797 71.7443 197.259 72.243C197.721 72.7417 198.073 73.3467 198.315 74.058C198.564 74.762 198.689 75.5503 198.689 76.423C198.689 77.303 198.564 78.095 198.315 78.799C198.073 79.503 197.721 80.1043 197.259 80.603C196.797 81.1017 196.239 81.4867 195.587 81.758C194.934 82.022 194.201 82.154 193.387 82.154C192.565 82.154 191.825 82.022 191.165 81.758C190.512 81.4867 189.955 81.1017 189.493 80.603C189.031 80.1043 188.675 79.503 188.426 78.799C188.184 78.095 188.063 77.303 188.063 76.423C188.063 75.5503 188.184 74.762 188.426 74.058C188.675 73.3467 189.031 72.7417 189.493 72.243C189.955 71.7443 190.512 71.3593 191.165 71.088C191.825 70.8167 192.565 70.681 193.387 70.681ZM193.387 80.625C194.487 80.625 195.308 80.2583 195.851 79.525C196.393 78.7843 196.665 77.754 196.665 76.434C196.665 75.1067 196.393 74.0727 195.851 73.332C195.308 72.5913 194.487 72.221 193.387 72.221C192.829 72.221 192.342 72.3163 191.924 72.507C191.513 72.6977 191.168 72.9727 190.89 73.332C190.618 73.6913 190.413 74.135 190.274 74.663C190.142 75.1837 190.076 75.774 190.076 76.434C190.076 77.754 190.347 78.7843 190.89 79.525C191.44 80.2583 192.272 80.625 193.387 80.625ZM208.432 73.508C208.065 73.0167 207.669 72.6757 207.244 72.485C206.819 72.287 206.342 72.188 205.814 72.188C204.78 72.188 203.984 72.5583 203.427 73.299C202.87 74.0397 202.591 75.0957 202.591 76.467C202.591 77.193 202.653 77.8163 202.778 78.337C202.903 78.8503 203.086 79.2757 203.328 79.613C203.57 79.943 203.867 80.185 204.219 80.339C204.571 80.493 204.971 80.57 205.418 80.57C206.063 80.57 206.624 80.4233 207.101 80.13C207.585 79.8367 208.029 79.4223 208.432 78.887V73.508ZM210.39 65.797V82H209.224C208.945 82 208.769 81.8643 208.696 81.593L208.52 80.24C208.043 80.812 207.501 81.274 206.892 81.626C206.283 81.978 205.579 82.154 204.78 82.154C204.142 82.154 203.563 82.033 203.042 81.791C202.521 81.5417 202.078 81.1787 201.711 80.702C201.344 80.2253 201.062 79.6313 200.864 78.92C200.666 78.2087 200.567 77.391 200.567 76.467C200.567 75.6457 200.677 74.883 200.897 74.179C201.117 73.4677 201.432 72.8517 201.843 72.331C202.254 71.8103 202.756 71.4033 203.35 71.11C203.951 70.8093 204.626 70.659 205.374 70.659C206.056 70.659 206.639 70.7763 207.123 71.011C207.614 71.2383 208.051 71.5573 208.432 71.968V65.797H210.39ZM222.646 70.857V82H221.48C221.201 82 221.025 81.8643 220.952 81.593L220.798 80.394C220.314 80.9293 219.771 81.362 219.17 81.692C218.568 82.0147 217.879 82.176 217.102 82.176C216.493 82.176 215.954 82.077 215.485 81.879C215.023 81.6737 214.634 81.3877 214.319 81.021C214.003 80.6543 213.765 80.2107 213.604 79.69C213.45 79.1693 213.373 78.5937 213.373 77.963V70.857H215.331V77.963C215.331 78.8063 215.521 79.459 215.903 79.921C216.291 80.383 216.882 80.614 217.674 80.614C218.253 80.614 218.792 80.4783 219.291 80.207C219.797 79.9283 220.262 79.547 220.688 79.063V70.857H222.646ZM233.505 72.837C233.447 72.9177 233.388 72.98 233.329 73.024C233.271 73.068 233.19 73.09 233.087 73.09C232.977 73.09 232.856 73.046 232.724 72.958C232.592 72.8627 232.427 72.76 232.229 72.65C232.039 72.54 231.8 72.441 231.514 72.353C231.236 72.2577 230.891 72.21 230.48 72.21C229.93 72.21 229.446 72.309 229.028 72.507C228.61 72.6977 228.258 72.9763 227.972 73.343C227.694 73.7097 227.481 74.1533 227.334 74.674C227.195 75.1947 227.125 75.7777 227.125 76.423C227.125 77.0977 227.202 77.699 227.356 78.227C227.51 78.7477 227.727 79.1877 228.005 79.547C228.291 79.899 228.632 80.1703 229.028 80.361C229.432 80.5443 229.883 80.636 230.381 80.636C230.858 80.636 231.25 80.581 231.558 80.471C231.866 80.3537 232.119 80.2253 232.317 80.086C232.523 79.9467 232.691 79.822 232.823 79.712C232.963 79.5947 233.098 79.536 233.23 79.536C233.392 79.536 233.516 79.5983 233.604 79.723L234.154 80.438C233.912 80.7387 233.637 80.9953 233.329 81.208C233.021 81.4207 232.688 81.6003 232.328 81.747C231.976 81.8863 231.606 81.989 231.217 82.055C230.829 82.121 230.433 82.154 230.029 82.154C229.333 82.154 228.684 82.0257 228.082 81.769C227.488 81.5123 226.971 81.142 226.531 80.658C226.091 80.1667 225.747 79.5653 225.497 78.854C225.248 78.1427 225.123 77.3323 225.123 76.423C225.123 75.5943 225.237 74.828 225.464 74.124C225.699 73.42 226.036 72.815 226.476 72.309C226.924 71.7957 227.47 71.396 228.115 71.11C228.768 70.824 229.516 70.681 230.359 70.681C231.144 70.681 231.833 70.8093 232.427 71.066C233.029 71.3153 233.56 71.671 234.022 72.133L233.505 72.837ZM246.596 82H244.638V72.496H238.896V79.184C238.896 79.6533 239.01 80.0017 239.237 80.229C239.464 80.4563 239.758 80.57 240.117 80.57C240.322 80.57 240.498 80.5443 240.645 80.493C240.799 80.4343 240.931 80.372 241.041 80.306C241.151 80.24 241.243 80.1813 241.316 80.13C241.397 80.0713 241.466 80.042 241.525 80.042C241.628 80.042 241.719 80.1043 241.8 80.229L242.372 81.164C242.035 81.4793 241.628 81.7287 241.151 81.912C240.674 82.088 240.183 82.176 239.677 82.176C238.797 82.176 238.119 81.9303 237.642 81.439C237.173 80.9477 236.938 80.24 236.938 79.316V72.496H235.596C235.479 72.496 235.38 72.463 235.299 72.397C235.218 72.3237 235.178 72.2137 235.178 72.067V71.286L237.004 71.044L237.455 67.612C237.477 67.502 237.525 67.414 237.598 67.348C237.679 67.2747 237.781 67.238 237.906 67.238H238.896V71.077H246.596V82ZM247.08 67.282C247.08 67.4727 247.04 67.6523 246.959 67.821C246.886 67.9823 246.783 68.1253 246.651 68.25C246.526 68.3747 246.38 68.4737 246.211 68.547C246.042 68.6203 245.863 68.657 245.672 68.657C245.481 68.657 245.302 68.6203 245.133 68.547C244.972 68.4737 244.829 68.3747 244.704 68.25C244.579 68.1253 244.48 67.9823 244.407 67.821C244.334 67.6523 244.297 67.4727 244.297 67.282C244.297 67.0913 244.334 66.9117 244.407 66.743C244.48 66.567 244.579 66.4167 244.704 66.292C244.829 66.16 244.972 66.0573 245.133 65.984C245.302 65.9107 245.481 65.874 245.672 65.874C245.863 65.874 246.042 65.9107 246.211 65.984C246.38 66.0573 246.526 66.16 246.651 66.292C246.783 66.4167 246.886 66.567 246.959 66.743C247.04 66.9117 247.08 67.0913 247.08 67.282ZM254.51 70.681C255.324 70.681 256.057 70.8167 256.71 71.088C257.362 71.3593 257.92 71.7443 258.382 72.243C258.844 72.7417 259.196 73.3467 259.438 74.058C259.687 74.762 259.812 75.5503 259.812 76.423C259.812 77.303 259.687 78.095 259.438 78.799C259.196 79.503 258.844 80.1043 258.382 80.603C257.92 81.1017 257.362 81.4867 256.71 81.758C256.057 82.022 255.324 82.154 254.51 82.154C253.688 82.154 252.948 82.022 252.288 81.758C251.635 81.4867 251.078 81.1017 250.616 80.603C250.154 80.1043 249.798 79.503 249.549 78.799C249.307 78.095 249.186 77.303 249.186 76.423C249.186 75.5503 249.307 74.762 249.549 74.058C249.798 73.3467 250.154 72.7417 250.616 72.243C251.078 71.7443 251.635 71.3593 252.288 71.088C252.948 70.8167 253.688 70.681 254.51 70.681ZM254.51 80.625C255.61 80.625 256.431 80.2583 256.974 79.525C257.516 78.7843 257.788 77.754 257.788 76.434C257.788 75.1067 257.516 74.0727 256.974 73.332C256.431 72.5913 255.61 72.221 254.51 72.221C253.952 72.221 253.465 72.3163 253.047 72.507C252.636 72.6977 252.291 72.9727 252.013 73.332C251.741 73.6913 251.536 74.135 251.397 74.663C251.265 75.1837 251.199 75.774 251.199 76.434C251.199 77.754 251.47 78.7843 252.013 79.525C252.563 80.2583 253.395 80.625 254.51 80.625ZM264.143 72.474C264.385 72.2027 264.642 71.957 264.913 71.737C265.184 71.517 265.47 71.33 265.771 71.176C266.079 71.0147 266.402 70.8937 266.739 70.813C267.084 70.725 267.454 70.681 267.85 70.681C268.459 70.681 268.994 70.7837 269.456 70.989C269.925 71.187 270.314 71.473 270.622 71.847C270.937 72.2137 271.176 72.6573 271.337 73.178C271.498 73.6987 271.579 74.2743 271.579 74.905V82H269.61V74.905C269.61 74.0617 269.416 73.409 269.027 72.947C268.646 72.4777 268.063 72.243 267.278 72.243C266.699 72.243 266.156 72.3823 265.65 72.661C265.151 72.9397 264.689 73.3173 264.264 73.794V82H262.295V70.857H263.472C263.751 70.857 263.923 70.9927 263.989 71.264L264.143 72.474ZM283.613 82.176C282.733 82.176 282.054 81.9303 281.578 81.439C281.108 80.9477 280.874 80.24 280.874 79.316V72.496H279.532C279.414 72.496 279.315 72.463 279.235 72.397C279.154 72.3237 279.114 72.2137 279.114 72.067V71.286L280.94 71.055L281.391 67.612C281.413 67.502 281.46 67.414 281.534 67.348C281.614 67.2747 281.717 67.238 281.842 67.238H282.832V71.077H286.055V72.496H282.832V79.184C282.832 79.6533 282.945 80.0017 283.173 80.229C283.4 80.4563 283.693 80.57 284.053 80.57C284.258 80.57 284.434 80.5443 284.581 80.493C284.735 80.4343 284.867 80.372 284.977 80.306C285.087 80.24 285.178 80.1813 285.252 80.13C285.332 80.0713 285.402 80.042 285.461 80.042C285.563 80.042 285.655 80.1043 285.736 80.229L286.308 81.164C285.97 81.4793 285.563 81.7287 285.087 81.912C284.61 82.088 284.119 82.176 283.613 82.176ZM292.709 70.681C293.523 70.681 294.256 70.8167 294.909 71.088C295.562 71.3593 296.119 71.7443 296.581 72.243C297.043 72.7417 297.395 73.3467 297.637 74.058C297.886 74.762 298.011 75.5503 298.011 76.423C298.011 77.303 297.886 78.095 297.637 78.799C297.395 79.503 297.043 80.1043 296.581 80.603C296.119 81.1017 295.562 81.4867 294.909 81.758C294.256 82.022 293.523 82.154 292.709 82.154C291.888 82.154 291.147 82.022 290.487 81.758C289.834 81.4867 289.277 81.1017 288.815 80.603C288.353 80.1043 287.997 79.503 287.748 78.799C287.506 78.095 287.385 77.303 287.385 76.423C287.385 75.5503 287.506 74.762 287.748 74.058C287.997 73.3467 288.353 72.7417 288.815 72.243C289.277 71.7443 289.834 71.3593 290.487 71.088C291.147 70.8167 291.888 70.681 292.709 70.681ZM292.709 80.625C293.809 80.625 294.63 80.2583 295.173 79.525C295.716 78.7843 295.987 77.754 295.987 76.434C295.987 75.1067 295.716 74.0727 295.173 73.332C294.63 72.5913 293.809 72.221 292.709 72.221C292.152 72.221 291.664 72.3163 291.246 72.507C290.835 72.6977 290.491 72.9727 290.212 73.332C289.941 73.6913 289.735 74.135 289.596 74.663C289.464 75.1837 289.398 75.774 289.398 76.434C289.398 77.754 289.669 78.7843 290.212 79.525C290.762 80.2583 291.594 80.625 292.709 80.625ZM314.648 68.701C314.582 68.811 314.509 68.8953 314.428 68.954C314.355 69.0053 314.263 69.031 314.153 69.031C314.029 69.031 313.882 68.9687 313.713 68.844C313.545 68.7193 313.332 68.5837 313.075 68.437C312.826 68.283 312.522 68.1437 312.162 68.019C311.81 67.8943 311.381 67.832 310.875 67.832C310.399 67.832 309.977 67.898 309.61 68.03C309.251 68.1547 308.947 68.327 308.697 68.547C308.455 68.767 308.272 69.0273 308.147 69.328C308.023 69.6213 307.96 69.9403 307.96 70.285C307.96 70.725 308.067 71.0917 308.279 71.385C308.499 71.671 308.785 71.9167 309.137 72.122C309.497 72.3273 309.9 72.507 310.347 72.661C310.802 72.8077 311.264 72.9617 311.733 73.123C312.21 73.2843 312.672 73.4677 313.119 73.673C313.574 73.871 313.977 74.124 314.329 74.432C314.689 74.74 314.975 75.1177 315.187 75.565C315.407 76.0123 315.517 76.5623 315.517 77.215C315.517 77.9043 315.4 78.5533 315.165 79.162C314.931 79.7633 314.586 80.2877 314.131 80.735C313.684 81.1823 313.13 81.5343 312.47 81.791C311.818 82.0477 311.073 82.176 310.237 82.176C309.211 82.176 308.279 81.9927 307.443 81.626C306.607 81.252 305.892 80.7497 305.298 80.119L305.914 79.107C305.973 79.0263 306.043 78.9603 306.123 78.909C306.211 78.8503 306.307 78.821 306.409 78.821C306.505 78.821 306.611 78.8613 306.728 78.942C306.853 79.0153 306.992 79.1107 307.146 79.228C307.3 79.3453 307.476 79.4737 307.674 79.613C307.872 79.7523 308.096 79.8807 308.345 79.998C308.602 80.1153 308.892 80.2143 309.214 80.295C309.537 80.3683 309.9 80.405 310.303 80.405C310.809 80.405 311.26 80.3353 311.656 80.196C312.052 80.0567 312.386 79.8623 312.657 79.613C312.936 79.3563 313.149 79.052 313.295 78.7C313.442 78.348 313.515 77.9557 313.515 77.523C313.515 77.0463 313.405 76.6577 313.185 76.357C312.973 76.049 312.69 75.7923 312.338 75.587C311.986 75.3817 311.583 75.2093 311.128 75.07C310.674 74.9233 310.212 74.7767 309.742 74.63C309.273 74.476 308.811 74.3 308.356 74.102C307.902 73.904 307.498 73.6473 307.146 73.332C306.794 73.0167 306.508 72.6243 306.288 72.155C306.076 71.6783 305.969 71.0917 305.969 70.395C305.969 69.8377 306.076 69.2987 306.288 68.778C306.508 68.2573 306.824 67.7953 307.234 67.392C307.652 66.9887 308.162 66.666 308.763 66.424C309.372 66.182 310.069 66.061 310.853 66.061C311.733 66.061 312.533 66.2003 313.251 66.479C313.977 66.7577 314.615 67.161 315.165 67.689L314.648 68.701ZM317.832 82V70.857H319.009C319.288 70.857 319.46 70.9927 319.526 71.264L319.669 72.408C320.08 71.902 320.542 71.4877 321.055 71.165C321.569 70.8423 322.163 70.681 322.837 70.681C323.585 70.681 324.19 70.89 324.652 71.308C325.122 71.726 325.459 72.2907 325.664 73.002C325.826 72.5987 326.031 72.2503 326.28 71.957C326.537 71.6637 326.823 71.4217 327.138 71.231C327.454 71.0403 327.787 70.901 328.139 70.813C328.499 70.725 328.862 70.681 329.228 70.681C329.815 70.681 330.336 70.7763 330.79 70.967C331.252 71.1503 331.641 71.4217 331.956 71.781C332.279 72.1403 332.525 72.584 332.693 73.112C332.862 73.6327 332.946 74.2303 332.946 74.905V82H330.977V74.905C330.977 74.0323 330.787 73.3723 330.405 72.925C330.024 72.4703 329.474 72.243 328.755 72.243C328.433 72.243 328.125 72.3017 327.831 72.419C327.545 72.529 327.292 72.694 327.072 72.914C326.852 73.134 326.676 73.4127 326.544 73.75C326.42 74.08 326.357 74.465 326.357 74.905V82H324.388V74.905C324.388 74.0103 324.209 73.343 323.849 72.903C323.49 72.463 322.966 72.243 322.276 72.243C321.792 72.243 321.345 72.375 320.934 72.639C320.524 72.8957 320.146 73.2477 319.801 73.695V82H317.832ZM341.961 76.984C341.059 77.0133 340.289 77.0867 339.651 77.204C339.02 77.314 338.503 77.4607 338.1 77.644C337.704 77.8273 337.414 78.0437 337.231 78.293C337.055 78.5423 336.967 78.821 336.967 79.129C336.967 79.4223 337.015 79.6753 337.11 79.888C337.205 80.1007 337.334 80.2767 337.495 80.416C337.664 80.548 337.858 80.647 338.078 80.713C338.305 80.7717 338.547 80.801 338.804 80.801C339.149 80.801 339.464 80.768 339.75 80.702C340.036 80.6287 340.304 80.526 340.553 80.394C340.81 80.262 341.052 80.1043 341.279 79.921C341.514 79.7377 341.741 79.5287 341.961 79.294V76.984ZM335.636 72.43C336.252 71.836 336.916 71.3923 337.627 71.099C338.338 70.8057 339.127 70.659 339.992 70.659C340.615 70.659 341.169 70.7617 341.653 70.967C342.137 71.1723 342.544 71.4583 342.874 71.825C343.204 72.1917 343.453 72.6353 343.622 73.156C343.791 73.6767 343.875 74.2487 343.875 74.872V82H343.006C342.815 82 342.669 81.9707 342.566 81.912C342.463 81.846 342.383 81.7213 342.324 81.538L342.104 80.482C341.811 80.7533 341.525 80.9953 341.246 81.208C340.967 81.4133 340.674 81.5893 340.366 81.736C340.058 81.8753 339.728 81.9817 339.376 82.055C339.031 82.1357 338.646 82.176 338.221 82.176C337.788 82.176 337.381 82.1173 337 82C336.619 81.8753 336.285 81.692 335.999 81.45C335.72 81.208 335.497 80.9037 335.328 80.537C335.167 80.163 335.086 79.723 335.086 79.217C335.086 78.777 335.207 78.3553 335.449 77.952C335.691 77.5413 336.083 77.1783 336.626 76.863C337.169 76.5477 337.876 76.291 338.749 76.093C339.622 75.8877 340.692 75.7703 341.961 75.741V74.872C341.961 74.0067 341.774 73.354 341.4 72.914C341.026 72.4667 340.48 72.243 339.761 72.243C339.277 72.243 338.87 72.3053 338.54 72.43C338.217 72.5473 337.935 72.683 337.693 72.837C337.458 72.9837 337.253 73.1193 337.077 73.244C336.908 73.3613 336.74 73.42 336.571 73.42C336.439 73.42 336.325 73.387 336.23 73.321C336.135 73.2477 336.054 73.1597 335.988 73.057L335.636 72.43ZM348.717 73.09C349.069 72.3273 349.501 71.7333 350.015 71.308C350.528 70.8753 351.155 70.659 351.896 70.659C352.13 70.659 352.354 70.6847 352.567 70.736C352.787 70.7873 352.981 70.868 353.15 70.978L353.007 72.441C352.963 72.6243 352.853 72.716 352.677 72.716C352.574 72.716 352.424 72.694 352.226 72.65C352.028 72.606 351.804 72.584 351.555 72.584C351.203 72.584 350.887 72.6353 350.609 72.738C350.337 72.8407 350.092 72.9947 349.872 73.2C349.659 73.398 349.465 73.6473 349.289 73.948C349.12 74.2413 348.966 74.5787 348.827 74.96V82H346.858V70.857H347.98C348.192 70.857 348.339 70.8973 348.42 70.978C348.5 71.0587 348.555 71.198 348.585 71.396L348.717 73.09ZM358.292 82.176C357.412 82.176 356.734 81.9303 356.257 81.439C355.788 80.9477 355.553 80.24 355.553 79.316V72.496H354.211C354.094 72.496 353.995 72.463 353.914 72.397C353.834 72.3237 353.793 72.2137 353.793 72.067V71.286L355.619 71.055L356.07 67.612C356.092 67.502 356.14 67.414 356.213 67.348C356.294 67.2747 356.397 67.238 356.521 67.238H357.511V71.077H360.734V72.496H357.511V79.184C357.511 79.6533 357.625 80.0017 357.852 80.229C358.08 80.4563 358.373 80.57 358.732 80.57C358.938 80.57 359.114 80.5443 359.26 80.493C359.414 80.4343 359.546 80.372 359.656 80.306C359.766 80.24 359.858 80.1813 359.931 80.13C360.012 80.0713 360.082 80.042 360.14 80.042C360.243 80.042 360.335 80.1043 360.415 80.229L360.987 81.164C360.65 81.4793 360.243 81.7287 359.766 81.912C359.29 82.088 358.798 82.176 358.292 82.176ZM144.197 104.744C144.314 104.744 144.417 104.792 144.505 104.887L145.352 105.8C144.707 106.548 143.922 107.131 142.998 107.549C142.081 107.967 140.97 108.176 139.665 108.176C138.536 108.176 137.509 107.982 136.585 107.593C135.661 107.197 134.873 106.647 134.22 105.943C133.567 105.232 133.061 104.381 132.702 103.391C132.343 102.401 132.163 101.312 132.163 100.124C132.163 98.936 132.35 97.847 132.724 96.857C133.098 95.867 133.622 95.0163 134.297 94.305C134.979 93.5937 135.793 93.0437 136.739 92.655C137.685 92.259 138.73 92.061 139.874 92.061C140.996 92.061 141.986 92.2407 142.844 92.6C143.702 92.9593 144.457 93.447 145.11 94.063L144.406 95.042C144.362 95.1153 144.303 95.1777 144.23 95.229C144.164 95.273 144.072 95.295 143.955 95.295C143.823 95.295 143.662 95.2253 143.471 95.086C143.28 94.9393 143.031 94.778 142.723 94.602C142.415 94.426 142.03 94.2683 141.568 94.129C141.106 93.9823 140.538 93.909 139.863 93.909C139.049 93.909 138.305 94.052 137.63 94.338C136.955 94.6167 136.372 95.0237 135.881 95.559C135.397 96.0943 135.019 96.747 134.748 97.517C134.477 98.287 134.341 99.156 134.341 100.124C134.341 101.107 134.48 101.983 134.759 102.753C135.045 103.523 135.43 104.176 135.914 104.711C136.405 105.239 136.981 105.642 137.641 105.921C138.308 106.2 139.027 106.339 139.797 106.339C140.266 106.339 140.688 106.313 141.062 106.262C141.443 106.203 141.792 106.115 142.107 105.998C142.43 105.881 142.727 105.734 142.998 105.558C143.277 105.375 143.552 105.158 143.823 104.909C143.948 104.799 144.072 104.744 144.197 104.744ZM151.847 96.681C152.661 96.681 153.394 96.8167 154.047 97.088C154.699 97.3593 155.257 97.7443 155.719 98.243C156.181 98.7417 156.533 99.3467 156.775 100.058C157.024 100.762 157.149 101.55 157.149 102.423C157.149 103.303 157.024 104.095 156.775 104.799C156.533 105.503 156.181 106.104 155.719 106.603C155.257 107.102 154.699 107.487 154.047 107.758C153.394 108.022 152.661 108.154 151.847 108.154C151.025 108.154 150.285 108.022 149.625 107.758C148.972 107.487 148.415 107.102 147.953 106.603C147.491 106.104 147.135 105.503 146.886 104.799C146.644 104.095 146.523 103.303 146.523 102.423C146.523 101.55 146.644 100.762 146.886 100.058C147.135 99.3467 147.491 98.7417 147.953 98.243C148.415 97.7443 148.972 97.3593 149.625 97.088C150.285 96.8167 151.025 96.681 151.847 96.681ZM151.847 106.625C152.947 106.625 153.768 106.258 154.311 105.525C154.853 104.784 155.125 103.754 155.125 102.434C155.125 101.107 154.853 100.073 154.311 99.332C153.768 98.5913 152.947 98.221 151.847 98.221C151.289 98.221 150.802 98.3163 150.384 98.507C149.973 98.6977 149.628 98.9727 149.35 99.332C149.078 99.6913 148.873 100.135 148.734 100.663C148.602 101.184 148.536 101.774 148.536 102.434C148.536 103.754 148.807 104.784 149.35 105.525C149.9 106.258 150.732 106.625 151.847 106.625ZM161.48 98.474C161.722 98.2027 161.979 97.957 162.25 97.737C162.521 97.517 162.807 97.33 163.108 97.176C163.416 97.0147 163.739 96.8937 164.076 96.813C164.421 96.725 164.791 96.681 165.187 96.681C165.796 96.681 166.331 96.7837 166.793 96.989C167.262 97.187 167.651 97.473 167.959 97.847C168.274 98.2137 168.513 98.6573 168.674 99.178C168.835 99.6987 168.916 100.274 168.916 100.905V108H166.947V100.905C166.947 100.062 166.753 99.409 166.364 98.947C165.983 98.4777 165.4 98.243 164.615 98.243C164.036 98.243 163.493 98.3823 162.987 98.661C162.488 98.9397 162.026 99.3173 161.601 99.794V108H159.632V96.857H160.809C161.088 96.857 161.26 96.9927 161.326 97.264L161.48 98.474ZM175.17 108.176C174.29 108.176 173.612 107.93 173.135 107.439C172.666 106.948 172.431 106.24 172.431 105.316V98.496H171.089C170.972 98.496 170.873 98.463 170.792 98.397C170.712 98.3237 170.671 98.2137 170.671 98.067V97.286L172.497 97.055L172.948 93.612C172.97 93.502 173.018 93.414 173.091 93.348C173.172 93.2747 173.275 93.238 173.399 93.238H174.389V97.077H177.612V98.496H174.389V105.184C174.389 105.653 174.503 106.002 174.73 106.229C174.958 106.456 175.251 106.57 175.61 106.57C175.816 106.57 175.992 106.544 176.138 106.493C176.292 106.434 176.424 106.372 176.534 106.306C176.644 106.24 176.736 106.181 176.809 106.13C176.89 106.071 176.96 106.042 177.018 106.042C177.121 106.042 177.213 106.104 177.293 106.229L177.865 107.164C177.528 107.479 177.121 107.729 176.644 107.912C176.168 108.088 175.676 108.176 175.17 108.176ZM181.493 99.09C181.845 98.3273 182.278 97.7333 182.791 97.308C183.304 96.8753 183.931 96.659 184.672 96.659C184.907 96.659 185.13 96.6847 185.343 96.736C185.563 96.7873 185.757 96.868 185.926 96.978L185.783 98.441C185.739 98.6243 185.629 98.716 185.453 98.716C185.35 98.716 185.2 98.694 185.002 98.65C184.804 98.606 184.58 98.584 184.331 98.584C183.979 98.584 183.664 98.6353 183.385 98.738C183.114 98.8407 182.868 98.9947 182.648 99.2C182.435 99.398 182.241 99.6473 182.065 99.948C181.896 100.241 181.742 100.579 181.603 100.96V108H179.634V96.857H180.756C180.969 96.857 181.115 96.8973 181.196 96.978C181.277 97.0587 181.332 97.198 181.361 97.396L181.493 99.09ZM193.515 102.984C192.613 103.013 191.843 103.087 191.205 103.204C190.574 103.314 190.057 103.461 189.654 103.644C189.258 103.827 188.968 104.044 188.785 104.293C188.609 104.542 188.521 104.821 188.521 105.129C188.521 105.422 188.568 105.675 188.664 105.888C188.759 106.101 188.887 106.277 189.049 106.416C189.217 106.548 189.412 106.647 189.632 106.713C189.859 106.772 190.101 106.801 190.358 106.801C190.702 106.801 191.018 106.768 191.304 106.702C191.59 106.629 191.857 106.526 192.107 106.394C192.363 106.262 192.605 106.104 192.833 105.921C193.067 105.738 193.295 105.529 193.515 105.294V102.984ZM187.19 98.43C187.806 97.836 188.469 97.3923 189.181 97.099C189.892 96.8057 190.68 96.659 191.546 96.659C192.169 96.659 192.723 96.7617 193.207 96.967C193.691 97.1723 194.098 97.4583 194.428 97.825C194.758 98.1917 195.007 98.6353 195.176 99.156C195.344 99.6767 195.429 100.249 195.429 100.872V108H194.56C194.369 108 194.222 107.971 194.12 107.912C194.017 107.846 193.936 107.721 193.878 107.538L193.658 106.482C193.364 106.753 193.078 106.995 192.8 107.208C192.521 107.413 192.228 107.589 191.92 107.736C191.612 107.875 191.282 107.982 190.93 108.055C190.585 108.136 190.2 108.176 189.775 108.176C189.342 108.176 188.935 108.117 188.554 108C188.172 107.875 187.839 107.692 187.553 107.45C187.274 107.208 187.05 106.904 186.882 106.537C186.72 106.163 186.64 105.723 186.64 105.217C186.64 104.777 186.761 104.355 187.003 103.952C187.245 103.541 187.637 103.178 188.18 102.863C188.722 102.548 189.43 102.291 190.303 102.093C191.175 101.888 192.246 101.77 193.515 101.741V100.872C193.515 100.007 193.328 99.354 192.954 98.914C192.58 98.4667 192.033 98.243 191.315 98.243C190.831 98.243 190.424 98.3053 190.094 98.43C189.771 98.5473 189.489 98.683 189.247 98.837C189.012 98.9837 188.807 99.1193 188.631 99.244C188.462 99.3613 188.293 99.42 188.125 99.42C187.993 99.42 187.879 99.387 187.784 99.321C187.688 99.2477 187.608 99.1597 187.542 99.057L187.19 98.43ZM206.166 98.837C206.108 98.9177 206.049 98.98 205.99 99.024C205.932 99.068 205.851 99.09 205.748 99.09C205.638 99.09 205.517 99.046 205.385 98.958C205.253 98.8627 205.088 98.76 204.89 98.65C204.7 98.54 204.461 98.441 204.175 98.353C203.897 98.2577 203.552 98.21 203.141 98.21C202.591 98.21 202.107 98.309 201.689 98.507C201.271 98.6977 200.919 98.9763 200.633 99.343C200.355 99.7097 200.142 100.153 199.995 100.674C199.856 101.195 199.786 101.778 199.786 102.423C199.786 103.098 199.863 103.699 200.017 104.227C200.171 104.748 200.388 105.188 200.666 105.547C200.952 105.899 201.293 106.17 201.689 106.361C202.093 106.544 202.544 106.636 203.042 106.636C203.519 106.636 203.911 106.581 204.219 106.471C204.527 106.354 204.78 106.225 204.978 106.086C205.184 105.947 205.352 105.822 205.484 105.712C205.624 105.595 205.759 105.536 205.891 105.536C206.053 105.536 206.177 105.598 206.265 105.723L206.815 106.438C206.573 106.739 206.298 106.995 205.99 107.208C205.682 107.421 205.349 107.6 204.989 107.747C204.637 107.886 204.267 107.989 203.878 108.055C203.49 108.121 203.094 108.154 202.69 108.154C201.994 108.154 201.345 108.026 200.743 107.769C200.149 107.512 199.632 107.142 199.192 106.658C198.752 106.167 198.408 105.565 198.158 104.854C197.909 104.143 197.784 103.332 197.784 102.423C197.784 101.594 197.898 100.828 198.125 100.124C198.36 99.42 198.697 98.815 199.137 98.309C199.585 97.7957 200.131 97.396 200.776 97.11C201.429 96.824 202.177 96.681 203.02 96.681C203.805 96.681 204.494 96.8093 205.088 97.066C205.69 97.3153 206.221 97.671 206.683 98.133L206.166 98.837ZM212.338 108.176C211.458 108.176 210.78 107.93 210.303 107.439C209.834 106.948 209.599 106.24 209.599 105.316V98.496H208.257C208.14 98.496 208.041 98.463 207.96 98.397C207.88 98.3237 207.839 98.2137 207.839 98.067V97.286L209.665 97.055L210.116 93.612C210.138 93.502 210.186 93.414 210.259 93.348C210.34 93.2747 210.443 93.238 210.567 93.238H211.557V97.077H214.78V98.496H211.557V105.184C211.557 105.653 211.671 106.002 211.898 106.229C212.126 106.456 212.419 106.57 212.778 106.57C212.984 106.57 213.16 106.544 213.306 106.493C213.46 106.434 213.592 106.372 213.702 106.306C213.812 106.24 213.904 106.181 213.977 106.13C214.058 106.071 214.128 106.042 214.186 106.042C214.289 106.042 214.381 106.104 214.461 106.229L215.033 107.164C214.696 107.479 214.289 107.729 213.812 107.912C213.336 108.088 212.844 108.176 212.338 108.176ZM223.292 98.694C223.204 98.8553 223.068 98.936 222.885 98.936C222.775 98.936 222.65 98.8957 222.511 98.815C222.372 98.7343 222.199 98.6463 221.994 98.551C221.796 98.4483 221.558 98.3567 221.279 98.276C221 98.188 220.67 98.144 220.289 98.144C219.959 98.144 219.662 98.188 219.398 98.276C219.134 98.3567 218.907 98.4703 218.716 98.617C218.533 98.7637 218.39 98.936 218.287 99.134C218.192 99.3247 218.144 99.5337 218.144 99.761C218.144 100.047 218.225 100.285 218.386 100.476C218.555 100.667 218.775 100.832 219.046 100.971C219.317 101.11 219.625 101.235 219.97 101.345C220.315 101.448 220.667 101.561 221.026 101.686C221.393 101.803 221.748 101.935 222.093 102.082C222.438 102.229 222.746 102.412 223.017 102.632C223.288 102.852 223.505 103.123 223.666 103.446C223.835 103.761 223.919 104.143 223.919 104.59C223.919 105.103 223.827 105.58 223.644 106.02C223.461 106.453 223.189 106.83 222.83 107.153C222.471 107.468 222.031 107.718 221.51 107.901C220.989 108.084 220.388 108.176 219.706 108.176C218.929 108.176 218.225 108.051 217.594 107.802C216.963 107.545 216.428 107.219 215.988 106.823L216.45 106.075C216.509 105.98 216.578 105.906 216.659 105.855C216.74 105.804 216.842 105.778 216.967 105.778C217.099 105.778 217.238 105.829 217.385 105.932C217.532 106.035 217.708 106.148 217.913 106.273C218.126 106.398 218.382 106.511 218.683 106.614C218.984 106.717 219.358 106.768 219.805 106.768C220.186 106.768 220.52 106.72 220.806 106.625C221.092 106.522 221.33 106.387 221.521 106.218C221.712 106.049 221.851 105.855 221.939 105.635C222.034 105.415 222.082 105.18 222.082 104.931C222.082 104.623 221.998 104.37 221.829 104.172C221.668 103.967 221.451 103.794 221.18 103.655C220.909 103.508 220.597 103.384 220.245 103.281C219.9 103.171 219.545 103.057 219.178 102.94C218.819 102.823 218.463 102.691 218.111 102.544C217.766 102.39 217.458 102.199 217.187 101.972C216.916 101.745 216.696 101.466 216.527 101.136C216.366 100.799 216.285 100.392 216.285 99.915C216.285 99.4897 216.373 99.0827 216.549 98.694C216.725 98.298 216.982 97.9533 217.319 97.66C217.656 97.3593 218.071 97.121 218.562 96.945C219.053 96.769 219.614 96.681 220.245 96.681C220.978 96.681 221.635 96.7983 222.214 97.033C222.801 97.2603 223.307 97.5757 223.732 97.979L223.292 98.694ZM234.544 108H232.41V92.237H234.544V108ZM240.71 108H238.576V92.237H240.71V108ZM260.458 100.124C260.458 101.503 260.308 102.698 260.007 103.71C259.714 104.715 259.311 105.547 258.797 106.207C258.284 106.867 257.675 107.358 256.971 107.681C256.275 108.004 255.527 108.165 254.727 108.165C253.921 108.165 253.169 108.004 252.472 107.681C251.783 107.358 251.182 106.867 250.668 106.207C250.155 105.547 249.752 104.715 249.458 103.71C249.165 102.698 249.018 101.503 249.018 100.124C249.018 98.7453 249.165 97.55 249.458 96.538C249.752 95.526 250.155 94.69 250.668 94.03C251.182 93.3627 251.783 92.8677 252.472 92.545C253.169 92.2223 253.921 92.061 254.727 92.061C255.527 92.061 256.275 92.2223 256.971 92.545C257.675 92.8677 258.284 93.3627 258.797 94.03C259.311 94.69 259.714 95.526 260.007 96.538C260.308 97.55 260.458 98.7453 260.458 100.124ZM258.423 100.124C258.423 98.9213 258.321 97.913 258.115 97.099C257.917 96.2777 257.646 95.6177 257.301 95.119C256.964 94.6203 256.572 94.2647 256.124 94.052C255.677 93.832 255.211 93.722 254.727 93.722C254.243 93.722 253.778 93.832 253.33 94.052C252.883 94.2647 252.491 94.6203 252.153 95.119C251.816 95.6177 251.545 96.2777 251.339 97.099C251.141 97.913 251.042 98.9213 251.042 100.124C251.042 101.327 251.141 102.335 251.339 103.149C251.545 103.963 251.816 104.619 252.153 105.118C252.491 105.617 252.883 105.976 253.33 106.196C253.778 106.409 254.243 106.515 254.727 106.515C255.211 106.515 255.677 106.409 256.124 106.196C256.572 105.976 256.964 105.617 257.301 105.118C257.646 104.619 257.917 103.963 258.115 103.149C258.321 102.335 258.423 101.327 258.423 100.124ZM272.318 106.504V108H263.87V106.504H267.247V95.757C267.247 95.4343 267.258 95.108 267.28 94.778L264.475 97.187C264.38 97.2677 264.284 97.319 264.189 97.341C264.094 97.3557 264.006 97.3557 263.925 97.341C263.844 97.3263 263.767 97.297 263.694 97.253C263.628 97.209 263.577 97.1613 263.54 97.11L262.924 96.263L267.621 92.204H269.216V106.504H272.318Z" fill="white"/>
</svg>
