<svg width="406" height="228" viewBox="0 0 406 228" fill="none" xmlns="http://www.w3.org/2000/svg">
<rect width="406" height="228" fill="black"/>
<path d="M98.7187 80.207V82H89.7757V66.237H91.8987V80.207H98.7187ZM107.278 75.213C107.278 74.7583 107.212 74.344 107.08 73.97C106.955 73.5887 106.768 73.2623 106.519 72.991C106.277 72.7123 105.98 72.4997 105.628 72.353C105.276 72.199 104.876 72.122 104.429 72.122C103.49 72.122 102.746 72.397 102.196 72.947C101.653 73.4897 101.316 74.245 101.184 75.213H107.278ZM108.862 80.438C108.62 80.7313 108.33 80.988 107.993 81.208C107.655 81.4207 107.292 81.5967 106.904 81.736C106.522 81.8753 106.126 81.978 105.716 82.044C105.305 82.1173 104.898 82.154 104.495 82.154C103.725 82.154 103.013 82.0257 102.361 81.769C101.715 81.505 101.154 81.1237 100.678 80.625C100.208 80.119 99.8416 79.4957 99.5776 78.755C99.3136 78.0143 99.1816 77.1637 99.1816 76.203C99.1816 75.4257 99.2989 74.6997 99.5336 74.025C99.7756 73.3503 100.12 72.7673 100.568 72.276C101.015 71.7773 101.561 71.3887 102.207 71.11C102.852 70.824 103.578 70.681 104.385 70.681C105.052 70.681 105.668 70.7947 106.233 71.022C106.805 71.242 107.296 71.5647 107.707 71.99C108.125 72.408 108.451 72.9287 108.686 73.552C108.92 74.168 109.038 74.872 109.038 75.664C109.038 75.972 109.005 76.1773 108.939 76.28C108.873 76.3827 108.748 76.434 108.565 76.434H101.118C101.14 77.138 101.235 77.7503 101.404 78.271C101.58 78.7917 101.822 79.228 102.13 79.58C102.438 79.9247 102.804 80.185 103.23 80.361C103.655 80.5297 104.132 80.614 104.66 80.614C105.151 80.614 105.573 80.559 105.925 80.449C106.284 80.3317 106.592 80.207 106.849 80.075C107.105 79.943 107.318 79.822 107.487 79.712C107.663 79.5947 107.813 79.536 107.938 79.536C108.099 79.536 108.224 79.5983 108.312 79.723L108.862 80.438ZM119.198 72.837C119.139 72.9177 119.08 72.98 119.022 73.024C118.963 73.068 118.882 73.09 118.78 73.09C118.67 73.09 118.549 73.046 118.417 72.958C118.285 72.8627 118.12 72.76 117.922 72.65C117.731 72.54 117.493 72.441 117.207 72.353C116.928 72.2577 116.583 72.21 116.173 72.21C115.623 72.21 115.139 72.309 114.721 72.507C114.303 72.6977 113.951 72.9763 113.665 73.343C113.386 73.7097 113.173 74.1533 113.027 74.674C112.887 75.1947 112.818 75.7777 112.818 76.423C112.818 77.0977 112.895 77.699 113.049 78.227C113.203 78.7477 113.419 79.1877 113.698 79.547C113.984 79.899 114.325 80.1703 114.721 80.361C115.124 80.5443 115.575 80.636 116.074 80.636C116.55 80.636 116.943 80.581 117.251 80.471C117.559 80.3537 117.812 80.2253 118.01 80.086C118.215 79.9467 118.384 79.822 118.516 79.712C118.655 79.5947 118.791 79.536 118.923 79.536C119.084 79.536 119.209 79.5983 119.297 79.723L119.847 80.438C119.605 80.7387 119.33 80.9953 119.022 81.208C118.714 81.4207 118.38 81.6003 118.021 81.747C117.669 81.8863 117.298 81.989 116.91 82.055C116.521 82.121 116.125 82.154 115.722 82.154C115.025 82.154 114.376 82.0257 113.775 81.769C113.181 81.5123 112.664 81.142 112.224 80.658C111.784 80.1667 111.439 79.5653 111.19 78.854C110.94 78.1427 110.816 77.3323 110.816 76.423C110.816 75.5943 110.929 74.828 111.157 74.124C111.391 73.42 111.729 72.815 112.169 72.309C112.616 71.7957 113.162 71.396 113.808 71.11C114.46 70.824 115.208 70.681 116.052 70.681C116.836 70.681 117.526 70.8093 118.12 71.066C118.721 71.3153 119.253 71.671 119.715 72.133L119.198 72.837ZM125.369 82.176C124.489 82.176 123.811 81.9303 123.334 81.439C122.865 80.9477 122.63 80.24 122.63 79.316V72.496H121.288C121.171 72.496 121.072 72.463 120.991 72.397C120.911 72.3237 120.87 72.2137 120.87 72.067V71.286L122.696 71.055L123.147 67.612C123.169 67.502 123.217 67.414 123.29 67.348C123.371 67.2747 123.474 67.238 123.598 67.238H124.588V71.077H127.811V72.496H124.588V79.184C124.588 79.6533 124.702 80.0017 124.929 80.229C125.157 80.4563 125.45 80.57 125.809 80.57C126.015 80.57 126.191 80.5443 126.337 80.493C126.491 80.4343 126.623 80.372 126.733 80.306C126.843 80.24 126.935 80.1813 127.008 80.13C127.089 80.0713 127.159 80.042 127.217 80.042C127.32 80.042 127.412 80.1043 127.492 80.229L128.064 81.164C127.727 81.4793 127.32 81.7287 126.843 81.912C126.367 82.088 125.875 82.176 125.369 82.176ZM138.996 70.857V82H137.83C137.552 82 137.376 81.8643 137.302 81.593L137.148 80.394C136.664 80.9293 136.122 81.362 135.52 81.692C134.919 82.0147 134.23 82.176 133.452 82.176C132.844 82.176 132.305 82.077 131.835 81.879C131.373 81.6737 130.985 81.3877 130.669 81.021C130.354 80.6543 130.116 80.2107 129.954 79.69C129.8 79.1693 129.723 78.5937 129.723 77.963V70.857H131.681V77.963C131.681 78.8063 131.872 79.459 132.253 79.921C132.642 80.383 133.232 80.614 134.024 80.614C134.604 80.614 135.143 80.4783 135.641 80.207C136.147 79.9283 136.613 79.547 137.038 79.063V70.857H138.996ZM143.96 73.09C144.312 72.3273 144.744 71.7333 145.258 71.308C145.771 70.8753 146.398 70.659 147.139 70.659C147.373 70.659 147.597 70.6847 147.81 70.736C148.03 70.7873 148.224 70.868 148.393 70.978L148.25 72.441C148.206 72.6243 148.096 72.716 147.92 72.716C147.817 72.716 147.667 72.694 147.469 72.65C147.271 72.606 147.047 72.584 146.798 72.584C146.446 72.584 146.13 72.6353 145.852 72.738C145.58 72.8407 145.335 72.9947 145.115 73.2C144.902 73.398 144.708 73.6473 144.532 73.948C144.363 74.2413 144.209 74.5787 144.07 74.96V82H142.101V70.857H143.223C143.435 70.857 143.582 70.8973 143.663 70.978C143.743 71.0587 143.798 71.198 143.828 71.396L143.96 73.09ZM157.121 75.213C157.121 74.7583 157.055 74.344 156.923 73.97C156.799 73.5887 156.612 73.2623 156.362 72.991C156.12 72.7123 155.823 72.4997 155.471 72.353C155.119 72.199 154.72 72.122 154.272 72.122C153.334 72.122 152.589 72.397 152.039 72.947C151.497 73.4897 151.159 74.245 151.027 75.213H157.121ZM158.705 80.438C158.463 80.7313 158.174 80.988 157.836 81.208C157.499 81.4207 157.136 81.5967 156.747 81.736C156.366 81.8753 155.97 81.978 155.559 82.044C155.149 82.1173 154.742 82.154 154.338 82.154C153.568 82.154 152.857 82.0257 152.204 81.769C151.559 81.505 150.998 81.1237 150.521 80.625C150.052 80.119 149.685 79.4957 149.421 78.755C149.157 78.0143 149.025 77.1637 149.025 76.203C149.025 75.4257 149.143 74.6997 149.377 74.025C149.619 73.3503 149.964 72.7673 150.411 72.276C150.859 71.7773 151.405 71.3887 152.05 71.11C152.696 70.824 153.422 70.681 154.228 70.681C154.896 70.681 155.512 70.7947 156.076 71.022C156.648 71.242 157.14 71.5647 157.55 71.99C157.968 72.408 158.295 72.9287 158.529 73.552C158.764 74.168 158.881 74.872 158.881 75.664C158.881 75.972 158.848 76.1773 158.782 76.28C158.716 76.3827 158.592 76.434 158.408 76.434H150.961C150.983 77.138 151.079 77.7503 151.247 78.271C151.423 78.7917 151.665 79.228 151.973 79.58C152.281 79.9247 152.648 80.185 153.073 80.361C153.499 80.5297 153.975 80.614 154.503 80.614C154.995 80.614 155.416 80.559 155.768 80.449C156.128 80.3317 156.436 80.207 156.692 80.075C156.949 79.943 157.162 79.822 157.33 79.712C157.506 79.5947 157.657 79.536 157.781 79.536C157.943 79.536 158.067 79.5983 158.155 79.723L158.705 80.438ZM171.722 80.548C172.25 80.548 172.727 80.4637 173.152 80.295C173.585 80.1263 173.952 79.8917 174.252 79.591C174.56 79.2903 174.795 78.9347 174.956 78.524C175.125 78.1133 175.209 77.666 175.209 77.182C175.209 76.6687 175.129 76.2067 174.967 75.796C174.806 75.378 174.575 75.026 174.274 74.74C173.981 74.4467 173.629 74.223 173.218 74.069C172.808 73.915 172.357 73.838 171.865 73.838C171.337 73.838 170.861 73.9297 170.435 74.113C170.01 74.289 169.647 74.531 169.346 74.839C169.053 75.1397 168.826 75.4917 168.664 75.895C168.51 76.291 168.433 76.7053 168.433 77.138C168.433 77.644 168.507 78.106 168.653 78.524C168.8 78.942 169.013 79.3013 169.291 79.602C169.577 79.9027 169.922 80.1373 170.325 80.306C170.736 80.4673 171.202 80.548 171.722 80.548ZM170.578 72.144C170.439 72.32 170.303 72.4923 170.171 72.661C170.047 72.8223 169.926 72.9837 169.808 73.145C170.182 72.8883 170.593 72.6903 171.04 72.551C171.488 72.4117 171.975 72.342 172.503 72.342C173.141 72.342 173.743 72.4483 174.307 72.661C174.872 72.8663 175.363 73.1707 175.781 73.574C176.207 73.97 176.544 74.4613 176.793 75.048C177.043 75.6273 177.167 76.291 177.167 77.039C177.167 77.765 177.035 78.4397 176.771 79.063C176.507 79.6863 176.137 80.229 175.66 80.691C175.191 81.153 174.623 81.516 173.955 81.78C173.295 82.044 172.566 82.176 171.766 82.176C170.974 82.176 170.256 82.0513 169.61 81.802C168.965 81.5453 168.415 81.186 167.96 80.724C167.513 80.2547 167.165 79.69 166.915 79.03C166.673 78.3627 166.552 77.6183 166.552 76.797C166.552 76.1077 166.703 75.3743 167.003 74.597C167.311 73.8123 167.799 72.9763 168.466 72.089L172.47 66.71C172.573 66.578 172.712 66.468 172.888 66.38C173.072 66.2847 173.281 66.237 173.515 66.237H175.253L170.578 72.144ZM185.13 74.575H190.564V76.236H185.13V74.575ZM212.365 74.421V80.471C211.573 81.043 210.726 81.472 209.824 81.758C208.929 82.0367 207.947 82.176 206.876 82.176C205.607 82.176 204.463 81.9817 203.444 81.593C202.425 81.197 201.552 80.647 200.826 79.943C200.107 79.2317 199.554 78.381 199.165 77.391C198.776 76.401 198.582 75.312 198.582 74.124C198.582 72.9213 198.769 71.825 199.143 70.835C199.524 69.845 200.063 68.998 200.76 68.294C201.457 67.5827 202.304 67.0327 203.301 66.644C204.298 66.2553 205.413 66.061 206.645 66.061C207.268 66.061 207.848 66.1087 208.383 66.204C208.918 66.292 209.413 66.424 209.868 66.6C210.323 66.7687 210.744 66.9777 211.133 67.227C211.522 67.469 211.885 67.744 212.222 68.052L211.617 69.02C211.522 69.1667 211.397 69.262 211.243 69.306C211.096 69.3427 210.931 69.306 210.748 69.196C210.572 69.0933 210.37 68.9687 210.143 68.822C209.916 68.6753 209.637 68.536 209.307 68.404C208.984 68.2647 208.599 68.1473 208.152 68.052C207.712 67.9567 207.188 67.909 206.579 67.909C205.692 67.909 204.889 68.0557 204.17 68.349C203.451 68.635 202.839 69.0493 202.333 69.592C201.827 70.1273 201.438 70.78 201.167 71.55C200.896 72.3127 200.76 73.1707 200.76 74.124C200.76 75.114 200.899 76.0013 201.178 76.786C201.464 77.5633 201.867 78.227 202.388 78.777C202.916 79.3197 203.554 79.734 204.302 80.02C205.05 80.306 205.89 80.449 206.821 80.449C207.554 80.449 208.203 80.3683 208.768 80.207C209.34 80.0383 209.897 79.8073 210.44 79.514V76.049H207.987C207.848 76.049 207.734 76.0087 207.646 75.928C207.565 75.8473 207.525 75.7483 207.525 75.631V74.421H212.365ZM221.144 76.984C220.242 77.0133 219.472 77.0867 218.834 77.204C218.203 77.314 217.686 77.4607 217.283 77.644C216.887 77.8273 216.597 78.0437 216.414 78.293C216.238 78.5423 216.15 78.821 216.15 79.129C216.15 79.4223 216.197 79.6753 216.293 79.888C216.388 80.1007 216.516 80.2767 216.678 80.416C216.846 80.548 217.041 80.647 217.261 80.713C217.488 80.7717 217.73 80.801 217.987 80.801C218.331 80.801 218.647 80.768 218.933 80.702C219.219 80.6287 219.486 80.526 219.736 80.394C219.992 80.262 220.234 80.1043 220.462 79.921C220.696 79.7377 220.924 79.5287 221.144 79.294V76.984ZM214.819 72.43C215.435 71.836 216.098 71.3923 216.81 71.099C217.521 70.8057 218.309 70.659 219.175 70.659C219.798 70.659 220.352 70.7617 220.836 70.967C221.32 71.1723 221.727 71.4583 222.057 71.825C222.387 72.1917 222.636 72.6353 222.805 73.156C222.973 73.6767 223.058 74.2487 223.058 74.872V82H222.189C221.998 82 221.851 81.9707 221.749 81.912C221.646 81.846 221.565 81.7213 221.507 81.538L221.287 80.482C220.993 80.7533 220.707 80.9953 220.429 81.208C220.15 81.4133 219.857 81.5893 219.549 81.736C219.241 81.8753 218.911 81.9817 218.559 82.055C218.214 82.1357 217.829 82.176 217.404 82.176C216.971 82.176 216.564 82.1173 216.183 82C215.801 81.8753 215.468 81.692 215.182 81.45C214.903 81.208 214.679 80.9037 214.511 80.537C214.349 80.163 214.269 79.723 214.269 79.217C214.269 78.777 214.39 78.3553 214.632 77.952C214.874 77.5413 215.266 77.1783 215.809 76.863C216.351 76.5477 217.059 76.291 217.932 76.093C218.804 75.8877 219.875 75.7703 221.144 75.741V74.872C221.144 74.0067 220.957 73.354 220.583 72.914C220.209 72.4667 219.662 72.243 218.944 72.243C218.46 72.243 218.053 72.3053 217.723 72.43C217.4 72.5473 217.118 72.683 216.876 72.837C216.641 72.9837 216.436 73.1193 216.26 73.244C216.091 73.3613 215.922 73.42 215.754 73.42C215.622 73.42 215.508 73.387 215.413 73.321C215.317 73.2477 215.237 73.1597 215.171 73.057L214.819 72.43ZM232.53 72.694C232.442 72.8553 232.307 72.936 232.123 72.936C232.013 72.936 231.889 72.8957 231.749 72.815C231.61 72.7343 231.438 72.6463 231.232 72.551C231.034 72.4483 230.796 72.3567 230.517 72.276C230.239 72.188 229.909 72.144 229.527 72.144C229.197 72.144 228.9 72.188 228.636 72.276C228.372 72.3567 228.145 72.4703 227.954 72.617C227.771 72.7637 227.628 72.936 227.525 73.134C227.43 73.3247 227.382 73.5337 227.382 73.761C227.382 74.047 227.463 74.2853 227.624 74.476C227.793 74.6667 228.013 74.8317 228.284 74.971C228.556 75.1103 228.864 75.235 229.208 75.345C229.553 75.4477 229.905 75.5613 230.264 75.686C230.631 75.8033 230.987 75.9353 231.331 76.082C231.676 76.2287 231.984 76.412 232.255 76.632C232.527 76.852 232.743 77.1233 232.904 77.446C233.073 77.7613 233.157 78.1427 233.157 78.59C233.157 79.1033 233.066 79.58 232.882 80.02C232.699 80.4527 232.428 80.8303 232.068 81.153C231.709 81.4683 231.269 81.7177 230.748 81.901C230.228 82.0843 229.626 82.176 228.944 82.176C228.167 82.176 227.463 82.0513 226.832 81.802C226.202 81.5453 225.666 81.219 225.226 80.823L225.688 80.075C225.747 79.9797 225.817 79.9063 225.897 79.855C225.978 79.8037 226.081 79.778 226.205 79.778C226.337 79.778 226.477 79.8293 226.623 79.932C226.77 80.0347 226.946 80.1483 227.151 80.273C227.364 80.3977 227.621 80.5113 227.921 80.614C228.222 80.7167 228.596 80.768 229.043 80.768C229.425 80.768 229.758 80.7203 230.044 80.625C230.33 80.5223 230.569 80.3867 230.759 80.218C230.95 80.0493 231.089 79.855 231.177 79.635C231.273 79.415 231.32 79.1803 231.32 78.931C231.32 78.623 231.236 78.37 231.067 78.172C230.906 77.9667 230.69 77.7943 230.418 77.655C230.147 77.5083 229.835 77.3837 229.483 77.281C229.139 77.171 228.783 77.0573 228.416 76.94C228.057 76.8227 227.701 76.6907 227.349 76.544C227.005 76.39 226.697 76.1993 226.425 75.972C226.154 75.7447 225.934 75.466 225.765 75.136C225.604 74.7987 225.523 74.3917 225.523 73.915C225.523 73.4897 225.611 73.0827 225.787 72.694C225.963 72.298 226.22 71.9533 226.557 71.66C226.895 71.3593 227.309 71.121 227.8 70.945C228.292 70.769 228.853 70.681 229.483 70.681C230.217 70.681 230.873 70.7983 231.452 71.033C232.039 71.2603 232.545 71.5757 232.97 71.979L232.53 72.694ZM247.226 76.984C246.324 77.0133 245.554 77.0867 244.916 77.204C244.285 77.314 243.768 77.4607 243.365 77.644C242.969 77.8273 242.679 78.0437 242.496 78.293C242.32 78.5423 242.232 78.821 242.232 79.129C242.232 79.4223 242.279 79.6753 242.375 79.888C242.47 80.1007 242.598 80.2767 242.76 80.416C242.928 80.548 243.123 80.647 243.343 80.713C243.57 80.7717 243.812 80.801 244.069 80.801C244.413 80.801 244.729 80.768 245.015 80.702C245.301 80.6287 245.568 80.526 245.818 80.394C246.074 80.262 246.316 80.1043 246.544 79.921C246.778 79.7377 247.006 79.5287 247.226 79.294V76.984ZM240.901 72.43C241.517 71.836 242.18 71.3923 242.892 71.099C243.603 70.8057 244.391 70.659 245.257 70.659C245.88 70.659 246.434 70.7617 246.918 70.967C247.402 71.1723 247.809 71.4583 248.139 71.825C248.469 72.1917 248.718 72.6353 248.887 73.156C249.055 73.6767 249.14 74.2487 249.14 74.872V82H248.271C248.08 82 247.933 81.9707 247.831 81.912C247.728 81.846 247.647 81.7213 247.589 81.538L247.369 80.482C247.075 80.7533 246.789 80.9953 246.511 81.208C246.232 81.4133 245.939 81.5893 245.631 81.736C245.323 81.8753 244.993 81.9817 244.641 82.055C244.296 82.1357 243.911 82.176 243.486 82.176C243.053 82.176 242.646 82.1173 242.265 82C241.883 81.8753 241.55 81.692 241.264 81.45C240.985 81.208 240.761 80.9037 240.593 80.537C240.431 80.163 240.351 79.723 240.351 79.217C240.351 78.777 240.472 78.3553 240.714 77.952C240.956 77.5413 241.348 77.1783 241.891 76.863C242.433 76.5477 243.141 76.291 244.014 76.093C244.886 75.8877 245.957 75.7703 247.226 75.741V74.872C247.226 74.0067 247.039 73.354 246.665 72.914C246.291 72.4667 245.744 72.243 245.026 72.243C244.542 72.243 244.135 72.3053 243.805 72.43C243.482 72.5473 243.2 72.683 242.958 72.837C242.723 72.9837 242.518 73.1193 242.342 73.244C242.173 73.3613 242.004 73.42 241.836 73.42C241.704 73.42 241.59 73.387 241.495 73.321C241.399 73.2477 241.319 73.1597 241.253 73.057L240.901 72.43ZM253.97 72.474C254.212 72.2027 254.469 71.957 254.74 71.737C255.012 71.517 255.298 71.33 255.598 71.176C255.906 71.0147 256.229 70.8937 256.566 70.813C256.911 70.725 257.281 70.681 257.677 70.681C258.286 70.681 258.821 70.7837 259.283 70.989C259.753 71.187 260.141 71.473 260.449 71.847C260.765 72.2137 261.003 72.6573 261.164 73.178C261.326 73.6987 261.406 74.2743 261.406 74.905V82H259.437V74.905C259.437 74.0617 259.243 73.409 258.854 72.947C258.473 72.4777 257.89 72.243 257.105 72.243C256.526 72.243 255.983 72.3823 255.477 72.661C254.979 72.9397 254.517 73.3173 254.091 73.794V82H252.122V70.857H253.299C253.578 70.857 253.75 70.9927 253.816 71.264L253.97 72.474ZM271.65 73.508C271.283 73.0167 270.887 72.6757 270.462 72.485C270.037 72.287 269.56 72.188 269.032 72.188C267.998 72.188 267.202 72.5583 266.645 73.299C266.088 74.0397 265.809 75.0957 265.809 76.467C265.809 77.193 265.871 77.8163 265.996 78.337C266.121 78.8503 266.304 79.2757 266.546 79.613C266.788 79.943 267.085 80.185 267.437 80.339C267.789 80.493 268.189 80.57 268.636 80.57C269.281 80.57 269.842 80.4233 270.319 80.13C270.803 79.8367 271.247 79.4223 271.65 78.887V73.508ZM273.608 65.797V82H272.442C272.163 82 271.987 81.8643 271.914 81.593L271.738 80.24C271.261 80.812 270.719 81.274 270.11 81.626C269.501 81.978 268.797 82.154 267.998 82.154C267.36 82.154 266.781 82.033 266.26 81.791C265.739 81.5417 265.296 81.1787 264.929 80.702C264.562 80.2253 264.28 79.6313 264.082 78.92C263.884 78.2087 263.785 77.391 263.785 76.467C263.785 75.6457 263.895 74.883 264.115 74.179C264.335 73.4677 264.65 72.8517 265.061 72.331C265.472 71.8103 265.974 71.4033 266.568 71.11C267.169 70.8093 267.844 70.659 268.592 70.659C269.274 70.659 269.857 70.7763 270.341 71.011C270.832 71.2383 271.269 71.5573 271.65 71.968V65.797H273.608ZM295.595 74.421V80.471C294.803 81.043 293.956 81.472 293.054 81.758C292.16 82.0367 291.177 82.176 290.106 82.176C288.838 82.176 287.694 81.9817 286.674 81.593C285.655 81.197 284.782 80.647 284.056 79.943C283.338 79.2317 282.784 78.381 282.395 77.391C282.007 76.401 281.812 75.312 281.812 74.124C281.812 72.9213 281.999 71.825 282.373 70.835C282.755 69.845 283.294 68.998 283.99 68.294C284.687 67.5827 285.534 67.0327 286.531 66.644C287.529 66.2553 288.643 66.061 289.875 66.061C290.499 66.061 291.078 66.1087 291.613 66.204C292.149 66.292 292.644 66.424 293.098 66.6C293.553 66.7687 293.975 66.9777 294.363 67.227C294.752 67.469 295.115 67.744 295.452 68.052L294.847 69.02C294.752 69.1667 294.627 69.262 294.473 69.306C294.327 69.3427 294.162 69.306 293.978 69.196C293.802 69.0933 293.601 68.9687 293.373 68.822C293.146 68.6753 292.867 68.536 292.537 68.404C292.215 68.2647 291.83 68.1473 291.382 68.052C290.942 67.9567 290.418 67.909 289.809 67.909C288.922 67.909 288.119 68.0557 287.4 68.349C286.682 68.635 286.069 69.0493 285.563 69.592C285.057 70.1273 284.669 70.78 284.397 71.55C284.126 72.3127 283.99 73.1707 283.99 74.124C283.99 75.114 284.13 76.0013 284.408 76.786C284.694 77.5633 285.098 78.227 285.618 78.777C286.146 79.3197 286.784 79.734 287.532 80.02C288.28 80.306 289.12 80.449 290.051 80.449C290.785 80.449 291.434 80.3683 291.998 80.207C292.57 80.0383 293.128 79.8073 293.67 79.514V76.049H291.217C291.078 76.049 290.964 76.0087 290.876 75.928C290.796 75.8473 290.755 75.7483 290.755 75.631V74.421H295.595ZM304.374 76.984C303.472 77.0133 302.702 77.0867 302.064 77.204C301.434 77.314 300.917 77.4607 300.513 77.644C300.117 77.8273 299.828 78.0437 299.644 78.293C299.468 78.5423 299.38 78.821 299.38 79.129C299.38 79.4223 299.428 79.6753 299.523 79.888C299.619 80.1007 299.747 80.2767 299.908 80.416C300.077 80.548 300.271 80.647 300.491 80.713C300.719 80.7717 300.961 80.801 301.217 80.801C301.562 80.801 301.877 80.768 302.163 80.702C302.449 80.6287 302.717 80.526 302.966 80.394C303.223 80.262 303.465 80.1043 303.692 79.921C303.927 79.7377 304.154 79.5287 304.374 79.294V76.984ZM298.049 72.43C298.665 71.836 299.329 71.3923 300.04 71.099C300.752 70.8057 301.54 70.659 302.405 70.659C303.029 70.659 303.582 70.7617 304.066 70.967C304.55 71.1723 304.957 71.4583 305.287 71.825C305.617 72.1917 305.867 72.6353 306.035 73.156C306.204 73.6767 306.288 74.2487 306.288 74.872V82H305.419C305.229 82 305.082 81.9707 304.979 81.912C304.877 81.846 304.796 81.7213 304.737 81.538L304.517 80.482C304.224 80.7533 303.938 80.9953 303.659 81.208C303.381 81.4133 303.087 81.5893 302.779 81.736C302.471 81.8753 302.141 81.9817 301.789 82.055C301.445 82.1357 301.06 82.176 300.634 82.176C300.202 82.176 299.795 82.1173 299.413 82C299.032 81.8753 298.698 81.692 298.412 81.45C298.134 81.208 297.91 80.9037 297.741 80.537C297.58 80.163 297.499 79.723 297.499 79.217C297.499 78.777 297.62 78.3553 297.862 77.952C298.104 77.5413 298.497 77.1783 299.039 76.863C299.582 76.5477 300.29 76.291 301.162 76.093C302.035 75.8877 303.106 75.7703 304.374 75.741V74.872C304.374 74.0067 304.187 73.354 303.813 72.914C303.439 72.4667 302.893 72.243 302.174 72.243C301.69 72.243 301.283 72.3053 300.953 72.43C300.631 72.5473 300.348 72.683 300.106 72.837C299.872 72.9837 299.666 73.1193 299.49 73.244C299.322 73.3613 299.153 73.42 298.984 73.42C298.852 73.42 298.739 73.387 298.643 73.321C298.548 73.2477 298.467 73.1597 298.401 73.057L298.049 72.43ZM315.761 72.694C315.673 72.8553 315.537 72.936 315.354 72.936C315.244 72.936 315.119 72.8957 314.98 72.815C314.84 72.7343 314.668 72.6463 314.463 72.551C314.265 72.4483 314.026 72.3567 313.748 72.276C313.469 72.188 313.139 72.144 312.758 72.144C312.428 72.144 312.131 72.188 311.867 72.276C311.603 72.3567 311.375 72.4703 311.185 72.617C311.001 72.7637 310.858 72.936 310.756 73.134C310.66 73.3247 310.613 73.5337 310.613 73.761C310.613 74.047 310.693 74.2853 310.855 74.476C311.023 74.6667 311.243 74.8317 311.515 74.971C311.786 75.1103 312.094 75.235 312.439 75.345C312.783 75.4477 313.135 75.5613 313.495 75.686C313.861 75.8033 314.217 75.9353 314.562 76.082C314.906 76.2287 315.214 76.412 315.486 76.632C315.757 76.852 315.973 77.1233 316.135 77.446C316.303 77.7613 316.388 78.1427 316.388 78.59C316.388 79.1033 316.296 79.58 316.113 80.02C315.929 80.4527 315.658 80.8303 315.299 81.153C314.939 81.4683 314.499 81.7177 313.979 81.901C313.458 82.0843 312.857 82.176 312.175 82.176C311.397 82.176 310.693 82.0513 310.063 81.802C309.432 81.5453 308.897 81.219 308.457 80.823L308.919 80.075C308.977 79.9797 309.047 79.9063 309.128 79.855C309.208 79.8037 309.311 79.778 309.436 79.778C309.568 79.778 309.707 79.8293 309.854 79.932C310 80.0347 310.176 80.1483 310.382 80.273C310.594 80.3977 310.851 80.5113 311.152 80.614C311.452 80.7167 311.826 80.768 312.274 80.768C312.655 80.768 312.989 80.7203 313.275 80.625C313.561 80.5223 313.799 80.3867 313.99 80.218C314.18 80.0493 314.32 79.855 314.408 79.635C314.503 79.415 314.551 79.1803 314.551 78.931C314.551 78.623 314.466 78.37 314.298 78.172C314.136 77.9667 313.92 77.7943 313.649 77.655C313.377 77.5083 313.066 77.3837 312.714 77.281C312.369 77.171 312.013 77.0573 311.647 76.94C311.287 76.8227 310.932 76.6907 310.58 76.544C310.235 76.39 309.927 76.1993 309.656 75.972C309.384 75.7447 309.164 75.466 308.996 75.136C308.834 74.7987 308.754 74.3917 308.754 73.915C308.754 73.4897 308.842 73.0827 309.018 72.694C309.194 72.298 309.45 71.9533 309.788 71.66C310.125 71.3593 310.539 71.121 311.031 70.945C311.522 70.769 312.083 70.681 312.714 70.681C313.447 70.681 314.103 70.7983 314.683 71.033C315.269 71.2603 315.775 71.5757 316.201 71.979L315.761 72.694ZM85.8934 94.701C85.8274 94.811 85.7541 94.8953 85.6734 94.954C85.6 95.0053 85.5084 95.031 85.3984 95.031C85.2737 95.031 85.127 94.9687 84.9584 94.844C84.7897 94.7193 84.577 94.5837 84.3204 94.437C84.071 94.283 83.7667 94.1437 83.4074 94.019C83.0554 93.8943 82.6264 93.832 82.1204 93.832C81.6437 93.832 81.222 93.898 80.8554 94.03C80.496 94.1547 80.1917 94.327 79.9424 94.547C79.7004 94.767 79.517 95.0273 79.3924 95.328C79.2677 95.6213 79.2054 95.9403 79.2054 96.285C79.2054 96.725 79.3117 97.0917 79.5244 97.385C79.7444 97.671 80.0304 97.9167 80.3824 98.122C80.7417 98.3273 81.145 98.507 81.5924 98.661C82.047 98.8077 82.509 98.9617 82.9784 99.123C83.455 99.2843 83.917 99.4677 84.3644 99.673C84.819 99.871 85.2224 100.124 85.5744 100.432C85.9337 100.74 86.2197 101.118 86.4324 101.565C86.6524 102.012 86.7624 102.562 86.7624 103.215C86.7624 103.904 86.6451 104.553 86.4104 105.162C86.1757 105.763 85.831 106.288 85.3764 106.735C84.929 107.182 84.3754 107.534 83.7154 107.791C83.0627 108.048 82.3184 108.176 81.4824 108.176C80.4557 108.176 79.5244 107.993 78.6884 107.626C77.8524 107.252 77.1374 106.75 76.5434 106.119L77.1594 105.107C77.218 105.026 77.2877 104.96 77.3684 104.909C77.4564 104.85 77.5517 104.821 77.6544 104.821C77.7497 104.821 77.856 104.861 77.9734 104.942C78.098 105.015 78.2374 105.111 78.3914 105.228C78.5454 105.345 78.7214 105.474 78.9194 105.613C79.1174 105.752 79.341 105.881 79.5904 105.998C79.847 106.115 80.1367 106.214 80.4594 106.295C80.782 106.368 81.145 106.405 81.5484 106.405C82.0544 106.405 82.5054 106.335 82.9014 106.196C83.2974 106.057 83.631 105.862 83.9024 105.613C84.181 105.356 84.3937 105.052 84.5404 104.7C84.687 104.348 84.7604 103.956 84.7604 103.523C84.7604 103.046 84.6504 102.658 84.4304 102.357C84.2177 102.049 83.9354 101.792 83.5834 101.587C83.2314 101.382 82.828 101.209 82.3734 101.07C81.9187 100.923 81.4567 100.777 80.9874 100.63C80.518 100.476 80.056 100.3 79.6014 100.102C79.1467 99.904 78.7434 99.6473 78.3914 99.332C78.0394 99.0167 77.7534 98.6243 77.5334 98.155C77.3207 97.6783 77.2144 97.0917 77.2144 96.395C77.2144 95.8377 77.3207 95.2987 77.5334 94.778C77.7534 94.2573 78.0687 93.7953 78.4794 93.392C78.8974 92.9887 79.407 92.666 80.0084 92.424C80.617 92.182 81.3137 92.061 82.0984 92.061C82.9784 92.061 83.7777 92.2003 84.4964 92.479C85.2224 92.7577 85.8604 93.161 86.4104 93.689L85.8934 94.701ZM91.0464 105.316C91.4057 105.8 91.798 106.141 92.2234 106.339C92.6487 106.537 93.1254 106.636 93.6534 106.636C94.6947 106.636 95.494 106.266 96.0514 105.525C96.6087 104.784 96.8874 103.728 96.8874 102.357C96.8874 101.631 96.8214 101.008 96.6894 100.487C96.5647 99.9663 96.3814 99.541 96.1394 99.211C95.8974 98.8737 95.6004 98.628 95.2484 98.474C94.8964 98.32 94.4967 98.243 94.0494 98.243C93.4114 98.243 92.8504 98.3897 92.3664 98.683C91.8897 98.9763 91.4497 99.3907 91.0464 99.926V105.316ZM90.9474 98.584C91.4167 98.0047 91.9594 97.539 92.5754 97.187C93.1914 96.835 93.8954 96.659 94.6874 96.659C95.3327 96.659 95.9157 96.7837 96.4364 97.033C96.957 97.275 97.4007 97.638 97.7674 98.122C98.134 98.5987 98.4164 99.1927 98.6144 99.904C98.8124 100.615 98.9114 101.433 98.9114 102.357C98.9114 103.178 98.8014 103.945 98.5814 104.656C98.3614 105.36 98.0424 105.972 97.6244 106.493C97.2137 107.006 96.7077 107.413 96.1064 107.714C95.5124 108.007 94.8414 108.154 94.0934 108.154C93.4114 108.154 92.8247 108.04 92.3334 107.813C91.8494 107.578 91.4204 107.256 91.0464 106.845V111.773H89.0774V96.857H90.2544C90.533 96.857 90.7054 96.9927 90.7714 97.264L90.9474 98.584ZM106.106 96.681C106.92 96.681 107.654 96.8167 108.306 97.088C108.959 97.3593 109.516 97.7443 109.978 98.243C110.44 98.7417 110.792 99.3467 111.034 100.058C111.284 100.762 111.408 101.55 111.408 102.423C111.408 103.303 111.284 104.095 111.034 104.799C110.792 105.503 110.44 106.104 109.978 106.603C109.516 107.102 108.959 107.487 108.306 107.758C107.654 108.022 106.92 108.154 106.106 108.154C105.285 108.154 104.544 108.022 103.884 107.758C103.232 107.487 102.674 107.102 102.212 106.603C101.75 106.104 101.395 105.503 101.145 104.799C100.903 104.095 100.782 103.303 100.782 102.423C100.782 101.55 100.903 100.762 101.145 100.058C101.395 99.3467 101.75 98.7417 102.212 98.243C102.674 97.7443 103.232 97.3593 103.884 97.088C104.544 96.8167 105.285 96.681 106.106 96.681ZM106.106 106.625C107.206 106.625 108.028 106.258 108.57 105.525C109.113 104.784 109.384 103.754 109.384 102.434C109.384 101.107 109.113 100.073 108.57 99.332C108.028 98.5913 107.206 98.221 106.106 98.221C105.549 98.221 105.061 98.3163 104.643 98.507C104.233 98.6977 103.888 98.9727 103.609 99.332C103.338 99.6913 103.133 100.135 102.993 100.663C102.861 101.184 102.795 101.774 102.795 102.434C102.795 103.754 103.067 104.784 103.609 105.525C104.159 106.258 104.992 106.625 106.106 106.625ZM115.74 98.474C115.982 98.2027 116.238 97.957 116.51 97.737C116.781 97.517 117.067 97.33 117.368 97.176C117.676 97.0147 117.998 96.8937 118.336 96.813C118.68 96.725 119.051 96.681 119.447 96.681C120.055 96.681 120.591 96.7837 121.053 96.989C121.522 97.187 121.911 97.473 122.219 97.847C122.534 98.2137 122.772 98.6573 122.934 99.178C123.095 99.6987 123.176 100.274 123.176 100.905V108H121.207V100.905C121.207 100.062 121.012 99.409 120.624 98.947C120.242 98.4777 119.659 98.243 118.875 98.243C118.295 98.243 117.753 98.3823 117.247 98.661C116.748 98.9397 116.286 99.3173 115.861 99.794V108H113.892V96.857H115.069C115.347 96.857 115.52 96.9927 115.586 97.264L115.74 98.474ZM132.649 98.694C132.561 98.8553 132.426 98.936 132.242 98.936C132.132 98.936 132.008 98.8957 131.868 98.815C131.729 98.7343 131.557 98.6463 131.351 98.551C131.153 98.4483 130.915 98.3567 130.636 98.276C130.358 98.188 130.028 98.144 129.646 98.144C129.316 98.144 129.019 98.188 128.755 98.276C128.491 98.3567 128.264 98.4703 128.073 98.617C127.89 98.7637 127.747 98.936 127.644 99.134C127.549 99.3247 127.501 99.5337 127.501 99.761C127.501 100.047 127.582 100.285 127.743 100.476C127.912 100.667 128.132 100.832 128.403 100.971C128.675 101.11 128.983 101.235 129.327 101.345C129.672 101.448 130.024 101.561 130.383 101.686C130.75 101.803 131.106 101.935 131.45 102.082C131.795 102.229 132.103 102.412 132.374 102.632C132.646 102.852 132.862 103.123 133.023 103.446C133.192 103.761 133.276 104.143 133.276 104.59C133.276 105.103 133.185 105.58 133.001 106.02C132.818 106.453 132.547 106.83 132.187 107.153C131.828 107.468 131.388 107.718 130.867 107.901C130.347 108.084 129.745 108.176 129.063 108.176C128.286 108.176 127.582 108.051 126.951 107.802C126.321 107.545 125.785 107.219 125.345 106.823L125.807 106.075C125.866 105.98 125.936 105.906 126.016 105.855C126.097 105.804 126.2 105.778 126.324 105.778C126.456 105.778 126.596 105.829 126.742 105.932C126.889 106.035 127.065 106.148 127.27 106.273C127.483 106.398 127.74 106.511 128.04 106.614C128.341 106.717 128.715 106.768 129.162 106.768C129.544 106.768 129.877 106.72 130.163 106.625C130.449 106.522 130.688 106.387 130.878 106.218C131.069 106.049 131.208 105.855 131.296 105.635C131.392 105.415 131.439 105.18 131.439 104.931C131.439 104.623 131.355 104.37 131.186 104.172C131.025 103.967 130.809 103.794 130.537 103.655C130.266 103.508 129.954 103.384 129.602 103.281C129.258 103.171 128.902 103.057 128.535 102.94C128.176 102.823 127.82 102.691 127.468 102.544C127.124 102.39 126.816 102.199 126.544 101.972C126.273 101.745 126.053 101.466 125.884 101.136C125.723 100.799 125.642 100.392 125.642 99.915C125.642 99.4897 125.73 99.0827 125.906 98.694C126.082 98.298 126.339 97.9533 126.676 97.66C127.014 97.3593 127.428 97.121 127.919 96.945C128.411 96.769 128.972 96.681 129.602 96.681C130.336 96.681 130.992 96.7983 131.571 97.033C132.158 97.2603 132.664 97.5757 133.089 97.979L132.649 98.694ZM140.374 96.681C141.188 96.681 141.921 96.8167 142.574 97.088C143.227 97.3593 143.784 97.7443 144.246 98.243C144.708 98.7417 145.06 99.3467 145.302 100.058C145.551 100.762 145.676 101.55 145.676 102.423C145.676 103.303 145.551 104.095 145.302 104.799C145.06 105.503 144.708 106.104 144.246 106.603C143.784 107.102 143.227 107.487 142.574 107.758C141.921 108.022 141.188 108.154 140.374 108.154C139.553 108.154 138.812 108.022 138.152 107.758C137.499 107.487 136.942 107.102 136.48 106.603C136.018 106.104 135.662 105.503 135.413 104.799C135.171 104.095 135.05 103.303 135.05 102.423C135.05 101.55 135.171 100.762 135.413 100.058C135.662 99.3467 136.018 98.7417 136.48 98.243C136.942 97.7443 137.499 97.3593 138.152 97.088C138.812 96.8167 139.553 96.681 140.374 96.681ZM140.374 106.625C141.474 106.625 142.295 106.258 142.838 105.525C143.381 104.784 143.652 103.754 143.652 102.434C143.652 101.107 143.381 100.073 142.838 99.332C142.295 98.5913 141.474 98.221 140.374 98.221C139.817 98.221 139.329 98.3163 138.911 98.507C138.5 98.6977 138.156 98.9727 137.877 99.332C137.606 99.6913 137.4 100.135 137.261 100.663C137.129 101.184 137.063 101.774 137.063 102.434C137.063 103.754 137.334 104.784 137.877 105.525C138.427 106.258 139.259 106.625 140.374 106.625ZM150.018 99.09C150.37 98.3273 150.803 97.7333 151.316 97.308C151.83 96.8753 152.457 96.659 153.197 96.659C153.432 96.659 153.656 96.6847 153.868 96.736C154.088 96.7873 154.283 96.868 154.451 96.978L154.308 98.441C154.264 98.6243 154.154 98.716 153.978 98.716C153.876 98.716 153.725 98.694 153.527 98.65C153.329 98.606 153.106 98.584 152.856 98.584C152.504 98.584 152.189 98.6353 151.91 98.738C151.639 98.8407 151.393 98.9947 151.173 99.2C150.961 99.398 150.766 99.6473 150.59 99.948C150.422 100.241 150.268 100.579 150.128 100.96V108H148.159V96.857H149.281C149.494 96.857 149.641 96.8973 149.721 96.978C149.802 97.0587 149.857 97.198 149.886 97.396L150.018 99.09ZM162.599 98.694C162.511 98.8553 162.375 98.936 162.192 98.936C162.082 98.936 161.957 98.8957 161.818 98.815C161.678 98.7343 161.506 98.6463 161.301 98.551C161.103 98.4483 160.864 98.3567 160.586 98.276C160.307 98.188 159.977 98.144 159.596 98.144C159.266 98.144 158.969 98.188 158.705 98.276C158.441 98.3567 158.213 98.4703 158.023 98.617C157.839 98.7637 157.696 98.936 157.594 99.134C157.498 99.3247 157.451 99.5337 157.451 99.761C157.451 100.047 157.531 100.285 157.693 100.476C157.861 100.667 158.081 100.832 158.353 100.971C158.624 101.11 158.932 101.235 159.277 101.345C159.621 101.448 159.973 101.561 160.333 101.686C160.699 101.803 161.055 101.935 161.4 102.082C161.744 102.229 162.052 102.412 162.324 102.632C162.595 102.852 162.811 103.123 162.973 103.446C163.141 103.761 163.226 104.143 163.226 104.59C163.226 105.103 163.134 105.58 162.951 106.02C162.767 106.453 162.496 106.83 162.137 107.153C161.777 107.468 161.337 107.718 160.817 107.901C160.296 108.084 159.695 108.176 159.013 108.176C158.235 108.176 157.531 108.051 156.901 107.802C156.27 107.545 155.735 107.219 155.295 106.823L155.757 106.075C155.815 105.98 155.885 105.906 155.966 105.855C156.046 105.804 156.149 105.778 156.274 105.778C156.406 105.778 156.545 105.829 156.692 105.932C156.838 106.035 157.014 106.148 157.22 106.273C157.432 106.398 157.689 106.511 157.99 106.614C158.29 106.717 158.664 106.768 159.112 106.768C159.493 106.768 159.827 106.72 160.113 106.625C160.399 106.522 160.637 106.387 160.828 106.218C161.018 106.049 161.158 105.855 161.246 105.635C161.341 105.415 161.389 105.18 161.389 104.931C161.389 104.623 161.304 104.37 161.136 104.172C160.974 103.967 160.758 103.794 160.487 103.655C160.215 103.508 159.904 103.384 159.552 103.281C159.207 103.171 158.851 103.057 158.485 102.94C158.125 102.823 157.77 102.691 157.418 102.544C157.073 102.39 156.765 102.199 156.494 101.972C156.222 101.745 156.002 101.466 155.834 101.136C155.672 100.799 155.592 100.392 155.592 99.915C155.592 99.4897 155.68 99.0827 155.856 98.694C156.032 98.298 156.288 97.9533 156.626 97.66C156.963 97.3593 157.377 97.121 157.869 96.945C158.36 96.769 158.921 96.681 159.552 96.681C160.285 96.681 160.941 96.7983 161.521 97.033C162.107 97.2603 162.613 97.5757 163.039 97.979L162.599 98.694ZM167.595 98.342C168.072 97.836 168.6 97.4327 169.179 97.132C169.759 96.8313 170.426 96.681 171.181 96.681C171.79 96.681 172.325 96.7837 172.787 96.989C173.257 97.187 173.645 97.473 173.953 97.847C174.269 98.2137 174.507 98.6573 174.668 99.178C174.83 99.6987 174.91 100.274 174.91 100.905V108H172.941V100.905C172.941 100.062 172.747 99.409 172.358 98.947C171.977 98.4777 171.394 98.243 170.609 98.243C170.03 98.243 169.487 98.3823 168.981 98.661C168.483 98.9397 168.021 99.3173 167.595 99.794V108H165.626V91.797H167.595V98.342ZM179.962 96.857V108H178.004V96.857H179.962ZM180.38 93.359C180.38 93.5497 180.339 93.7293 180.259 93.898C180.185 94.0593 180.083 94.206 179.951 94.338C179.826 94.4627 179.676 94.5617 179.5 94.635C179.331 94.7083 179.151 94.745 178.961 94.745C178.77 94.745 178.59 94.7083 178.422 94.635C178.26 94.5617 178.117 94.4627 177.993 94.338C177.868 94.206 177.769 94.0593 177.696 93.898C177.622 93.7293 177.586 93.5497 177.586 93.359C177.586 93.1683 177.622 92.9887 177.696 92.82C177.769 92.644 177.868 92.4937 177.993 92.369C178.117 92.237 178.26 92.1343 178.422 92.061C178.59 91.9877 178.77 91.951 178.961 91.951C179.151 91.951 179.331 91.9877 179.5 92.061C179.676 92.1343 179.826 92.237 179.951 92.369C180.083 92.4937 180.185 92.644 180.259 92.82C180.339 92.9887 180.38 93.1683 180.38 93.359ZM185.148 105.316C185.507 105.8 185.9 106.141 186.325 106.339C186.75 106.537 187.227 106.636 187.755 106.636C188.796 106.636 189.596 106.266 190.153 105.525C190.71 104.784 190.989 103.728 190.989 102.357C190.989 101.631 190.923 101.008 190.791 100.487C190.666 99.9663 190.483 99.541 190.241 99.211C189.999 98.8737 189.702 98.628 189.35 98.474C188.998 98.32 188.598 98.243 188.151 98.243C187.513 98.243 186.952 98.3897 186.468 98.683C185.991 98.9763 185.551 99.3907 185.148 99.926V105.316ZM185.049 98.584C185.518 98.0047 186.061 97.539 186.677 97.187C187.293 96.835 187.997 96.659 188.789 96.659C189.434 96.659 190.017 96.7837 190.538 97.033C191.059 97.275 191.502 97.638 191.869 98.122C192.236 98.5987 192.518 99.1927 192.716 99.904C192.914 100.615 193.013 101.433 193.013 102.357C193.013 103.178 192.903 103.945 192.683 104.656C192.463 105.36 192.144 105.972 191.726 106.493C191.315 107.006 190.809 107.413 190.208 107.714C189.614 108.007 188.943 108.154 188.195 108.154C187.513 108.154 186.926 108.04 186.435 107.813C185.951 107.578 185.522 107.256 185.148 106.845V111.773H183.179V96.857H184.356C184.635 96.857 184.807 96.9927 184.873 97.264L185.049 98.584ZM203.208 96.857V108H201.25V96.857H203.208ZM203.626 93.359C203.626 93.5497 203.586 93.7293 203.505 93.898C203.432 94.0593 203.329 94.206 203.197 94.338C203.072 94.4627 202.922 94.5617 202.746 94.635C202.577 94.7083 202.398 94.745 202.207 94.745C202.016 94.745 201.837 94.7083 201.668 94.635C201.507 94.5617 201.364 94.4627 201.239 94.338C201.114 94.206 201.015 94.0593 200.942 93.898C200.869 93.7293 200.832 93.5497 200.832 93.359C200.832 93.1683 200.869 92.9887 200.942 92.82C201.015 92.644 201.114 92.4937 201.239 92.369C201.364 92.237 201.507 92.1343 201.668 92.061C201.837 91.9877 202.016 91.951 202.207 91.951C202.398 91.951 202.577 91.9877 202.746 92.061C202.922 92.1343 203.072 92.237 203.197 92.369C203.329 92.4937 203.432 92.644 203.505 92.82C203.586 92.9887 203.626 93.1683 203.626 93.359ZM208.273 98.474C208.515 98.2027 208.772 97.957 209.043 97.737C209.314 97.517 209.6 97.33 209.901 97.176C210.209 97.0147 210.532 96.8937 210.869 96.813C211.214 96.725 211.584 96.681 211.98 96.681C212.589 96.681 213.124 96.7837 213.586 96.989C214.055 97.187 214.444 97.473 214.752 97.847C215.067 98.2137 215.306 98.6573 215.467 99.178C215.628 99.6987 215.709 100.274 215.709 100.905V108H213.74V100.905C213.74 100.062 213.546 99.409 213.157 98.947C212.776 98.4777 212.193 98.243 211.408 98.243C210.829 98.243 210.286 98.3823 209.78 98.661C209.281 98.9397 208.819 99.3173 208.394 99.794V108H206.425V96.857H207.602C207.881 96.857 208.053 96.9927 208.119 97.264L208.273 98.474ZM235.85 104.744C235.967 104.744 236.07 104.792 236.158 104.887L237.005 105.8C236.359 106.548 235.575 107.131 234.651 107.549C233.734 107.967 232.623 108.176 231.318 108.176C230.188 108.176 229.162 107.982 228.238 107.593C227.314 107.197 226.525 106.647 225.873 105.943C225.22 105.232 224.714 104.381 224.355 103.391C223.995 102.401 223.816 101.312 223.816 100.124C223.816 98.936 224.003 97.847 224.377 96.857C224.751 95.867 225.275 95.0163 225.95 94.305C226.632 93.5937 227.446 93.0437 228.392 92.655C229.338 92.259 230.383 92.061 231.527 92.061C232.649 92.061 233.639 92.2407 234.497 92.6C235.355 92.9593 236.11 93.447 236.763 94.063L236.059 95.042C236.015 95.1153 235.956 95.1777 235.883 95.229C235.817 95.273 235.725 95.295 235.608 95.295C235.476 95.295 235.314 95.2253 235.124 95.086C234.933 94.9393 234.684 94.778 234.376 94.602C234.068 94.426 233.683 94.2683 233.221 94.129C232.759 93.9823 232.19 93.909 231.516 93.909C230.702 93.909 229.957 94.052 229.283 94.338C228.608 94.6167 228.025 95.0237 227.534 95.559C227.05 96.0943 226.672 96.747 226.401 97.517C226.129 98.287 225.994 99.156 225.994 100.124C225.994 101.107 226.133 101.983 226.412 102.753C226.698 103.523 227.083 104.176 227.567 104.711C228.058 105.239 228.634 105.642 229.294 105.921C229.961 106.2 230.68 106.339 231.45 106.339C231.919 106.339 232.341 106.313 232.715 106.262C233.096 106.203 233.444 106.115 233.76 105.998C234.082 105.881 234.379 105.734 234.651 105.558C234.929 105.375 235.204 105.158 235.476 104.909C235.6 104.799 235.725 104.744 235.85 104.744ZM243.499 96.681C244.313 96.681 245.046 96.8167 245.699 97.088C246.352 97.3593 246.909 97.7443 247.371 98.243C247.833 98.7417 248.185 99.3467 248.427 100.058C248.676 100.762 248.801 101.55 248.801 102.423C248.801 103.303 248.676 104.095 248.427 104.799C248.185 105.503 247.833 106.104 247.371 106.603C246.909 107.102 246.352 107.487 245.699 107.758C245.046 108.022 244.313 108.154 243.499 108.154C242.678 108.154 241.937 108.022 241.277 107.758C240.624 107.487 240.067 107.102 239.605 106.603C239.143 106.104 238.787 105.503 238.538 104.799C238.296 104.095 238.175 103.303 238.175 102.423C238.175 101.55 238.296 100.762 238.538 100.058C238.787 99.3467 239.143 98.7417 239.605 98.243C240.067 97.7443 240.624 97.3593 241.277 97.088C241.937 96.8167 242.678 96.681 243.499 96.681ZM243.499 106.625C244.599 106.625 245.42 106.258 245.963 105.525C246.506 104.784 246.777 103.754 246.777 102.434C246.777 101.107 246.506 100.073 245.963 99.332C245.42 98.5913 244.599 98.221 243.499 98.221C242.942 98.221 242.454 98.3163 242.036 98.507C241.625 98.6977 241.281 98.9727 241.002 99.332C240.731 99.6913 240.525 100.135 240.386 100.663C240.254 101.184 240.188 101.774 240.188 102.434C240.188 103.754 240.459 104.784 241.002 105.525C241.552 106.258 242.384 106.625 243.499 106.625ZM253.132 98.474C253.374 98.2027 253.631 97.957 253.902 97.737C254.174 97.517 254.46 97.33 254.76 97.176C255.068 97.0147 255.391 96.8937 255.728 96.813C256.073 96.725 256.443 96.681 256.839 96.681C257.448 96.681 257.983 96.7837 258.445 96.989C258.915 97.187 259.303 97.473 259.611 97.847C259.927 98.2137 260.165 98.6573 260.326 99.178C260.488 99.6987 260.568 100.274 260.568 100.905V108H258.599V100.905C258.599 100.062 258.405 99.409 258.016 98.947C257.635 98.4777 257.052 98.243 256.267 98.243C255.688 98.243 255.145 98.3823 254.639 98.661C254.141 98.9397 253.679 99.3173 253.253 99.794V108H251.284V96.857H252.461C252.74 96.857 252.912 96.9927 252.978 97.264L253.132 98.474ZM264.128 108V98.529L262.896 98.386C262.735 98.3493 262.606 98.2943 262.511 98.221C262.416 98.1403 262.368 98.0267 262.368 97.88V97.077H264.128V96.483C264.128 95.867 264.22 95.284 264.403 94.734C264.594 94.1767 264.88 93.6927 265.261 93.282C265.642 92.8713 266.119 92.545 266.691 92.303C267.263 92.061 267.93 91.94 268.693 91.94C269.258 91.94 269.8 91.962 270.321 92.006C270.849 92.05 271.359 92.0757 271.85 92.083H273.181V108H271.234V93.458C270.838 93.4433 270.438 93.425 270.035 93.403C269.639 93.381 269.291 93.37 268.99 93.37C268.037 93.37 267.303 93.645 266.79 94.195C266.284 94.7377 266.031 95.5003 266.031 96.483V97.077H268.924V98.496H266.086V108H264.128ZM285.52 96.857V108H284.354C284.075 108 283.899 107.864 283.826 107.593L283.672 106.394C283.188 106.929 282.645 107.362 282.044 107.692C281.442 108.015 280.753 108.176 279.976 108.176C279.367 108.176 278.828 108.077 278.359 107.879C277.897 107.674 277.508 107.388 277.193 107.021C276.877 106.654 276.639 106.211 276.478 105.69C276.324 105.169 276.247 104.594 276.247 103.963V96.857H278.205V103.963C278.205 104.806 278.395 105.459 278.777 105.921C279.165 106.383 279.756 106.614 280.548 106.614C281.127 106.614 281.666 106.478 282.165 106.207C282.671 105.928 283.136 105.547 283.562 105.063V96.857H285.52ZM297.776 108H295.895C295.734 108 295.606 107.96 295.51 107.879C295.422 107.791 295.349 107.696 295.29 107.593L292.485 103.226C292.456 103.329 292.423 103.431 292.386 103.534C292.357 103.629 292.313 103.717 292.254 103.798L289.658 107.593C289.585 107.696 289.504 107.791 289.416 107.879C289.336 107.96 289.222 108 289.075 108H287.326L291.231 102.28L287.48 96.857H289.361C289.523 96.857 289.64 96.8827 289.713 96.934C289.787 96.9853 289.853 97.0587 289.911 97.154L292.65 101.334C292.709 101.121 292.801 100.916 292.925 100.718L295.323 97.198C295.389 97.0953 295.459 97.0147 295.532 96.956C295.613 96.89 295.708 96.857 295.818 96.857H297.622L293.871 102.181L297.776 108ZM315.759 100.124C315.759 101.503 315.609 102.698 315.308 103.71C315.015 104.715 314.612 105.547 314.098 106.207C313.585 106.867 312.976 107.358 312.272 107.681C311.576 108.004 310.828 108.165 310.028 108.165C309.222 108.165 308.47 108.004 307.773 107.681C307.084 107.358 306.483 106.867 305.969 106.207C305.456 105.547 305.053 104.715 304.759 103.71C304.466 102.698 304.319 101.503 304.319 100.124C304.319 98.7453 304.466 97.55 304.759 96.538C305.053 95.526 305.456 94.69 305.969 94.03C306.483 93.3627 307.084 92.8677 307.773 92.545C308.47 92.2223 309.222 92.061 310.028 92.061C310.828 92.061 311.576 92.2223 312.272 92.545C312.976 92.8677 313.585 93.3627 314.098 94.03C314.612 94.69 315.015 95.526 315.308 96.538C315.609 97.55 315.759 98.7453 315.759 100.124ZM313.724 100.124C313.724 98.9213 313.622 97.913 313.416 97.099C313.218 96.2777 312.947 95.6177 312.602 95.119C312.265 94.6203 311.873 94.2647 311.425 94.052C310.978 93.832 310.512 93.722 310.028 93.722C309.544 93.722 309.079 93.832 308.631 94.052C308.184 94.2647 307.792 94.6203 307.454 95.119C307.117 95.6177 306.846 96.2777 306.64 97.099C306.442 97.913 306.343 98.9213 306.343 100.124C306.343 101.327 306.442 102.335 306.64 103.149C306.846 103.963 307.117 104.619 307.454 105.118C307.792 105.617 308.184 105.976 308.631 106.196C309.079 106.409 309.544 106.515 310.028 106.515C310.512 106.515 310.978 106.409 311.425 106.196C311.873 105.976 312.265 105.617 312.602 105.118C312.947 104.619 313.218 103.963 313.416 103.149C313.622 102.335 313.724 101.327 313.724 100.124ZM327.278 106.141C327.491 106.141 327.659 106.203 327.784 106.328C327.909 106.453 327.971 106.614 327.971 106.812V108H317.455V107.329C317.455 107.19 317.484 107.047 317.543 106.9C317.602 106.753 317.693 106.618 317.818 106.493L322.867 101.422C323.285 100.997 323.666 100.59 324.011 100.201C324.356 99.805 324.649 99.409 324.891 99.013C325.133 98.617 325.32 98.2173 325.452 97.814C325.584 97.4033 325.65 96.967 325.65 96.505C325.65 96.043 325.577 95.6397 325.43 95.295C325.283 94.943 325.082 94.6533 324.825 94.426C324.576 94.1987 324.279 94.03 323.934 93.92C323.589 93.8027 323.219 93.744 322.823 93.744C322.42 93.744 322.049 93.8027 321.712 93.92C321.375 94.0373 321.074 94.2023 320.81 94.415C320.553 94.6203 320.337 94.866 320.161 95.152C319.985 95.438 319.86 95.7533 319.787 96.098C319.699 96.3547 319.578 96.527 319.424 96.615C319.277 96.6957 319.068 96.7177 318.797 96.681L317.774 96.505C317.877 95.7863 318.075 95.152 318.368 94.602C318.669 94.0447 319.043 93.579 319.49 93.205C319.945 92.831 320.462 92.5487 321.041 92.358C321.62 92.16 322.247 92.061 322.922 92.061C323.589 92.061 324.213 92.16 324.792 92.358C325.371 92.556 325.874 92.8457 326.299 93.227C326.724 93.601 327.058 94.0593 327.3 94.602C327.542 95.1447 327.663 95.7607 327.663 96.45C327.663 97.0367 327.575 97.583 327.399 98.089C327.223 98.5877 326.985 99.0643 326.684 99.519C326.383 99.9737 326.035 100.417 325.639 100.85C325.25 101.283 324.836 101.719 324.396 102.159L320.238 106.405C320.531 106.324 320.828 106.262 321.129 106.218C321.43 106.167 321.719 106.141 321.998 106.141H327.278Z" fill="white"/>
</svg>
