<svg width="406" height="228" viewBox="0 0 406 228" fill="none" xmlns="http://www.w3.org/2000/svg">
<rect width="406" height="228" fill="black"/>
<path d="M57.3398 80.207V82H48.3968V66.237H50.5198V80.207H57.3398ZM65.8986 75.213C65.8986 74.7583 65.8326 74.344 65.7006 73.97C65.576 73.5887 65.389 73.2623 65.1396 72.991C64.8976 72.7123 64.6006 72.4997 64.2486 72.353C63.8966 72.199 63.497 72.122 63.0496 72.122C62.111 72.122 61.3666 72.397 60.8166 72.947C60.274 73.4897 59.9366 74.245 59.8046 75.213H65.8986ZM67.4826 80.438C67.2406 80.7313 66.951 80.988 66.6136 81.208C66.2763 81.4207 65.9133 81.5967 65.5246 81.736C65.1433 81.8753 64.7473 81.978 64.3366 82.044C63.926 82.1173 63.519 82.154 63.1156 82.154C62.3456 82.154 61.6343 82.0257 60.9816 81.769C60.3363 81.505 59.7753 81.1237 59.2986 80.625C58.8293 80.119 58.4626 79.4957 58.1986 78.755C57.9346 78.0143 57.8026 77.1637 57.8026 76.203C57.8026 75.4257 57.92 74.6997 58.1546 74.025C58.3966 73.3503 58.7413 72.7673 59.1886 72.276C59.636 71.7773 60.1823 71.3887 60.8276 71.11C61.473 70.824 62.199 70.681 63.0056 70.681C63.673 70.681 64.289 70.7947 64.8536 71.022C65.4256 71.242 65.917 71.5647 66.3276 71.99C66.7456 72.408 67.072 72.9287 67.3066 73.552C67.5413 74.168 67.6586 74.872 67.6586 75.664C67.6586 75.972 67.6256 76.1773 67.5596 76.28C67.4936 76.3827 67.369 76.434 67.1856 76.434H59.7386C59.7606 77.138 59.856 77.7503 60.0246 78.271C60.2006 78.7917 60.4426 79.228 60.7506 79.58C61.0586 79.9247 61.4253 80.185 61.8506 80.361C62.276 80.5297 62.7526 80.614 63.2806 80.614C63.772 80.614 64.1936 80.559 64.5456 80.449C64.905 80.3317 65.213 80.207 65.4696 80.075C65.7263 79.943 65.939 79.822 66.1076 79.712C66.2836 79.5947 66.434 79.536 66.5586 79.536C66.72 79.536 66.8446 79.5983 66.9326 79.723L67.4826 80.438ZM77.8187 72.837C77.76 72.9177 77.7014 72.98 77.6427 73.024C77.584 73.068 77.5034 73.09 77.4007 73.09C77.2907 73.09 77.1697 73.046 77.0377 72.958C76.9057 72.8627 76.7407 72.76 76.5427 72.65C76.352 72.54 76.1137 72.441 75.8277 72.353C75.549 72.2577 75.2044 72.21 74.7937 72.21C74.2437 72.21 73.7597 72.309 73.3417 72.507C72.9237 72.6977 72.5717 72.9763 72.2857 73.343C72.007 73.7097 71.7944 74.1533 71.6477 74.674C71.5084 75.1947 71.4387 75.7777 71.4387 76.423C71.4387 77.0977 71.5157 77.699 71.6697 78.227C71.8237 78.7477 72.04 79.1877 72.3187 79.547C72.6047 79.899 72.9457 80.1703 73.3417 80.361C73.745 80.5443 74.196 80.636 74.6947 80.636C75.1714 80.636 75.5637 80.581 75.8717 80.471C76.1797 80.3537 76.4327 80.2253 76.6307 80.086C76.836 79.9467 77.0047 79.822 77.1367 79.712C77.276 79.5947 77.4117 79.536 77.5437 79.536C77.705 79.536 77.8297 79.5983 77.9177 79.723L78.4677 80.438C78.2257 80.7387 77.9507 80.9953 77.6427 81.208C77.3347 81.4207 77.001 81.6003 76.6417 81.747C76.2897 81.8863 75.9194 81.989 75.5307 82.055C75.142 82.121 74.746 82.154 74.3427 82.154C73.646 82.154 72.997 82.0257 72.3957 81.769C71.8017 81.5123 71.2847 81.142 70.8447 80.658C70.4047 80.1667 70.06 79.5653 69.8107 78.854C69.5614 78.1427 69.4367 77.3323 69.4367 76.423C69.4367 75.5943 69.5504 74.828 69.7777 74.124C70.0124 73.42 70.3497 72.815 70.7897 72.309C71.237 71.7957 71.7834 71.396 72.4287 71.11C73.0814 70.824 73.8294 70.681 74.6727 70.681C75.4574 70.681 76.1467 70.8093 76.7407 71.066C77.342 71.3153 77.8737 71.671 78.3357 72.133L77.8187 72.837ZM83.9906 82.176C83.1106 82.176 82.4322 81.9303 81.9556 81.439C81.4862 80.9477 81.2516 80.24 81.2516 79.316V72.496H79.9096C79.7922 72.496 79.6932 72.463 79.6126 72.397C79.5319 72.3237 79.4916 72.2137 79.4916 72.067V71.286L81.3176 71.055L81.7686 67.612C81.7906 67.502 81.8382 67.414 81.9116 67.348C81.9922 67.2747 82.0949 67.238 82.2196 67.238H83.2096V71.077H86.4326V72.496H83.2096V79.184C83.2096 79.6533 83.3232 80.0017 83.5506 80.229C83.7779 80.4563 84.0712 80.57 84.4306 80.57C84.6359 80.57 84.8119 80.5443 84.9586 80.493C85.1126 80.4343 85.2446 80.372 85.3546 80.306C85.4646 80.24 85.5562 80.1813 85.6296 80.13C85.7102 80.0713 85.7799 80.042 85.8386 80.042C85.9412 80.042 86.0329 80.1043 86.1136 80.229L86.6856 81.164C86.3482 81.4793 85.9412 81.7287 85.4646 81.912C84.9879 82.088 84.4966 82.176 83.9906 82.176ZM97.6173 70.857V82H96.4513C96.1727 82 95.9967 81.8643 95.9233 81.593L95.7693 80.394C95.2853 80.9293 94.7427 81.362 94.1413 81.692C93.54 82.0147 92.8507 82.176 92.0733 82.176C91.4647 82.176 90.9257 82.077 90.4563 81.879C89.9943 81.6737 89.6057 81.3877 89.2903 81.021C88.975 80.6543 88.7367 80.2107 88.5753 79.69C88.4213 79.1693 88.3443 78.5937 88.3443 77.963V70.857H90.3023V77.963C90.3023 78.8063 90.493 79.459 90.8743 79.921C91.263 80.383 91.8533 80.614 92.6453 80.614C93.2247 80.614 93.7637 80.4783 94.2623 80.207C94.7683 79.9283 95.234 79.547 95.6593 79.063V70.857H97.6173ZM102.581 73.09C102.933 72.3273 103.366 71.7333 103.879 71.308C104.392 70.8753 105.019 70.659 105.76 70.659C105.995 70.659 106.218 70.6847 106.431 70.736C106.651 70.7873 106.845 70.868 107.014 70.978L106.871 72.441C106.827 72.6243 106.717 72.716 106.541 72.716C106.438 72.716 106.288 72.694 106.09 72.65C105.892 72.606 105.668 72.584 105.419 72.584C105.067 72.584 104.752 72.6353 104.473 72.738C104.202 72.8407 103.956 72.9947 103.736 73.2C103.523 73.398 103.329 73.6473 103.153 73.948C102.984 74.2413 102.83 74.5787 102.691 74.96V82H100.722V70.857H101.844C102.057 70.857 102.203 70.8973 102.284 70.978C102.365 71.0587 102.42 71.198 102.449 71.396L102.581 73.09ZM115.742 75.213C115.742 74.7583 115.676 74.344 115.544 73.97C115.42 73.5887 115.233 73.2623 114.983 72.991C114.741 72.7123 114.444 72.4997 114.092 72.353C113.74 72.199 113.341 72.122 112.893 72.122C111.955 72.122 111.21 72.397 110.66 72.947C110.118 73.4897 109.78 74.245 109.648 75.213H115.742ZM117.326 80.438C117.084 80.7313 116.795 80.988 116.457 81.208C116.12 81.4207 115.757 81.5967 115.368 81.736C114.987 81.8753 114.591 81.978 114.18 82.044C113.77 82.1173 113.363 82.154 112.959 82.154C112.189 82.154 111.478 82.0257 110.825 81.769C110.18 81.505 109.619 81.1237 109.142 80.625C108.673 80.119 108.306 79.4957 108.042 78.755C107.778 78.0143 107.646 77.1637 107.646 76.203C107.646 75.4257 107.764 74.6997 107.998 74.025C108.24 73.3503 108.585 72.7673 109.032 72.276C109.48 71.7773 110.026 71.3887 110.671 71.11C111.317 70.824 112.043 70.681 112.849 70.681C113.517 70.681 114.133 70.7947 114.697 71.022C115.269 71.242 115.761 71.5647 116.171 71.99C116.589 72.408 116.916 72.9287 117.15 73.552C117.385 74.168 117.502 74.872 117.502 75.664C117.502 75.972 117.469 76.1773 117.403 76.28C117.337 76.3827 117.213 76.434 117.029 76.434H109.582C109.604 77.138 109.7 77.7503 109.868 78.271C110.044 78.7917 110.286 79.228 110.594 79.58C110.902 79.9247 111.269 80.185 111.694 80.361C112.12 80.5297 112.596 80.614 113.124 80.614C113.616 80.614 114.037 80.559 114.389 80.449C114.749 80.3317 115.057 80.207 115.313 80.075C115.57 79.943 115.783 79.822 115.951 79.712C116.127 79.5947 116.278 79.536 116.402 79.536C116.564 79.536 116.688 79.5983 116.776 79.723L117.326 80.438ZM135.876 66.237V67.117C135.876 67.3663 135.847 67.5717 135.788 67.733C135.737 67.8943 135.686 68.03 135.634 68.14L129.1 81.307C129.005 81.4977 128.873 81.6627 128.704 81.802C128.536 81.934 128.312 82 128.033 82H126.625L133.247 68.998C133.343 68.8147 133.442 68.646 133.544 68.492C133.647 68.338 133.757 68.1913 133.874 68.052H125.646C125.522 68.052 125.412 68.0043 125.316 67.909C125.221 67.8063 125.173 67.6927 125.173 67.568V66.237H135.876ZM143.751 74.575H149.185V76.236H143.751V74.575ZM171.844 74.124C171.844 75.3047 171.657 76.379 171.283 77.347C170.909 78.315 170.381 79.1437 169.699 79.833C169.017 80.5223 168.196 81.0577 167.235 81.439C166.282 81.813 165.226 82 164.067 82H158.182V66.237H164.067C165.226 66.237 166.282 66.4277 167.235 66.809C168.196 67.183 169.017 67.7183 169.699 68.415C170.381 69.1043 170.909 69.933 171.283 70.901C171.657 71.869 171.844 72.9433 171.844 74.124ZM169.655 74.124C169.655 73.156 169.523 72.2907 169.259 71.528C168.995 70.7653 168.621 70.12 168.137 69.592C167.653 69.064 167.066 68.6607 166.377 68.382C165.688 68.1033 164.918 67.964 164.067 67.964H160.316V80.273H164.067C164.918 80.273 165.688 80.1337 166.377 79.855C167.066 79.5763 167.653 79.1767 168.137 78.656C168.621 78.128 168.995 77.4827 169.259 76.72C169.523 75.9573 169.655 75.092 169.655 74.124ZM181.764 75.213C181.764 74.7583 181.698 74.344 181.566 73.97C181.441 73.5887 181.254 73.2623 181.005 72.991C180.763 72.7123 180.466 72.4997 180.114 72.353C179.762 72.199 179.362 72.122 178.915 72.122C177.976 72.122 177.232 72.397 176.682 72.947C176.139 73.4897 175.802 74.245 175.67 75.213H181.764ZM183.348 80.438C183.106 80.7313 182.816 80.988 182.479 81.208C182.142 81.4207 181.779 81.5967 181.39 81.736C181.009 81.8753 180.613 81.978 180.202 82.044C179.791 82.1173 179.384 82.154 178.981 82.154C178.211 82.154 177.5 82.0257 176.847 81.769C176.202 81.505 175.641 81.1237 175.164 80.625C174.695 80.119 174.328 79.4957 174.064 78.755C173.8 78.0143 173.668 77.1637 173.668 76.203C173.668 75.4257 173.785 74.6997 174.02 74.025C174.262 73.3503 174.607 72.7673 175.054 72.276C175.501 71.7773 176.048 71.3887 176.693 71.11C177.338 70.824 178.064 70.681 178.871 70.681C179.538 70.681 180.154 70.7947 180.719 71.022C181.291 71.242 181.782 71.5647 182.193 71.99C182.611 72.408 182.937 72.9287 183.172 73.552C183.407 74.168 183.524 74.872 183.524 75.664C183.524 75.972 183.491 76.1773 183.425 76.28C183.359 76.3827 183.234 76.434 183.051 76.434H175.604C175.626 77.138 175.721 77.7503 175.89 78.271C176.066 78.7917 176.308 79.228 176.616 79.58C176.924 79.9247 177.291 80.185 177.716 80.361C178.141 80.5297 178.618 80.614 179.146 80.614C179.637 80.614 180.059 80.559 180.411 80.449C180.77 80.3317 181.078 80.207 181.335 80.075C181.592 79.943 181.804 79.822 181.973 79.712C182.149 79.5947 182.299 79.536 182.424 79.536C182.585 79.536 182.71 79.5983 182.798 79.723L183.348 80.438ZM188.203 67.975V73.486H194.682V75.224H188.203V82H186.069V66.237H195.782V67.975H188.203ZM200.071 70.857V82H198.113V70.857H200.071ZM200.489 67.359C200.489 67.5497 200.449 67.7293 200.368 67.898C200.295 68.0593 200.192 68.206 200.06 68.338C199.935 68.4627 199.785 68.5617 199.609 68.635C199.44 68.7083 199.261 68.745 199.07 68.745C198.879 68.745 198.7 68.7083 198.531 68.635C198.37 68.5617 198.227 68.4627 198.102 68.338C197.977 68.206 197.878 68.0593 197.805 67.898C197.732 67.7293 197.695 67.5497 197.695 67.359C197.695 67.1683 197.732 66.9887 197.805 66.82C197.878 66.644 197.977 66.4937 198.102 66.369C198.227 66.237 198.37 66.1343 198.531 66.061C198.7 65.9877 198.879 65.951 199.07 65.951C199.261 65.951 199.44 65.9877 199.609 66.061C199.785 66.1343 199.935 66.237 200.06 66.369C200.192 66.4937 200.295 66.644 200.368 66.82C200.449 66.9887 200.489 67.1683 200.489 67.359ZM203.167 84.662C203.109 84.6107 203.068 84.563 203.046 84.519C203.024 84.475 203.013 84.42 203.013 84.354C203.013 84.3027 203.028 84.2513 203.057 84.2C203.094 84.1487 203.134 84.101 203.178 84.057C203.252 83.9763 203.343 83.87 203.453 83.738C203.571 83.606 203.688 83.4483 203.805 83.265C203.923 83.089 204.029 82.891 204.124 82.671C204.227 82.4583 204.3 82.231 204.344 81.989C204.322 81.9963 204.297 82 204.267 82C204.245 82 204.223 82 204.201 82C203.82 82 203.508 81.8753 203.266 81.626C203.032 81.3693 202.914 81.043 202.914 80.647C202.914 80.3023 203.032 80.009 203.266 79.767C203.508 79.525 203.827 79.404 204.223 79.404C204.443 79.404 204.638 79.4443 204.806 79.525C204.975 79.6057 205.114 79.7193 205.224 79.866C205.342 80.0053 205.43 80.1703 205.488 80.361C205.547 80.5443 205.576 80.746 205.576 80.966C205.576 81.296 205.529 81.6407 205.433 82C205.345 82.352 205.21 82.7003 205.026 83.045C204.85 83.397 204.634 83.738 204.377 84.068C204.121 84.398 203.827 84.7023 203.497 84.981L203.167 84.662ZM218.731 73.871C219.347 73.871 219.889 73.7977 220.359 73.651C220.835 73.497 221.231 73.2843 221.547 73.013C221.869 72.7343 222.111 72.4043 222.273 72.023C222.434 71.6417 222.515 71.22 222.515 70.758C222.515 69.8193 222.207 69.1117 221.591 68.635C220.975 68.1583 220.051 67.92 218.819 67.92H216.487V73.871H218.731ZM226.013 82H224.121C223.732 82 223.446 81.8497 223.263 81.549L219.171 75.917C219.046 75.741 218.91 75.6163 218.764 75.543C218.624 75.4623 218.404 75.422 218.104 75.422H216.487V82H214.364V66.237H218.819C219.816 66.237 220.678 66.3397 221.404 66.545C222.13 66.743 222.727 67.0327 223.197 67.414C223.673 67.7953 224.025 68.2573 224.253 68.8C224.48 69.3353 224.594 69.9367 224.594 70.604C224.594 71.1613 224.506 71.682 224.33 72.166C224.154 72.65 223.897 73.0863 223.56 73.475C223.23 73.8563 222.823 74.1827 222.339 74.454C221.862 74.7253 221.319 74.9307 220.711 75.07C220.982 75.224 221.217 75.4477 221.415 75.741L226.013 82ZM234.444 75.213C234.444 74.7583 234.378 74.344 234.246 73.97C234.121 73.5887 233.934 73.2623 233.685 72.991C233.443 72.7123 233.146 72.4997 232.794 72.353C232.442 72.199 232.042 72.122 231.595 72.122C230.656 72.122 229.912 72.397 229.362 72.947C228.819 73.4897 228.482 74.245 228.35 75.213H234.444ZM236.028 80.438C235.786 80.7313 235.496 80.988 235.159 81.208C234.821 81.4207 234.458 81.5967 234.07 81.736C233.688 81.8753 233.292 81.978 232.882 82.044C232.471 82.1173 232.064 82.154 231.661 82.154C230.891 82.154 230.179 82.0257 229.527 81.769C228.881 81.505 228.32 81.1237 227.844 80.625C227.374 80.119 227.008 79.4957 226.744 78.755C226.48 78.0143 226.348 77.1637 226.348 76.203C226.348 75.4257 226.465 74.6997 226.7 74.025C226.942 73.3503 227.286 72.7673 227.734 72.276C228.181 71.7773 228.727 71.3887 229.373 71.11C230.018 70.824 230.744 70.681 231.551 70.681C232.218 70.681 232.834 70.7947 233.399 71.022C233.971 71.242 234.462 71.5647 234.873 71.99C235.291 72.408 235.617 72.9287 235.852 73.552C236.086 74.168 236.204 74.872 236.204 75.664C236.204 75.972 236.171 76.1773 236.105 76.28C236.039 76.3827 235.914 76.434 235.731 76.434H228.284C228.306 77.138 228.401 77.7503 228.57 78.271C228.746 78.7917 228.988 79.228 229.296 79.58C229.604 79.9247 229.97 80.185 230.396 80.361C230.821 80.5297 231.298 80.614 231.826 80.614C232.317 80.614 232.739 80.559 233.091 80.449C233.45 80.3317 233.758 80.207 234.015 80.075C234.271 79.943 234.484 79.822 234.653 79.712C234.829 79.5947 234.979 79.536 235.104 79.536C235.265 79.536 235.39 79.5983 235.478 79.723L236.028 80.438ZM246.364 72.837C246.305 72.9177 246.246 72.98 246.188 73.024C246.129 73.068 246.048 73.09 245.946 73.09C245.836 73.09 245.715 73.046 245.583 72.958C245.451 72.8627 245.286 72.76 245.088 72.65C244.897 72.54 244.659 72.441 244.373 72.353C244.094 72.2577 243.749 72.21 243.339 72.21C242.789 72.21 242.305 72.309 241.887 72.507C241.469 72.6977 241.117 72.9763 240.831 73.343C240.552 73.7097 240.339 74.1533 240.193 74.674C240.053 75.1947 239.984 75.7777 239.984 76.423C239.984 77.0977 240.061 77.699 240.215 78.227C240.369 78.7477 240.585 79.1877 240.864 79.547C241.15 79.899 241.491 80.1703 241.887 80.361C242.29 80.5443 242.741 80.636 243.24 80.636C243.716 80.636 244.109 80.581 244.417 80.471C244.725 80.3537 244.978 80.2253 245.176 80.086C245.381 79.9467 245.55 79.822 245.682 79.712C245.821 79.5947 245.957 79.536 246.089 79.536C246.25 79.536 246.375 79.5983 246.463 79.723L247.013 80.438C246.771 80.7387 246.496 80.9953 246.188 81.208C245.88 81.4207 245.546 81.6003 245.187 81.747C244.835 81.8863 244.464 81.989 244.076 82.055C243.687 82.121 243.291 82.154 242.888 82.154C242.191 82.154 241.542 82.0257 240.941 81.769C240.347 81.5123 239.83 81.142 239.39 80.658C238.95 80.1667 238.605 79.5653 238.356 78.854C238.106 78.1427 237.982 77.3323 237.982 76.423C237.982 75.5943 238.095 74.828 238.323 74.124C238.557 73.42 238.895 72.815 239.335 72.309C239.782 71.7957 240.328 71.396 240.974 71.11C241.626 70.824 242.374 70.681 243.218 70.681C244.002 70.681 244.692 70.8093 245.286 71.066C245.887 71.3153 246.419 71.671 246.881 72.133L246.364 72.837ZM253.618 70.681C254.432 70.681 255.165 70.8167 255.818 71.088C256.471 71.3593 257.028 71.7443 257.49 72.243C257.952 72.7417 258.304 73.3467 258.546 74.058C258.795 74.762 258.92 75.5503 258.92 76.423C258.92 77.303 258.795 78.095 258.546 78.799C258.304 79.503 257.952 80.1043 257.49 80.603C257.028 81.1017 256.471 81.4867 255.818 81.758C255.165 82.022 254.432 82.154 253.618 82.154C252.797 82.154 252.056 82.022 251.396 81.758C250.743 81.4867 250.186 81.1017 249.724 80.603C249.262 80.1043 248.906 79.503 248.657 78.799C248.415 78.095 248.294 77.303 248.294 76.423C248.294 75.5503 248.415 74.762 248.657 74.058C248.906 73.3467 249.262 72.7417 249.724 72.243C250.186 71.7443 250.743 71.3593 251.396 71.088C252.056 70.8167 252.797 70.681 253.618 70.681ZM253.618 80.625C254.718 80.625 255.539 80.2583 256.082 79.525C256.625 78.7843 256.896 77.754 256.896 76.434C256.896 75.1067 256.625 74.0727 256.082 73.332C255.539 72.5913 254.718 72.221 253.618 72.221C253.061 72.221 252.573 72.3163 252.155 72.507C251.744 72.6977 251.4 72.9727 251.121 73.332C250.85 73.6913 250.644 74.135 250.505 74.663C250.373 75.1837 250.307 75.774 250.307 76.434C250.307 77.754 250.578 78.7843 251.121 79.525C251.671 80.2583 252.503 80.625 253.618 80.625ZM263.252 72.474C263.494 72.2027 263.75 71.957 264.022 71.737C264.293 71.517 264.579 71.33 264.88 71.176C265.188 71.0147 265.51 70.8937 265.848 70.813C266.192 70.725 266.563 70.681 266.959 70.681C267.567 70.681 268.103 70.7837 268.565 70.989C269.034 71.187 269.423 71.473 269.731 71.847C270.046 72.2137 270.284 72.6573 270.446 73.178C270.607 73.6987 270.688 74.2743 270.688 74.905V82H268.719V74.905C268.719 74.0617 268.524 73.409 268.136 72.947C267.754 72.4777 267.171 72.243 266.387 72.243C265.807 72.243 265.265 72.3823 264.759 72.661C264.26 72.9397 263.798 73.3173 263.373 73.794V82H261.404V70.857H262.581C262.859 70.857 263.032 70.9927 263.098 71.264L263.252 72.474ZM280.161 72.694C280.073 72.8553 279.937 72.936 279.754 72.936C279.644 72.936 279.519 72.8957 279.38 72.815C279.241 72.7343 279.068 72.6463 278.863 72.551C278.665 72.4483 278.427 72.3567 278.148 72.276C277.869 72.188 277.539 72.144 277.158 72.144C276.828 72.144 276.531 72.188 276.267 72.276C276.003 72.3567 275.776 72.4703 275.585 72.617C275.402 72.7637 275.259 72.936 275.156 73.134C275.061 73.3247 275.013 73.5337 275.013 73.761C275.013 74.047 275.094 74.2853 275.255 74.476C275.424 74.6667 275.644 74.8317 275.915 74.971C276.186 75.1103 276.494 75.235 276.839 75.345C277.184 75.4477 277.536 75.5613 277.895 75.686C278.262 75.8033 278.617 75.9353 278.962 76.082C279.307 76.2287 279.615 76.412 279.886 76.632C280.157 76.852 280.374 77.1233 280.535 77.446C280.704 77.7613 280.788 78.1427 280.788 78.59C280.788 79.1033 280.696 79.58 280.513 80.02C280.33 80.4527 280.058 80.8303 279.699 81.153C279.34 81.4683 278.9 81.7177 278.379 81.901C277.858 82.0843 277.257 82.176 276.575 82.176C275.798 82.176 275.094 82.0513 274.463 81.802C273.832 81.5453 273.297 81.219 272.857 80.823L273.319 80.075C273.378 79.9797 273.447 79.9063 273.528 79.855C273.609 79.8037 273.711 79.778 273.836 79.778C273.968 79.778 274.107 79.8293 274.254 79.932C274.401 80.0347 274.577 80.1483 274.782 80.273C274.995 80.3977 275.251 80.5113 275.552 80.614C275.853 80.7167 276.227 80.768 276.674 80.768C277.055 80.768 277.389 80.7203 277.675 80.625C277.961 80.5223 278.199 80.3867 278.39 80.218C278.581 80.0493 278.72 79.855 278.808 79.635C278.903 79.415 278.951 79.1803 278.951 78.931C278.951 78.623 278.867 78.37 278.698 78.172C278.537 77.9667 278.32 77.7943 278.049 77.655C277.778 77.5083 277.466 77.3837 277.114 77.281C276.769 77.171 276.414 77.0573 276.047 76.94C275.688 76.8227 275.332 76.6907 274.98 76.544C274.635 76.39 274.327 76.1993 274.056 75.972C273.785 75.7447 273.565 75.466 273.396 75.136C273.235 74.7987 273.154 74.3917 273.154 73.915C273.154 73.4897 273.242 73.0827 273.418 72.694C273.594 72.298 273.851 71.9533 274.188 71.66C274.525 71.3593 274.94 71.121 275.431 70.945C275.922 70.769 276.483 70.681 277.114 70.681C277.847 70.681 278.504 70.7983 279.083 71.033C279.67 71.2603 280.176 71.5757 280.601 71.979L280.161 72.694ZM286.61 82.176C285.73 82.176 285.051 81.9303 284.575 81.439C284.105 80.9477 283.871 80.24 283.871 79.316V72.496H282.529C282.411 72.496 282.312 72.463 282.232 72.397C282.151 72.3237 282.111 72.2137 282.111 72.067V71.286L283.937 71.055L284.388 67.612C284.41 67.502 284.457 67.414 284.531 67.348C284.611 67.2747 284.714 67.238 284.839 67.238H285.829V71.077H289.052V72.496H285.829V79.184C285.829 79.6533 285.942 80.0017 286.17 80.229C286.397 80.4563 286.69 80.57 287.05 80.57C287.255 80.57 287.431 80.5443 287.578 80.493C287.732 80.4343 287.864 80.372 287.974 80.306C288.084 80.24 288.175 80.1813 288.249 80.13C288.329 80.0713 288.399 80.042 288.458 80.042C288.56 80.042 288.652 80.1043 288.733 80.229L289.305 81.164C288.967 81.4793 288.56 81.7287 288.084 81.912C287.607 82.088 287.116 82.176 286.61 82.176ZM292.932 73.09C293.284 72.3273 293.717 71.7333 294.23 71.308C294.744 70.8753 295.371 70.659 296.111 70.659C296.346 70.659 296.57 70.6847 296.782 70.736C297.002 70.7873 297.197 70.868 297.365 70.978L297.222 72.441C297.178 72.6243 297.068 72.716 296.892 72.716C296.79 72.716 296.639 72.694 296.441 72.65C296.243 72.606 296.02 72.584 295.77 72.584C295.418 72.584 295.103 72.6353 294.824 72.738C294.553 72.8407 294.307 72.9947 294.087 73.2C293.875 73.398 293.68 73.6473 293.504 73.948C293.336 74.2413 293.182 74.5787 293.042 74.96V82H291.073V70.857H292.195C292.408 70.857 292.555 70.8973 292.635 70.978C292.716 71.0587 292.771 71.198 292.8 71.396L292.932 73.09ZM308.25 70.857V82H307.084C306.805 82 306.629 81.8643 306.556 81.593L306.402 80.394C305.918 80.9293 305.375 81.362 304.774 81.692C304.173 82.0147 303.483 82.176 302.706 82.176C302.097 82.176 301.558 82.077 301.089 81.879C300.627 81.6737 300.238 81.3877 299.923 81.021C299.608 80.6543 299.369 80.2107 299.208 79.69C299.054 79.1693 298.977 78.5937 298.977 77.963V70.857H300.935V77.963C300.935 78.8063 301.126 79.459 301.507 79.921C301.896 80.383 302.486 80.614 303.278 80.614C303.857 80.614 304.396 80.4783 304.895 80.207C305.401 79.9283 305.867 79.547 306.292 79.063V70.857H308.25ZM319.11 72.837C319.051 72.9177 318.992 72.98 318.934 73.024C318.875 73.068 318.794 73.09 318.692 73.09C318.582 73.09 318.461 73.046 318.329 72.958C318.197 72.8627 318.032 72.76 317.834 72.65C317.643 72.54 317.405 72.441 317.119 72.353C316.84 72.2577 316.495 72.21 316.085 72.21C315.535 72.21 315.051 72.309 314.633 72.507C314.215 72.6977 313.863 72.9763 313.577 73.343C313.298 73.7097 313.085 74.1533 312.939 74.674C312.799 75.1947 312.73 75.7777 312.73 76.423C312.73 77.0977 312.807 77.699 312.961 78.227C313.115 78.7477 313.331 79.1877 313.61 79.547C313.896 79.899 314.237 80.1703 314.633 80.361C315.036 80.5443 315.487 80.636 315.986 80.636C316.462 80.636 316.855 80.581 317.163 80.471C317.471 80.3537 317.724 80.2253 317.922 80.086C318.127 79.9467 318.296 79.822 318.428 79.712C318.567 79.5947 318.703 79.536 318.835 79.536C318.996 79.536 319.121 79.5983 319.209 79.723L319.759 80.438C319.517 80.7387 319.242 80.9953 318.934 81.208C318.626 81.4207 318.292 81.6003 317.933 81.747C317.581 81.8863 317.21 81.989 316.822 82.055C316.433 82.121 316.037 82.154 315.634 82.154C314.937 82.154 314.288 82.0257 313.687 81.769C313.093 81.5123 312.576 81.142 312.136 80.658C311.696 80.1667 311.351 79.5653 311.102 78.854C310.852 78.1427 310.728 77.3323 310.728 76.423C310.728 75.5943 310.841 74.828 311.069 74.124C311.303 73.42 311.641 72.815 312.081 72.309C312.528 71.7957 313.074 71.396 313.72 71.11C314.372 70.824 315.12 70.681 315.964 70.681C316.748 70.681 317.438 70.8093 318.032 71.066C318.633 71.3153 319.165 71.671 319.627 72.133L319.11 72.837ZM332.201 82H330.243V72.496H324.501V79.184C324.501 79.6533 324.614 80.0017 324.842 80.229C325.069 80.4563 325.362 80.57 325.722 80.57C325.927 80.57 326.103 80.5443 326.25 80.493C326.404 80.4343 326.536 80.372 326.646 80.306C326.756 80.24 326.847 80.1813 326.921 80.13C327.001 80.0713 327.071 80.042 327.13 80.042C327.232 80.042 327.324 80.1043 327.405 80.229L327.977 81.164C327.639 81.4793 327.232 81.7287 326.756 81.912C326.279 82.088 325.788 82.176 325.282 82.176C324.402 82.176 323.723 81.9303 323.247 81.439C322.777 80.9477 322.543 80.24 322.543 79.316V72.496H321.201C321.083 72.496 320.984 72.463 320.904 72.397C320.823 72.3237 320.783 72.2137 320.783 72.067V71.286L322.609 71.044L323.06 67.612C323.082 67.502 323.129 67.414 323.203 67.348C323.283 67.2747 323.386 67.238 323.511 67.238H324.501V71.077H332.201V82ZM332.685 67.282C332.685 67.4727 332.644 67.6523 332.564 67.821C332.49 67.9823 332.388 68.1253 332.256 68.25C332.131 68.3747 331.984 68.4737 331.816 68.547C331.647 68.6203 331.467 68.657 331.277 68.657C331.086 68.657 330.906 68.6203 330.738 68.547C330.576 68.4737 330.433 68.3747 330.309 68.25C330.184 68.1253 330.085 67.9823 330.012 67.821C329.938 67.6523 329.902 67.4727 329.902 67.282C329.902 67.0913 329.938 66.9117 330.012 66.743C330.085 66.567 330.184 66.4167 330.309 66.292C330.433 66.16 330.576 66.0573 330.738 65.984C330.906 65.9107 331.086 65.874 331.277 65.874C331.467 65.874 331.647 65.9107 331.816 65.984C331.984 66.0573 332.131 66.16 332.256 66.292C332.388 66.4167 332.49 66.567 332.564 66.743C332.644 66.9117 332.685 67.0913 332.685 67.282ZM340.114 70.681C340.928 70.681 341.662 70.8167 342.314 71.088C342.967 71.3593 343.524 71.7443 343.986 72.243C344.448 72.7417 344.8 73.3467 345.042 74.058C345.292 74.762 345.416 75.5503 345.416 76.423C345.416 77.303 345.292 78.095 345.042 78.799C344.8 79.503 344.448 80.1043 343.986 80.603C343.524 81.1017 342.967 81.4867 342.314 81.758C341.662 82.022 340.928 82.154 340.114 82.154C339.293 82.154 338.552 82.022 337.892 81.758C337.24 81.4867 336.682 81.1017 336.22 80.603C335.758 80.1043 335.403 79.503 335.153 78.799C334.911 78.095 334.79 77.303 334.79 76.423C334.79 75.5503 334.911 74.762 335.153 74.058C335.403 73.3467 335.758 72.7417 336.22 72.243C336.682 71.7443 337.24 71.3593 337.892 71.088C338.552 70.8167 339.293 70.681 340.114 70.681ZM340.114 80.625C341.214 80.625 342.036 80.2583 342.578 79.525C343.121 78.7843 343.392 77.754 343.392 76.434C343.392 75.1067 343.121 74.0727 342.578 73.332C342.036 72.5913 341.214 72.221 340.114 72.221C339.557 72.221 339.069 72.3163 338.651 72.507C338.241 72.6977 337.896 72.9727 337.617 73.332C337.346 73.6913 337.141 74.135 337.001 74.663C336.869 75.1837 336.803 75.774 336.803 76.434C336.803 77.754 337.075 78.7843 337.617 79.525C338.167 80.2583 339 80.625 340.114 80.625ZM349.748 72.474C349.99 72.2027 350.246 71.957 350.518 71.737C350.789 71.517 351.075 71.33 351.376 71.176C351.684 71.0147 352.006 70.8937 352.344 70.813C352.688 70.725 353.059 70.681 353.455 70.681C354.063 70.681 354.599 70.7837 355.061 70.989C355.53 71.187 355.919 71.473 356.227 71.847C356.542 72.2137 356.78 72.6573 356.942 73.178C357.103 73.6987 357.184 74.2743 357.184 74.905V82H355.215V74.905C355.215 74.0617 355.02 73.409 354.632 72.947C354.25 72.4777 353.667 72.243 352.883 72.243C352.303 72.243 351.761 72.3823 351.255 72.661C350.756 72.9397 350.294 73.3173 349.869 73.794V82H347.9V70.857H349.077C349.355 70.857 349.528 70.9927 349.594 71.264L349.748 72.474ZM69.5392 102.984C68.6372 103.013 67.8672 103.087 67.2292 103.204C66.5986 103.314 66.0816 103.461 65.6782 103.644C65.2822 103.827 64.9926 104.044 64.8092 104.293C64.6332 104.542 64.5452 104.821 64.5452 105.129C64.5452 105.422 64.5929 105.675 64.6882 105.888C64.7836 106.101 64.9119 106.277 65.0732 106.416C65.2419 106.548 65.4362 106.647 65.6562 106.713C65.8836 106.772 66.1256 106.801 66.3822 106.801C66.7269 106.801 67.0422 106.768 67.3282 106.702C67.6142 106.629 67.8819 106.526 68.1312 106.394C68.3879 106.262 68.6299 106.104 68.8572 105.921C69.0919 105.738 69.3192 105.529 69.5392 105.294V102.984ZM63.2142 98.43C63.8302 97.836 64.4939 97.3923 65.2052 97.099C65.9166 96.8057 66.7049 96.659 67.5702 96.659C68.1936 96.659 68.7472 96.7617 69.2312 96.967C69.7152 97.1723 70.1222 97.4583 70.4522 97.825C70.7822 98.1917 71.0316 98.6353 71.2002 99.156C71.3689 99.6767 71.4532 100.249 71.4532 100.872V108H70.5842C70.3936 108 70.2469 107.971 70.1442 107.912C70.0416 107.846 69.9609 107.721 69.9022 107.538L69.6822 106.482C69.3889 106.753 69.1029 106.995 68.8242 107.208C68.5456 107.413 68.2522 107.589 67.9442 107.736C67.6362 107.875 67.3062 107.982 66.9542 108.055C66.6096 108.136 66.2246 108.176 65.7992 108.176C65.3666 108.176 64.9596 108.117 64.5782 108C64.1969 107.875 63.8632 107.692 63.5772 107.45C63.2986 107.208 63.0749 106.904 62.9062 106.537C62.7449 106.163 62.6642 105.723 62.6642 105.217C62.6642 104.777 62.7852 104.355 63.0272 103.952C63.2692 103.541 63.6616 103.178 64.2042 102.863C64.7469 102.548 65.4546 102.291 66.3272 102.093C67.1999 101.888 68.2706 101.77 69.5392 101.741V100.872C69.5392 100.007 69.3522 99.354 68.9782 98.914C68.6042 98.4667 68.0579 98.243 67.3392 98.243C66.8552 98.243 66.4482 98.3053 66.1182 98.43C65.7956 98.5473 65.5132 98.683 65.2712 98.837C65.0366 98.9837 64.8312 99.1193 64.6552 99.244C64.4866 99.3613 64.3179 99.42 64.1492 99.42C64.0172 99.42 63.9036 99.387 63.8082 99.321C63.7129 99.2477 63.6322 99.1597 63.5662 99.057L63.2142 98.43ZM76.2838 98.474C76.5258 98.2027 76.7824 97.957 77.0538 97.737C77.3251 97.517 77.6111 97.33 77.9118 97.176C78.2198 97.0147 78.5424 96.8937 78.8798 96.813C79.2244 96.725 79.5948 96.681 79.9908 96.681C80.5994 96.681 81.1348 96.7837 81.5968 96.989C82.0661 97.187 82.4548 97.473 82.7628 97.847C83.0781 98.2137 83.3164 98.6573 83.4778 99.178C83.6391 99.6987 83.7198 100.274 83.7198 100.905V108H81.7508V100.905C81.7508 100.062 81.5564 99.409 81.1678 98.947C80.7864 98.4777 80.2034 98.243 79.4188 98.243C78.8394 98.243 78.2968 98.3823 77.7908 98.661C77.2921 98.9397 76.8301 99.3173 76.4048 99.794V108H74.4358V96.857H75.6128C75.8914 96.857 76.0638 96.9927 76.1298 97.264L76.2838 98.474ZM93.9633 99.508C93.5967 99.0167 93.2007 98.6757 92.7753 98.485C92.35 98.287 91.8733 98.188 91.3453 98.188C90.3113 98.188 89.5157 98.5583 88.9583 99.299C88.401 100.04 88.1223 101.096 88.1223 102.467C88.1223 103.193 88.1847 103.816 88.3093 104.337C88.434 104.85 88.6173 105.276 88.8593 105.613C89.1013 105.943 89.3983 106.185 89.7503 106.339C90.1023 106.493 90.502 106.57 90.9493 106.57C91.5947 106.57 92.1557 106.423 92.6323 106.13C93.1163 105.837 93.56 105.422 93.9633 104.887V99.508ZM95.9213 91.797V108H94.7553C94.4767 108 94.3007 107.864 94.2273 107.593L94.0513 106.24C93.5747 106.812 93.032 107.274 92.4233 107.626C91.8147 107.978 91.1107 108.154 90.3113 108.154C89.6733 108.154 89.094 108.033 88.5733 107.791C88.0527 107.542 87.609 107.179 87.2423 106.702C86.8757 106.225 86.5933 105.631 86.3953 104.92C86.1973 104.209 86.0983 103.391 86.0983 102.467C86.0983 101.646 86.2083 100.883 86.4283 100.179C86.6483 99.4677 86.9637 98.8517 87.3743 98.331C87.785 97.8103 88.2873 97.4033 88.8813 97.11C89.4827 96.8093 90.1573 96.659 90.9053 96.659C91.5873 96.659 92.1703 96.7763 92.6543 97.011C93.1457 97.2383 93.582 97.5573 93.9633 97.968V91.797H95.9213ZM107.239 108H105.105V92.237H107.239V108ZM112.485 98.474C112.727 98.2027 112.984 97.957 113.255 97.737C113.526 97.517 113.812 97.33 114.113 97.176C114.421 97.0147 114.744 96.8937 115.081 96.813C115.426 96.725 115.796 96.681 116.192 96.681C116.801 96.681 117.336 96.7837 117.798 96.989C118.267 97.187 118.656 97.473 118.964 97.847C119.279 98.2137 119.518 98.6573 119.679 99.178C119.84 99.6987 119.921 100.274 119.921 100.905V108H117.952V100.905C117.952 100.062 117.758 99.409 117.369 98.947C116.988 98.4777 116.405 98.243 115.62 98.243C115.041 98.243 114.498 98.3823 113.992 98.661C113.493 98.9397 113.031 99.3173 112.606 99.794V108H110.637V96.857H111.814C112.093 96.857 112.265 96.9927 112.331 97.264L112.485 98.474ZM124.753 98.474C124.995 98.2027 125.251 97.957 125.523 97.737C125.794 97.517 126.08 97.33 126.381 97.176C126.689 97.0147 127.011 96.8937 127.349 96.813C127.693 96.725 128.064 96.681 128.46 96.681C129.068 96.681 129.604 96.7837 130.066 96.989C130.535 97.187 130.924 97.473 131.232 97.847C131.547 98.2137 131.785 98.6573 131.947 99.178C132.108 99.6987 132.189 100.274 132.189 100.905V108H130.22V100.905C130.22 100.062 130.025 99.409 129.637 98.947C129.255 98.4777 128.672 98.243 127.888 98.243C127.308 98.243 126.766 98.3823 126.26 98.661C125.761 98.9397 125.299 99.3173 124.874 99.794V108H122.905V96.857H124.082C124.36 96.857 124.533 96.9927 124.599 97.264L124.753 98.474ZM139.869 96.681C140.683 96.681 141.416 96.8167 142.069 97.088C142.722 97.3593 143.279 97.7443 143.741 98.243C144.203 98.7417 144.555 99.3467 144.797 100.058C145.046 100.762 145.171 101.55 145.171 102.423C145.171 103.303 145.046 104.095 144.797 104.799C144.555 105.503 144.203 106.104 143.741 106.603C143.279 107.102 142.722 107.487 142.069 107.758C141.416 108.022 140.683 108.154 139.869 108.154C139.048 108.154 138.307 108.022 137.647 107.758C136.994 107.487 136.437 107.102 135.975 106.603C135.513 106.104 135.157 105.503 134.908 104.799C134.666 104.095 134.545 103.303 134.545 102.423C134.545 101.55 134.666 100.762 134.908 100.058C135.157 99.3467 135.513 98.7417 135.975 98.243C136.437 97.7443 136.994 97.3593 137.647 97.088C138.307 96.8167 139.048 96.681 139.869 96.681ZM139.869 106.625C140.969 106.625 141.79 106.258 142.333 105.525C142.876 104.784 143.147 103.754 143.147 102.434C143.147 101.107 142.876 100.073 142.333 99.332C141.79 98.5913 140.969 98.221 139.869 98.221C139.312 98.221 138.824 98.3163 138.406 98.507C137.995 98.6977 137.651 98.9727 137.372 99.332C137.101 99.6913 136.895 100.135 136.756 100.663C136.624 101.184 136.558 101.774 136.558 102.434C136.558 103.754 136.829 104.784 137.372 105.525C137.922 106.258 138.754 106.625 139.869 106.625ZM156.902 96.857L152.359 108H150.599L146.056 96.857H147.651C147.812 96.857 147.944 96.8973 148.047 96.978C148.149 97.0587 148.219 97.154 148.256 97.264L151.083 104.436C151.171 104.707 151.248 104.971 151.314 105.228C151.38 105.485 151.442 105.741 151.501 105.998C151.559 105.741 151.622 105.485 151.688 105.228C151.754 104.971 151.834 104.707 151.93 104.436L154.79 97.264C154.834 97.1467 154.907 97.0513 155.01 96.978C155.112 96.8973 155.233 96.857 155.373 96.857H156.902ZM164.5 102.984C163.598 103.013 162.828 103.087 162.19 103.204C161.559 103.314 161.042 103.461 160.639 103.644C160.243 103.827 159.953 104.044 159.77 104.293C159.594 104.542 159.506 104.821 159.506 105.129C159.506 105.422 159.554 105.675 159.649 105.888C159.744 106.101 159.873 106.277 160.034 106.416C160.203 106.548 160.397 106.647 160.617 106.713C160.844 106.772 161.086 106.801 161.343 106.801C161.688 106.801 162.003 106.768 162.289 106.702C162.575 106.629 162.843 106.526 163.092 106.394C163.349 106.262 163.591 106.104 163.818 105.921C164.053 105.738 164.28 105.529 164.5 105.294V102.984ZM158.175 98.43C158.791 97.836 159.455 97.3923 160.166 97.099C160.877 96.8057 161.666 96.659 162.531 96.659C163.154 96.659 163.708 96.7617 164.192 96.967C164.676 97.1723 165.083 97.4583 165.413 97.825C165.743 98.1917 165.992 98.6353 166.161 99.156C166.33 99.6767 166.414 100.249 166.414 100.872V108H165.545C165.354 108 165.208 107.971 165.105 107.912C165.002 107.846 164.922 107.721 164.863 107.538L164.643 106.482C164.35 106.753 164.064 106.995 163.785 107.208C163.506 107.413 163.213 107.589 162.905 107.736C162.597 107.875 162.267 107.982 161.915 108.055C161.57 108.136 161.185 108.176 160.76 108.176C160.327 108.176 159.92 108.117 159.539 108C159.158 107.875 158.824 107.692 158.538 107.45C158.259 107.208 158.036 106.904 157.867 106.537C157.706 106.163 157.625 105.723 157.625 105.217C157.625 104.777 157.746 104.355 157.988 103.952C158.23 103.541 158.622 103.178 159.165 102.863C159.708 102.548 160.415 102.291 161.288 102.093C162.161 101.888 163.231 101.77 164.5 101.741V100.872C164.5 100.007 164.313 99.354 163.939 98.914C163.565 98.4667 163.019 98.243 162.3 98.243C161.816 98.243 161.409 98.3053 161.079 98.43C160.756 98.5473 160.474 98.683 160.232 98.837C159.997 98.9837 159.792 99.1193 159.616 99.244C159.447 99.3613 159.279 99.42 159.11 99.42C158.978 99.42 158.864 99.387 158.769 99.321C158.674 99.2477 158.593 99.1597 158.527 99.057L158.175 98.43ZM179.586 108H177.628V98.496H171.886V105.184C171.886 105.653 172 106.002 172.227 106.229C172.455 106.456 172.748 106.57 173.107 106.57C173.313 106.57 173.489 106.544 173.635 106.493C173.789 106.434 173.921 106.372 174.031 106.306C174.141 106.24 174.233 106.181 174.306 106.13C174.387 106.071 174.457 106.042 174.515 106.042C174.618 106.042 174.71 106.104 174.79 106.229L175.362 107.164C175.025 107.479 174.618 107.729 174.141 107.912C173.665 108.088 173.173 108.176 172.667 108.176C171.787 108.176 171.109 107.93 170.632 107.439C170.163 106.948 169.928 106.24 169.928 105.316V98.496H168.586C168.469 98.496 168.37 98.463 168.289 98.397C168.209 98.3237 168.168 98.2137 168.168 98.067V97.286L169.994 97.044L170.445 93.612C170.467 93.502 170.515 93.414 170.588 93.348C170.669 93.2747 170.772 93.238 170.896 93.238H171.886V97.077H179.586V108ZM180.07 93.282C180.07 93.4727 180.03 93.6523 179.949 93.821C179.876 93.9823 179.773 94.1253 179.641 94.25C179.517 94.3747 179.37 94.4737 179.201 94.547C179.033 94.6203 178.853 94.657 178.662 94.657C178.472 94.657 178.292 94.6203 178.123 94.547C177.962 94.4737 177.819 94.3747 177.694 94.25C177.57 94.1253 177.471 93.9823 177.397 93.821C177.324 93.6523 177.287 93.4727 177.287 93.282C177.287 93.0913 177.324 92.9117 177.397 92.743C177.471 92.567 177.57 92.4167 177.694 92.292C177.819 92.16 177.962 92.0573 178.123 91.984C178.292 91.9107 178.472 91.874 178.662 91.874C178.853 91.874 179.033 91.9107 179.201 91.984C179.37 92.0573 179.517 92.16 179.641 92.292C179.773 92.4167 179.876 92.567 179.949 92.743C180.03 92.9117 180.07 93.0913 180.07 93.282ZM187.5 96.681C188.314 96.681 189.047 96.8167 189.7 97.088C190.353 97.3593 190.91 97.7443 191.372 98.243C191.834 98.7417 192.186 99.3467 192.428 100.058C192.677 100.762 192.802 101.55 192.802 102.423C192.802 103.303 192.677 104.095 192.428 104.799C192.186 105.503 191.834 106.104 191.372 106.603C190.91 107.102 190.353 107.487 189.7 107.758C189.047 108.022 188.314 108.154 187.5 108.154C186.679 108.154 185.938 108.022 185.278 107.758C184.625 107.487 184.068 107.102 183.606 106.603C183.144 106.104 182.788 105.503 182.539 104.799C182.297 104.095 182.176 103.303 182.176 102.423C182.176 101.55 182.297 100.762 182.539 100.058C182.788 99.3467 183.144 98.7417 183.606 98.243C184.068 97.7443 184.625 97.3593 185.278 97.088C185.938 96.8167 186.679 96.681 187.5 96.681ZM187.5 106.625C188.6 106.625 189.421 106.258 189.964 105.525C190.507 104.784 190.778 103.754 190.778 102.434C190.778 101.107 190.507 100.073 189.964 99.332C189.421 98.5913 188.6 98.221 187.5 98.221C186.943 98.221 186.455 98.3163 186.037 98.507C185.626 98.6977 185.282 98.9727 185.003 99.332C184.732 99.6913 184.526 100.135 184.387 100.663C184.255 101.184 184.189 101.774 184.189 102.434C184.189 103.754 184.46 104.784 185.003 105.525C185.553 106.258 186.385 106.625 187.5 106.625ZM197.133 98.474C197.375 98.2027 197.632 97.957 197.903 97.737C198.175 97.517 198.461 97.33 198.761 97.176C199.069 97.0147 199.392 96.8937 199.729 96.813C200.074 96.725 200.444 96.681 200.84 96.681C201.449 96.681 201.984 96.7837 202.446 96.989C202.916 97.187 203.304 97.473 203.612 97.847C203.928 98.2137 204.166 98.6573 204.327 99.178C204.489 99.6987 204.569 100.274 204.569 100.905V108H202.6V100.905C202.6 100.062 202.406 99.409 202.017 98.947C201.636 98.4777 201.053 98.243 200.268 98.243C199.689 98.243 199.146 98.3823 198.64 98.661C198.142 98.9397 197.68 99.3173 197.254 99.794V108H195.285V96.857H196.462C196.741 96.857 196.913 96.9927 196.979 97.264L197.133 98.474ZM217.879 96.681C218.693 96.681 219.426 96.8167 220.079 97.088C220.732 97.3593 221.289 97.7443 221.751 98.243C222.213 98.7417 222.565 99.3467 222.807 100.058C223.056 100.762 223.181 101.55 223.181 102.423C223.181 103.303 223.056 104.095 222.807 104.799C222.565 105.503 222.213 106.104 221.751 106.603C221.289 107.102 220.732 107.487 220.079 107.758C219.426 108.022 218.693 108.154 217.879 108.154C217.058 108.154 216.317 108.022 215.657 107.758C215.004 107.487 214.447 107.102 213.985 106.603C213.523 106.104 213.167 105.503 212.918 104.799C212.676 104.095 212.555 103.303 212.555 102.423C212.555 101.55 212.676 100.762 212.918 100.058C213.167 99.3467 213.523 98.7417 213.985 98.243C214.447 97.7443 215.004 97.3593 215.657 97.088C216.317 96.8167 217.058 96.681 217.879 96.681ZM217.879 106.625C218.979 106.625 219.8 106.258 220.343 105.525C220.886 104.784 221.157 103.754 221.157 102.434C221.157 101.107 220.886 100.073 220.343 99.332C219.8 98.5913 218.979 98.221 217.879 98.221C217.322 98.221 216.834 98.3163 216.416 98.507C216.005 98.6977 215.661 98.9727 215.382 99.332C215.111 99.6913 214.905 100.135 214.766 100.663C214.634 101.184 214.568 101.774 214.568 102.434C214.568 103.754 214.839 104.784 215.382 105.525C215.932 106.258 216.764 106.625 217.879 106.625ZM226.154 108V98.529L224.922 98.386C224.768 98.3493 224.64 98.2943 224.537 98.221C224.442 98.1403 224.394 98.0267 224.394 97.88V97.077H226.154V95.999C226.154 95.361 226.242 94.7963 226.418 94.305C226.601 93.8063 226.858 93.3883 227.188 93.051C227.525 92.7063 227.929 92.446 228.398 92.27C228.867 92.094 229.395 92.006 229.982 92.006C230.481 92.006 230.939 92.0793 231.357 92.226L231.313 93.205C231.298 93.381 231.199 93.4763 231.016 93.491C230.84 93.5057 230.602 93.513 230.301 93.513C229.964 93.513 229.656 93.557 229.377 93.645C229.106 93.733 228.871 93.876 228.673 94.074C228.475 94.272 228.321 94.5323 228.211 94.855C228.108 95.1777 228.057 95.5773 228.057 96.054V97.077H231.269V98.496H228.123V108H226.154ZM240.958 93.975V99.486H247.437V101.224H240.958V108H238.824V92.237H248.537V93.975H240.958ZM252.826 96.857V108H250.868V96.857H252.826ZM253.244 93.359C253.244 93.5497 253.204 93.7293 253.123 93.898C253.05 94.0593 252.947 94.206 252.815 94.338C252.69 94.4627 252.54 94.5617 252.364 94.635C252.195 94.7083 252.016 94.745 251.825 94.745C251.634 94.745 251.455 94.7083 251.286 94.635C251.125 94.5617 250.982 94.4627 250.857 94.338C250.732 94.206 250.633 94.0593 250.56 93.898C250.487 93.7293 250.45 93.5497 250.45 93.359C250.45 93.1683 250.487 92.9887 250.56 92.82C250.633 92.644 250.732 92.4937 250.857 92.369C250.982 92.237 251.125 92.1343 251.286 92.061C251.455 91.9877 251.634 91.951 251.825 91.951C252.016 91.951 252.195 91.9877 252.364 92.061C252.54 92.1343 252.69 92.237 252.815 92.369C252.947 92.4937 253.05 92.644 253.123 92.82C253.204 92.9887 253.244 93.1683 253.244 93.359ZM257.891 98.474C258.133 98.2027 258.39 97.957 258.661 97.737C258.933 97.517 259.219 97.33 259.519 97.176C259.827 97.0147 260.15 96.8937 260.487 96.813C260.832 96.725 261.202 96.681 261.598 96.681C262.207 96.681 262.742 96.7837 263.204 96.989C263.674 97.187 264.062 97.473 264.37 97.847C264.686 98.2137 264.924 98.6573 265.085 99.178C265.247 99.6987 265.327 100.274 265.327 100.905V108H263.358V100.905C263.358 100.062 263.164 99.409 262.775 98.947C262.394 98.4777 261.811 98.243 261.026 98.243C260.447 98.243 259.904 98.3823 259.398 98.661C258.9 98.9397 258.438 99.3173 258.012 99.794V108H256.043V96.857H257.22C257.499 96.857 257.671 96.9927 257.737 97.264L257.891 98.474ZM274.35 102.984C273.448 103.013 272.678 103.087 272.04 103.204C271.409 103.314 270.892 103.461 270.489 103.644C270.093 103.827 269.803 104.044 269.62 104.293C269.444 104.542 269.356 104.821 269.356 105.129C269.356 105.422 269.403 105.675 269.499 105.888C269.594 106.101 269.722 106.277 269.884 106.416C270.052 106.548 270.247 106.647 270.467 106.713C270.694 106.772 270.936 106.801 271.193 106.801C271.537 106.801 271.853 106.768 272.139 106.702C272.425 106.629 272.692 106.526 272.942 106.394C273.198 106.262 273.44 106.104 273.668 105.921C273.902 105.738 274.13 105.529 274.35 105.294V102.984ZM268.025 98.43C268.641 97.836 269.304 97.3923 270.016 97.099C270.727 96.8057 271.515 96.659 272.381 96.659C273.004 96.659 273.558 96.7617 274.042 96.967C274.526 97.1723 274.933 97.4583 275.263 97.825C275.593 98.1917 275.842 98.6353 276.011 99.156C276.179 99.6767 276.264 100.249 276.264 100.872V108H275.395C275.204 108 275.057 107.971 274.955 107.912C274.852 107.846 274.771 107.721 274.713 107.538L274.493 106.482C274.199 106.753 273.913 106.995 273.635 107.208C273.356 107.413 273.063 107.589 272.755 107.736C272.447 107.875 272.117 107.982 271.765 108.055C271.42 108.136 271.035 108.176 270.61 108.176C270.177 108.176 269.77 108.117 269.389 108C269.007 107.875 268.674 107.692 268.388 107.45C268.109 107.208 267.885 106.904 267.717 106.537C267.555 106.163 267.475 105.723 267.475 105.217C267.475 104.777 267.596 104.355 267.838 103.952C268.08 103.541 268.472 103.178 269.015 102.863C269.557 102.548 270.265 102.291 271.138 102.093C272.01 101.888 273.081 101.77 274.35 101.741V100.872C274.35 100.007 274.163 99.354 273.789 98.914C273.415 98.4667 272.868 98.243 272.15 98.243C271.666 98.243 271.259 98.3053 270.929 98.43C270.606 98.5473 270.324 98.683 270.082 98.837C269.847 98.9837 269.642 99.1193 269.466 99.244C269.297 99.3613 269.128 99.42 268.96 99.42C268.828 99.42 268.714 99.387 268.619 99.321C268.523 99.2477 268.443 99.1597 268.377 99.057L268.025 98.43ZM281.094 98.474C281.336 98.2027 281.593 97.957 281.864 97.737C282.136 97.517 282.422 97.33 282.722 97.176C283.03 97.0147 283.353 96.8937 283.69 96.813C284.035 96.725 284.405 96.681 284.801 96.681C285.41 96.681 285.945 96.7837 286.407 96.989C286.877 97.187 287.265 97.473 287.573 97.847C287.889 98.2137 288.127 98.6573 288.288 99.178C288.45 99.6987 288.53 100.274 288.53 100.905V108H286.561V100.905C286.561 100.062 286.367 99.409 285.978 98.947C285.597 98.4777 285.014 98.243 284.229 98.243C283.65 98.243 283.107 98.3823 282.601 98.661C282.103 98.9397 281.641 99.3173 281.215 99.794V108H279.246V96.857H280.423C280.702 96.857 280.874 96.9927 280.94 97.264L281.094 98.474ZM299.269 98.837C299.21 98.9177 299.152 98.98 299.093 99.024C299.034 99.068 298.954 99.09 298.851 99.09C298.741 99.09 298.62 99.046 298.488 98.958C298.356 98.8627 298.191 98.76 297.993 98.65C297.802 98.54 297.564 98.441 297.278 98.353C296.999 98.2577 296.655 98.21 296.244 98.21C295.694 98.21 295.21 98.309 294.792 98.507C294.374 98.6977 294.022 98.9763 293.736 99.343C293.457 99.7097 293.245 100.153 293.098 100.674C292.959 101.195 292.889 101.778 292.889 102.423C292.889 103.098 292.966 103.699 293.12 104.227C293.274 104.748 293.49 105.188 293.769 105.547C294.055 105.899 294.396 106.17 294.792 106.361C295.195 106.544 295.646 106.636 296.145 106.636C296.622 106.636 297.014 106.581 297.322 106.471C297.63 106.354 297.883 106.225 298.081 106.086C298.286 105.947 298.455 105.822 298.587 105.712C298.726 105.595 298.862 105.536 298.994 105.536C299.155 105.536 299.28 105.598 299.368 105.723L299.918 106.438C299.676 106.739 299.401 106.995 299.093 107.208C298.785 107.421 298.451 107.6 298.092 107.747C297.74 107.886 297.37 107.989 296.981 108.055C296.592 108.121 296.196 108.154 295.793 108.154C295.096 108.154 294.447 108.026 293.846 107.769C293.252 107.512 292.735 107.142 292.295 106.658C291.855 106.167 291.51 105.565 291.261 104.854C291.012 104.143 290.887 103.332 290.887 102.423C290.887 101.594 291.001 100.828 291.228 100.124C291.463 99.42 291.8 98.815 292.24 98.309C292.687 97.7957 293.234 97.396 293.879 97.11C294.532 96.824 295.28 96.681 296.123 96.681C296.908 96.681 297.597 96.8093 298.191 97.066C298.792 97.3153 299.324 97.671 299.786 98.133L299.269 98.837ZM309.284 101.213C309.284 100.758 309.218 100.344 309.086 99.97C308.962 99.5887 308.775 99.2623 308.525 98.991C308.283 98.7123 307.986 98.4997 307.634 98.353C307.282 98.199 306.883 98.122 306.435 98.122C305.497 98.122 304.752 98.397 304.202 98.947C303.66 99.4897 303.322 100.245 303.19 101.213H309.284ZM310.868 106.438C310.626 106.731 310.337 106.988 309.999 107.208C309.662 107.421 309.299 107.597 308.91 107.736C308.529 107.875 308.133 107.978 307.722 108.044C307.312 108.117 306.905 108.154 306.501 108.154C305.731 108.154 305.02 108.026 304.367 107.769C303.722 107.505 303.161 107.124 302.684 106.625C302.215 106.119 301.848 105.496 301.584 104.755C301.32 104.014 301.188 103.164 301.188 102.203C301.188 101.426 301.306 100.7 301.54 100.025C301.782 99.3503 302.127 98.7673 302.574 98.276C303.022 97.7773 303.568 97.3887 304.213 97.11C304.859 96.824 305.585 96.681 306.391 96.681C307.059 96.681 307.675 96.7947 308.239 97.022C308.811 97.242 309.303 97.5647 309.713 97.99C310.131 98.408 310.458 98.9287 310.692 99.552C310.927 100.168 311.044 100.872 311.044 101.664C311.044 101.972 311.011 102.177 310.945 102.28C310.879 102.383 310.755 102.434 310.571 102.434H303.124C303.146 103.138 303.242 103.75 303.41 104.271C303.586 104.792 303.828 105.228 304.136 105.58C304.444 105.925 304.811 106.185 305.236 106.361C305.662 106.53 306.138 106.614 306.666 106.614C307.158 106.614 307.579 106.559 307.931 106.449C308.291 106.332 308.599 106.207 308.855 106.075C309.112 105.943 309.325 105.822 309.493 105.712C309.669 105.595 309.82 105.536 309.944 105.536C310.106 105.536 310.23 105.598 310.318 105.723L310.868 106.438ZM329.627 100.124C329.627 101.503 329.477 102.698 329.176 103.71C328.883 104.715 328.48 105.547 327.966 106.207C327.453 106.867 326.844 107.358 326.14 107.681C325.444 108.004 324.696 108.165 323.896 108.165C323.09 108.165 322.338 108.004 321.641 107.681C320.952 107.358 320.351 106.867 319.837 106.207C319.324 105.547 318.921 104.715 318.627 103.71C318.334 102.698 318.187 101.503 318.187 100.124C318.187 98.7453 318.334 97.55 318.627 96.538C318.921 95.526 319.324 94.69 319.837 94.03C320.351 93.3627 320.952 92.8677 321.641 92.545C322.338 92.2223 323.09 92.061 323.896 92.061C324.696 92.061 325.444 92.2223 326.14 92.545C326.844 92.8677 327.453 93.3627 327.966 94.03C328.48 94.69 328.883 95.526 329.176 96.538C329.477 97.55 329.627 98.7453 329.627 100.124ZM327.592 100.124C327.592 98.9213 327.49 97.913 327.284 97.099C327.086 96.2777 326.815 95.6177 326.47 95.119C326.133 94.6203 325.741 94.2647 325.293 94.052C324.846 93.832 324.38 93.722 323.896 93.722C323.412 93.722 322.947 93.832 322.499 94.052C322.052 94.2647 321.66 94.6203 321.322 95.119C320.985 95.6177 320.714 96.2777 320.508 97.099C320.31 97.913 320.211 98.9213 320.211 100.124C320.211 101.327 320.31 102.335 320.508 103.149C320.714 103.963 320.985 104.619 321.322 105.118C321.66 105.617 322.052 105.976 322.499 106.196C322.947 106.409 323.412 106.515 323.896 106.515C324.38 106.515 324.846 106.409 325.293 106.196C325.741 105.976 326.133 105.617 326.47 105.118C326.815 104.619 327.086 103.963 327.284 103.149C327.49 102.335 327.592 101.327 327.592 100.124ZM331.719 96.505C331.822 95.7863 332.02 95.152 332.313 94.602C332.606 94.0447 332.977 93.579 333.424 93.205C333.879 92.831 334.396 92.5487 334.975 92.358C335.562 92.16 336.192 92.061 336.867 92.061C337.534 92.061 338.15 92.1563 338.715 92.347C339.28 92.5377 339.764 92.809 340.167 93.161C340.578 93.513 340.897 93.9383 341.124 94.437C341.351 94.9357 341.465 95.4893 341.465 96.098C341.465 96.5967 341.399 97.044 341.267 97.44C341.142 97.8287 340.959 98.1697 340.717 98.463C340.482 98.7563 340.196 99.0057 339.859 99.211C339.522 99.4163 339.144 99.585 338.726 99.717C339.753 99.981 340.523 100.436 341.036 101.081C341.557 101.719 341.817 102.518 341.817 103.479C341.817 104.205 341.678 104.858 341.399 105.437C341.128 106.016 340.754 106.511 340.277 106.922C339.8 107.325 339.243 107.637 338.605 107.857C337.974 108.07 337.296 108.176 336.57 108.176C335.734 108.176 335.019 108.073 334.425 107.868C333.831 107.655 333.329 107.366 332.918 106.999C332.507 106.632 332.17 106.2 331.906 105.701C331.642 105.195 331.418 104.649 331.235 104.062L332.082 103.71C332.302 103.615 332.515 103.589 332.72 103.633C332.933 103.677 333.087 103.798 333.182 103.996C333.277 104.201 333.395 104.447 333.534 104.733C333.681 105.019 333.879 105.294 334.128 105.558C334.377 105.822 334.693 106.046 335.074 106.229C335.463 106.412 335.954 106.504 336.548 106.504C337.098 106.504 337.578 106.416 337.989 106.24C338.407 106.057 338.752 105.822 339.023 105.536C339.302 105.25 339.511 104.931 339.65 104.579C339.789 104.227 339.859 103.879 339.859 103.534C339.859 103.109 339.804 102.72 339.694 102.368C339.584 102.016 339.379 101.712 339.078 101.455C338.777 101.198 338.363 100.997 337.835 100.85C337.314 100.703 336.643 100.63 335.822 100.63V99.211C336.497 99.2037 337.069 99.1303 337.538 98.991C338.015 98.8517 338.4 98.661 338.693 98.419C338.994 98.177 339.21 97.8873 339.342 97.55C339.481 97.2127 339.551 96.8387 339.551 96.428C339.551 95.9733 339.478 95.5773 339.331 95.24C339.192 94.9027 338.997 94.624 338.748 94.404C338.499 94.184 338.202 94.019 337.857 93.909C337.52 93.799 337.153 93.744 336.757 93.744C336.361 93.744 335.991 93.8027 335.646 93.92C335.309 94.0373 335.008 94.2023 334.744 94.415C334.487 94.6203 334.271 94.866 334.095 95.152C333.919 95.438 333.794 95.7533 333.721 96.098C333.626 96.3547 333.505 96.527 333.358 96.615C333.219 96.6957 333.013 96.7177 332.742 96.681L331.719 96.505Z" fill="white"/>
</svg>
