<svg width="406" height="228" viewBox="0 0 406 228" fill="none" xmlns="http://www.w3.org/2000/svg">
<rect width="406" height="228" fill="black"/>
<path d="M78.1904 80.207V82H69.2474V66.237H71.3704V80.207H78.1904ZM86.7492 75.213C86.7492 74.7583 86.6832 74.344 86.5512 73.97C86.4266 73.5887 86.2396 73.2623 85.9902 72.991C85.7482 72.7123 85.4512 72.4997 85.0992 72.353C84.7472 72.199 84.3476 72.122 83.9002 72.122C82.9616 72.122 82.2172 72.397 81.6672 72.947C81.1246 73.4897 80.7872 74.245 80.6552 75.213H86.7492ZM88.3332 80.438C88.0912 80.7313 87.8016 80.988 87.4642 81.208C87.1269 81.4207 86.7639 81.5967 86.3752 81.736C85.9939 81.8753 85.5979 81.978 85.1872 82.044C84.7766 82.1173 84.3696 82.154 83.9662 82.154C83.1962 82.154 82.4849 82.0257 81.8322 81.769C81.1869 81.505 80.6259 81.1237 80.1492 80.625C79.6799 80.119 79.3132 79.4957 79.0492 78.755C78.7852 78.0143 78.6532 77.1637 78.6532 76.203C78.6532 75.4257 78.7706 74.6997 79.0052 74.025C79.2472 73.3503 79.5919 72.7673 80.0392 72.276C80.4866 71.7773 81.0329 71.3887 81.6782 71.11C82.3236 70.824 83.0496 70.681 83.8562 70.681C84.5236 70.681 85.1396 70.7947 85.7042 71.022C86.2762 71.242 86.7676 71.5647 87.1782 71.99C87.5962 72.408 87.9226 72.9287 88.1572 73.552C88.3919 74.168 88.5092 74.872 88.5092 75.664C88.5092 75.972 88.4762 76.1773 88.4102 76.28C88.3442 76.3827 88.2196 76.434 88.0362 76.434H80.5892C80.6112 77.138 80.7066 77.7503 80.8752 78.271C81.0512 78.7917 81.2932 79.228 81.6012 79.58C81.9092 79.9247 82.2759 80.185 82.7012 80.361C83.1266 80.5297 83.6032 80.614 84.1312 80.614C84.6226 80.614 85.0442 80.559 85.3962 80.449C85.7556 80.3317 86.0636 80.207 86.3202 80.075C86.5769 79.943 86.7896 79.822 86.9582 79.712C87.1342 79.5947 87.2846 79.536 87.4092 79.536C87.5706 79.536 87.6952 79.5983 87.7832 79.723L88.3332 80.438ZM98.6693 72.837C98.6106 72.9177 98.5519 72.98 98.4933 73.024C98.4346 73.068 98.3539 73.09 98.2513 73.09C98.1413 73.09 98.0203 73.046 97.8883 72.958C97.7563 72.8627 97.5913 72.76 97.3933 72.65C97.2026 72.54 96.9643 72.441 96.6783 72.353C96.3996 72.2577 96.0549 72.21 95.6443 72.21C95.0943 72.21 94.6103 72.309 94.1923 72.507C93.7743 72.6977 93.4223 72.9763 93.1363 73.343C92.8576 73.7097 92.6449 74.1533 92.4983 74.674C92.3589 75.1947 92.2893 75.7777 92.2893 76.423C92.2893 77.0977 92.3663 77.699 92.5203 78.227C92.6743 78.7477 92.8906 79.1877 93.1693 79.547C93.4553 79.899 93.7963 80.1703 94.1923 80.361C94.5956 80.5443 95.0466 80.636 95.5453 80.636C96.0219 80.636 96.4143 80.581 96.7223 80.471C97.0303 80.3537 97.2833 80.2253 97.4813 80.086C97.6866 79.9467 97.8553 79.822 97.9873 79.712C98.1266 79.5947 98.2623 79.536 98.3943 79.536C98.5556 79.536 98.6803 79.5983 98.7683 79.723L99.3183 80.438C99.0763 80.7387 98.8013 80.9953 98.4933 81.208C98.1853 81.4207 97.8516 81.6003 97.4923 81.747C97.1403 81.8863 96.7699 81.989 96.3813 82.055C95.9926 82.121 95.5966 82.154 95.1933 82.154C94.4966 82.154 93.8476 82.0257 93.2463 81.769C92.6523 81.5123 92.1353 81.142 91.6953 80.658C91.2553 80.1667 90.9106 79.5653 90.6613 78.854C90.4119 78.1427 90.2873 77.3323 90.2873 76.423C90.2873 75.5943 90.4009 74.828 90.6283 74.124C90.8629 73.42 91.2003 72.815 91.6403 72.309C92.0876 71.7957 92.6339 71.396 93.2793 71.11C93.9319 70.824 94.6799 70.681 95.5233 70.681C96.3079 70.681 96.9973 70.8093 97.5913 71.066C98.1926 71.3153 98.7243 71.671 99.1863 72.133L98.6693 72.837ZM104.841 82.176C103.961 82.176 103.283 81.9303 102.806 81.439C102.337 80.9477 102.102 80.24 102.102 79.316V72.496H100.76C100.643 72.496 100.544 72.463 100.463 72.397C100.382 72.3237 100.342 72.2137 100.342 72.067V71.286L102.168 71.055L102.619 67.612C102.641 67.502 102.689 67.414 102.762 67.348C102.843 67.2747 102.945 67.238 103.07 67.238H104.06V71.077H107.283V72.496H104.06V79.184C104.06 79.6533 104.174 80.0017 104.401 80.229C104.628 80.4563 104.922 80.57 105.281 80.57C105.486 80.57 105.662 80.5443 105.809 80.493C105.963 80.4343 106.095 80.372 106.205 80.306C106.315 80.24 106.407 80.1813 106.48 80.13C106.561 80.0713 106.63 80.042 106.689 80.042C106.792 80.042 106.883 80.1043 106.964 80.229L107.536 81.164C107.199 81.4793 106.792 81.7287 106.315 81.912C105.838 82.088 105.347 82.176 104.841 82.176ZM118.468 70.857V82H117.302C117.023 82 116.847 81.8643 116.774 81.593L116.62 80.394C116.136 80.9293 115.593 81.362 114.992 81.692C114.391 82.0147 113.701 82.176 112.924 82.176C112.315 82.176 111.776 82.077 111.307 81.879C110.845 81.6737 110.456 81.3877 110.141 81.021C109.826 80.6543 109.587 80.2107 109.426 79.69C109.272 79.1693 109.195 78.5937 109.195 77.963V70.857H111.153V77.963C111.153 78.8063 111.344 79.459 111.725 79.921C112.114 80.383 112.704 80.614 113.496 80.614C114.075 80.614 114.614 80.4783 115.113 80.207C115.619 79.9283 116.085 79.547 116.51 79.063V70.857H118.468ZM123.431 73.09C123.783 72.3273 124.216 71.7333 124.729 71.308C125.243 70.8753 125.87 70.659 126.61 70.659C126.845 70.659 127.069 70.6847 127.281 70.736C127.501 70.7873 127.696 70.868 127.864 70.978L127.721 72.441C127.677 72.6243 127.567 72.716 127.391 72.716C127.289 72.716 127.138 72.694 126.94 72.65C126.742 72.606 126.519 72.584 126.269 72.584C125.917 72.584 125.602 72.6353 125.323 72.738C125.052 72.8407 124.806 72.9947 124.586 73.2C124.374 73.398 124.179 73.6473 124.003 73.948C123.835 74.2413 123.681 74.5787 123.541 74.96V82H121.572V70.857H122.694C122.907 70.857 123.054 70.8973 123.134 70.978C123.215 71.0587 123.27 71.198 123.299 71.396L123.431 73.09ZM136.593 75.213C136.593 74.7583 136.527 74.344 136.395 73.97C136.27 73.5887 136.083 73.2623 135.834 72.991C135.592 72.7123 135.295 72.4997 134.943 72.353C134.591 72.199 134.191 72.122 133.744 72.122C132.805 72.122 132.061 72.397 131.511 72.947C130.968 73.4897 130.631 74.245 130.499 75.213H136.593ZM138.177 80.438C137.935 80.7313 137.645 80.988 137.308 81.208C136.971 81.4207 136.608 81.5967 136.219 81.736C135.838 81.8753 135.442 81.978 135.031 82.044C134.62 82.1173 134.213 82.154 133.81 82.154C133.04 82.154 132.329 82.0257 131.676 81.769C131.031 81.505 130.47 81.1237 129.993 80.625C129.524 80.119 129.157 79.4957 128.893 78.755C128.629 78.0143 128.497 77.1637 128.497 76.203C128.497 75.4257 128.614 74.6997 128.849 74.025C129.091 73.3503 129.436 72.7673 129.883 72.276C130.33 71.7773 130.877 71.3887 131.522 71.11C132.167 70.824 132.893 70.681 133.7 70.681C134.367 70.681 134.983 70.7947 135.548 71.022C136.12 71.242 136.611 71.5647 137.022 71.99C137.44 72.408 137.766 72.9287 138.001 73.552C138.236 74.168 138.353 74.872 138.353 75.664C138.353 75.972 138.32 76.1773 138.254 76.28C138.188 76.3827 138.063 76.434 137.88 76.434H130.433C130.455 77.138 130.55 77.7503 130.719 78.271C130.895 78.7917 131.137 79.228 131.445 79.58C131.753 79.9247 132.12 80.185 132.545 80.361C132.97 80.5297 133.447 80.614 133.975 80.614C134.466 80.614 134.888 80.559 135.24 80.449C135.599 80.3317 135.907 80.207 136.164 80.075C136.421 79.943 136.633 79.822 136.802 79.712C136.978 79.5947 137.128 79.536 137.253 79.536C137.414 79.536 137.539 79.5983 137.627 79.723L138.177 80.438ZM151.216 80.614C151.729 80.614 152.188 80.5443 152.591 80.405C153.002 80.2583 153.346 80.0567 153.625 79.8C153.911 79.536 154.127 79.2243 154.274 78.865C154.428 78.4983 154.505 78.095 154.505 77.655C154.505 77.1123 154.413 76.6503 154.23 76.269C154.054 75.8803 153.812 75.565 153.504 75.323C153.203 75.081 152.855 74.905 152.459 74.795C152.063 74.6777 151.649 74.619 151.216 74.619C150.783 74.619 150.369 74.6777 149.973 74.795C149.577 74.905 149.225 75.081 148.917 75.323C148.616 75.565 148.374 75.8803 148.191 76.269C148.015 76.6503 147.927 77.1123 147.927 77.655C147.927 78.095 148 78.4983 148.147 78.865C148.301 79.2243 148.517 79.536 148.796 79.8C149.082 80.0567 149.427 80.2583 149.83 80.405C150.241 80.5443 150.703 80.614 151.216 80.614ZM151.216 67.579C150.747 67.579 150.332 67.6487 149.973 67.788C149.621 67.9273 149.324 68.118 149.082 68.36C148.847 68.602 148.668 68.8843 148.543 69.207C148.426 69.5297 148.367 69.8743 148.367 70.241C148.367 70.6003 148.418 70.9487 148.521 71.286C148.624 71.6233 148.789 71.924 149.016 72.188C149.243 72.4447 149.537 72.6537 149.896 72.815C150.263 72.969 150.703 73.046 151.216 73.046C151.729 73.046 152.166 72.969 152.525 72.815C152.892 72.6537 153.189 72.4447 153.416 72.188C153.643 71.924 153.808 71.6233 153.911 71.286C154.014 70.9487 154.065 70.6003 154.065 70.241C154.065 69.8743 154.003 69.5297 153.878 69.207C153.761 68.8843 153.581 68.602 153.339 68.36C153.104 68.118 152.807 67.9273 152.448 67.788C152.096 67.6487 151.685 67.579 151.216 67.579ZM153.471 73.783C154.454 74.0617 155.209 74.5273 155.737 75.18C156.265 75.8327 156.529 76.6687 156.529 77.688C156.529 78.3773 156.397 79.0007 156.133 79.558C155.876 80.108 155.513 80.5773 155.044 80.966C154.582 81.3547 154.025 81.6553 153.372 81.868C152.719 82.0733 152.001 82.176 151.216 82.176C150.431 82.176 149.713 82.0733 149.06 81.868C148.407 81.6553 147.846 81.3547 147.377 80.966C146.908 80.5773 146.545 80.108 146.288 79.558C146.031 79.0007 145.903 78.3773 145.903 77.688C145.903 76.6687 146.167 75.8327 146.695 75.18C147.223 74.5273 147.978 74.0617 148.961 73.783C148.132 73.475 147.505 73.0167 147.08 72.408C146.662 71.792 146.453 71.0587 146.453 70.208C146.453 69.6287 146.567 69.086 146.794 68.58C147.021 68.074 147.344 67.634 147.762 67.26C148.18 66.886 148.679 66.5927 149.258 66.38C149.845 66.1673 150.497 66.061 151.216 66.061C151.927 66.061 152.576 66.1673 153.163 66.38C153.75 66.5927 154.252 66.886 154.67 67.26C155.088 67.634 155.411 68.074 155.638 68.58C155.865 69.086 155.979 69.6287 155.979 70.208C155.979 71.0587 155.766 71.792 155.341 72.408C154.923 73.0167 154.3 73.475 153.471 73.783ZM164.602 74.575H170.036V76.236H164.602V74.575ZM184.566 80.306C185.174 80.306 185.699 80.2363 186.139 80.097C186.579 79.9577 186.938 79.7633 187.217 79.514C187.503 79.2573 187.712 78.9567 187.844 78.612C187.976 78.26 188.042 77.875 188.042 77.457C188.042 76.643 187.752 76.0013 187.173 75.532C186.593 75.0553 185.724 74.817 184.566 74.817H181.156V80.306H184.566ZM181.156 67.92V73.299H183.972C184.573 73.299 185.094 73.233 185.534 73.101C185.981 72.969 186.348 72.7857 186.634 72.551C186.927 72.3163 187.143 72.034 187.283 71.704C187.422 71.3667 187.492 71 187.492 70.604C187.492 69.6727 187.213 68.9943 186.656 68.569C186.098 68.1363 185.233 67.92 184.06 67.92H181.156ZM184.06 66.237C185.028 66.237 185.86 66.3323 186.557 66.523C187.261 66.7137 187.836 66.985 188.284 67.337C188.738 67.689 189.072 68.1217 189.285 68.635C189.497 69.141 189.604 69.713 189.604 70.351C189.604 70.7397 189.541 71.1137 189.417 71.473C189.299 71.825 189.12 72.155 188.878 72.463C188.636 72.771 188.328 73.0497 187.954 73.299C187.587 73.541 187.154 73.739 186.656 73.893C187.814 74.113 188.683 74.5273 189.263 75.136C189.849 75.7373 190.143 76.5293 190.143 77.512C190.143 78.1793 190.018 78.788 189.769 79.338C189.527 79.888 189.167 80.361 188.691 80.757C188.221 81.153 187.642 81.461 186.953 81.681C186.263 81.8937 185.479 82 184.599 82H179.033V66.237H184.06ZM194.602 65.797V82H192.644V65.797H194.602ZM202.475 70.681C203.289 70.681 204.022 70.8167 204.675 71.088C205.327 71.3593 205.885 71.7443 206.347 72.243C206.809 72.7417 207.161 73.3467 207.403 74.058C207.652 74.762 207.777 75.5503 207.777 76.423C207.777 77.303 207.652 78.095 207.403 78.799C207.161 79.503 206.809 80.1043 206.347 80.603C205.885 81.1017 205.327 81.4867 204.675 81.758C204.022 82.022 203.289 82.154 202.475 82.154C201.653 82.154 200.913 82.022 200.253 81.758C199.6 81.4867 199.043 81.1017 198.581 80.603C198.119 80.1043 197.763 79.503 197.514 78.799C197.272 78.095 197.151 77.303 197.151 76.423C197.151 75.5503 197.272 74.762 197.514 74.058C197.763 73.3467 198.119 72.7417 198.581 72.243C199.043 71.7443 199.6 71.3593 200.253 71.088C200.913 70.8167 201.653 70.681 202.475 70.681ZM202.475 80.625C203.575 80.625 204.396 80.2583 204.939 79.525C205.481 78.7843 205.753 77.754 205.753 76.434C205.753 75.1067 205.481 74.0727 204.939 73.332C204.396 72.5913 203.575 72.221 202.475 72.221C201.917 72.221 201.43 72.3163 201.012 72.507C200.601 72.6977 200.256 72.9727 199.978 73.332C199.706 73.6913 199.501 74.135 199.362 74.663C199.23 75.1837 199.164 75.774 199.164 76.434C199.164 77.754 199.435 78.7843 199.978 79.525C200.528 80.2583 201.36 80.625 202.475 80.625ZM218.015 72.837C217.956 72.9177 217.898 72.98 217.839 73.024C217.78 73.068 217.7 73.09 217.597 73.09C217.487 73.09 217.366 73.046 217.234 72.958C217.102 72.8627 216.937 72.76 216.739 72.65C216.548 72.54 216.31 72.441 216.024 72.353C215.745 72.2577 215.401 72.21 214.99 72.21C214.44 72.21 213.956 72.309 213.538 72.507C213.12 72.6977 212.768 72.9763 212.482 73.343C212.203 73.7097 211.991 74.1533 211.844 74.674C211.705 75.1947 211.635 75.7777 211.635 76.423C211.635 77.0977 211.712 77.699 211.866 78.227C212.02 78.7477 212.236 79.1877 212.515 79.547C212.801 79.899 213.142 80.1703 213.538 80.361C213.941 80.5443 214.392 80.636 214.891 80.636C215.368 80.636 215.76 80.581 216.068 80.471C216.376 80.3537 216.629 80.2253 216.827 80.086C217.032 79.9467 217.201 79.822 217.333 79.712C217.472 79.5947 217.608 79.536 217.74 79.536C217.901 79.536 218.026 79.5983 218.114 79.723L218.664 80.438C218.422 80.7387 218.147 80.9953 217.839 81.208C217.531 81.4207 217.197 81.6003 216.838 81.747C216.486 81.8863 216.116 81.989 215.727 82.055C215.338 82.121 214.942 82.154 214.539 82.154C213.842 82.154 213.193 82.0257 212.592 81.769C211.998 81.5123 211.481 81.142 211.041 80.658C210.601 80.1667 210.256 79.5653 210.007 78.854C209.758 78.1427 209.633 77.3323 209.633 76.423C209.633 75.5943 209.747 74.828 209.974 74.124C210.209 73.42 210.546 72.815 210.986 72.309C211.433 71.7957 211.98 71.396 212.625 71.11C213.278 70.824 214.026 70.681 214.869 70.681C215.654 70.681 216.343 70.8093 216.937 71.066C217.538 71.3153 218.07 71.671 218.532 72.133L218.015 72.837ZM222.735 65.797V75.334H223.241C223.388 75.334 223.509 75.3157 223.604 75.279C223.707 75.235 223.813 75.1507 223.923 75.026L227.443 71.253C227.546 71.1283 227.652 71.033 227.762 70.967C227.879 70.8937 228.033 70.857 228.224 70.857H229.995L225.892 75.224C225.694 75.4733 225.481 75.6677 225.254 75.807C225.386 75.895 225.503 75.9977 225.606 76.115C225.716 76.225 225.819 76.3533 225.914 76.5L230.27 82H228.521C228.352 82 228.206 81.9743 228.081 81.923C227.964 81.8643 227.861 81.7617 227.773 81.615L224.11 77.05C224 76.896 223.89 76.797 223.78 76.753C223.677 76.7017 223.516 76.676 223.296 76.676H222.735V82H220.766V65.797H222.735ZM239.07 72.837C239.011 72.9177 238.952 72.98 238.894 73.024C238.835 73.068 238.754 73.09 238.652 73.09C238.542 73.09 238.421 73.046 238.289 72.958C238.157 72.8627 237.992 72.76 237.794 72.65C237.603 72.54 237.365 72.441 237.079 72.353C236.8 72.2577 236.455 72.21 236.045 72.21C235.495 72.21 235.011 72.309 234.593 72.507C234.175 72.6977 233.823 72.9763 233.537 73.343C233.258 73.7097 233.045 74.1533 232.899 74.674C232.759 75.1947 232.69 75.7777 232.69 76.423C232.69 77.0977 232.767 77.699 232.921 78.227C233.075 78.7477 233.291 79.1877 233.57 79.547C233.856 79.899 234.197 80.1703 234.593 80.361C234.996 80.5443 235.447 80.636 235.946 80.636C236.422 80.636 236.815 80.581 237.123 80.471C237.431 80.3537 237.684 80.2253 237.882 80.086C238.087 79.9467 238.256 79.822 238.388 79.712C238.527 79.5947 238.663 79.536 238.795 79.536C238.956 79.536 239.081 79.5983 239.169 79.723L239.719 80.438C239.477 80.7387 239.202 80.9953 238.894 81.208C238.586 81.4207 238.252 81.6003 237.893 81.747C237.541 81.8863 237.17 81.989 236.782 82.055C236.393 82.121 235.997 82.154 235.594 82.154C234.897 82.154 234.248 82.0257 233.647 81.769C233.053 81.5123 232.536 81.142 232.096 80.658C231.656 80.1667 231.311 79.5653 231.062 78.854C230.812 78.1427 230.688 77.3323 230.688 76.423C230.688 75.5943 230.801 74.828 231.029 74.124C231.263 73.42 231.601 72.815 232.041 72.309C232.488 71.7957 233.034 71.396 233.68 71.11C234.332 70.824 235.08 70.681 235.924 70.681C236.708 70.681 237.398 70.8093 237.992 71.066C238.593 71.3153 239.125 71.671 239.587 72.133L239.07 72.837ZM243.79 72.342C244.266 71.836 244.794 71.4327 245.374 71.132C245.953 70.8313 246.62 70.681 247.376 70.681C247.984 70.681 248.52 70.7837 248.982 70.989C249.451 71.187 249.84 71.473 250.148 71.847C250.463 72.2137 250.701 72.6573 250.863 73.178C251.024 73.6987 251.105 74.2743 251.105 74.905V82H249.136V74.905C249.136 74.0617 248.941 73.409 248.553 72.947C248.171 72.4777 247.588 72.243 246.804 72.243C246.224 72.243 245.682 72.3823 245.176 72.661C244.677 72.9397 244.215 73.3173 243.79 73.794V82H241.821V65.797H243.79V72.342ZM260.127 76.984C259.225 77.0133 258.455 77.0867 257.817 77.204C257.186 77.314 256.669 77.4607 256.266 77.644C255.87 77.8273 255.58 78.0437 255.397 78.293C255.221 78.5423 255.133 78.821 255.133 79.129C255.133 79.4223 255.181 79.6753 255.276 79.888C255.371 80.1007 255.5 80.2767 255.661 80.416C255.83 80.548 256.024 80.647 256.244 80.713C256.471 80.7717 256.713 80.801 256.97 80.801C257.315 80.801 257.63 80.768 257.916 80.702C258.202 80.6287 258.47 80.526 258.719 80.394C258.976 80.262 259.218 80.1043 259.445 79.921C259.68 79.7377 259.907 79.5287 260.127 79.294V76.984ZM253.802 72.43C254.418 71.836 255.082 71.3923 255.793 71.099C256.504 70.8057 257.293 70.659 258.158 70.659C258.781 70.659 259.335 70.7617 259.819 70.967C260.303 71.1723 260.71 71.4583 261.04 71.825C261.37 72.1917 261.619 72.6353 261.788 73.156C261.957 73.6767 262.041 74.2487 262.041 74.872V82H261.172C260.981 82 260.835 81.9707 260.732 81.912C260.629 81.846 260.549 81.7213 260.49 81.538L260.27 80.482C259.977 80.7533 259.691 80.9953 259.412 81.208C259.133 81.4133 258.84 81.5893 258.532 81.736C258.224 81.8753 257.894 81.9817 257.542 82.055C257.197 82.1357 256.812 82.176 256.387 82.176C255.954 82.176 255.547 82.1173 255.166 82C254.785 81.8753 254.451 81.692 254.165 81.45C253.886 81.208 253.663 80.9037 253.494 80.537C253.333 80.163 253.252 79.723 253.252 79.217C253.252 78.777 253.373 78.3553 253.615 77.952C253.857 77.5413 254.249 77.1783 254.792 76.863C255.335 76.5477 256.042 76.291 256.915 76.093C257.788 75.8877 258.858 75.7703 260.127 75.741V74.872C260.127 74.0067 259.94 73.354 259.566 72.914C259.192 72.4667 258.646 72.243 257.927 72.243C257.443 72.243 257.036 72.3053 256.706 72.43C256.383 72.5473 256.101 72.683 255.859 72.837C255.624 72.9837 255.419 73.1193 255.243 73.244C255.074 73.3613 254.906 73.42 254.737 73.42C254.605 73.42 254.491 73.387 254.396 73.321C254.301 73.2477 254.22 73.1597 254.154 73.057L253.802 72.43ZM267.092 70.857V82H265.134V70.857H267.092ZM267.51 67.359C267.51 67.5497 267.469 67.7293 267.389 67.898C267.315 68.0593 267.213 68.206 267.081 68.338C266.956 68.4627 266.806 68.5617 266.63 68.635C266.461 68.7083 266.281 68.745 266.091 68.745C265.9 68.745 265.72 68.7083 265.552 68.635C265.39 68.5617 265.247 68.4627 265.123 68.338C264.998 68.206 264.899 68.0593 264.826 67.898C264.752 67.7293 264.716 67.5497 264.716 67.359C264.716 67.1683 264.752 66.9887 264.826 66.82C264.899 66.644 264.998 66.4937 265.123 66.369C265.247 66.237 265.39 66.1343 265.552 66.061C265.72 65.9877 265.9 65.951 266.091 65.951C266.281 65.951 266.461 65.9877 266.63 66.061C266.806 66.1343 266.956 66.237 267.081 66.369C267.213 66.4937 267.315 66.644 267.389 66.82C267.469 66.9887 267.51 67.1683 267.51 67.359ZM272.157 72.474C272.399 72.2027 272.655 71.957 272.927 71.737C273.198 71.517 273.484 71.33 273.785 71.176C274.093 71.0147 274.415 70.8937 274.753 70.813C275.097 70.725 275.468 70.681 275.864 70.681C276.472 70.681 277.008 70.7837 277.47 70.989C277.939 71.187 278.328 71.473 278.636 71.847C278.951 72.2137 279.189 72.6573 279.351 73.178C279.512 73.6987 279.593 74.2743 279.593 74.905V82H277.624V74.905C277.624 74.0617 277.429 73.409 277.041 72.947C276.659 72.4777 276.076 72.243 275.292 72.243C274.712 72.243 274.17 72.3823 273.664 72.661C273.165 72.9397 272.703 73.3173 272.278 73.794V82H270.309V70.857H271.486C271.764 70.857 271.937 70.9927 272.003 71.264L272.157 72.474ZM296.73 68.701C296.664 68.811 296.591 68.8953 296.51 68.954C296.437 69.0053 296.345 69.031 296.235 69.031C296.111 69.031 295.964 68.9687 295.795 68.844C295.627 68.7193 295.414 68.5837 295.157 68.437C294.908 68.283 294.604 68.1437 294.244 68.019C293.892 67.8943 293.463 67.832 292.957 67.832C292.481 67.832 292.059 67.898 291.692 68.03C291.333 68.1547 291.029 68.327 290.779 68.547C290.537 68.767 290.354 69.0273 290.229 69.328C290.105 69.6213 290.042 69.9403 290.042 70.285C290.042 70.725 290.149 71.0917 290.361 71.385C290.581 71.671 290.867 71.9167 291.219 72.122C291.579 72.3273 291.982 72.507 292.429 72.661C292.884 72.8077 293.346 72.9617 293.815 73.123C294.292 73.2843 294.754 73.4677 295.201 73.673C295.656 73.871 296.059 74.124 296.411 74.432C296.771 74.74 297.057 75.1177 297.269 75.565C297.489 76.0123 297.599 76.5623 297.599 77.215C297.599 77.9043 297.482 78.5533 297.247 79.162C297.013 79.7633 296.668 80.2877 296.213 80.735C295.766 81.1823 295.212 81.5343 294.552 81.791C293.9 82.0477 293.155 82.176 292.319 82.176C291.293 82.176 290.361 81.9927 289.525 81.626C288.689 81.252 287.974 80.7497 287.38 80.119L287.996 79.107C288.055 79.0263 288.125 78.9603 288.205 78.909C288.293 78.8503 288.389 78.821 288.491 78.821C288.587 78.821 288.693 78.8613 288.81 78.942C288.935 79.0153 289.074 79.1107 289.228 79.228C289.382 79.3453 289.558 79.4737 289.756 79.613C289.954 79.7523 290.178 79.8807 290.427 79.998C290.684 80.1153 290.974 80.2143 291.296 80.295C291.619 80.3683 291.982 80.405 292.385 80.405C292.891 80.405 293.342 80.3353 293.738 80.196C294.134 80.0567 294.468 79.8623 294.739 79.613C295.018 79.3563 295.231 79.052 295.377 78.7C295.524 78.348 295.597 77.9557 295.597 77.523C295.597 77.0463 295.487 76.6577 295.267 76.357C295.055 76.049 294.772 75.7923 294.42 75.587C294.068 75.3817 293.665 75.2093 293.21 75.07C292.756 74.9233 292.294 74.7767 291.824 74.63C291.355 74.476 290.893 74.3 290.438 74.102C289.984 73.904 289.58 73.6473 289.228 73.332C288.876 73.0167 288.59 72.6243 288.37 72.155C288.158 71.6783 288.051 71.0917 288.051 70.395C288.051 69.8377 288.158 69.2987 288.37 68.778C288.59 68.2573 288.906 67.7953 289.316 67.392C289.734 66.9887 290.244 66.666 290.845 66.424C291.454 66.182 292.151 66.061 292.935 66.061C293.815 66.061 294.615 66.2003 295.333 66.479C296.059 66.7577 296.697 67.161 297.247 67.689L296.73 68.701ZM303.077 82.176C302.197 82.176 301.519 81.9303 301.042 81.439C300.573 80.9477 300.338 80.24 300.338 79.316V72.496H298.996C298.879 72.496 298.78 72.463 298.699 72.397C298.619 72.3237 298.578 72.2137 298.578 72.067V71.286L300.404 71.055L300.855 67.612C300.877 67.502 300.925 67.414 300.998 67.348C301.079 67.2747 301.182 67.238 301.306 67.238H302.296V71.077H305.519V72.496H302.296V79.184C302.296 79.6533 302.41 80.0017 302.637 80.229C302.865 80.4563 303.158 80.57 303.517 80.57C303.723 80.57 303.899 80.5443 304.045 80.493C304.199 80.4343 304.331 80.372 304.441 80.306C304.551 80.24 304.643 80.1813 304.716 80.13C304.797 80.0713 304.867 80.042 304.925 80.042C305.028 80.042 305.12 80.1043 305.2 80.229L305.772 81.164C305.435 81.4793 305.028 81.7287 304.551 81.912C304.075 82.088 303.583 82.176 303.077 82.176ZM312.174 70.681C312.988 70.681 313.721 70.8167 314.374 71.088C315.026 71.3593 315.584 71.7443 316.046 72.243C316.508 72.7417 316.86 73.3467 317.102 74.058C317.351 74.762 317.476 75.5503 317.476 76.423C317.476 77.303 317.351 78.095 317.102 78.799C316.86 79.503 316.508 80.1043 316.046 80.603C315.584 81.1017 315.026 81.4867 314.374 81.758C313.721 82.022 312.988 82.154 312.174 82.154C311.352 82.154 310.612 82.022 309.952 81.758C309.299 81.4867 308.742 81.1017 308.28 80.603C307.818 80.1043 307.462 79.503 307.213 78.799C306.971 78.095 306.85 77.303 306.85 76.423C306.85 75.5503 306.971 74.762 307.213 74.058C307.462 73.3467 307.818 72.7417 308.28 72.243C308.742 71.7443 309.299 71.3593 309.952 71.088C310.612 70.8167 311.352 70.681 312.174 70.681ZM312.174 80.625C313.274 80.625 314.095 80.2583 314.638 79.525C315.18 78.7843 315.452 77.754 315.452 76.434C315.452 75.1067 315.18 74.0727 314.638 73.332C314.095 72.5913 313.274 72.221 312.174 72.221C311.616 72.221 311.129 72.3163 310.711 72.507C310.3 72.6977 309.955 72.9727 309.677 73.332C309.405 73.6913 309.2 74.135 309.061 74.663C308.929 75.1837 308.863 75.774 308.863 76.434C308.863 77.754 309.134 78.7843 309.677 79.525C310.227 80.2583 311.059 80.625 312.174 80.625ZM321.818 73.09C322.17 72.3273 322.603 71.7333 323.116 71.308C323.63 70.8753 324.257 70.659 324.997 70.659C325.232 70.659 325.456 70.6847 325.668 70.736C325.888 70.7873 326.083 70.868 326.251 70.978L326.108 72.441C326.064 72.6243 325.954 72.716 325.778 72.716C325.676 72.716 325.525 72.694 325.327 72.65C325.129 72.606 324.906 72.584 324.656 72.584C324.304 72.584 323.989 72.6353 323.71 72.738C323.439 72.8407 323.193 72.9947 322.973 73.2C322.761 73.398 322.566 73.6473 322.39 73.948C322.222 74.2413 322.068 74.5787 321.928 74.96V82H319.959V70.857H321.081C321.294 70.857 321.441 70.8973 321.521 70.978C321.602 71.0587 321.657 71.198 321.686 71.396L321.818 73.09ZM337.587 70.857L331.372 85.289C331.306 85.4357 331.222 85.553 331.119 85.641C331.024 85.729 330.873 85.773 330.668 85.773H329.216L331.251 81.351L326.653 70.857H328.347C328.516 70.857 328.648 70.901 328.743 70.989C328.846 71.0697 328.915 71.1613 328.952 71.264L331.933 78.282C332.05 78.59 332.149 78.9127 332.23 79.25C332.333 78.9053 332.443 78.579 332.56 78.271L335.453 71.264C335.497 71.1467 335.57 71.0513 335.673 70.978C335.783 70.8973 335.904 70.857 336.036 70.857H337.587Z" fill="white"/>
</svg>
