<svg preserveAspectRatio="xMidYMid meet" data-bbox="72.885 145.56 897.261 732.879" height="200" width="200" xmlns="http://www.w3.org/2000/svg" viewBox="72.885 145.56 897.261 732.879" data-type="shape" role="presentation" aria-hidden="true">
    <g>
        <path d="M280.389 878.439a37.466 37.466 0 0 1-19.043-5.182c-11.646-6.848-18.677-19.445-18.457-32.959l1.245-74.047C137.915 704.307 72.885 597.74 72.885 483.06c0-186.09 168.229-337.5 375.009-337.5 206.763 0 375.001 151.41 375.001 337.5s-168.238 337.5-375.001 337.5c-16.662 0-33.544-1.117-51.306-3.406l-97.449 56.27a37.557 37.557 0 0 1-18.75 5.015zM447.894 220.56c-165.417 0-300.009 117.755-300.009 262.5 0 93.53 57.853 180.745 150.998 227.583a37.492 37.492 0 0 1 20.618 34.148l-.513 30.561 51.306-29.627c7.434-4.266 16.15-5.895 24.573-4.559 18.86 2.947 36.2 4.395 53.027 4.395 165.418 0 300.001-117.756 300.001-262.5S613.312 220.56 447.894 220.56zm367.585 657.879a37.443 37.443 0 0 1-22.688-7.635l-77.966-59.217c-16.498-12.523-19.702-36.053-7.178-52.551 12.524-16.461 36.035-19.703 52.533-7.178l19.519 14.832.22-9.375a37.495 37.495 0 0 1 21.405-32.996c77.563-36.859 93.823-109.863 93.823-164.631 0-37.133-12.506-73.077-36.182-103.912-12.598-16.425-9.521-39.972 6.921-52.57 16.406-12.634 39.954-9.503 52.57 6.903 33.819 44.056 51.69 95.783 51.69 149.579 0 99.115-40.888 176.789-115.759 221.266l-1.429 60.863a37.522 37.522 0 0 1-21.204 32.904 37.52 37.52 0 0 1-16.275 3.718z"></path>
        <path d="M280.389 445.56c20.691 0 37.5 16.791 37.5 37.5s-16.809 37.5-37.5 37.5c-20.728 0-37.5-16.791-37.5-37.5s16.773-37.5 37.5-37.5zm162.873 0c20.709 0 37.5 16.791 37.5 37.5s-16.791 37.5-37.5 37.5-37.5-16.791-37.5-37.5 16.79-37.5 37.5-37.5zm162.872 0c20.709 0 37.5 16.791 37.5 37.5s-16.791 37.5-37.5 37.5-37.5-16.791-37.5-37.5 16.791-37.5 37.5-37.5z"></path>
    </g>
</svg>