<svg preserveAspectRatio="xMidYMid meet" data-bbox="0 85.646 1024 825.831" height="200" width="200" xmlns="http://www.w3.org/2000/svg" viewBox="0 85.646 1024 825.831" data-type="shape" role="presentation" aria-hidden="true">
    <g>
        <path d="M119.467 143.474c68.266-37.177 157.866-57.828 256-57.828 93.866 0 174.933 20.65 243.2 53.675 64 33.052 119.466 82.603 128 148.65 4.266 20.651-12.8 45.426-34.134 49.55-21.333 4.125-46.933-12.373-51.2-33.023-4.266-28.9-29.866-61.952-85.333-86.699-51.2-24.775-123.733-41.301-204.8-41.301-85.333 0-162.133 20.65-213.333 49.55-51.2 20.65-72.534 53.675-72.534 82.574 0 24.775 12.8 53.675 51.2 78.45 34.134 24.775 85.334 45.426 149.334 57.8 21.333 4.152 38.4 24.774 34.133 49.55-4.267 20.65-25.6 37.176-51.2 33.052-64-12.402-123.733-33.053-170.667-61.952 0 0 0 4.124-4.266 4.124-4.267 12.402-8.534 20.65-8.534 33.053 0 24.746 12.8 49.55 51.2 78.45 34.134 24.746 85.334 45.397 149.334 57.799 21.333 4.124 38.4 24.746 34.133 49.55-4.267 20.65-25.6 37.148-51.2 33.024-68.267-12.374-128-33.024-174.933-66.048-4.267 8.249-8.534 20.622-8.534 32.995 0 28.928 21.334 57.828 68.267 86.756 46.933 28.871 115.2 49.522 192 53.646 21.333 0 38.4 20.65 38.4 41.301 0 24.776-21.333 41.302-46.933 37.149-89.6-4.125-170.667-28.9-230.4-66.048C46.933 808.249 0 754.546 0 688.498c0-28.9 8.533-53.675 21.333-78.45l12.8-12.402C12.8 568.746 0 539.876 0 502.7c0-28.9 8.533-53.675 21.333-78.45C25.6 416 29.867 411.847 38.4 407.723c-25.6-24.775-38.4-57.8-38.4-99.1 0-70.202 51.2-128 119.467-165.15z"></path>
        <path d="M1024 564.622c0-61.923-46.933-111.502-102.4-140.373-59.733-33.053-136.533-49.55-217.6-49.55-81.067 0-157.867 16.497-217.6 49.55-55.467 28.9-102.4 78.45-102.4 140.373 0 28.9 12.8 57.8 29.867 78.45C396.8 663.722 384 688.498 384 721.522c0 61.952 46.933 111.502 102.4 140.402a494.706 494.706 0 0 0 217.6 49.55c85.333 0 157.867-16.526 217.6-49.55 55.467-28.9 102.4-78.45 102.4-140.402 0-33.024-12.8-57.8-25.6-78.45 12.8-20.65 25.6-49.55 25.6-78.45zm-145.067 227.1c-42.666 24.747-106.666 37.15-174.933 37.15s-132.267-16.499-174.933-37.15c-42.667-24.774-59.734-49.55-59.734-70.2 0-8.25 0-12.374 8.534-20.65 59.733 33.052 140.8 53.674 226.133 53.674s166.4-20.622 226.133-53.675c4.267 8.249 8.534 12.402 8.534 20.65 0 20.651-17.067 45.427-59.734 70.202zm34.134-181.674c-38.4 33.024-115.2 61.924-209.067 61.924-89.6 0-162.133-24.747-200.533-53.675l-4.267-4.125-4.267-4.124c-17.066-16.498-25.6-33.024-25.6-45.426 0-20.65 17.067-45.426 59.734-70.2 42.666-24.747 106.666-37.15 174.933-37.15s132.267 16.499 174.933 37.15c42.667 24.774 59.734 49.55 59.734 70.2 0 12.402-8.534 28.9-25.6 45.426z"></path>
    </g>
</svg>