<svg preserveAspectRatio="xMidYMid meet" data-bbox="74 68.692 872.027 878.224" height="200" width="200" xmlns="http://www.w3.org/2000/svg" viewBox="74 68.692 872.027 878.224" data-type="shape" role="presentation" aria-hidden="true">
    <g>
        <path d="M884.35 659.67a386.59 386.59 0 0 0-220.42-464.08l-3.37-1.4a160 160 0 0 0-314.2 9.06 386.78 386.78 0 0 0-204.5 452.86A160 160 0 1 0 347.29 899.9q7.91 3.78 16 7.22a387.29 387.29 0 0 0 300.62 0c4-1.69 7.94-3.47 11.86-5.28a160 160 0 1 0 208.58-242.17zM449.58 170.5a80 80 0 0 1 133.73 59.27c0 2.36-.12 4.69-.32 7a80 80 0 1 1-133.41-66.27zM306.94 798.23a80 80 0 1 1-79.57-88.28c2.05 0 4.08.1 6.1.25a80 80 0 0 1 73.9 79.75 80.92 80.92 0 0 1-.43 8.28zm319.16-12.29a159.5 159.5 0 0 0 12.57 62.27 322 322 0 0 1-255.83-2.5 160.11 160.11 0 0 0-181.55-215.42 321.64 321.64 0 0 1-9.8-78.94c0-118.21 64-221.73 159.19-277.77a160 160 0 0 0 309.6-9C764.37 318 835.75 426.52 835.75 551.35a321.62 321.62 0 0 1-10 79.56 160.13 160.13 0 0 0-199.7 155zm160 82a80 80 0 0 1 0-160 80.82 80.82 0 0 1 8.67.48 80 80 0 0 1-8.67 159.52z"></path>
        <path d="M505.48 484.29a72 72 0 1 0 72 72 72.08 72.08 0 0 0-72-72zm0 80a8 8 0 1 1 8-8 8 8 0 0 1-8 8z"></path>
    </g>
</svg>