<svg width="1105" height="514" viewBox="0 0 1105 514" fill="none" xmlns="http://www.w3.org/2000/svg">
<path d="M100.5 379L107.748 392.252L121 399.5L107.748 406.748L100.5 420L93.2522 406.748L80 399.5L93.2522 392.252L100.5 379Z" fill="white"/>
<path d="M209.5 224L216.748 237.252L230 244.5L216.748 251.748L209.5 265L202.252 251.748L189 244.5L202.252 237.252L209.5 224Z" fill="white"/>
<path d="M356.5 186L363.748 199.252L377 206.5L363.748 213.748L356.5 227L349.252 213.748L336 206.5L349.252 199.252L356.5 186Z" fill="white"/>
<path d="M507.5 187L514.748 200.252L528 207.5L514.748 214.748L507.5 228L500.252 214.748L487 207.5L500.252 200.252L507.5 187Z" fill="white"/>
<path d="M607.5 306L614.748 319.252L628 326.5L614.748 333.748L607.5 347L600.252 333.748L587 326.5L600.252 319.252L607.5 306Z" fill="white"/>
<path d="M782.5 250L789.748 263.252L803 270.5L789.748 277.748L782.5 291L775.252 277.748L762 270.5L775.252 263.252L782.5 250Z" fill="white"/>
<path d="M802.5 60L809.748 73.2522L823 80.4999L809.748 87.7478L802.5 101L795.252 87.7478L782 80.4999L795.252 73.2522L802.5 60Z" fill="white"/>
<line x1="98.5638" y1="399" x2="207.124" y2="243.068" stroke="white" stroke-width="3.5"/>
<line x1="205.552" y1="245.007" x2="355.382" y2="205.308" stroke="white" stroke-width="3.5"/>
<line x1="352" y1="205.25" x2="507" y2="205.25" stroke="white" stroke-width="3.5"/>
<line x1="508.341" y1="205.875" x2="607.973" y2="324.612" stroke="white" stroke-width="3.5"/>
<line x1="606.459" y1="323.959" x2="777.649" y2="268.336" stroke="white" stroke-width="3.5"/>
<line x1="776.27" y1="269.677" x2="803.819" y2="86.7394" stroke="white" stroke-width="3.5"/>
<line x1="850" y1="69.5" x2="1014" y2="69.5" stroke="white"/>
<line x1="830" y1="259.5" x2="994" y2="259.5" stroke="white"/>
<line x1="640" y1="379.5" x2="804" y2="379.5" stroke="white"/>
</svg>
